<svg xmlns="http://www.w3.org/2000/svg" width="100%" height="100%">
  <defs>
    <pattern id="turtle-pattern" patternUnits="userSpaceOnUse" width="420" height="420" transform-origin="50% 50%">
      <path id="turtle-path" d="m 0 0  l 420 0  l 0 420  l -420 0  l -0 -420" stroke="transparent" stroke-width="0.25%" fill="transparent" class="foreground-stroke" transform-origin="50% 50%" xmlns="http://www.w3.org/2000/svg">
      </path>
      <g id="turtle-children" xmlns="http://www.w3.org/2000/svg">
        <path id="turtle-a1-path" d="m 0 0  l 1.14796875977238 1.14026387969476  l 1.15182263751495 1.13637080236074  l 1.15568440899476 1.1324431710052  l 1.15955404245615 1.12848057642721  l 1.16343150419123 1.12448260271346  l 1.16731675847267 1.12044882709509  l 1.17120976748412 1.11637881980074  l 1.17511049124813 1.11227214390565  l 1.17901888755147 1.10812835517678  l 1.18293491186774 1.10394700191375  l 1.18685851727727 1.09972762478547  l 1.19078965438398 1.0954697566624  l 1.19472827122929 1.09117292244418  l 1.19867431320287 1.08683663888255  l 1.20262772295007 1.08246041439945  l 1.20658844027599 1.07804374889995  l 1.21055640204591 1.07358613358014  l 1.21453154208211 1.06908705072952  l 1.21851379105673 1.0645459735279  l 1.22250307638068 1.05996236583649  l 1.22649932208832 1.05533568198312  l 1.23050244871782 1.05066536654129  l 1.23451237318687 1.04595085410282  l 1.23852900866372 1.04119156904402  l 1.24255226443325 1.036386925285  l 1.24658204575785 1.03153632604192  l 1.25061825373292 1.02663916357205  l 1.25466078513674 1.02169481891118  l 1.25870953227446 1.01670266160333  l 1.26276438281596 1.0116620494223  l 1.26682521962729 1.00657232808486  l 1.27089192059543 1.00143283095531  l 1.27496435844605 0.996242878740994  l 1.27904240055397 0.991001779178541  l 1.28312590874593 0.985708826710412  l 1.28721473909546 0.980363302151458  l 1.29130874170927 0.974964472345079  l 1.29540776050503 0.969511589808616  l 1.2995116329799 0.964003892367561  l 1.3036201899695 0.958440602778165  l 1.3077332553969 0.95282092833801  l 1.31185064601106 0.947144060484074  l 1.31597217111426 0.941409174377815  l 1.32009763227806 0.935615428476766  l 1.3242268230471 0.929761964092137  l 1.32835952863033 0.923847904931821  l 1.33249552557879 0.917872356628306  l 1.33663458144965 0.911834406250829  l 1.34077645445548 0.905733121801169  l 1.34492089309817 0.899567551692426  l 1.34906763578684 0.893336724210082  l 1.35321641043866 0.887039646954642  l 1.35736693406198 0.880675306265071  l 1.36151891232075 0.874242666622275  l 1.3656720390792 0.867740670031749  l 1.36982599592595 0.861168235384575  l 1.37398045167623 0.854524257795804  l 1.37813506185136 0.847807607919305  l 1.38228946813393 0.841017131238065  l 1.3864432977978 0.834151647328863  l 1.39059616311115 0.827209949100258  l 1.39474766071147 0.820190802002674  l 1.39889737095076 0.813092943209406  l 1.40304485720944 0.805915080767225  l 1.40718966517704 0.798655892715263  l 1.41133132209817 0.791314026170733  l 1.4154693359814 0.783888096379998  l 1.4196031947694 0.77637668573342  l 1.4237323654677 0.768778342742324  l 1.42785629323011 0.761091580976334  l 1.43197440039797 0.753314877959248  l 1.43608608549076 0.745446674021498  l 1.4401907221451 0.737485371107169  l 1.44428765799913 0.729429331533412  l 1.44837621351907 0.721276876699971  l 1.45245568076432 0.713026285746429  l 1.45652532208761 0.704675794154637  l 1.46058436876602 0.696223592293637  l 1.46463201955873 0.687667823904253  l 1.46866743918693 0.679006584520359  l 1.47268975673099 0.670237919823641  l 1.47669806393966 0.661359823928523  l 1.48069141344571 0.652370237593677  l 1.48466881688201 0.643267046356398  l 1.48862924289144 0.634048078585817  l 1.49257161502395 0.62471110345078  l 1.49649480951304 0.615253828797869  l 1.50039765292371 0.605673898934842  l 1.50427891966329 0.595968892314468  l 1.50813732934575 0.58613631911336  l 1.51197154399938 0.576173618700163  l 1.51578016510708 0.566078156987044  l 1.51956173046755 0.555847223658041  l 1.52331471086456 0.545478029267471  l 1.52703750653072 0.5349677022011  l 1.53072844339096 0.524313285492346  l 1.53438576906945 0.513511733485266  l 1.53800764864277 0.502559908335536  l 1.54159216012028 0.491454576340058  l 1.54513728963117 0.480192404085198  l 1.54864092629599 0.468769954402999  l 1.55210085675818 0.457183682123962  l 1.55551475934937 0.445429929614249  l 1.55888019785953 0.433504922084319  l 1.56219461488046 0.421404762655072  l 1.5654553246885 0.409125427166664  l 1.56865950562868 0.39666275871408  l 1.57180419195942 0.384012461892441  l 1.57488626511266 0.371170096733812  l 1.57790244432022 0.358131072315967  l 1.580849276552 0.344890640022186  l 1.58372312570674 0.331443886429613  l 1.58652016098955 0.317785725802111  l 1.58923634440424 0.303910892161749  l 1.59186741728062 0.289813930911227  l 1.59440888574904 0.275489189977405  l 1.59685600506462 0.260930810444015  l 1.5992037626737 0.246132716639183  l 1.60144685990289 0.23108860564089  l 1.60357969213815 0.215791936160739  l 1.60559632734626 0.200235916763463  l 1.6074904827745 0.184413493376468  l 1.60925549964516 0.168317336040316  l 1.61088431564008 0.151939824847436  l 1.61236943494609 0.135273035012557  l 1.61370289560435 0.118308721014223  l 1.61487623387523 0.101038299742449  l 1.61588044529407 0.0834528325830669  l 1.61670594205211 0.0655430063645086  l 1.61734250628956 0.0472991130878754  l 1.61777923883348 0.0287110283560825  l 1.61800450285066 0.00976818841274614  l 1.61800586181361 -0.00954043430359962  l 1.61777001109408 -0.0292263571892527  l 1.61728270240217 -0.0493016151929058  l 1.61652866017592 -0.0697787903287371  l 1.61549148889551 -0.0906710430957274  l 1.61415357014231 -0.111992145915334  l 1.61249594804309 -0.133756518699131  l 1.61049820152765 -0.155979266654576  l 1.60813830157822 -0.178676220429605  l 1.60539245135256 -0.201863978683961  l 1.60223490671083 -0.225559953154883  l 1.59863777425654 -0.249782416254629  l 1.59457078349915 -0.274550551193785  l 1.59000102914214 -0.299884504562748  l 1.58489267877118 -0.325805441218222  l 1.57920664033382 -0.352335601203562  l 1.57290018272615 -0.379498358270398  l 1.56592650148661 -0.407318279348961  l 1.55823421997887 -0.435821184015559  l 1.54976681444743 -0.46503420259951  l 1.54046194884498 -0.494985831020049  l 1.53025070222659 -0.525705979692958  l 1.51905666760133 -0.557226012822316  l 1.5067948961915 -0.589578772990643  l 1.49337065475268 -0.622798584032952  l 1.47867795552577 -0.656921222516073  l 1.46259780793728 -0.691983844440727  l 1.44499612752863 -0.728024848598692  l 1.42572121965598 -0.765083650702694  l 1.40460073167752 -0.803200331997479  l 1.38143793538892 -0.842415111105138  l 1.35600715813843 -0.882767566139141  l 1.32804812162445 -0.924295502206774  l 1.29725886484484 -0.96703331190366  l 1.26328681149525 -1.01100960462899  l 1.22571737618979 -1.05624377037515  l 1.18405926311235 -1.10274097148321  l 1.13772525525605 -1.15048478143018  l 1.08600675765911 -1.19942624244621  l 1.02803953677598 -1.24946736635069  l 0.962756807966577 -1.30043581827936  l 0.888823745492333 -1.35204524265976  l 0.804544052000716 -1.40383149171835  l 0.707723368359366 -1.45504694859924  l 0.595464014892813 -1.50447884522104  l 0.463846911615577 -1.55012258590557  l 0.307421890669005 -1.58856091160754  l 0.118363131863154 -1.61369890554757  l -0.114963273349251 -1.61394468137254  l -0.410353316498621 -1.56513390621649  l -0.794286044565581 -1.40966083444148  l -1.28730403888442 -0.98024604065599" stroke="currentcolor" stroke-width="0.25%" fill="transparent" class="foreground-stroke" transform-origin="50% 50%" xmlns="http://www.w3.org/2000/svg">
        </path>
        <path id="turtle-a2-path" d="m 0 0  m 420 0  l -1.14026387969477 1.14796875977238  l -1.13637080236074 1.15182263751495  l -1.1324431710052 1.15568440899476  l -1.12848057642721 1.15955404245615  l -1.12448260271346 1.16343150419123  l -1.12044882709509 1.16731675847267  l -1.11637881980074 1.17120976748412  l -1.11227214390565 1.17511049124813  l -1.10812835517678 1.17901888755146  l -1.10394700191375 1.18293491186774  l -1.09972762478547 1.18685851727727  l -1.0954697566624 1.19078965438398  l -1.09117292244418 1.19472827122929  l -1.08683663888255 1.19867431320287  l -1.08246041439945 1.20262772295007  l -1.07804374889995 1.20658844027599  l -1.07358613358014 1.21055640204591  l -1.06908705072952 1.21453154208211  l -1.0645459735279 1.21851379105673  l -1.05996236583648 1.22250307638068  l -1.05533568198312 1.22649932208832  l -1.05066536654129 1.23050244871782  l -1.04595085410282 1.23451237318687  l -1.04119156904402 1.23852900866372  l -1.036386925285 1.24255226443325  l -1.03153632604192 1.24658204575785  l -1.02663916357205 1.25061825373292  l -1.02169481891118 1.25466078513674  l -1.01670266160333 1.25870953227446  l -1.0116620494223 1.26276438281596  l -1.00657232808486 1.26682521962729  l -1.0014328309553 1.27089192059543  l -0.996242878740994 1.27496435844605  l -0.991001779178541 1.27904240055397  l -0.985708826710412 1.28312590874593  l -0.980363302151458 1.28721473909546  l -0.974964472345079 1.29130874170927  l -0.969511589808615 1.29540776050503  l -0.964003892367559 1.2995116329799  l -0.958440602778164 1.3036201899695  l -0.95282092833801 1.30773325539691  l -0.947144060484073 1.31185064601106  l -0.941409174377815 1.31597217111426  l -0.935615428476766 1.32009763227806  l -0.929761964092137 1.3242268230471  l -0.923847904931819 1.32835952863033  l -0.917872356628304 1.33249552557879  l -0.911834406250827 1.33663458144966  l -0.905733121801168 1.34077645445548  l -0.899567551692424 1.34492089309817  l -0.893336724210081 1.34906763578684  l -0.88703964695464 1.35321641043866  l -0.880675306265071 1.35736693406198  l -0.874242666622273 1.36151891232075  l -0.867740670031749 1.3656720390792  l -0.861168235384573 1.36982599592595  l -0.854524257795802 1.37398045167623  l -0.847807607919305 1.37813506185136  l -0.841017131238063 1.38228946813393  l -0.834151647328862 1.3864432977978  l -0.827209949100256 1.39059616311115  l -0.820190802002674 1.39474766071147  l -0.813092943209405 1.39889737095077  l -0.805915080767224 1.40304485720944  l -0.798655892715263 1.40718966517704  l -0.791314026170732 1.41133132209817  l -0.783888096379998 1.41546933598141  l -0.776376685733418 1.4196031947694  l -0.768778342742322 1.4237323654677  l -0.761091580976334 1.42785629323011  l -0.753314877959248 1.43197440039797  l -0.745446674021496 1.43608608549076  l -0.737485371107169 1.4401907221451  l -0.729429331533412 1.44428765799913  l -0.721276876699971 1.44837621351907  l -0.713026285746428 1.45245568076432  l -0.704675794154637 1.45652532208761  l -0.696223592293635 1.46058436876602  l -0.687667823904252 1.46463201955873  l -0.679006584520357 1.46866743918693  l -0.670237919823639 1.47268975673099  l -0.661359823928521 1.47669806393966  l -0.652370237593676 1.48069141344571  l -0.643267046356396 1.48466881688201  l -0.634048078585815 1.48862924289144  l -0.62471110345078 1.49257161502395  l -0.615253828797868 1.49649480951304  l -0.60567389893484 1.50039765292371  l -0.595968892314466 1.50427891966329  l -0.586136319113357 1.50813732934575  l -0.576173618700162 1.51197154399938  l -0.566078156987042 1.51578016510708  l -0.555847223658039 1.51956173046755  l -0.545478029267469 1.52331471086456  l -0.534967702201099 1.52703750653072  l -0.524313285492346 1.53072844339096  l -0.513511733485266 1.53438576906945  l -0.502559908335536 1.53800764864277  l -0.491454576340057 1.54159216012028  l -0.480192404085198 1.54513728963117  l -0.468769954402999 1.54864092629599  l -0.45718368212396 1.55210085675818  l -0.445429929614249 1.55551475934937  l -0.433504922084319 1.55888019785953  l -0.421404762655072 1.56219461488046  l -0.409125427166664 1.5654553246885  l -0.39666275871408 1.56865950562868  l -0.384012461892442 1.57180419195942  l -0.371170096733812 1.57488626511266  l -0.358131072315968 1.57790244432021  l -0.344890640022188 1.580849276552  l -0.331443886429615 1.58372312570674  l -0.317785725802111 1.58652016098955  l -0.303910892161751 1.58923634440424  l -0.289813930911227 1.59186741728062  l -0.275489189977406 1.59440888574904  l -0.260930810444016 1.59685600506462  l -0.246132716639183 1.5992037626737  l -0.231088605640889 1.60144685990289  l -0.215791936160739 1.60357969213815  l -0.200235916763463 1.60559632734626  l -0.18441349337647 1.6074904827745  l -0.168317336040316 1.60925549964516  l -0.151939824847436 1.61088431564008  l -0.135273035012557 1.61236943494609  l -0.118308721014222 1.61370289560435  l -0.101038299742449 1.61487623387523  l -0.0834528325830669 1.61588044529407  l -0.0655430063645086 1.61670594205211  l -0.0472991130878754 1.61734250628956  l -0.0287110283560825 1.61777923883348  l -0.00976818841274614 1.61800450285066  l 0.00954043430359962 1.61800586181361  l 0.0292263571892543 1.61777001109408  l 0.0493016151929074 1.61728270240217  l 0.0697787903287388 1.61652866017592  l 0.090671043095729 1.61549148889551  l 0.111992145915335 1.61415357014231  l 0.133756518699133 1.61249594804309  l 0.155979266654578 1.61049820152765  l 0.178676220429606 1.60813830157822  l 0.201863978683962 1.60539245135256  l 0.225559953154885 1.60223490671083  l 0.249782416254632 1.59863777425654  l 0.27455055119379 1.59457078349915  l 0.299884504562753 1.59000102914213  l 0.325805441218227 1.58489267877118  l 0.352335601203567 1.57920664033381  l 0.379498358270403 1.57290018272615  l 0.407318279348965 1.56592650148661  l 0.435821184015564 1.55823421997887  l 0.465034202599517 1.54976681444743  l 0.494985831020055 1.54046194884498  l 0.525705979692963 1.53025070222659  l 0.557226012822321 1.51905666760132  l 0.58957877299065 1.50679489619149  l 0.622798584032957 1.49337065475268  l 0.65692122251608 1.47867795552577  l 0.691983844440731 1.46259780793727  l 0.728024848598695 1.44499612752863  l 0.765083650702698 1.42572121965598  l 0.803200331997484 1.40460073167752  l 0.842415111105143 1.38143793538892  l 0.882767566139148 1.35600715813843  l 0.924295502206779 1.32804812162444  l 0.967033311903665 1.29725886484484  l 1.011009604629 1.26328681149524  l 1.05624377037516 1.22571737618979  l 1.10274097148322 1.18405926311235  l 1.15048478143019 1.13772525525604  l 1.19942624244622 1.08600675765911  l 1.24946736635069 1.02803953677598  l 1.30043581827936 0.962756807966572  l 1.35204524265976 0.888823745492325  l 1.40383149171835 0.804544052000711  l 1.45504694859925 0.707723368359361  l 1.50447884522104 0.595464014892807  l 1.55012258590557 0.463846911615575  l 1.58856091160754 0.307421890669003  l 1.61369890554758 0.118363131863149  l 1.61394468137254 -0.114963273349259  l 1.56513390621649 -0.410353316498631  l 1.40966083444148 -0.794286044565594  l 0.980246040655966 -1.28730403888444" stroke="currentcolor" stroke-width="0.25%" fill="transparent" class="foreground-stroke" transform-origin="50% 50%" xmlns="http://www.w3.org/2000/svg">
        </path>
        <path id="turtle-a3-path" d="m 0 0  m 420 420  l -1.14796875977238 -1.14026387969476  l -1.15182263751495 -1.13637080236074  l -1.15568440899476 -1.1324431710052  l -1.15955404245615 -1.12848057642721  l -1.16343150419123 -1.12448260271346  l -1.16731675847267 -1.12044882709509  l -1.17120976748412 -1.11637881980074  l -1.17511049124813 -1.11227214390565  l -1.17901888755147 -1.10812835517678  l -1.18293491186774 -1.10394700191375  l -1.18685851727727 -1.09972762478547  l -1.19078965438398 -1.0954697566624  l -1.19472827122929 -1.09117292244418  l -1.19867431320287 -1.08683663888256  l -1.20262772295007 -1.08246041439945  l -1.20658844027599 -1.07804374889995  l -1.21055640204591 -1.07358613358014  l -1.21453154208211 -1.06908705072952  l -1.21851379105673 -1.0645459735279  l -1.22250307638068 -1.05996236583648  l -1.22649932208832 -1.05533568198312  l -1.23050244871782 -1.05066536654129  l -1.23451237318687 -1.04595085410282  l -1.23852900866372 -1.04119156904402  l -1.24255226443325 -1.036386925285  l -1.24658204575785 -1.03153632604192  l -1.25061825373292 -1.02663916357205  l -1.25466078513674 -1.02169481891118  l -1.25870953227446 -1.01670266160333  l -1.26276438281596 -1.0116620494223  l -1.26682521962729 -1.00657232808486  l -1.27089192059543 -1.00143283095531  l -1.27496435844605 -0.996242878740992  l -1.27904240055397 -0.991001779178541  l -1.28312590874593 -0.985708826710412  l -1.28721473909546 -0.980363302151458  l -1.29130874170927 -0.974964472345079  l -1.29540776050503 -0.969511589808615  l -1.2995116329799 -0.964003892367559  l -1.3036201899695 -0.958440602778164  l -1.3077332553969 -0.95282092833801  l -1.31185064601106 -0.947144060484074  l -1.31597217111426 -0.941409174377813  l -1.32009763227806 -0.935615428476766  l -1.32422682304711 -0.929761964092135  l -1.32835952863033 -0.923847904931821  l -1.33249552557879 -0.917872356628306  l -1.33663458144965 -0.911834406250829  l -1.34077645445548 -0.905733121801169  l -1.34492089309817 -0.899567551692424  l -1.34906763578684 -0.893336724210082  l -1.35321641043866 -0.88703964695464  l -1.35736693406198 -0.880675306265071  l -1.36151891232075 -0.874242666622273  l -1.3656720390792 -0.867740670031749  l -1.36982599592595 -0.861168235384573  l -1.37398045167623 -0.854524257795802  l -1.37813506185136 -0.847807607919305  l -1.38228946813393 -0.841017131238063  l -1.3864432977978 -0.834151647328862  l -1.39059616311115 -0.827209949100256  l -1.39474766071147 -0.820190802002674  l -1.39889737095077 -0.813092943209405  l -1.40304485720944 -0.805915080767224  l -1.40718966517704 -0.798655892715263  l -1.41133132209817 -0.791314026170732  l -1.41546933598141 -0.783888096379998  l -1.4196031947694 -0.77637668573342  l -1.4237323654677 -0.768778342742324  l -1.42785629323011 -0.761091580976334  l -1.43197440039797 -0.753314877959248  l -1.43608608549076 -0.745446674021498  l -1.4401907221451 -0.737485371107169  l -1.44428765799913 -0.729429331533412  l -1.44837621351907 -0.721276876699971  l -1.45245568076432 -0.713026285746429  l -1.45652532208761 -0.704675794154637  l -1.46058436876602 -0.696223592293637  l -1.46463201955873 -0.687667823904252  l -1.46866743918693 -0.679006584520359  l -1.47268975673099 -0.670237919823641  l -1.47669806393966 -0.661359823928523  l -1.48069141344571 -0.652370237593676  l -1.48466881688201 -0.643267046356396  l -1.48862924289144 -0.634048078585817  l -1.49257161502395 -0.62471110345078  l -1.49649480951304 -0.615253828797868  l -1.50039765292371 -0.605673898934842  l -1.50427891966329 -0.595968892314466  l -1.50813732934575 -0.586136319113358  l -1.51197154399938 -0.576173618700162  l -1.51578016510708 -0.566078156987042  l -1.51956173046755 -0.555847223658041  l -1.52331471086456 -0.545478029267469  l -1.52703750653072 -0.534967702201099  l -1.53072844339096 -0.524313285492346  l -1.53438576906945 -0.513511733485266  l -1.53800764864277 -0.502559908335536  l -1.54159216012028 -0.491454576340057  l -1.54513728963117 -0.480192404085198  l -1.54864092629599 -0.468769954402999  l -1.55210085675818 -0.45718368212396  l -1.55551475934937 -0.445429929614249  l -1.55888019785953 -0.433504922084321  l -1.56219461488046 -0.421404762655072  l -1.5654553246885 -0.409125427166664  l -1.56865950562868 -0.39666275871408  l -1.57180419195942 -0.384012461892442  l -1.57488626511266 -0.371170096733813  l -1.57790244432022 -0.358131072315968  l -1.580849276552 -0.344890640022188  l -1.58372312570674 -0.331443886429615  l -1.58652016098955 -0.317785725802111  l -1.58923634440424 -0.303910892161749  l -1.59186741728062 -0.289813930911228  l -1.59440888574904 -0.275489189977406  l -1.59685600506462 -0.260930810444016  l -1.5992037626737 -0.246132716639183  l -1.60144685990289 -0.23108860564089  l -1.60357969213815 -0.215791936160739  l -1.60559632734626 -0.200235916763465  l -1.6074904827745 -0.18441349337647  l -1.60925549964516 -0.168317336040316  l -1.61088431564008 -0.151939824847436  l -1.61236943494609 -0.135273035012557  l -1.61370289560435 -0.118308721014222  l -1.61487623387523 -0.101038299742449  l -1.61588044529407 -0.0834528325830685  l -1.61670594205211 -0.0655430063645086  l -1.61734250628956 -0.0472991130878754  l -1.61777923883348 -0.0287110283560825  l -1.61800450285066 -0.00976818841274452  l -1.61800586181361 0.00954043430359962  l -1.61777001109408 0.0292263571892543  l -1.61728270240217 0.0493016151929074  l -1.61652866017592 0.0697787903287388  l -1.61549148889551 0.090671043095729  l -1.61415357014231 0.111992145915335  l -1.61249594804309 0.133756518699135  l -1.61049820152765 0.155979266654578  l -1.60813830157822 0.178676220429606  l -1.60539245135256 0.201863978683964  l -1.60223490671083 0.225559953154885  l -1.59863777425654 0.249782416254634  l -1.59457078349915 0.27455055119379  l -1.59000102914213 0.299884504562753  l -1.58489267877118 0.325805441218227  l -1.57920664033381 0.352335601203567  l -1.57290018272615 0.379498358270403  l -1.56592650148661 0.407318279348965  l -1.55823421997887 0.435821184015566  l -1.54976681444743 0.465034202599517  l -1.54046194884498 0.494985831020057  l -1.53025070222659 0.525705979692963  l -1.51905666760132 0.557226012822321  l -1.50679489619149 0.58957877299065  l -1.49337065475268 0.622798584032959  l -1.47867795552577 0.65692122251608  l -1.46259780793727 0.691983844440731  l -1.44499612752863 0.728024848598697  l -1.42572121965598 0.7650836507027  l -1.40460073167752 0.803200331997486  l -1.38143793538892 0.842415111105144  l -1.35600715813843 0.882767566139149  l -1.32804812162444 0.924295502206782  l -1.29725886484484 0.967033311903668  l -1.26328681149524 1.011009604629  l -1.22571737618978 1.05624377037516  l -1.18405926311234 1.10274097148322  l -1.13772525525604 1.15048478143019  l -1.0860067576591 1.19942624244622  l -1.02803953677597 1.24946736635069  l -0.962756807966567 1.30043581827936  l -0.888823745492322 1.35204524265976  l -0.804544052000704 1.40383149171836  l -0.707723368359355 1.45504694859925  l -0.595464014892798 1.50447884522104  l -0.463846911615566 1.55012258590558  l -0.307421890668988 1.58856091160755  l -0.11836313186313 1.61369890554758  l 0.11496327334928 1.61394468137254  l 0.410353316498655 1.56513390621648  l 0.794286044565623 1.40966083444146  l 1.28730403888447 0.980246040655928" stroke="currentcolor" stroke-width="0.25%" fill="transparent" class="foreground-stroke" transform-origin="50% 50%" xmlns="http://www.w3.org/2000/svg">
        </path>
        <path id="turtle-a4-path" d="m 0 0  m 0 420  l 1.14026387969476 -1.14796875977238  l 1.13637080236074 -1.15182263751495  l 1.1324431710052 -1.15568440899476  l 1.12848057642721 -1.15955404245615  l 1.12448260271346 -1.16343150419123  l 1.12044882709509 -1.16731675847267  l 1.11637881980074 -1.17120976748412  l 1.11227214390565 -1.17511049124813  l 1.10812835517678 -1.17901888755147  l 1.10394700191375 -1.18293491186774  l 1.09972762478547 -1.18685851727727  l 1.0954697566624 -1.19078965438398  l 1.09117292244418 -1.19472827122929  l 1.08683663888255 -1.19867431320287  l 1.08246041439945 -1.20262772295007  l 1.07804374889995 -1.20658844027599  l 1.07358613358014 -1.21055640204591  l 1.06908705072952 -1.21453154208211  l 1.0645459735279 -1.21851379105673  l 1.05996236583649 -1.22250307638068  l 1.05533568198312 -1.22649932208832  l 1.05066536654129 -1.23050244871782  l 1.04595085410282 -1.23451237318687  l 1.04119156904402 -1.23852900866372  l 1.036386925285 -1.24255226443325  l 1.03153632604192 -1.24658204575785  l 1.02663916357205 -1.25061825373292  l 1.02169481891118 -1.25466078513674  l 1.01670266160333 -1.25870953227446  l 1.0116620494223 -1.26276438281596  l 1.00657232808486 -1.26682521962729  l 1.00143283095531 -1.27089192059543  l 0.996242878740994 -1.27496435844605  l 0.991001779178541 -1.27904240055397  l 0.985708826710414 -1.28312590874593  l 0.980363302151458 -1.28721473909546  l 0.974964472345079 -1.29130874170927  l 0.969511589808616 -1.29540776050503  l 0.964003892367561 -1.2995116329799  l 0.958440602778165 -1.3036201899695  l 0.95282092833801 -1.3077332553969  l 0.947144060484074 -1.31185064601106  l 0.941409174377815 -1.31597217111426  l 0.935615428476768 -1.32009763227806  l 0.929761964092137 -1.3242268230471  l 0.923847904931821 -1.32835952863033  l 0.917872356628306 -1.33249552557879  l 0.911834406250829 -1.33663458144965  l 0.905733121801169 -1.34077645445548  l 0.899567551692426 -1.34492089309817  l 0.893336724210082 -1.34906763578684  l 0.887039646954642 -1.35321641043866  l 0.880675306265073 -1.35736693406198  l 0.874242666622275 -1.36151891232075  l 0.867740670031749 -1.3656720390792  l 0.861168235384575 -1.36982599592595  l 0.854524257795804 -1.37398045167623  l 0.847807607919305 -1.37813506185136  l 0.841017131238065 -1.38228946813393  l 0.834151647328863 -1.3864432977978  l 0.827209949100258 -1.39059616311115  l 0.820190802002674 -1.39474766071147  l 0.813092943209406 -1.39889737095076  l 0.805915080767225 -1.40304485720944  l 0.798655892715264 -1.40718966517704  l 0.791314026170733 -1.41133132209817  l 0.783888096379999 -1.4154693359814  l 0.77637668573342 -1.4196031947694  l 0.768778342742324 -1.4237323654677  l 0.761091580976335 -1.42785629323011  l 0.753314877959249 -1.43197440039797  l 0.745446674021498 -1.43608608549076  l 0.737485371107169 -1.4401907221451  l 0.729429331533412 -1.44428765799913  l 0.721276876699971 -1.44837621351907  l 0.713026285746429 -1.45245568076432  l 0.704675794154638 -1.45652532208761  l 0.696223592293637 -1.46058436876602  l 0.687667823904253 -1.46463201955873  l 0.679006584520359 -1.46866743918693  l 0.670237919823641 -1.47268975673099  l 0.661359823928523 -1.47669806393966  l 0.652370237593677 -1.48069141344571  l 0.643267046356398 -1.48466881688201  l 0.634048078585817 -1.48862924289144  l 0.62471110345078 -1.49257161502395  l 0.615253828797869 -1.49649480951304  l 0.605673898934842 -1.5003976529237  l 0.595968892314468 -1.50427891966329  l 0.58613631911336 -1.50813732934575  l 0.576173618700163 -1.51197154399938  l 0.566078156987044 -1.51578016510708  l 0.555847223658041 -1.51956173046755  l 0.545478029267471 -1.52331471086456  l 0.5349677022011 -1.52703750653072  l 0.524313285492346 -1.53072844339096  l 0.513511733485268 -1.53438576906945  l 0.502559908335536 -1.53800764864277  l 0.491454576340058 -1.54159216012028  l 0.480192404085198 -1.54513728963117  l 0.468769954402999 -1.54864092629599  l 0.45718368212396 -1.55210085675818  l 0.445429929614249 -1.55551475934937  l 0.433504922084319 -1.55888019785953  l 0.421404762655072 -1.56219461488046  l 0.409125427166664 -1.5654553246885  l 0.39666275871408 -1.56865950562868  l 0.384012461892441 -1.57180419195942  l 0.371170096733812 -1.57488626511266  l 0.358131072315967 -1.57790244432022  l 0.344890640022186 -1.580849276552  l 0.331443886429613 -1.58372312570674  l 0.317785725802109 -1.58652016098955  l 0.303910892161749 -1.58923634440424  l 0.289813930911227 -1.59186741728062  l 0.275489189977405 -1.59440888574904  l 0.260930810444015 -1.59685600506462  l 0.246132716639183 -1.5992037626737  l 0.23108860564089 -1.60144685990289  l 0.215791936160739 -1.60357969213815  l 0.200235916763461 -1.60559632734626  l 0.184413493376468 -1.6074904827745  l 0.168317336040316 -1.60925549964516  l 0.151939824847436 -1.61088431564008  l 0.135273035012557 -1.61236943494609  l 0.118308721014222 -1.61370289560435  l 0.101038299742449 -1.61487623387523  l 0.0834528325830669 -1.61588044529407  l 0.0655430063645086 -1.61670594205211  l 0.0472991130878754 -1.61734250628956  l 0.0287110283560825 -1.61777923883348  l 0.00976818841274614 -1.61800450285066  l -0.00954043430359962 -1.61800586181361  l -0.0292263571892543 -1.61777001109408  l -0.0493016151929074 -1.61728270240217  l -0.0697787903287371 -1.61652866017592  l -0.090671043095729 -1.61549148889551  l -0.111992145915334 -1.61415357014231  l -0.133756518699131 -1.61249594804309  l -0.155979266654578 -1.61049820152765  l -0.178676220429605 -1.60813830157822  l -0.201863978683962 -1.60539245135256  l -0.225559953154883 -1.60223490671083  l -0.249782416254629 -1.59863777425654  l -0.274550551193786 -1.59457078349915  l -0.299884504562748 -1.59000102914214  l -0.325805441218222 -1.58489267877118  l -0.352335601203562 -1.57920664033382  l -0.379498358270398 -1.57290018272615  l -0.407318279348961 -1.56592650148661  l -0.435821184015561 -1.55823421997887  l -0.46503420259951 -1.54976681444743  l -0.494985831020049 -1.54046194884498  l -0.525705979692958 -1.53025070222659  l -0.557226012822316 -1.51905666760132  l -0.589578772990643 -1.5067948961915  l -0.622798584032952 -1.49337065475268  l -0.656921222516075 -1.47867795552577  l -0.691983844440728 -1.46259780793728  l -0.728024848598694 -1.44499612752863  l -0.765083650702695 -1.42572121965598  l -0.803200331997481 -1.40460073167752  l -0.842415111105138 -1.38143793538892  l -0.882767566139143 -1.35600715813843  l -0.924295502206776 -1.32804812162445  l -0.967033311903663 -1.29725886484484  l -1.011009604629 -1.26328681149524  l -1.05624377037515 -1.22571737618979  l -1.10274097148322 -1.18405926311235  l -1.15048478143019 -1.13772525525604  l -1.19942624244622 -1.08600675765911  l -1.24946736635069 -1.02803953677598  l -1.30043581827936 -0.962756807966574  l -1.35204524265976 -0.888823745492327  l -1.40383149171835 -0.804544052000709  l -1.45504694859925 -0.707723368359358  l -1.50447884522104 -0.595464014892803  l -1.55012258590558 -0.463846911615569  l -1.58856091160754 -0.307421890668995  l -1.61369890554758 -0.11836313186314  l -1.61394468137254 0.114963273349267  l -1.56513390621648 0.410353316498638  l -1.40966083444147 0.794286044565609  l -0.980246040655943 1.28730403888446" stroke="currentcolor" stroke-width="0.25%" fill="transparent" class="foreground-stroke" transform-origin="50% 50%" xmlns="http://www.w3.org/2000/svg">
        </path>
        <path id="turtle-e1-path" d="m 0 0  m 210 210  l 0.707106781186548 -0.707106781186548  l 0.704721833795185 -0.709483711562395  l 0.702315779681927 -0.711865538995791  l 0.699888370008925 -0.714252245027099  l 0.69743935187609 -0.716643810030241  l 0.694968468234861 -0.719040213172595  l 0.692475457799719 -0.72144143237346  l 0.689960054957351 -0.723847444261047  l 0.687421989673406 -0.726258224127931  l 0.684860987396767 -0.728673745884896  l 0.68227676896124 -0.731093982013127  l 0.67966905048461 -0.73351890351466  l 0.677037543264938 -0.735948479861041  l 0.674381953674054 -0.738382678940105  l 0.671701983048114 -0.740821467000809  l 0.668997327575154 -0.743264808596036  l 0.666267678179524 -0.745712666523284  l 0.663512720403109 -0.748165001763158  l 0.660732134283226 -0.750621773415568  l 0.657925594227086 -0.753082938633545  l 0.655092768882699 -0.755548452554566  l 0.652233321006118 -0.758018268229289  l 0.649346907324881 -0.76049233654759  l 0.646433178397524 -0.762970606161781  l 0.64349177846904 -0.765453023406892  l 0.640522345322128 -0.767939532217896  l 0.637524510124102 -0.770430074043728  l 0.634497897269288 -0.772924587757985  l 0.631442124216778 -0.775423009566135  l 0.628356801323342 -0.7779252729091  l 0.625241531671356 -0.780431308363047  l 0.622095910891552 -0.782941043535214  l 0.618919526980407 -0.785454402955607  l 0.615711960111974 -0.787971307964365  l 0.612472782443956 -0.790491676594611  l 0.609201557917816 -0.793015423450582  l 0.605897842052684 -0.79554245958082  l 0.602561181732866 -0.798072692346188  l 0.599191114988671 -0.800606025282494  l 0.595787170770348 -0.803142357957458  l 0.592348868714843 -0.805681585821748  l 0.588875718905118 -0.808223600053835  l 0.585367221621744 -0.810768287398342  l 0.581822867086466 -0.813315529997605  l 0.578242135197438 -0.815865205216099  l 0.5746244952558 -0.818417185457403  l 0.570969405683247 -0.82097133797333  l 0.567276313730258 -0.823527524664847  l 0.563544655174592 -0.826085601874376  l 0.55977385400967 -0.828645420169061  l 0.555963322122447 -0.831206824114535  l 0.552112458960322 -0.833769652038731  l 0.548220651186676 -0.836333735785217  l 0.544287272324537 -0.83889890045554  l 0.540311682387908 -0.84146496414001  l 0.536293227500228 -0.844031737636322  l 0.532231239499437 -0.84659902415541  l 0.528125035529083 -0.849166619013845  l 0.523973917614875 -0.851734309312077  l 0.519777172226054 -0.854301873597786  l 0.515534069820952 -0.856869081513533  l 0.51124386437603 -0.859435693427882  l 0.506905792897687 -0.862001460049092  l 0.502519074916101 -0.864566122020442  l 0.498082911960262 -0.867129409496176  l 0.493596487013422 -0.869691041696997  l 0.489058963948037 -0.872250726443993  l 0.484469486939292 -0.874808159669752  l 0.479827179856249 -0.877363024905426  l 0.475131145629572 -0.879914992742328  l 0.470380465594768 -0.882463720266646  l 0.465574198809795 -0.885008850465699  l 0.460711381345849 -0.887550011604078  l 0.45579102555006 -0.890086816567926  l 0.450812119278764 -0.892618862175447  l 0.445773625099949 -0.895145728451658  l 0.440674479463388 -0.897666977865217  l 0.43551359183689 -0.900182154525033  l 0.430289843807017 -0.902690783334212  l 0.425002088142506 -0.905192369098696  l 0.419649147818559 -0.907686395587792  l 0.414229815000037 -0.910172324543564  l 0.408742849981472 -0.912649594635873  l 0.403186980081737 -0.915117620359574  l 0.397560898491008 -0.917575790870173  l 0.391863263067599 -0.92002346875393  l 0.386092695082034 -0.922459988728124  l 0.380247777905592 -0.924884656266856  l 0.374327055640401 -0.927296746147417  l 0.368329031687967 -0.929695500911887  l 0.362252167252811 -0.932080129238169  l 0.356094879777723 -0.934449804214271  l 0.349855541306892 -0.936803661509103  l 0.343532476772934 -0.939140797432554  l 0.337123962203607 -0.941460266877015  l 0.330628222843712 -0.943761081131877  l 0.324043431187397 -0.946042205561834  l 0.317367704915772 -0.948302557139068  l 0.310599104734393 -0.95054100181854  l 0.303735632104835 -0.952756351744703  l 0.296775226864176 -0.954947362276956  l 0.289715764725792 -0.957112728820043  l 0.282555054654436 -0.959251083444386  l 0.275290836108079 -0.961360991280026  l 0.267920776138484 -0.96344094666635  l 0.260442466341917 -0.965489369038178  l 0.252853419650818 -0.967504598526998  l 0.245151066956599 -0.969484891254134  l 0.237332753553052 -0.971428414290485  l 0.229395735389082 -0.973333240255002  l 0.221337175118714 -0.975197341521432  l 0.213154137935416 -0.977018583999818  l 0.204843587176862 -0.978794720455988  l 0.196402379685259 -0.980523383328499  l 0.187827260907265 -0.982202076998453  l 0.179114859716352 -0.983828169462936  l 0.170261682939214 -0.985398883357753  l 0.161264109566457 -0.986911286269307  l 0.152118384626362 -0.988362280269065  l 0.142820612698891 -0.98974859059678  l 0.133366751045483 -0.991066753410471  l 0.123752602328315 -0.992313102511989  l 0.113973806890761 -0.993483754946616  l 0.104025834568753 -0.994574595363402  l 0.093903976000421 -0.995581259009686  l 0.083603333399115 -0.996499113218148  l 0.073118810752319 -0.997323237227614  l 0.062445103406333 -0.998048400159317  l 0.05157668699379 -0.99866903694805  l 0.040507805658117 -0.999179222002121  l 0.029232459526032 -0.999572640336889  l 0.017744391376022 -0.999842555893024  l 0.00603707244759 -0.999981776712087  l -0.005896312667058 -0.999982616597375  l -0.018062882110303 -0.999836852836436  l -0.030470073889484 -0.999535679501822  l -0.043125664117013 -0.999069655777047  l -0.056037786428567 -0.998428648673598  l -0.069214952648713 -0.997601769409937  l -0.082666074772924 -0.996577302612114  l -0.096400488332811 -0.995342627364666  l -0.110427977206863 -0.99388412898587  l -0.124758799930972 -0.992187100218393  l -0.139403717550552 -0.99023563030881  l -0.154374023037435 -0.988012480190022  l -0.169681572267778 -0.985498941670023  l -0.185338816519201 -0.982674678157152  l -0.201358836392517 -0.97951754400146  l -0.217755376990431 -0.976003378985829  l -0.234542884085891 -0.972105773835683  l -0.251736540876782 -0.967795801802938  l -0.269352304738838 -0.963041710380125  l -0.287406943137702 -0.957808565965163  l -0.305918067520002 -0.952057842762102  l -0.32490416353931 -0.945746945284425  l -0.344384615339776 -0.938828651414769  l -0.364379720753676 -0.931250459921214  l -0.384910693077672 -0.92295382243884  l -0.405999643446066 -0.913873234930134  l -0.427669535530189 -0.903935157176328  l -0.449944101088488 -0.893056720424673  l -0.472847700371118 -0.88114417222935  l -0.496405104949643 -0.86809099279968  l -0.520641171299494 -0.853775597418836  l -0.54558036004001 -0.838058512717706  l -0.57124603601244 -0.820778877859362  l -0.59765945500984 -0.80175007068122  l -0.624838298613311 -0.780754187043542  l -0.652794550497181 -0.757534999086632  l -0.681531401163703 -0.731788869297586  l -0.711038698463348 -0.703152877607387  l -0.741286184830331 -0.671189088245401  l -0.77221330023854 -0.635363375506255  l -0.803713535884425 -0.5950164302237  l -0.835609914291328 -0.549323284722247  l -0.867615576359407 -0.497235569583004  l -0.899268469461153 -0.437397096278651  l -0.929819061701794 -0.36801700028123  l -0.958028444818524 -0.286673156955095  l -0.981784636572979 -0.189997177319201  l -0.997320771236908 -0.073152438506313  l -0.997472669050351 0.071051210387783  l -0.967305950986679 0.25361229699239  l -0.871218308294374 0.490895772331244" stroke="currentcolor" stroke-width="0.25%" fill="transparent" class="foreground-stroke" transform-origin="50% 50%" xmlns="http://www.w3.org/2000/svg">
        </path>
        <path id="turtle-e2-path" d="m 0 0  m 210 210  l 0.707106781186548 0.707106781186548  l 0.709483711562395 0.704721833795185  l 0.711865538995791 0.702315779681926  l 0.714252245027099 0.699888370008925  l 0.716643810030241 0.697439351876089  l 0.719040213172595 0.694968468234861  l 0.72144143237346 0.692475457799719  l 0.723847444261047 0.689960054957351  l 0.72625822412793 0.687421989673406  l 0.728673745884896 0.684860987396767  l 0.731093982013127 0.68227676896124  l 0.73351890351466 0.679669050484609  l 0.735948479861041 0.677037543264938  l 0.738382678940105 0.674381953674054  l 0.740821467000809 0.671701983048114  l 0.743264808596036 0.668997327575154  l 0.745712666523284 0.666267678179524  l 0.748165001763158 0.663512720403109  l 0.750621773415568 0.660732134283226  l 0.753082938633545 0.657925594227086  l 0.755548452554566 0.655092768882698  l 0.758018268229289 0.652233321006118  l 0.76049233654759 0.649346907324881  l 0.762970606161781 0.646433178397524  l 0.765453023406892 0.64349177846904  l 0.767939532217896 0.640522345322128  l 0.770430074043728 0.637524510124101  l 0.772924587757986 0.634497897269288  l 0.775423009566135 0.631442124216778  l 0.7779252729091 0.628356801323342  l 0.780431308363047 0.625241531671355  l 0.782941043535214 0.622095910891552  l 0.785454402955607 0.618919526980407  l 0.787971307964365 0.615711960111974  l 0.790491676594611 0.612472782443956  l 0.793015423450583 0.609201557917815  l 0.79554245958082 0.605897842052684  l 0.798072692346188 0.602561181732866  l 0.800606025282494 0.59919111498867  l 0.803142357957458 0.595787170770347  l 0.805681585821748 0.592348868714842  l 0.808223600053835 0.588875718905118  l 0.810768287398342 0.585367221621744  l 0.813315529997605 0.581822867086465  l 0.815865205216099 0.578242135197438  l 0.818417185457404 0.574624495255799  l 0.820971337973331 0.570969405683246  l 0.823527524664847 0.567276313730257  l 0.826085601874377 0.563544655174591  l 0.828645420169062 0.55977385400967  l 0.831206824114536 0.555963322122446  l 0.833769652038732 0.552112458960321  l 0.836333735785217 0.548220651186675  l 0.838898900455541 0.544287272324537  l 0.84146496414001 0.540311682387908  l 0.844031737636322 0.536293227500228  l 0.84659902415541 0.532231239499436  l 0.849166619013845 0.528125035529083  l 0.851734309312077 0.523973917614875  l 0.854301873597786 0.519777172226054  l 0.856869081513533 0.515534069820952  l 0.859435693427882 0.511243864376029  l 0.862001460049092 0.506905792897687  l 0.864566122020443 0.5025190749161  l 0.867129409496176 0.498082911960261  l 0.869691041696998 0.493596487013422  l 0.872250726443993 0.489058963948036  l 0.874808159669753 0.484469486939291  l 0.877363024905426 0.479827179856248  l 0.879914992742328 0.475131145629571  l 0.882463720266647 0.470380465594767  l 0.885008850465699 0.465574198809794  l 0.887550011604079 0.460711381345848  l 0.890086816567926 0.45579102555006  l 0.892618862175447 0.450812119278763  l 0.895145728451659 0.445773625099949  l 0.897666977865217 0.440674479463388  l 0.900182154525033 0.43551359183689  l 0.902690783334212 0.430289843807016  l 0.905192369098696 0.425002088142505  l 0.907686395587792 0.419649147818559  l 0.910172324543564 0.414229815000036  l 0.912649594635873 0.408742849981472  l 0.915117620359574 0.403186980081736  l 0.917575790870173 0.397560898491006  l 0.92002346875393 0.391863263067599  l 0.922459988728125 0.386092695082034  l 0.924884656266856 0.380247777905591  l 0.927296746147418 0.3743270556404  l 0.929695500911888 0.368329031687966  l 0.932080129238169 0.36225216725281  l 0.934449804214271 0.356094879777722  l 0.936803661509103 0.349855541306891  l 0.939140797432554 0.343532476772934  l 0.941460266877016 0.337123962203606  l 0.943761081131877 0.330628222843711  l 0.946042205561834 0.324043431187397  l 0.948302557139068 0.317367704915772  l 0.95054100181854 0.310599104734393  l 0.952756351744703 0.303735632104835  l 0.954947362276956 0.296775226864176  l 0.957112728820043 0.289715764725792  l 0.959251083444386 0.282555054654435  l 0.961360991280026 0.275290836108079  l 0.96344094666635 0.267920776138484  l 0.965489369038178 0.260442466341917  l 0.967504598526998 0.252853419650818  l 0.969484891254134 0.2451510669566  l 0.971428414290485 0.237332753553052  l 0.973333240255002 0.229395735389082  l 0.975197341521431 0.221337175118715  l 0.977018583999818 0.213154137935417  l 0.978794720455988 0.204843587176862  l 0.980523383328499 0.196402379685259  l 0.982202076998452 0.187827260907265  l 0.983828169462936 0.179114859716352  l 0.985398883357753 0.170261682939214  l 0.986911286269307 0.161264109566458  l 0.988362280269065 0.152118384626362  l 0.98974859059678 0.142820612698891  l 0.991066753410471 0.133366751045484  l 0.992313102511989 0.123752602328315  l 0.993483754946616 0.113973806890761  l 0.994574595363402 0.104025834568753  l 0.995581259009686 0.093903976000421  l 0.996499113218148 0.083603333399115  l 0.997323237227614 0.073118810752318  l 0.998048400159317 0.062445103406333  l 0.99866903694805 0.05157668699379  l 0.999179222002121 0.040507805658117  l 0.999572640336889 0.029232459526032  l 0.999842555893024 0.017744391376021  l 0.999981776712087 0.00603707244759  l 0.999982616597375 -0.005896312667061  l 0.999836852836436 -0.018062882110304  l 0.999535679501822 -0.030470073889485  l 0.999069655777047 -0.043125664117013  l 0.998428648673598 -0.056037786428567  l 0.997601769409936 -0.069214952648715  l 0.996577302612114 -0.082666074772925  l 0.995342627364666 -0.096400488332812  l 0.993884128985869 -0.110427977206865  l 0.992187100218393 -0.124758799930974  l 0.99023563030881 -0.139403717550554  l 0.988012480190021 -0.154374023037437  l 0.985498941670022 -0.16968157226778  l 0.982674678157151 -0.185338816519204  l 0.979517544001459 -0.20135883639252  l 0.976003378985828 -0.217755376990433  l 0.972105773835682 -0.234542884085894  l 0.967795801802938 -0.251736540876785  l 0.963041710380124 -0.269352304738842  l 0.957808565965162 -0.287406943137706  l 0.952057842762101 -0.305918067520006  l 0.945746945284424 -0.324904163539313  l 0.938828651414768 -0.34438461533978  l 0.931250459921213 -0.36437972075368  l 0.922953822438839 -0.384910693077675  l 0.913873234930132 -0.40599964344607  l 0.903935157176326 -0.427669535530192  l 0.893056720424672 -0.44994410108849  l 0.881144172229349 -0.47284770037112  l 0.868090992799678 -0.496405104949646  l 0.853775597418834 -0.520641171299498  l 0.838058512717703 -0.545580360040014  l 0.82077887785936 -0.571246036012443  l 0.801750070681217 -0.597659455009843  l 0.78075418704354 -0.624838298613314  l 0.757534999086629 -0.652794550497185  l 0.731788869297584 -0.681531401163706  l 0.703152877607384 -0.71103869846335  l 0.671189088245398 -0.741286184830333  l 0.635363375506252 -0.772213300238543  l 0.595016430223697 -0.803713535884427  l 0.549323284722243 -0.835609914291331  l 0.497235569583 -0.867615576359409  l 0.437397096278647 -0.899268469461155  l 0.368017000281229 -0.929819061701795  l 0.286673156955093 -0.958028444818524  l 0.189997177319199 -0.981784636572979  l 0.07315243850631 -0.997320771236908  l -0.071051210387788 -0.997472669050351  l -0.253612296992398 -0.967305950986677  l -0.490895772331254 -0.871218308294368" stroke="currentcolor" stroke-width="0.25%" fill="transparent" class="foreground-stroke" transform-origin="50% 50%" xmlns="http://www.w3.org/2000/svg">
        </path>
        <path id="turtle-e3-path" d="m 0 0  m 210 210  l -0.707106781186548 0.707106781186548  l -0.704721833795185 0.709483711562395  l -0.702315779681927 0.711865538995791  l -0.699888370008925 0.714252245027099  l -0.697439351876089 0.716643810030241  l -0.694968468234861 0.719040213172595  l -0.692475457799719 0.72144143237346  l -0.689960054957351 0.723847444261047  l -0.687421989673406 0.72625822412793  l -0.684860987396766 0.728673745884896  l -0.68227676896124 0.731093982013127  l -0.679669050484609 0.73351890351466  l -0.677037543264938 0.735948479861041  l -0.674381953674054 0.738382678940105  l -0.671701983048114 0.740821467000809  l -0.668997327575154 0.743264808596036  l -0.666267678179524 0.745712666523284  l -0.663512720403108 0.748165001763158  l -0.660732134283226 0.750621773415568  l -0.657925594227086 0.753082938633545  l -0.655092768882698 0.755548452554566  l -0.652233321006118 0.758018268229289  l -0.649346907324881 0.76049233654759  l -0.646433178397524 0.762970606161781  l -0.643491778469039 0.765453023406893  l -0.640522345322128 0.767939532217896  l -0.637524510124101 0.770430074043728  l -0.634497897269288 0.772924587757985  l -0.631442124216778 0.775423009566135  l -0.628356801323342 0.7779252729091  l -0.625241531671355 0.780431308363047  l -0.622095910891552 0.782941043535214  l -0.618919526980406 0.785454402955608  l -0.615711960111974 0.787971307964364  l -0.612472782443956 0.790491676594611  l -0.609201557917815 0.793015423450583  l -0.605897842052684 0.79554245958082  l -0.602561181732865 0.798072692346188  l -0.59919111498867 0.800606025282494  l -0.595787170770347 0.803142357957458  l -0.592348868714842 0.805681585821748  l -0.588875718905118 0.808223600053835  l -0.585367221621744 0.810768287398342  l -0.581822867086465 0.813315529997605  l -0.578242135197438 0.815865205216099  l -0.5746244952558 0.818417185457403  l -0.570969405683246 0.82097133797333  l -0.567276313730257 0.823527524664847  l -0.563544655174591 0.826085601874377  l -0.55977385400967 0.828645420169062  l -0.555963322122446 0.831206824114536  l -0.552112458960321 0.833769652038732  l -0.548220651186676 0.836333735785217  l -0.544287272324537 0.838898900455541  l -0.540311682387908 0.84146496414001  l -0.536293227500228 0.844031737636322  l -0.532231239499437 0.84659902415541  l -0.528125035529083 0.849166619013845  l -0.523973917614875 0.851734309312077  l -0.519777172226054 0.854301873597786  l -0.515534069820952 0.856869081513533  l -0.511243864376029 0.859435693427882  l -0.506905792897688 0.862001460049092  l -0.5025190749161 0.864566122020442  l -0.498082911960261 0.867129409496176  l -0.493596487013422 0.869691041696998  l -0.489058963948036 0.872250726443993  l -0.484469486939292 0.874808159669753  l -0.479827179856249 0.877363024905426  l -0.475131145629572 0.879914992742328  l -0.470380465594767 0.882463720266646  l -0.465574198809794 0.885008850465699  l -0.460711381345849 0.887550011604078  l -0.45579102555006 0.890086816567926  l -0.450812119278764 0.892618862175447  l -0.445773625099949 0.895145728451658  l -0.440674479463388 0.897666977865217  l -0.43551359183689 0.900182154525033  l -0.430289843807016 0.902690783334212  l -0.425002088142506 0.905192369098696  l -0.419649147818559 0.907686395587792  l -0.414229815000037 0.910172324543564  l -0.408742849981472 0.912649594635873  l -0.403186980081736 0.915117620359574  l -0.397560898491007 0.917575790870173  l -0.391863263067599 0.92002346875393  l -0.386092695082034 0.922459988728125  l -0.380247777905591 0.924884656266856  l -0.3743270556404 0.927296746147418  l -0.368329031687966 0.929695500911887  l -0.36225216725281 0.932080129238169  l -0.356094879777722 0.934449804214271  l -0.349855541306891 0.936803661509103  l -0.343532476772934 0.939140797432554  l -0.337123962203606 0.941460266877016  l -0.330628222843711 0.943761081131877  l -0.324043431187397 0.946042205561834  l -0.317367704915772 0.948302557139068  l -0.310599104734393 0.95054100181854  l -0.303735632104836 0.952756351744703  l -0.296775226864177 0.954947362276956  l -0.289715764725792 0.957112728820043  l -0.282555054654435 0.959251083444386  l -0.275290836108079 0.961360991280026  l -0.267920776138484 0.96344094666635  l -0.260442466341917 0.965489369038178  l -0.252853419650818 0.967504598526998  l -0.2451510669566 0.969484891254134  l -0.237332753553053 0.971428414290485  l -0.229395735389083 0.973333240255002  l -0.221337175118715 0.975197341521431  l -0.213154137935417 0.977018583999818  l -0.204843587176862 0.978794720455988  l -0.196402379685259 0.980523383328499  l -0.187827260907266 0.982202076998452  l -0.179114859716353 0.983828169462936  l -0.170261682939214 0.985398883357753  l -0.161264109566458 0.986911286269307  l -0.152118384626362 0.988362280269065  l -0.142820612698891 0.98974859059678  l -0.133366751045484 0.991066753410471  l -0.123752602328315 0.992313102511989  l -0.113973806890762 0.993483754946616  l -0.104025834568753 0.994574595363402  l -0.093903976000421 0.995581259009686  l -0.083603333399115 0.996499113218148  l -0.073118810752318 0.997323237227614  l -0.062445103406333 0.998048400159317  l -0.05157668699379 0.998669036948049  l -0.040507805658117 0.999179222002121  l -0.029232459526032 0.999572640336889  l -0.017744391376021 0.999842555893024  l -0.00603707244759 0.999981776712087  l 0.005896312667061 0.999982616597375  l 0.018062882110304 0.999836852836436  l 0.030470073889485 0.999535679501822  l 0.043125664117013 0.999069655777047  l 0.056037786428567 0.998428648673598  l 0.069214952648715 0.997601769409936  l 0.082666074772925 0.996577302612114  l 0.096400488332812 0.995342627364666  l 0.110427977206865 0.993884128985869  l 0.124758799930974 0.992187100218393  l 0.139403717550554 0.99023563030881  l 0.154374023037438 0.988012480190021  l 0.16968157226778 0.985498941670022  l 0.185338816519204 0.982674678157151  l 0.20135883639252 0.979517544001459  l 0.217755376990433 0.976003378985828  l 0.234542884085894 0.972105773835682  l 0.251736540876786 0.967795801802937  l 0.269352304738842 0.963041710380124  l 0.287406943137707 0.957808565965162  l 0.305918067520006 0.952057842762101  l 0.324904163539313 0.945746945284424  l 0.34438461533978 0.938828651414768  l 0.36437972075368 0.931250459921212  l 0.384910693077676 0.922953822438839  l 0.40599964344607 0.913873234930132  l 0.427669535530192 0.903935157176326  l 0.449944101088491 0.893056720424671  l 0.47284770037112 0.881144172229348  l 0.496405104949647 0.868090992799678  l 0.520641171299498 0.853775597418834  l 0.545580360040015 0.838058512717702  l 0.571246036012444 0.820778877859359  l 0.597659455009846 0.801750070681216  l 0.624838298613317 0.780754187043538  l 0.652794550497187 0.757534999086626  l 0.681531401163709 0.73178886929758  l 0.711038698463355 0.703152877607379  l 0.741286184830337 0.671189088245394  l 0.772213300238545 0.635363375506249  l 0.80371353588443 0.595016430223694  l 0.835609914291333 0.54932328472224  l 0.86761557635941 0.497235569582998  l 0.899268469461156 0.437397096278644  l 0.929819061701796 0.368017000281224  l 0.958028444818526 0.286673156955087  l 0.981784636572981 0.189997177319188  l 0.997320771236908 0.073152438506299  l 0.99747266905035 -0.071051210387801  l 0.967305950986674 -0.253612296992412  l 0.871218308294357 -0.490895772331275" stroke="currentcolor" stroke-width="0.25%" fill="transparent" class="foreground-stroke" transform-origin="50% 50%" xmlns="http://www.w3.org/2000/svg">
        </path>
        <path id="turtle-e4-path" d="m 0 0  m 210 210  l -0.707106781186548 -0.707106781186548  l -0.709483711562395 -0.704721833795185  l -0.711865538995791 -0.702315779681926  l -0.714252245027098 -0.699888370008925  l -0.716643810030241 -0.697439351876089  l -0.719040213172595 -0.694968468234861  l -0.72144143237346 -0.692475457799719  l -0.723847444261047 -0.689960054957351  l -0.72625822412793 -0.687421989673406  l -0.728673745884896 -0.684860987396767  l -0.731093982013127 -0.68227676896124  l -0.73351890351466 -0.67966905048461  l -0.735948479861041 -0.677037543264938  l -0.738382678940105 -0.674381953674054  l -0.740821467000809 -0.671701983048115  l -0.743264808596036 -0.668997327575154  l -0.745712666523284 -0.666267678179524  l -0.748165001763158 -0.663512720403109  l -0.750621773415568 -0.660732134283227  l -0.753082938633545 -0.657925594227086  l -0.755548452554566 -0.655092768882699  l -0.758018268229289 -0.652233321006118  l -0.76049233654759 -0.649346907324881  l -0.76297060616178 -0.646433178397524  l -0.765453023406892 -0.64349177846904  l -0.767939532217896 -0.640522345322128  l -0.770430074043728 -0.637524510124102  l -0.772924587757985 -0.634497897269288  l -0.775423009566135 -0.631442124216779  l -0.7779252729091 -0.628356801323343  l -0.780431308363047 -0.625241531671356  l -0.782941043535214 -0.622095910891552  l -0.785454402955607 -0.618919526980407  l -0.787971307964364 -0.615711960111974  l -0.790491676594611 -0.612472782443956  l -0.793015423450583 -0.609201557917815  l -0.79554245958082 -0.605897842052685  l -0.798072692346187 -0.602561181732866  l -0.800606025282494 -0.599191114988671  l -0.803142357957458 -0.595787170770348  l -0.805681585821747 -0.592348868714843  l -0.808223600053835 -0.588875718905118  l -0.810768287398342 -0.585367221621744  l -0.813315529997604 -0.581822867086466  l -0.815865205216099 -0.578242135197438  l -0.818417185457403 -0.5746244952558  l -0.82097133797333 -0.570969405683247  l -0.823527524664847 -0.567276313730258  l -0.826085601874376 -0.563544655174592  l -0.828645420169061 -0.55977385400967  l -0.831206824114536 -0.555963322122447  l -0.833769652038731 -0.552112458960322  l -0.836333735785217 -0.548220651186676  l -0.83889890045554 -0.544287272324537  l -0.84146496414001 -0.540311682387909  l -0.844031737636322 -0.536293227500228  l -0.84659902415541 -0.532231239499437  l -0.849166619013845 -0.528125035529084  l -0.851734309312077 -0.523973917614875  l -0.854301873597785 -0.519777172226055  l -0.856869081513533 -0.515534069820953  l -0.859435693427882 -0.51124386437603  l -0.862001460049092 -0.506905792897688  l -0.864566122020442 -0.502519074916101  l -0.867129409496176 -0.498082911960262  l -0.869691041696997 -0.493596487013422  l -0.872250726443992 -0.489058963948037  l -0.874808159669752 -0.484469486939293  l -0.877363024905426 -0.47982717985625  l -0.879914992742327 -0.475131145629573  l -0.882463720266646 -0.470380465594768  l -0.885008850465699 -0.465574198809794  l -0.887550011604078 -0.460711381345849  l -0.890086816567926 -0.45579102555006  l -0.892618862175447 -0.450812119278764  l -0.895145728451658 -0.445773625099949  l -0.897666977865217 -0.440674479463388  l -0.900182154525033 -0.435513591836891  l -0.902690783334212 -0.430289843807017  l -0.905192369098696 -0.425002088142506  l -0.907686395587792 -0.419649147818559  l -0.910172324543564 -0.414229815000037  l -0.912649594635873 -0.408742849981473  l -0.915117620359574 -0.403186980081737  l -0.917575790870172 -0.397560898491008  l -0.92002346875393 -0.3918632630676  l -0.922459988728124 -0.386092695082035  l -0.924884656266856 -0.380247777905592  l -0.927296746147417 -0.374327055640402  l -0.929695500911887 -0.368329031687967  l -0.932080129238169 -0.36225216725281  l -0.934449804214271 -0.356094879777723  l -0.936803661509103 -0.349855541306892  l -0.939140797432554 -0.343532476772934  l -0.941460266877015 -0.337123962203607  l -0.943761081131876 -0.330628222843712  l -0.946042205561834 -0.324043431187397  l -0.948302557139068 -0.317367704915772  l -0.95054100181854 -0.310599104734393  l -0.952756351744703 -0.303735632104836  l -0.954947362276956 -0.296775226864176  l -0.957112728820043 -0.289715764725792  l -0.959251083444386 -0.282555054654436  l -0.961360991280026 -0.275290836108079  l -0.96344094666635 -0.267920776138484  l -0.965489369038178 -0.260442466341917  l -0.967504598526998 -0.252853419650817  l -0.969484891254134 -0.245151066956599  l -0.971428414290485 -0.237332753553052  l -0.973333240255002 -0.229395735389082  l -0.975197341521432 -0.221337175118714  l -0.977018583999818 -0.213154137935416  l -0.978794720455988 -0.204843587176862  l -0.9805233833285 -0.196402379685258  l -0.982202076998453 -0.187827260907264  l -0.983828169462936 -0.179114859716352  l -0.985398883357753 -0.170261682939213  l -0.986911286269307 -0.161264109566457  l -0.988362280269065 -0.152118384626361  l -0.98974859059678 -0.14282061269889  l -0.991066753410472 -0.133366751045483  l -0.99231310251199 -0.123752602328314  l -0.993483754946616 -0.113973806890761  l -0.994574595363402 -0.104025834568753  l -0.995581259009686 -0.093903976000421  l -0.996499113218148 -0.083603333399115  l -0.997323237227614 -0.073118810752318  l -0.998048400159317 -0.062445103406333  l -0.99866903694805 -0.051576686993789  l -0.999179222002121 -0.040507805658117  l -0.999572640336889 -0.029232459526032  l -0.999842555893024 -0.017744391376021  l -0.999981776712087 -0.00603707244759  l -0.999982616597375 0.00589631266706  l -0.999836852836436 0.018062882110303  l -0.999535679501822 0.030470073889485  l -0.999069655777047 0.043125664117012  l -0.998428648673598 0.056037786428566  l -0.997601769409936 0.069214952648714  l -0.996577302612114 0.082666074772924  l -0.995342627364666 0.096400488332812  l -0.993884128985869 0.110427977206865  l -0.992187100218393 0.124758799930973  l -0.99023563030881 0.139403717550551  l -0.988012480190021 0.154374023037435  l -0.985498941670023 0.169681572267778  l -0.982674678157152 0.185338816519201  l -0.97951754400146 0.201358836392518  l -0.976003378985829 0.217755376990431  l -0.972105773835683 0.234542884085891  l -0.967795801802938 0.251736540876782  l -0.963041710380125 0.269352304738838  l -0.957808565965163 0.287406943137702  l -0.952057842762102 0.305918067520002  l -0.945746945284425 0.32490416353931  l -0.938828651414769 0.344384615339776  l -0.931250459921214 0.364379720753677  l -0.92295382243884 0.384910693077673  l -0.913873234930133 0.405999643446067  l -0.903935157176328 0.427669535530189  l -0.893056720424673 0.449944101088489  l -0.88114417222935 0.472847700371118  l -0.86809099279968 0.496405104949643  l -0.853775597418836 0.520641171299494  l -0.838058512717705 0.545580360040011  l -0.820778877859362 0.571246036012441  l -0.801750070681218 0.597659455009842  l -0.780754187043541 0.624838298613313  l -0.75753499908663 0.652794550497183  l -0.731788869297584 0.681531401163706  l -0.703152877607384 0.71103869846335  l -0.671189088245399 0.741286184830333  l -0.635363375506252 0.772213300238542  l -0.595016430223697 0.803713535884427  l -0.549323284722244 0.835609914291331  l -0.497235569583 0.867615576359409  l -0.437397096278646 0.899268469461155  l -0.368017000281226 0.929819061701796  l -0.28667315695509 0.958028444818526  l -0.189997177319193 0.98178463657298  l -0.073152438506306 0.997320771236908  l 0.07105121038779 0.99747266905035  l 0.253612296992403 0.967305950986676  l 0.490895772331261 0.871218308294365" stroke="currentcolor" stroke-width="0.25%" fill="transparent" class="foreground-stroke" transform-origin="50% 50%" xmlns="http://www.w3.org/2000/svg">
        </path>
      </g>
    </pattern>
  </defs>
  <rect width="10000%" height="10000%" x="-5000%" y="-5000%" fill="url(#turtle-pattern)" transform-origin="50% 50%" />
</svg>