<svg xmlns="http://www.w3.org/2000/svg" width="100%" height="100%" transform-origin="50% 50%">
  <symbol id="turtle-symbol" viewBox="0 0 45 45" transform-origin="50% 50%">
    <path id="turtle-path" d="m 0 45  l 5 0 l 0 -5 l 5 0 l 0 5 l 5 0 l 0 -5 l -5 -0 l 0 -5 l 5 0 l 0 -5 l 5 0 l 0 -5 l 5 0 l 0 5 l 5 0 l 0 5 l 5 0 l 0 5 l -5 0 l 0 5 l 5 0 l 0 -5 l 5 0 l 0 5 l 5 0 l 0 -5 l -5 -0 l 0 -5 l 5 0 l 0 -5 l -5 -0 l -0 5 l -5 -0 l 0 -5 l -5 -0 l 0 -5 l -5 -0 l 0 -5 l 5 0 l 0 -5 l 5 0 l 0 -5 l 5 0 l 0 5 l 5 0 l 0 -5 l -5 -0 l 0 -5 l 5 0 l 0 -5 l -5 -0 l -0 5 l -5 -0 l 0 -5 l -5 -0 l -0 5 l 5 0 l -0 5 l -5 -0 l -0 5 l -5 -0 l -0 5 l -5 -0 l 0 -5 l -5 -0 l 0 -5 l -5 -0 l 0 -5 l 5 0 l 0 -5 l -5 -0 l -0 5 l -5 -0 l 0 -5 l -5 -0 l -0 5 l 5 0 l -0 5 l -5 -0 l -0 5 l 5 0 l 0 -5 l 5 0 l -0 5 l 5 0 l -0 5 l 5 0 l -0 5 l -5 -0 l -0 5 l -5 -0 l -0 5 l -5 -0 l 0 -5 l -5 -0 l -0 5 l 5 0 l -0 5 l -5 -0 l -0 5" stroke="#4488ff" stroke-width="0.25%" fill="transparent" class="foreground-stroke" />
  </symbol>
  <use href="#turtle-symbol" width="100%" height="100%" transform-origin="50% 50%" />
</svg>