<svg xmlns="http://www.w3.org/2000/svg" width="100%" height="100%" transform-origin="50% 50%">
  <symbol id="turtle-symbol" viewBox="0 0 3645 3645" transform-origin="50% 50%">
    <path id="turtle-path" d="m 0 3645  l 15 0 l 0 -15 l 15 0 l 0 15 l 15 0 l 0 -15 l -15 -0 l 0 -15 l 15 0 l 0 -15 l 15 0 l 0 -15 l 15 0 l 0 15 l 15 0 l 0 15 l 15 0 l 0 15 l -15 0 l 0 15 l 15 0 l 0 -15 l 15 0 l 0 15 l 15 0 l 0 -15 l -15 -0 l 0 -15 l 15 0 l 0 -15 l -15 -0 l -0 15 l -15 -0 l 0 -15 l -15 -0 l 0 -15 l -15 -0 l 0 -15 l 15 0 l 0 -15 l 15 0 l 0 -15 l 15 0 l 0 15 l 15 0 l 0 -15 l -15 -0 l 0 -15 l 15 0 l 0 -15 l 15 0 l 0 -15 l 15 0 l 0 15 l 15 0 l 0 -15 l -15 -0 l 0 -15 l 15 0 l 0 -15 l 15 0 l 0 -15 l 15 0 l 0 15 l 15 0 l 0 15 l 15 0 l 0 15 l -15 0 l 0 15 l 15 0 l 0 -15 l 15 0 l 0 15 l 15 0 l 0 15 l 15 0 l 0 15 l -15 0 l 0 15 l 15 0 l 0 -15 l 15 0 l 0 15 l 15 0 l 0 15 l 15 0 l 0 15 l -15 0 l 0 15 l -15 0 l 0 15 l -15 0 l -0 -15 l -15 0 l 0 15 l 15 0 l 0 15 l -15 0 l 0 15 l 15 0 l 0 -15 l 15 0 l 0 15 l 15 0 l 0 -15 l -15 -0 l 0 -15 l 15 0 l 0 -15 l 15 0 l 0 -15 l 15 0 l 0 15 l 15 0 l 0 15 l 15 0 l 0 15 l -15 0 l 0 15 l 15 0 l 0 -15 l 15 0 l 0 15 l 15 0 l 0 -15 l -15 -0 l 0 -15 l 15 0 l 0 -15 l -15 -0 l -0 15 l -15 -0 l 0 -15 l -15 -0 l 0 -15 l -15 -0 l 0 -15 l 15 0 l 0 -15 l 15 0 l 0 -15 l 15 0 l 0 15 l 15 0 l 0 -15 l -15 -0 l 0 -15 l 15 0 l 0 -15 l -15 -0 l -0 15 l -15 -0 l 0 -15 l -15 -0 l -0 15 l 15 0 l -0 15 l -15 -0 l -0 15 l -15 -0 l -0 15 l -15 -0 l 0 -15 l -15 -0 l 0 -15 l -15 -0 l 0 -15 l 15 0 l 0 -15 l -15 -0 l -0 15 l -15 -0 l 0 -15 l -15 -0 l 0 -15 l -15 -0 l 0 -15 l 15 0 l 0 -15 l -15 -0 l -0 15 l -15 -0 l 0 -15 l -15 -0 l 0 -15 l -15 -0 l 0 -15 l 15 0 l 0 -15 l 15 0 l 0 -15 l 15 0 l 0 15 l 15 0 l 0 -15 l -15 -0 l 0 -15 l 15 0 l 0 -15 l 15 0 l 0 -15 l 15 0 l 0 15 l 15 0 l 0 -15 l -15 -0 l 0 -15 l 15 0 l 0 -15 l 15 0 l 0 -15 l 15 0 l 0 15 l 15 0 l 0 15 l 15 0 l 0 15 l -15 0 l 0 15 l 15 0 l 0 -15 l 15 0 l 0 15 l 15 0 l 0 -15 l -15 -0 l 0 -15 l 15 0 l 0 -15 l -15 -0 l -0 15 l -15 -0 l 0 -15 l -15 -0 l 0 -15 l -15 -0 l 0 -15 l 15 0 l 0 -15 l 15 0 l 0 -15 l 15 0 l 0 15 l 15 0 l 0 -15 l -15 -0 l 0 -15 l 15 0 l 0 -15 l 15 0 l 0 -15 l 15 0 l 0 15 l 15 0 l 0 -15 l -15 -0 l 0 -15 l 15 0 l 0 -15 l 15 0 l 0 -15 l 15 0 l 0 15 l 15 0 l 0 15 l 15 0 l 0 15 l -15 0 l 0 15 l 15 0 l 0 -15 l 15 0 l 0 15 l 15 0 l 0 -15 l -15 -0 l 0 -15 l 15 0 l 0 -15 l -15 -0 l -0 15 l -15 -0 l 0 -15 l -15 -0 l 0 -15 l -15 -0 l 0 -15 l 15 0 l 0 -15 l 15 0 l 0 -15 l 15 0 l 0 15 l 15 0 l 0 -15 l -15 -0 l 0 -15 l 15 0 l 0 -15 l 15 0 l 0 -15 l 15 0 l 0 15 l 15 0 l 0 -15 l -15 -0 l 0 -15 l 15 0 l 0 -15 l 15 0 l 0 -15 l 15 0 l 0 15 l 15 0 l 0 15 l 15 0 l 0 15 l -15 0 l 0 15 l 15 0 l 0 -15 l 15 0 l 0 15 l 15 0 l 0 15 l 15 0 l 0 15 l -15 0 l 0 15 l 15 0 l 0 -15 l 15 0 l 0 15 l 15 0 l 0 15 l 15 0 l 0 15 l -15 0 l 0 15 l -15 0 l 0 15 l -15 0 l -0 -15 l -15 0 l 0 15 l 15 0 l 0 15 l -15 0 l 0 15 l 15 0 l 0 -15 l 15 0 l 0 15 l 15 0 l 0 -15 l -15 -0 l 0 -15 l 15 0 l 0 -15 l 15 0 l 0 -15 l 15 0 l 0 15 l 15 0 l 0 15 l 15 0 l 0 15 l -15 0 l 0 15 l 15 0 l 0 -15 l 15 0 l 0 15 l 15 0 l 0 15 l 15 0 l 0 15 l -15 0 l 0 15 l 15 0 l 0 -15 l 15 0 l 0 15 l 15 0 l 0 15 l 15 0 l 0 15 l -15 0 l 0 15 l -15 0 l 0 15 l -15 0 l -0 -15 l -15 0 l 0 15 l 15 0 l 0 15 l -15 0 l 0 15 l 15 0 l 0 -15 l 15 0 l 0 15 l 15 0 l 0 -15 l -15 -0 l 0 -15 l 15 0 l 0 -15 l 15 0 l 0 -15 l 15 0 l 0 15 l 15 0 l 0 15 l 15 0 l 0 15 l -15 0 l 0 15 l 15 0 l 0 -15 l 15 0 l 0 15 l 15 0 l 0 15 l 15 0 l 0 15 l -15 0 l 0 15 l 15 0 l 0 -15 l 15 0 l 0 15 l 15 0 l 0 15 l 15 0 l 0 15 l -15 0 l 0 15 l -15 0 l 0 15 l -15 0 l -0 -15 l -15 0 l 0 15 l 15 0 l 0 15 l -15 0 l 0 15 l -15 0 l 0 15 l -15 0 l -0 -15 l -15 0 l 0 15 l 15 0 l 0 15 l -15 0 l 0 15 l -15 0 l 0 15 l -15 0 l -0 -15 l -15 0 l -0 -15 l -15 0 l -0 -15 l 15 -0 l -0 -15 l -15 0 l 0 15 l -15 0 l -0 -15 l -15 0 l 0 15 l 15 0 l 0 15 l -15 0 l 0 15 l 15 0 l 0 -15 l 15 0 l 0 15 l 15 0 l 0 15 l 15 0 l 0 15 l -15 0 l 0 15 l -15 0 l 0 15 l -15 0 l -0 -15 l -15 0 l 0 15 l 15 0 l 0 15 l -15 0 l 0 15 l 15 0 l 0 -15 l 15 0 l 0 15 l 15 0 l 0 -15 l -15 -0 l 0 -15 l 15 0 l 0 -15 l 15 0 l 0 -15 l 15 0 l 0 15 l 15 0 l 0 15 l 15 0 l 0 15 l -15 0 l 0 15 l 15 0 l 0 -15 l 15 0 l 0 15 l 15 0 l 0 -15 l -15 -0 l 0 -15 l 15 0 l 0 -15 l -15 -0 l -0 15 l -15 -0 l 0 -15 l -15 -0 l 0 -15 l -15 -0 l 0 -15 l 15 0 l 0 -15 l 15 0 l 0 -15 l 15 0 l 0 15 l 15 0 l 0 -15 l -15 -0 l 0 -15 l 15 0 l 0 -15 l 15 0 l 0 -15 l 15 0 l 0 15 l 15 0 l 0 -15 l -15 -0 l 0 -15 l 15 0 l 0 -15 l 15 0 l 0 -15 l 15 0 l 0 15 l 15 0 l 0 15 l 15 0 l 0 15 l -15 0 l 0 15 l 15 0 l 0 -15 l 15 0 l 0 15 l 15 0 l 0 15 l 15 0 l 0 15 l -15 0 l 0 15 l 15 0 l 0 -15 l 15 0 l 0 15 l 15 0 l 0 15 l 15 0 l 0 15 l -15 0 l 0 15 l -15 0 l 0 15 l -15 0 l -0 -15 l -15 0 l 0 15 l 15 0 l 0 15 l -15 0 l 0 15 l 15 0 l 0 -15 l 15 0 l 0 15 l 15 0 l 0 -15 l -15 -0 l 0 -15 l 15 0 l 0 -15 l 15 0 l 0 -15 l 15 0 l 0 15 l 15 0 l 0 15 l 15 0 l 0 15 l -15 0 l 0 15 l 15 0 l 0 -15 l 15 0 l 0 15 l 15 0 l 0 -15 l -15 -0 l 0 -15 l 15 0 l 0 -15 l -15 -0 l -0 15 l -15 -0 l 0 -15 l -15 -0 l 0 -15 l -15 -0 l 0 -15 l 15 0 l 0 -15 l 15 0 l 0 -15 l 15 0 l 0 15 l 15 0 l 0 -15 l -15 -0 l 0 -15 l 15 0 l 0 -15 l -15 -0 l -0 15 l -15 -0 l 0 -15 l -15 -0 l -0 15 l 15 0 l -0 15 l -15 -0 l -0 15 l -15 -0 l -0 15 l -15 -0 l 0 -15 l -15 -0 l 0 -15 l -15 -0 l 0 -15 l 15 0 l 0 -15 l -15 -0 l -0 15 l -15 -0 l 0 -15 l -15 -0 l 0 -15 l -15 -0 l 0 -15 l 15 0 l 0 -15 l -15 -0 l -0 15 l -15 -0 l 0 -15 l -15 -0 l 0 -15 l -15 -0 l 0 -15 l 15 0 l 0 -15 l 15 0 l 0 -15 l 15 0 l 0 15 l 15 0 l 0 -15 l -15 -0 l 0 -15 l 15 0 l 0 -15 l 15 0 l 0 -15 l 15 0 l 0 15 l 15 0 l 0 -15 l -15 -0 l 0 -15 l 15 0 l 0 -15 l 15 0 l 0 -15 l 15 0 l 0 15 l 15 0 l 0 15 l 15 0 l 0 15 l -15 0 l 0 15 l 15 0 l 0 -15 l 15 0 l 0 15 l 15 0 l 0 -15 l -15 -0 l 0 -15 l 15 0 l 0 -15 l -15 -0 l -0 15 l -15 -0 l 0 -15 l -15 -0 l 0 -15 l -15 -0 l 0 -15 l 15 0 l 0 -15 l 15 0 l 0 -15 l 15 0 l 0 15 l 15 0 l 0 -15 l -15 -0 l 0 -15 l 15 0 l 0 -15 l -15 -0 l -0 15 l -15 -0 l 0 -15 l -15 -0 l -0 15 l 15 0 l -0 15 l -15 -0 l -0 15 l -15 -0 l -0 15 l -15 -0 l 0 -15 l -15 -0 l 0 -15 l -15 -0 l 0 -15 l 15 0 l 0 -15 l -15 -0 l -0 15 l -15 -0 l 0 -15 l -15 -0 l -0 15 l 15 0 l -0 15 l -15 -0 l -0 15 l 15 0 l 0 -15 l 15 0 l -0 15 l 15 0 l -0 15 l 15 0 l -0 15 l -15 -0 l -0 15 l -15 -0 l -0 15 l -15 -0 l 0 -15 l -15 -0 l -0 15 l 15 0 l -0 15 l -15 -0 l -0 15 l -15 -0 l -0 15 l -15 -0 l 0 -15 l -15 -0 l -0 15 l 15 0 l -0 15 l -15 -0 l -0 15 l -15 -0 l -0 15 l -15 -0 l 0 -15 l -15 -0 l 0 -15 l -15 -0 l 0 -15 l 15 0 l 0 -15 l -15 -0 l -0 15 l -15 -0 l 0 -15 l -15 -0 l 0 -15 l -15 -0 l 0 -15 l 15 0 l 0 -15 l -15 -0 l -0 15 l -15 -0 l 0 -15 l -15 -0 l 0 -15 l -15 -0 l 0 -15 l 15 0 l 0 -15 l 15 0 l 0 -15 l 15 0 l 0 15 l 15 0 l 0 -15 l -15 -0 l 0 -15 l 15 0 l 0 -15 l -15 -0 l -0 15 l -15 -0 l 0 -15 l -15 -0 l -0 15 l 15 0 l -0 15 l -15 -0 l -0 15 l -15 -0 l -0 15 l -15 -0 l 0 -15 l -15 -0 l 0 -15 l -15 -0 l 0 -15 l 15 0 l 0 -15 l -15 -0 l -0 15 l -15 -0 l 0 -15 l -15 -0 l 0 -15 l -15 -0 l 0 -15 l 15 0 l 0 -15 l -15 -0 l -0 15 l -15 -0 l 0 -15 l -15 -0 l 0 -15 l -15 -0 l 0 -15 l 15 0 l 0 -15 l 15 0 l 0 -15 l 15 0 l 0 15 l 15 0 l 0 -15 l -15 -0 l 0 -15 l 15 0 l 0 -15 l -15 -0 l -0 15 l -15 -0 l 0 -15 l -15 -0 l -0 15 l 15 0 l -0 15 l -15 -0 l -0 15 l -15 -0 l -0 15 l -15 -0 l 0 -15 l -15 -0 l 0 -15 l -15 -0 l 0 -15 l 15 0 l 0 -15 l -15 -0 l -0 15 l -15 -0 l 0 -15 l -15 -0 l 0 -15 l -15 -0 l 0 -15 l 15 0 l 0 -15 l -15 -0 l -0 15 l -15 -0 l 0 -15 l -15 -0 l 0 -15 l -15 -0 l 0 -15 l 15 0 l 0 -15 l 15 0 l 0 -15 l 15 0 l 0 15 l 15 0 l 0 -15 l -15 -0 l 0 -15 l 15 0 l 0 -15 l 15 0 l 0 -15 l 15 0 l 0 15 l 15 0 l 0 -15 l -15 -0 l 0 -15 l 15 0 l 0 -15 l 15 0 l 0 -15 l 15 0 l 0 15 l 15 0 l 0 15 l 15 0 l 0 15 l -15 0 l 0 15 l 15 0 l 0 -15 l 15 0 l 0 15 l 15 0 l 0 -15 l -15 -0 l 0 -15 l 15 0 l 0 -15 l -15 -0 l -0 15 l -15 -0 l 0 -15 l -15 -0 l 0 -15 l -15 -0 l 0 -15 l 15 0 l 0 -15 l 15 0 l 0 -15 l 15 0 l 0 15 l 15 0 l 0 -15 l -15 -0 l 0 -15 l 15 0 l 0 -15 l 15 0 l 0 -15 l 15 0 l 0 15 l 15 0 l 0 -15 l -15 -0 l 0 -15 l 15 0 l 0 -15 l 15 0 l 0 -15 l 15 0 l 0 15 l 15 0 l 0 15 l 15 0 l 0 15 l -15 0 l 0 15 l 15 0 l 0 -15 l 15 0 l 0 15 l 15 0 l 0 -15 l -15 -0 l 0 -15 l 15 0 l 0 -15 l -15 -0 l -0 15 l -15 -0 l 0 -15 l -15 -0 l 0 -15 l -15 -0 l 0 -15 l 15 0 l 0 -15 l 15 0 l 0 -15 l 15 0 l 0 15 l 15 0 l 0 -15 l -15 -0 l 0 -15 l 15 0 l 0 -15 l 15 0 l 0 -15 l 15 0 l 0 15 l 15 0 l 0 -15 l -15 -0 l 0 -15 l 15 0 l 0 -15 l 15 0 l 0 -15 l 15 0 l 0 15 l 15 0 l 0 15 l 15 0 l 0 15 l -15 0 l 0 15 l 15 0 l 0 -15 l 15 0 l 0 15 l 15 0 l 0 15 l 15 0 l 0 15 l -15 0 l 0 15 l 15 0 l 0 -15 l 15 0 l 0 15 l 15 0 l 0 15 l 15 0 l 0 15 l -15 0 l 0 15 l -15 0 l 0 15 l -15 0 l -0 -15 l -15 0 l 0 15 l 15 0 l 0 15 l -15 0 l 0 15 l 15 0 l 0 -15 l 15 0 l 0 15 l 15 0 l 0 -15 l -15 -0 l 0 -15 l 15 0 l 0 -15 l 15 0 l 0 -15 l 15 0 l 0 15 l 15 0 l 0 15 l 15 0 l 0 15 l -15 0 l 0 15 l 15 0 l 0 -15 l 15 0 l 0 15 l 15 0 l 0 -15 l -15 -0 l 0 -15 l 15 0 l 0 -15 l -15 -0 l -0 15 l -15 -0 l 0 -15 l -15 -0 l 0 -15 l -15 -0 l 0 -15 l 15 0 l 0 -15 l 15 0 l 0 -15 l 15 0 l 0 15 l 15 0 l 0 -15 l -15 -0 l 0 -15 l 15 0 l 0 -15 l -15 -0 l -0 15 l -15 -0 l 0 -15 l -15 -0 l -0 15 l 15 0 l -0 15 l -15 -0 l -0 15 l -15 -0 l -0 15 l -15 -0 l 0 -15 l -15 -0 l 0 -15 l -15 -0 l 0 -15 l 15 0 l 0 -15 l -15 -0 l -0 15 l -15 -0 l 0 -15 l -15 -0 l 0 -15 l -15 -0 l 0 -15 l 15 0 l 0 -15 l -15 -0 l -0 15 l -15 -0 l 0 -15 l -15 -0 l 0 -15 l -15 -0 l 0 -15 l 15 0 l 0 -15 l 15 0 l 0 -15 l 15 0 l 0 15 l 15 0 l 0 -15 l -15 -0 l 0 -15 l 15 0 l 0 -15 l 15 0 l 0 -15 l 15 0 l 0 15 l 15 0 l 0 -15 l -15 -0 l 0 -15 l 15 0 l 0 -15 l 15 0 l 0 -15 l 15 0 l 0 15 l 15 0 l 0 15 l 15 0 l 0 15 l -15 0 l 0 15 l 15 0 l 0 -15 l 15 0 l 0 15 l 15 0 l 0 -15 l -15 -0 l 0 -15 l 15 0 l 0 -15 l -15 -0 l -0 15 l -15 -0 l 0 -15 l -15 -0 l 0 -15 l -15 -0 l 0 -15 l 15 0 l 0 -15 l 15 0 l 0 -15 l 15 0 l 0 15 l 15 0 l 0 -15 l -15 -0 l 0 -15 l 15 0 l 0 -15 l 15 0 l 0 -15 l 15 0 l 0 15 l 15 0 l 0 -15 l -15 -0 l 0 -15 l 15 0 l 0 -15 l 15 0 l 0 -15 l 15 0 l 0 15 l 15 0 l 0 15 l 15 0 l 0 15 l -15 0 l 0 15 l 15 0 l 0 -15 l 15 0 l 0 15 l 15 0 l 0 -15 l -15 -0 l 0 -15 l 15 0 l 0 -15 l -15 -0 l -0 15 l -15 -0 l 0 -15 l -15 -0 l 0 -15 l -15 -0 l 0 -15 l 15 0 l 0 -15 l 15 0 l 0 -15 l 15 0 l 0 15 l 15 0 l 0 -15 l -15 -0 l 0 -15 l 15 0 l 0 -15 l 15 0 l 0 -15 l 15 0 l 0 15 l 15 0 l 0 -15 l -15 -0 l 0 -15 l 15 0 l 0 -15 l 15 0 l 0 -15 l 15 0 l 0 15 l 15 0 l 0 15 l 15 0 l 0 15 l -15 0 l 0 15 l 15 0 l 0 -15 l 15 0 l 0 15 l 15 0 l 0 15 l 15 0 l 0 15 l -15 0 l 0 15 l 15 0 l 0 -15 l 15 0 l 0 15 l 15 0 l 0 15 l 15 0 l 0 15 l -15 0 l 0 15 l -15 0 l 0 15 l -15 0 l -0 -15 l -15 0 l 0 15 l 15 0 l 0 15 l -15 0 l 0 15 l 15 0 l 0 -15 l 15 0 l 0 15 l 15 0 l 0 -15 l -15 -0 l 0 -15 l 15 0 l 0 -15 l 15 0 l 0 -15 l 15 0 l 0 15 l 15 0 l 0 15 l 15 0 l 0 15 l -15 0 l 0 15 l 15 0 l 0 -15 l 15 0 l 0 15 l 15 0 l 0 -15 l -15 -0 l 0 -15 l 15 0 l 0 -15 l -15 -0 l -0 15 l -15 -0 l 0 -15 l -15 -0 l 0 -15 l -15 -0 l 0 -15 l 15 0 l 0 -15 l 15 0 l 0 -15 l 15 0 l 0 15 l 15 0 l 0 -15 l -15 -0 l 0 -15 l 15 0 l 0 -15 l -15 -0 l -0 15 l -15 -0 l 0 -15 l -15 -0 l -0 15 l 15 0 l -0 15 l -15 -0 l -0 15 l -15 -0 l -0 15 l -15 -0 l 0 -15 l -15 -0 l 0 -15 l -15 -0 l 0 -15 l 15 0 l 0 -15 l -15 -0 l -0 15 l -15 -0 l 0 -15 l -15 -0 l 0 -15 l -15 -0 l 0 -15 l 15 0 l 0 -15 l -15 -0 l -0 15 l -15 -0 l 0 -15 l -15 -0 l 0 -15 l -15 -0 l 0 -15 l 15 0 l 0 -15 l 15 0 l 0 -15 l 15 0 l 0 15 l 15 0 l 0 -15 l -15 -0 l 0 -15 l 15 0 l 0 -15 l 15 0 l 0 -15 l 15 0 l 0 15 l 15 0 l 0 -15 l -15 -0 l 0 -15 l 15 0 l 0 -15 l 15 0 l 0 -15 l 15 0 l 0 15 l 15 0 l 0 15 l 15 0 l 0 15 l -15 0 l 0 15 l 15 0 l 0 -15 l 15 0 l 0 15 l 15 0 l 0 -15 l -15 -0 l 0 -15 l 15 0 l 0 -15 l -15 -0 l -0 15 l -15 -0 l 0 -15 l -15 -0 l 0 -15 l -15 -0 l 0 -15 l 15 0 l 0 -15 l 15 0 l 0 -15 l 15 0 l 0 15 l 15 0 l 0 -15 l -15 -0 l 0 -15 l 15 0 l 0 -15 l 15 0 l 0 -15 l 15 0 l 0 15 l 15 0 l 0 -15 l -15 -0 l 0 -15 l 15 0 l 0 -15 l 15 0 l 0 -15 l 15 0 l 0 15 l 15 0 l 0 15 l 15 0 l 0 15 l -15 0 l 0 15 l 15 0 l 0 -15 l 15 0 l 0 15 l 15 0 l 0 -15 l -15 -0 l 0 -15 l 15 0 l 0 -15 l -15 -0 l -0 15 l -15 -0 l 0 -15 l -15 -0 l 0 -15 l -15 -0 l 0 -15 l 15 0 l 0 -15 l 15 0 l 0 -15 l 15 0 l 0 15 l 15 0 l 0 -15 l -15 -0 l 0 -15 l 15 0 l 0 -15 l 15 0 l 0 -15 l 15 0 l 0 15 l 15 0 l 0 -15 l -15 -0 l 0 -15 l 15 0 l 0 -15 l 15 0 l 0 -15 l 15 0 l 0 15 l 15 0 l 0 15 l 15 0 l 0 15 l -15 0 l 0 15 l 15 0 l 0 -15 l 15 0 l 0 15 l 15 0 l 0 15 l 15 0 l 0 15 l -15 0 l 0 15 l 15 0 l 0 -15 l 15 0 l 0 15 l 15 0 l 0 15 l 15 0 l 0 15 l -15 0 l 0 15 l -15 0 l 0 15 l -15 0 l -0 -15 l -15 0 l 0 15 l 15 0 l 0 15 l -15 0 l 0 15 l 15 0 l 0 -15 l 15 0 l 0 15 l 15 0 l 0 -15 l -15 -0 l 0 -15 l 15 0 l 0 -15 l 15 0 l 0 -15 l 15 0 l 0 15 l 15 0 l 0 15 l 15 0 l 0 15 l -15 0 l 0 15 l 15 0 l 0 -15 l 15 0 l 0 15 l 15 0 l 0 15 l 15 0 l 0 15 l -15 0 l 0 15 l 15 0 l 0 -15 l 15 0 l 0 15 l 15 0 l 0 15 l 15 0 l 0 15 l -15 0 l 0 15 l -15 0 l 0 15 l -15 0 l -0 -15 l -15 0 l 0 15 l 15 0 l 0 15 l -15 0 l 0 15 l 15 0 l 0 -15 l 15 0 l 0 15 l 15 0 l 0 -15 l -15 -0 l 0 -15 l 15 0 l 0 -15 l 15 0 l 0 -15 l 15 0 l 0 15 l 15 0 l 0 15 l 15 0 l 0 15 l -15 0 l 0 15 l 15 0 l 0 -15 l 15 0 l 0 15 l 15 0 l 0 15 l 15 0 l 0 15 l -15 0 l 0 15 l 15 0 l 0 -15 l 15 0 l 0 15 l 15 0 l 0 15 l 15 0 l 0 15 l -15 0 l 0 15 l -15 0 l 0 15 l -15 0 l -0 -15 l -15 0 l 0 15 l 15 0 l 0 15 l -15 0 l 0 15 l -15 0 l 0 15 l -15 0 l -0 -15 l -15 0 l 0 15 l 15 0 l 0 15 l -15 0 l 0 15 l -15 0 l 0 15 l -15 0 l -0 -15 l -15 0 l -0 -15 l -15 0 l -0 -15 l 15 -0 l -0 -15 l -15 0 l 0 15 l -15 0 l -0 -15 l -15 0 l 0 15 l 15 0 l 0 15 l -15 0 l 0 15 l 15 0 l 0 -15 l 15 0 l 0 15 l 15 0 l 0 15 l 15 0 l 0 15 l -15 0 l 0 15 l -15 0 l 0 15 l -15 0 l -0 -15 l -15 0 l 0 15 l 15 0 l 0 15 l -15 0 l 0 15 l 15 0 l 0 -15 l 15 0 l 0 15 l 15 0 l 0 -15 l -15 -0 l 0 -15 l 15 0 l 0 -15 l 15 0 l 0 -15 l 15 0 l 0 15 l 15 0 l 0 15 l 15 0 l 0 15 l -15 0 l 0 15 l 15 0 l 0 -15 l 15 0 l 0 15 l 15 0 l 0 -15 l -15 -0 l 0 -15 l 15 0 l 0 -15 l -15 -0 l -0 15 l -15 -0 l 0 -15 l -15 -0 l 0 -15 l -15 -0 l 0 -15 l 15 0 l 0 -15 l 15 0 l 0 -15 l 15 0 l 0 15 l 15 0 l 0 -15 l -15 -0 l 0 -15 l 15 0 l 0 -15 l 15 0 l 0 -15 l 15 0 l 0 15 l 15 0 l 0 -15 l -15 -0 l 0 -15 l 15 0 l 0 -15 l 15 0 l 0 -15 l 15 0 l 0 15 l 15 0 l 0 15 l 15 0 l 0 15 l -15 0 l 0 15 l 15 0 l 0 -15 l 15 0 l 0 15 l 15 0 l 0 15 l 15 0 l 0 15 l -15 0 l 0 15 l 15 0 l 0 -15 l 15 0 l 0 15 l 15 0 l 0 15 l 15 0 l 0 15 l -15 0 l 0 15 l -15 0 l 0 15 l -15 0 l -0 -15 l -15 0 l 0 15 l 15 0 l 0 15 l -15 0 l 0 15 l 15 0 l 0 -15 l 15 0 l 0 15 l 15 0 l 0 -15 l -15 -0 l 0 -15 l 15 0 l 0 -15 l 15 0 l 0 -15 l 15 0 l 0 15 l 15 0 l 0 15 l 15 0 l 0 15 l -15 0 l 0 15 l 15 0 l 0 -15 l 15 0 l 0 15 l 15 0 l 0 15 l 15 0 l 0 15 l -15 0 l 0 15 l 15 0 l 0 -15 l 15 0 l 0 15 l 15 0 l 0 15 l 15 0 l 0 15 l -15 0 l 0 15 l -15 0 l 0 15 l -15 0 l -0 -15 l -15 0 l 0 15 l 15 0 l 0 15 l -15 0 l 0 15 l 15 0 l 0 -15 l 15 0 l 0 15 l 15 0 l 0 -15 l -15 -0 l 0 -15 l 15 0 l 0 -15 l 15 0 l 0 -15 l 15 0 l 0 15 l 15 0 l 0 15 l 15 0 l 0 15 l -15 0 l 0 15 l 15 0 l 0 -15 l 15 0 l 0 15 l 15 0 l 0 15 l 15 0 l 0 15 l -15 0 l 0 15 l 15 0 l 0 -15 l 15 0 l 0 15 l 15 0 l 0 15 l 15 0 l 0 15 l -15 0 l 0 15 l -15 0 l 0 15 l -15 0 l -0 -15 l -15 0 l 0 15 l 15 0 l 0 15 l -15 0 l 0 15 l -15 0 l 0 15 l -15 0 l -0 -15 l -15 0 l 0 15 l 15 0 l 0 15 l -15 0 l 0 15 l -15 0 l 0 15 l -15 0 l -0 -15 l -15 0 l -0 -15 l -15 0 l -0 -15 l 15 -0 l -0 -15 l -15 0 l 0 15 l -15 0 l -0 -15 l -15 0 l 0 15 l 15 0 l 0 15 l -15 0 l 0 15 l 15 0 l 0 -15 l 15 0 l 0 15 l 15 0 l 0 15 l 15 0 l 0 15 l -15 0 l 0 15 l -15 0 l 0 15 l -15 0 l -0 -15 l -15 0 l 0 15 l 15 0 l 0 15 l -15 0 l 0 15 l 15 0 l 0 -15 l 15 0 l 0 15 l 15 0 l 0 -15 l -15 -0 l 0 -15 l 15 0 l 0 -15 l 15 0 l 0 -15 l 15 0 l 0 15 l 15 0 l 0 15 l 15 0 l 0 15 l -15 0 l 0 15 l 15 0 l 0 -15 l 15 0 l 0 15 l 15 0 l 0 -15 l -15 -0 l 0 -15 l 15 0 l 0 -15 l -15 -0 l -0 15 l -15 -0 l 0 -15 l -15 -0 l 0 -15 l -15 -0 l 0 -15 l 15 0 l 0 -15 l 15 0 l 0 -15 l 15 0 l 0 15 l 15 0 l 0 -15 l -15 -0 l 0 -15 l 15 0 l 0 -15 l 15 0 l 0 -15 l 15 0 l 0 15 l 15 0 l 0 -15 l -15 -0 l 0 -15 l 15 0 l 0 -15 l 15 0 l 0 -15 l 15 0 l 0 15 l 15 0 l 0 15 l 15 0 l 0 15 l -15 0 l 0 15 l 15 0 l 0 -15 l 15 0 l 0 15 l 15 0 l 0 15 l 15 0 l 0 15 l -15 0 l 0 15 l 15 0 l 0 -15 l 15 0 l 0 15 l 15 0 l 0 15 l 15 0 l 0 15 l -15 0 l 0 15 l -15 0 l 0 15 l -15 0 l -0 -15 l -15 0 l 0 15 l 15 0 l 0 15 l -15 0 l 0 15 l 15 0 l 0 -15 l 15 0 l 0 15 l 15 0 l 0 -15 l -15 -0 l 0 -15 l 15 0 l 0 -15 l 15 0 l 0 -15 l 15 0 l 0 15 l 15 0 l 0 15 l 15 0 l 0 15 l -15 0 l 0 15 l 15 0 l 0 -15 l 15 0 l 0 15 l 15 0 l 0 15 l 15 0 l 0 15 l -15 0 l 0 15 l 15 0 l 0 -15 l 15 0 l 0 15 l 15 0 l 0 15 l 15 0 l 0 15 l -15 0 l 0 15 l -15 0 l 0 15 l -15 0 l -0 -15 l -15 0 l 0 15 l 15 0 l 0 15 l -15 0 l 0 15 l 15 0 l 0 -15 l 15 0 l 0 15 l 15 0 l 0 -15 l -15 -0 l 0 -15 l 15 0 l 0 -15 l 15 0 l 0 -15 l 15 0 l 0 15 l 15 0 l 0 15 l 15 0 l 0 15 l -15 0 l 0 15 l 15 0 l 0 -15 l 15 0 l 0 15 l 15 0 l 0 15 l 15 0 l 0 15 l -15 0 l 0 15 l 15 0 l 0 -15 l 15 0 l 0 15 l 15 0 l 0 15 l 15 0 l 0 15 l -15 0 l 0 15 l -15 0 l 0 15 l -15 0 l -0 -15 l -15 0 l 0 15 l 15 0 l 0 15 l -15 0 l 0 15 l -15 0 l 0 15 l -15 0 l -0 -15 l -15 0 l 0 15 l 15 0 l 0 15 l -15 0 l 0 15 l -15 0 l 0 15 l -15 0 l -0 -15 l -15 0 l -0 -15 l -15 0 l -0 -15 l 15 -0 l -0 -15 l -15 0 l 0 15 l -15 0 l -0 -15 l -15 0 l 0 15 l 15 0 l 0 15 l -15 0 l 0 15 l 15 0 l 0 -15 l 15 0 l 0 15 l 15 0 l 0 15 l 15 0 l 0 15 l -15 0 l 0 15 l -15 0 l 0 15 l -15 0 l -0 -15 l -15 0 l 0 15 l 15 0 l 0 15 l -15 0 l 0 15 l -15 0 l 0 15 l -15 0 l -0 -15 l -15 0 l 0 15 l 15 0 l 0 15 l -15 0 l 0 15 l -15 0 l 0 15 l -15 0 l -0 -15 l -15 0 l -0 -15 l -15 0 l -0 -15 l 15 -0 l -0 -15 l -15 0 l 0 15 l -15 0 l -0 -15 l -15 0 l 0 15 l 15 0 l 0 15 l -15 0 l 0 15 l 15 0 l 0 -15 l 15 0 l 0 15 l 15 0 l 0 15 l 15 0 l 0 15 l -15 0 l 0 15 l -15 0 l 0 15 l -15 0 l -0 -15 l -15 0 l 0 15 l 15 0 l 0 15 l -15 0 l 0 15 l -15 0 l 0 15 l -15 0 l -0 -15 l -15 0 l 0 15 l 15 0 l 0 15 l -15 0 l 0 15 l -15 0 l 0 15 l -15 0 l -0 -15 l -15 0 l -0 -15 l -15 0 l -0 -15 l 15 -0 l -0 -15 l -15 0 l 0 15 l -15 0 l -0 -15 l -15 0 l -0 -15 l -15 0 l -0 -15 l 15 -0 l -0 -15 l -15 0 l 0 15 l -15 0 l -0 -15 l -15 0 l -0 -15 l -15 0 l -0 -15 l 15 -0 l -0 -15 l 15 -0 l -0 -15 l 15 -0 l 0 15 l 15 -0 l -0 -15 l -15 0 l -0 -15 l 15 -0 l -0 -15 l -15 0 l 0 15 l -15 0 l -0 -15 l -15 0 l 0 15 l 15 0 l 0 15 l -15 0 l 0 15 l -15 0 l 0 15 l -15 0 l -0 -15 l -15 0 l -0 -15 l -15 0 l -0 -15 l 15 -0 l -0 -15 l -15 0 l 0 15 l -15 0 l -0 -15 l -15 0 l 0 15 l 15 0 l 0 15 l -15 0 l 0 15 l 15 0 l 0 -15 l 15 0 l 0 15 l 15 0 l 0 15 l 15 0 l 0 15 l -15 0 l 0 15 l -15 0 l 0 15 l -15 0 l -0 -15 l -15 0 l 0 15 l 15 0 l 0 15 l -15 0 l 0 15 l 15 0 l 0 -15 l 15 0 l 0 15 l 15 0 l 0 -15 l -15 -0 l 0 -15 l 15 0 l 0 -15 l 15 0 l 0 -15 l 15 0 l 0 15 l 15 0 l 0 15 l 15 0 l 0 15 l -15 0 l 0 15 l 15 0 l 0 -15 l 15 0 l 0 15 l 15 0 l 0 15 l 15 0 l 0 15 l -15 0 l 0 15 l 15 0 l 0 -15 l 15 0 l 0 15 l 15 0 l 0 15 l 15 0 l 0 15 l -15 0 l 0 15 l -15 0 l 0 15 l -15 0 l -0 -15 l -15 0 l 0 15 l 15 0 l 0 15 l -15 0 l 0 15 l -15 0 l 0 15 l -15 0 l -0 -15 l -15 0 l 0 15 l 15 0 l 0 15 l -15 0 l 0 15 l -15 0 l 0 15 l -15 0 l -0 -15 l -15 0 l -0 -15 l -15 0 l -0 -15 l 15 -0 l -0 -15 l -15 0 l 0 15 l -15 0 l -0 -15 l -15 0 l 0 15 l 15 0 l 0 15 l -15 0 l 0 15 l 15 0 l 0 -15 l 15 0 l 0 15 l 15 0 l 0 15 l 15 0 l 0 15 l -15 0 l 0 15 l -15 0 l 0 15 l -15 0 l -0 -15 l -15 0 l 0 15 l 15 0 l 0 15 l -15 0 l 0 15 l 15 0 l 0 -15 l 15 0 l 0 15 l 15 0 l 0 -15 l -15 -0 l 0 -15 l 15 0 l 0 -15 l 15 0 l 0 -15 l 15 0 l 0 15 l 15 0 l 0 15 l 15 0 l 0 15 l -15 0 l 0 15 l 15 0 l 0 -15 l 15 0 l 0 15 l 15 0 l 0 -15 l -15 -0 l 0 -15 l 15 0 l 0 -15 l -15 -0 l -0 15 l -15 -0 l 0 -15 l -15 -0 l 0 -15 l -15 -0 l 0 -15 l 15 0 l 0 -15 l 15 0 l 0 -15 l 15 0 l 0 15 l 15 0 l 0 -15 l -15 -0 l 0 -15 l 15 0 l 0 -15 l 15 0 l 0 -15 l 15 0 l 0 15 l 15 0 l 0 -15 l -15 -0 l 0 -15 l 15 0 l 0 -15 l 15 0 l 0 -15 l 15 0 l 0 15 l 15 0 l 0 15 l 15 0 l 0 15 l -15 0 l 0 15 l 15 0 l 0 -15 l 15 0 l 0 15 l 15 0 l 0 15 l 15 0 l 0 15 l -15 0 l 0 15 l 15 0 l 0 -15 l 15 0 l 0 15 l 15 0 l 0 15 l 15 0 l 0 15 l -15 0 l 0 15 l -15 0 l 0 15 l -15 0 l -0 -15 l -15 0 l 0 15 l 15 0 l 0 15 l -15 0 l 0 15 l 15 0 l 0 -15 l 15 0 l 0 15 l 15 0 l 0 -15 l -15 -0 l 0 -15 l 15 0 l 0 -15 l 15 0 l 0 -15 l 15 0 l 0 15 l 15 0 l 0 15 l 15 0 l 0 15 l -15 0 l 0 15 l 15 0 l 0 -15 l 15 0 l 0 15 l 15 0 l 0 -15 l -15 -0 l 0 -15 l 15 0 l 0 -15 l -15 -0 l -0 15 l -15 -0 l 0 -15 l -15 -0 l 0 -15 l -15 -0 l 0 -15 l 15 0 l 0 -15 l 15 0 l 0 -15 l 15 0 l 0 15 l 15 0 l 0 -15 l -15 -0 l 0 -15 l 15 0 l 0 -15 l -15 -0 l -0 15 l -15 -0 l 0 -15 l -15 -0 l -0 15 l 15 0 l -0 15 l -15 -0 l -0 15 l -15 -0 l -0 15 l -15 -0 l 0 -15 l -15 -0 l 0 -15 l -15 -0 l 0 -15 l 15 0 l 0 -15 l -15 -0 l -0 15 l -15 -0 l 0 -15 l -15 -0 l 0 -15 l -15 -0 l 0 -15 l 15 0 l 0 -15 l -15 -0 l -0 15 l -15 -0 l 0 -15 l -15 -0 l 0 -15 l -15 -0 l 0 -15 l 15 0 l 0 -15 l 15 0 l 0 -15 l 15 0 l 0 15 l 15 0 l 0 -15 l -15 -0 l 0 -15 l 15 0 l 0 -15 l 15 0 l 0 -15 l 15 0 l 0 15 l 15 0 l 0 -15 l -15 -0 l 0 -15 l 15 0 l 0 -15 l 15 0 l 0 -15 l 15 0 l 0 15 l 15 0 l 0 15 l 15 0 l 0 15 l -15 0 l 0 15 l 15 0 l 0 -15 l 15 0 l 0 15 l 15 0 l 0 -15 l -15 -0 l 0 -15 l 15 0 l 0 -15 l -15 -0 l -0 15 l -15 -0 l 0 -15 l -15 -0 l 0 -15 l -15 -0 l 0 -15 l 15 0 l 0 -15 l 15 0 l 0 -15 l 15 0 l 0 15 l 15 0 l 0 -15 l -15 -0 l 0 -15 l 15 0 l 0 -15 l 15 0 l 0 -15 l 15 0 l 0 15 l 15 0 l 0 -15 l -15 -0 l 0 -15 l 15 0 l 0 -15 l 15 0 l 0 -15 l 15 0 l 0 15 l 15 0 l 0 15 l 15 0 l 0 15 l -15 0 l 0 15 l 15 0 l 0 -15 l 15 0 l 0 15 l 15 0 l 0 -15 l -15 -0 l 0 -15 l 15 0 l 0 -15 l -15 -0 l -0 15 l -15 -0 l 0 -15 l -15 -0 l 0 -15 l -15 -0 l 0 -15 l 15 0 l 0 -15 l 15 0 l 0 -15 l 15 0 l 0 15 l 15 0 l 0 -15 l -15 -0 l 0 -15 l 15 0 l 0 -15 l 15 0 l 0 -15 l 15 0 l 0 15 l 15 0 l 0 -15 l -15 -0 l 0 -15 l 15 0 l 0 -15 l 15 0 l 0 -15 l 15 0 l 0 15 l 15 0 l 0 15 l 15 0 l 0 15 l -15 0 l 0 15 l 15 0 l 0 -15 l 15 0 l 0 15 l 15 0 l 0 15 l 15 0 l 0 15 l -15 0 l 0 15 l 15 0 l 0 -15 l 15 0 l 0 15 l 15 0 l 0 15 l 15 0 l 0 15 l -15 0 l 0 15 l -15 0 l 0 15 l -15 0 l -0 -15 l -15 0 l 0 15 l 15 0 l 0 15 l -15 0 l 0 15 l 15 0 l 0 -15 l 15 0 l 0 15 l 15 0 l 0 -15 l -15 -0 l 0 -15 l 15 0 l 0 -15 l 15 0 l 0 -15 l 15 0 l 0 15 l 15 0 l 0 15 l 15 0 l 0 15 l -15 0 l 0 15 l 15 0 l 0 -15 l 15 0 l 0 15 l 15 0 l 0 15 l 15 0 l 0 15 l -15 0 l 0 15 l 15 0 l 0 -15 l 15 0 l 0 15 l 15 0 l 0 15 l 15 0 l 0 15 l -15 0 l 0 15 l -15 0 l 0 15 l -15 0 l -0 -15 l -15 0 l 0 15 l 15 0 l 0 15 l -15 0 l 0 15 l 15 0 l 0 -15 l 15 0 l 0 15 l 15 0 l 0 -15 l -15 -0 l 0 -15 l 15 0 l 0 -15 l 15 0 l 0 -15 l 15 0 l 0 15 l 15 0 l 0 15 l 15 0 l 0 15 l -15 0 l 0 15 l 15 0 l 0 -15 l 15 0 l 0 15 l 15 0 l 0 15 l 15 0 l 0 15 l -15 0 l 0 15 l 15 0 l 0 -15 l 15 0 l 0 15 l 15 0 l 0 15 l 15 0 l 0 15 l -15 0 l 0 15 l -15 0 l 0 15 l -15 0 l -0 -15 l -15 0 l 0 15 l 15 0 l 0 15 l -15 0 l 0 15 l -15 0 l 0 15 l -15 0 l -0 -15 l -15 0 l 0 15 l 15 0 l 0 15 l -15 0 l 0 15 l -15 0 l 0 15 l -15 0 l -0 -15 l -15 0 l -0 -15 l -15 0 l -0 -15 l 15 -0 l -0 -15 l -15 0 l 0 15 l -15 0 l -0 -15 l -15 0 l 0 15 l 15 0 l 0 15 l -15 0 l 0 15 l 15 0 l 0 -15 l 15 0 l 0 15 l 15 0 l 0 15 l 15 0 l 0 15 l -15 0 l 0 15 l -15 0 l 0 15 l -15 0 l -0 -15 l -15 0 l 0 15 l 15 0 l 0 15 l -15 0 l 0 15 l 15 0 l 0 -15 l 15 0 l 0 15 l 15 0 l 0 -15 l -15 -0 l 0 -15 l 15 0 l 0 -15 l 15 0 l 0 -15 l 15 0 l 0 15 l 15 0 l 0 15 l 15 0 l 0 15 l -15 0 l 0 15 l 15 0 l 0 -15 l 15 0 l 0 15 l 15 0 l 0 -15 l -15 -0 l 0 -15 l 15 0 l 0 -15 l -15 -0 l -0 15 l -15 -0 l 0 -15 l -15 -0 l 0 -15 l -15 -0 l 0 -15 l 15 0 l 0 -15 l 15 0 l 0 -15 l 15 0 l 0 15 l 15 0 l 0 -15 l -15 -0 l 0 -15 l 15 0 l 0 -15 l 15 0 l 0 -15 l 15 0 l 0 15 l 15 0 l 0 -15 l -15 -0 l 0 -15 l 15 0 l 0 -15 l 15 0 l 0 -15 l 15 0 l 0 15 l 15 0 l 0 15 l 15 0 l 0 15 l -15 0 l 0 15 l 15 0 l 0 -15 l 15 0 l 0 15 l 15 0 l 0 15 l 15 0 l 0 15 l -15 0 l 0 15 l 15 0 l 0 -15 l 15 0 l 0 15 l 15 0 l 0 15 l 15 0 l 0 15 l -15 0 l 0 15 l -15 0 l 0 15 l -15 0 l -0 -15 l -15 0 l 0 15 l 15 0 l 0 15 l -15 0 l 0 15 l 15 0 l 0 -15 l 15 0 l 0 15 l 15 0 l 0 -15 l -15 -0 l 0 -15 l 15 0 l 0 -15 l 15 0 l 0 -15 l 15 0 l 0 15 l 15 0 l 0 15 l 15 0 l 0 15 l -15 0 l 0 15 l 15 0 l 0 -15 l 15 0 l 0 15 l 15 0 l 0 -15 l -15 -0 l 0 -15 l 15 0 l 0 -15 l -15 -0 l -0 15 l -15 -0 l 0 -15 l -15 -0 l 0 -15 l -15 -0 l 0 -15 l 15 0 l 0 -15 l 15 0 l 0 -15 l 15 0 l 0 15 l 15 0 l 0 -15 l -15 -0 l 0 -15 l 15 0 l 0 -15 l -15 -0 l -0 15 l -15 -0 l 0 -15 l -15 -0 l -0 15 l 15 0 l -0 15 l -15 -0 l -0 15 l -15 -0 l -0 15 l -15 -0 l 0 -15 l -15 -0 l 0 -15 l -15 -0 l 0 -15 l 15 0 l 0 -15 l -15 -0 l -0 15 l -15 -0 l 0 -15 l -15 -0 l 0 -15 l -15 -0 l 0 -15 l 15 0 l 0 -15 l -15 -0 l -0 15 l -15 -0 l 0 -15 l -15 -0 l 0 -15 l -15 -0 l 0 -15 l 15 0 l 0 -15 l 15 0 l 0 -15 l 15 0 l 0 15 l 15 0 l 0 -15 l -15 -0 l 0 -15 l 15 0 l 0 -15 l 15 0 l 0 -15 l 15 0 l 0 15 l 15 0 l 0 -15 l -15 -0 l 0 -15 l 15 0 l 0 -15 l 15 0 l 0 -15 l 15 0 l 0 15 l 15 0 l 0 15 l 15 0 l 0 15 l -15 0 l 0 15 l 15 0 l 0 -15 l 15 0 l 0 15 l 15 0 l 0 -15 l -15 -0 l 0 -15 l 15 0 l 0 -15 l -15 -0 l -0 15 l -15 -0 l 0 -15 l -15 -0 l 0 -15 l -15 -0 l 0 -15 l 15 0 l 0 -15 l 15 0 l 0 -15 l 15 0 l 0 15 l 15 0 l 0 -15 l -15 -0 l 0 -15 l 15 0 l 0 -15 l -15 -0 l -0 15 l -15 -0 l 0 -15 l -15 -0 l -0 15 l 15 0 l -0 15 l -15 -0 l -0 15 l -15 -0 l -0 15 l -15 -0 l 0 -15 l -15 -0 l 0 -15 l -15 -0 l 0 -15 l 15 0 l 0 -15 l -15 -0 l -0 15 l -15 -0 l 0 -15 l -15 -0 l -0 15 l 15 0 l -0 15 l -15 -0 l -0 15 l 15 0 l 0 -15 l 15 0 l -0 15 l 15 0 l -0 15 l 15 0 l -0 15 l -15 -0 l -0 15 l -15 -0 l -0 15 l -15 -0 l 0 -15 l -15 -0 l -0 15 l 15 0 l -0 15 l -15 -0 l -0 15 l -15 -0 l -0 15 l -15 -0 l 0 -15 l -15 -0 l -0 15 l 15 0 l -0 15 l -15 -0 l -0 15 l -15 -0 l -0 15 l -15 -0 l 0 -15 l -15 -0 l 0 -15 l -15 -0 l 0 -15 l 15 0 l 0 -15 l -15 -0 l -0 15 l -15 -0 l 0 -15 l -15 -0 l 0 -15 l -15 -0 l 0 -15 l 15 0 l 0 -15 l -15 -0 l -0 15 l -15 -0 l 0 -15 l -15 -0 l 0 -15 l -15 -0 l 0 -15 l 15 0 l 0 -15 l 15 0 l 0 -15 l 15 0 l 0 15 l 15 0 l 0 -15 l -15 -0 l 0 -15 l 15 0 l 0 -15 l -15 -0 l -0 15 l -15 -0 l 0 -15 l -15 -0 l -0 15 l 15 0 l -0 15 l -15 -0 l -0 15 l -15 -0 l -0 15 l -15 -0 l 0 -15 l -15 -0 l 0 -15 l -15 -0 l 0 -15 l 15 0 l 0 -15 l -15 -0 l -0 15 l -15 -0 l 0 -15 l -15 -0 l 0 -15 l -15 -0 l 0 -15 l 15 0 l 0 -15 l -15 -0 l -0 15 l -15 -0 l 0 -15 l -15 -0 l 0 -15 l -15 -0 l 0 -15 l 15 0 l 0 -15 l 15 0 l 0 -15 l 15 0 l 0 15 l 15 0 l 0 -15 l -15 -0 l 0 -15 l 15 0 l 0 -15 l -15 -0 l -0 15 l -15 -0 l 0 -15 l -15 -0 l -0 15 l 15 0 l -0 15 l -15 -0 l -0 15 l -15 -0 l -0 15 l -15 -0 l 0 -15 l -15 -0 l 0 -15 l -15 -0 l 0 -15 l 15 0 l 0 -15 l -15 -0 l -0 15 l -15 -0 l 0 -15 l -15 -0 l 0 -15 l -15 -0 l 0 -15 l 15 0 l 0 -15 l -15 -0 l -0 15 l -15 -0 l 0 -15 l -15 -0 l 0 -15 l -15 -0 l 0 -15 l 15 0 l 0 -15 l 15 0 l 0 -15 l 15 0 l 0 15 l 15 0 l 0 -15 l -15 -0 l 0 -15 l 15 0 l 0 -15 l 15 0 l 0 -15 l 15 0 l 0 15 l 15 0 l 0 -15 l -15 -0 l 0 -15 l 15 0 l 0 -15 l 15 0 l 0 -15 l 15 0 l 0 15 l 15 0 l 0 15 l 15 0 l 0 15 l -15 0 l 0 15 l 15 0 l 0 -15 l 15 0 l 0 15 l 15 0 l 0 -15 l -15 -0 l 0 -15 l 15 0 l 0 -15 l -15 -0 l -0 15 l -15 -0 l 0 -15 l -15 -0 l 0 -15 l -15 -0 l 0 -15 l 15 0 l 0 -15 l 15 0 l 0 -15 l 15 0 l 0 15 l 15 0 l 0 -15 l -15 -0 l 0 -15 l 15 0 l 0 -15 l 15 0 l 0 -15 l 15 0 l 0 15 l 15 0 l 0 -15 l -15 -0 l 0 -15 l 15 0 l 0 -15 l 15 0 l 0 -15 l 15 0 l 0 15 l 15 0 l 0 15 l 15 0 l 0 15 l -15 0 l 0 15 l 15 0 l 0 -15 l 15 0 l 0 15 l 15 0 l 0 -15 l -15 -0 l 0 -15 l 15 0 l 0 -15 l -15 -0 l -0 15 l -15 -0 l 0 -15 l -15 -0 l 0 -15 l -15 -0 l 0 -15 l 15 0 l 0 -15 l 15 0 l 0 -15 l 15 0 l 0 15 l 15 0 l 0 -15 l -15 -0 l 0 -15 l 15 0 l 0 -15 l 15 0 l 0 -15 l 15 0 l 0 15 l 15 0 l 0 -15 l -15 -0 l 0 -15 l 15 0 l 0 -15 l 15 0 l 0 -15 l 15 0 l 0 15 l 15 0 l 0 15 l 15 0 l 0 15 l -15 0 l 0 15 l 15 0 l 0 -15 l 15 0 l 0 15 l 15 0 l 0 15 l 15 0 l 0 15 l -15 0 l 0 15 l 15 0 l 0 -15 l 15 0 l 0 15 l 15 0 l 0 15 l 15 0 l 0 15 l -15 0 l 0 15 l -15 0 l 0 15 l -15 0 l -0 -15 l -15 0 l 0 15 l 15 0 l 0 15 l -15 0 l 0 15 l 15 0 l 0 -15 l 15 0 l 0 15 l 15 0 l 0 -15 l -15 -0 l 0 -15 l 15 0 l 0 -15 l 15 0 l 0 -15 l 15 0 l 0 15 l 15 0 l 0 15 l 15 0 l 0 15 l -15 0 l 0 15 l 15 0 l 0 -15 l 15 0 l 0 15 l 15 0 l 0 -15 l -15 -0 l 0 -15 l 15 0 l 0 -15 l -15 -0 l -0 15 l -15 -0 l 0 -15 l -15 -0 l 0 -15 l -15 -0 l 0 -15 l 15 0 l 0 -15 l 15 0 l 0 -15 l 15 0 l 0 15 l 15 0 l 0 -15 l -15 -0 l 0 -15 l 15 0 l 0 -15 l -15 -0 l -0 15 l -15 -0 l 0 -15 l -15 -0 l -0 15 l 15 0 l -0 15 l -15 -0 l -0 15 l -15 -0 l -0 15 l -15 -0 l 0 -15 l -15 -0 l 0 -15 l -15 -0 l 0 -15 l 15 0 l 0 -15 l -15 -0 l -0 15 l -15 -0 l 0 -15 l -15 -0 l 0 -15 l -15 -0 l 0 -15 l 15 0 l 0 -15 l -15 -0 l -0 15 l -15 -0 l 0 -15 l -15 -0 l 0 -15 l -15 -0 l 0 -15 l 15 0 l 0 -15 l 15 0 l 0 -15 l 15 0 l 0 15 l 15 0 l 0 -15 l -15 -0 l 0 -15 l 15 0 l 0 -15 l 15 0 l 0 -15 l 15 0 l 0 15 l 15 0 l 0 -15 l -15 -0 l 0 -15 l 15 0 l 0 -15 l 15 0 l 0 -15 l 15 0 l 0 15 l 15 0 l 0 15 l 15 0 l 0 15 l -15 0 l 0 15 l 15 0 l 0 -15 l 15 0 l 0 15 l 15 0 l 0 -15 l -15 -0 l 0 -15 l 15 0 l 0 -15 l -15 -0 l -0 15 l -15 -0 l 0 -15 l -15 -0 l 0 -15 l -15 -0 l 0 -15 l 15 0 l 0 -15 l 15 0 l 0 -15 l 15 0 l 0 15 l 15 0 l 0 -15 l -15 -0 l 0 -15 l 15 0 l 0 -15 l -15 -0 l -0 15 l -15 -0 l 0 -15 l -15 -0 l -0 15 l 15 0 l -0 15 l -15 -0 l -0 15 l -15 -0 l -0 15 l -15 -0 l 0 -15 l -15 -0 l 0 -15 l -15 -0 l 0 -15 l 15 0 l 0 -15 l -15 -0 l -0 15 l -15 -0 l 0 -15 l -15 -0 l -0 15 l 15 0 l -0 15 l -15 -0 l -0 15 l 15 0 l 0 -15 l 15 0 l -0 15 l 15 0 l -0 15 l 15 0 l -0 15 l -15 -0 l -0 15 l -15 -0 l -0 15 l -15 -0 l 0 -15 l -15 -0 l -0 15 l 15 0 l -0 15 l -15 -0 l -0 15 l -15 -0 l -0 15 l -15 -0 l 0 -15 l -15 -0 l -0 15 l 15 0 l -0 15 l -15 -0 l -0 15 l -15 -0 l -0 15 l -15 -0 l 0 -15 l -15 -0 l 0 -15 l -15 -0 l 0 -15 l 15 0 l 0 -15 l -15 -0 l -0 15 l -15 -0 l 0 -15 l -15 -0 l 0 -15 l -15 -0 l 0 -15 l 15 0 l 0 -15 l -15 -0 l -0 15 l -15 -0 l 0 -15 l -15 -0 l 0 -15 l -15 -0 l 0 -15 l 15 0 l 0 -15 l 15 0 l 0 -15 l 15 0 l 0 15 l 15 0 l 0 -15 l -15 -0 l 0 -15 l 15 0 l 0 -15 l -15 -0 l -0 15 l -15 -0 l 0 -15 l -15 -0 l -0 15 l 15 0 l -0 15 l -15 -0 l -0 15 l -15 -0 l -0 15 l -15 -0 l 0 -15 l -15 -0 l 0 -15 l -15 -0 l 0 -15 l 15 0 l 0 -15 l -15 -0 l -0 15 l -15 -0 l 0 -15 l -15 -0 l -0 15 l 15 0 l -0 15 l -15 -0 l -0 15 l 15 0 l 0 -15 l 15 0 l -0 15 l 15 0 l -0 15 l 15 0 l -0 15 l -15 -0 l -0 15 l -15 -0 l -0 15 l -15 -0 l 0 -15 l -15 -0 l -0 15 l 15 0 l -0 15 l -15 -0 l -0 15 l 15 0 l 0 -15 l 15 0 l -0 15 l 15 0 l 0 -15 l -15 -0 l 0 -15 l 15 0 l 0 -15 l 15 0 l 0 -15 l 15 0 l -0 15 l 15 0 l -0 15 l 15 0 l -0 15 l -15 -0 l -0 15 l 15 0 l 0 -15 l 15 0 l -0 15 l 15 0 l -0 15 l 15 0 l -0 15 l -15 -0 l -0 15 l 15 0 l 0 -15 l 15 0 l -0 15 l 15 0 l -0 15 l 15 0 l -0 15 l -15 -0 l -0 15 l -15 -0 l -0 15 l -15 -0 l 0 -15 l -15 -0 l -0 15 l 15 0 l -0 15 l -15 -0 l -0 15 l -15 -0 l -0 15 l -15 -0 l 0 -15 l -15 -0 l -0 15 l 15 0 l -0 15 l -15 -0 l -0 15 l -15 -0 l -0 15 l -15 -0 l 0 -15 l -15 -0 l 0 -15 l -15 -0 l 0 -15 l 15 0 l 0 -15 l -15 -0 l -0 15 l -15 -0 l 0 -15 l -15 -0 l -0 15 l 15 0 l -0 15 l -15 -0 l -0 15 l 15 0 l 0 -15 l 15 0 l -0 15 l 15 0 l -0 15 l 15 0 l -0 15 l -15 -0 l -0 15 l -15 -0 l -0 15 l -15 -0 l 0 -15 l -15 -0 l -0 15 l 15 0 l -0 15 l -15 -0 l -0 15 l -15 -0 l -0 15 l -15 -0 l 0 -15 l -15 -0 l -0 15 l 15 0 l -0 15 l -15 -0 l -0 15 l -15 -0 l -0 15 l -15 -0 l 0 -15 l -15 -0 l 0 -15 l -15 -0 l 0 -15 l 15 0 l 0 -15 l -15 -0 l -0 15 l -15 -0 l 0 -15 l -15 -0 l -0 15 l 15 0 l -0 15 l -15 -0 l -0 15 l 15 0 l 0 -15 l 15 0 l -0 15 l 15 0 l -0 15 l 15 0 l -0 15 l -15 -0 l -0 15 l -15 -0 l -0 15 l -15 -0 l 0 -15 l -15 -0 l -0 15 l 15 0 l -0 15 l -15 -0 l -0 15 l -15 -0 l -0 15 l -15 -0 l 0 -15 l -15 -0 l -0 15 l 15 0 l -0 15 l -15 -0 l -0 15 l -15 -0 l -0 15 l -15 -0 l 0 -15 l -15 -0 l 0 -15 l -15 -0 l 0 -15 l 15 0 l 0 -15 l -15 -0 l -0 15 l -15 -0 l 0 -15 l -15 -0 l 0 -15 l -15 -0 l 0 -15 l 15 0 l 0 -15 l -15 -0 l -0 15 l -15 -0 l 0 -15 l -15 -0 l 0 -15 l -15 -0 l 0 -15 l 15 0 l 0 -15 l 15 0 l 0 -15 l 15 0 l 0 15 l 15 0 l 0 -15 l -15 -0 l 0 -15 l 15 0 l 0 -15 l -15 -0 l -0 15 l -15 -0 l 0 -15 l -15 -0 l -0 15 l 15 0 l -0 15 l -15 -0 l -0 15 l -15 -0 l -0 15 l -15 -0 l 0 -15 l -15 -0 l 0 -15 l -15 -0 l 0 -15 l 15 0 l 0 -15 l -15 -0 l -0 15 l -15 -0 l 0 -15 l -15 -0 l 0 -15 l -15 -0 l 0 -15 l 15 0 l 0 -15 l -15 -0 l -0 15 l -15 -0 l 0 -15 l -15 -0 l 0 -15 l -15 -0 l 0 -15 l 15 0 l 0 -15 l 15 0 l 0 -15 l 15 0 l 0 15 l 15 0 l 0 -15 l -15 -0 l 0 -15 l 15 0 l 0 -15 l -15 -0 l -0 15 l -15 -0 l 0 -15 l -15 -0 l -0 15 l 15 0 l -0 15 l -15 -0 l -0 15 l -15 -0 l -0 15 l -15 -0 l 0 -15 l -15 -0 l 0 -15 l -15 -0 l 0 -15 l 15 0 l 0 -15 l -15 -0 l -0 15 l -15 -0 l 0 -15 l -15 -0 l 0 -15 l -15 -0 l 0 -15 l 15 0 l 0 -15 l -15 -0 l -0 15 l -15 -0 l 0 -15 l -15 -0 l 0 -15 l -15 -0 l 0 -15 l 15 0 l 0 -15 l 15 0 l 0 -15 l 15 0 l 0 15 l 15 0 l 0 -15 l -15 -0 l 0 -15 l 15 0 l 0 -15 l 15 0 l 0 -15 l 15 0 l 0 15 l 15 0 l 0 -15 l -15 -0 l 0 -15 l 15 0 l 0 -15 l 15 0 l 0 -15 l 15 0 l 0 15 l 15 0 l 0 15 l 15 0 l 0 15 l -15 0 l 0 15 l 15 0 l 0 -15 l 15 0 l 0 15 l 15 0 l 0 -15 l -15 -0 l 0 -15 l 15 0 l 0 -15 l -15 -0 l -0 15 l -15 -0 l 0 -15 l -15 -0 l 0 -15 l -15 -0 l 0 -15 l 15 0 l 0 -15 l 15 0 l 0 -15 l 15 0 l 0 15 l 15 0 l 0 -15 l -15 -0 l 0 -15 l 15 0 l 0 -15 l -15 -0 l -0 15 l -15 -0 l 0 -15 l -15 -0 l -0 15 l 15 0 l -0 15 l -15 -0 l -0 15 l -15 -0 l -0 15 l -15 -0 l 0 -15 l -15 -0 l 0 -15 l -15 -0 l 0 -15 l 15 0 l 0 -15 l -15 -0 l -0 15 l -15 -0 l 0 -15 l -15 -0 l -0 15 l 15 0 l -0 15 l -15 -0 l -0 15 l 15 0 l 0 -15 l 15 0 l -0 15 l 15 0 l -0 15 l 15 0 l -0 15 l -15 -0 l -0 15 l -15 -0 l -0 15 l -15 -0 l 0 -15 l -15 -0 l -0 15 l 15 0 l -0 15 l -15 -0 l -0 15 l -15 -0 l -0 15 l -15 -0 l 0 -15 l -15 -0 l -0 15 l 15 0 l -0 15 l -15 -0 l -0 15 l -15 -0 l -0 15 l -15 -0 l 0 -15 l -15 -0 l 0 -15 l -15 -0 l 0 -15 l 15 0 l 0 -15 l -15 -0 l -0 15 l -15 -0 l 0 -15 l -15 -0 l 0 -15 l -15 -0 l 0 -15 l 15 0 l 0 -15 l -15 -0 l -0 15 l -15 -0 l 0 -15 l -15 -0 l 0 -15 l -15 -0 l 0 -15 l 15 0 l 0 -15 l 15 0 l 0 -15 l 15 0 l 0 15 l 15 0 l 0 -15 l -15 -0 l 0 -15 l 15 0 l 0 -15 l -15 -0 l -0 15 l -15 -0 l 0 -15 l -15 -0 l -0 15 l 15 0 l -0 15 l -15 -0 l -0 15 l -15 -0 l -0 15 l -15 -0 l 0 -15 l -15 -0 l 0 -15 l -15 -0 l 0 -15 l 15 0 l 0 -15 l -15 -0 l -0 15 l -15 -0 l 0 -15 l -15 -0 l 0 -15 l -15 -0 l 0 -15 l 15 0 l 0 -15 l -15 -0 l -0 15 l -15 -0 l 0 -15 l -15 -0 l 0 -15 l -15 -0 l 0 -15 l 15 0 l 0 -15 l 15 0 l 0 -15 l 15 0 l 0 15 l 15 0 l 0 -15 l -15 -0 l 0 -15 l 15 0 l 0 -15 l -15 -0 l -0 15 l -15 -0 l 0 -15 l -15 -0 l -0 15 l 15 0 l -0 15 l -15 -0 l -0 15 l -15 -0 l -0 15 l -15 -0 l 0 -15 l -15 -0 l 0 -15 l -15 -0 l 0 -15 l 15 0 l 0 -15 l -15 -0 l -0 15 l -15 -0 l 0 -15 l -15 -0 l 0 -15 l -15 -0 l 0 -15 l 15 0 l 0 -15 l -15 -0 l -0 15 l -15 -0 l 0 -15 l -15 -0 l 0 -15 l -15 -0 l 0 -15 l 15 0 l 0 -15 l 15 0 l 0 -15 l 15 0 l 0 15 l 15 0 l 0 -15 l -15 -0 l 0 -15 l 15 0 l 0 -15 l 15 0 l 0 -15 l 15 0 l 0 15 l 15 0 l 0 -15 l -15 -0 l 0 -15 l 15 0 l 0 -15 l 15 0 l 0 -15 l 15 0 l 0 15 l 15 0 l 0 15 l 15 0 l 0 15 l -15 0 l 0 15 l 15 0 l 0 -15 l 15 0 l 0 15 l 15 0 l 0 -15 l -15 -0 l 0 -15 l 15 0 l 0 -15 l -15 -0 l -0 15 l -15 -0 l 0 -15 l -15 -0 l 0 -15 l -15 -0 l 0 -15 l 15 0 l 0 -15 l 15 0 l 0 -15 l 15 0 l 0 15 l 15 0 l 0 -15 l -15 -0 l 0 -15 l 15 0 l 0 -15 l -15 -0 l -0 15 l -15 -0 l 0 -15 l -15 -0 l -0 15 l 15 0 l -0 15 l -15 -0 l -0 15 l -15 -0 l -0 15 l -15 -0 l 0 -15 l -15 -0 l 0 -15 l -15 -0 l 0 -15 l 15 0 l 0 -15 l -15 -0 l -0 15 l -15 -0 l 0 -15 l -15 -0 l -0 15 l 15 0 l -0 15 l -15 -0 l -0 15 l 15 0 l 0 -15 l 15 0 l -0 15 l 15 0 l -0 15 l 15 0 l -0 15 l -15 -0 l -0 15 l -15 -0 l -0 15 l -15 -0 l 0 -15 l -15 -0 l -0 15 l 15 0 l -0 15 l -15 -0 l -0 15 l -15 -0 l -0 15 l -15 -0 l 0 -15 l -15 -0 l -0 15 l 15 0 l -0 15 l -15 -0 l -0 15 l -15 -0 l -0 15 l -15 -0 l 0 -15 l -15 -0 l 0 -15 l -15 -0 l 0 -15 l 15 0 l 0 -15 l -15 -0 l -0 15 l -15 -0 l 0 -15 l -15 -0 l 0 -15 l -15 -0 l 0 -15 l 15 0 l 0 -15 l -15 -0 l -0 15 l -15 -0 l 0 -15 l -15 -0 l 0 -15 l -15 -0 l 0 -15 l 15 0 l 0 -15 l 15 0 l 0 -15 l 15 0 l 0 15 l 15 0 l 0 -15 l -15 -0 l 0 -15 l 15 0 l 0 -15 l -15 -0 l -0 15 l -15 -0 l 0 -15 l -15 -0 l -0 15 l 15 0 l -0 15 l -15 -0 l -0 15 l -15 -0 l -0 15 l -15 -0 l 0 -15 l -15 -0 l 0 -15 l -15 -0 l 0 -15 l 15 0 l 0 -15 l -15 -0 l -0 15 l -15 -0 l 0 -15 l -15 -0 l 0 -15 l -15 -0 l 0 -15 l 15 0 l 0 -15 l -15 -0 l -0 15 l -15 -0 l 0 -15 l -15 -0 l 0 -15 l -15 -0 l 0 -15 l 15 0 l 0 -15 l 15 0 l 0 -15 l 15 0 l 0 15 l 15 0 l 0 -15 l -15 -0 l 0 -15 l 15 0 l 0 -15 l -15 -0 l -0 15 l -15 -0 l 0 -15 l -15 -0 l -0 15 l 15 0 l -0 15 l -15 -0 l -0 15 l -15 -0 l -0 15 l -15 -0 l 0 -15 l -15 -0 l 0 -15 l -15 -0 l 0 -15 l 15 0 l 0 -15 l -15 -0 l -0 15 l -15 -0 l 0 -15 l -15 -0 l 0 -15 l -15 -0 l 0 -15 l 15 0 l 0 -15 l -15 -0 l -0 15 l -15 -0 l 0 -15 l -15 -0 l 0 -15 l -15 -0 l 0 -15 l 15 0 l 0 -15 l 15 0 l 0 -15 l 15 0 l 0 15 l 15 0 l 0 -15 l -15 -0 l 0 -15 l 15 0 l 0 -15 l 15 0 l 0 -15 l 15 0 l 0 15 l 15 0 l 0 -15 l -15 -0 l 0 -15 l 15 0 l 0 -15 l 15 0 l 0 -15 l 15 0 l 0 15 l 15 0 l 0 15 l 15 0 l 0 15 l -15 0 l 0 15 l 15 0 l 0 -15 l 15 0 l 0 15 l 15 0 l 0 -15 l -15 -0 l 0 -15 l 15 0 l 0 -15 l -15 -0 l -0 15 l -15 -0 l 0 -15 l -15 -0 l 0 -15 l -15 -0 l 0 -15 l 15 0 l 0 -15 l 15 0 l 0 -15 l 15 0 l 0 15 l 15 0 l 0 -15 l -15 -0 l 0 -15 l 15 0 l 0 -15 l 15 0 l 0 -15 l 15 0 l 0 15 l 15 0 l 0 -15 l -15 -0 l 0 -15 l 15 0 l 0 -15 l 15 0 l 0 -15 l 15 0 l 0 15 l 15 0 l 0 15 l 15 0 l 0 15 l -15 0 l 0 15 l 15 0 l 0 -15 l 15 0 l 0 15 l 15 0 l 0 -15 l -15 -0 l 0 -15 l 15 0 l 0 -15 l -15 -0 l -0 15 l -15 -0 l 0 -15 l -15 -0 l 0 -15 l -15 -0 l 0 -15 l 15 0 l 0 -15 l 15 0 l 0 -15 l 15 0 l 0 15 l 15 0 l 0 -15 l -15 -0 l 0 -15 l 15 0 l 0 -15 l 15 0 l 0 -15 l 15 0 l 0 15 l 15 0 l 0 -15 l -15 -0 l 0 -15 l 15 0 l 0 -15 l 15 0 l 0 -15 l 15 0 l 0 15 l 15 0 l 0 15 l 15 0 l 0 15 l -15 0 l 0 15 l 15 0 l 0 -15 l 15 0 l 0 15 l 15 0 l 0 15 l 15 0 l 0 15 l -15 0 l 0 15 l 15 0 l 0 -15 l 15 0 l 0 15 l 15 0 l 0 15 l 15 0 l 0 15 l -15 0 l 0 15 l -15 0 l 0 15 l -15 0 l -0 -15 l -15 0 l 0 15 l 15 0 l 0 15 l -15 0 l 0 15 l 15 0 l 0 -15 l 15 0 l 0 15 l 15 0 l 0 -15 l -15 -0 l 0 -15 l 15 0 l 0 -15 l 15 0 l 0 -15 l 15 0 l 0 15 l 15 0 l 0 15 l 15 0 l 0 15 l -15 0 l 0 15 l 15 0 l 0 -15 l 15 0 l 0 15 l 15 0 l 0 -15 l -15 -0 l 0 -15 l 15 0 l 0 -15 l -15 -0 l -0 15 l -15 -0 l 0 -15 l -15 -0 l 0 -15 l -15 -0 l 0 -15 l 15 0 l 0 -15 l 15 0 l 0 -15 l 15 0 l 0 15 l 15 0 l 0 -15 l -15 -0 l 0 -15 l 15 0 l 0 -15 l -15 -0 l -0 15 l -15 -0 l 0 -15 l -15 -0 l -0 15 l 15 0 l -0 15 l -15 -0 l -0 15 l -15 -0 l -0 15 l -15 -0 l 0 -15 l -15 -0 l 0 -15 l -15 -0 l 0 -15 l 15 0 l 0 -15 l -15 -0 l -0 15 l -15 -0 l 0 -15 l -15 -0 l 0 -15 l -15 -0 l 0 -15 l 15 0 l 0 -15 l -15 -0 l -0 15 l -15 -0 l 0 -15 l -15 -0 l 0 -15 l -15 -0 l 0 -15 l 15 0 l 0 -15 l 15 0 l 0 -15 l 15 0 l 0 15 l 15 0 l 0 -15 l -15 -0 l 0 -15 l 15 0 l 0 -15 l 15 0 l 0 -15 l 15 0 l 0 15 l 15 0 l 0 -15 l -15 -0 l 0 -15 l 15 0 l 0 -15 l 15 0 l 0 -15 l 15 0 l 0 15 l 15 0 l 0 15 l 15 0 l 0 15 l -15 0 l 0 15 l 15 0 l 0 -15 l 15 0 l 0 15 l 15 0 l 0 -15 l -15 -0 l 0 -15 l 15 0 l 0 -15 l -15 -0 l -0 15 l -15 -0 l 0 -15 l -15 -0 l 0 -15 l -15 -0 l 0 -15 l 15 0 l 0 -15 l 15 0 l 0 -15 l 15 0 l 0 15 l 15 0 l 0 -15 l -15 -0 l 0 -15 l 15 0 l 0 -15 l 15 0 l 0 -15 l 15 0 l 0 15 l 15 0 l 0 -15 l -15 -0 l 0 -15 l 15 0 l 0 -15 l 15 0 l 0 -15 l 15 0 l 0 15 l 15 0 l 0 15 l 15 0 l 0 15 l -15 0 l 0 15 l 15 0 l 0 -15 l 15 0 l 0 15 l 15 0 l 0 -15 l -15 -0 l 0 -15 l 15 0 l 0 -15 l -15 -0 l -0 15 l -15 -0 l 0 -15 l -15 -0 l 0 -15 l -15 -0 l 0 -15 l 15 0 l 0 -15 l 15 0 l 0 -15 l 15 0 l 0 15 l 15 0 l 0 -15 l -15 -0 l 0 -15 l 15 0 l 0 -15 l 15 0 l 0 -15 l 15 0 l 0 15 l 15 0 l 0 -15 l -15 -0 l 0 -15 l 15 0 l 0 -15 l 15 0 l 0 -15 l 15 0 l 0 15 l 15 0 l 0 15 l 15 0 l 0 15 l -15 0 l 0 15 l 15 0 l 0 -15 l 15 0 l 0 15 l 15 0 l 0 15 l 15 0 l 0 15 l -15 0 l 0 15 l 15 0 l 0 -15 l 15 0 l 0 15 l 15 0 l 0 15 l 15 0 l 0 15 l -15 0 l 0 15 l -15 0 l 0 15 l -15 0 l -0 -15 l -15 0 l 0 15 l 15 0 l 0 15 l -15 0 l 0 15 l 15 0 l 0 -15 l 15 0 l 0 15 l 15 0 l 0 -15 l -15 -0 l 0 -15 l 15 0 l 0 -15 l 15 0 l 0 -15 l 15 0 l 0 15 l 15 0 l 0 15 l 15 0 l 0 15 l -15 0 l 0 15 l 15 0 l 0 -15 l 15 0 l 0 15 l 15 0 l 0 -15 l -15 -0 l 0 -15 l 15 0 l 0 -15 l -15 -0 l -0 15 l -15 -0 l 0 -15 l -15 -0 l 0 -15 l -15 -0 l 0 -15 l 15 0 l 0 -15 l 15 0 l 0 -15 l 15 0 l 0 15 l 15 0 l 0 -15 l -15 -0 l 0 -15 l 15 0 l 0 -15 l -15 -0 l -0 15 l -15 -0 l 0 -15 l -15 -0 l -0 15 l 15 0 l -0 15 l -15 -0 l -0 15 l -15 -0 l -0 15 l -15 -0 l 0 -15 l -15 -0 l 0 -15 l -15 -0 l 0 -15 l 15 0 l 0 -15 l -15 -0 l -0 15 l -15 -0 l 0 -15 l -15 -0 l 0 -15 l -15 -0 l 0 -15 l 15 0 l 0 -15 l -15 -0 l -0 15 l -15 -0 l 0 -15 l -15 -0 l 0 -15 l -15 -0 l 0 -15 l 15 0 l 0 -15 l 15 0 l 0 -15 l 15 0 l 0 15 l 15 0 l 0 -15 l -15 -0 l 0 -15 l 15 0 l 0 -15 l 15 0 l 0 -15 l 15 0 l 0 15 l 15 0 l 0 -15 l -15 -0 l 0 -15 l 15 0 l 0 -15 l 15 0 l 0 -15 l 15 0 l 0 15 l 15 0 l 0 15 l 15 0 l 0 15 l -15 0 l 0 15 l 15 0 l 0 -15 l 15 0 l 0 15 l 15 0 l 0 -15 l -15 -0 l 0 -15 l 15 0 l 0 -15 l -15 -0 l -0 15 l -15 -0 l 0 -15 l -15 -0 l 0 -15 l -15 -0 l 0 -15 l 15 0 l 0 -15 l 15 0 l 0 -15 l 15 0 l 0 15 l 15 0 l 0 -15 l -15 -0 l 0 -15 l 15 0 l 0 -15 l 15 0 l 0 -15 l 15 0 l 0 15 l 15 0 l 0 -15 l -15 -0 l 0 -15 l 15 0 l 0 -15 l 15 0 l 0 -15 l 15 0 l 0 15 l 15 0 l 0 15 l 15 0 l 0 15 l -15 0 l 0 15 l 15 0 l 0 -15 l 15 0 l 0 15 l 15 0 l 0 -15 l -15 -0 l 0 -15 l 15 0 l 0 -15 l -15 -0 l -0 15 l -15 -0 l 0 -15 l -15 -0 l 0 -15 l -15 -0 l 0 -15 l 15 0 l 0 -15 l 15 0 l 0 -15 l 15 0 l 0 15 l 15 0 l 0 -15 l -15 -0 l 0 -15 l 15 0 l 0 -15 l 15 0 l 0 -15 l 15 0 l 0 15 l 15 0 l 0 -15 l -15 -0 l 0 -15 l 15 0 l 0 -15 l 15 0 l 0 -15 l 15 0 l 0 15 l 15 0 l 0 15 l 15 0 l 0 15 l -15 0 l 0 15 l 15 0 l 0 -15 l 15 0 l 0 15 l 15 0 l 0 15 l 15 0 l 0 15 l -15 0 l 0 15 l 15 0 l 0 -15 l 15 0 l 0 15 l 15 0 l 0 15 l 15 0 l 0 15 l -15 0 l 0 15 l -15 0 l 0 15 l -15 0 l -0 -15 l -15 0 l 0 15 l 15 0 l 0 15 l -15 0 l 0 15 l 15 0 l 0 -15 l 15 0 l 0 15 l 15 0 l 0 -15 l -15 -0 l 0 -15 l 15 0 l 0 -15 l 15 0 l 0 -15 l 15 0 l 0 15 l 15 0 l 0 15 l 15 0 l 0 15 l -15 0 l 0 15 l 15 0 l 0 -15 l 15 0 l 0 15 l 15 0 l 0 15 l 15 0 l 0 15 l -15 0 l 0 15 l 15 0 l 0 -15 l 15 0 l 0 15 l 15 0 l 0 15 l 15 0 l 0 15 l -15 0 l 0 15 l -15 0 l 0 15 l -15 0 l -0 -15 l -15 0 l 0 15 l 15 0 l 0 15 l -15 0 l 0 15 l 15 0 l 0 -15 l 15 0 l 0 15 l 15 0 l 0 -15 l -15 -0 l 0 -15 l 15 0 l 0 -15 l 15 0 l 0 -15 l 15 0 l 0 15 l 15 0 l 0 15 l 15 0 l 0 15 l -15 0 l 0 15 l 15 0 l 0 -15 l 15 0 l 0 15 l 15 0 l 0 15 l 15 0 l 0 15 l -15 0 l 0 15 l 15 0 l 0 -15 l 15 0 l 0 15 l 15 0 l 0 15 l 15 0 l 0 15 l -15 0 l 0 15 l -15 0 l 0 15 l -15 0 l -0 -15 l -15 0 l 0 15 l 15 0 l 0 15 l -15 0 l 0 15 l -15 0 l 0 15 l -15 0 l -0 -15 l -15 0 l 0 15 l 15 0 l 0 15 l -15 0 l 0 15 l -15 0 l 0 15 l -15 0 l -0 -15 l -15 0 l -0 -15 l -15 0 l -0 -15 l 15 -0 l -0 -15 l -15 0 l 0 15 l -15 0 l -0 -15 l -15 0 l 0 15 l 15 0 l 0 15 l -15 0 l 0 15 l 15 0 l 0 -15 l 15 0 l 0 15 l 15 0 l 0 15 l 15 0 l 0 15 l -15 0 l 0 15 l -15 0 l 0 15 l -15 0 l -0 -15 l -15 0 l 0 15 l 15 0 l 0 15 l -15 0 l 0 15 l 15 0 l 0 -15 l 15 0 l 0 15 l 15 0 l 0 -15 l -15 -0 l 0 -15 l 15 0 l 0 -15 l 15 0 l 0 -15 l 15 0 l 0 15 l 15 0 l 0 15 l 15 0 l 0 15 l -15 0 l 0 15 l 15 0 l 0 -15 l 15 0 l 0 15 l 15 0 l 0 -15 l -15 -0 l 0 -15 l 15 0 l 0 -15 l -15 -0 l -0 15 l -15 -0 l 0 -15 l -15 -0 l 0 -15 l -15 -0 l 0 -15 l 15 0 l 0 -15 l 15 0 l 0 -15 l 15 0 l 0 15 l 15 0 l 0 -15 l -15 -0 l 0 -15 l 15 0 l 0 -15 l 15 0 l 0 -15 l 15 0 l 0 15 l 15 0 l 0 -15 l -15 -0 l 0 -15 l 15 0 l 0 -15 l 15 0 l 0 -15 l 15 0 l 0 15 l 15 0 l 0 15 l 15 0 l 0 15 l -15 0 l 0 15 l 15 0 l 0 -15 l 15 0 l 0 15 l 15 0 l 0 15 l 15 0 l 0 15 l -15 0 l 0 15 l 15 0 l 0 -15 l 15 0 l 0 15 l 15 0 l 0 15 l 15 0 l 0 15 l -15 0 l 0 15 l -15 0 l 0 15 l -15 0 l -0 -15 l -15 0 l 0 15 l 15 0 l 0 15 l -15 0 l 0 15 l 15 0 l 0 -15 l 15 0 l 0 15 l 15 0 l 0 -15 l -15 -0 l 0 -15 l 15 0 l 0 -15 l 15 0 l 0 -15 l 15 0 l 0 15 l 15 0 l 0 15 l 15 0 l 0 15 l -15 0 l 0 15 l 15 0 l 0 -15 l 15 0 l 0 15 l 15 0 l 0 -15 l -15 -0 l 0 -15 l 15 0 l 0 -15 l -15 -0 l -0 15 l -15 -0 l 0 -15 l -15 -0 l 0 -15 l -15 -0 l 0 -15 l 15 0 l 0 -15 l 15 0 l 0 -15 l 15 0 l 0 15 l 15 0 l 0 -15 l -15 -0 l 0 -15 l 15 0 l 0 -15 l -15 -0 l -0 15 l -15 -0 l 0 -15 l -15 -0 l -0 15 l 15 0 l -0 15 l -15 -0 l -0 15 l -15 -0 l -0 15 l -15 -0 l 0 -15 l -15 -0 l 0 -15 l -15 -0 l 0 -15 l 15 0 l 0 -15 l -15 -0 l -0 15 l -15 -0 l 0 -15 l -15 -0 l 0 -15 l -15 -0 l 0 -15 l 15 0 l 0 -15 l -15 -0 l -0 15 l -15 -0 l 0 -15 l -15 -0 l 0 -15 l -15 -0 l 0 -15 l 15 0 l 0 -15 l 15 0 l 0 -15 l 15 0 l 0 15 l 15 0 l 0 -15 l -15 -0 l 0 -15 l 15 0 l 0 -15 l 15 0 l 0 -15 l 15 0 l 0 15 l 15 0 l 0 -15 l -15 -0 l 0 -15 l 15 0 l 0 -15 l 15 0 l 0 -15 l 15 0 l 0 15 l 15 0 l 0 15 l 15 0 l 0 15 l -15 0 l 0 15 l 15 0 l 0 -15 l 15 0 l 0 15 l 15 0 l 0 -15 l -15 -0 l 0 -15 l 15 0 l 0 -15 l -15 -0 l -0 15 l -15 -0 l 0 -15 l -15 -0 l 0 -15 l -15 -0 l 0 -15 l 15 0 l 0 -15 l 15 0 l 0 -15 l 15 0 l 0 15 l 15 0 l 0 -15 l -15 -0 l 0 -15 l 15 0 l 0 -15 l -15 -0 l -0 15 l -15 -0 l 0 -15 l -15 -0 l -0 15 l 15 0 l -0 15 l -15 -0 l -0 15 l -15 -0 l -0 15 l -15 -0 l 0 -15 l -15 -0 l 0 -15 l -15 -0 l 0 -15 l 15 0 l 0 -15 l -15 -0 l -0 15 l -15 -0 l 0 -15 l -15 -0 l -0 15 l 15 0 l -0 15 l -15 -0 l -0 15 l 15 0 l 0 -15 l 15 0 l -0 15 l 15 0 l -0 15 l 15 0 l -0 15 l -15 -0 l -0 15 l -15 -0 l -0 15 l -15 -0 l 0 -15 l -15 -0 l -0 15 l 15 0 l -0 15 l -15 -0 l -0 15 l -15 -0 l -0 15 l -15 -0 l 0 -15 l -15 -0 l -0 15 l 15 0 l -0 15 l -15 -0 l -0 15 l -15 -0 l -0 15 l -15 -0 l 0 -15 l -15 -0 l 0 -15 l -15 -0 l 0 -15 l 15 0 l 0 -15 l -15 -0 l -0 15 l -15 -0 l 0 -15 l -15 -0 l 0 -15 l -15 -0 l 0 -15 l 15 0 l 0 -15 l -15 -0 l -0 15 l -15 -0 l 0 -15 l -15 -0 l 0 -15 l -15 -0 l 0 -15 l 15 0 l 0 -15 l 15 0 l 0 -15 l 15 0 l 0 15 l 15 0 l 0 -15 l -15 -0 l 0 -15 l 15 0 l 0 -15 l -15 -0 l -0 15 l -15 -0 l 0 -15 l -15 -0 l -0 15 l 15 0 l -0 15 l -15 -0 l -0 15 l -15 -0 l -0 15 l -15 -0 l 0 -15 l -15 -0 l 0 -15 l -15 -0 l 0 -15 l 15 0 l 0 -15 l -15 -0 l -0 15 l -15 -0 l 0 -15 l -15 -0 l 0 -15 l -15 -0 l 0 -15 l 15 0 l 0 -15 l -15 -0 l -0 15 l -15 -0 l 0 -15 l -15 -0 l 0 -15 l -15 -0 l 0 -15 l 15 0 l 0 -15 l 15 0 l 0 -15 l 15 0 l 0 15 l 15 0 l 0 -15 l -15 -0 l 0 -15 l 15 0 l 0 -15 l -15 -0 l -0 15 l -15 -0 l 0 -15 l -15 -0 l -0 15 l 15 0 l -0 15 l -15 -0 l -0 15 l -15 -0 l -0 15 l -15 -0 l 0 -15 l -15 -0 l 0 -15 l -15 -0 l 0 -15 l 15 0 l 0 -15 l -15 -0 l -0 15 l -15 -0 l 0 -15 l -15 -0 l 0 -15 l -15 -0 l 0 -15 l 15 0 l 0 -15 l -15 -0 l -0 15 l -15 -0 l 0 -15 l -15 -0 l 0 -15 l -15 -0 l 0 -15 l 15 0 l 0 -15 l 15 0 l 0 -15 l 15 0 l 0 15 l 15 0 l 0 -15 l -15 -0 l 0 -15 l 15 0 l 0 -15 l 15 0 l 0 -15 l 15 0 l 0 15 l 15 0 l 0 -15 l -15 -0 l 0 -15 l 15 0 l 0 -15 l 15 0 l 0 -15 l 15 0 l 0 15 l 15 0 l 0 15 l 15 0 l 0 15 l -15 0 l 0 15 l 15 0 l 0 -15 l 15 0 l 0 15 l 15 0 l 0 -15 l -15 -0 l 0 -15 l 15 0 l 0 -15 l -15 -0 l -0 15 l -15 -0 l 0 -15 l -15 -0 l 0 -15 l -15 -0 l 0 -15 l 15 0 l 0 -15 l 15 0 l 0 -15 l 15 0 l 0 15 l 15 0 l 0 -15 l -15 -0 l 0 -15 l 15 0 l 0 -15 l 15 0 l 0 -15 l 15 0 l 0 15 l 15 0 l 0 -15 l -15 -0 l 0 -15 l 15 0 l 0 -15 l 15 0 l 0 -15 l 15 0 l 0 15 l 15 0 l 0 15 l 15 0 l 0 15 l -15 0 l 0 15 l 15 0 l 0 -15 l 15 0 l 0 15 l 15 0 l 0 -15 l -15 -0 l 0 -15 l 15 0 l 0 -15 l -15 -0 l -0 15 l -15 -0 l 0 -15 l -15 -0 l 0 -15 l -15 -0 l 0 -15 l 15 0 l 0 -15 l 15 0 l 0 -15 l 15 0 l 0 15 l 15 0 l 0 -15 l -15 -0 l 0 -15 l 15 0 l 0 -15 l 15 0 l 0 -15 l 15 0 l 0 15 l 15 0 l 0 -15 l -15 -0 l 0 -15 l 15 0 l 0 -15 l 15 0 l 0 -15 l 15 0 l 0 15 l 15 0 l 0 15 l 15 0 l 0 15 l -15 0 l 0 15 l 15 0 l 0 -15 l 15 0 l 0 15 l 15 0 l 0 15 l 15 0 l 0 15 l -15 0 l 0 15 l 15 0 l 0 -15 l 15 0 l 0 15 l 15 0 l 0 15 l 15 0 l 0 15 l -15 0 l 0 15 l -15 0 l 0 15 l -15 0 l -0 -15 l -15 0 l 0 15 l 15 0 l 0 15 l -15 0 l 0 15 l 15 0 l 0 -15 l 15 0 l 0 15 l 15 0 l 0 -15 l -15 -0 l 0 -15 l 15 0 l 0 -15 l 15 0 l 0 -15 l 15 0 l 0 15 l 15 0 l 0 15 l 15 0 l 0 15 l -15 0 l 0 15 l 15 0 l 0 -15 l 15 0 l 0 15 l 15 0 l 0 -15 l -15 -0 l 0 -15 l 15 0 l 0 -15 l -15 -0 l -0 15 l -15 -0 l 0 -15 l -15 -0 l 0 -15 l -15 -0 l 0 -15 l 15 0 l 0 -15 l 15 0 l 0 -15 l 15 0 l 0 15 l 15 0 l 0 -15 l -15 -0 l 0 -15 l 15 0 l 0 -15 l -15 -0 l -0 15 l -15 -0 l 0 -15 l -15 -0 l -0 15 l 15 0 l -0 15 l -15 -0 l -0 15 l -15 -0 l -0 15 l -15 -0 l 0 -15 l -15 -0 l 0 -15 l -15 -0 l 0 -15 l 15 0 l 0 -15 l -15 -0 l -0 15 l -15 -0 l 0 -15 l -15 -0 l 0 -15 l -15 -0 l 0 -15 l 15 0 l 0 -15 l -15 -0 l -0 15 l -15 -0 l 0 -15 l -15 -0 l 0 -15 l -15 -0 l 0 -15 l 15 0 l 0 -15 l 15 0 l 0 -15 l 15 0 l 0 15 l 15 0 l 0 -15 l -15 -0 l 0 -15 l 15 0 l 0 -15 l 15 0 l 0 -15 l 15 0 l 0 15 l 15 0 l 0 -15 l -15 -0 l 0 -15 l 15 0 l 0 -15 l 15 0 l 0 -15 l 15 0 l 0 15 l 15 0 l 0 15 l 15 0 l 0 15 l -15 0 l 0 15 l 15 0 l 0 -15 l 15 0 l 0 15 l 15 0 l 0 -15 l -15 -0 l 0 -15 l 15 0 l 0 -15 l -15 -0 l -0 15 l -15 -0 l 0 -15 l -15 -0 l 0 -15 l -15 -0 l 0 -15 l 15 0 l 0 -15 l 15 0 l 0 -15 l 15 0 l 0 15 l 15 0 l 0 -15 l -15 -0 l 0 -15 l 15 0 l 0 -15 l -15 -0 l -0 15 l -15 -0 l 0 -15 l -15 -0 l -0 15 l 15 0 l -0 15 l -15 -0 l -0 15 l -15 -0 l -0 15 l -15 -0 l 0 -15 l -15 -0 l 0 -15 l -15 -0 l 0 -15 l 15 0 l 0 -15 l -15 -0 l -0 15 l -15 -0 l 0 -15 l -15 -0 l -0 15 l 15 0 l -0 15 l -15 -0 l -0 15 l 15 0 l 0 -15 l 15 0 l -0 15 l 15 0 l -0 15 l 15 0 l -0 15 l -15 -0 l -0 15 l -15 -0 l -0 15 l -15 -0 l 0 -15 l -15 -0 l -0 15 l 15 0 l -0 15 l -15 -0 l -0 15 l -15 -0 l -0 15 l -15 -0 l 0 -15 l -15 -0 l -0 15 l 15 0 l -0 15 l -15 -0 l -0 15 l -15 -0 l -0 15 l -15 -0 l 0 -15 l -15 -0 l 0 -15 l -15 -0 l 0 -15 l 15 0 l 0 -15 l -15 -0 l -0 15 l -15 -0 l 0 -15 l -15 -0 l 0 -15 l -15 -0 l 0 -15 l 15 0 l 0 -15 l -15 -0 l -0 15 l -15 -0 l 0 -15 l -15 -0 l 0 -15 l -15 -0 l 0 -15 l 15 0 l 0 -15 l 15 0 l 0 -15 l 15 0 l 0 15 l 15 0 l 0 -15 l -15 -0 l 0 -15 l 15 0 l 0 -15 l -15 -0 l -0 15 l -15 -0 l 0 -15 l -15 -0 l -0 15 l 15 0 l -0 15 l -15 -0 l -0 15 l -15 -0 l -0 15 l -15 -0 l 0 -15 l -15 -0 l 0 -15 l -15 -0 l 0 -15 l 15 0 l 0 -15 l -15 -0 l -0 15 l -15 -0 l 0 -15 l -15 -0 l -0 15 l 15 0 l -0 15 l -15 -0 l -0 15 l 15 0 l 0 -15 l 15 0 l -0 15 l 15 0 l -0 15 l 15 0 l -0 15 l -15 -0 l -0 15 l -15 -0 l -0 15 l -15 -0 l 0 -15 l -15 -0 l -0 15 l 15 0 l -0 15 l -15 -0 l -0 15 l 15 0 l 0 -15 l 15 0 l -0 15 l 15 0 l 0 -15 l -15 -0 l 0 -15 l 15 0 l 0 -15 l 15 0 l 0 -15 l 15 0 l -0 15 l 15 0 l -0 15 l 15 0 l -0 15 l -15 -0 l -0 15 l 15 0 l 0 -15 l 15 0 l -0 15 l 15 0 l -0 15 l 15 0 l -0 15 l -15 -0 l -0 15 l 15 0 l 0 -15 l 15 0 l -0 15 l 15 0 l -0 15 l 15 0 l -0 15 l -15 -0 l -0 15 l -15 -0 l -0 15 l -15 -0 l 0 -15 l -15 -0 l -0 15 l 15 0 l -0 15 l -15 -0 l -0 15 l -15 -0 l -0 15 l -15 -0 l 0 -15 l -15 -0 l -0 15 l 15 0 l -0 15 l -15 -0 l -0 15 l -15 -0 l -0 15 l -15 -0 l 0 -15 l -15 -0 l 0 -15 l -15 -0 l 0 -15 l 15 0 l 0 -15 l -15 -0 l -0 15 l -15 -0 l 0 -15 l -15 -0 l -0 15 l 15 0 l -0 15 l -15 -0 l -0 15 l 15 0 l 0 -15 l 15 0 l -0 15 l 15 0 l -0 15 l 15 0 l -0 15 l -15 -0 l -0 15 l -15 -0 l -0 15 l -15 -0 l 0 -15 l -15 -0 l -0 15 l 15 0 l -0 15 l -15 -0 l -0 15 l -15 -0 l -0 15 l -15 -0 l 0 -15 l -15 -0 l -0 15 l 15 0 l -0 15 l -15 -0 l -0 15 l -15 -0 l -0 15 l -15 -0 l 0 -15 l -15 -0 l 0 -15 l -15 -0 l 0 -15 l 15 0 l 0 -15 l -15 -0 l -0 15 l -15 -0 l 0 -15 l -15 -0 l -0 15 l 15 0 l -0 15 l -15 -0 l -0 15 l 15 0 l 0 -15 l 15 0 l -0 15 l 15 0 l -0 15 l 15 0 l -0 15 l -15 -0 l -0 15 l -15 -0 l -0 15 l -15 -0 l 0 -15 l -15 -0 l -0 15 l 15 0 l -0 15 l -15 -0 l -0 15 l -15 -0 l -0 15 l -15 -0 l 0 -15 l -15 -0 l -0 15 l 15 0 l -0 15 l -15 -0 l -0 15 l -15 -0 l -0 15 l -15 -0 l 0 -15 l -15 -0 l 0 -15 l -15 -0 l 0 -15 l 15 0 l 0 -15 l -15 -0 l -0 15 l -15 -0 l 0 -15 l -15 -0 l 0 -15 l -15 -0 l 0 -15 l 15 0 l 0 -15 l -15 -0 l -0 15 l -15 -0 l 0 -15 l -15 -0 l 0 -15 l -15 -0 l 0 -15 l 15 0 l 0 -15 l 15 0 l 0 -15 l 15 0 l 0 15 l 15 0 l 0 -15 l -15 -0 l 0 -15 l 15 0 l 0 -15 l -15 -0 l -0 15 l -15 -0 l 0 -15 l -15 -0 l -0 15 l 15 0 l -0 15 l -15 -0 l -0 15 l -15 -0 l -0 15 l -15 -0 l 0 -15 l -15 -0 l 0 -15 l -15 -0 l 0 -15 l 15 0 l 0 -15 l -15 -0 l -0 15 l -15 -0 l 0 -15 l -15 -0 l 0 -15 l -15 -0 l 0 -15 l 15 0 l 0 -15 l -15 -0 l -0 15 l -15 -0 l 0 -15 l -15 -0 l 0 -15 l -15 -0 l 0 -15 l 15 0 l 0 -15 l 15 0 l 0 -15 l 15 0 l 0 15 l 15 0 l 0 -15 l -15 -0 l 0 -15 l 15 0 l 0 -15 l -15 -0 l -0 15 l -15 -0 l 0 -15 l -15 -0 l -0 15 l 15 0 l -0 15 l -15 -0 l -0 15 l -15 -0 l -0 15 l -15 -0 l 0 -15 l -15 -0 l 0 -15 l -15 -0 l 0 -15 l 15 0 l 0 -15 l -15 -0 l -0 15 l -15 -0 l 0 -15 l -15 -0 l 0 -15 l -15 -0 l 0 -15 l 15 0 l 0 -15 l -15 -0 l -0 15 l -15 -0 l 0 -15 l -15 -0 l 0 -15 l -15 -0 l 0 -15 l 15 0 l 0 -15 l 15 0 l 0 -15 l 15 0 l 0 15 l 15 0 l 0 -15 l -15 -0 l 0 -15 l 15 0 l 0 -15 l 15 0 l 0 -15 l 15 0 l 0 15 l 15 0 l 0 -15 l -15 -0 l 0 -15 l 15 0 l 0 -15 l 15 0 l 0 -15 l 15 0 l 0 15 l 15 0 l 0 15 l 15 0 l 0 15 l -15 0 l 0 15 l 15 0 l 0 -15 l 15 0 l 0 15 l 15 0 l 0 -15 l -15 -0 l 0 -15 l 15 0 l 0 -15 l -15 -0 l -0 15 l -15 -0 l 0 -15 l -15 -0 l 0 -15 l -15 -0 l 0 -15 l 15 0 l 0 -15 l 15 0 l 0 -15 l 15 0 l 0 15 l 15 0 l 0 -15 l -15 -0 l 0 -15 l 15 0 l 0 -15 l -15 -0 l -0 15 l -15 -0 l 0 -15 l -15 -0 l -0 15 l 15 0 l -0 15 l -15 -0 l -0 15 l -15 -0 l -0 15 l -15 -0 l 0 -15 l -15 -0 l 0 -15 l -15 -0 l 0 -15 l 15 0 l 0 -15 l -15 -0 l -0 15 l -15 -0 l 0 -15 l -15 -0 l -0 15 l 15 0 l -0 15 l -15 -0 l -0 15 l 15 0 l 0 -15 l 15 0 l -0 15 l 15 0 l -0 15 l 15 0 l -0 15 l -15 -0 l -0 15 l -15 -0 l -0 15 l -15 -0 l 0 -15 l -15 -0 l -0 15 l 15 0 l -0 15 l -15 -0 l -0 15 l -15 -0 l -0 15 l -15 -0 l 0 -15 l -15 -0 l -0 15 l 15 0 l -0 15 l -15 -0 l -0 15 l -15 -0 l -0 15 l -15 -0 l 0 -15 l -15 -0 l 0 -15 l -15 -0 l 0 -15 l 15 0 l 0 -15 l -15 -0 l -0 15 l -15 -0 l 0 -15 l -15 -0 l 0 -15 l -15 -0 l 0 -15 l 15 0 l 0 -15 l -15 -0 l -0 15 l -15 -0 l 0 -15 l -15 -0 l 0 -15 l -15 -0 l 0 -15 l 15 0 l 0 -15 l 15 0 l 0 -15 l 15 0 l 0 15 l 15 0 l 0 -15 l -15 -0 l 0 -15 l 15 0 l 0 -15 l -15 -0 l -0 15 l -15 -0 l 0 -15 l -15 -0 l -0 15 l 15 0 l -0 15 l -15 -0 l -0 15 l -15 -0 l -0 15 l -15 -0 l 0 -15 l -15 -0 l 0 -15 l -15 -0 l 0 -15 l 15 0 l 0 -15 l -15 -0 l -0 15 l -15 -0 l 0 -15 l -15 -0 l -0 15 l 15 0 l -0 15 l -15 -0 l -0 15 l 15 0 l 0 -15 l 15 0 l -0 15 l 15 0 l -0 15 l 15 0 l -0 15 l -15 -0 l -0 15 l -15 -0 l -0 15 l -15 -0 l 0 -15 l -15 -0 l -0 15 l 15 0 l -0 15 l -15 -0 l -0 15 l 15 0 l 0 -15 l 15 0 l -0 15 l 15 0 l 0 -15 l -15 -0 l 0 -15 l 15 0 l 0 -15 l 15 0 l 0 -15 l 15 0 l -0 15 l 15 0 l -0 15 l 15 0 l -0 15 l -15 -0 l -0 15 l 15 0 l 0 -15 l 15 0 l -0 15 l 15 0 l -0 15 l 15 0 l -0 15 l -15 -0 l -0 15 l 15 0 l 0 -15 l 15 0 l -0 15 l 15 0 l -0 15 l 15 0 l -0 15 l -15 -0 l -0 15 l -15 -0 l -0 15 l -15 -0 l 0 -15 l -15 -0 l -0 15 l 15 0 l -0 15 l -15 -0 l -0 15 l -15 -0 l -0 15 l -15 -0 l 0 -15 l -15 -0 l -0 15 l 15 0 l -0 15 l -15 -0 l -0 15 l -15 -0 l -0 15 l -15 -0 l 0 -15 l -15 -0 l 0 -15 l -15 -0 l 0 -15 l 15 0 l 0 -15 l -15 -0 l -0 15 l -15 -0 l 0 -15 l -15 -0 l -0 15 l 15 0 l -0 15 l -15 -0 l -0 15 l 15 0 l 0 -15 l 15 0 l -0 15 l 15 0 l -0 15 l 15 0 l -0 15 l -15 -0 l -0 15 l -15 -0 l -0 15 l -15 -0 l 0 -15 l -15 -0 l -0 15 l 15 0 l -0 15 l -15 -0 l -0 15 l 15 0 l 0 -15 l 15 0 l -0 15 l 15 0 l 0 -15 l -15 -0 l 0 -15 l 15 0 l 0 -15 l 15 0 l 0 -15 l 15 0 l -0 15 l 15 0 l -0 15 l 15 0 l -0 15 l -15 -0 l -0 15 l 15 0 l 0 -15 l 15 0 l -0 15 l 15 0 l 0 -15 l -15 -0 l 0 -15 l 15 0 l 0 -15 l -15 -0 l -0 15 l -15 -0 l 0 -15 l -15 -0 l 0 -15 l -15 -0 l 0 -15 l 15 0 l 0 -15 l 15 0 l 0 -15 l 15 0 l -0 15 l 15 0 l 0 -15 l -15 -0 l 0 -15 l 15 0 l 0 -15 l 15 0 l 0 -15 l 15 0 l -0 15 l 15 0 l 0 -15 l -15 -0 l 0 -15 l 15 0 l 0 -15 l 15 0 l 0 -15 l 15 0 l -0 15 l 15 0 l -0 15 l 15 0 l -0 15 l -15 -0 l -0 15 l 15 0 l 0 -15 l 15 0 l -0 15 l 15 0 l -0 15 l 15 0 l -0 15 l -15 -0 l -0 15 l 15 0 l 0 -15 l 15 0 l -0 15 l 15 0 l -0 15 l 15 0 l -0 15 l -15 -0 l -0 15 l -15 -0 l -0 15 l -15 -0 l 0 -15 l -15 -0 l -0 15 l 15 0 l -0 15 l -15 -0 l -0 15 l 15 0 l 0 -15 l 15 0 l -0 15 l 15 0 l 0 -15 l -15 -0 l 0 -15 l 15 0 l 0 -15 l 15 0 l 0 -15 l 15 0 l -0 15 l 15 0 l -0 15 l 15 0 l -0 15 l -15 -0 l -0 15 l 15 0 l 0 -15 l 15 0 l -0 15 l 15 0 l -0 15 l 15 0 l -0 15 l -15 -0 l -0 15 l 15 0 l 0 -15 l 15 0 l -0 15 l 15 0 l -0 15 l 15 0 l -0 15 l -15 -0 l -0 15 l -15 -0 l -0 15 l -15 -0 l 0 -15 l -15 -0 l -0 15 l 15 0 l -0 15 l -15 -0 l -0 15 l 15 0 l 0 -15 l 15 0 l -0 15 l 15 0 l 0 -15 l -15 -0 l 0 -15 l 15 0 l 0 -15 l 15 0 l 0 -15 l 15 0 l -0 15 l 15 0 l -0 15 l 15 0 l -0 15 l -15 -0 l -0 15 l 15 0 l 0 -15 l 15 0 l -0 15 l 15 0 l -0 15 l 15 0 l -0 15 l -15 -0 l -0 15 l 15 0 l 0 -15 l 15 0 l -0 15 l 15 0 l -0 15 l 15 0 l -0 15 l -15 -0 l -0 15 l -15 -0 l -0 15 l -15 -0 l 0 -15 l -15 -0 l -0 15 l 15 0 l -0 15 l -15 -0 l -0 15 l -15 -0 l -0 15 l -15 -0 l 0 -15 l -15 -0 l -0 15 l 15 0 l -0 15 l -15 -0 l -0 15 l -15 -0 l -0 15 l -15 -0 l 0 -15 l -15 -0 l 0 -15 l -15 -0 l 0 -15 l 15 0 l 0 -15 l -15 -0 l -0 15 l -15 -0 l 0 -15 l -15 -0 l -0 15 l 15 0 l -0 15 l -15 -0 l -0 15 l 15 0 l 0 -15 l 15 0 l -0 15 l 15 0 l -0 15 l 15 0 l -0 15 l -15 -0 l -0 15 l -15 -0 l -0 15 l -15 -0 l 0 -15 l -15 -0 l -0 15 l 15 0 l -0 15 l -15 -0 l -0 15 l -15 -0 l -0 15 l -15 -0 l 0 -15 l -15 -0 l -0 15 l 15 0 l -0 15 l -15 -0 l -0 15 l -15 -0 l -0 15 l -15 -0 l 0 -15 l -15 -0 l 0 -15 l -15 -0 l 0 -15 l 15 0 l 0 -15 l -15 -0 l -0 15 l -15 -0 l 0 -15 l -15 -0 l -0 15 l 15 0 l -0 15 l -15 -0 l -0 15 l 15 0 l 0 -15 l 15 0 l -0 15 l 15 0 l -0 15 l 15 0 l -0 15 l -15 -0 l -0 15 l -15 -0 l -0 15 l -15 -0 l 0 -15 l -15 -0 l -0 15 l 15 0 l -0 15 l -15 -0 l -0 15 l -15 -0 l -0 15 l -15 -0 l 0 -15 l -15 -0 l -0 15 l 15 0 l -0 15 l -15 -0 l -0 15 l -15 -0 l -0 15 l -15 -0 l 0 -15 l -15 -0 l 0 -15 l -15 -0 l 0 -15 l 15 0 l 0 -15 l -15 -0 l -0 15 l -15 -0 l 0 -15 l -15 -0 l 0 -15 l -15 -0 l 0 -15 l 15 0 l 0 -15 l -15 -0 l -0 15 l -15 -0 l 0 -15 l -15 -0 l 0 -15 l -15 -0 l 0 -15 l 15 0 l 0 -15 l 15 0 l 0 -15 l 15 0 l 0 15 l 15 0 l 0 -15 l -15 -0 l 0 -15 l 15 0 l 0 -15 l -15 -0 l -0 15 l -15 -0 l 0 -15 l -15 -0 l -0 15 l 15 0 l -0 15 l -15 -0 l -0 15 l -15 -0 l -0 15 l -15 -0 l 0 -15 l -15 -0 l 0 -15 l -15 -0 l 0 -15 l 15 0 l 0 -15 l -15 -0 l -0 15 l -15 -0 l 0 -15 l -15 -0 l -0 15 l 15 0 l -0 15 l -15 -0 l -0 15 l 15 0 l 0 -15 l 15 0 l -0 15 l 15 0 l -0 15 l 15 0 l -0 15 l -15 -0 l -0 15 l -15 -0 l -0 15 l -15 -0 l 0 -15 l -15 -0 l -0 15 l 15 0 l -0 15 l -15 -0 l -0 15 l 15 0 l 0 -15 l 15 0 l -0 15 l 15 0 l 0 -15 l -15 -0 l 0 -15 l 15 0 l 0 -15 l 15 0 l 0 -15 l 15 0 l -0 15 l 15 0 l -0 15 l 15 0 l -0 15 l -15 -0 l -0 15 l 15 0 l 0 -15 l 15 0 l -0 15 l 15 0 l -0 15 l 15 0 l -0 15 l -15 -0 l -0 15 l 15 0 l 0 -15 l 15 0 l -0 15 l 15 0 l -0 15 l 15 0 l -0 15 l -15 -0 l -0 15 l -15 -0 l -0 15 l -15 -0 l 0 -15 l -15 -0 l -0 15 l 15 0 l -0 15 l -15 -0 l -0 15 l -15 -0 l -0 15 l -15 -0 l 0 -15 l -15 -0 l -0 15 l 15 0 l -0 15 l -15 -0 l -0 15 l -15 -0 l -0 15 l -15 -0 l 0 -15 l -15 -0 l 0 -15 l -15 -0 l 0 -15 l 15 0 l 0 -15 l -15 -0 l -0 15 l -15 -0 l 0 -15 l -15 -0 l -0 15 l 15 0 l -0 15 l -15 -0 l -0 15 l 15 0 l 0 -15 l 15 0 l -0 15 l 15 0 l -0 15 l 15 0 l -0 15 l -15 -0 l -0 15 l -15 -0 l -0 15 l -15 -0 l 0 -15 l -15 -0 l -0 15 l 15 0 l -0 15 l -15 -0 l -0 15 l -15 -0 l -0 15 l -15 -0 l 0 -15 l -15 -0 l -0 15 l 15 0 l -0 15 l -15 -0 l -0 15 l -15 -0 l -0 15 l -15 -0 l 0 -15 l -15 -0 l 0 -15 l -15 -0 l 0 -15 l 15 0 l 0 -15 l -15 -0 l -0 15 l -15 -0 l 0 -15 l -15 -0 l -0 15 l 15 0 l -0 15 l -15 -0 l -0 15 l 15 0 l 0 -15 l 15 0 l -0 15 l 15 0 l -0 15 l 15 0 l -0 15 l -15 -0 l -0 15 l -15 -0 l -0 15 l -15 -0 l 0 -15 l -15 -0 l -0 15 l 15 0 l -0 15 l -15 -0 l -0 15 l -15 -0 l -0 15 l -15 -0 l 0 -15 l -15 -0 l -0 15 l 15 0 l -0 15 l -15 -0 l -0 15 l -15 -0 l -0 15 l -15 -0 l 0 -15 l -15 -0 l 0 -15 l -15 -0 l 0 -15 l 15 0 l 0 -15 l -15 -0 l -0 15 l -15 -0 l 0 -15 l -15 -0 l 0 -15 l -15 -0 l 0 -15 l 15 0 l 0 -15 l -15 -0 l -0 15 l -15 -0 l 0 -15 l -15 -0 l 0 -15 l -15 -0 l 0 -15 l 15 0 l 0 -15 l 15 0 l 0 -15 l 15 0 l 0 15 l 15 0 l 0 -15 l -15 -0 l 0 -15 l 15 0 l 0 -15 l -15 -0 l -0 15 l -15 -0 l 0 -15 l -15 -0 l -0 15 l 15 0 l -0 15 l -15 -0 l -0 15 l -15 -0 l -0 15 l -15 -0 l 0 -15 l -15 -0 l 0 -15 l -15 -0 l 0 -15 l 15 0 l 0 -15 l -15 -0 l -0 15 l -15 -0 l 0 -15 l -15 -0 l -0 15 l 15 0 l -0 15 l -15 -0 l -0 15 l 15 0 l 0 -15 l 15 0 l -0 15 l 15 0 l -0 15 l 15 0 l -0 15 l -15 -0 l -0 15 l -15 -0 l -0 15 l -15 -0 l 0 -15 l -15 -0 l -0 15 l 15 0 l -0 15 l -15 -0 l -0 15 l 15 0 l 0 -15 l 15 0 l -0 15 l 15 0 l 0 -15 l -15 -0 l 0 -15 l 15 0 l 0 -15 l 15 0 l 0 -15 l 15 0 l -0 15 l 15 0 l -0 15 l 15 0 l -0 15 l -15 -0 l -0 15 l 15 0 l 0 -15 l 15 0 l -0 15 l 15 0 l -0 15 l 15 0 l -0 15 l -15 -0 l -0 15 l 15 0 l 0 -15 l 15 0 l -0 15 l 15 0 l -0 15 l 15 0 l -0 15 l -15 -0 l -0 15 l -15 -0 l -0 15 l -15 -0 l 0 -15 l -15 -0 l -0 15 l 15 0 l -0 15 l -15 -0 l -0 15 l -15 -0 l -0 15 l -15 -0 l 0 -15 l -15 -0 l -0 15 l 15 0 l -0 15 l -15 -0 l -0 15 l -15 -0 l -0 15 l -15 -0 l 0 -15 l -15 -0 l 0 -15 l -15 -0 l 0 -15 l 15 0 l 0 -15 l -15 -0 l -0 15 l -15 -0 l 0 -15 l -15 -0 l -0 15 l 15 0 l -0 15 l -15 -0 l -0 15 l 15 0 l 0 -15 l 15 0 l -0 15 l 15 0 l -0 15 l 15 0 l -0 15 l -15 -0 l -0 15 l -15 -0 l -0 15 l -15 -0 l 0 -15 l -15 -0 l -0 15 l 15 0 l -0 15 l -15 -0 l -0 15 l -15 -0 l -0 15 l -15 -0 l 0 -15 l -15 -0 l -0 15 l 15 0 l -0 15 l -15 -0 l -0 15 l -15 -0 l -0 15 l -15 -0 l 0 -15 l -15 -0 l 0 -15 l -15 -0 l 0 -15 l 15 0 l 0 -15 l -15 -0 l -0 15 l -15 -0 l 0 -15 l -15 -0 l -0 15 l 15 0 l -0 15 l -15 -0 l -0 15 l 15 0 l 0 -15 l 15 0 l -0 15 l 15 0 l -0 15 l 15 0 l -0 15 l -15 -0 l -0 15 l -15 -0 l -0 15 l -15 -0 l 0 -15 l -15 -0 l -0 15 l 15 0 l -0 15 l -15 -0 l -0 15 l -15 -0 l -0 15 l -15 -0 l 0 -15 l -15 -0 l -0 15 l 15 0 l -0 15 l -15 -0 l -0 15 l -15 -0 l -0 15 l -15 -0 l 0 -15 l -15 -0 l 0 -15 l -15 -0 l 0 -15 l 15 0 l 0 -15 l -15 -0 l -0 15 l -15 -0 l 0 -15 l -15 -0 l 0 -15 l -15 -0 l 0 -15 l 15 0 l 0 -15 l -15 -0 l -0 15 l -15 -0 l 0 -15 l -15 -0 l 0 -15 l -15 -0 l 0 -15 l 15 0 l 0 -15 l 15 0 l 0 -15 l 15 0 l 0 15 l 15 0 l 0 -15 l -15 -0 l 0 -15 l 15 0 l 0 -15 l -15 -0 l -0 15 l -15 -0 l 0 -15 l -15 -0 l -0 15 l 15 0 l -0 15 l -15 -0 l -0 15 l -15 -0 l -0 15 l -15 -0 l 0 -15 l -15 -0 l 0 -15 l -15 -0 l 0 -15 l 15 0 l 0 -15 l -15 -0 l -0 15 l -15 -0 l 0 -15 l -15 -0 l 0 -15 l -15 -0 l 0 -15 l 15 0 l 0 -15 l -15 -0 l -0 15 l -15 -0 l 0 -15 l -15 -0 l 0 -15 l -15 -0 l 0 -15 l 15 0 l 0 -15 l 15 0 l 0 -15 l 15 0 l 0 15 l 15 0 l 0 -15 l -15 -0 l 0 -15 l 15 0 l 0 -15 l -15 -0 l -0 15 l -15 -0 l 0 -15 l -15 -0 l -0 15 l 15 0 l -0 15 l -15 -0 l -0 15 l -15 -0 l -0 15 l -15 -0 l 0 -15 l -15 -0 l 0 -15 l -15 -0 l 0 -15 l 15 0 l 0 -15 l -15 -0 l -0 15 l -15 -0 l 0 -15 l -15 -0 l 0 -15 l -15 -0 l 0 -15 l 15 0 l 0 -15 l -15 -0 l -0 15 l -15 -0 l 0 -15 l -15 -0 l 0 -15 l -15 -0 l 0 -15 l 15 0 l 0 -15 l 15 0 l 0 -15 l 15 0 l 0 15 l 15 0 l 0 -15 l -15 -0 l 0 -15 l 15 0 l 0 -15 l 15 0 l 0 -15 l 15 0 l 0 15 l 15 0 l 0 -15 l -15 -0 l 0 -15 l 15 0 l 0 -15 l 15 0 l 0 -15 l 15 0 l 0 15 l 15 0 l 0 15 l 15 0 l 0 15 l -15 0 l 0 15 l 15 0 l 0 -15 l 15 0 l 0 15 l 15 0 l 0 -15 l -15 -0 l 0 -15 l 15 0 l 0 -15 l -15 -0 l -0 15 l -15 -0 l 0 -15 l -15 -0 l 0 -15 l -15 -0 l 0 -15 l 15 0 l 0 -15 l 15 0 l 0 -15 l 15 0 l 0 15 l 15 0 l 0 -15 l -15 -0 l 0 -15 l 15 0 l 0 -15 l -15 -0 l -0 15 l -15 -0 l 0 -15 l -15 -0 l -0 15 l 15 0 l -0 15 l -15 -0 l -0 15 l -15 -0 l -0 15 l -15 -0 l 0 -15 l -15 -0 l 0 -15 l -15 -0 l 0 -15 l 15 0 l 0 -15 l -15 -0 l -0 15 l -15 -0 l 0 -15 l -15 -0 l -0 15 l 15 0 l -0 15 l -15 -0 l -0 15 l 15 0 l 0 -15 l 15 0 l -0 15 l 15 0 l -0 15 l 15 0 l -0 15 l -15 -0 l -0 15 l -15 -0 l -0 15 l -15 -0 l 0 -15 l -15 -0 l -0 15 l 15 0 l -0 15 l -15 -0 l -0 15 l -15 -0 l -0 15 l -15 -0 l 0 -15 l -15 -0 l -0 15 l 15 0 l -0 15 l -15 -0 l -0 15 l -15 -0 l -0 15 l -15 -0 l 0 -15 l -15 -0 l 0 -15 l -15 -0 l 0 -15 l 15 0 l 0 -15 l -15 -0 l -0 15 l -15 -0 l 0 -15 l -15 -0 l 0 -15 l -15 -0 l 0 -15 l 15 0 l 0 -15 l -15 -0 l -0 15 l -15 -0 l 0 -15 l -15 -0 l 0 -15 l -15 -0 l 0 -15 l 15 0 l 0 -15 l 15 0 l 0 -15 l 15 0 l 0 15 l 15 0 l 0 -15 l -15 -0 l 0 -15 l 15 0 l 0 -15 l -15 -0 l -0 15 l -15 -0 l 0 -15 l -15 -0 l -0 15 l 15 0 l -0 15 l -15 -0 l -0 15 l -15 -0 l -0 15 l -15 -0 l 0 -15 l -15 -0 l 0 -15 l -15 -0 l 0 -15 l 15 0 l 0 -15 l -15 -0 l -0 15 l -15 -0 l 0 -15 l -15 -0 l 0 -15 l -15 -0 l 0 -15 l 15 0 l 0 -15 l -15 -0 l -0 15 l -15 -0 l 0 -15 l -15 -0 l 0 -15 l -15 -0 l 0 -15 l 15 0 l 0 -15 l 15 0 l 0 -15 l 15 0 l 0 15 l 15 0 l 0 -15 l -15 -0 l 0 -15 l 15 0 l 0 -15 l -15 -0 l -0 15 l -15 -0 l 0 -15 l -15 -0 l -0 15 l 15 0 l -0 15 l -15 -0 l -0 15 l -15 -0 l -0 15 l -15 -0 l 0 -15 l -15 -0 l 0 -15 l -15 -0 l 0 -15 l 15 0 l 0 -15 l -15 -0 l -0 15 l -15 -0 l 0 -15 l -15 -0 l 0 -15 l -15 -0 l 0 -15 l 15 0 l 0 -15 l -15 -0 l -0 15 l -15 -0 l 0 -15 l -15 -0 l 0 -15 l -15 -0 l 0 -15 l 15 0 l 0 -15 l 15 0 l 0 -15 l 15 0 l 0 15 l 15 0 l 0 -15 l -15 -0 l 0 -15 l 15 0 l 0 -15 l 15 0 l 0 -15 l 15 0 l 0 15 l 15 0 l 0 -15 l -15 -0 l 0 -15 l 15 0 l 0 -15 l 15 0 l 0 -15 l 15 0 l 0 15 l 15 0 l 0 15 l 15 0 l 0 15 l -15 0 l 0 15 l 15 0 l 0 -15 l 15 0 l 0 15 l 15 0 l 0 -15 l -15 -0 l 0 -15 l 15 0 l 0 -15 l -15 -0 l -0 15 l -15 -0 l 0 -15 l -15 -0 l 0 -15 l -15 -0 l 0 -15 l 15 0 l 0 -15 l 15 0 l 0 -15 l 15 0 l 0 15 l 15 0 l 0 -15 l -15 -0 l 0 -15 l 15 0 l 0 -15 l -15 -0 l -0 15 l -15 -0 l 0 -15 l -15 -0 l -0 15 l 15 0 l -0 15 l -15 -0 l -0 15 l -15 -0 l -0 15 l -15 -0 l 0 -15 l -15 -0 l 0 -15 l -15 -0 l 0 -15 l 15 0 l 0 -15 l -15 -0 l -0 15 l -15 -0 l 0 -15 l -15 -0 l -0 15 l 15 0 l -0 15 l -15 -0 l -0 15 l 15 0 l 0 -15 l 15 0 l -0 15 l 15 0 l -0 15 l 15 0 l -0 15 l -15 -0 l -0 15 l -15 -0 l -0 15 l -15 -0 l 0 -15 l -15 -0 l -0 15 l 15 0 l -0 15 l -15 -0 l -0 15 l -15 -0 l -0 15 l -15 -0 l 0 -15 l -15 -0 l -0 15 l 15 0 l -0 15 l -15 -0 l -0 15 l -15 -0 l -0 15 l -15 -0 l 0 -15 l -15 -0 l 0 -15 l -15 -0 l 0 -15 l 15 0 l 0 -15 l -15 -0 l -0 15 l -15 -0 l 0 -15 l -15 -0 l 0 -15 l -15 -0 l 0 -15 l 15 0 l 0 -15 l -15 -0 l -0 15 l -15 -0 l 0 -15 l -15 -0 l 0 -15 l -15 -0 l 0 -15 l 15 0 l 0 -15 l 15 0 l 0 -15 l 15 0 l 0 15 l 15 0 l 0 -15 l -15 -0 l 0 -15 l 15 0 l 0 -15 l -15 -0 l -0 15 l -15 -0 l 0 -15 l -15 -0 l -0 15 l 15 0 l -0 15 l -15 -0 l -0 15 l -15 -0 l -0 15 l -15 -0 l 0 -15 l -15 -0 l 0 -15 l -15 -0 l 0 -15 l 15 0 l 0 -15 l -15 -0 l -0 15 l -15 -0 l 0 -15 l -15 -0 l 0 -15 l -15 -0 l 0 -15 l 15 0 l 0 -15 l -15 -0 l -0 15 l -15 -0 l 0 -15 l -15 -0 l 0 -15 l -15 -0 l 0 -15 l 15 0 l 0 -15 l 15 0 l 0 -15 l 15 0 l 0 15 l 15 0 l 0 -15 l -15 -0 l 0 -15 l 15 0 l 0 -15 l -15 -0 l -0 15 l -15 -0 l 0 -15 l -15 -0 l -0 15 l 15 0 l -0 15 l -15 -0 l -0 15 l -15 -0 l -0 15 l -15 -0 l 0 -15 l -15 -0 l 0 -15 l -15 -0 l 0 -15 l 15 0 l 0 -15 l -15 -0 l -0 15 l -15 -0 l 0 -15 l -15 -0 l 0 -15 l -15 -0 l 0 -15 l 15 0 l 0 -15 l -15 -0 l -0 15 l -15 -0 l 0 -15 l -15 -0 l 0 -15 l -15 -0 l 0 -15 l 15 0 l 0 -15 l 15 0 l 0 -15 l 15 0 l 0 15 l 15 0 l 0 -15 l -15 -0 l 0 -15 l 15 0 l 0 -15 l 15 0 l 0 -15 l 15 0 l 0 15 l 15 0 l 0 -15 l -15 -0 l 0 -15 l 15 0 l 0 -15 l 15 0 l 0 -15 l 15 0 l 0 15 l 15 0 l 0 15 l 15 0 l 0 15 l -15 0 l 0 15 l 15 0 l 0 -15 l 15 0 l 0 15 l 15 0 l 0 -15 l -15 -0 l 0 -15 l 15 0 l 0 -15 l -15 -0 l -0 15 l -15 -0 l 0 -15 l -15 -0 l 0 -15 l -15 -0 l 0 -15 l 15 0 l 0 -15 l 15 0 l 0 -15 l 15 0 l 0 15 l 15 0 l 0 -15 l -15 -0 l 0 -15 l 15 0 l 0 -15 l 15 0 l 0 -15 l 15 0 l 0 15 l 15 0 l 0 -15 l -15 -0 l 0 -15 l 15 0 l 0 -15 l 15 0 l 0 -15 l 15 0 l 0 15 l 15 0 l 0 15 l 15 0 l 0 15 l -15 0 l 0 15 l 15 0 l 0 -15 l 15 0 l 0 15 l 15 0 l 0 -15 l -15 -0 l 0 -15 l 15 0 l 0 -15 l -15 -0 l -0 15 l -15 -0 l 0 -15 l -15 -0 l 0 -15 l -15 -0 l 0 -15 l 15 0 l 0 -15 l 15 0 l 0 -15 l 15 0 l 0 15 l 15 0 l 0 -15 l -15 -0 l 0 -15 l 15 0 l 0 -15 l 15 0 l 0 -15 l 15 0 l 0 15 l 15 0 l 0 -15 l -15 -0 l 0 -15 l 15 0 l 0 -15 l 15 0 l 0 -15 l 15 0 l 0 15 l 15 0 l 0 15 l 15 0 l 0 15 l -15 0 l 0 15 l 15 0 l 0 -15 l 15 0 l 0 15 l 15 0 l 0 15 l 15 0 l 0 15 l -15 0 l 0 15 l 15 0 l 0 -15 l 15 0 l 0 15 l 15 0 l 0 15 l 15 0 l 0 15 l -15 0 l 0 15 l -15 0 l 0 15 l -15 0 l -0 -15 l -15 0 l 0 15 l 15 0 l 0 15 l -15 0 l 0 15 l 15 0 l 0 -15 l 15 0 l 0 15 l 15 0 l 0 -15 l -15 -0 l 0 -15 l 15 0 l 0 -15 l 15 0 l 0 -15 l 15 0 l 0 15 l 15 0 l 0 15 l 15 0 l 0 15 l -15 0 l 0 15 l 15 0 l 0 -15 l 15 0 l 0 15 l 15 0 l 0 -15 l -15 -0 l 0 -15 l 15 0 l 0 -15 l -15 -0 l -0 15 l -15 -0 l 0 -15 l -15 -0 l 0 -15 l -15 -0 l 0 -15 l 15 0 l 0 -15 l 15 0 l 0 -15 l 15 0 l 0 15 l 15 0 l 0 -15 l -15 -0 l 0 -15 l 15 0 l 0 -15 l -15 -0 l -0 15 l -15 -0 l 0 -15 l -15 -0 l -0 15 l 15 0 l -0 15 l -15 -0 l -0 15 l -15 -0 l -0 15 l -15 -0 l 0 -15 l -15 -0 l 0 -15 l -15 -0 l 0 -15 l 15 0 l 0 -15 l -15 -0 l -0 15 l -15 -0 l 0 -15 l -15 -0 l 0 -15 l -15 -0 l 0 -15 l 15 0 l 0 -15 l -15 -0 l -0 15 l -15 -0 l 0 -15 l -15 -0 l 0 -15 l -15 -0 l 0 -15 l 15 0 l 0 -15 l 15 0 l 0 -15 l 15 0 l 0 15 l 15 0 l 0 -15 l -15 -0 l 0 -15 l 15 0 l 0 -15 l 15 0 l 0 -15 l 15 0 l 0 15 l 15 0 l 0 -15 l -15 -0 l 0 -15 l 15 0 l 0 -15 l 15 0 l 0 -15 l 15 0 l 0 15 l 15 0 l 0 15 l 15 0 l 0 15 l -15 0 l 0 15 l 15 0 l 0 -15 l 15 0 l 0 15 l 15 0 l 0 -15 l -15 -0 l 0 -15 l 15 0 l 0 -15 l -15 -0 l -0 15 l -15 -0 l 0 -15 l -15 -0 l 0 -15 l -15 -0 l 0 -15 l 15 0 l 0 -15 l 15 0 l 0 -15 l 15 0 l 0 15 l 15 0 l 0 -15 l -15 -0 l 0 -15 l 15 0 l 0 -15 l -15 -0 l -0 15 l -15 -0 l 0 -15 l -15 -0 l -0 15 l 15 0 l -0 15 l -15 -0 l -0 15 l -15 -0 l -0 15 l -15 -0 l 0 -15 l -15 -0 l 0 -15 l -15 -0 l 0 -15 l 15 0 l 0 -15 l -15 -0 l -0 15 l -15 -0 l 0 -15 l -15 -0 l -0 15 l 15 0 l -0 15 l -15 -0 l -0 15 l 15 0 l 0 -15 l 15 0 l -0 15 l 15 0 l -0 15 l 15 0 l -0 15 l -15 -0 l -0 15 l -15 -0 l -0 15 l -15 -0 l 0 -15 l -15 -0 l -0 15 l 15 0 l -0 15 l -15 -0 l -0 15 l -15 -0 l -0 15 l -15 -0 l 0 -15 l -15 -0 l -0 15 l 15 0 l -0 15 l -15 -0 l -0 15 l -15 -0 l -0 15 l -15 -0 l 0 -15 l -15 -0 l 0 -15 l -15 -0 l 0 -15 l 15 0 l 0 -15 l -15 -0 l -0 15 l -15 -0 l 0 -15 l -15 -0 l 0 -15 l -15 -0 l 0 -15 l 15 0 l 0 -15 l -15 -0 l -0 15 l -15 -0 l 0 -15 l -15 -0 l 0 -15 l -15 -0 l 0 -15 l 15 0 l 0 -15 l 15 0 l 0 -15 l 15 0 l 0 15 l 15 0 l 0 -15 l -15 -0 l 0 -15 l 15 0 l 0 -15 l -15 -0 l -0 15 l -15 -0 l 0 -15 l -15 -0 l -0 15 l 15 0 l -0 15 l -15 -0 l -0 15 l -15 -0 l -0 15 l -15 -0 l 0 -15 l -15 -0 l 0 -15 l -15 -0 l 0 -15 l 15 0 l 0 -15 l -15 -0 l -0 15 l -15 -0 l 0 -15 l -15 -0 l -0 15 l 15 0 l -0 15 l -15 -0 l -0 15 l 15 0 l 0 -15 l 15 0 l -0 15 l 15 0 l -0 15 l 15 0 l -0 15 l -15 -0 l -0 15 l -15 -0 l -0 15 l -15 -0 l 0 -15 l -15 -0 l -0 15 l 15 0 l -0 15 l -15 -0 l -0 15 l 15 0 l 0 -15 l 15 0 l -0 15 l 15 0 l 0 -15 l -15 -0 l 0 -15 l 15 0 l 0 -15 l 15 0 l 0 -15 l 15 0 l -0 15 l 15 0 l -0 15 l 15 0 l -0 15 l -15 -0 l -0 15 l 15 0 l 0 -15 l 15 0 l -0 15 l 15 0 l -0 15 l 15 0 l -0 15 l -15 -0 l -0 15 l 15 0 l 0 -15 l 15 0 l -0 15 l 15 0 l -0 15 l 15 0 l -0 15 l -15 -0 l -0 15 l -15 -0 l -0 15 l -15 -0 l 0 -15 l -15 -0 l -0 15 l 15 0 l -0 15 l -15 -0 l -0 15 l -15 -0 l -0 15 l -15 -0 l 0 -15 l -15 -0 l -0 15 l 15 0 l -0 15 l -15 -0 l -0 15 l -15 -0 l -0 15 l -15 -0 l 0 -15 l -15 -0 l 0 -15 l -15 -0 l 0 -15 l 15 0 l 0 -15 l -15 -0 l -0 15 l -15 -0 l 0 -15 l -15 -0 l -0 15 l 15 0 l -0 15 l -15 -0 l -0 15 l 15 0 l 0 -15 l 15 0 l -0 15 l 15 0 l -0 15 l 15 0 l -0 15 l -15 -0 l -0 15 l -15 -0 l -0 15 l -15 -0 l 0 -15 l -15 -0 l -0 15 l 15 0 l -0 15 l -15 -0 l -0 15 l -15 -0 l -0 15 l -15 -0 l 0 -15 l -15 -0 l -0 15 l 15 0 l -0 15 l -15 -0 l -0 15 l -15 -0 l -0 15 l -15 -0 l 0 -15 l -15 -0 l 0 -15 l -15 -0 l 0 -15 l 15 0 l 0 -15 l -15 -0 l -0 15 l -15 -0 l 0 -15 l -15 -0 l -0 15 l 15 0 l -0 15 l -15 -0 l -0 15 l 15 0 l 0 -15 l 15 0 l -0 15 l 15 0 l -0 15 l 15 0 l -0 15 l -15 -0 l -0 15 l -15 -0 l -0 15 l -15 -0 l 0 -15 l -15 -0 l -0 15 l 15 0 l -0 15 l -15 -0 l -0 15 l -15 -0 l -0 15 l -15 -0 l 0 -15 l -15 -0 l -0 15 l 15 0 l -0 15 l -15 -0 l -0 15 l -15 -0 l -0 15 l -15 -0 l 0 -15 l -15 -0 l 0 -15 l -15 -0 l 0 -15 l 15 0 l 0 -15 l -15 -0 l -0 15 l -15 -0 l 0 -15 l -15 -0 l 0 -15 l -15 -0 l 0 -15 l 15 0 l 0 -15 l -15 -0 l -0 15 l -15 -0 l 0 -15 l -15 -0 l 0 -15 l -15 -0 l 0 -15 l 15 0 l 0 -15 l 15 0 l 0 -15 l 15 0 l 0 15 l 15 0 l 0 -15 l -15 -0 l 0 -15 l 15 0 l 0 -15 l -15 -0 l -0 15 l -15 -0 l 0 -15 l -15 -0 l -0 15 l 15 0 l -0 15 l -15 -0 l -0 15 l -15 -0 l -0 15 l -15 -0 l 0 -15 l -15 -0 l 0 -15 l -15 -0 l 0 -15 l 15 0 l 0 -15 l -15 -0 l -0 15 l -15 -0 l 0 -15 l -15 -0 l 0 -15 l -15 -0 l 0 -15 l 15 0 l 0 -15 l -15 -0 l -0 15 l -15 -0 l 0 -15 l -15 -0 l 0 -15 l -15 -0 l 0 -15 l 15 0 l 0 -15 l 15 0 l 0 -15 l 15 0 l 0 15 l 15 0 l 0 -15 l -15 -0 l 0 -15 l 15 0 l 0 -15 l -15 -0 l -0 15 l -15 -0 l 0 -15 l -15 -0 l -0 15 l 15 0 l -0 15 l -15 -0 l -0 15 l -15 -0 l -0 15 l -15 -0 l 0 -15 l -15 -0 l 0 -15 l -15 -0 l 0 -15 l 15 0 l 0 -15 l -15 -0 l -0 15 l -15 -0 l 0 -15 l -15 -0 l 0 -15 l -15 -0 l 0 -15 l 15 0 l 0 -15 l -15 -0 l -0 15 l -15 -0 l 0 -15 l -15 -0 l 0 -15 l -15 -0 l 0 -15 l 15 0 l 0 -15 l 15 0 l 0 -15 l 15 0 l 0 15 l 15 0 l 0 -15 l -15 -0 l 0 -15 l 15 0 l 0 -15 l 15 0 l 0 -15 l 15 0 l 0 15 l 15 0 l 0 -15 l -15 -0 l 0 -15 l 15 0 l 0 -15 l 15 0 l 0 -15 l 15 0 l 0 15 l 15 0 l 0 15 l 15 0 l 0 15 l -15 0 l 0 15 l 15 0 l 0 -15 l 15 0 l 0 15 l 15 0 l 0 -15 l -15 -0 l 0 -15 l 15 0 l 0 -15 l -15 -0 l -0 15 l -15 -0 l 0 -15 l -15 -0 l 0 -15 l -15 -0 l 0 -15 l 15 0 l 0 -15 l 15 0 l 0 -15 l 15 0 l 0 15 l 15 0 l 0 -15 l -15 -0 l 0 -15 l 15 0 l 0 -15 l -15 -0 l -0 15 l -15 -0 l 0 -15 l -15 -0 l -0 15 l 15 0 l -0 15 l -15 -0 l -0 15 l -15 -0 l -0 15 l -15 -0 l 0 -15 l -15 -0 l 0 -15 l -15 -0 l 0 -15 l 15 0 l 0 -15 l -15 -0 l -0 15 l -15 -0 l 0 -15 l -15 -0 l -0 15 l 15 0 l -0 15 l -15 -0 l -0 15 l 15 0 l 0 -15 l 15 0 l -0 15 l 15 0 l -0 15 l 15 0 l -0 15 l -15 -0 l -0 15 l -15 -0 l -0 15 l -15 -0 l 0 -15 l -15 -0 l -0 15 l 15 0 l -0 15 l -15 -0 l -0 15 l -15 -0 l -0 15 l -15 -0 l 0 -15 l -15 -0 l -0 15 l 15 0 l -0 15 l -15 -0 l -0 15 l -15 -0 l -0 15 l -15 -0 l 0 -15 l -15 -0 l 0 -15 l -15 -0 l 0 -15 l 15 0 l 0 -15 l -15 -0 l -0 15 l -15 -0 l 0 -15 l -15 -0 l 0 -15 l -15 -0 l 0 -15 l 15 0 l 0 -15 l -15 -0 l -0 15 l -15 -0 l 0 -15 l -15 -0 l 0 -15 l -15 -0 l 0 -15 l 15 0 l 0 -15 l 15 0 l 0 -15 l 15 0 l 0 15 l 15 0 l 0 -15 l -15 -0 l 0 -15 l 15 0 l 0 -15 l -15 -0 l -0 15 l -15 -0 l 0 -15 l -15 -0 l -0 15 l 15 0 l -0 15 l -15 -0 l -0 15 l -15 -0 l -0 15 l -15 -0 l 0 -15 l -15 -0 l 0 -15 l -15 -0 l 0 -15 l 15 0 l 0 -15 l -15 -0 l -0 15 l -15 -0 l 0 -15 l -15 -0 l -0 15 l 15 0 l -0 15 l -15 -0 l -0 15 l 15 0 l 0 -15 l 15 0 l -0 15 l 15 0 l -0 15 l 15 0 l -0 15 l -15 -0 l -0 15 l -15 -0 l -0 15 l -15 -0 l 0 -15 l -15 -0 l -0 15 l 15 0 l -0 15 l -15 -0 l -0 15 l 15 0 l 0 -15 l 15 0 l -0 15 l 15 0 l 0 -15 l -15 -0 l 0 -15 l 15 0 l 0 -15 l 15 0 l 0 -15 l 15 0 l -0 15 l 15 0 l -0 15 l 15 0 l -0 15 l -15 -0 l -0 15 l 15 0 l 0 -15 l 15 0 l -0 15 l 15 0 l -0 15 l 15 0 l -0 15 l -15 -0 l -0 15 l 15 0 l 0 -15 l 15 0 l -0 15 l 15 0 l -0 15 l 15 0 l -0 15 l -15 -0 l -0 15 l -15 -0 l -0 15 l -15 -0 l 0 -15 l -15 -0 l -0 15 l 15 0 l -0 15 l -15 -0 l -0 15 l -15 -0 l -0 15 l -15 -0 l 0 -15 l -15 -0 l -0 15 l 15 0 l -0 15 l -15 -0 l -0 15 l -15 -0 l -0 15 l -15 -0 l 0 -15 l -15 -0 l 0 -15 l -15 -0 l 0 -15 l 15 0 l 0 -15 l -15 -0 l -0 15 l -15 -0 l 0 -15 l -15 -0 l -0 15 l 15 0 l -0 15 l -15 -0 l -0 15 l 15 0 l 0 -15 l 15 0 l -0 15 l 15 0 l -0 15 l 15 0 l -0 15 l -15 -0 l -0 15 l -15 -0 l -0 15 l -15 -0 l 0 -15 l -15 -0 l -0 15 l 15 0 l -0 15 l -15 -0 l -0 15 l 15 0 l 0 -15 l 15 0 l -0 15 l 15 0 l 0 -15 l -15 -0 l 0 -15 l 15 0 l 0 -15 l 15 0 l 0 -15 l 15 0 l -0 15 l 15 0 l -0 15 l 15 0 l -0 15 l -15 -0 l -0 15 l 15 0 l 0 -15 l 15 0 l -0 15 l 15 0 l 0 -15 l -15 -0 l 0 -15 l 15 0 l 0 -15 l -15 -0 l -0 15 l -15 -0 l 0 -15 l -15 -0 l 0 -15 l -15 -0 l 0 -15 l 15 0 l 0 -15 l 15 0 l 0 -15 l 15 0 l -0 15 l 15 0 l 0 -15 l -15 -0 l 0 -15 l 15 0 l 0 -15 l 15 0 l 0 -15 l 15 0 l -0 15 l 15 0 l 0 -15 l -15 -0 l 0 -15 l 15 0 l 0 -15 l 15 0 l 0 -15 l 15 0 l -0 15 l 15 0 l -0 15 l 15 0 l -0 15 l -15 -0 l -0 15 l 15 0 l 0 -15 l 15 0 l -0 15 l 15 0 l -0 15 l 15 0 l -0 15 l -15 -0 l -0 15 l 15 0 l 0 -15 l 15 0 l -0 15 l 15 0 l -0 15 l 15 0 l -0 15 l -15 -0 l -0 15 l -15 -0 l -0 15 l -15 -0 l 0 -15 l -15 -0 l -0 15 l 15 0 l -0 15 l -15 -0 l -0 15 l 15 0 l 0 -15 l 15 0 l -0 15 l 15 0 l 0 -15 l -15 -0 l 0 -15 l 15 0 l 0 -15 l 15 0 l 0 -15 l 15 0 l -0 15 l 15 0 l -0 15 l 15 0 l -0 15 l -15 -0 l -0 15 l 15 0 l 0 -15 l 15 0 l -0 15 l 15 0 l -0 15 l 15 0 l -0 15 l -15 -0 l -0 15 l 15 0 l 0 -15 l 15 0 l -0 15 l 15 0 l -0 15 l 15 0 l -0 15 l -15 -0 l -0 15 l -15 -0 l -0 15 l -15 -0 l 0 -15 l -15 -0 l -0 15 l 15 0 l -0 15 l -15 -0 l -0 15 l 15 0 l 0 -15 l 15 0 l -0 15 l 15 0 l 0 -15 l -15 -0 l 0 -15 l 15 0 l 0 -15 l 15 0 l 0 -15 l 15 0 l -0 15 l 15 0 l -0 15 l 15 0 l -0 15 l -15 -0 l -0 15 l 15 0 l 0 -15 l 15 0 l -0 15 l 15 0 l -0 15 l 15 0 l -0 15 l -15 -0 l -0 15 l 15 0 l 0 -15 l 15 0 l -0 15 l 15 0 l -0 15 l 15 0 l -0 15 l -15 -0 l -0 15 l -15 -0 l -0 15 l -15 -0 l 0 -15 l -15 -0 l -0 15 l 15 0 l -0 15 l -15 -0 l -0 15 l -15 -0 l -0 15 l -15 -0 l 0 -15 l -15 -0 l -0 15 l 15 0 l -0 15 l -15 -0 l -0 15 l -15 -0 l -0 15 l -15 -0 l 0 -15 l -15 -0 l 0 -15 l -15 -0 l 0 -15 l 15 0 l 0 -15 l -15 -0 l -0 15 l -15 -0 l 0 -15 l -15 -0 l -0 15 l 15 0 l -0 15 l -15 -0 l -0 15 l 15 0 l 0 -15 l 15 0 l -0 15 l 15 0 l -0 15 l 15 0 l -0 15 l -15 -0 l -0 15 l -15 -0 l -0 15 l -15 -0 l 0 -15 l -15 -0 l -0 15 l 15 0 l -0 15 l -15 -0 l -0 15 l -15 -0 l -0 15 l -15 -0 l 0 -15 l -15 -0 l -0 15 l 15 0 l -0 15 l -15 -0 l -0 15 l -15 -0 l -0 15 l -15 -0 l 0 -15 l -15 -0 l 0 -15 l -15 -0 l 0 -15 l 15 0 l 0 -15 l -15 -0 l -0 15 l -15 -0 l 0 -15 l -15 -0 l -0 15 l 15 0 l -0 15 l -15 -0 l -0 15 l 15 0 l 0 -15 l 15 0 l -0 15 l 15 0 l -0 15 l 15 0 l -0 15 l -15 -0 l -0 15 l -15 -0 l -0 15 l -15 -0 l 0 -15 l -15 -0 l -0 15 l 15 0 l -0 15 l -15 -0 l -0 15 l -15 -0 l -0 15 l -15 -0 l 0 -15 l -15 -0 l -0 15 l 15 0 l -0 15 l -15 -0 l -0 15 l -15 -0 l -0 15 l -15 -0 l 0 -15 l -15 -0 l 0 -15 l -15 -0 l 0 -15 l 15 0 l 0 -15 l -15 -0 l -0 15 l -15 -0 l 0 -15 l -15 -0 l 0 -15 l -15 -0 l 0 -15 l 15 0 l 0 -15 l -15 -0 l -0 15 l -15 -0 l 0 -15 l -15 -0 l 0 -15 l -15 -0 l 0 -15 l 15 0 l 0 -15 l 15 0 l 0 -15 l 15 0 l 0 15 l 15 0 l 0 -15 l -15 -0 l 0 -15 l 15 0 l 0 -15 l -15 -0 l -0 15 l -15 -0 l 0 -15 l -15 -0 l -0 15 l 15 0 l -0 15 l -15 -0 l -0 15 l -15 -0 l -0 15 l -15 -0 l 0 -15 l -15 -0 l 0 -15 l -15 -0 l 0 -15 l 15 0 l 0 -15 l -15 -0 l -0 15 l -15 -0 l 0 -15 l -15 -0 l -0 15 l 15 0 l -0 15 l -15 -0 l -0 15 l 15 0 l 0 -15 l 15 0 l -0 15 l 15 0 l -0 15 l 15 0 l -0 15 l -15 -0 l -0 15 l -15 -0 l -0 15 l -15 -0 l 0 -15 l -15 -0 l -0 15 l 15 0 l -0 15 l -15 -0 l -0 15 l 15 0 l 0 -15 l 15 0 l -0 15 l 15 0 l 0 -15 l -15 -0 l 0 -15 l 15 0 l 0 -15 l 15 0 l 0 -15 l 15 0 l -0 15 l 15 0 l -0 15 l 15 0 l -0 15 l -15 -0 l -0 15 l 15 0 l 0 -15 l 15 0 l -0 15 l 15 0 l -0 15 l 15 0 l -0 15 l -15 -0 l -0 15 l 15 0 l 0 -15 l 15 0 l -0 15 l 15 0 l -0 15 l 15 0 l -0 15 l -15 -0 l -0 15 l -15 -0 l -0 15 l -15 -0 l 0 -15 l -15 -0 l -0 15 l 15 0 l -0 15 l -15 -0 l -0 15 l -15 -0 l -0 15 l -15 -0 l 0 -15 l -15 -0 l -0 15 l 15 0 l -0 15 l -15 -0 l -0 15 l -15 -0 l -0 15 l -15 -0 l 0 -15 l -15 -0 l 0 -15 l -15 -0 l 0 -15 l 15 0 l 0 -15 l -15 -0 l -0 15 l -15 -0 l 0 -15 l -15 -0 l -0 15 l 15 0 l -0 15 l -15 -0 l -0 15 l 15 0 l 0 -15 l 15 0 l -0 15 l 15 0 l -0 15 l 15 0 l -0 15 l -15 -0 l -0 15 l -15 -0 l -0 15 l -15 -0 l 0 -15 l -15 -0 l -0 15 l 15 0 l -0 15 l -15 -0 l -0 15 l 15 0 l 0 -15 l 15 0 l -0 15 l 15 0 l 0 -15 l -15 -0 l 0 -15 l 15 0 l 0 -15 l 15 0 l 0 -15 l 15 0 l -0 15 l 15 0 l -0 15 l 15 0 l -0 15 l -15 -0 l -0 15 l 15 0 l 0 -15 l 15 0 l -0 15 l 15 0 l 0 -15 l -15 -0 l 0 -15 l 15 0 l 0 -15 l -15 -0 l -0 15 l -15 -0 l 0 -15 l -15 -0 l 0 -15 l -15 -0 l 0 -15 l 15 0 l 0 -15 l 15 0 l 0 -15 l 15 0 l -0 15 l 15 0 l 0 -15 l -15 -0 l 0 -15 l 15 0 l 0 -15 l 15 0 l 0 -15 l 15 0 l -0 15 l 15 0 l 0 -15 l -15 -0 l 0 -15 l 15 0 l 0 -15 l 15 0 l 0 -15 l 15 0 l -0 15 l 15 0 l -0 15 l 15 0 l -0 15 l -15 -0 l -0 15 l 15 0 l 0 -15 l 15 0 l -0 15 l 15 0 l -0 15 l 15 0 l -0 15 l -15 -0 l -0 15 l 15 0 l 0 -15 l 15 0 l -0 15 l 15 0 l -0 15 l 15 0 l -0 15 l -15 -0 l -0 15 l -15 -0 l -0 15 l -15 -0 l 0 -15 l -15 -0 l -0 15 l 15 0 l -0 15 l -15 -0 l -0 15 l 15 0 l 0 -15 l 15 0 l -0 15 l 15 0 l 0 -15 l -15 -0 l 0 -15 l 15 0 l 0 -15 l 15 0 l 0 -15 l 15 0 l -0 15 l 15 0 l -0 15 l 15 0 l -0 15 l -15 -0 l -0 15 l 15 0 l 0 -15 l 15 0 l -0 15 l 15 0 l 0 -15 l -15 -0 l 0 -15 l 15 0 l 0 -15 l -15 -0 l -0 15 l -15 -0 l 0 -15 l -15 -0 l 0 -15 l -15 -0 l 0 -15 l 15 0 l 0 -15 l 15 0 l 0 -15 l 15 0 l -0 15 l 15 0 l 0 -15 l -15 -0 l 0 -15 l 15 0 l 0 -15 l -15 -0 l -0 15 l -15 -0 l 0 -15 l -15 -0 l -0 15 l 15 0 l -0 15 l -15 -0 l -0 15 l -15 -0 l -0 15 l -15 -0 l 0 -15 l -15 -0 l 0 -15 l -15 -0 l 0 -15 l 15 0 l 0 -15 l -15 -0 l -0 15 l -15 -0 l 0 -15 l -15 -0 l 0 -15 l -15 -0 l 0 -15 l 15 0 l 0 -15 l -15 -0 l -0 15 l -15 -0 l 0 -15 l -15 -0 l 0 -15 l -15 -0 l 0 -15 l 15 0 l 0 -15 l 15 0 l 0 -15 l 15 0 l -0 15 l 15 0 l 0 -15 l -15 -0 l 0 -15 l 15 0 l 0 -15 l 15 0 l 0 -15 l 15 0 l -0 15 l 15 0 l 0 -15 l -15 -0 l 0 -15 l 15 0 l 0 -15 l 15 0 l 0 -15 l 15 0 l -0 15 l 15 0 l -0 15 l 15 0 l -0 15 l -15 -0 l -0 15 l 15 0 l 0 -15 l 15 0 l -0 15 l 15 0 l 0 -15 l -15 -0 l 0 -15 l 15 0 l 0 -15 l -15 -0 l -0 15 l -15 -0 l 0 -15 l -15 -0 l 0 -15 l -15 -0 l 0 -15 l 15 0 l 0 -15 l 15 0 l 0 -15 l 15 0 l -0 15 l 15 0 l 0 -15 l -15 -0 l 0 -15 l 15 0 l 0 -15 l 15 0 l 0 -15 l 15 0 l -0 15 l 15 0 l 0 -15 l -15 -0 l 0 -15 l 15 0 l 0 -15 l 15 0 l 0 -15 l 15 0 l -0 15 l 15 0 l -0 15 l 15 0 l -0 15 l -15 -0 l -0 15 l 15 0 l 0 -15 l 15 0 l -0 15 l 15 0 l 0 -15 l -15 -0 l 0 -15 l 15 0 l 0 -15 l -15 -0 l -0 15 l -15 -0 l 0 -15 l -15 -0 l 0 -15 l -15 -0 l 0 -15 l 15 0 l 0 -15 l 15 0 l 0 -15 l 15 0 l -0 15 l 15 0 l 0 -15 l -15 -0 l 0 -15 l 15 0 l 0 -15 l 15 0 l 0 -15 l 15 0 l -0 15 l 15 0 l 0 -15 l -15 -0 l 0 -15 l 15 0 l 0 -15 l 15 0 l 0 -15 l 15 0 l -0 15 l 15 0 l -0 15 l 15 0 l -0 15 l -15 -0 l -0 15 l 15 0 l 0 -15 l 15 0 l -0 15 l 15 0 l -0 15 l 15 0 l -0 15 l -15 -0 l -0 15 l 15 0 l 0 -15 l 15 0 l -0 15 l 15 0 l -0 15 l 15 0 l -0 15 l -15 -0 l -0 15 l -15 -0 l -0 15 l -15 -0 l 0 -15 l -15 -0 l -0 15 l 15 0 l -0 15 l -15 -0 l -0 15 l 15 0 l 0 -15 l 15 0 l -0 15 l 15 0 l 0 -15 l -15 -0 l 0 -15 l 15 0 l 0 -15 l 15 0 l 0 -15 l 15 0 l -0 15 l 15 0 l -0 15 l 15 0 l -0 15 l -15 -0 l -0 15 l 15 0 l 0 -15 l 15 0 l -0 15 l 15 0 l -0 15 l 15 0 l -0 15 l -15 -0 l -0 15 l 15 0 l 0 -15 l 15 0 l -0 15 l 15 0 l -0 15 l 15 0 l -0 15 l -15 -0 l -0 15 l -15 -0 l -0 15 l -15 -0 l 0 -15 l -15 -0 l -0 15 l 15 0 l -0 15 l -15 -0 l -0 15 l 15 0 l 0 -15 l 15 0 l -0 15 l 15 0 l 0 -15 l -15 -0 l 0 -15 l 15 0 l 0 -15 l 15 0 l 0 -15 l 15 0 l -0 15 l 15 0 l -0 15 l 15 0 l -0 15 l -15 -0 l -0 15 l 15 0 l 0 -15 l 15 0 l -0 15 l 15 0 l -0 15 l 15 0 l -0 15 l -15 -0 l -0 15 l 15 0 l 0 -15 l 15 0 l -0 15 l 15 0 l -0 15 l 15 0 l -0 15 l -15 -0 l -0 15 l -15 -0 l -0 15 l -15 -0 l 0 -15 l -15 -0 l -0 15 l 15 0 l -0 15 l -15 -0 l -0 15 l -15 -0 l -0 15 l -15 -0 l 0 -15 l -15 -0 l -0 15 l 15 0 l -0 15 l -15 -0 l -0 15 l -15 -0 l -0 15 l -15 -0 l 0 -15 l -15 -0 l 0 -15 l -15 -0 l 0 -15 l 15 0 l 0 -15 l -15 -0 l -0 15 l -15 -0 l 0 -15 l -15 -0 l -0 15 l 15 0 l -0 15 l -15 -0 l -0 15 l 15 0 l 0 -15 l 15 0 l -0 15 l 15 0 l -0 15 l 15 0 l -0 15 l -15 -0 l -0 15 l -15 -0 l -0 15 l -15 -0 l 0 -15 l -15 -0 l -0 15 l 15 0 l -0 15 l -15 -0 l -0 15 l 15 0 l 0 -15 l 15 0 l -0 15 l 15 0 l 0 -15 l -15 -0 l 0 -15 l 15 0 l 0 -15 l 15 0 l 0 -15 l 15 0 l -0 15 l 15 0 l -0 15 l 15 0 l -0 15 l -15 -0 l -0 15 l 15 0 l 0 -15 l 15 0 l -0 15 l 15 0 l 0 -15 l -15 -0 l 0 -15 l 15 0 l 0 -15 l -15 -0 l -0 15 l -15 -0 l 0 -15 l -15 -0 l 0 -15 l -15 -0 l 0 -15 l 15 0 l 0 -15 l 15 0 l 0 -15 l 15 0 l -0 15 l 15 0 l 0 -15 l -15 -0 l 0 -15 l 15 0 l 0 -15 l 15 0 l 0 -15 l 15 0 l -0 15 l 15 0 l 0 -15 l -15 -0 l 0 -15 l 15 0 l 0 -15 l 15 0 l 0 -15 l 15 0 l -0 15 l 15 0 l -0 15 l 15 0 l -0 15 l -15 -0 l -0 15 l 15 0 l 0 -15 l 15 0 l -0 15 l 15 0 l -0 15 l 15 0 l -0 15 l -15 -0 l -0 15 l 15 0 l 0 -15 l 15 0 l -0 15 l 15 0 l -0 15 l 15 0 l -0 15 l -15 -0 l -0 15 l -15 -0 l -0 15 l -15 -0 l 0 -15 l -15 -0 l -0 15 l 15 0 l -0 15 l -15 -0 l -0 15 l 15 0 l 0 -15 l 15 0 l -0 15 l 15 0 l 0 -15 l -15 -0 l 0 -15 l 15 0 l 0 -15 l 15 0 l 0 -15 l 15 0 l -0 15 l 15 0 l -0 15 l 15 0 l -0 15 l -15 -0 l -0 15 l 15 0 l 0 -15 l 15 0 l -0 15 l 15 0 l -0 15 l 15 0 l -0 15 l -15 -0 l -0 15 l 15 0 l 0 -15 l 15 0 l -0 15 l 15 0 l -0 15 l 15 0 l -0 15 l -15 -0 l -0 15 l -15 -0 l -0 15 l -15 -0 l 0 -15 l -15 -0 l -0 15 l 15 0 l -0 15 l -15 -0 l -0 15 l 15 0 l 0 -15 l 15 0 l -0 15 l 15 0 l 0 -15 l -15 -0 l 0 -15 l 15 0 l 0 -15 l 15 0 l 0 -15 l 15 0 l -0 15 l 15 0 l -0 15 l 15 0 l -0 15 l -15 -0 l -0 15 l 15 0 l 0 -15 l 15 0 l -0 15 l 15 0 l -0 15 l 15 0 l -0 15 l -15 -0 l -0 15 l 15 0 l 0 -15 l 15 0 l -0 15 l 15 0 l -0 15 l 15 0 l -0 15 l -15 -0 l -0 15 l -15 -0 l -0 15 l -15 -0 l 0 -15 l -15 -0 l -0 15 l 15 0 l -0 15 l -15 -0 l -0 15 l -15 -0 l -0 15 l -15 -0 l 0 -15 l -15 -0 l -0 15 l 15 0 l -0 15 l -15 -0 l -0 15 l -15 -0 l -0 15 l -15 -0 l 0 -15 l -15 -0 l 0 -15 l -15 -0 l 0 -15 l 15 0 l 0 -15 l -15 -0 l -0 15 l -15 -0 l 0 -15 l -15 -0 l -0 15 l 15 0 l -0 15 l -15 -0 l -0 15 l 15 0 l 0 -15 l 15 0 l -0 15 l 15 0 l -0 15 l 15 0 l -0 15 l -15 -0 l -0 15 l -15 -0 l -0 15 l -15 -0 l 0 -15 l -15 -0 l -0 15 l 15 0 l -0 15 l -15 -0 l -0 15 l 15 0 l 0 -15 l 15 0 l -0 15 l 15 0 l 0 -15 l -15 -0 l 0 -15 l 15 0 l 0 -15 l 15 0 l 0 -15 l 15 0 l -0 15 l 15 0 l -0 15 l 15 0 l -0 15 l -15 -0 l -0 15 l 15 0 l 0 -15 l 15 0 l -0 15 l 15 0 l 0 -15 l -15 -0 l 0 -15 l 15 0 l 0 -15 l -15 -0 l -0 15 l -15 -0 l 0 -15 l -15 -0 l 0 -15 l -15 -0 l 0 -15 l 15 0 l 0 -15 l 15 0 l 0 -15 l 15 0 l -0 15 l 15 0 l 0 -15 l -15 -0 l 0 -15 l 15 0 l 0 -15 l 15 0 l 0 -15 l 15 0 l -0 15 l 15 0 l 0 -15 l -15 -0 l 0 -15 l 15 0 l 0 -15 l 15 0 l 0 -15 l 15 0 l -0 15 l 15 0 l -0 15 l 15 0 l -0 15 l -15 -0 l -0 15 l 15 0 l 0 -15 l 15 0 l -0 15 l 15 0 l -0 15 l 15 0 l -0 15 l -15 -0 l -0 15 l 15 0 l 0 -15 l 15 0 l -0 15 l 15 0 l -0 15 l 15 0 l -0 15 l -15 -0 l -0 15 l -15 -0 l -0 15 l -15 -0 l 0 -15 l -15 -0 l -0 15 l 15 0 l -0 15 l -15 -0 l -0 15 l 15 0 l 0 -15 l 15 0 l -0 15 l 15 0 l 0 -15 l -15 -0 l 0 -15 l 15 0 l 0 -15 l 15 0 l 0 -15 l 15 0 l -0 15 l 15 0 l -0 15 l 15 0 l -0 15 l -15 -0 l -0 15 l 15 0 l 0 -15 l 15 0 l -0 15 l 15 0 l -0 15 l 15 0 l -0 15 l -15 -0 l -0 15 l 15 0 l 0 -15 l 15 0 l -0 15 l 15 0 l -0 15 l 15 0 l -0 15 l -15 -0 l -0 15 l -15 -0 l -0 15 l -15 -0 l 0 -15 l -15 -0 l -0 15 l 15 0 l -0 15 l -15 -0 l -0 15 l 15 0 l 0 -15 l 15 0 l -0 15 l 15 0 l 0 -15 l -15 -0 l 0 -15 l 15 0 l 0 -15 l 15 0 l 0 -15 l 15 0 l -0 15 l 15 0 l -0 15 l 15 0 l -0 15 l -15 -0 l -0 15 l 15 0 l 0 -15 l 15 0 l -0 15 l 15 0 l -0 15 l 15 0 l -0 15 l -15 -0 l -0 15 l 15 0 l 0 -15 l 15 0 l -0 15 l 15 0 l -0 15 l 15 0 l -0 15 l -15 -0 l -0 15 l -15 -0 l -0 15 l -15 -0 l 0 -15 l -15 -0 l -0 15 l 15 0 l -0 15 l -15 -0 l -0 15 l -15 -0 l -0 15 l -15 -0 l 0 -15 l -15 -0 l -0 15 l 15 0 l -0 15 l -15 -0 l -0 15 l -15 -0 l -0 15 l -15 -0 l 0 -15 l -15 -0 l 0 -15 l -15 -0 l 0 -15 l 15 0 l 0 -15 l -15 -0 l -0 15 l -15 -0 l 0 -15 l -15 -0 l -0 15 l 15 0 l -0 15 l -15 -0 l -0 15 l 15 0 l 0 -15 l 15 0 l -0 15 l 15 0 l -0 15 l 15 0 l -0 15 l -15 -0 l -0 15 l -15 -0 l -0 15 l -15 -0 l 0 -15 l -15 -0 l -0 15 l 15 0 l -0 15 l -15 -0 l -0 15 l -15 -0 l -0 15 l -15 -0 l 0 -15 l -15 -0 l -0 15 l 15 0 l -0 15 l -15 -0 l -0 15 l -15 -0 l -0 15 l -15 -0 l 0 -15 l -15 -0 l 0 -15 l -15 -0 l 0 -15 l 15 0 l 0 -15 l -15 -0 l -0 15 l -15 -0 l 0 -15 l -15 -0 l -0 15 l 15 0 l -0 15 l -15 -0 l -0 15 l 15 0 l 0 -15 l 15 0 l -0 15 l 15 0 l -0 15 l 15 0 l -0 15 l -15 -0 l -0 15 l -15 -0 l -0 15 l -15 -0 l 0 -15 l -15 -0 l -0 15 l 15 0 l -0 15 l -15 -0 l -0 15 l -15 -0 l -0 15 l -15 -0 l 0 -15 l -15 -0 l -0 15 l 15 0 l -0 15 l -15 -0 l -0 15 l -15 -0 l -0 15 l -15 -0 l 0 -15 l -15 -0 l 0 -15 l -15 -0 l 0 -15 l 15 0 l 0 -15 l -15 -0 l -0 15 l -15 -0 l 0 -15 l -15 -0 l 0 -15 l -15 -0 l 0 -15 l 15 0 l 0 -15 l -15 -0 l -0 15 l -15 -0 l 0 -15 l -15 -0 l 0 -15 l -15 -0 l 0 -15 l 15 0 l 0 -15 l 15 0 l 0 -15 l 15 0 l 0 15 l 15 0 l 0 -15 l -15 -0 l 0 -15 l 15 0 l 0 -15 l -15 -0 l -0 15 l -15 -0 l 0 -15 l -15 -0 l -0 15 l 15 0 l -0 15 l -15 -0 l -0 15 l -15 -0 l -0 15 l -15 -0 l 0 -15 l -15 -0 l 0 -15 l -15 -0 l 0 -15 l 15 0 l 0 -15 l -15 -0 l -0 15 l -15 -0 l 0 -15 l -15 -0 l -0 15 l 15 0 l -0 15 l -15 -0 l -0 15 l 15 0 l 0 -15 l 15 0 l -0 15 l 15 0 l -0 15 l 15 0 l -0 15 l -15 -0 l -0 15 l -15 -0 l -0 15 l -15 -0 l 0 -15 l -15 -0 l -0 15 l 15 0 l -0 15 l -15 -0 l -0 15 l 15 0 l 0 -15 l 15 0 l -0 15 l 15 0 l 0 -15 l -15 -0 l 0 -15 l 15 0 l 0 -15 l 15 0 l 0 -15 l 15 0 l -0 15 l 15 0 l -0 15 l 15 0 l -0 15 l -15 -0 l -0 15 l 15 0 l 0 -15 l 15 0 l -0 15 l 15 0 l -0 15 l 15 0 l -0 15 l -15 -0 l -0 15 l 15 0 l 0 -15 l 15 0 l -0 15 l 15 0 l -0 15 l 15 0 l -0 15 l -15 -0 l -0 15 l -15 -0 l -0 15 l -15 -0 l 0 -15 l -15 -0 l -0 15 l 15 0 l -0 15 l -15 -0 l -0 15 l -15 -0 l -0 15 l -15 -0 l 0 -15 l -15 -0 l -0 15 l 15 0 l -0 15 l -15 -0 l -0 15 l -15 -0 l -0 15 l -15 -0 l 0 -15 l -15 -0 l 0 -15 l -15 -0 l 0 -15 l 15 0 l 0 -15 l -15 -0 l -0 15 l -15 -0 l 0 -15 l -15 -0 l -0 15 l 15 0 l -0 15 l -15 -0 l -0 15 l 15 0 l 0 -15 l 15 0 l -0 15 l 15 0 l -0 15 l 15 0 l -0 15 l -15 -0 l -0 15 l -15 -0 l -0 15 l -15 -0 l 0 -15 l -15 -0 l -0 15 l 15 0 l -0 15 l -15 -0 l -0 15 l -15 -0 l -0 15 l -15 -0 l 0 -15 l -15 -0 l -0 15 l 15 0 l -0 15 l -15 -0 l -0 15 l -15 -0 l -0 15 l -15 -0 l 0 -15 l -15 -0 l 0 -15 l -15 -0 l 0 -15 l 15 0 l 0 -15 l -15 -0 l -0 15 l -15 -0 l 0 -15 l -15 -0 l -0 15 l 15 0 l -0 15 l -15 -0 l -0 15 l 15 0 l 0 -15 l 15 0 l -0 15 l 15 0 l -0 15 l 15 0 l -0 15 l -15 -0 l -0 15 l -15 -0 l -0 15 l -15 -0 l 0 -15 l -15 -0 l -0 15 l 15 0 l -0 15 l -15 -0 l -0 15 l -15 -0 l -0 15 l -15 -0 l 0 -15 l -15 -0 l -0 15 l 15 0 l -0 15 l -15 -0 l -0 15 l -15 -0 l -0 15 l -15 -0 l 0 -15 l -15 -0 l 0 -15 l -15 -0 l 0 -15 l 15 0 l 0 -15 l -15 -0 l -0 15 l -15 -0 l 0 -15 l -15 -0 l 0 -15 l -15 -0 l 0 -15 l 15 0 l 0 -15 l -15 -0 l -0 15 l -15 -0 l 0 -15 l -15 -0 l 0 -15 l -15 -0 l 0 -15 l 15 0 l 0 -15 l 15 0 l 0 -15 l 15 0 l 0 15 l 15 0 l 0 -15 l -15 -0 l 0 -15 l 15 0 l 0 -15 l -15 -0 l -0 15 l -15 -0 l 0 -15 l -15 -0 l -0 15 l 15 0 l -0 15 l -15 -0 l -0 15 l -15 -0 l -0 15 l -15 -0 l 0 -15 l -15 -0 l 0 -15 l -15 -0 l 0 -15 l 15 0 l 0 -15 l -15 -0 l -0 15 l -15 -0 l 0 -15 l -15 -0 l -0 15 l 15 0 l -0 15 l -15 -0 l -0 15 l 15 0 l 0 -15 l 15 0 l -0 15 l 15 0 l -0 15 l 15 0 l -0 15 l -15 -0 l -0 15 l -15 -0 l -0 15 l -15 -0 l 0 -15 l -15 -0 l -0 15 l 15 0 l -0 15 l -15 -0 l -0 15 l 15 0 l 0 -15 l 15 0 l -0 15 l 15 0 l 0 -15 l -15 -0 l 0 -15 l 15 0 l 0 -15 l 15 0 l 0 -15 l 15 0 l -0 15 l 15 0 l -0 15 l 15 0 l -0 15 l -15 -0 l -0 15 l 15 0 l 0 -15 l 15 0 l -0 15 l 15 0 l -0 15 l 15 0 l -0 15 l -15 -0 l -0 15 l 15 0 l 0 -15 l 15 0 l -0 15 l 15 0 l -0 15 l 15 0 l -0 15 l -15 -0 l -0 15 l -15 -0 l -0 15 l -15 -0 l 0 -15 l -15 -0 l -0 15 l 15 0 l -0 15 l -15 -0 l -0 15 l -15 -0 l -0 15 l -15 -0 l 0 -15 l -15 -0 l -0 15 l 15 0 l -0 15 l -15 -0 l -0 15 l -15 -0 l -0 15 l -15 -0 l 0 -15 l -15 -0 l 0 -15 l -15 -0 l 0 -15 l 15 0 l 0 -15 l -15 -0 l -0 15 l -15 -0 l 0 -15 l -15 -0 l -0 15 l 15 0 l -0 15 l -15 -0 l -0 15 l 15 0 l 0 -15 l 15 0 l -0 15 l 15 0 l -0 15 l 15 0 l -0 15 l -15 -0 l -0 15 l -15 -0 l -0 15 l -15 -0 l 0 -15 l -15 -0 l -0 15 l 15 0 l -0 15 l -15 -0 l -0 15 l -15 -0 l -0 15 l -15 -0 l 0 -15 l -15 -0 l -0 15 l 15 0 l -0 15 l -15 -0 l -0 15 l -15 -0 l -0 15 l -15 -0 l 0 -15 l -15 -0 l 0 -15 l -15 -0 l 0 -15 l 15 0 l 0 -15 l -15 -0 l -0 15 l -15 -0 l 0 -15 l -15 -0 l -0 15 l 15 0 l -0 15 l -15 -0 l -0 15 l 15 0 l 0 -15 l 15 0 l -0 15 l 15 0 l -0 15 l 15 0 l -0 15 l -15 -0 l -0 15 l -15 -0 l -0 15 l -15 -0 l 0 -15 l -15 -0 l -0 15 l 15 0 l -0 15 l -15 -0 l -0 15 l -15 -0 l -0 15 l -15 -0 l 0 -15 l -15 -0 l -0 15 l 15 0 l -0 15 l -15 -0 l -0 15 l -15 -0 l -0 15 l -15 -0 l 0 -15 l -15 -0 l 0 -15 l -15 -0 l 0 -15 l 15 0 l 0 -15 l -15 -0 l -0 15 l -15 -0 l 0 -15 l -15 -0 l 0 -15 l -15 -0 l 0 -15 l 15 0 l 0 -15 l -15 -0 l -0 15 l -15 -0 l 0 -15 l -15 -0 l 0 -15 l -15 -0 l 0 -15 l 15 0 l 0 -15 l 15 0 l 0 -15 l 15 0 l 0 15 l 15 0 l 0 -15 l -15 -0 l 0 -15 l 15 0 l 0 -15 l -15 -0 l -0 15 l -15 -0 l 0 -15 l -15 -0 l -0 15 l 15 0 l -0 15 l -15 -0 l -0 15 l -15 -0 l -0 15 l -15 -0 l 0 -15 l -15 -0 l 0 -15 l -15 -0 l 0 -15 l 15 0 l 0 -15 l -15 -0 l -0 15 l -15 -0 l 0 -15 l -15 -0 l 0 -15 l -15 -0 l 0 -15 l 15 0 l 0 -15 l -15 -0 l -0 15 l -15 -0 l 0 -15 l -15 -0 l 0 -15 l -15 -0 l 0 -15 l 15 0 l 0 -15 l 15 0 l 0 -15 l 15 0 l 0 15 l 15 0 l 0 -15 l -15 -0 l 0 -15 l 15 0 l 0 -15 l -15 -0 l -0 15 l -15 -0 l 0 -15 l -15 -0 l -0 15 l 15 0 l -0 15 l -15 -0 l -0 15 l -15 -0 l -0 15 l -15 -0 l 0 -15 l -15 -0 l 0 -15 l -15 -0 l 0 -15 l 15 0 l 0 -15 l -15 -0 l -0 15 l -15 -0 l 0 -15 l -15 -0 l 0 -15 l -15 -0 l 0 -15 l 15 0 l 0 -15 l -15 -0 l -0 15 l -15 -0 l 0 -15 l -15 -0 l 0 -15 l -15 -0 l 0 -15 l 15 0 l 0 -15 l 15 0 l 0 -15 l 15 0 l 0 15 l 15 0 l 0 -15 l -15 -0 l 0 -15 l 15 0 l 0 -15 l 15 0 l 0 -15 l 15 0 l 0 15 l 15 0 l 0 -15 l -15 -0 l 0 -15 l 15 0 l 0 -15 l 15 0 l 0 -15 l 15 0 l 0 15 l 15 0 l 0 15 l 15 0 l 0 15 l -15 0 l 0 15 l 15 0 l 0 -15 l 15 0 l 0 15 l 15 0 l 0 -15 l -15 -0 l 0 -15 l 15 0 l 0 -15 l -15 -0 l -0 15 l -15 -0 l 0 -15 l -15 -0 l 0 -15 l -15 -0 l 0 -15 l 15 0 l 0 -15 l 15 0 l 0 -15 l 15 0 l 0 15 l 15 0 l 0 -15 l -15 -0 l 0 -15 l 15 0 l 0 -15 l -15 -0 l -0 15 l -15 -0 l 0 -15 l -15 -0 l -0 15 l 15 0 l -0 15 l -15 -0 l -0 15 l -15 -0 l -0 15 l -15 -0 l 0 -15 l -15 -0 l 0 -15 l -15 -0 l 0 -15 l 15 0 l 0 -15 l -15 -0 l -0 15 l -15 -0 l 0 -15 l -15 -0 l -0 15 l 15 0 l -0 15 l -15 -0 l -0 15 l 15 0 l 0 -15 l 15 0 l -0 15 l 15 0 l -0 15 l 15 0 l -0 15 l -15 -0 l -0 15 l -15 -0 l -0 15 l -15 -0 l 0 -15 l -15 -0 l -0 15 l 15 0 l -0 15 l -15 -0 l -0 15 l -15 -0 l -0 15 l -15 -0 l 0 -15 l -15 -0 l -0 15 l 15 0 l -0 15 l -15 -0 l -0 15 l -15 -0 l -0 15 l -15 -0 l 0 -15 l -15 -0 l 0 -15 l -15 -0 l 0 -15 l 15 0 l 0 -15 l -15 -0 l -0 15 l -15 -0 l 0 -15 l -15 -0 l 0 -15 l -15 -0 l 0 -15 l 15 0 l 0 -15 l -15 -0 l -0 15 l -15 -0 l 0 -15 l -15 -0 l 0 -15 l -15 -0 l 0 -15 l 15 0 l 0 -15 l 15 0 l 0 -15 l 15 0 l 0 15 l 15 0 l 0 -15 l -15 -0 l 0 -15 l 15 0 l 0 -15 l -15 -0 l -0 15 l -15 -0 l 0 -15 l -15 -0 l -0 15 l 15 0 l -0 15 l -15 -0 l -0 15 l -15 -0 l -0 15 l -15 -0 l 0 -15 l -15 -0 l 0 -15 l -15 -0 l 0 -15 l 15 0 l 0 -15 l -15 -0 l -0 15 l -15 -0 l 0 -15 l -15 -0 l -0 15 l 15 0 l -0 15 l -15 -0 l -0 15 l 15 0 l 0 -15 l 15 0 l -0 15 l 15 0 l -0 15 l 15 0 l -0 15 l -15 -0 l -0 15 l -15 -0 l -0 15 l -15 -0 l 0 -15 l -15 -0 l -0 15 l 15 0 l -0 15 l -15 -0 l -0 15 l 15 0 l 0 -15 l 15 0 l -0 15 l 15 0 l 0 -15 l -15 -0 l 0 -15 l 15 0 l 0 -15 l 15 0 l 0 -15 l 15 0 l -0 15 l 15 0 l -0 15 l 15 0 l -0 15 l -15 -0 l -0 15 l 15 0 l 0 -15 l 15 0 l -0 15 l 15 0 l -0 15 l 15 0 l -0 15 l -15 -0 l -0 15 l 15 0 l 0 -15 l 15 0 l -0 15 l 15 0 l -0 15 l 15 0 l -0 15 l -15 -0 l -0 15 l -15 -0 l -0 15 l -15 -0 l 0 -15 l -15 -0 l -0 15 l 15 0 l -0 15 l -15 -0 l -0 15 l -15 -0 l -0 15 l -15 -0 l 0 -15 l -15 -0 l -0 15 l 15 0 l -0 15 l -15 -0 l -0 15 l -15 -0 l -0 15 l -15 -0 l 0 -15 l -15 -0 l 0 -15 l -15 -0 l 0 -15 l 15 0 l 0 -15 l -15 -0 l -0 15 l -15 -0 l 0 -15 l -15 -0 l -0 15 l 15 0 l -0 15 l -15 -0 l -0 15 l 15 0 l 0 -15 l 15 0 l -0 15 l 15 0 l -0 15 l 15 0 l -0 15 l -15 -0 l -0 15 l -15 -0 l -0 15 l -15 -0 l 0 -15 l -15 -0 l -0 15 l 15 0 l -0 15 l -15 -0 l -0 15 l 15 0 l 0 -15 l 15 0 l -0 15 l 15 0 l 0 -15 l -15 -0 l 0 -15 l 15 0 l 0 -15 l 15 0 l 0 -15 l 15 0 l -0 15 l 15 0 l -0 15 l 15 0 l -0 15 l -15 -0 l -0 15 l 15 0 l 0 -15 l 15 0 l -0 15 l 15 0 l 0 -15 l -15 -0 l 0 -15 l 15 0 l 0 -15 l -15 -0 l -0 15 l -15 -0 l 0 -15 l -15 -0 l 0 -15 l -15 -0 l 0 -15 l 15 0 l 0 -15 l 15 0 l 0 -15 l 15 0 l -0 15 l 15 0 l 0 -15 l -15 -0 l 0 -15 l 15 0 l 0 -15 l 15 0 l 0 -15 l 15 0 l -0 15 l 15 0 l 0 -15 l -15 -0 l 0 -15 l 15 0 l 0 -15 l 15 0 l 0 -15 l 15 0 l -0 15 l 15 0 l -0 15 l 15 0 l -0 15 l -15 -0 l -0 15 l 15 0 l 0 -15 l 15 0 l -0 15 l 15 0 l -0 15 l 15 0 l -0 15 l -15 -0 l -0 15 l 15 0 l 0 -15 l 15 0 l -0 15 l 15 0 l -0 15 l 15 0 l -0 15 l -15 -0 l -0 15 l -15 -0 l -0 15 l -15 -0 l 0 -15 l -15 -0 l -0 15 l 15 0 l -0 15 l -15 -0 l -0 15 l 15 0 l 0 -15 l 15 0 l -0 15 l 15 0 l 0 -15 l -15 -0 l 0 -15 l 15 0 l 0 -15 l 15 0 l 0 -15 l 15 0 l -0 15 l 15 0 l -0 15 l 15 0 l -0 15 l -15 -0 l -0 15 l 15 0 l 0 -15 l 15 0 l -0 15 l 15 0 l -0 15 l 15 0 l -0 15 l -15 -0 l -0 15 l 15 0 l 0 -15 l 15 0 l -0 15 l 15 0 l -0 15 l 15 0 l -0 15 l -15 -0 l -0 15 l -15 -0 l -0 15 l -15 -0 l 0 -15 l -15 -0 l -0 15 l 15 0 l -0 15 l -15 -0 l -0 15 l 15 0 l 0 -15 l 15 0 l -0 15 l 15 0 l 0 -15 l -15 -0 l 0 -15 l 15 0 l 0 -15 l 15 0 l 0 -15 l 15 0 l -0 15 l 15 0 l -0 15 l 15 0 l -0 15 l -15 -0 l -0 15 l 15 0 l 0 -15 l 15 0 l -0 15 l 15 0 l -0 15 l 15 0 l -0 15 l -15 -0 l -0 15 l 15 0 l 0 -15 l 15 0 l -0 15 l 15 0 l -0 15 l 15 0 l -0 15 l -15 -0 l -0 15 l -15 -0 l -0 15 l -15 -0 l 0 -15 l -15 -0 l -0 15 l 15 0 l -0 15 l -15 -0 l -0 15 l -15 -0 l -0 15 l -15 -0 l 0 -15 l -15 -0 l -0 15 l 15 0 l -0 15 l -15 -0 l -0 15 l -15 -0 l -0 15 l -15 -0 l 0 -15 l -15 -0 l 0 -15 l -15 -0 l 0 -15 l 15 0 l 0 -15 l -15 -0 l -0 15 l -15 -0 l 0 -15 l -15 -0 l -0 15 l 15 0 l -0 15 l -15 -0 l -0 15 l 15 0 l 0 -15 l 15 0 l -0 15 l 15 0 l -0 15 l 15 0 l -0 15 l -15 -0 l -0 15 l -15 -0 l -0 15 l -15 -0 l 0 -15 l -15 -0 l -0 15 l 15 0 l -0 15 l -15 -0 l -0 15 l -15 -0 l -0 15 l -15 -0 l 0 -15 l -15 -0 l -0 15 l 15 0 l -0 15 l -15 -0 l -0 15 l -15 -0 l -0 15 l -15 -0 l 0 -15 l -15 -0 l 0 -15 l -15 -0 l 0 -15 l 15 0 l 0 -15 l -15 -0 l -0 15 l -15 -0 l 0 -15 l -15 -0 l -0 15 l 15 0 l -0 15 l -15 -0 l -0 15 l 15 0 l 0 -15 l 15 0 l -0 15 l 15 0 l -0 15 l 15 0 l -0 15 l -15 -0 l -0 15 l -15 -0 l -0 15 l -15 -0 l 0 -15 l -15 -0 l -0 15 l 15 0 l -0 15 l -15 -0 l -0 15 l -15 -0 l -0 15 l -15 -0 l 0 -15 l -15 -0 l -0 15 l 15 0 l -0 15 l -15 -0 l -0 15 l -15 -0 l -0 15 l -15 -0 l 0 -15 l -15 -0 l 0 -15 l -15 -0 l 0 -15 l 15 0 l 0 -15 l -15 -0 l -0 15 l -15 -0 l 0 -15 l -15 -0 l 0 -15 l -15 -0 l 0 -15 l 15 0 l 0 -15 l -15 -0 l -0 15 l -15 -0 l 0 -15 l -15 -0 l 0 -15 l -15 -0 l 0 -15 l 15 0 l 0 -15 l 15 0 l 0 -15 l 15 0 l 0 15 l 15 0 l 0 -15 l -15 -0 l 0 -15 l 15 0 l 0 -15 l -15 -0 l -0 15 l -15 -0 l 0 -15 l -15 -0 l -0 15 l 15 0 l -0 15 l -15 -0 l -0 15 l -15 -0 l -0 15 l -15 -0 l 0 -15 l -15 -0 l 0 -15 l -15 -0 l 0 -15 l 15 0 l 0 -15 l -15 -0 l -0 15 l -15 -0 l 0 -15 l -15 -0 l -0 15 l 15 0 l -0 15 l -15 -0 l -0 15 l 15 0 l 0 -15 l 15 0 l -0 15 l 15 0 l -0 15 l 15 0 l -0 15 l -15 -0 l -0 15 l -15 -0 l -0 15 l -15 -0 l 0 -15 l -15 -0 l -0 15 l 15 0 l -0 15 l -15 -0 l -0 15 l 15 0 l 0 -15 l 15 0 l -0 15 l 15 0 l 0 -15 l -15 -0 l 0 -15 l 15 0 l 0 -15 l 15 0 l 0 -15 l 15 0 l -0 15 l 15 0 l -0 15 l 15 0 l -0 15 l -15 -0 l -0 15 l 15 0 l 0 -15 l 15 0 l -0 15 l 15 0 l -0 15 l 15 0 l -0 15 l -15 -0 l -0 15 l 15 0 l 0 -15 l 15 0 l -0 15 l 15 0 l -0 15 l 15 0 l -0 15 l -15 -0 l -0 15 l -15 -0 l -0 15 l -15 -0 l 0 -15 l -15 -0 l -0 15 l 15 0 l -0 15 l -15 -0 l -0 15 l -15 -0 l -0 15 l -15 -0 l 0 -15 l -15 -0 l -0 15 l 15 0 l -0 15 l -15 -0 l -0 15 l -15 -0 l -0 15 l -15 -0 l 0 -15 l -15 -0 l 0 -15 l -15 -0 l 0 -15 l 15 0 l 0 -15 l -15 -0 l -0 15 l -15 -0 l 0 -15 l -15 -0 l -0 15 l 15 0 l -0 15 l -15 -0 l -0 15 l 15 0 l 0 -15 l 15 0 l -0 15 l 15 0 l -0 15 l 15 0 l -0 15 l -15 -0 l -0 15 l -15 -0 l -0 15 l -15 -0 l 0 -15 l -15 -0 l -0 15 l 15 0 l -0 15 l -15 -0 l -0 15" stroke="#4488ff" stroke-width="0.1%" fill="transparent" class="foreground-stroke" />
  </symbol>
  <use href="#turtle-symbol" width="100%" height="100%" transform-origin="50% 50%" />
</svg>