<svg xmlns="http://www.w3.org/2000/svg" width="100%" height="100%">
  <defs>
    <pattern id="turtle-pattern" patternUnits="userSpaceOnUse" width="735.678" height="735.264" transform-origin="50% 50%" patternTransform="scale(0.33)">
      <animateTransform type="scale" values="1.33;0.66;1.33" repeatCount="indefinite" dur="23s" additive="sum" attributeType="XML" attributeName="patternTransform" />
      <animateTransform type="rotate" values="0;360" repeatCount="indefinite" dur="41s" additive="sum" attributeType="XML" attributeName="patternTransform" />
      <animateTransform type="skewX" values="-30;30;-30" repeatCount="indefinite" dur="83s" additive="sum" attributeType="XML" attributeName="patternTransform" />
      <animateTransform type="skewY" values="30;-30;30" repeatCount="indefinite" additive="sum" dur="103s" attributeType="XML" attributeName="patternTransform" />
      <animateTransform type="translate" values="0 0;42 42;0 0" repeatCount="indefinite" additive="sum" dur="117s" attributeType="XML" attributeName="patternTransform" />
      <path id="turtle-path" d="m 267.007 528.54  l 100.832 206.724  l 100.832 -206.724  l 230 0  l -141.611 -181.24  l 100.832 -206.724  l -224.963 47.817  l -141.611 -181.24  l -55.637 223.169  l -224.963 47.817  l 176.18 147.844  l -55.637 223.169  l 210.105 -93.541  l 176.18 147.844  l 8.027 -229.862  l 210.105 -93.541  l -203.067 -107.985  l 8.027 -229.862  l -186.07 135.194  l -203.067 -107.985  l 39.928 226.504  l -186.07 135.194  l 221.099 63.388  l 39.928 226.504  l 153.893 -170.913  l 221.099 63.388  l -86.158 -213.256  l 153.893 -170.913  l -229.448 -16.054  l -86.158 -213.256  l -115 199.18  l -229.448 -16.054  l 128.616 190.67  l -115 199.18  l 227.769 -32.016  l 128.616 190.67  l 71.07 -218.753  l 227.769 -32.016  l -165.439 -159.781  l 71.07 -218.753  l -216.131 78.66  l -165.439 -159.781  l -24.035 228.735  l -216.131 78.66  l 195.04 121.877  l -24.035 228.735  l 195.04 -121.877  l 195.04 121.877  l -24.035 -228.735  l 195.04 -121.877  l -216.131 -78.66  l -24.035 -228.735  l -165.439 159.781  l -216.131 -78.66  l 71.07 218.753  l -165.439 159.781  l 227.769 32.016  l 71.07 218.753  l 128.616 -190.67  l 227.769 32.016  l -115 -199.18  l 128.616 -190.67  l -229.448 16.054  l -115 -199.18  l -86.158 213.256  l -229.448 16.054  l 153.893 170.913  l -86.158 213.256  l 221.099 -63.388  l 153.893 170.913  l 39.928 -226.504  l 221.099 -63.388  l -186.07 -135.194  l 39.928 -226.504  l -203.067 107.985  l -186.07 -135.194  l 8.027 229.862  l -203.067 107.985  l 210.105 93.541  l 8.027 229.862  l 176.18 -147.844  l 210.105 93.541  l -55.637 -223.169  l 176.18 -147.844  l -224.963 -47.817  l -55.637 -223.169  l -141.611 181.24  l -224.963 -47.817  l 100.832 206.724  l -141.611 181.24  l 230 0" stroke="#224488" stroke-width="0.25%" fill="#4488ff" class="foreground-stroke" transform-origin="50% 50%" fill-rule="evenodd" xmlns="http://www.w3.org/2000/svg">
      </path>
    </pattern>
  </defs>
  <rect width="10000%" height="10000%" x="-5000%" y="-5000%" fill="url(#turtle-pattern)" transform-origin="50% 50%" />
</svg>