<svg xmlns="http://www.w3.org/2000/svg" width="100%" height="100%">
  <defs>
    <pattern id="turtle-pattern" patternUnits="userSpaceOnUse" width="1527.66881227575" height="1512" transform-origin="50% 50%" patternTransform="scale(0.33)">
      <animateTransform type="scale" values="0.66;0.33;0.66" repeatCount="indefinite" dur="23s" additive="sum" attributeType="XML" attributeName="patternTransform" />
      <animateTransform type="rotate" values="0;360" repeatCount="indefinite" dur="41s" additive="sum" attributeType="XML" attributeName="patternTransform" />
      <animateTransform type="skewX" values="-30;30;-30" repeatCount="indefinite" dur="83s" additive="sum" attributeType="XML" attributeName="patternTransform" />
      <animateTransform type="skewY" values="30;-30;30" repeatCount="indefinite" additive="sum" dur="103s" attributeType="XML" attributeName="patternTransform" />
      <animateTransform type="translate" values="0 0;42 42;0 0" repeatCount="indefinite" additive="sum" dur="117s" attributeType="XML" attributeName="patternTransform" />
      <path id="turtle-path" d="m 763.834406137874 756  l 36.3730669589464 -21  l 5.14351655641888E-15 -84  l 109.119200876839 -63  l 1.02870331128378E-14 -168  l 181.865334794732 -105  l 218.238401753679 126  l 2.57175827820944E-15 42  l 72.7461339178928 42  l 7.71527483462833E-15 126  l 145.492267835786 84  l 1.28587913910472E-14 210  l -218.238401753679 126  l -36.3730669589464 -21  l -72.7461339178928 42  l -109.119200876839 -63  l -145.492267835786 84  l -181.865334794732 -105  l -4.62916490077699E-14 -252  l 36.3730669589464 21  l 72.7461339178928 -42  l 109.119200876839 62.9999999999999  l 145.492267835786 -84.0000000000001  l 181.865334794732 105  l 7.71527483462833E-14 252  l -36.3730669589464 21  l 2.57175827820944E-14 84  l -109.119200876839 63  l 5.14351655641888E-14 168  l -181.865334794732 105  l -218.238401753678 -126  l -1.80023079474661E-14 -42  l -72.7461339178928 -42.0000000000001  l -5.40069238423983E-14 -126  l -145.492267835786 -84.0000000000001  l -9.00115397373305E-14 -210  l 218.238401753679 -126  l 9.77528117586955E-14 42  l 72.7461339178929 41.9999999999999  l 2.93258435276086E-13 126  l 145.492267835786 83.9999999999998  l 4.88764058793477E-13 210  l -218.238401753679 126  l -36.3730669589465 -21  l -72.7461339178928 42  l -109.119200876839 -62.9999999999999  l -145.492267835786 84  l -181.865334794732 -105  l 2.7790587716704E-13 -252  l 36.3730669589464 -21  l 9.26352923890133E-14 -84  l 109.119200876839 -63  l 1.85270584778027E-13 -168  l 181.865334794732 -105  l 218.238401753678 126  l -36.3730669589464 21  l -8.23482592761755E-14 84  l -109.119200876839 63  l -1.64696518552351E-13 168  l -181.865334794732 105  l -218.238401753679 -126  l 3.60306130816689E-14 -42  l -72.7461339178929 -41.9999999999999  l 1.08091839245007E-13 -126  l -145.492267835786 -83.9999999999998  l 1.80153065408344E-13 -210  l 218.238401753678 -126  l 36.3730669589465 20.9999999999999  l 72.7461339178928 -42  l 109.119200876839 62.9999999999998  l 145.492267835786 -84.0000000000001  l 181.865334794732 105  l 7.09961267906226E-13 252  l -36.3730669589464 -21.0000000000001  l -72.7461339178927 42.0000000000003  l -109.119200876839 -63.0000000000002  l -145.492267835785 84.0000000000006  l -181.865334794732 -105  l 1.54461479812987E-13 -252  l 36.3730669589464 -21  l 5.14871599376623E-14 -84  l 109.119200876839 -63.0000000000001  l 1.02974319875325E-13 -168  l 181.865334794732 -105  l 218.238401753679 126  l 2.7782788560683E-13 42  l 72.7461339178929 41.9999999999999  l 8.33483656820489E-13 126  l 145.492267835786 83.9999999999997  l 1.38913942803415E-12 210  l -218.238401753678 126  l -1.33757427653628E-13 -42  l -72.7461339178929 -41.9999999999999  l -4.01272282960883E-13 -126  l -145.492267835786 -83.9999999999997  l -6.68787138268138E-13 -210  l 218.238401753678 -126.000000000001  l 36.3730669589465 20.9999999999998  l 72.7461339178927 -42.0000000000003  l 109.11920087684 62.9999999999994  l 145.492267835785 -84.0000000000006  l 181.865334794733 104.999999999999  l -6.18781817974469E-14 252  l -36.3730669589464 21  l -2.0626060599149E-14 84  l -109.119200876839 63.0000000000001  l -4.12521211982979E-14 168  l -181.865334794732 105  l -218.238401753679 -126" stroke="currentcolor" stroke-width="0.25%" fill="#4488ff" class="foreground-stroke" transform-origin="50% 50%" fill-rule="evenodd" xmlns="http://www.w3.org/2000/svg">
      </path>
    </pattern>
  </defs>
  <rect width="10000%" height="10000%" x="-5000%" y="-5000%" fill="url(#turtle-pattern)" transform-origin="50% 50%" />
</svg>