<svg xmlns="http://www.w3.org/2000/svg" width="100%" height="100%">
  <defs>
    <pattern id="turtle-pattern" patternUnits="userSpaceOnUse" width="1620" height="1620" transform-origin="50% 50%" patternTransform="scale(0.5)">
      <animateTransform attributeName="patternTransform" attributeType="XML" type="scale" values="0.66;0.33;0.66" dur="19s" repeatCount="indefinite" additive="sum" />
      <animateTransform attributeName="patternTransform" attributeType="XML" type="rotate" from="0" to="360" dur="29s" repeatCount="indefinite" additive="sum" />
      <animateTransform attributeName="patternTransform" attributeType="XML" type="skewX" values="30;-30;30" dur="67s" repeatCount="indefinite" additive="sum" />
      <animateTransform attributeName="patternTransform" attributeType="XML" type="skewY" values="30;-30;30" dur="83s" repeatCount="indefinite" additive="sum" />
      <animateTransform attributeName="patternTransform" attributeType="XML" type="translate" values="0 0;42 42;0 0" dur="103s" repeatCount="indefinite" additive="sum" />
      <path id="turtle-path" d="m 0 1620  l 20 0  l 0 -20  l 20 0  l 0 20  l 20 0  l 0 -20  l -20 -0  l 0 -20  l 20 0  l 0 -20  l 20 0  l 0 -20  l 20 0  l 0 20  l 20 0  l 0 20  l 20 0  l 0 20  l -20 0  l 0 20  l 20 0  l 0 -20  l 20 0  l 0 20  l 20 0  l 0 -20  l -20 -0  l 0 -20  l 20 0  l 0 -20  l -20 -0  l -0 20  l -20 -0  l 0 -20  l -20 -0  l 0 -20  l -20 -0  l 0 -20  l 20 0  l 0 -20  l 20 0  l 0 -20  l 20 0  l 0 20  l 20 0  l 0 -20  l -20 -0  l 0 -20  l 20 0  l 0 -20  l 20 0  l 0 -20  l 20 0  l 0 20  l 20 0  l 0 -20  l -20 -0  l 0 -20  l 20 0  l 0 -20  l 20 0  l 0 -20  l 20 0  l 0 20  l 20 0  l 0 20  l 20 0  l 0 20  l -20 0  l 0 20  l 20 0  l 0 -20  l 20 0  l 0 20  l 20 0  l 0 20  l 20 0  l 0 20  l -20 0  l 0 20  l 20 0  l 0 -20  l 20 0  l 0 20  l 20 0  l 0 20  l 20 0  l 0 20  l -20 0  l 0 20  l -20 0  l 0 20  l -20 0  l -0 -20  l -20 0  l 0 20  l 20 0  l 0 20  l -20 0  l 0 20  l 20 0  l 0 -20  l 20 0  l 0 20  l 20 0  l 0 -20  l -20 -0  l 0 -20  l 20 0  l 0 -20  l 20 0  l 0 -20  l 20 0  l 0 20  l 20 0  l 0 20  l 20 0  l 0 20  l -20 0  l 0 20  l 20 0  l 0 -20  l 20 0  l 0 20  l 20 0  l 0 -20  l -20 -0  l 0 -20  l 20 0  l 0 -20  l -20 -0  l -0 20  l -20 -0  l 0 -20  l -20 -0  l 0 -20  l -20 -0  l 0 -20  l 20 0  l 0 -20  l 20 0  l 0 -20  l 20 0  l 0 20  l 20 0  l 0 -20  l -20 -0  l 0 -20  l 20 0  l 0 -20  l -20 -0  l -0 20  l -20 -0  l 0 -20  l -20 -0  l -0 20  l 20 0  l -0 20  l -20 -0  l -0 20  l -20 -0  l -0 20  l -20 -0  l 0 -20  l -20 -0  l 0 -20  l -20 -0  l 0 -20  l 20 0  l 0 -20  l -20 -0  l -0 20  l -20 -0  l 0 -20  l -20 -0  l 0 -20  l -20 -0  l 0 -20  l 20 0  l 0 -20  l -20 -0  l -0 20  l -20 -0  l 0 -20  l -20 -0  l 0 -20  l -20 -0  l 0 -20  l 20 0  l 0 -20  l 20 0  l 0 -20  l 20 0  l 0 20  l 20 0  l 0 -20  l -20 -0  l 0 -20  l 20 0  l 0 -20  l 20 0  l 0 -20  l 20 0  l 0 20  l 20 0  l 0 -20  l -20 -0  l 0 -20  l 20 0  l 0 -20  l 20 0  l 0 -20  l 20 0  l 0 20  l 20 0  l 0 20  l 20 0  l 0 20  l -20 0  l 0 20  l 20 0  l 0 -20  l 20 0  l 0 20  l 20 0  l 0 -20  l -20 -0  l 0 -20  l 20 0  l 0 -20  l -20 -0  l -0 20  l -20 -0  l 0 -20  l -20 -0  l 0 -20  l -20 -0  l 0 -20  l 20 0  l 0 -20  l 20 0  l 0 -20  l 20 0  l 0 20  l 20 0  l 0 -20  l -20 -0  l 0 -20  l 20 0  l 0 -20  l 20 0  l 0 -20  l 20 0  l 0 20  l 20 0  l 0 -20  l -20 -0  l 0 -20  l 20 0  l 0 -20  l 20 0  l 0 -20  l 20 0  l 0 20  l 20 0  l 0 20  l 20 0  l 0 20  l -20 0  l 0 20  l 20 0  l 0 -20  l 20 0  l 0 20  l 20 0  l 0 -20  l -20 -0  l 0 -20  l 20 0  l 0 -20  l -20 -0  l -0 20  l -20 -0  l 0 -20  l -20 -0  l 0 -20  l -20 -0  l 0 -20  l 20 0  l 0 -20  l 20 0  l 0 -20  l 20 0  l 0 20  l 20 0  l 0 -20  l -20 -0  l 0 -20  l 20 0  l 0 -20  l 20 0  l 0 -20  l 20 0  l 0 20  l 20 0  l 0 -20  l -20 -0  l 0 -20  l 20 0  l 0 -20  l 20 0  l 0 -20  l 20 0  l 0 20  l 20 0  l 0 20  l 20 0  l 0 20  l -20 0  l 0 20  l 20 0  l 0 -20  l 20 0  l 0 20  l 20 0  l 0 20  l 20 0  l 0 20  l -20 0  l 0 20  l 20 0  l 0 -20  l 20 0  l 0 20  l 20 0  l 0 20  l 20 0  l 0 20  l -20 0  l 0 20  l -20 0  l 0 20  l -20 0  l -0 -20  l -20 0  l 0 20  l 20 0  l 0 20  l -20 0  l 0 20  l 20 0  l 0 -20  l 20 0  l 0 20  l 20 0  l 0 -20  l -20 -0  l 0 -20  l 20 0  l 0 -20  l 20 0  l 0 -20  l 20 0  l 0 20  l 20 0  l 0 20  l 20 0  l 0 20  l -20 0  l 0 20  l 20 0  l 0 -20  l 20 0  l 0 20  l 20 0  l 0 20  l 20 0  l 0 20  l -20 0  l 0 20  l 20 0  l 0 -20  l 20 0  l 0 20  l 20 0  l 0 20  l 20 0  l 0 20  l -20 0  l 0 20  l -20 0  l 0 20  l -20 0  l -0 -20  l -20 0  l 0 20  l 20 0  l 0 20  l -20 0  l 0 20  l 20 0  l 0 -20  l 20 0  l 0 20  l 20 0  l 0 -20  l -20 -0  l 0 -20  l 20 0  l 0 -20  l 20 0  l 0 -20  l 20 0  l 0 20  l 20 0  l 0 20  l 20 0  l 0 20  l -20 0  l 0 20  l 20 0  l 0 -20  l 20 0  l 0 20  l 20 0  l 0 20  l 20 0  l 0 20  l -20 0  l 0 20  l 20 0  l 0 -20  l 20 0  l 0 20  l 20 0  l 0 20  l 20 0  l 0 20  l -20 0  l 0 20  l -20 0  l 0 20  l -20 0  l -0 -20  l -20 0  l 0 20  l 20 0  l 0 20  l -20 0  l 0 20  l -20 0  l 0 20  l -20 0  l -0 -20  l -20 0  l 0 20  l 20 0  l 0 20  l -20 0  l 0 20  l -20 0  l 0 20  l -20 0  l -0 -20  l -20 0  l -0 -20  l -20 0  l -0 -20  l 20 -0  l -0 -20  l -20 0  l 0 20  l -20 0  l -0 -20  l -20 0  l 0 20  l 20 0  l 0 20  l -20 0  l 0 20  l 20 0  l 0 -20  l 20 0  l 0 20  l 20 0  l 0 20  l 20 0  l 0 20  l -20 0  l 0 20  l -20 0  l 0 20  l -20 0  l -0 -20  l -20 0  l 0 20  l 20 0  l 0 20  l -20 0  l 0 20  l 20 0  l 0 -20  l 20 0  l 0 20  l 20 0  l 0 -20  l -20 -0  l 0 -20  l 20 0  l 0 -20  l 20 0  l 0 -20  l 20 0  l 0 20  l 20 0  l 0 20  l 20 0  l 0 20  l -20 0  l 0 20  l 20 0  l 0 -20  l 20 0  l 0 20  l 20 0  l 0 -20  l -20 -0  l 0 -20  l 20 0  l 0 -20  l -20 -0  l -0 20  l -20 -0  l 0 -20  l -20 -0  l 0 -20  l -20 -0  l 0 -20  l 20 0  l 0 -20  l 20 0  l 0 -20  l 20 0  l 0 20  l 20 0  l 0 -20  l -20 -0  l 0 -20  l 20 0  l 0 -20  l 20 0  l 0 -20  l 20 0  l 0 20  l 20 0  l 0 -20  l -20 -0  l 0 -20  l 20 0  l 0 -20  l 20 0  l 0 -20  l 20 0  l 0 20  l 20 0  l 0 20  l 20 0  l 0 20  l -20 0  l 0 20  l 20 0  l 0 -20  l 20 0  l 0 20  l 20 0  l 0 20  l 20 0  l 0 20  l -20 0  l 0 20  l 20 0  l 0 -20  l 20 0  l 0 20  l 20 0  l 0 20  l 20 0  l 0 20  l -20 0  l 0 20  l -20 0  l 0 20  l -20 0  l -0 -20  l -20 0  l 0 20  l 20 0  l 0 20  l -20 0  l 0 20  l 20 0  l 0 -20  l 20 0  l 0 20  l 20 0  l 0 -20  l -20 -0  l 0 -20  l 20 0  l 0 -20  l 20 0  l 0 -20  l 20 0  l 0 20  l 20 0  l 0 20  l 20 0  l 0 20  l -20 0  l 0 20  l 20 0  l 0 -20  l 20 0  l 0 20  l 20 0  l 0 -20  l -20 -0  l 0 -20  l 20 0  l 0 -20  l -20 -0  l -0 20  l -20 -0  l 0 -20  l -20 -0  l 0 -20  l -20 -0  l 0 -20  l 20 0  l 0 -20  l 20 0  l 0 -20  l 20 0  l 0 20  l 20 0  l 0 -20  l -20 -0  l 0 -20  l 20 0  l 0 -20  l -20 -0  l -0 20  l -20 -0  l 0 -20  l -20 -0  l -0 20  l 20 0  l -0 20  l -20 -0  l -0 20  l -20 -0  l -0 20  l -20 -0  l 0 -20  l -20 -0  l 0 -20  l -20 -0  l 0 -20  l 20 0  l 0 -20  l -20 -0  l -0 20  l -20 -0  l 0 -20  l -20 -0  l 0 -20  l -20 -0  l 0 -20  l 20 0  l 0 -20  l -20 -0  l -0 20  l -20 -0  l 0 -20  l -20 -0  l 0 -20  l -20 -0  l 0 -20  l 20 0  l 0 -20  l 20 0  l 0 -20  l 20 0  l 0 20  l 20 0  l 0 -20  l -20 -0  l 0 -20  l 20 0  l 0 -20  l 20 0  l 0 -20  l 20 0  l 0 20  l 20 0  l 0 -20  l -20 -0  l 0 -20  l 20 0  l 0 -20  l 20 0  l 0 -20  l 20 0  l 0 20  l 20 0  l 0 20  l 20 0  l 0 20  l -20 0  l 0 20  l 20 0  l 0 -20  l 20 0  l 0 20  l 20 0  l 0 -20  l -20 -0  l 0 -20  l 20 0  l 0 -20  l -20 -0  l -0 20  l -20 -0  l 0 -20  l -20 -0  l 0 -20  l -20 -0  l 0 -20  l 20 0  l 0 -20  l 20 0  l 0 -20  l 20 0  l 0 20  l 20 0  l 0 -20  l -20 -0  l 0 -20  l 20 0  l 0 -20  l -20 -0  l -0 20  l -20 -0  l 0 -20  l -20 -0  l -0 20  l 20 0  l -0 20  l -20 -0  l -0 20  l -20 -0  l -0 20  l -20 -0  l 0 -20  l -20 -0  l 0 -20  l -20 -0  l 0 -20  l 20 0  l 0 -20  l -20 -0  l -0 20  l -20 -0  l 0 -20  l -20 -0  l -0 20  l 20 0  l -0 20  l -20 -0  l -0 20  l 20 0  l 0 -20  l 20 0  l -0 20  l 20 0  l -0 20  l 20 0  l -0 20  l -20 -0  l -0 20  l -20 -0  l -0 20  l -20 -0  l 0 -20  l -20 -0  l -0 20  l 20 0  l -0 20  l -20 -0  l -0 20  l -20 -0  l -0 20  l -20 -0  l 0 -20  l -20 -0  l -0 20  l 20 0  l -0 20  l -20 -0  l -0 20  l -20 -0  l -0 20  l -20 -0  l 0 -20  l -20 -0  l 0 -20  l -20 -0  l 0 -20  l 20 0  l 0 -20  l -20 -0  l -0 20  l -20 -0  l 0 -20  l -20 -0  l 0 -20  l -20 -0  l 0 -20  l 20 0  l 0 -20  l -20 -0  l -0 20  l -20 -0  l 0 -20  l -20 -0  l 0 -20  l -20 -0  l 0 -20  l 20 0  l 0 -20  l 20 0  l 0 -20  l 20 0  l 0 20  l 20 0  l 0 -20  l -20 -0  l 0 -20  l 20 0  l 0 -20  l -20 -0  l -0 20  l -20 -0  l 0 -20  l -20 -0  l -0 20  l 20 0  l -0 20  l -20 -0  l -0 20  l -20 -0  l -0 20  l -20 -0  l 0 -20  l -20 -0  l 0 -20  l -20 -0  l 0 -20  l 20 0  l 0 -20  l -20 -0  l -0 20  l -20 -0  l 0 -20  l -20 -0  l 0 -20  l -20 -0  l 0 -20  l 20 0  l 0 -20  l -20 -0  l -0 20  l -20 -0  l 0 -20  l -20 -0  l 0 -20  l -20 -0  l 0 -20  l 20 0  l 0 -20  l 20 0  l 0 -20  l 20 0  l 0 20  l 20 0  l 0 -20  l -20 -0  l 0 -20  l 20 0  l 0 -20  l -20 -0  l -0 20  l -20 -0  l 0 -20  l -20 -0  l -0 20  l 20 0  l -0 20  l -20 -0  l -0 20  l -20 -0  l -0 20  l -20 -0  l 0 -20  l -20 -0  l 0 -20  l -20 -0  l 0 -20  l 20 0  l 0 -20  l -20 -0  l -0 20  l -20 -0  l 0 -20  l -20 -0  l 0 -20  l -20 -0  l 0 -20  l 20 0  l 0 -20  l -20 -0  l -0 20  l -20 -0  l 0 -20  l -20 -0  l 0 -20  l -20 -0  l 0 -20  l 20 0  l 0 -20  l 20 0  l 0 -20  l 20 0  l 0 20  l 20 0  l 0 -20  l -20 -0  l 0 -20  l 20 0  l 0 -20  l 20 0  l 0 -20  l 20 0  l 0 20  l 20 0  l 0 -20  l -20 -0  l 0 -20  l 20 0  l 0 -20  l 20 0  l 0 -20  l 20 0  l 0 20  l 20 0  l 0 20  l 20 0  l 0 20  l -20 0  l 0 20  l 20 0  l 0 -20  l 20 0  l 0 20  l 20 0  l 0 -20  l -20 -0  l 0 -20  l 20 0  l 0 -20  l -20 -0  l -0 20  l -20 -0  l 0 -20  l -20 -0  l 0 -20  l -20 -0  l 0 -20  l 20 0  l 0 -20  l 20 0  l 0 -20  l 20 0  l 0 20  l 20 0  l 0 -20  l -20 -0  l 0 -20  l 20 0  l 0 -20  l 20 0  l 0 -20  l 20 0  l 0 20  l 20 0  l 0 -20  l -20 -0  l 0 -20  l 20 0  l 0 -20  l 20 0  l 0 -20  l 20 0  l 0 20  l 20 0  l 0 20  l 20 0  l 0 20  l -20 0  l 0 20  l 20 0  l 0 -20  l 20 0  l 0 20  l 20 0  l 0 -20  l -20 -0  l 0 -20  l 20 0  l 0 -20  l -20 -0  l -0 20  l -20 -0  l 0 -20  l -20 -0  l 0 -20  l -20 -0  l 0 -20  l 20 0  l 0 -20  l 20 0  l 0 -20  l 20 0  l 0 20  l 20 0  l 0 -20  l -20 -0  l 0 -20  l 20 0  l 0 -20  l 20 0  l 0 -20  l 20 0  l 0 20  l 20 0  l 0 -20  l -20 -0  l 0 -20  l 20 0  l 0 -20  l 20 0  l 0 -20  l 20 0  l 0 20  l 20 0  l 0 20  l 20 0  l 0 20  l -20 0  l 0 20  l 20 0  l 0 -20  l 20 0  l 0 20  l 20 0  l 0 20  l 20 0  l 0 20  l -20 0  l 0 20  l 20 0  l 0 -20  l 20 0  l 0 20  l 20 0  l 0 20  l 20 0  l 0 20  l -20 0  l 0 20  l -20 0  l 0 20  l -20 0  l -0 -20  l -20 0  l 0 20  l 20 0  l 0 20  l -20 0  l 0 20  l 20 0  l 0 -20  l 20 0  l 0 20  l 20 0  l 0 -20  l -20 -0  l 0 -20  l 20 0  l 0 -20  l 20 0  l 0 -20  l 20 0  l 0 20  l 20 0  l 0 20  l 20 0  l 0 20  l -20 0  l 0 20  l 20 0  l 0 -20  l 20 0  l 0 20  l 20 0  l 0 -20  l -20 -0  l 0 -20  l 20 0  l 0 -20  l -20 -0  l -0 20  l -20 -0  l 0 -20  l -20 -0  l 0 -20  l -20 -0  l 0 -20  l 20 0  l 0 -20  l 20 0  l 0 -20  l 20 0  l 0 20  l 20 0  l 0 -20  l -20 -0  l 0 -20  l 20 0  l 0 -20  l -20 -0  l -0 20  l -20 -0  l 0 -20  l -20 -0  l -0 20  l 20 0  l -0 20  l -20 -0  l -0 20  l -20 -0  l -0 20  l -20 -0  l 0 -20  l -20 -0  l 0 -20  l -20 -0  l 0 -20  l 20 0  l 0 -20  l -20 -0  l -0 20  l -20 -0  l 0 -20  l -20 -0  l 0 -20  l -20 -0  l 0 -20  l 20 0  l 0 -20  l -20 -0  l -0 20  l -20 -0  l 0 -20  l -20 -0  l 0 -20  l -20 -0  l 0 -20  l 20 0  l 0 -20  l 20 0  l 0 -20  l 20 0  l 0 20  l 20 0  l 0 -20  l -20 -0  l 0 -20  l 20 0  l 0 -20  l 20 0  l 0 -20  l 20 0  l 0 20  l 20 0  l 0 -20  l -20 -0  l 0 -20  l 20 0  l 0 -20  l 20 0  l 0 -20  l 20 0  l 0 20  l 20 0  l 0 20  l 20 0  l 0 20  l -20 0  l 0 20  l 20 0  l 0 -20  l 20 0  l 0 20  l 20 0  l 0 -20  l -20 -0  l 0 -20  l 20 0  l 0 -20  l -20 -0  l -0 20  l -20 -0  l 0 -20  l -20 -0  l 0 -20  l -20 -0  l 0 -20  l 20 0  l 0 -20  l 20 0  l 0 -20  l 20 0  l 0 20  l 20 0  l 0 -20  l -20 -0  l 0 -20  l 20 0  l 0 -20  l -20 -0  l -0 20  l -20 -0  l 0 -20  l -20 -0  l -0 20  l 20 0  l -0 20  l -20 -0  l -0 20  l -20 -0  l -0 20  l -20 -0  l 0 -20  l -20 -0  l 0 -20  l -20 -0  l 0 -20  l 20 0  l 0 -20  l -20 -0  l -0 20  l -20 -0  l 0 -20  l -20 -0  l -0 20  l 20 0  l -0 20  l -20 -0  l -0 20  l 20 0  l 0 -20  l 20 0  l -0 20  l 20 0  l -0 20  l 20 0  l -0 20  l -20 -0  l -0 20  l -20 -0  l -0 20  l -20 -0  l 0 -20  l -20 -0  l -0 20  l 20 0  l -0 20  l -20 -0  l -0 20  l -20 -0  l -0 20  l -20 -0  l 0 -20  l -20 -0  l -0 20  l 20 0  l -0 20  l -20 -0  l -0 20  l -20 -0  l -0 20  l -20 -0  l 0 -20  l -20 -0  l 0 -20  l -20 -0  l 0 -20  l 20 0  l 0 -20  l -20 -0  l -0 20  l -20 -0  l 0 -20  l -20 -0  l 0 -20  l -20 -0  l 0 -20  l 20 0  l 0 -20  l -20 -0  l -0 20  l -20 -0  l 0 -20  l -20 -0  l 0 -20  l -20 -0  l 0 -20  l 20 0  l 0 -20  l 20 0  l 0 -20  l 20 0  l 0 20  l 20 0  l 0 -20  l -20 -0  l 0 -20  l 20 0  l 0 -20  l -20 -0  l -0 20  l -20 -0  l 0 -20  l -20 -0  l -0 20  l 20 0  l -0 20  l -20 -0  l -0 20  l -20 -0  l -0 20  l -20 -0  l 0 -20  l -20 -0  l 0 -20  l -20 -0  l 0 -20  l 20 0  l 0 -20  l -20 -0  l -0 20  l -20 -0  l 0 -20  l -20 -0  l -0 20  l 20 0  l -0 20  l -20 -0  l -0 20  l 20 0  l 0 -20  l 20 0  l -0 20  l 20 0  l -0 20  l 20 0  l -0 20  l -20 -0  l -0 20  l -20 -0  l -0 20  l -20 -0  l 0 -20  l -20 -0  l -0 20  l 20 0  l -0 20  l -20 -0  l -0 20  l 20 0  l 0 -20  l 20 0  l -0 20  l 20 0  l 0 -20  l -20 -0  l 0 -20  l 20 0  l 0 -20  l 20 0  l 0 -20  l 20 0  l -0 20  l 20 0  l -0 20  l 20 0  l -0 20  l -20 -0  l -0 20  l 20 0  l 0 -20  l 20 0  l -0 20  l 20 0  l -0 20  l 20 0  l -0 20  l -20 -0  l -0 20  l 20 0  l 0 -20  l 20 0  l -0 20  l 20 0  l -0 20  l 20 0  l -0 20  l -20 -0  l -0 20  l -20 -0  l -0 20  l -20 -0  l 0 -20  l -20 -0  l -0 20  l 20 0  l -0 20  l -20 -0  l -0 20  l -20 -0  l -0 20  l -20 -0  l 0 -20  l -20 -0  l -0 20  l 20 0  l -0 20  l -20 -0  l -0 20  l -20 -0  l -0 20  l -20 -0  l 0 -20  l -20 -0  l 0 -20  l -20 -0  l 0 -20  l 20 0  l 0 -20  l -20 -0  l -0 20  l -20 -0  l 0 -20  l -20 -0  l -0 20  l 20 0  l -0 20  l -20 -0  l -0 20  l 20 0  l 0 -20  l 20 0  l -0 20  l 20 0  l -0 20  l 20 0  l -0 20  l -20 -0  l -0 20  l -20 -0  l -0 20  l -20 -0  l 0 -20  l -20 -0  l -0 20  l 20 0  l -0 20  l -20 -0  l -0 20  l -20 -0  l -0 20  l -20 -0  l 0 -20  l -20 -0  l -0 20  l 20 0  l -0 20  l -20 -0  l -0 20  l -20 -0  l -0 20  l -20 -0  l 0 -20  l -20 -0  l 0 -20  l -20 -0  l 0 -20  l 20 0  l 0 -20  l -20 -0  l -0 20  l -20 -0  l 0 -20  l -20 -0  l -0 20  l 20 0  l -0 20  l -20 -0  l -0 20  l 20 0  l 0 -20  l 20 0  l -0 20  l 20 0  l -0 20  l 20 0  l -0 20  l -20 -0  l -0 20  l -20 -0  l -0 20  l -20 -0  l 0 -20  l -20 -0  l -0 20  l 20 0  l -0 20  l -20 -0  l -0 20  l -20 -0  l -0 20  l -20 -0  l 0 -20  l -20 -0  l -0 20  l 20 0  l -0 20  l -20 -0  l -0 20  l -20 -0  l -0 20  l -20 -0  l 0 -20  l -20 -0  l 0 -20  l -20 -0  l 0 -20  l 20 0  l 0 -20  l -20 -0  l -0 20  l -20 -0  l 0 -20  l -20 -0  l 0 -20  l -20 -0  l 0 -20  l 20 0  l 0 -20  l -20 -0  l -0 20  l -20 -0  l 0 -20  l -20 -0  l 0 -20  l -20 -0  l 0 -20  l 20 0  l 0 -20  l 20 0  l 0 -20  l 20 0  l 0 20  l 20 0  l 0 -20  l -20 -0  l 0 -20  l 20 0  l 0 -20  l -20 -0  l -0 20  l -20 -0  l 0 -20  l -20 -0  l -0 20  l 20 0  l -0 20  l -20 -0  l -0 20  l -20 -0  l -0 20  l -20 -0  l 0 -20  l -20 -0  l 0 -20  l -20 -0  l 0 -20  l 20 0  l 0 -20  l -20 -0  l -0 20  l -20 -0  l 0 -20  l -20 -0  l 0 -20  l -20 -0  l 0 -20  l 20 0  l 0 -20  l -20 -0  l -0 20  l -20 -0  l 0 -20  l -20 -0  l 0 -20  l -20 -0  l 0 -20  l 20 0  l 0 -20  l 20 0  l 0 -20  l 20 0  l 0 20  l 20 0  l 0 -20  l -20 -0  l 0 -20  l 20 0  l 0 -20  l -20 -0  l -0 20  l -20 -0  l 0 -20  l -20 -0  l -0 20  l 20 0  l -0 20  l -20 -0  l -0 20  l -20 -0  l -0 20  l -20 -0  l 0 -20  l -20 -0  l 0 -20  l -20 -0  l 0 -20  l 20 0  l 0 -20  l -20 -0  l -0 20  l -20 -0  l 0 -20  l -20 -0  l 0 -20  l -20 -0  l 0 -20  l 20 0  l 0 -20  l -20 -0  l -0 20  l -20 -0  l 0 -20  l -20 -0  l 0 -20  l -20 -0  l 0 -20  l 20 0  l 0 -20  l 20 0  l 0 -20  l 20 0  l 0 20  l 20 0  l 0 -20  l -20 -0  l 0 -20  l 20 0  l 0 -20  l 20 0  l 0 -20  l 20 0  l 0 20  l 20 0  l 0 -20  l -20 -0  l 0 -20  l 20 0  l 0 -20  l 20 0  l 0 -20  l 20 0  l 0 20  l 20 0  l 0 20  l 20 0  l 0 20  l -20 0  l 0 20  l 20 0  l 0 -20  l 20 0  l 0 20  l 20 0  l 0 -20  l -20 -0  l 0 -20  l 20 0  l 0 -20  l -20 -0  l -0 20  l -20 -0  l 0 -20  l -20 -0  l 0 -20  l -20 -0  l 0 -20  l 20 0  l 0 -20  l 20 0  l 0 -20  l 20 0  l 0 20  l 20 0  l 0 -20  l -20 -0  l 0 -20  l 20 0  l 0 -20  l -20 -0  l -0 20  l -20 -0  l 0 -20  l -20 -0  l -0 20  l 20 0  l -0 20  l -20 -0  l -0 20  l -20 -0  l -0 20  l -20 -0  l 0 -20  l -20 -0  l 0 -20  l -20 -0  l 0 -20  l 20 0  l 0 -20  l -20 -0  l -0 20  l -20 -0  l 0 -20  l -20 -0  l -0 20  l 20 0  l -0 20  l -20 -0  l -0 20  l 20 0  l 0 -20  l 20 0  l -0 20  l 20 0  l -0 20  l 20 0  l -0 20  l -20 -0  l -0 20  l -20 -0  l -0 20  l -20 -0  l 0 -20  l -20 -0  l -0 20  l 20 0  l -0 20  l -20 -0  l -0 20  l -20 -0  l -0 20  l -20 -0  l 0 -20  l -20 -0  l -0 20  l 20 0  l -0 20  l -20 -0  l -0 20  l -20 -0  l -0 20  l -20 -0  l 0 -20  l -20 -0  l 0 -20  l -20 -0  l 0 -20  l 20 0  l 0 -20  l -20 -0  l -0 20  l -20 -0  l 0 -20  l -20 -0  l 0 -20  l -20 -0  l 0 -20  l 20 0  l 0 -20  l -20 -0  l -0 20  l -20 -0  l 0 -20  l -20 -0  l 0 -20  l -20 -0  l 0 -20  l 20 0  l 0 -20  l 20 0  l 0 -20  l 20 0  l 0 20  l 20 0  l 0 -20  l -20 -0  l 0 -20  l 20 0  l 0 -20  l -20 -0  l -0 20  l -20 -0  l 0 -20  l -20 -0  l -0 20  l 20 0  l -0 20  l -20 -0  l -0 20  l -20 -0  l -0 20  l -20 -0  l 0 -20  l -20 -0  l 0 -20  l -20 -0  l 0 -20  l 20 0  l 0 -20  l -20 -0  l -0 20  l -20 -0  l 0 -20  l -20 -0  l -0 20  l 20 0  l -0 20  l -20 -0  l -0 20  l 20 0  l 0 -20  l 20 0  l -0 20  l 20 0  l -0 20  l 20 0  l -0 20  l -20 -0  l -0 20  l -20 -0  l -0 20  l -20 -0  l 0 -20  l -20 -0  l -0 20  l 20 0  l -0 20  l -20 -0  l -0 20  l 20 0  l 0 -20  l 20 0  l -0 20  l 20 0  l 0 -20  l -20 -0  l 0 -20  l 20 0  l 0 -20  l 20 0  l 0 -20  l 20 0  l -0 20  l 20 0  l -0 20  l 20 0  l -0 20  l -20 -0  l -0 20  l 20 0  l 0 -20  l 20 0  l -0 20  l 20 0  l -0 20  l 20 0  l -0 20  l -20 -0  l -0 20  l 20 0  l 0 -20  l 20 0  l -0 20  l 20 0  l -0 20  l 20 0  l -0 20  l -20 -0  l -0 20  l -20 -0  l -0 20  l -20 -0  l 0 -20  l -20 -0  l -0 20  l 20 0  l -0 20  l -20 -0  l -0 20  l -20 -0  l -0 20  l -20 -0  l 0 -20  l -20 -0  l -0 20  l 20 0  l -0 20  l -20 -0  l -0 20  l -20 -0  l -0 20  l -20 -0  l 0 -20  l -20 -0  l 0 -20  l -20 -0  l 0 -20  l 20 0  l 0 -20  l -20 -0  l -0 20  l -20 -0  l 0 -20  l -20 -0  l -0 20  l 20 0  l -0 20  l -20 -0  l -0 20  l 20 0  l 0 -20  l 20 0  l -0 20  l 20 0  l -0 20  l 20 0  l -0 20  l -20 -0  l -0 20  l -20 -0  l -0 20  l -20 -0  l 0 -20  l -20 -0  l -0 20  l 20 0  l -0 20  l -20 -0  l -0 20  l 20 0  l 0 -20  l 20 0  l -0 20  l 20 0  l 0 -20  l -20 -0  l 0 -20  l 20 0  l 0 -20  l 20 0  l 0 -20  l 20 0  l -0 20  l 20 0  l -0 20  l 20 0  l -0 20  l -20 -0  l -0 20  l 20 0  l 0 -20  l 20 0  l -0 20  l 20 0  l 0 -20  l -20 -0  l 0 -20  l 20 0  l 0 -20  l -20 -0  l -0 20  l -20 -0  l 0 -20  l -20 -0  l 0 -20  l -20 -0  l 0 -20  l 20 0  l 0 -20  l 20 0  l 0 -20  l 20 0  l -0 20  l 20 0  l 0 -20  l -20 -0  l 0 -20  l 20 0  l 0 -20  l 20 0  l 0 -20  l 20 0  l -0 20  l 20 0  l 0 -20  l -20 -0  l 0 -20  l 20 0  l 0 -20  l 20 0  l 0 -20  l 20 0  l -0 20  l 20 0  l -0 20  l 20 0  l -0 20  l -20 -0  l -0 20  l 20 0  l 0 -20  l 20 0  l -0 20  l 20 0  l -0 20  l 20 0  l -0 20  l -20 -0  l -0 20  l 20 0  l 0 -20  l 20 0  l -0 20  l 20 0  l -0 20  l 20 0  l -0 20  l -20 -0  l -0 20  l -20 -0  l -0 20  l -20 -0  l 0 -20  l -20 -0  l -0 20  l 20 0  l -0 20  l -20 -0  l -0 20  l 20 0  l 0 -20  l 20 0  l -0 20  l 20 0  l 0 -20  l -20 -0  l 0 -20  l 20 0  l 0 -20  l 20 0  l 0 -20  l 20 0  l -0 20  l 20 0  l -0 20  l 20 0  l -0 20  l -20 -0  l -0 20  l 20 0  l 0 -20  l 20 0  l -0 20  l 20 0  l -0 20  l 20 0  l -0 20  l -20 -0  l -0 20  l 20 0  l 0 -20  l 20 0  l -0 20  l 20 0  l -0 20  l 20 0  l -0 20  l -20 -0  l -0 20  l -20 -0  l -0 20  l -20 -0  l 0 -20  l -20 -0  l -0 20  l 20 0  l -0 20  l -20 -0  l -0 20  l 20 0  l 0 -20  l 20 0  l -0 20  l 20 0  l 0 -20  l -20 -0  l 0 -20  l 20 0  l 0 -20  l 20 0  l 0 -20  l 20 0  l -0 20  l 20 0  l -0 20  l 20 0  l -0 20  l -20 -0  l -0 20  l 20 0  l 0 -20  l 20 0  l -0 20  l 20 0  l -0 20  l 20 0  l -0 20  l -20 -0  l -0 20  l 20 0  l 0 -20  l 20 0  l -0 20  l 20 0  l -0 20  l 20 0  l -0 20  l -20 -0  l -0 20  l -20 -0  l -0 20  l -20 -0  l 0 -20  l -20 -0  l -0 20  l 20 0  l -0 20  l -20 -0  l -0 20  l -20 -0  l -0 20  l -20 -0  l 0 -20  l -20 -0  l -0 20  l 20 0  l -0 20  l -20 -0  l -0 20  l -20 -0  l -0 20  l -20 -0  l 0 -20  l -20 -0  l 0 -20  l -20 -0  l 0 -20  l 20 0  l 0 -20  l -20 -0  l -0 20  l -20 -0  l 0 -20  l -20 -0  l -0 20  l 20 0  l -0 20  l -20 -0  l -0 20  l 20 0  l 0 -20  l 20 0  l -0 20  l 20 0  l -0 20  l 20 0  l -0 20  l -20 -0  l -0 20  l -20 -0  l -0 20  l -20 -0  l 0 -20  l -20 -0  l -0 20  l 20 0  l -0 20  l -20 -0  l -0 20  l -20 -0  l -0 20  l -20 -0  l 0 -20  l -20 -0  l -0 20  l 20 0  l -0 20  l -20 -0  l -0 20  l -20 -0  l -0 20  l -20 -0  l 0 -20  l -20 -0  l 0 -20  l -20 -0  l 0 -20  l 20 0  l 0 -20  l -20 -0  l -0 20  l -20 -0  l 0 -20  l -20 -0  l -0 20  l 20 0  l -0 20  l -20 -0  l -0 20  l 20 0  l 0 -20  l 20 0  l -0 20  l 20 0  l -0 20  l 20 0  l -0 20  l -20 -0  l -0 20  l -20 -0  l -0 20  l -20 -0  l 0 -20  l -20 -0  l -0 20  l 20 0  l -0 20  l -20 -0  l -0 20  l -20 -0  l -0 20  l -20 -0  l 0 -20  l -20 -0  l -0 20  l 20 0  l -0 20  l -20 -0  l -0 20  l -20 -0  l -0 20  l -20 -0  l 0 -20  l -20 -0  l 0 -20  l -20 -0  l 0 -20  l 20 0  l 0 -20  l -20 -0  l -0 20  l -20 -0  l 0 -20  l -20 -0  l 0 -20  l -20 -0  l 0 -20  l 20 0  l 0 -20  l -20 -0  l -0 20  l -20 -0  l 0 -20  l -20 -0  l 0 -20  l -20 -0  l 0 -20  l 20 0  l 0 -20  l 20 0  l 0 -20  l 20 0  l 0 20  l 20 0  l 0 -20  l -20 -0  l 0 -20  l 20 0  l 0 -20  l -20 -0  l -0 20  l -20 -0  l 0 -20  l -20 -0  l -0 20  l 20 0  l -0 20  l -20 -0  l -0 20  l -20 -0  l -0 20  l -20 -0  l 0 -20  l -20 -0  l 0 -20  l -20 -0  l 0 -20  l 20 0  l 0 -20  l -20 -0  l -0 20  l -20 -0  l 0 -20  l -20 -0  l -0 20  l 20 0  l -0 20  l -20 -0  l -0 20  l 20 0  l 0 -20  l 20 0  l -0 20  l 20 0  l -0 20  l 20 0  l -0 20  l -20 -0  l -0 20  l -20 -0  l -0 20  l -20 -0  l 0 -20  l -20 -0  l -0 20  l 20 0  l -0 20  l -20 -0  l -0 20  l 20 0  l 0 -20  l 20 0  l -0 20  l 20 0  l 0 -20  l -20 -0  l 0 -20  l 20 0  l 0 -20  l 20 0  l 0 -20  l 20 0  l -0 20  l 20 0  l -0 20  l 20 0  l -0 20  l -20 -0  l -0 20  l 20 0  l 0 -20  l 20 0  l -0 20  l 20 0  l -0 20  l 20 0  l -0 20  l -20 -0  l -0 20  l 20 0  l 0 -20  l 20 0  l -0 20  l 20 0  l -0 20  l 20 0  l -0 20  l -20 -0  l -0 20  l -20 -0  l -0 20  l -20 -0  l 0 -20  l -20 -0  l -0 20  l 20 0  l -0 20  l -20 -0  l -0 20  l -20 -0  l -0 20  l -20 -0  l 0 -20  l -20 -0  l -0 20  l 20 0  l -0 20  l -20 -0  l -0 20  l -20 -0  l -0 20  l -20 -0  l 0 -20  l -20 -0  l 0 -20  l -20 -0  l 0 -20  l 20 0  l 0 -20  l -20 -0  l -0 20  l -20 -0  l 0 -20  l -20 -0  l -0 20  l 20 0  l -0 20  l -20 -0  l -0 20  l 20 0  l 0 -20  l 20 0  l -0 20  l 20 0  l -0 20  l 20 0  l -0 20  l -20 -0  l -0 20  l -20 -0  l -0 20  l -20 -0  l 0 -20  l -20 -0  l -0 20  l 20 0  l -0 20  l -20 -0  l -0 20" stroke="currentcolor" stroke-width="0.25%" fill="#4488ff" class="foreground-stroke" transform-origin="50% 50%" data-l-order="4" data-l-axiom="F-F-F-F" data-l-rules="{   &quot;F&quot;: &quot;F-F+F+F-F&quot; }" data-l-expanded="F-F+F+F-F-F-F+F+F-F+F-F+F+F-F+F-F+F+F-F-F-F+F+F-F-F-F+F+F-F-F-F+F+F-F+F-F+F+F-F+F-F+F+F-F-F-F+F+F-F+F-F+F+F-F-F-F+F+F-F+F-F+F+F-F+F-F+F+F-F-F-F+F+F-F+F-F+F+F-F-F-F+F+F-F+F-F+F+F-F+F-F+F+F-F-F-F+F+F-F-F-F+F+F-F-F-F+F+F-F+F-F+F+F-F+F-F+F+F-F-F-F+F+F-F-F-F+F+F-F-F-F+F+F-F+F-F+F+F-F+F-F+F+F-F-F-F+F+F-F-F-F+F+F-F-F-F+F+F-F+F-F+F+F-F+F-F+F+F-F-F-F+F+F-F+F-F+F+F-F-F-F+F+F-F+F-F+F+F-F+F-F+F+F-F-F-F+F+F-F+F-F+F+F-F-F-F+F+F-F+F-F+F+F-F+F-F+F+F-F-F-F+F+F-F-F-F+F+F-F-F-F+F+F-F+F-F+F+F-F+F-F+F+F-F-F-F+F+F-F+F-F+F+F-F-F-F+F+F-F+F-F+F+F-F+F-F+F+F-F-F-F+F+F-F-F-F+F+F-F-F-F+F+F-F+F-F+F+F-F+F-F+F+F-F-F-F+F+F-F+F-F+F+F-F-F-F+F+F-F+F-F+F+F-F+F-F+F+F-F-F-F+F+F-F+F-F+F+F-F-F-F+F+F-F+F-F+F+F-F+F-F+F+F-F-F-F+F+F-F-F-F+F+F-F-F-F+F+F-F+F-F+F+F-F+F-F+F+F-F-F-F+F+F-F+F-F+F+F-F-F-F+F+F-F+F-F+F+F-F+F-F+F+F-F-F-F+F+F-F-F-F+F+F-F-F-F+F+F-F+F-F+F+F-F+F-F+F+F-F-F-F+F+F-F+F-F+F+F-F-F-F+F+F-F+F-F+F+F-F+F-F+F+F-F-F-F+F+F-F+F-F+F+F-F-F-F+F+F-F+F-F+F+F-F+F-F+F+F-F-F-F+F+F-F-F-F+F+F-F-F-F+F+F-F+F-F+F+F-F+F-F+F+F-F-F-F+F+F-F-F-F+F+F-F-F-F+F+F-F+F-F+F+F-F+F-F+F+F-F-F-F+F+F-F-F-F+F+F-F-F-F+F+F-F+F-F+F+F-F+F-F+F+F-F-F-F+F+F-F+F-F+F+F-F-F-F+F+F-F+F-F+F+F-F+F-F+F+F-F-F-F+F+F-F+F-F+F+F-F-F-F+F+F-F+F-F+F+F-F+F-F+F+F-F-F-F+F+F-F-F-F+F+F-F-F-F+F+F-F+F-F+F+F-F+F-F+F+F-F-F-F+F+F-F-F-F+F+F-F-F-F+F+F-F+F-F+F+F-F+F-F+F+F-F-F-F+F+F-F-F-F+F+F-F-F-F+F+F-F+F-F+F+F-F+F-F+F+F-F-F-F+F+F-F+F-F+F+F-F-F-F+F+F-F+F-F+F+F-F+F-F+F+F-F-F-F+F+F-F+F-F+F+F-F-F-F+F+F-F+F-F+F+F-F+F-F+F+F-F-F-F+F+F-F-F-F+F+F-F-F-F+F+F-F+F-F+F+F-F+F-F+F+F-F-F-F+F+F-F-F-F+F+F-F-F-F+F+F-F+F-F+F+F-F+F-F+F+F-F-F-F+F+F-F-F-F+F+F-F-F-F+F+F-F+F-F+F+F-F+F-F+F+F-F-F-F+F+F-F+F-F+F+F-F-F-F+F+F-F+F-F+F+F-F+F-F+F+F-F-F-F+F+F-F+F-F+F+F-F-F-F+F+F-F+F-F+F+F-F+F-F+F+F-F-F-F+F+F-F-F-F+F+F-F-F-F+F+F-F+F-F+F+F-F+F-F+F+F-F-F-F+F+F-F+F-F+F+F-F-F-F+F+F-F+F-F+F+F-F+F-F+F+F-F-F-F+F+F-F-F-F+F+F-F-F-F+F+F-F+F-F+F+F-F+F-F+F+F-F-F-F+F+F-F+F-F+F+F-F-F-F+F+F-F+F-F+F+F-F+F-F+F+F-F-F-F+F+F-F+F-F+F+F-F-F-F+F+F-F+F-F+F+F-F+F-F+F+F-F-F-F+F+F-F-F-F+F+F-F-F-F+F+F-F+F-F+F+F-F+F-F+F+F-F-F-F+F+F-F+F-F+F+F-F-F-F+F+F-F+F-F+F+F-F+F-F+F+F-F-F-F+F+F-F-F-F+F+F-F-F-F+F+F-F+F-F+F+F-F+F-F+F+F-F-F-F+F+F-F+F-F+F+F-F-F-F+F+F-F+F-F+F+F-F+F-F+F+F-F-F-F+F+F-F+F-F+F+F-F-F-F+F+F-F+F-F+F+F-F+F-F+F+F-F-F-F+F+F-F-F-F+F+F-F-F-F+F+F-F+F-F+F+F-F+F-F+F+F-F-F-F+F+F-F-F-F+F+F-F-F-F+F+F-F+F-F+F+F-F+F-F+F+F-F-F-F+F+F-F-F-F+F+F-F-F-F+F+F-F+F-F+F+F-F+F-F+F+F-F-F-F+F+F-F+F-F+F+F-F-F-F+F+F-F+F-F+F+F-F+F-F+F+F-F-F-F+F+F-F+F-F+F+F-F-F-F+F+F-F+F-F+F+F-F+F-F+F+F-F-F-F+F+F-F-F-F+F+F-F-F-F+F+F-F+F-F+F+F-F+F-F+F+F-F-F-F+F+F-F-F-F+F+F-F-F-F+F+F-F+F-F+F+F-F+F-F+F+F-F-F-F+F+F-F-F-F+F+F-F-F-F+F+F-F+F-F+F+F-F+F-F+F+F-F-F-F+F+F-F+F-F+F+F-F-F-F+F+F-F+F-F+F+F-F+F-F+F+F-F-F-F+F+F-F+F-F+F+F-F-F-F+F+F-F+F-F+F+F-F+F-F+F+F-F-F-F+F+F-F-F-F+F+F-F-F-F+F+F-F+F-F+F+F-F+F-F+F+F-F-F-F+F+F-F-F-F+F+F-F-F-F+F+F-F+F-F+F+F-F+F-F+F+F-F-F-F+F+F-F-F-F+F+F-F-F-F+F+F-F+F-F+F+F-F+F-F+F+F-F-F-F+F+F-F+F-F+F+F-F-F-F+F+F-F+F-F+F+F-F+F-F+F+F-F-F-F+F+F-F+F-F+F+F-F-F-F+F+F-F+F-F+F+F-F+F-F+F+F-F-F-F+F+F-F-F-F+F+F-F-F-F+F+F-F+F-F+F+F-F+F-F+F+F-F-F-F+F+F-F+F-F+F+F-F-F-F+F+F-F+F-F+F+F-F+F-F+F+F-F-F-F+F+F-F-F-F+F+F-F-F-F+F+F-F+F-F+F+F-F+F-F+F+F-F-F-F+F+F-F+F-F+F+F-F-F-F+F+F-F+F-F+F+F-F+F-F+F+F-F-F-F+F+F-F+F-F+F+F-F-F-F+F+F-F+F-F+F+F-F+F-F+F+F-F-F-F+F+F-F-F-F+F+F-F-F-F+F+F-F+F-F+F+F-F+F-F+F+F-F-F-F+F+F-F+F-F+F+F-F-F-F+F+F-F+F-F+F+F-F+F-F+F+F-F-F-F+F+F-F-F-F+F+F-F-F-F+F+F-F+F-F+F+F-F+F-F+F+F-F-F-F+F+F-F+F-F+F+F-F-F-F+F+F-F+F-F+F+F-F+F-F+F+F-F-F-F+F+F-F+F-F+F+F-F-F-F+F+F-F+F-F+F+F-F+F-F+F+F-F-F-F+F+F-F-F-F+F+F-F-F-F+F+F-F+F-F+F+F-F+F-F+F+F-F-F-F+F+F-F-F-F+F+F-F-F-F+F+F-F+F-F+F+F-F+F-F+F+F-F-F-F+F+F-F-F-F+F+F-F-F-F+F+F-F+F-F+F+F-F+F-F+F+F-F-F-F+F+F-F+F-F+F+F-F-F-F+F+F-F+F-F+F+F-F+F-F+F+F-F-F-F+F+F-F+F-F+F+F-F-F-F+F+F-F+F-F+F+F-F+F-F+F+F-F-F-F+F+F-F-F-F+F+F-F-F-F+F+F-F+F-F+F+F-F+F-F+F+F-F-F-F+F+F-F-F-F+F+F-F-F-F+F+F-F+F-F+F+F-F+F-F+F+F-F-F-F+F+F-F-F-F+F+F-F-F-F+F+F-F+F-F+F+F-F+F-F+F+F-F-F-F+F+F-F+F-F+F+F-F-F-F+F+F-F+F-F+F+F-F+F-F+F+F-F-F-F+F+F-F+F-F+F+F-F-F-F+F+F-F+F-F+F+F-F+F-F+F+F-F-F-F+F+F-F-F-F+F+F-F-F-F+F+F-F+F-F+F+F-F+F-F+F+F-F-F-F+F+F-F-F-F+F+F-F-F-F+F+F-F+F-F+F+F-F+F-F+F+F-F-F-F+F+F-F-F-F+F+F-F-F-F+F+F-F+F-F+F+F-F+F-F+F+F-F-F-F+F+F-F+F-F+F+F-F-F-F+F+F-F+F-F+F+F-F+F-F+F+F-F-F-F+F+F-F+F-F+F+F-F-F-F+F+F-F+F-F+F+F-F+F-F+F+F-F-F-F+F+F-F-F-F+F+F-F-F-F+F+F-F+F-F+F+F-F+F-F+F+F-F-F-F+F+F-F+F-F+F+F-F-F-F+F+F-F+F-F+F+F-F+F-F+F+F-F-F-F+F+F-F-F-F+F+F-F-F-F+F+F-F+F-F+F+F-F+F-F+F+F-F-F-F+F+F-F+F-F+F+F-F-F-F+F+F-F+F-F+F+F-F+F-F+F+F-F-F-F+F+F-F+F-F+F+F-F-F-F+F+F-F+F-F+F+F-F+F-F+F+F-F-F-F+F+F-F-F-F+F+F-F-F-F+F+F-F+F-F+F+F-F+F-F+F+F-F-F-F+F+F-F+F-F+F+F-F-F-F+F+F-F+F-F+F+F-F+F-F+F+F-F-F-F+F+F-F-F-F+F+F-F-F-F+F+F-F+F-F+F+F-F+F-F+F+F-F-F-F+F+F-F+F-F+F+F-F-F-F+F+F-F+F-F+F+F-F+F-F+F+F-F-F-F+F+F-F+F-F+F+F-F-F-F+F+F-F+F-F+F+F-F+F-F+F+F-F-F-F+F+F-F-F-F+F+F-F-F-F+F+F-F+F-F+F+F-F+F-F+F+F-F-F-F+F+F-F-F-F+F+F-F-F-F+F+F-F+F-F+F+F-F+F-F+F+F-F-F-F+F+F-F-F-F+F+F-F-F-F+F+F-F+F-F+F+F-F+F-F+F+F-F-F-F+F+F-F+F-F+F+F-F-F-F+F+F-F+F-F+F+F-F+F-F+F+F-F-F-F+F+F-F+F-F+F+F-F-F-F+F+F-F+F-F+F+F-F+F-F+F+F-F-F-F+F+F-F-F-F+F+F-F-F-F+F+F-F+F-F+F+F-F+F-F+F+F-F-F-F+F+F-F">
      </path>
    </pattern>
  </defs>
  <rect width="10000%" height="10000%" x="-5000%" y="-5000%" fill="#224488" transform-origin="50% 50%" />
  <rect width="10000%" height="10000%" x="-5000%" y="-5000%" fill="url(#turtle-pattern)" transform-origin="50% 50%" />
</svg>