<svg xmlns="http://www.w3.org/2000/svg" width="100%" height="100%">
  <defs>
    <pattern id="turtle-pattern" patternUnits="userSpaceOnUse" width="640.000000000007" height="640.000000000002" transform-origin="50% 50%" patternTransform="scale(1)">
      <animateTransform type="scale" values="0.66;0.33;0.66" repeatCount="indefinite" dur="23s" additive="sum" attributeType="XML" attributeName="patternTransform" />
      <animateTransform type="rotate" values="0;360" repeatCount="indefinite" dur="41s" additive="sum" attributeType="XML" attributeName="patternTransform" />
      <animateTransform type="translate" values="0 0;42 42;0 0" repeatCount="indefinite" additive="sum" dur="117s" attributeType="XML" attributeName="patternTransform" />
      <path id="turtle-path" d="m 320 480   l 16 0 l 1.959435 E -15 32 l -48 5.878305 E -15 l -1.175661 E -14 -64 l 80 -1.959435 E -14 l 2.939152 E -14 96 l -112 4.114813 E -14 l -5.486418 E -14 -128 l 144 -7.053966 E -14 l 3.723917 E -13 160 l -176 1.077689 E -13 l 2.117378 E -13 -192 l 208 -1.528359 E -13 l -2.195954 E -13 224 l -240 2.057407 E -13 l 2.196152 E -13 -256 l 272 -2.664831 E -13 l 8.113843 E -13 288 l -304 1.415088 E -12 l 1.961416 E -13 -320 l 1.058392 E -13 16 l -32 -7.057927 E -14 l -1.528656 E -13 -48 l 64 -9.405287 E -14 l -1.964387 E -14 80 l -96 -1.882246 E -13 l -3.841186 E -13 -112 l 128 -2.194567 E -13 l -8.913321 E -17 144 l -160 -2.74519 E -13 l -6.467225 E -13 -176 l 192 -3.762115 E -13 l 5.081656 E -14 208 l -224 1.262153 E -12 l -9.406773 E -13 -240 l 256 -2.383307 E -12 l 1.330732 E -13 272 l -288 -3.530548 E -13 l -1.265983 E -12 -304 l 320 -7.83774 E -13 l -16 2.116784 E -13 l -1.410991 E -13 -32 l 48 2.117378 E -13 l 6.26623 E -14 64 l -80 5.095521 E -13 l 2.353105 E -13 -96 l 112 -3.291851 E -13 l 1.06617 E -12 128 l -144 -7.071792 E -14 l -7.83873 E -13 -160 l 176 6.901568 E -13 l 2.820398 E -13 192 l -208 1.426726 E -12 l 4.393294 E -13 -224 l 240 -8.229626 E -13 l 2.257744 E -12 256 l -272 -3.367255 E -16 l -1.552051 E -12 -288 l 304 1.043172 E -12 l 5.174295 E -12 320 l 2.354293 E -14 -16 l 32 -1.254038 E -13 l -2.352807 E -13 48 l -64 3.127173 E -14 l -4.703139 E -13 -80 l 96 -1.081846 E -12 l 2.742516 E -13 112 l -128 1.003389 E -12 l 1.413467 E -13 -144 l 160 -2.979133 E -12 l 1.72463 E -12 176 l -192 1.878681 E -13 l -1.324707 E -12 -208 l 224 5.491964 E -13 l 7.05248 E -13 240 l -256 2.132182 E -12 l -3.731606 E -12 -272 l 288 -1.410793 E -12 l 3.127823 E -12 304 l -320 -4.077605 E -12" stroke="currentcolor" stroke-width="0.25%" fill="transparent" class="foreground-stroke" transform-origin="50% 50%" xmlns="http://www.w3.org/2000/svg">
      </path>
    </pattern>
  </defs>
  <rect width="10000%" height="10000%" x="-5000%" y="-5000%" fill="url(#turtle-pattern)" transform-origin="50% 50%" />
</svg>