<svg xmlns="http://www.w3.org/2000/svg" width="100%" height="100%">
  <defs>
    <pattern id="turtle-pattern" patternUnits="userSpaceOnUse" width="800" height="692.820323027551" transform-origin="50% 50%" patternTransform="scale(0.8)">
      <animateTransform attributeName="patternTransform" attributeType="XML" type="scale" values="0.66;0.33;0.66" dur="19s" repeatCount="indefinite" additive="sum" />
      <animateTransform attributeName="patternTransform" attributeType="XML" type="rotate" from="0" to="360" dur="29s" repeatCount="indefinite" additive="sum" />
      <animateTransform attributeName="patternTransform" attributeType="XML" type="skewY" values="45;-45;45" dur="67s" repeatCount="indefinite" additive="sum" />
      <animateTransform attributeName="patternTransform" attributeType="XML" type="translate" values="0 0;42 42;0 0" dur="89s" repeatCount="indefinite" additive="sum" />
      <path id="turtle-path" d="m 0 692.820323027551  l 25 0 l -12.5 -21.650635094611 l 25 0 l -12.5 21.650635094611 l 25 0 l -12.5 -21.650635094611 l -12.5 -21.650635094611 l 25 0 l -12.5 -21.650635094611 l 25 0 l -12.5 21.650635094611 l 25 0 l -12.5 21.650635094611 l -12.5 21.650635094611 l 25 0 l -12.5 -21.650635094611 l 25 0 l -12.5 21.650635094611 l 25 0 l -12.5 -21.650635094611 l -12.5 -21.650635094611 l -12.5 -21.650635094611 l -12.5 -21.650635094611 l 25 0 l -12.5 -21.650635094611 l 25 0 l -12.5 21.650635094611 l 25 0 l -12.5 -21.650635094611 l -12.5 -21.650635094611 l 25 0 l -12.5 -21.650635094611 l 25 0 l -12.5 21.650635094611 l 25 0 l -12.5 21.650635094611 l -12.5 21.650635094611 l 25 0 l -12.5 -21.650635094611 l 25 0 l -12.5 21.650635094611 l 25 0 l -12.5 21.650635094611 l -12.5 21.650635094611 l -12.5 21.650635094611 l -12.5 21.650635094611 l 25 0 l -12.5 -21.650635094611 l 25 0 l -12.5 21.650635094611 l 25 0 l -12.5 -21.650635094611 l -12.5 -21.650635094611 l 25 0 l -12.5 -21.650635094611 l 25 0 l -12.5 21.650635094611 l 25 0 l -12.5 21.650635094611 l -12.5 21.650635094611 l 25 0 l -12.5 -21.650635094611 l 25 0 l -12.5 21.650635094611 l 25 0 l -12.5 -21.650635094611 l -12.5 -21.650635094611 l -12.5 -21.650635094611 l -12.5 -21.650635094611 l -12.5 -21.650635094611 l -12.5 -21.650635094611 l -12.5 -21.650635094611 l -12.5 -21.650635094611 l 25 0 l -12.5 -21.650635094611 l 25 0 l -12.5 21.650635094611 l 25 0 l -12.5 -21.650635094611 l -12.5 -21.650635094611 l 25 0 l -12.5 -21.650635094611 l 25 0 l -12.5 21.650635094611 l 25 0 l -12.5 21.650635094611 l -12.5 21.650635094611 l 25 0 l -12.5 -21.650635094611 l 25 0 l -12.5 21.650635094611 l 25 0 l -12.5 -21.650635094611 l -12.5 -21.650635094611 l -12.5 -21.650635094611 l -12.5 -21.650635094611 l 25 0 l -12.5 -21.650635094611 l 25 0 l -12.5 21.650635094611 l 25 0 l -12.5 -21.650635094611 l -12.5 -21.650635094611 l 25 0 l -12.5 -21.650635094611 l 25 0 l -12.5 21.650635094611 l 25 0 l -12.5 21.650635094611 l -12.5 21.650635094611 l 25 0 l -12.5 -21.650635094611 l 25 0 l -12.5 21.650635094611 l 25 0 l -12.5 21.650635094611 l -12.5 21.650635094611 l -12.5 21.650635094611 l -12.5 21.650635094611 l 25 0 l -12.5 -21.650635094611 l 25 0 l -12.5 21.650635094611 l 25 0 l -12.5 -21.650635094611 l -12.5 -21.650635094611 l 25 0 l -12.5 -21.650635094611 l 25 0 l -12.5 21.650635094611 l 25 0 l -12.5 21.650635094611 l -12.5 21.650635094611 l 25 0 l -12.5 -21.650635094611 l 25 0 l -12.5 21.650635094611 l 25 0 l -12.5 21.650635094611 l -12.5 21.650635094611 l -12.5 21.650635094611 l -12.5 21.650635094611 l -12.5 21.650635094611 l -12.5 21.650635094611 l -12.5 21.650635094611 l -12.5 21.650635094611 l 25 0 l -12.5 -21.650635094611 l 25 0 l -12.5 21.650635094611 l 25 0 l -12.5 -21.650635094611 l -12.5 -21.650635094611 l 25 0 l -12.5 -21.650635094611 l 25 0 l -12.5 21.650635094611 l 25 0 l -12.5 21.650635094611 l -12.5 21.650635094611 l 25 0 l -12.5 -21.650635094611 l 25 0 l -12.5 21.650635094611 l 25 0 l -12.5 -21.650635094611 l -12.5 -21.650635094611 l -12.5 -21.650635094611 l -12.5 -21.650635094611 l 25 0 l -12.5 -21.650635094611 l 25 0 l -12.5 21.650635094611 l 25 0 l -12.5 -21.650635094611 l -12.5 -21.650635094611 l 25 0 l -12.5 -21.650635094611 l 25 0 l -12.5 21.650635094611 l 25 0 l -12.5 21.650635094611 l -12.5 21.650635094611 l 25 0 l -12.5 -21.650635094611 l 25 0 l -12.5 21.650635094611 l 25 0 l -12.5 21.650635094611 l -12.5 21.650635094611 l -12.5 21.650635094611 l -12.5 21.650635094611 l 25 0 l -12.5 -21.650635094611 l 25 0 l -12.5 21.650635094611 l 25 0 l -12.5 -21.650635094611 l -12.5 -21.650635094611 l 25 0 l -12.5 -21.650635094611 l 25 0 l -12.5 21.650635094611 l 25 0 l -12.5 21.650635094611 l -12.5 21.650635094611 l 25 0 l -12.5 -21.650635094611 l 25 0 l -12.5 21.650635094611 l 25 0 l -12.5 -21.650635094611 l -12.5 -21.650635094611 l -12.5 -21.650635094611 l -12.5 -21.650635094611 l -12.5 -21.650635094611 l -12.5 -21.650635094611 l -12.5 -21.650635094611 l -12.5 -21.650635094611 l -12.5 -21.650635094611 l -12.5 -21.650635094611 l -12.5 -21.650635094611 l -12.5 -21.650635094611 l -12.5 -21.650635094611 l -12.5 -21.650635094611 l -12.5 -21.650635094611 l -12.5 -21.650635094611 l 25 0 l -12.5 -21.650635094611 l 25 0 l -12.5 21.650635094611 l 25 0 l -12.5 -21.650635094611 l -12.5 -21.650635094611 l 25 0 l -12.5 -21.650635094611 l 25 0 l -12.5 21.650635094611 l 25 0 l -12.5 21.650635094611 l -12.5 21.650635094611 l 25 0 l -12.5 -21.650635094611 l 25 0 l -12.5 21.650635094611 l 25 0 l -12.5 -21.650635094611 l -12.5 -21.650635094611 l -12.5 -21.650635094611 l -12.5 -21.650635094611 l 25 0 l -12.5 -21.650635094611 l 25 0 l -12.5 21.650635094611 l 25 0 l -12.5 -21.650635094611 l -12.5 -21.650635094611 l 25 0 l -12.5 -21.650635094611 l 25 0 l -12.5 21.650635094611 l 25 0 l -12.5 21.650635094611 l -12.5 21.650635094611 l 25 0 l -12.5 -21.650635094611 l 25 0 l -12.5 21.650635094611 l 25 0 l -12.5 21.650635094611 l -12.5 21.650635094611 l -12.5 21.650635094611 l -12.5 21.650635094611 l 25 0 l -12.5 -21.650635094611 l 25 0 l -12.5 21.650635094611 l 25 0 l -12.5 -21.650635094611 l -12.5 -21.650635094611 l 25 0 l -12.5 -21.650635094611 l 25 0 l -12.5 21.650635094611 l 25 0 l -12.5 21.650635094611 l -12.5 21.650635094611 l 25 0 l -12.5 -21.650635094611 l 25 0 l -12.5 21.650635094611 l 25 0 l -12.5 -21.650635094611 l -12.5 -21.650635094611 l -12.5 -21.650635094611 l -12.5 -21.650635094611 l -12.5 -21.650635094611 l -12.5 -21.650635094611 l -12.5 -21.650635094611 l -12.5 -21.650635094611 l 25 0 l -12.5 -21.650635094611 l 25 0 l -12.5 21.650635094611 l 25 0 l -12.5 -21.650635094611 l -12.5 -21.650635094611 l 25 0 l -12.5 -21.650635094611 l 25 0 l -12.5 21.650635094611 l 25 0 l -12.5 21.650635094611 l -12.5 21.650635094611 l 25 0 l -12.5 -21.650635094611 l 25 0 l -12.5 21.650635094611 l 25 0 l -12.5 -21.650635094611 l -12.5 -21.650635094611 l -12.5 -21.650635094611 l -12.5 -21.650635094611 l 25 0 l -12.5 -21.650635094611 l 25 0 l -12.5 21.650635094611 l 25 0 l -12.5 -21.650635094611 l -12.5 -21.650635094611 l 25 0 l -12.5 -21.650635094611 l 25 0 l -12.5 21.650635094611 l 25 0 l -12.5 21.650635094611 l -12.5 21.650635094611 l 25 0 l -12.5 -21.650635094611 l 25 0 l -12.5 21.650635094611 l 25 0 l -12.5 21.650635094611 l -12.5 21.650635094611 l -12.5 21.650635094611 l -12.5 21.650635094611 l 25 0 l -12.5 -21.650635094611 l 25 0 l -12.5 21.650635094611 l 25 0 l -12.5 -21.650635094611 l -12.5 -21.650635094611 l 25 0 l -12.5 -21.650635094611 l 25 0 l -12.5 21.650635094611 l 25 0 l -12.5 21.650635094611 l -12.5 21.650635094611 l 25 0 l -12.5 -21.650635094611 l 25 0 l -12.5 21.650635094611 l 25 0 l -12.5 21.650635094611 l -12.5 21.650635094611 l -12.5 21.650635094611 l -12.5 21.650635094611 l -12.5 21.650635094611 l -12.5 21.650635094611 l -12.5 21.650635094611 l -12.5 21.650635094611 l 25 0 l -12.5 -21.650635094611 l 25 0 l -12.5 21.650635094611 l 25 0 l -12.5 -21.650635094611 l -12.5 -21.650635094611 l 25 0 l -12.5 -21.650635094611 l 25 0 l -12.5 21.650635094611 l 25 0 l -12.5 21.650635094611 l -12.5 21.650635094611 l 25 0 l -12.5 -21.650635094611 l 25 0 l -12.5 21.650635094611 l 25 0 l -12.5 -21.650635094611 l -12.5 -21.650635094611 l -12.5 -21.650635094611 l -12.5 -21.650635094611 l 25 0 l -12.5 -21.650635094611 l 25 0 l -12.5 21.650635094611 l 25 0 l -12.5 -21.650635094611 l -12.5 -21.650635094611 l 25 0 l -12.5 -21.650635094611 l 25 0 l -12.5 21.650635094611 l 25 0 l -12.5 21.650635094611 l -12.5 21.650635094611 l 25 0 l -12.5 -21.650635094611 l 25 0 l -12.5 21.650635094611 l 25 0 l -12.5 21.650635094611 l -12.5 21.650635094611 l -12.5 21.650635094611 l -12.5 21.650635094611 l 25 0 l -12.5 -21.650635094611 l 25 0 l -12.5 21.650635094611 l 25 0 l -12.5 -21.650635094611 l -12.5 -21.650635094611 l 25 0 l -12.5 -21.650635094611 l 25 0 l -12.5 21.650635094611 l 25 0 l -12.5 21.650635094611 l -12.5 21.650635094611 l 25 0 l -12.5 -21.650635094611 l 25 0 l -12.5 21.650635094611 l 25 0 l -12.5 21.650635094611 l -12.5 21.650635094611 l -12.5 21.650635094611 l -12.5 21.650635094611 l -12.5 21.650635094611 l -12.5 21.650635094611 l -12.5 21.650635094611 l -12.5 21.650635094611 l -12.5 21.650635094611 l -12.5 21.650635094611 l -12.5 21.650635094611 l -12.5 21.650635094611 l -12.5 21.650635094611 l -12.5 21.650635094611 l -12.5 21.650635094611 l -12.5 21.650635094611 l 25 0 l -12.5 -21.650635094611 l 25 0 l -12.5 21.650635094611 l 25 0 l -12.5 -21.650635094611 l -12.5 -21.650635094611 l 25 0 l -12.5 -21.650635094611 l 25 0 l -12.5 21.650635094611 l 25 0 l -12.5 21.650635094611 l -12.5 21.650635094611 l 25 0 l -12.5 -21.650635094611 l 25 0 l -12.5 21.650635094611 l 25 0 l -12.5 -21.650635094611 l -12.5 -21.650635094611 l -12.5 -21.650635094611 l -12.5 -21.650635094611 l 25 0 l -12.5 -21.650635094611 l 25 0 l -12.5 21.650635094611 l 25 0 l -12.5 -21.650635094611 l -12.5 -21.650635094611 l 25 0 l -12.5 -21.650635094611 l 25 0 l -12.5 21.650635094611 l 25 0 l -12.5 21.650635094611 l -12.5 21.650635094611 l 25 0 l -12.5 -21.650635094611 l 25 0 l -12.5 21.650635094611 l 25 0 l -12.5 21.650635094611 l -12.5 21.650635094611 l -12.5 21.650635094611 l -12.5 21.650635094611 l 25 0 l -12.5 -21.650635094611 l 25 0 l -12.5 21.650635094611 l 25 0 l -12.5 -21.650635094611 l -12.5 -21.650635094611 l 25 0 l -12.5 -21.650635094611 l 25 0 l -12.5 21.650635094611 l 25 0 l -12.5 21.650635094611 l -12.5 21.650635094611 l 25 0 l -12.5 -21.650635094611 l 25 0 l -12.5 21.650635094611 l 25 0 l -12.5 -21.650635094611 l -12.5 -21.650635094611 l -12.5 -21.650635094611 l -12.5 -21.650635094611 l -12.5 -21.650635094611 l -12.5 -21.650635094611 l -12.5 -21.650635094611 l -12.5 -21.650635094611 l 25 0 l -12.5 -21.650635094611 l 25 0 l -12.5 21.650635094611 l 25 0 l -12.5 -21.650635094611 l -12.5 -21.650635094611 l 25 0 l -12.5 -21.650635094611 l 25 0 l -12.5 21.650635094611 l 25 0 l -12.5 21.650635094611 l -12.5 21.650635094611 l 25 0 l -12.5 -21.650635094611 l 25 0 l -12.5 21.650635094611 l 25 0 l -12.5 -21.650635094611 l -12.5 -21.650635094611 l -12.5 -21.650635094611 l -12.5 -21.650635094611 l 25 0 l -12.5 -21.650635094611 l 25 0 l -12.5 21.650635094611 l 25 0 l -12.5 -21.650635094611 l -12.5 -21.650635094611 l 25 0 l -12.5 -21.650635094611 l 25 0 l -12.5 21.650635094611 l 25 0 l -12.5 21.650635094611 l -12.5 21.650635094611 l 25 0 l -12.5 -21.650635094611 l 25 0 l -12.5 21.650635094611 l 25 0 l -12.5 21.650635094611 l -12.5 21.650635094611 l -12.5 21.650635094611 l -12.5 21.650635094611 l 25 0 l -12.5 -21.650635094611 l 25 0 l -12.5 21.650635094611 l 25 0 l -12.5 -21.650635094611 l -12.5 -21.650635094611 l 25 0 l -12.5 -21.650635094611 l 25 0 l -12.5 21.650635094611 l 25 0 l -12.5 21.650635094611 l -12.5 21.650635094611 l 25 0 l -12.5 -21.650635094611 l 25 0 l -12.5 21.650635094611 l 25 0 l -12.5 21.650635094611 l -12.5 21.650635094611 l -12.5 21.650635094611 l -12.5 21.650635094611 l -12.5 21.650635094611 l -12.5 21.650635094611 l -12.5 21.650635094611 l -12.5 21.650635094611 l 25 0 l -12.5 -21.650635094611 l 25 0 l -12.5 21.650635094611 l 25 0 l -12.5 -21.650635094611 l -12.5 -21.650635094611 l 25 0 l -12.5 -21.650635094611 l 25 0 l -12.5 21.650635094611 l 25 0 l -12.5 21.650635094611 l -12.5 21.650635094611 l 25 0 l -12.5 -21.650635094611 l 25 0 l -12.5 21.650635094611 l 25 0 l -12.5 -21.650635094611 l -12.5 -21.650635094611 l -12.5 -21.650635094611 l -12.5 -21.650635094611 l 25 0 l -12.5 -21.650635094611 l 25 0 l -12.5 21.650635094611 l 25 0 l -12.5 -21.650635094611 l -12.5 -21.650635094611 l 25 0 l -12.5 -21.650635094611 l 25 0 l -12.5 21.650635094611 l 25 0 l -12.5 21.650635094611 l -12.5 21.650635094611 l 25 0 l -12.5 -21.650635094611 l 25 0 l -12.5 21.650635094611 l 25 0 l -12.5 21.650635094611 l -12.5 21.650635094611 l -12.5 21.650635094611 l -12.5 21.650635094611 l 25 0 l -12.5 -21.650635094611 l 25 0 l -12.5 21.650635094611 l 25 0 l -12.5 -21.650635094611 l -12.5 -21.650635094611 l 25 0 l -12.5 -21.650635094611 l 25 0 l -12.5 21.650635094611 l 25 0 l -12.5 21.650635094611 l -12.5 21.650635094611 l 25 0 l -12.5 -21.650635094611 l 25 0 l -12.5 21.650635094611 l 25 0 l -12.5 -21.650635094611 l -12.5 -21.650635094611 l -12.5 -21.650635094611 l -12.5 -21.650635094611 l -12.5 -21.650635094611 l -12.5 -21.650635094611 l -12.5 -21.650635094611 l -12.5 -21.650635094611 l -12.5 -21.650635094611 l -12.5 -21.650635094611 l -12.5 -21.650635094611 l -12.5 -21.650635094611 l -12.5 -21.650635094611 l -12.5 -21.650635094611 l -12.5 -21.650635094611 l -12.5 -21.650635094611 l -12.5 -21.650635094611 l -12.5 -21.650635094611 l -12.5 -21.650635094611 l -12.5 -21.650635094611 l -12.5 -21.650635094611 l -12.5 -21.650635094611 l -12.5 -21.650635094611 l -12.5 -21.650635094611 l -12.5 -21.650635094611 l -12.5 -21.650635094611 l -12.5 -21.650635094611 l -12.5 -21.650635094611 l -12.5 -21.650635094611 l -12.5 -21.650635094611 l -12.5 -21.650635094611 l -12.5 -21.650635094611 l -12.5 21.650635094611 l -12.5 21.650635094611 l -12.5 21.650635094611 l -12.5 21.650635094611 l -12.5 21.650635094611 l -12.5 21.650635094611 l -12.5 21.650635094611 l -12.5 21.650635094611 l -12.5 21.650635094611 l -12.5 21.650635094611 l -12.5 21.650635094611 l -12.5 21.650635094611 l -12.5 21.650635094611 l -12.5 21.650635094611 l -12.5 21.650635094611 l -12.5 21.650635094611 l -12.5 21.650635094611 l -12.5 21.650635094611 l -12.5 21.650635094611 l -12.5 21.650635094611 l -12.5 21.650635094611 l -12.5 21.650635094611 l -12.5 21.650635094611 l -12.5 21.650635094611 l -12.5 21.650635094611 l -12.5 21.650635094611 l -12.5 21.650635094611 l -12.5 21.650635094611 l -12.5 21.650635094611 l -12.5 21.650635094611 l -12.5 21.650635094611 l -12.5 21.650635094611" stroke="currentcolor" stroke-width="0.1%" fill="transparent" class="foreground-stroke" />
    </pattern>
  </defs>
  <rect width="10000%" height="10000%" x="-5000%" y="-5000%" fill="url(#turtle-pattern)" transform-origin="50% 50%" />
</svg>