<svg xmlns="http://www.w3.org/2000/svg" width="100%" height="100%">
  <defs>
    <pattern id="turtle-pattern" patternUnits="userSpaceOnUse" width="810" height="935.307436087195" transform-origin="50% 50%" patternTransform="scale(0.33)">
      <animateTransform attributeName="patternTransform" attributeType="XML" type="scale" values="0.66;0.33;0.66" dur="19s" repeatCount="indefinite" additive="sum" />
      <animateTransform attributeName="patternTransform" attributeType="XML" type="rotate" from="0" to="360" dur="29s" repeatCount="indefinite" additive="sum" />
      <animateTransform attributeName="patternTransform" attributeType="XML" type="skewX" values="30;-30;30" dur="67s" repeatCount="indefinite" additive="sum" />
      <animateTransform attributeName="patternTransform" attributeType="XML" type="skewY" values="30;-30;30" dur="83s" repeatCount="indefinite" additive="sum" />
      <animateTransform attributeName="patternTransform" attributeType="XML" type="translate" values="0 0;42 42;0 0" dur="103s" repeatCount="indefinite" additive="sum" />
      <path id="turtle-path" d="m 0 701.480577065396  l 10 0 l 5 8.66025403784439 l 5 -8.66025403784439 l 10 0 l 5 8.66025403784439 l -5 8.66025403784439 l 10 0 l 5 8.66025403784439 l 5 -8.66025403784439 l 10 0 l -5 -8.66025403784439 l 5 -8.66025403784439 l 10 0 l 5 8.66025403784439 l 5 -8.66025403784439 l 10 0 l 5 8.66025403784439 l -5 8.66025403784439 l 10 0 l 5 8.66025403784439 l -5 8.66025403784439 l -10 0 l 5 8.66025403784439 l -5 8.66025403784439 l 10 0 l 5 8.66025403784439 l 5 -8.66025403784439 l 10 0 l 5 8.66025403784439 l -5 8.66025403784439 l 10 0 l 5 8.66025403784439 l 5 -8.66025403784439 l 10 0 l -5 -8.66025403784439 l 5 -8.66025403784439 l 10 0 l 5 8.66025403784439 l 5 -8.66025403784439 l 10 0 l -5 -8.66025403784439 l 5 -8.66025403784439 l -10 -0 l -5 -8.66025403784439 l 5 -8.66025403784439 l 10 0 l -5 -8.66025403784439 l 5 -8.66025403784439 l 10 0 l 5 8.66025403784439 l 5 -8.66025403784439 l 10 0 l 5 8.66025403784439 l -5 8.66025403784439 l 10 0 l 5 8.66025403784439 l 5 -8.66025403784439 l 10 0 l -5 -8.66025403784439 l 5 -8.66025403784439 l 10 0 l 5 8.66025403784439 l 5 -8.66025403784439 l 10 0 l 5 8.66025403784439 l -5 8.66025403784439 l 10 0 l 5 8.66025403784439 l -5 8.66025403784439 l -10 0 l 5 8.66025403784439 l -5 8.66025403784439 l 10 0 l 5 8.66025403784439 l 5 -8.66025403784439 l 10 0 l 5 8.66025403784439 l -5 8.66025403784439 l 10 0 l 5 8.66025403784439 l -5 8.66025403784439 l -10 0 l 5 8.66025403784439 l -5 8.66025403784439 l -10 0 l -5 -8.66025403784438 l -5 8.66025403784439 l -10 0 l 5 8.66025403784439 l -5 8.66025403784439 l 10 0 l 5 8.66025403784439 l -5 8.66025403784439 l -10 0 l 5 8.66025403784439 l -5 8.66025403784439 l 10 0 l 5 8.66025403784439 l 5 -8.66025403784439 l 10 0 l 5 8.66025403784439 l -5 8.66025403784439 l 10 0 l 5 8.66025403784439 l 5 -8.66025403784439 l 10 0 l -5 -8.66025403784439 l 5 -8.66025403784439 l 10 0 l 5 8.66025403784439 l 5 -8.66025403784439 l 10 0 l 5 8.66025403784439 l -5 8.66025403784439 l 10 0 l 5 8.66025403784439 l -5 8.66025403784439 l -10 0 l 5 8.66025403784439 l -5 8.66025403784439 l 10 0 l 5 8.66025403784439 l 5 -8.66025403784439 l 10 0 l 5 8.66025403784439 l -5 8.66025403784439 l 10 0 l 5 8.66025403784439 l 5 -8.66025403784439 l 10 0 l -5 -8.66025403784439 l 5 -8.66025403784439 l 10 0 l 5 8.66025403784439 l 5 -8.66025403784439 l 10 0 l -5 -8.66025403784439 l 5 -8.66025403784439 l -10 -0 l -5 -8.66025403784439 l 5 -8.66025403784439 l 10 0 l -5 -8.66025403784439 l 5 -8.66025403784439 l 10 0 l 5 8.66025403784439 l 5 -8.66025403784439 l 10 0 l 5 8.66025403784439 l -5 8.66025403784439 l 10 0 l 5 8.66025403784439 l 5 -8.66025403784439 l 10 0 l -5 -8.66025403784439 l 5 -8.66025403784439 l 10 0 l 5 8.66025403784439 l 5 -8.66025403784439 l 10 0 l -5 -8.66025403784439 l 5 -8.66025403784439 l -10 -0 l -5 -8.66025403784439 l 5 -8.66025403784439 l 10 0 l -5 -8.66025403784439 l 5 -8.66025403784439 l -10 -0 l -5 -8.66025403784439 l -5 8.66025403784438 l -10 -0 l -5 -8.66025403784439 l 5 -8.66025403784439 l -10 -0 l -5 -8.66025403784439 l 5 -8.66025403784439 l 10 0 l -5 -8.66025403784439 l 5 -8.66025403784439 l 10 0 l 5 8.66025403784439 l 5 -8.66025403784439 l 10 0 l -5 -8.66025403784439 l 5 -8.66025403784439 l -10 -0 l -5 -8.66025403784439 l 5 -8.66025403784439 l 10 0 l -5 -8.66025403784439 l 5 -8.66025403784439 l 10 0 l 5 8.66025403784439 l 5 -8.66025403784439 l 10 0 l 5 8.66025403784439 l -5 8.66025403784439 l 10 0 l 5 8.66025403784439 l 5 -8.66025403784439 l 10 0 l -5 -8.66025403784439 l 5 -8.66025403784439 l 10 0 l 5 8.66025403784439 l 5 -8.66025403784439 l 10 0 l 5 8.66025403784439 l -5 8.66025403784439 l 10 0 l 5 8.66025403784439 l -5 8.66025403784439 l -10 0 l 5 8.66025403784439 l -5 8.66025403784439 l 10 0 l 5 8.66025403784439 l 5 -8.66025403784439 l 10 0 l 5 8.66025403784439 l -5 8.66025403784439 l 10 0 l 5 8.66025403784439 l 5 -8.66025403784439 l 10 0 l -5 -8.66025403784439 l 5 -8.66025403784439 l 10 0 l 5 8.66025403784439 l 5 -8.66025403784439 l 10 0 l -5 -8.66025403784439 l 5 -8.66025403784439 l -10 -0 l -5 -8.66025403784439 l 5 -8.66025403784439 l 10 0 l -5 -8.66025403784439 l 5 -8.66025403784439 l 10 0 l 5 8.66025403784439 l 5 -8.66025403784439 l 10 0 l 5 8.66025403784439 l -5 8.66025403784439 l 10 0 l 5 8.66025403784439 l 5 -8.66025403784439 l 10 0 l -5 -8.66025403784439 l 5 -8.66025403784439 l 10 0 l 5 8.66025403784439 l 5 -8.66025403784439 l 10 0 l -5 -8.66025403784439 l 5 -8.66025403784439 l -10 -0 l -5 -8.66025403784439 l 5 -8.66025403784439 l 10 0 l -5 -8.66025403784439 l 5 -8.66025403784439 l -10 -0 l -5 -8.66025403784439 l -5 8.66025403784438 l -10 -0 l -5 -8.66025403784439 l 5 -8.66025403784439 l -10 -0 l -5 -8.66025403784439 l 5 -8.66025403784439 l 10 0 l -5 -8.66025403784439 l 5 -8.66025403784439 l 10 0 l 5 8.66025403784439 l 5 -8.66025403784439 l 10 0 l -5 -8.66025403784439 l 5 -8.66025403784439 l -10 -0 l -5 -8.66025403784439 l 5 -8.66025403784439 l 10 0 l -5 -8.66025403784439 l 5 -8.66025403784439 l -10 -0 l -5 -8.66025403784439 l -5 8.66025403784438 l -10 -0 l -5 -8.66025403784439 l 5 -8.66025403784439 l -10 -0 l -5 -8.66025403784439 l -5 8.66025403784438 l -10 -0 l 5 8.66025403784439 l -5 8.66025403784438 l -10 -0 l -5 -8.66025403784439 l -5 8.66025403784438 l -10 -0 l -5 -8.66025403784439 l 5 -8.66025403784439 l -10 -0 l -5 -8.66025403784439 l 5 -8.66025403784439 l 10 0 l -5 -8.66025403784439 l 5 -8.66025403784439 l -10 -0 l -5 -8.66025403784439 l -5 8.66025403784438 l -10 -0 l -5 -8.66025403784439 l 5 -8.66025403784439 l -10 -0 l -5 -8.66025403784439 l 5 -8.66025403784439 l 10 0 l -5 -8.66025403784439 l 5 -8.66025403784439 l 10 0 l 5 8.66025403784439 l 5 -8.66025403784439 l 10 0 l -5 -8.66025403784439 l 5 -8.66025403784439 l -10 -0 l -5 -8.66025403784439 l 5 -8.66025403784439 l 10 0 l -5 -8.66025403784439 l 5 -8.66025403784439 l 10 0 l 5 8.66025403784439 l 5 -8.66025403784439 l 10 0 l 5 8.66025403784439 l -5 8.66025403784439 l 10 0 l 5 8.66025403784439 l 5 -8.66025403784439 l 10 0 l -5 -8.66025403784439 l 5 -8.66025403784439 l 10 0 l 5 8.66025403784439 l 5 -8.66025403784439 l 10 0 l -5 -8.66025403784439 l 5 -8.66025403784439 l -10 -0 l -5 -8.66025403784439 l 5 -8.66025403784439 l 10 0 l -5 -8.66025403784439 l 5 -8.66025403784439 l -10 -0 l -5 -8.66025403784439 l -5 8.66025403784438 l -10 -0 l -5 -8.66025403784439 l 5 -8.66025403784439 l -10 -0 l -5 -8.66025403784439 l 5 -8.66025403784439 l 10 0 l -5 -8.66025403784439 l 5 -8.66025403784439 l 10 0 l 5 8.66025403784439 l 5 -8.66025403784439 l 10 0 l -5 -8.66025403784439 l 5 -8.66025403784439 l -10 -0 l -5 -8.66025403784439 l 5 -8.66025403784439 l 10 0 l -5 -8.66025403784439 l 5 -8.66025403784439 l -10 -0 l -5 -8.66025403784439 l -5 8.66025403784438 l -10 -0 l -5 -8.66025403784439 l 5 -8.66025403784439 l -10 -0 l -5 -8.66025403784439 l -5 8.66025403784438 l -10 -0 l 5 8.66025403784439 l -5 8.66025403784438 l -10 -0 l -5 -8.66025403784439 l -5 8.66025403784438 l -10 -0 l -5 -8.66025403784439 l 5 -8.66025403784439 l -10 -0 l -5 -8.66025403784439 l 5 -8.66025403784439 l 10 0 l -5 -8.66025403784439 l 5 -8.66025403784439 l -10 -0 l -5 -8.66025403784439 l -5 8.66025403784438 l -10 -0 l -5 -8.66025403784439 l 5 -8.66025403784439 l -10 -0 l -5 -8.66025403784439 l -5 8.66025403784438 l -10 -0 l 5 8.66025403784439 l -5 8.66025403784438 l -10 -0 l -5 -8.66025403784439 l -5 8.66025403784438 l -10 -0 l 5 8.66025403784439 l -5 8.66025403784438 l 10 0 l 5 8.66025403784439 l -5 8.66025403784438 l -10 -0 l 5 8.66025403784439 l -5 8.66025403784438 l -10 -0 l -5 -8.66025403784439 l -5 8.66025403784438 l -10 -0 l -5 -8.66025403784439 l 5 -8.66025403784439 l -10 -0 l -5 -8.66025403784439 l -5 8.66025403784438 l -10 -0 l 5 8.66025403784439 l -5 8.66025403784438 l -10 -0 l -5 -8.66025403784439 l -5 8.66025403784438 l -10 -0 l -5 -8.66025403784439 l 5 -8.66025403784439 l -10 -0 l -5 -8.66025403784439 l 5 -8.66025403784439 l 10 0 l -5 -8.66025403784439 l 5 -8.66025403784439 l -10 -0 l -5 -8.66025403784439 l -5 8.66025403784438 l -10 -0 l -5 -8.66025403784439 l 5 -8.66025403784439 l -10 -0 l -5 -8.66025403784439 l 5 -8.66025403784439 l 10 0 l -5 -8.66025403784439 l 5 -8.66025403784439 l 10 0 l 5 8.66025403784439 l 5 -8.66025403784439 l 10 0 l -5 -8.66025403784439 l 5 -8.66025403784439 l -10 -0 l -5 -8.66025403784439 l 5 -8.66025403784439 l 10 0 l -5 -8.66025403784439 l 5 -8.66025403784439 l -10 -0 l -5 -8.66025403784439 l -5 8.66025403784438 l -10 -0 l -5 -8.66025403784439 l 5 -8.66025403784439 l -10 -0 l -5 -8.66025403784439 l -5 8.66025403784438 l -10 -0 l 5 8.66025403784439 l -5 8.66025403784438 l -10 -0 l -5 -8.66025403784439 l -5 8.66025403784438 l -10 -0 l -5 -8.66025403784439 l 5 -8.66025403784439 l -10 -0 l -5 -8.66025403784439 l 5 -8.66025403784439 l 10 0 l -5 -8.66025403784439 l 5 -8.66025403784439 l -10 -0 l -5 -8.66025403784439 l -5 8.66025403784438 l -10 -0 l -5 -8.66025403784439 l 5 -8.66025403784439 l -10 -0 l -5 -8.66025403784439 l -5 8.66025403784438 l -10 -0 l 5 8.66025403784439 l -5 8.66025403784438 l -10 -0 l -5 -8.66025403784439 l -5 8.66025403784438 l -10 -0 l 5 8.66025403784439 l -5 8.66025403784438 l 10 0 l 5 8.66025403784439 l -5 8.66025403784438 l -10 -0 l 5 8.66025403784439 l -5 8.66025403784438 l -10 -0 l -5 -8.66025403784439 l -5 8.66025403784438 l -10 -0 l -5 -8.66025403784439 l 5 -8.66025403784439 l -10 -0 l -5 -8.66025403784439 l -5 8.66025403784438 l -10 -0 l 5 8.66025403784439 l -5 8.66025403784438 l -10 -0 l -5 -8.66025403784439 l -5 8.66025403784438 l -10 -0 l 5 8.66025403784439 l -5 8.66025403784438 l 10 0 l 5 8.66025403784439 l -5 8.66025403784438 l -10 -0 l 5 8.66025403784439 l -5 8.66025403784438 l 10 0 l 5 8.66025403784439 l 5 -8.66025403784439 l 10 0 l 5 8.66025403784439 l -5 8.66025403784438 l 10 0 l 5 8.66025403784439 l -5 8.66025403784438 l -10 -0 l 5 8.66025403784439 l -5 8.66025403784438 l -10 -0 l -5 -8.66025403784439 l -5 8.66025403784438 l -10 -0 l 5 8.66025403784439 l -5 8.66025403784438 l 10 0 l 5 8.66025403784439 l -5 8.66025403784438 l -10 -0 l 5 8.66025403784439 l -5 8.66025403784438 l -10 -0 l -5 -8.66025403784439 l -5 8.66025403784438 l -10 -0 l -5 -8.66025403784439 l 5 -8.66025403784439 l -10 -0 l -5 -8.66025403784439 l -5 8.66025403784438 l -10 -0 l 5 8.66025403784439 l -5 8.66025403784438 l -10 -0 l -5 -8.66025403784439 l -5 8.66025403784438 l -10 -0 l -5 -8.66025403784439 l 5 -8.66025403784439 l -10 -0 l -5 -8.66025403784439 l 5 -8.66025403784439 l 10 0 l -5 -8.66025403784439 l 5 -8.66025403784439 l -10 -0 l -5 -8.66025403784439 l -5 8.66025403784438 l -10 -0 l -5 -8.66025403784439 l 5 -8.66025403784439 l -10 -0 l -5 -8.66025403784439 l -5 8.66025403784438 l -10 -0 l 5 8.66025403784439 l -5 8.66025403784438 l -10 -0 l -5 -8.66025403784439 l -5 8.66025403784438 l -10 -0 l 5 8.66025403784439 l -5 8.66025403784438 l 10 0 l 5 8.66025403784439 l -5 8.66025403784438 l -10 -0 l 5 8.66025403784439 l -5 8.66025403784438 l -10 -0 l -5 -8.66025403784439 l -5 8.66025403784438 l -10 -0 l -5 -8.66025403784439 l 5 -8.66025403784439 l -10 -0 l -5 -8.66025403784439 l -5 8.66025403784438 l -10 -0 l 5 8.66025403784439 l -5 8.66025403784438 l -10 -0 l -5 -8.66025403784439 l -5 8.66025403784438 l -10 -0 l 5 8.66025403784439 l -5 8.66025403784438 l 10 0 l 5 8.66025403784439 l -5 8.66025403784438 l -10 -0 l 5 8.66025403784439 l -5 8.66025403784438 l 10 0 l 5 8.66025403784439 l 5 -8.66025403784439 l 10 0 l 5 8.66025403784439 l -5 8.66025403784438 l 10 0 l 5 8.66025403784439 l -5 8.66025403784438 l -10 -0 l 5 8.66025403784439 l -5 8.66025403784438 l -10 -0 l -5 -8.66025403784439 l -5 8.66025403784438 l -10 -0 l 5 8.66025403784439 l -5 8.66025403784438 l 10 0 l 5 8.66025403784439 l -5 8.66025403784438 l -10 -0 l 5 8.66025403784439 l -5 8.66025403784438 l 10 0 l 5 8.66025403784439 l 5 -8.66025403784439 l 10 0 l 5 8.66025403784439 l -5 8.66025403784438 l 10 0 l 5 8.66025403784439 l 5 -8.66025403784439 l 10 0 l -4.99999999999999 -8.66025403784439 l 5 -8.66025403784439 l 10 0 l 5 8.66025403784439 l 5 -8.66025403784439 l 10 0 l 5 8.66025403784439 l -5 8.66025403784438 l 10 0 l 5 8.66025403784439 l -5 8.66025403784438 l -10 -0 l 5 8.66025403784439 l -5 8.66025403784438 l 10 0 l 5 8.66025403784439 l 5 -8.66025403784439 l 10 0 l 5 8.66025403784439 l -5 8.66025403784438 l 10 0 l 5 8.66025403784439 l -5 8.66025403784438 l -10 -0 l 5 8.66025403784439 l -5 8.66025403784438 l -10 -0 l -5 -8.66025403784439 l -5 8.66025403784438 l -10 -0 l 5 8.66025403784439 l -5 8.66025403784438 l 10 0 l 5 8.66025403784439 l -5 8.66025403784438 l -10 -0 l 5 8.66025403784439 l -5 8.66025403784438 l -10 -0 l -5 -8.66025403784439 l -5 8.66025403784438 l -10 -0 l -5 -8.66025403784439 l 5 -8.66025403784439 l -10 -0 l -5 -8.66025403784439 l -5 8.66025403784438 l -10 -0 l 5 8.66025403784439 l -5 8.66025403784438 l -10 -0 l -5 -8.66025403784439 l -5 8.66025403784438 l -10 -0 l 5 8.66025403784439 l -5 8.66025403784438 l 10 0 l 5 8.66025403784439 l -5 8.66025403784438 l -10 -0 l 5 8.66025403784439 l -5 8.66025403784438 l 10 0 l 5 8.66025403784439 l 5 -8.66025403784439 l 10 0 l 5 8.66025403784439 l -5 8.66025403784438 l 10 0 l 5 8.66025403784439 l -5 8.66025403784438 l -10 -0 l 5 8.66025403784439 l -5 8.66025403784438 l -10 -0 l -5 -8.66025403784439 l -5 8.66025403784438 l -10 -0 l 5 8.66025403784439 l -5 8.66025403784438 l 10 0 l 5 8.66025403784439 l -5 8.66025403784438 l -10 -0 l 5 8.66025403784439 l -5 8.66025403784438" stroke="currentcolor" stroke-width="0.25%" fill="#4488ff" class="foreground-stroke" />
    </pattern>
  </defs>
  <rect width="10000%" height="10000%" x="-5000%" y="-5000%" fill="url(#turtle-pattern)" transform-origin="50% 50%" />
</svg>