<svg xmlns="http://www.w3.org/2000/svg" width="100%" height="100%">
  <defs>
    <pattern id="turtle-pattern" patternUnits="userSpaceOnUse" width="640.000000000007" height="640.000000000002" transform-origin="50% 50%" patternTransform="scale(1)">
      <animateTransform type="scale" values="0.66;0.33;0.66" repeatCount="indefinite" dur="23s" additive="sum" attributeType="XML" attributeName="patternTransform" />
      <animateTransform type="rotate" values="0;360" repeatCount="indefinite" dur="41s" additive="sum" attributeType="XML" attributeName="patternTransform" />
      <animateTransform type="translate" values="0 0;42 42;0 0" repeatCount="indefinite" additive="sum" dur="117s" attributeType="XML" attributeName="patternTransform" />
      <path id="turtle-path" d="m 320.000000000002 480  l 16 0  l 1.95943487863577E-15 32  l -48 5.8783046359073E-15  l -1.17566092718146E-14 -64  l 80 -1.95943487863577E-14  l 2.93915231795365E-14 96  l -112 4.11481324513511E-14  l -5.48641766018014E-14 -128  l 144 -7.05396556308875E-14  l 3.72391663842649E-13 160  l -176 1.07768918324967E-13  l 2.11737811174888E-13 -192  l 208 -1.5283592053359E-13  l -2.19595358069801E-13 224  l -240 2.05740662256755E-13  l 2.19615165450172E-13 -256  l 272 -2.66483143494464E-13  l 8.11384306178544E-13 288  l -304 1.41508832260207E-12  l 1.96141561667285E-13 -320  l 1.05839194516888E-13 16  l -32 -7.05792703916292E-14  l -1.52865631604146E-13 -48  l 64 -9.40528741745167E-14  l -1.96438672372847E-14 80  l -96 -1.88224592631258E-13  l -3.84118562043908E-13 -112  l 128 -2.19456706407206E-13  l -8.91332116687235E-17 144  l -160 -2.74518956812715E-13  l -6.46722450541842E-13 -176  l 192 -3.76211496698067E-13  l 5.08165588721195E-14 208  l -224 1.26215336516662E-12  l -9.40677297097949E-13 -240  l 256 -2.38330664859296E-12  l 1.3307320901408E-13 272  l -288 -3.53054811001113E-13  l -1.26598310171223E-12 -304  l 320 -7.83773951454306E-13  l -16 2.11678389033775E-13  l -1.41099118642146E-13 -32  l 48 2.11737811174888E-13  l 6.26623013556028E-14 64  l -80 5.09552105347153E-13  l 2.35310451859629E-13 -96  l 112 -3.29185059610809E-13  l 1.06617026254231E-12 128  l -144 -7.0717922054225E-14  l -7.8387298835616E-13 -160  l 176 6.90156839647947E-13  l 2.82039778241325E-13 192  l -208 1.42672608759166E-12  l 4.39329367802199E-13 -224  l 240 -8.22962649027021E-13  l 2.2577443573173E-12 256  l -272 -3.36725466304067E-16  l -1.55205069030286E-12 -288  l 304 1.04317203588832E-12  l 5.17429459622438E-12 320  l 2.35429296141854E-14 -16  l 32 -1.25403832232689E-13  l -2.35280740789073E-13 48  l -64 3.12717285366889E-14  l -4.70313889323511E-13 -80  l 96 -1.08184574157139E-12  l 2.74251557177709E-13 112  l -128 1.00338911690448E-12  l 1.41346710896781E-13 -144  l 160 -2.9791333107412E-12  l 1.72462951497559E-12 176  l -192 1.87868059784584E-13  l -1.32470672593019E-12 -208  l 224 5.49196372668397E-13  l 7.05248000956094E-13 240  l -256 2.13218206604165E-12  l -3.73160582258826E-12 -272  l 288 -1.41079311261775E-12  l 3.12782257664325E-12 304  l -320 -4.07760528559947E-12" stroke="currentcolor" stroke-width="0.25%" fill="transparent" class="foreground-stroke" transform-origin="50% 50%" xmlns="http://www.w3.org/2000/svg">
      </path>
    </pattern>
  </defs>
  <rect width="10000%" height="10000%" x="-5000%" y="-5000%" fill="url(#turtle-pattern)" transform-origin="50% 50%" />
</svg>