<svg xmlns="http://www.w3.org/2000/svg" width="100%" height="100%">
  <defs>
    <pattern id="turtle-pattern" patternUnits="userSpaceOnUse" width="1527.66881227575" height="1512" transform-origin="50% 50%" patternTransform="scale(0.33)">
      <animateTransform type="scale" values="0.66;0.33;0.66" repeatCount="indefinite" dur="23s" additive="sum" attributeType="XML" attributeName="patternTransform" />
      <animateTransform type="rotate" values="0;360" repeatCount="indefinite" dur="41s" additive="sum" attributeType="XML" attributeName="patternTransform" />
      <animateTransform type="skewX" values="-30;30;-30" repeatCount="indefinite" dur="83s" additive="sum" attributeType="XML" attributeName="patternTransform" />
      <animateTransform type="skewY" values="30;-30;30" repeatCount="indefinite" additive="sum" dur="103s" attributeType="XML" attributeName="patternTransform" />
      <animateTransform type="translate" values="0 0;42 42;0 0" repeatCount="indefinite" additive="sum" dur="117s" attributeType="XML" attributeName="patternTransform" />
      <path id="turtle-path" d="m 763.834406 756   l 36.373067 -21 l 5.143517 E -15 -84 l 109.119201 -63 l 1.028703 E -14 -168 l 181.865335 -105 l 218.238402 126 l 2.571758 E -15 42 l 72.746134 42 l 7.715275 E -15 126 l 145.492268 84 l 1.285879 E -14 210 l -218.238402 126 l -36.373067 -21 l -72.746134 42 l -109.119201 -63 l -145.492268 84 l -181.865335 -105 l -4.629165 E -14 -252 l 36.373067 21 l 72.746134 -42 l 109.119201 63 l 145.492268 -84 l 181.865335 105 l 7.715275 E -14 252 l -36.373067 21 l 2.571758 E -14 84 l -109.119201 63 l 5.143517 E -14 168 l -181.865335 105 l -218.238402 -126 l -1.800231 E -14 -42 l -72.746134 -42 l -5.400692 E -14 -126 l -145.492268 -84 l -9.001154 E -14 -210 l 218.238402 -126 l 9.775281 E -14 42 l 72.746134 42 l 2.932584 E -13 126 l 145.492268 84 l 4.887641 E -13 210 l -218.238402 126 l -36.373067 -21 l -72.746134 42 l -109.119201 -63 l -145.492268 84 l -181.865335 -105 l 2.779059 E -13 -252 l 36.373067 -21 l 9.263529 E -14 -84 l 109.119201 -63 l 1.852706 E -13 -168 l 181.865335 -105 l 218.238402 126 l -36.373067 21 l -8.234826 E -14 84 l -109.119201 63 l -1.646965 E -13 168 l -181.865335 105 l -218.238402 -126 l 3.603061 E -14 -42 l -72.746134 -42 l 1.080918 E -13 -126 l -145.492268 -84 l 1.801531 E -13 -210 l 218.238402 -126 l 36.373067 21 l 72.746134 -42 l 109.119201 63 l 145.492268 -84 l 181.865335 105 l 7.099613 E -13 252 l -36.373067 -21 l -72.746134 42 l -109.119201 -63 l -145.492268 84 l -181.865335 -105 l 1.544615 E -13 -252 l 36.373067 -21 l 5.148716 E -14 -84 l 109.119201 -63 l 1.029743 E -13 -168 l 181.865335 -105 l 218.238402 126 l 2.778279 E -13 42 l 72.746134 42 l 8.334837 E -13 126 l 145.492268 84 l 1.389139 E -12 210 l -218.238402 126 l -1.337574 E -13 -42 l -72.746134 -42 l -4.012723 E -13 -126 l -145.492268 -84 l -6.687871 E -13 -210 l 218.238402 -126 l 36.373067 21 l 72.746134 -42 l 109.119201 63 l 145.492268 -84 l 181.865335 105 l -6.187818 E -14 252 l -36.373067 21 l -2.062606 E -14 84 l -109.119201 63 l -4.125212 E -14 168 l -181.865335 105 l -218.238402 -126" stroke="currentcolor" stroke-width="0.25%" fill="#4488ff" class="foreground-stroke" transform-origin="50% 50%" fill-rule="evenodd" xmlns="http://www.w3.org/2000/svg">
      </path>
    </pattern>
  </defs>
  <rect width="10000%" height="10000%" x="-5000%" y="-5000%" fill="url(#turtle-pattern)" transform-origin="50% 50%" />
</svg>