<svg xmlns="http://www.w3.org/2000/svg" width="100%" height="100%">
  <defs>
    <pattern id="turtle-pattern" patternUnits="userSpaceOnUse" width="200" height="200" transform-origin="50% 50%">
      <path id="turtle-path" d="m 0 0  l 200 0  l 0 200  l -200 0  l -0 -200" stroke="transparent" stroke-width="0.25%" fill="transparent" class="foreground-stroke" transform-origin="50% 50%" xmlns="http://www.w3.org/2000/svg">
      </path>
      <g id="turtle-children" xmlns="http://www.w3.org/2000/svg">
        <path id="turtle-s1-path" d="m 0 0  l 2.32026073986735 2.25553938031735  l 2.35262141964235 2.22188427335136  l 2.3853057062151 2.18661113239661  l 2.41831359958559 2.15036717104861  l 2.45164509975384 2.11250517571186  l 2.48497659992209 2.07302514638637  l 2.51863170688809 2.03192708307212  l 2.55228681385408 1.98953459256687  l 2.58626552761783 1.94487685447737  l 2.62056784817933 1.89860108239913  l 2.65487016874083 1.85038366953438  l 2.68917248930232 1.79990100908538  l 2.72379841666157 1.74715310105214  l 2.75842434402082 1.69213994543464  l 2.79272666458232 1.63453793543514  l 2.82735259194157 1.57434707105365  l 2.86165491250306 1.51092013869465  l 2.89563362626681 1.44458074515591  l 2.92961234003056 1.37500528363966  l 2.96294384019881 1.30154654055042  l 2.99562812677156 1.22420451588817  l 3.0276651997488 1.14265560285518  l 3.0587314523328 1.05657619465368  l 3.08882688452355 0.965319077688187  l 3.11730428272555 0.868884251958694  l 3.1441636469388 0.76630089707195  l 3.16875776356779 0.657245406230207  l 3.19043941901704 0.540746959040215  l 3.20920861328654 0.416481948704223  l 3.22377091918529 0.283155948031232  l 3.23315551632004 0.139798136627991  l 3.23606797749979 -0.014885912696499  l 3.23089026873579 -0.181867020335488  l 3.21568074924154 -0.363410433873226  l 3.18687974424179 -0.561781400893964  l 3.1409275789613 -0.778597955386449  l 3.07199933104055 -1.01774337892368  l 2.97103401014256 -1.28245373948317  l 2.82605816475057 -1.5766123186379  l 2.61571374621308 -1.90507321835413  l 2.3056984339686 -2.27042529301385  l 1.83096726166938 -2.66813804744858  l 1.05689980145143 -3.05840784553505  l -0.332020574491478 -3.21891681721904  l -2.77266304312182 -1.66884025599664" stroke="#4488ff" stroke-width="0.25%" fill="transparent" class="foreground-stroke" transform-origin="50% 50%" xmlns="http://www.w3.org/2000/svg">
        </path>
        <path id="turtle-s2-path" d="m 0 0  m 200 0  l -2.25553938031735 2.32026073986735  l -2.22188427335136 2.35262141964235  l -2.18661113239661 2.3853057062151  l -2.15036717104861 2.41831359958559  l -2.11250517571186 2.45164509975384  l -2.07302514638637 2.48497659992209  l -2.03192708307212 2.51863170688809  l -1.98953459256687 2.55228681385408  l -1.94487685447737 2.58626552761783  l -1.89860108239913 2.62056784817933  l -1.85038366953438 2.65487016874083  l -1.79990100908538 2.68917248930232  l -1.74715310105214 2.72379841666157  l -1.69213994543464 2.75842434402082  l -1.63453793543514 2.79272666458232  l -1.57434707105365 2.82735259194157  l -1.51092013869465 2.86165491250306  l -1.44458074515591 2.89563362626681  l -1.37500528363966 2.92961234003056  l -1.30154654055042 2.96294384019881  l -1.22420451588817 2.99562812677156  l -1.14265560285518 3.0276651997488  l -1.05657619465368 3.0587314523328  l -0.965319077688187 3.08882688452355  l -0.868884251958694 3.11730428272555  l -0.76630089707195 3.1441636469388  l -0.657245406230207 3.16875776356779  l -0.540746959040215 3.19043941901704  l -0.416481948704223 3.20920861328654  l -0.283155948031232 3.22377091918529  l -0.139798136627991 3.23315551632004  l 0.014885912696499 3.23606797749979  l 0.181867020335488 3.23089026873579  l 0.363410433873226 3.21568074924154  l 0.561781400893964 3.18687974424179  l 0.778597955386449 3.1409275789613  l 1.01774337892368 3.07199933104055  l 1.28245373948317 2.97103401014256  l 1.5766123186379 2.82605816475057  l 1.90507321835413 2.61571374621308  l 2.27042529301385 2.3056984339686  l 2.66813804744858 1.83096726166938  l 3.05840784553505 1.05689980145143  l 3.21891681721904 -0.332020574491478  l 1.66884025599664 -2.77266304312182" stroke="#4488ff" stroke-width="0.25%" fill="transparent" class="foreground-stroke" transform-origin="50% 50%" xmlns="http://www.w3.org/2000/svg">
        </path>
        <path id="turtle-s3-path" d="m 0 0  m 200 200  l -2.32026073986735 -2.25553938031735  l -2.35262141964235 -2.22188427335136  l -2.3853057062151 -2.18661113239661  l -2.41831359958559 -2.15036717104861  l -2.45164509975384 -2.11250517571186  l -2.48497659992209 -2.07302514638637  l -2.51863170688809 -2.03192708307212  l -2.55228681385408 -1.98953459256687  l -2.58626552761783 -1.94487685447737  l -2.62056784817933 -1.89860108239913  l -2.65487016874083 -1.85038366953438  l -2.68917248930232 -1.79990100908538  l -2.72379841666157 -1.74715310105214  l -2.75842434402082 -1.69213994543464  l -2.79272666458232 -1.63453793543514  l -2.82735259194157 -1.57434707105365  l -2.86165491250306 -1.51092013869465  l -2.89563362626681 -1.44458074515591  l -2.92961234003056 -1.37500528363966  l -2.96294384019881 -1.30154654055042  l -2.99562812677156 -1.22420451588817  l -3.0276651997488 -1.14265560285518  l -3.0587314523328 -1.05657619465368  l -3.08882688452355 -0.965319077688187  l -3.11730428272555 -0.868884251958694  l -3.1441636469388 -0.76630089707195  l -3.16875776356779 -0.657245406230207  l -3.19043941901704 -0.540746959040215  l -3.20920861328654 -0.416481948704223  l -3.22377091918529 -0.283155948031232  l -3.23315551632004 -0.139798136627991  l -3.23606797749979 0.014885912696499  l -3.23089026873579 0.181867020335488  l -3.21568074924154 0.363410433873226  l -3.18687974424179 0.561781400893964  l -3.1409275789613 0.778597955386449  l -3.07199933104055 1.01774337892368  l -2.97103401014256 1.28245373948317  l -2.82605816475057 1.5766123186379  l -2.61571374621308 1.90507321835413  l -2.3056984339686 2.27042529301385  l -1.83096726166938 2.66813804744858  l -1.05689980145143 3.05840784553505  l 0.332020574491478 3.21891681721904  l 2.77266304312182 1.66884025599664" stroke="#4488ff" stroke-width="0.25%" fill="transparent" class="foreground-stroke" transform-origin="50% 50%" xmlns="http://www.w3.org/2000/svg">
        </path>
        <path id="turtle-s4-path" d="m 0 0  m 0 200  l 2.25553938031735 -2.32026073986735  l 2.22188427335136 -2.35262141964235  l 2.18661113239661 -2.3853057062151  l 2.15036717104861 -2.41831359958559  l 2.11250517571186 -2.45164509975384  l 2.07302514638637 -2.48497659992209  l 2.03192708307212 -2.51863170688809  l 1.98953459256687 -2.55228681385408  l 1.94487685447737 -2.58626552761783  l 1.89860108239913 -2.62056784817933  l 1.85038366953438 -2.65487016874083  l 1.79990100908538 -2.68917248930232  l 1.74715310105214 -2.72379841666157  l 1.69213994543464 -2.75842434402082  l 1.63453793543514 -2.79272666458232  l 1.57434707105365 -2.82735259194157  l 1.51092013869465 -2.86165491250306  l 1.44458074515591 -2.89563362626681  l 1.37500528363966 -2.92961234003056  l 1.30154654055042 -2.96294384019881  l 1.22420451588817 -2.99562812677156  l 1.14265560285518 -3.0276651997488  l 1.05657619465368 -3.0587314523328  l 0.965319077688187 -3.08882688452355  l 0.868884251958694 -3.11730428272555  l 0.76630089707195 -3.1441636469388  l 0.657245406230207 -3.16875776356779  l 0.540746959040215 -3.19043941901704  l 0.416481948704223 -3.20920861328654  l 0.283155948031232 -3.22377091918529  l 0.139798136627991 -3.23315551632004  l -0.014885912696499 -3.23606797749979  l -0.181867020335488 -3.23089026873579  l -0.363410433873226 -3.21568074924154  l -0.561781400893964 -3.18687974424179  l -0.778597955386449 -3.1409275789613  l -1.01774337892368 -3.07199933104055  l -1.28245373948317 -2.97103401014256  l -1.5766123186379 -2.82605816475057  l -1.90507321835413 -2.61571374621308  l -2.27042529301385 -2.3056984339686  l -2.66813804744858 -1.83096726166938  l -3.05840784553505 -1.05689980145143  l -3.21891681721904 0.332020574491478  l -1.66884025599664 2.77266304312182" stroke="#4488ff" stroke-width="0.25%" fill="transparent" class="foreground-stroke" transform-origin="50% 50%" xmlns="http://www.w3.org/2000/svg">
        </path>
        <path id="turtle-h1-path" d="m 0 0  m 100 100  l 1.4142 -1.4142  l 1.394 -1.434  l 1.3732 -1.454  l 1.3514 -1.4742  l 1.329 -1.4946  l 1.3056 -1.5152  l 1.2812 -1.5358  l 1.2558 -1.5566  l 1.2296 -1.5774  l 1.202 -1.5984  l 1.1734 -1.6196  l 1.1436 -1.6408  l 1.1124 -1.662  l 1.0798 -1.6834  l 1.0458 -1.7048  l 1.0102 -1.726  l 0.973 -1.7474  l 0.9338 -1.7686  l 0.8928 -1.7896  l 0.8498 -1.8106  l 0.8044 -1.8312  l 0.7566 -1.8514  l 0.7062 -1.8712  l 0.653 -1.8904  l 0.5966 -1.909  l 0.537 -1.9266  l 0.4736 -1.9432  l 0.4062 -1.9584  l 0.3342 -1.9718  l 0.2574 -1.9834  l 0.175 -1.9924  l 0.0864 -1.9982  l -0.0092 -2  l -0.1124 -1.9968  l -0.2246 -1.9874  l -0.347 -1.9696  l -0.4812 -1.9412  l -0.629 -1.8986  l -0.7926 -1.8362  l -0.9744 -1.7466  l -1.1774 -1.6166  l -1.4032 -1.425  l -1.649 -1.1316  l -1.8902 -0.6534  l -1.9894 0.2054" stroke="#4488ff" stroke-width="0.25%" fill="transparent" class="foreground-stroke" transform-origin="50% 50%" xmlns="http://www.w3.org/2000/svg">
        </path>
        <path id="turtle-h2-path" d="m 0 0  m 100 100  l 1.4142 1.4142  l 1.434 1.394  l 1.454 1.3732  l 1.4742 1.3514  l 1.4946 1.329  l 1.5152 1.3056  l 1.5358 1.2812  l 1.5566 1.2558  l 1.5774 1.2296  l 1.5984 1.202  l 1.6196 1.1734  l 1.6408 1.1436  l 1.662 1.1124  l 1.6834 1.0798  l 1.7048 1.0458  l 1.726 1.0102  l 1.7474 0.973  l 1.7686 0.9338  l 1.7896 0.8928  l 1.8106 0.8498  l 1.8312 0.8044  l 1.8514 0.7566  l 1.8712 0.7062  l 1.8904 0.653  l 1.909 0.5966  l 1.9266 0.537  l 1.9432 0.4736  l 1.9584 0.4062  l 1.9718 0.3342  l 1.9834 0.2574  l 1.9924 0.175  l 1.9982 0.0864  l 2 -0.0092  l 1.9968 -0.1124  l 1.9874 -0.2246  l 1.9696 -0.347  l 1.9412 -0.4812  l 1.8986 -0.629  l 1.8362 -0.7926  l 1.7466 -0.9744  l 1.6166 -1.1774  l 1.425 -1.4032  l 1.1316 -1.649  l 0.6534 -1.8902  l -0.2054 -1.9894" stroke="#4488ff" stroke-width="0.25%" fill="transparent" class="foreground-stroke" transform-origin="50% 50%" xmlns="http://www.w3.org/2000/svg">
        </path>
        <path id="turtle-h3-path" d="m 0 0  m 100 100  l -1.4142 1.4142  l -1.394 1.434  l -1.3732 1.454  l -1.3514 1.4742  l -1.329 1.4946  l -1.3056 1.5152  l -1.2812 1.5358  l -1.2558 1.5566  l -1.2296 1.5774  l -1.202 1.5984  l -1.1734 1.6196  l -1.1436 1.6408  l -1.1124 1.662  l -1.0798 1.6834  l -1.0458 1.7048  l -1.0102 1.726  l -0.973 1.7474  l -0.9338 1.7686  l -0.8928 1.7896  l -0.8498 1.8106  l -0.8044 1.8312  l -0.7566 1.8514  l -0.7062 1.8712  l -0.653 1.8904  l -0.5966 1.909  l -0.537 1.9266  l -0.4736 1.9432  l -0.4062 1.9584  l -0.3342 1.9718  l -0.2574 1.9834  l -0.175 1.9924  l -0.0864 1.9982  l 0.0092 2  l 0.1124 1.9968  l 0.2246 1.9874  l 0.347 1.9696  l 0.4812 1.9412  l 0.629 1.8986  l 0.7926 1.8362  l 0.9744 1.7466  l 1.1774 1.6166  l 1.4032 1.425  l 1.649 1.1316  l 1.8902 0.6534  l 1.9894 -0.2054" stroke="#4488ff" stroke-width="0.25%" fill="transparent" class="foreground-stroke" transform-origin="50% 50%" xmlns="http://www.w3.org/2000/svg">
        </path>
        <path id="turtle-h4-path" d="m 0 0  m 100 100  l -1.4142 -1.4142  l -1.434 -1.394  l -1.454 -1.3732  l -1.4742 -1.3514  l -1.4946 -1.329  l -1.5152 -1.3056  l -1.5358 -1.2812  l -1.5566 -1.2558  l -1.5774 -1.2296  l -1.5984 -1.202  l -1.6196 -1.1734  l -1.6408 -1.1436  l -1.662 -1.1124  l -1.6834 -1.0798  l -1.7048 -1.0458  l -1.726 -1.0102  l -1.7474 -0.973  l -1.7686 -0.9338  l -1.7896 -0.8928  l -1.8106 -0.8498  l -1.8312 -0.8044  l -1.8514 -0.7566  l -1.8712 -0.7062  l -1.8904 -0.653  l -1.909 -0.5966  l -1.9266 -0.537  l -1.9432 -0.4736  l -1.9584 -0.4062  l -1.9718 -0.3342  l -1.9834 -0.2574  l -1.9924 -0.175  l -1.9982 -0.0864  l -2 0.0092  l -1.9968 0.1124  l -1.9874 0.2246  l -1.9696 0.347  l -1.9412 0.4812  l -1.8986 0.629  l -1.8362 0.7926  l -1.7466 0.9744  l -1.6166 1.1774  l -1.425 1.4032  l -1.1316 1.649  l -0.6534 1.8902  l 0.2054 1.9894" stroke="#4488ff" stroke-width="0.25%" fill="transparent" class="foreground-stroke" transform-origin="50% 50%" xmlns="http://www.w3.org/2000/svg">
        </path>
      </g>
    </pattern>
  </defs>
  <rect width="10000%" height="10000%" x="-5000%" y="-5000%" fill="url(#turtle-pattern)" transform-origin="50% 50%" />
</svg>