<svg xmlns="http://www.w3.org/2000/svg" width="100%" height="100%">
  <defs>
    <pattern id="turtle-pattern" patternUnits="userSpaceOnUse" width="200" height="200" transform-origin="50% 50%">
      <path id="turtle-path" d="m 0 0  l 200 0  l 0 200  l -200 0  l -0 -200" stroke="transparent" stroke-width="0.25%" fill="transparent" class="foreground-stroke" transform-origin="50% 50%" xmlns="http://www.w3.org/2000/svg">
      </path>
      <g id="turtle-children" xmlns="http://www.w3.org/2000/svg">
        <path id="turtle-t1-path" d="m 0 0  l 1 0  l 1 0.005  l 0.9999 0.0101  l 0.9999 0.0152  l 0.9998 0.0203  l 0.9997 0.0254  l 0.9995 0.0305  l 0.9994 0.0357  l 0.9992 0.0409  l 0.9989 0.0461  l 0.9987 0.0514  l 0.9984 0.0567  l 0.9981 0.062  l 0.9977 0.0673  l 0.9974 0.0727  l 0.9969 0.0781  l 0.9965 0.0835  l 0.996 0.0889  l 0.9955 0.0944  l 0.995 0.0999  l 0.9944 0.1054  l 0.9938 0.111  l 0.9932 0.1166  l 0.9925 0.1222  l 0.9918 0.1278  l 0.9911 0.1335  l 0.9903 0.1392  l 0.9895 0.1449  l 0.9886 0.1506  l 0.9877 0.1564  l 0.9868 0.1622  l 0.9858 0.168  l 0.9848 0.1739  l 0.9837 0.1798  l 0.9826 0.1857  l 0.9815 0.1917  l 0.9803 0.1976  l 0.979 0.2036  l 0.9778 0.2097  l 0.9765 0.2157  l 0.9751 0.2218  l 0.9737 0.228  l 0.9722 0.2341  l 0.9707 0.2403  l 0.9691 0.2465  l 0.9675 0.2528  l 0.9659 0.259  l 0.9642 0.2653  l 0.9624 0.2717  l 0.9606 0.278  l 0.9587 0.2844  l 0.9568 0.2908  l 0.9548 0.2973  l 0.9527 0.3038  l 0.9506 0.3103  l 0.9485 0.3168  l 0.9463 0.3234  l 0.944 0.33  l 0.9416 0.3366  l 0.9392 0.3433  l 0.9368 0.35  l 0.9342 0.3567  l 0.9316 0.3634  l 0.9289 0.3702  l 0.9262 0.377  l 0.9234 0.3839  l 0.9205 0.3908  l 0.9175 0.3976  l 0.9145 0.4046  l 0.9114 0.4115  l 0.9082 0.4185  l 0.9049 0.4255  l 0.9016 0.4326  l 0.8982 0.4397  l 0.8947 0.4468  l 0.8911 0.4539  l 0.8874 0.461  l 0.8836 0.4682  l 0.8797 0.4754  l 0.8758 0.4827  l 0.8718 0.4899  l 0.8676 0.4972  l 0.8634 0.5046  l 0.859 0.5119  l 0.8546 0.5193  l 0.8501 0.5267  l 0.8454 0.5341  l 0.8407 0.5415  l 0.8358 0.549  l 0.8309 0.5565  l 0.8258 0.564  l 0.8206 0.5715  l 0.8153 0.5791  l 0.8098 0.5866  l 0.8043 0.5942  l 0.7986 0.6018  l 0.7928 0.6095  l 0.7869 0.6171  l 0.7808 0.6248  l 0.7746 0.6325  l 0.7683 0.6401  l -0.6478 0.7618  l -0.6401 0.7683  l -0.6323 0.7747  l -0.6243 0.7812  l -0.6162 0.7876  l -0.6079 0.794  l -0.5994 0.8004  l -0.5908 0.8068  l -0.5821 0.8131  l -0.5732 0.8194  l -0.5641 0.8257  l -0.5548 0.832  l -0.5454 0.8382  l -0.5358 0.8444  l -0.526 0.8505  l -0.516 0.8566  l -0.5059 0.8626  l -0.4955 0.8686  l -0.485 0.8745  l -0.4743 0.8804  l -0.4633 0.8862  l -0.4522 0.8919  l -0.4408 0.8976  l -0.4293 0.9032  l -0.4175 0.9087  l -0.4055 0.9141  l -0.3932 0.9194  l -0.3807 0.9247  l -0.368 0.9298  l -0.3551 0.9348  l -0.3419 0.9397  l -0.3284 0.9445  l -0.3147 0.9492  l -0.3008 0.9537  l -0.2865 0.9581  l -0.272 0.9623  l -0.2573 0.9663  l -0.2422 0.9702  l -0.2268 0.9739  l -0.2112 0.9774  l -0.1953 0.9808  l -0.179 0.9838  l -0.1624 0.9867  l -0.1456 0.9893  l -0.1284 0.9917  l -0.1108 0.9938  l -0.093 0.9957  l -0.0748 0.9972  l -0.0562 0.9984  l -0.0373 0.9993  l -0.0181 0.9998  l 0.0016 1  l 0.0215 0.9998  l 0.0419 0.9991  l 0.0626 0.998  l 0.0837 0.9965  l 0.1052 0.9945  l 0.1271 0.9919  l 0.1493 0.9888  l 0.172 0.9851  l 0.195 0.9808  l 0.2184 0.9759  l 0.2422 0.9702  l 0.2664 0.9639  l 0.2909 0.9567  l 0.3158 0.9488  l 0.3411 0.94  l 0.3667 0.9303  l 0.3926 0.9197  l 0.4188 0.9081  l 0.4453 0.8954  l 0.472 0.8816  l 0.499 0.8666  l 0.5261 0.8504  l 0.5533 0.833  l 0.5805 0.8143  l 0.6077 0.7942  l 0.6348 0.7727  l 0.6616 0.7498  l 0.6882 0.7256  l 0.7142 0.6999  l 0.7396 0.673  l 0.7642 0.645  l 0.7878 0.6159  l 0.8101 0.5862  l 0.831 0.5563  l 0.8501 0.5266  l 0.8672 0.498  l 0.882 0.4713  l 0.8941 0.4478  l 0.9035 0.4286  l 0.91 0.4147  l 0.9137 0.4065  l 0.9151 0.4032  l 0.9153 0.4028  l 0.9155 0.4024  l 0.9171 0.3987  l 0.9209 0.3898  l 0.9271 0.3748  l 0.9353 0.3539  l 0.9446 0.3281  l 0.9544 0.2984  l 0.964 0.2658  l 0.9729 0.2313  l 0.9807 0.1954  l 0.9873 0.1589  l 0.9925 0.1222  l 0.9963 0.0855  l 0.9988 0.0492  l 0.9999 0.0134  l 0.9998 -0.0218  l 0.9984 -0.0562  l 0.996 -0.0897  l 0.9925 -0.1224  l 0.988 -0.1541  l 0.9827 -0.185  l 0.9766 -0.2149  l 0.9698 -0.2439  l 0.9623 -0.272  l 0.9542 -0.2992  l 0.9456 -0.3255  l 0.9364 -0.3509  l 0.9268 -0.3755  l 0.9168 -0.3993  l 0.9065 -0.4222  l 0.8958 -0.4444  l 0.8849 -0.4659  l 0.8736 -0.4866  l 0.8622 -0.5066  l 0.8505 -0.5259  l 0.8387 -0.5446  l 0.8267 -0.5626  l 0.8146 -0.58  l 0.8024 -0.5968  l 0.7901 -0.613  l 0.7776 -0.6287  l 0.7652 -0.6438  l 0.7526 -0.6585  l 0.74 -0.6726  l 0.7274 -0.6862  l 0.7148 -0.6994  l 0.7021 -0.7121  l 0.6895 -0.7243  l 0.6768 -0.7361  l 0.6642 -0.7476  l 0.6516 -0.7586  l 0.639 -0.7692  l 0.6264 -0.7795  l 0.6139 -0.7894  l 0.6014 -0.799  l 0.5889 -0.8082  l 0.5765 -0.8171  l 0.5642 -0.8256  l 0.5519 -0.8339  l 0.5397 -0.8419  l 0.5275 -0.8496  l 0.5154 -0.857  l 0.5033 -0.8641  l 0.4914 -0.871  l 0.4795 -0.8776  l 0.4676 -0.8839  l 0.4559 -0.8901  l 0.4442 -0.8959  l 0.4325 -0.9016  l 0.421 -0.9071  l 0.4095 -0.9123  l 0.3981 -0.9173  l 0.3868 -0.9221  l 0.3756 -0.9268  l 0.3645 -0.9312  l 0.3534 -0.9355  l 0.3424 -0.9396  l 0.3315 -0.9435  l 0.3206 -0.9472  l 0.3099 -0.9508  l 0.2992 -0.9542  l 0.2886 -0.9574  l 0.2781 -0.9605  l 0.2677 -0.9635  l 0.2573 -0.9663  l 0.2471 -0.969  l 0.2369 -0.9715  l 0.2268 -0.974  l 0.2167 -0.9762  l 0.2068 -0.9784  l 0.1969 -0.9804  l 0.1871 -0.9823  l -0.9841 -0.1774  l 0.1675 -0.9859  l 0.1476 -0.989  l 0.1277 -0.9918  l 0.1077 -0.9942  l 0.0878 -0.9961  l 0.0678 -0.9977  l 0.0479 -0.9989  l 0.028 -0.9996  l -1 -0.0081  l -0.0018 -1  l -0.9999 0.0101  l -1 0.0085  l -0.0185 -0.9998  l -0.9996 0.027  l -0.9997 0.0256  l -0.9997 0.0245  l -0.9997 0.0236  l -0.9997 0.0229  l -0.9997 0.0224  l -0.9998 0.0221  l -0.9998 0.0221  l -0.9998 0.0222  l -0.9997 0.0225  l -0.9997 0.023  l -0.9997 0.0237  l -0.9997 0.0246  l -0.9997 0.0257  l -0.9996 0.027  l -0.9996 0.0285  l -0.9995 0.0301  l -0.9995 0.032  l -0.0418 -0.9991  l -0.0619 -0.9981  l -0.0819 -0.9966  l -0.1019 -0.9948  l -0.122 -0.9925  l -0.1421 -0.9899  l -0.1621 -0.9868  l -0.1821 -0.9833  l -0.202 -0.9794  l -0.2219 -0.9751  l -0.2417 -0.9704  l -0.2613 -0.9653  l -0.2808 -0.9598  l -0.3002 -0.9539  l -0.3195 -0.9476  l -0.3385 -0.941  l -0.3574 -0.934  l -0.3761 -0.9266  l -0.3946 -0.9189  l -0.4128 -0.9108  l -0.9074 0.4202  l -0.9082 0.4186  l -0.4275 -0.904  l -0.9004 0.435  l -0.9011 0.4336  l -0.4426 -0.8967  l -0.8929 0.4502  l -0.8935 0.449  l -0.894 0.4481  l -0.8944 0.4473  l -0.8947 0.4467  l -0.8949 0.4463  l -0.895 0.4461  l -0.895 0.446  l -0.895 0.4462  l -0.8948 0.4465  l -0.8946 0.447  l -0.8942 0.4476  l -0.8938 0.4485  l -0.8933 0.4495  l -0.8927 0.4506  l -0.892 0.452  l -0.8913 0.4535  l -0.4623 -0.8867  l -0.8813 0.4726  l -0.4813 -0.8766  l -0.4987 -0.8668  l -0.8609 0.5088  l -0.5173 -0.8558  l -0.5344 -0.8452  l -0.5514 -0.8343  l -0.5681 -0.823  l -0.5846 -0.8113  l -0.601 -0.7993  l -0.617 -0.7869  l -0.6329 -0.7742  l -0.6485 -0.7613  l -0.6638 -0.7479  l -0.6788 -0.7344  l -0.6935 -0.7205  l -0.7079 -0.7063  l -0.722 -0.6919  l -0.7358 -0.6772  l -0.7492 -0.6624  l -0.7623 -0.6473  l -0.6409 0.7676  l -0.7739 -0.6333  l -0.7864 -0.6177  l -0.6113 0.7914  l -0.6127 0.7903  l -0.7963 -0.6048  l -0.5982 0.8013  l -0.5994 0.8004  l -0.5915 0.8063  l -0.5926 0.8055  l -0.5935 0.8048  l -0.5943 0.8043  l -0.5949 0.8038  l -0.5953 0.8035  l -0.5955 0.8033" stroke="#4488ff" stroke-width="0.25%" fill="transparent" class="foreground-stroke" transform-origin="50% 50%" xmlns="http://www.w3.org/2000/svg">
        </path>
        <path id="turtle-t2-path" d="m 0 0  m 200 0  l 0 1  l -0.005 1  l -0.0101 0.9999  l -0.0152 0.9999  l -0.0203 0.9998  l -0.0254 0.9997  l -0.0305 0.9995  l -0.0357 0.9994  l -0.0409 0.9992  l -0.0461 0.9989  l -0.0514 0.9987  l -0.0567 0.9984  l -0.062 0.9981  l -0.0673 0.9977  l -0.0727 0.9974  l -0.0781 0.9969  l -0.0835 0.9965  l -0.0889 0.996  l -0.0944 0.9955  l -0.0999 0.995  l -0.1054 0.9944  l -0.111 0.9938  l -0.1166 0.9932  l -0.1222 0.9925  l -0.1278 0.9918  l -0.1335 0.9911  l -0.1392 0.9903  l -0.1449 0.9895  l -0.1506 0.9886  l -0.1564 0.9877  l -0.1622 0.9868  l -0.168 0.9858  l -0.1739 0.9848  l -0.1798 0.9837  l -0.1857 0.9826  l -0.1917 0.9815  l -0.1976 0.9803  l -0.2036 0.979  l -0.2097 0.9778  l -0.2157 0.9765  l -0.2218 0.9751  l -0.228 0.9737  l -0.2341 0.9722  l -0.2403 0.9707  l -0.2465 0.9691  l -0.2528 0.9675  l -0.259 0.9659  l -0.2653 0.9642  l -0.2717 0.9624  l -0.278 0.9606  l -0.2844 0.9587  l -0.2908 0.9568  l -0.2973 0.9548  l -0.3038 0.9527  l -0.3103 0.9506  l -0.3168 0.9485  l -0.3234 0.9463  l -0.33 0.944  l -0.3366 0.9416  l -0.3433 0.9392  l -0.35 0.9368  l -0.3567 0.9342  l -0.3634 0.9316  l -0.3702 0.9289  l -0.377 0.9262  l -0.3839 0.9234  l -0.3908 0.9205  l -0.3977 0.9175  l -0.4046 0.9145  l -0.4115 0.9114  l -0.4185 0.9082  l -0.4255 0.9049  l -0.4326 0.9016  l -0.4397 0.8982  l -0.4468 0.8947  l -0.4539 0.8911  l -0.4611 0.8874  l -0.4682 0.8836  l -0.4755 0.8797  l -0.4827 0.8758  l -0.49 0.8717  l -0.4973 0.8676  l -0.5046 0.8634  l -0.5119 0.859  l -0.5193 0.8546  l -0.5267 0.8501  l -0.5341 0.8454  l -0.5415 0.8407  l -0.549 0.8358  l -0.5565 0.8308  l -0.564 0.8258  l -0.5715 0.8206  l -0.5791 0.8153  l -0.5867 0.8098  l -0.5943 0.8043  l -0.6019 0.7986  l -0.6095 0.7928  l -0.6172 0.7868  l -0.6248 0.7808  l -0.6325 0.7746  l -0.6402 0.7682  l -0.7682 -0.6402  l -0.7748 -0.6322  l -0.7813 -0.6241  l -0.7878 -0.6159  l -0.7943 -0.6075  l -0.8008 -0.5989  l -0.8073 -0.5902  l -0.8137 -0.5813  l -0.8201 -0.5722  l -0.8265 -0.563  l -0.8328 -0.5536  l -0.8391 -0.544  l -0.8454 -0.5342  l -0.8516 -0.5242  l -0.8577 -0.5141  l -0.8639 -0.5037  l -0.87 -0.4931  l -0.876 -0.4824  l -0.8819 -0.4714  l -0.8878 -0.4602  l -0.8936 -0.4488  l -0.8994 -0.4371  l -0.9051 -0.4252  l -0.9107 -0.4131  l -0.9162 -0.4008  l -0.9216 -0.3882  l -0.9269 -0.3753  l -0.9321 -0.3622  l -0.9372 -0.3489  l -0.9421 -0.3352  l -0.947 -0.3213  l -0.9517 -0.3071  l -0.9562 -0.2926  l -0.9606 -0.2778  l -0.9649 -0.2628  l -0.9689 -0.2474  l -0.9728 -0.2316  l -0.9765 -0.2156  l -0.98 -0.1992  l -0.9832 -0.1825  l -0.9862 -0.1654  l -0.989 -0.148  l -0.9915 -0.1302  l -0.9937 -0.1121  l -0.9956 -0.0935  l -0.9972 -0.0745  l -0.9985 -0.0552  l -0.9994 -0.0354  l -0.9999 -0.0152  l -1 0.0054  l -0.9996 0.0265  l -0.9988 0.048  l -0.9975 0.07  l -0.9957 0.0925  l -0.9933 0.1154  l -0.9903 0.1389  l -0.9867 0.1628  l -0.9823 0.1873  l -0.9772 0.2123  l -0.9713 0.2379  l -0.9645 0.264  l -0.9568 0.2907  l -0.9481 0.3179  l -0.9384 0.3457  l -0.9274 0.374  l -0.9152 0.4029  l -0.9017 0.4325  l -0.8866 0.4625  l -0.8699 0.4931  l -0.8515 0.5243  l -0.8312 0.556  l -0.8088 0.5881  l -0.784 0.6207  l -0.7568 0.6537  l -0.7267 0.687  l -0.6936 0.7204  l -0.657 0.7539  l -0.6167 0.7872  l -0.5721 0.8202  l -0.5228 0.8525  l -0.4683 0.8836  l -0.4078 0.9131  l -0.3408 0.9401  l -0.2664 0.9639  l -0.1838 0.983  l -0.0922 0.9957  l 0.0091 1  l 0.1205 0.9927  l 0.2419 0.9703  l 0.3719 0.9283  l 0.5074 0.8617  l 0.6425 0.7663  l 0.7687 0.6396  l 0.8752 0.4838  l 0.9519 0.3064  l 0.9928 0.1199  l 0.9981 -0.0622  l 0.9734 -0.2293  l 0.9268 -0.3755  l 0.8663 -0.4995  l 0.7981 -0.6025  l 0.7266 -0.6871  l 0.6545 -0.756  l 0.5836 -0.812  l 0.5148 -0.8573  l 0.4486 -0.8937  l 0.3853 -0.9228  l 0.3249 -0.9458  l 0.2673 -0.9636  l 0.2126 -0.9771  l 0.1605 -0.987  l 0.1109 -0.9938  l 0.0637 -0.998  l 0.0188 -0.9998  l -0.0241 -0.9997  l -0.0649 -0.9979  l -0.1039 -0.9946  l -0.1412 -0.99  l -0.1767 -0.9843  l -0.2107 -0.9775  l -0.2432 -0.97  l -0.2743 -0.9616  l -0.3041 -0.9526  l -0.3327 -0.943  l -0.3601 -0.9329  l -0.3863 -0.9224  l -0.4115 -0.9114  l -0.4356 -0.9001  l -0.4588 -0.8885  l -0.4811 -0.8767  l -0.5025 -0.8646  l -0.5231 -0.8523  l -0.5428 -0.8398  l -0.5618 -0.8273  l -0.5801 -0.8145  l -0.5977 -0.8017  l -0.6146 -0.7888  l -0.6309 -0.7759  l -0.6466 -0.7629  l -0.6616 -0.7498  l -0.6762 -0.7368  l -0.6901 -0.7237  l -0.7036 -0.7106  l -0.7166 -0.6975  l -0.729 -0.6845  l -0.7411 -0.6714  l -0.7526 -0.6584  l -0.7638 -0.6455  l -0.7745 -0.6325  l -0.7849 -0.6196  l -0.7948 -0.6068  l -0.8044 -0.594  l -0.8137 -0.5813  l -0.8226 -0.5687  l -0.8311 -0.5561  l -0.8394 -0.5436  l -0.8473 -0.5311  l -0.8549 -0.5187  l -0.8623 -0.5064  l -0.8693 -0.4942  l -0.8761 -0.4821  l -0.8827 -0.47  l -0.889 -0.458  l -0.895 -0.4461  l -0.9008 -0.4343  l -0.9064 -0.4225  l -0.9117 -0.4109  l -0.9168 -0.3993  l -0.9217 -0.3878  l -0.9265 -0.3764  l -0.931 -0.3651  l -0.9353 -0.3539  l -0.9394 -0.3427  l -0.9434 -0.3316  l -0.9472 -0.3207  l -0.9508 -0.3098  l -0.9543 -0.299  l -0.9576 -0.2883  l -0.9607 -0.2776  l -0.9637 -0.2671  l -0.9665 -0.2566  l -0.9692 -0.2462  l -0.9718 -0.236  l -0.9742 -0.2257  l -0.9765 -0.2156  l -0.9786 -0.2056  l -0.9807 -0.1956  l -0.1857 0.9826  l -0.1855 0.9827  l -0.1851 0.9827  l -0.1846 0.9828  l -0.1838 0.983  l -0.1829 0.9831  l -0.1818 0.9833  l -0.1805 0.9836  l -0.179 0.9838  l -0.1774 0.9841  l -0.9858 -0.1677  l -0.989 -0.148  l -0.1365 0.9906  l -0.9919 -0.1267  l -0.9943 -0.1068  l -0.9962 -0.0868  l -0.9978 -0.0668  l -0.9989 -0.0466  l -0.9996 -0.0265  l -1 -0.0063  l -0.9999 0.0139  l -0.9994 0.0341  l -0.9985 0.0543  l -0.9972 0.0745  l -0.9955 0.0946  l -0.9934 0.1146  l -0.9909 0.1345  l -0.988 0.1543  l -0.9847 0.1741  l -0.9811 0.1937  l -0.977 0.2131  l 0.2211 0.9753  l 0.2194 0.9756  l 0.229 0.9734  l 0.2274 0.9738  l 0.2261 0.9741  l 0.2249 0.9744  l 0.224 0.9746  l 0.2232 0.9748  l 0.2227 0.9749  l 0.2223 0.975  l 0.2222 0.975  l 0.2223 0.975  l 0.2225 0.9749  l 0.223 0.9748  l 0.2236 0.9747  l 0.2244 0.9745  l 0.2255 0.9743  l 0.2267 0.974  l 0.228 0.9737  l 0.2296 0.9733  l -0.971 0.2393  l -0.9681 0.2507  l 0.2621 0.965  l -0.9624 0.2716  l -0.9568 0.2907  l 0.3018 0.9534  l -0.9503 0.3112  l -0.9439 0.3302  l -0.9371 0.3491  l -0.9299 0.3679  l -0.9222 0.3866  l -0.9142 0.4052  l -0.9059 0.4236  l -0.8971 0.4418  l -0.888 0.4598  l -0.8785 0.4777  l -0.8687 0.4953  l -0.8585 0.5127  l -0.8481 0.5299  l -0.8372 0.5468  l -0.8261 0.5635  l -0.8147 0.5799  l -0.803 0.596  l 0.6027 0.798  l -0.792 0.6105  l 0.6261 0.7797  l 0.6247 0.7808  l -0.7746 0.6324  l 0.6389 0.7693  l 0.6377 0.7703  l 0.6366 0.7712  l 0.6357 0.7719  l 0.635 0.7726  l 0.6344 0.773  l 0.6339 0.7734  l 0.6337 0.7736  l 0.6335 0.7737  l 0.6336 0.7737  l 0.6338 0.7735  l 0.6341 0.7732  l 0.6346 0.7728  l 0.6353 0.7723  l 0.6361 0.7716  l 0.637 0.7709  l 0.6381 0.77  l -0.7636 0.6457  l 0.6545 0.756  l 0.6558 0.7549  l -0.7484 0.6633  l -0.7405 0.672  l 0.6807 0.7326  l -0.7258 0.6879  l -0.712 0.7022  l 0.7104 0.7038  l -0.6967 0.7173  l -0.6822 0.7311  l -0.6674 0.7447  l -0.6523 0.758  l -0.6368 0.771  l -0.6211 0.7837  l -0.6052 0.7961" stroke="#4488ff" stroke-width="0.25%" fill="transparent" class="foreground-stroke" transform-origin="50% 50%" xmlns="http://www.w3.org/2000/svg">
        </path>
        <path id="turtle-t3-path" d="m 0 0  m 200 200  l -1 0  l -1 -0.005  l -0.9999 -0.0101  l -0.9999 -0.0152  l -0.9998 -0.0203  l -0.9997 -0.0254  l -0.9995 -0.0305  l -0.9994 -0.0357  l -0.9992 -0.0409  l -0.9989 -0.0461  l -0.9987 -0.0514  l -0.9984 -0.0567  l -0.9981 -0.062  l -0.9977 -0.0673  l -0.9974 -0.0727  l -0.9969 -0.0781  l -0.9965 -0.0835  l -0.996 -0.089  l -0.9955 -0.0944  l -0.995 -0.0999  l -0.9944 -0.1055  l -0.9938 -0.111  l -0.9932 -0.1166  l -0.9925 -0.1222  l -0.9918 -0.1278  l -0.991 -0.1335  l -0.9903 -0.1392  l -0.9894 -0.1449  l -0.9886 -0.1507  l -0.9877 -0.1565  l -0.9867 -0.1623  l -0.9858 -0.1681  l -0.9847 -0.174  l -0.9837 -0.1799  l -0.9826 -0.1858  l -0.9814 -0.1918  l -0.9803 -0.1977  l -0.979 -0.2038  l -0.9777 -0.2098  l -0.9764 -0.2159  l -0.9751 -0.222  l -0.9736 -0.2281  l -0.9722 -0.2343  l -0.9707 -0.2404  l -0.9691 -0.2467  l -0.9675 -0.2529  l -0.9658 -0.2592  l -0.9641 -0.2655  l -0.9623 -0.2719  l -0.9605 -0.2782  l -0.9586 -0.2846  l -0.9567 -0.2911  l -0.9547 -0.2975  l -0.9527 -0.304  l -0.9506 -0.3105  l -0.9484 -0.3171  l -0.9462 -0.3237  l -0.9439 -0.3303  l -0.9415 -0.3369  l -0.9391 -0.3436  l -0.9366 -0.3503  l -0.9341 -0.357  l -0.9315 -0.3638  l -0.9288 -0.3706  l -0.926 -0.3774  l -0.9232 -0.3843  l -0.9203 -0.3912  l -0.9173 -0.3981  l -0.9143 -0.405  l -0.9112 -0.412  l -0.908 -0.419  l -0.9047 -0.426  l -0.9013 -0.4331  l -0.8979 -0.4402  l -0.8944 -0.4473  l -0.8908 -0.4545  l -0.8871 -0.4616  l -0.8833 -0.4688  l -0.8794 -0.4761  l -0.8754 -0.4833  l -0.8714 -0.4906  l -0.8672 -0.4979  l -0.863 -0.5053  l -0.8586 -0.5126  l -0.8541 -0.52  l -0.8496 -0.5274  l -0.8449 -0.5349  l -0.8402 -0.5423  l -0.8353 -0.5498  l -0.8303 -0.5573  l -0.8252 -0.5649  l -0.8199 -0.5724  l -0.8146 -0.58  l -0.8091 -0.5876  l -0.8036 -0.5952  l -0.7978 -0.6029  l -0.792 -0.6105  l -0.786 -0.6182  l -0.7799 -0.6259  l -0.7737 -0.6336  l 0.6413 -0.7673  l 0.6413 -0.7673  l 0.6335 -0.7738  l 0.6255 -0.7802  l 0.6174 -0.7867  l 0.6091 -0.7931  l 0.6007 -0.7995  l 0.5921 -0.8059  l 0.5834 -0.8122  l 0.5745 -0.8185  l 0.5654 -0.8248  l 0.5562 -0.8311  l 0.5468 -0.8373  l 0.5372 -0.8435  l 0.5274 -0.8496  l 0.5175 -0.8557  l 0.5074 -0.8617  l 0.497 -0.8677  l 0.4865 -0.8737  l 0.4758 -0.8795  l 0.4649 -0.8854  l 0.4538 -0.8911  l 0.4425 -0.8968  l 0.4309 -0.9024  l 0.4191 -0.9079  l 0.4072 -0.9134  l 0.395 -0.9187  l 0.3825 -0.924  l 0.3698 -0.9291  l 0.3569 -0.9341  l 0.3437 -0.9391  l 0.3303 -0.9439  l 0.3166 -0.9485  l 0.3027 -0.9531  l 0.2885 -0.9575  l 0.274 -0.9617  l 0.2593 -0.9658  l 0.2442 -0.9697  l 0.2289 -0.9734  l 0.2133 -0.977  l 0.1974 -0.9803  l 0.1812 -0.9835  l 0.1646 -0.9864  l 0.1478 -0.989  l 0.1306 -0.9914  l 0.1131 -0.9936  l 0.0953 -0.9955  l 0.0771 -0.997  l 0.0585 -0.9983  l 0.0397 -0.9992  l 0.0204 -0.9998  l 0.0008 -1  l -0.0191 -0.9998  l -0.0395 -0.9992  l -0.0602 -0.9982  l -0.0813 -0.9967  l -0.1028 -0.9947  l -0.1247 -0.9922  l -0.147 -0.9891  l -0.1696 -0.9855  l -0.1927 -0.9813  l -0.2161 -0.9764  l -0.24 -0.9708  l -0.2642 -0.9645  l -0.2888 -0.9574  l -0.3138 -0.9495  l -0.3392 -0.9407  l -0.3649 -0.931  l -0.391 -0.9204  l -0.4174 -0.9087  l -0.4441 -0.896  l -0.471 -0.8821  l -0.4982 -0.867  l -0.5256 -0.8507  l -0.5532 -0.8331  l -0.5808 -0.814  l -0.6085 -0.7936  l -0.6361 -0.7716  l -0.6636 -0.7481  l -0.6908 -0.723  l -0.7177 -0.6963  l -0.7441 -0.6681  l -0.7697 -0.6384  l -0.7945 -0.6072  l -0.8183 -0.5748  l -0.8408 -0.5414  l -0.8617 -0.5075  l -0.8808 -0.4735  l -0.8978 -0.4404  l -0.9125 -0.4091  l -0.9247 -0.3808  l -0.9341 -0.357  l -0.9408 -0.3389  l -0.9449 -0.3272  l -0.9468 -0.3217  l -0.9473 -0.3204  l -0.9473 -0.3204  l -0.9479 -0.3184  l -0.95 -0.3122  l -0.9537 -0.3006  l -0.959 -0.2835  l -0.9652 -0.2616  l -0.9718 -0.2357  l -0.9784 -0.2068  l -0.9844 -0.1757  l -0.9897 -0.1431  l -0.994 -0.1096  l -0.9971 -0.0756  l -0.9991 -0.0415  l -1 -0.0075  l -0.9997 0.0261  l -0.9982 0.0592  l -0.9958 0.0917  l -0.9923 0.1235  l -0.988 0.1545  l -0.9828 0.1848  l -0.9768 0.2142  l -0.9701 0.2428  l -0.9627 0.2705  l -0.9547 0.2974  l -0.9462 0.3235  l -0.9372 0.3487  l -0.9278 0.3732  l -0.9179 0.3968  l -0.9077 0.4197  l -0.8971 0.4418  l -0.8862 0.4632  l -0.8751 0.4839  l -0.8638 0.5039  l -0.8522 0.5232  l -0.8405 0.5419  l -0.8286 0.5599  l -0.8165 0.5773  l -0.8043 0.5942  l -0.7921 0.6104  l -0.7797 0.6262  l -0.7673 0.6413  l -0.7548 0.656  l -0.7422 0.6701  l -0.7297 0.6838  l -0.717 0.697  l -0.7044 0.7098  l -0.6918 0.7221  l -0.6792 0.734  l -0.6666 0.7454  l -0.654 0.7565  l -0.6414 0.7672  l -0.6288 0.7775  l -0.6163 0.7875  l -0.6038 0.7971  l -0.5914 0.8064  l -0.579 0.8153  l -0.5667 0.8239  l -0.5544 0.8323  l -0.5422 0.8403  l -0.53 0.848  l -0.5179 0.8555  l -0.5058 0.8626  l -0.4939 0.8695  l -0.4819 0.8762  l -0.4701 0.8826  l -0.4583 0.8888  l -0.4466 0.8947  l -0.435 0.9004  l -0.4235 0.9059  l -0.412 0.9112  l -0.4006 0.9163  l -0.3893 0.9211  l -0.378 0.9258  l -0.3669 0.9303  l -0.3558 0.9346  l -0.3448 0.9387  l -0.3339 0.9426  l -0.323 0.9464  l -0.3123 0.95  l -0.3016 0.9534  l -0.291 0.9567  l -0.2804 0.9599  l -0.27 0.9629  l -0.2596 0.9657  l -0.2494 0.9684  l -0.2392 0.971  l -0.229 0.9734  l -0.219 0.9757  l -0.209 0.9779  l -0.1991 0.98  l -0.1893 0.9819  l -0.1796 0.9837  l -0.1595 0.9872  l -0.1499 0.9887  l -0.1299 0.9915  l -0.1099 0.9939  l -0.0899 0.996  l -0.0699 0.9976  l -0.0499 0.9988  l -0.0299 0.9996  l -0.01 0.9999  l 1 -0.0098  l 1 -0.008  l 0.0179 0.9998  l 0.9997 -0.0262  l 0.9997 -0.0247  l 0.9997 -0.0232  l 0.9998 -0.022  l 0.9998 -0.021  l 0.9998 -0.0202  l 0.9998 -0.0196  l 0.9998 -0.0192  l 0.9998 -0.019  l 0.9998 -0.0191  l 0.9998 -0.0193  l 0.9998 -0.0197  l 0.9998 -0.0203  l 0.9998 -0.0211  l 0.9998 -0.0221  l 0.9997 -0.0233  l 0.9997 -0.0247  l 0.9997 -0.0263  l 0.0362 0.9993  l 0.048 0.9988  l 0.9982 -0.0597  l 0.0695 0.9976  l 0.0894 0.996  l 0.1093 0.994  l 0.1292 0.9916  l 0.1491 0.9888  l 0.169 0.9856  l 0.1888 0.982  l 0.2085 0.978  l 0.2282 0.9736  l 0.2478 0.9688  l 0.2673 0.9636  l 0.2866 0.958  l 0.3058 0.9521  l 0.3249 0.9457  l 0.3438 0.939  l 0.3625 0.932  l 0.381 0.9246  l 0.9168 -0.3993  l 0.4084 0.9128  l 0.4265 0.9045  l 0.901 -0.4338  l 0.9018 -0.4322  l 0.4412 0.8974  l 0.8937 -0.4486  l 0.8944 -0.4473  l 0.895 -0.446  l 0.8955 -0.445  l 0.896 -0.4441  l 0.8963 -0.4434  l 0.8965 -0.443  l 0.8967 -0.4427  l 0.8968 -0.4425  l 0.8967 -0.4426  l 0.8966 -0.4428  l 0.8964 -0.4432  l 0.8961 -0.4438  l 0.8957 -0.4446  l 0.8953 -0.4455  l 0.8947 -0.4466  l 0.8941 -0.4479  l 0.4568 0.8896  l 0.8842 -0.467  l 0.8835 -0.4685  l 0.4773 0.8788  l 0.8731 -0.4875  l 0.4962 0.8682  l 0.5136 0.858  l 0.5234 0.8521  l 0.5403 0.8415  l 0.5571 0.8305  l 0.5736 0.8191  l 0.5899 0.8075  l 0.6061 0.7954  l 0.6219 0.7831  l 0.6376 0.7704  l 0.6529 0.7574  l 0.6681 0.7441  l 0.6829 0.7305  l 0.6974 0.7167  l 0.7116 0.7026  l 0.7255 0.6882  l 0.7391 0.6736  l 0.6587 -0.7524  l 0.7589 0.6512  l 0.7718 0.6359  l 0.6295 -0.777  l 0.7832 0.6217  l 0.7954 0.606  l 0.5996 -0.8003  l 0.6009 -0.7993  l 0.8052 0.593  l 0.5862 -0.8101  l 0.5874 -0.8093  l 0.5884 -0.8085  l 0.5893 -0.8079  l 0.5899 -0.8074  l 0.5904 -0.8071  l 0.5908 -0.8068  l 0.5909 -0.8067" stroke="#4488ff" stroke-width="0.25%" fill="transparent" class="foreground-stroke" transform-origin="50% 50%" xmlns="http://www.w3.org/2000/svg">
        </path>
        <path id="turtle-t4-path" d="m 0 0  m 0 200  l 0.005 -1  l 0.01 -0.9999  l 0.0151 -0.9999  l 0.0201 -0.9998  l 0.0253 -0.9997  l 0.0304 -0.9995  l 0.0355 -0.9994  l 0.0407 -0.9992  l 0.0459 -0.9989  l 0.0511 -0.9987  l 0.0564 -0.9984  l 0.0617 -0.9981  l 0.067 -0.9978  l 0.0723 -0.9974  l 0.0777 -0.997  l 0.0831 -0.9965  l 0.0885 -0.9961  l 0.0939 -0.9956  l 0.0994 -0.995  l 0.1049 -0.9945  l 0.1104 -0.9939  l 0.1159 -0.9933  l 0.1215 -0.9926  l 0.1271 -0.9919  l 0.1328 -0.9911  l 0.1384 -0.9904  l 0.1441 -0.9896  l 0.1498 -0.9887  l 0.1556 -0.9878  l 0.1613 -0.9869  l 0.1671 -0.9859  l 0.173 -0.9849  l 0.1788 -0.9839  l 0.1847 -0.9828  l 0.1906 -0.9817  l 0.1966 -0.9805  l 0.2025 -0.9793  l 0.2085 -0.978  l 0.2146 -0.9767  l 0.2206 -0.9754  l 0.2267 -0.974  l 0.2328 -0.9725  l 0.239 -0.971  l 0.2452 -0.9695  l 0.2514 -0.9679  l 0.2576 -0.9663  l 0.2639 -0.9646  l 0.2702 -0.9628  l 0.2765 -0.961  l 0.2828 -0.9592  l 0.2892 -0.9573  l 0.2956 -0.9553  l 0.3021 -0.9533  l 0.3085 -0.9512  l 0.3151 -0.9491  l 0.3216 -0.9469  l 0.3281 -0.9446  l 0.3347 -0.9423  l 0.3414 -0.9399  l 0.348 -0.9375  l 0.3547 -0.935  l 0.3614 -0.9324  l 0.3681 -0.9298  l 0.3749 -0.9271  l 0.3817 -0.9243  l 0.3885 -0.9214  l 0.3954 -0.9185  l 0.4023 -0.9155  l 0.4092 -0.9124  l 0.4162 -0.9093  l 0.4231 -0.9061  l 0.4301 -0.9028  l 0.4372 -0.8994  l 0.4442 -0.8959  l 0.4513 -0.8924  l 0.4584 -0.8887  l 0.4656 -0.885  l 0.4727 -0.8812  l 0.4799 -0.8773  l 0.4872 -0.8733  l 0.4944 -0.8692  l 0.5017 -0.865  l 0.509 -0.8608  l 0.5163 -0.8564  l 0.5237 -0.8519  l 0.5311 -0.8473  l 0.5385 -0.8426  l 0.5459 -0.8379  l 0.5533 -0.833  l 0.5608 -0.8279  l 0.5683 -0.8228  l 0.5758 -0.8176  l 0.5834 -0.8122  l 0.5909 -0.8067  l 0.5985 -0.8011  l 0.6061 -0.7954  l 0.6137 -0.7896  l 0.6213 -0.7836  l 0.6289 -0.7774  l 0.6366 -0.7712  l 0.6443 -0.7648  l 0.7648 0.6442  l 0.7714 0.6364  l 0.7779 0.6284  l 0.7844 0.6202  l 0.791 0.6119  l 0.7974 0.6034  l 0.8039 0.5947  l 0.8104 0.5859  l 0.8168 0.577  l 0.8232 0.5678  l 0.8295 0.5585  l 0.8358 0.549  l 0.8421 0.5393  l 0.8484 0.5294  l 0.8546 0.5194  l 0.8607 0.5091  l 0.8668 0.4986  l 0.8729 0.488  l 0.8789 0.4771  l 0.8848 0.466  l 0.8906 0.4547  l 0.8964 0.4432  l 0.9022 0.4314  l 0.9078 0.4194  l 0.9133 0.4072  l 0.9188 0.3947  l 0.9242 0.382  l 0.9294 0.369  l 0.9346 0.3558  l 0.9396 0.3423  l 0.9445 0.3285  l 0.9493 0.3144  l 0.9539 0.3001  l 0.9584 0.2854  l 0.9627 0.2705  l 0.9669 0.2553  l 0.9708 0.2397  l 0.9746 0.2238  l 0.9782 0.2076  l 0.9816 0.191  l 0.9847 0.1741  l 0.9876 0.1569  l 0.9903 0.1393  l 0.9926 0.1213  l 0.9947 0.1029  l 0.9965 0.0841  l 0.9979 0.0649  l 0.999 0.0454  l 0.9997 0.0254  l 1 0.0049  l 0.9999 -0.016  l 0.9993 -0.0373  l 0.9983 -0.0591  l 0.9967 -0.0814  l 0.9946 -0.1041  l 0.9919 -0.1274  l 0.9885 -0.1512  l 0.9845 -0.1755  l 0.9797 -0.2003  l 0.9742 -0.2257  l 0.9678 -0.2516  l 0.9606 -0.2781  l 0.9523 -0.3051  l 0.943 -0.3327  l 0.9326 -0.3609  l 0.9209 -0.3897  l 0.9079 -0.4191  l 0.8935 -0.4491  l 0.8774 -0.4797  l 0.8597 -0.5108  l 0.8401 -0.5425  l 0.8183 -0.5747  l 0.7944 -0.6074  l 0.7679 -0.6406  l 0.7387 -0.6741  l 0.7064 -0.7079  l 0.6706 -0.7418  l 0.6311 -0.7757  l 0.5874 -0.8093  l 0.5388 -0.8424  l 0.4849 -0.8746  l 0.425 -0.9052  l 0.3582 -0.9337  l 0.2837 -0.9589  l 0.2005 -0.9797  l 0.1078 -0.9942  l 0.0046 -1  l -0.1096 -0.994  l -0.2345 -0.9721  l -0.3687 -0.9296  l -0.5083 -0.8612  l -0.6468 -0.7627  l -0.7743 -0.6329  l -0.8797 -0.4755  l -0.954 -0.2999  l -0.9929 -0.1189  l -0.9985 0.0554  l -0.9768 0.2144  l -0.9353 0.354  l -0.8808 0.4735  l -0.8186 0.5744  l -0.7525 0.6586  l -0.685 0.7285  l -0.6177 0.7864  l -0.5517 0.834  l -0.4876 0.8731  l -0.4256 0.9049  l -0.3661 0.9306  l -0.3089 0.9511  l -0.2543 0.9671  l -0.202 0.9794  l -0.152 0.9884  l -0.1042 0.9946  l -0.0585 0.9983  l -0.0149 0.9999  l 0.0268 0.9996  l 0.0667 0.9978  l 0.1049 0.9945  l 0.1414 0.9899  l 0.1764 0.9843  l 0.2099 0.9777  l 0.242 0.9703  l 0.2728 0.9621  l 0.3023 0.9532  l 0.3306 0.9438  l 0.3577 0.9338  l 0.3838 0.9234  l 0.4089 0.9126  l 0.4329 0.9014  l 0.456 0.89  l 0.4782 0.8782  l 0.4996 0.8663  l 0.5201 0.8541  l 0.5399 0.8417  l 0.5589 0.8293  l 0.5772 0.8166  l 0.5948 0.8039  l 0.6117 0.7911  l 0.628 0.7782  l 0.6437 0.7653  l 0.6588 0.7523  l 0.6734 0.7393  l 0.6874 0.7263  l 0.7009 0.7132  l 0.7139 0.7002  l 0.7265 0.6872  l 0.7385 0.6742  l 0.7502 0.6612  l 0.7614 0.6483  l 0.7722 0.6354  l 0.7826 0.6226  l 0.7926 0.6097  l 0.8022 0.597  l 0.8115 0.5843  l 0.8205 0.5717  l 0.8291 0.5591  l 0.8374 0.5466  l 0.8454 0.5341  l 0.8531 0.5218  l 0.8605 0.5095  l 0.8676 0.4973  l 0.8745 0.4851  l 0.881 0.473  l 0.8874 0.4611  l 0.8935 0.4492  l 0.8993 0.4373  l 0.9049 0.4256  l 0.9103 0.4139  l 0.9155 0.4023  l 0.9205 0.3909  l 0.9252 0.3794  l 0.9298 0.3681  l 0.9341 0.3569  l 0.9383 0.3457  l 0.9423 0.3347  l 0.9462 0.3237  l 0.9498 0.3128  l 0.9533 0.302  l 0.9566 0.2912  l 0.9598 0.2806  l 0.9628 0.27  l 0.9657 0.2596  l 0.9685 0.2492  l 0.9711 0.2389  l 0.9735 0.2286  l 0.9758 0.2185  l 0.2084 -0.978  l 0.9801 0.1986  l 0.1885 -0.9821  l 0.1881 -0.9822  l 0.1875 -0.9823  l 0.1867 -0.9824  l 0.1857 -0.9826  l 0.1845 -0.9828  l 0.1832 -0.9831  l 0.1817 -0.9834  l 0.9851 0.1719  l 0.1603 -0.9871  l 0.9886 0.1505  l 0.9914 0.1305  l 0.9929 0.1191  l 0.9951 0.0992  l 0.9969 0.0793  l 0.9982 0.0593  l 0.9992 0.0392  l 0.9998 0.0191  l 1 -0.0011  l 0.9998 -0.0212  l 0.9991 -0.0414  l 0.9981 -0.0615  l 0.9967 -0.0815  l 0.9948 -0.1016  l 0.9926 -0.1215  l 0.99 -0.1413  l 0.9869 -0.1611  l 0.9835 -0.1807  l -0.2002 -0.9798  l 0.9777 -0.2099  l 0.9733 -0.2294  l -0.2372 -0.9715  l -0.2355 -0.9719  l -0.234 -0.9722  l -0.2327 -0.9725  l -0.2316 -0.9728  l -0.2307 -0.973  l -0.2301 -0.9732  l -0.2296 -0.9733  l -0.2293 -0.9734  l -0.2292 -0.9734  l -0.2294 -0.9733  l -0.2297 -0.9733  l -0.2302 -0.9731  l -0.2309 -0.973  l -0.2318 -0.9728  l -0.2329 -0.9725  l -0.2341 -0.9722  l -0.2356 -0.9719  l -0.2372 -0.9715  l -0.239 -0.971  l 0.9686 -0.2486  l 0.9634 -0.2679  l -0.2792 -0.9602  l 0.9574 -0.2887  l 0.9514 -0.308  l 0.9478 -0.3189  l 0.9412 -0.3377  l 0.9343 -0.3565  l 0.9269 -0.3752  l 0.9192 -0.3938  l 0.9111 -0.4122  l 0.9026 -0.4304  l 0.8938 -0.4485  l 0.8846 -0.4664  l 0.875 -0.4841  l 0.8651 -0.5016  l 0.8548 -0.5189  l 0.8443 -0.5359  l 0.8334 -0.5527  l 0.8222 -0.5692  l -0.5855 -0.8107  l 0.8048 -0.5935  l 0.7928 -0.6095  l -0.616 -0.7877  l 0.7816 -0.6238  l -0.6302 -0.7764  l -0.629 -0.7774  l 0.7712 -0.6366  l -0.6432 -0.7657  l -0.6421 -0.7666  l -0.6413 -0.7673  l -0.6406 -0.7679  l -0.64 -0.7683  l -0.6397 -0.7687  l -0.6394 -0.7688  l -0.6394 -0.7689  l -0.6395 -0.7688  l -0.6397 -0.7686  l -0.6401 -0.7683  l -0.6407 -0.7678  l -0.6413 -0.7673  l -0.6422 -0.7665  l -0.6432 -0.7657  l -0.6443 -0.7648  l -0.6456 -0.7637  l 0.7573 -0.6531  l -0.6619 -0.7496  l -0.6632 -0.7484  l 0.7418 -0.6706  l 0.7282 -0.6853  l -0.6938 -0.7202  l 0.7132 -0.7009  l 0.699 -0.7151  l 0.6844 -0.7291  l 0.6695 -0.7428  l 0.6543 -0.7562  l 0.6389 -0.7693  l 0.6231 -0.7821  l 0.6071 -0.7947  l 0.5908 -0.8068" stroke="#4488ff" stroke-width="0.25%" fill="transparent" class="foreground-stroke" transform-origin="50% 50%" xmlns="http://www.w3.org/2000/svg">
        </path>
      </g>
    </pattern>
  </defs>
  <rect width="10000%" height="10000%" x="-5000%" y="-5000%" fill="url(#turtle-pattern)" transform-origin="50% 50%" />
</svg>