<svg xmlns="http://www.w3.org/2000/svg" width="100%" height="100%">
  <defs>
    <pattern id="turtle-pattern" patternUnits="userSpaceOnUse" width="420" height="420" transform-origin="50% 50%">
      <path id="turtle-path" d="m 0 0  l 420 0  l 0 420  l -420 0  l -0 -420" stroke="transparent" stroke-width="0.25%" fill="transparent" class="foreground-stroke" transform-origin="50% 50%" xmlns="http://www.w3.org/2000/svg">
      </path>
      <g id="turtle-children" xmlns="http://www.w3.org/2000/svg">
        <path id="turtle-s1-path" d="m 0 0  l 4.63770997769841 4.51444237783084  l 4.69941714036621 4.45017104849135  l 4.76160268814747 4.38356973940476  l 4.82425429020234 4.31452365429402  l 4.88735697488416 4.24291004147501  l 4.95089274651105 4.16859746588017  l 5.01484014245826 4.091444997258  l 5.0791737200094 4.01130130281487  l 5.14386346026414 3.92800363061922  l 5.20887407376467 3.84137666776647  l 5.27416418924219 3.75123125452344  l 5.3396854028316 3.65736293233055  l 5.40538116003592 3.55955029950794  l 5.47118543635637 3.45755314362632  l 5.53702117445645 3.35111031355568  l 5.60279842549556 3.23993728693362  l 5.66841212916881 3.12372337986101  l 5.73373945010709 3.00212853460407  l 5.79863656637412 2.87477960739729  l 5.86293477712025 2.74126606137242  l 5.92643575862163 2.60113494823494  l 5.9889057475828 2.45388503532012  l 6.05006836293332 2.29895990044011  l 6.10959568553778 2.13573977330022  l 6.16709708927067 1.96353184631865  l 6.22210514203788 1.78155870557891  l 6.27405764947648 1.58894443925647  l 6.32227456364312 1.38469785942984  l 6.36592797201112 1.16769211488504  l 6.40400263651466 0.936639766138335  l 6.43524343613642 0.690062125943387  l 6.45808436211408 0.426251324708712  l 6.47055105496271 0.143223130531627  l 6.47012461967651 -0.161341953174754  l 6.45354746861073 -0.490172306833368  l 6.41654010661652 -0.84649682821618  l 6.35337701806445 -1.23415731830621  l 6.25623194270022 -1.65774114358537  l 6.11413047482384 -2.12272286387759  l 5.91120209805039 -2.63557082545755  l 5.62361072562168 -3.20367698538276  l 5.2138183367959 -3.83466324087125  l 4.61900179602231 -4.53358205267546  l 3.72527894905544 -5.29252686074645  l 2.303186912709 -6.04846045412585  l -0.169943901327718 -6.46990439576968  l -4.66927108202223 -4.48179109091324" stroke="currentcolor" stroke-width="0.25%" fill="transparent" class="foreground-stroke" transform-origin="50% 50%" xmlns="http://www.w3.org/2000/svg">
        </path>
        <path id="turtle-s2-path" d="m 0 0  m 420 0  l -4.51444237783084 4.63770997769841  l -4.45017104849135 4.69941714036621  l -4.38356973940476 4.76160268814747  l -4.31452365429401 4.82425429020234  l -4.242910041475 4.88735697488416  l -4.16859746588017 4.95089274651105  l -4.091444997258 5.01484014245826  l -4.01130130281487 5.0791737200094  l -3.92800363061922 5.14386346026414  l -3.84137666776647 5.20887407376467  l -3.75123125452344 5.27416418924219  l -3.65736293233055 5.3396854028316  l -3.55955029950794 5.40538116003592  l -3.45755314362632 5.47118543635637  l -3.35111031355568 5.53702117445645  l -3.23993728693362 5.60279842549556  l -3.12372337986101 5.6684121291688  l -3.00212853460407 5.73373945010709  l -2.87477960739729 5.79863656637411  l -2.74126606137242 5.86293477712025  l -2.60113494823494 5.92643575862163  l -2.45388503532012 5.9889057475828  l -2.29895990044012 6.05006836293332  l -2.13573977330022 6.10959568553778  l -1.96353184631865 6.16709708927067  l -1.78155870557891 6.22210514203788  l -1.58894443925647 6.27405764947648  l -1.38469785942984 6.32227456364312  l -1.16769211488505 6.36592797201112  l -0.936639766138348 6.40400263651465  l -0.6900621259434 6.43524343613642  l -0.426251324708719 6.45808436211408  l -0.143223130531639 6.47055105496271  l 0.161341953174748 6.47012461967651  l 0.490172306833355 6.45354746861073  l 0.846496828216167 6.41654010661652  l 1.2341573183062 6.35337701806445  l 1.65774114358537 6.25623194270022  l 2.12272286387758 6.11413047482385  l 2.63557082545753 5.9112020980504  l 3.20367698538274 5.62361072562168  l 3.83466324087123 5.21381833679591  l 4.53358205267544 4.61900179602233  l 5.29252686074643 3.72527894905548  l 6.04846045412584 2.30318691270905  l 6.46990439576968 -0.169943901327627  l 4.48179109091333 -4.66927108202214" stroke="currentcolor" stroke-width="0.25%" fill="transparent" class="foreground-stroke" transform-origin="50% 50%" xmlns="http://www.w3.org/2000/svg">
        </path>
        <path id="turtle-s3-path" d="m 0 0  m 420 420  l -4.63770997769841 -4.51444237783084  l -4.69941714036621 -4.45017104849135  l -4.76160268814747 -4.38356973940476  l -4.82425429020234 -4.31452365429402  l -4.88735697488416 -4.24291004147501  l -4.95089274651105 -4.16859746588017  l -5.01484014245826 -4.09144499725799  l -5.0791737200094 -4.01130130281486  l -5.14386346026414 -3.92800363061922  l -5.20887407376467 -3.84137666776647  l -5.27416418924219 -3.75123125452344  l -5.33968540283159 -3.65736293233055  l -5.40538116003592 -3.55955029950794  l -5.47118543635637 -3.45755314362632  l -5.53702117445645 -3.35111031355569  l -5.60279842549556 -3.23993728693362  l -5.6684121291688 -3.12372337986101  l -5.73373945010709 -3.00212853460407  l -5.79863656637411 -2.87477960739729  l -5.86293477712025 -2.74126606137242  l -5.92643575862163 -2.60113494823494  l -5.9889057475828 -2.45388503532012  l -6.05006836293332 -2.29895990044012  l -6.10959568553778 -2.13573977330022  l -6.16709708927067 -1.96353184631865  l -6.22210514203788 -1.78155870557892  l -6.27405764947648 -1.58894443925647  l -6.32227456364311 -1.38469785942984  l -6.36592797201112 -1.16769211488505  l -6.40400263651465 -0.936639766138348  l -6.43524343613642 -0.6900621259434  l -6.45808436211408 -0.426251324708719  l -6.47055105496271 -0.143223130531633  l -6.47012461967651 0.161341953174741  l -6.45354746861073 0.490172306833355  l -6.41654010661652 0.846496828216167  l -6.35337701806445 1.2341573183062  l -6.25623194270023 1.65774114358536  l -6.11413047482385 2.12272286387758  l -5.91120209805039 2.63557082545753  l -5.62361072562168 3.20367698538274  l -5.21381833679591 3.83466324087123  l -4.61900179602233 4.53358205267544  l -3.72527894905547 5.29252686074644  l -2.30318691270903 6.04846045412584  l 0.169943901327647 6.46990439576968  l 4.66927108202214 4.48179109091333" stroke="currentcolor" stroke-width="0.25%" fill="transparent" class="foreground-stroke" transform-origin="50% 50%" xmlns="http://www.w3.org/2000/svg">
        </path>
        <path id="turtle-s4-path" d="m 0 0  m 0 420  l 4.51444237783084 -4.63770997769841  l 4.45017104849135 -4.69941714036621  l 4.38356973940476 -4.76160268814747  l 4.31452365429402 -4.82425429020234  l 4.24291004147501 -4.88735697488416  l 4.16859746588017 -4.95089274651105  l 4.091444997258 -5.01484014245826  l 4.01130130281487 -5.0791737200094  l 3.92800363061922 -5.14386346026414  l 3.84137666776647 -5.20887407376467  l 3.75123125452344 -5.27416418924219  l 3.65736293233055 -5.3396854028316  l 3.55955029950794 -5.40538116003592  l 3.45755314362632 -5.47118543635637  l 3.35111031355568 -5.53702117445645  l 3.23993728693362 -5.60279842549556  l 3.12372337986101 -5.66841212916881  l 3.00212853460407 -5.73373945010709  l 2.87477960739729 -5.79863656637412  l 2.74126606137242 -5.86293477712025  l 2.60113494823494 -5.92643575862163  l 2.45388503532012 -5.9889057475828  l 2.29895990044011 -6.05006836293332  l 2.13573977330022 -6.10959568553778  l 1.96353184631865 -6.16709708927067  l 1.78155870557891 -6.22210514203788  l 1.58894443925647 -6.27405764947648  l 1.38469785942984 -6.32227456364312  l 1.16769211488504 -6.36592797201112  l 0.936639766138335 -6.40400263651466  l 0.690062125943387 -6.43524343613642  l 0.426251324708706 -6.45808436211408  l 0.143223130531627 -6.47055105496271  l -0.161341953174754 -6.47012461967651  l -0.490172306833368 -6.45354746861073  l -0.84649682821618 -6.41654010661652  l -1.23415731830621 -6.35337701806445  l -1.65774114358537 -6.25623194270022  l -2.12272286387759 -6.11413047482384  l -2.63557082545754 -5.91120209805039  l -3.20367698538276 -5.62361072562168  l -3.83466324087124 -5.2138183367959  l -4.53358205267544 -4.61900179602232  l -5.29252686074644 -3.72527894905546  l -6.04846045412584 -2.30318691270903  l -6.46990439576968 0.169943901327621  l -4.48179109091336 4.66927108202211" stroke="currentcolor" stroke-width="0.25%" fill="transparent" class="foreground-stroke" transform-origin="50% 50%" xmlns="http://www.w3.org/2000/svg">
        </path>
        <path id="turtle-h1-path" d="m 0 0  m 210 210  l 2.82842712474619 -2.82842712474619  l 2.79007882975235 -2.86626239618213  l 2.75035696371841 -2.90439952006015  l 2.70919509100766 -2.942832302198  l 2.6665222636191 -2.98155312171755  l 2.62226261683978 -3.02055272563228  l 2.57633491933062 -3.05981999199915  l 2.52865207140616 -3.09934165618657  l 2.47912054425632 -3.13910199373105  l 2.42763975165566 -3.17908245193188  l 2.37410134427049 -3.21926122070469  l 2.3183884149564 -3.25961273119921  l 2.26037460137426 -3.3001070681816  l 2.19992306976078 -3.34070927905053  l 2.13688536067011 -3.38137855842166  l 2.07110007382773 -3.42206728224195  l 2.0023913647431 -3.46271985907065  l 1.9305672202068 -3.50327135806848  l 1.85541747298123 -3.54364586280231  l 1.7767115075366 -3.58375448642719  l 1.69419559813471 -3.6234929660841  l 1.60758980733439 -3.66273873097094  l 1.51658435631257 -3.70134730742577  l 1.42083535724506 -3.73914788255323  l 1.31995977102453 -3.77593779118206  l 1.21352941901776 -3.81147561308982  l 1.10106383300104 -3.8454724593549  l 0.982021669695644 -3.87758087475274  l 0.855790341276864 -3.90738056654036  l 0.721673415394204 -3.93435985663656  l 0.578875210688244 -3.95789129341  l 0.426481848182028 -3.97719916941197  l 0.263437806419652 -3.99131563800068  l 0.088516762643708 -3.99902047790844  l -0.099714810873296 -3.99875692640757  l -0.302943145966964 -3.98851168361228  l -0.52316381120658 -3.96563987606588  l -0.762751170177664 -3.92660294050628  l -1.02454037128488 -3.86656398209152  l -1.31191487857286 -3.77874044509267  l -1.62887234989038 -3.65332381096483  l -1.97998126594234 -3.47558256793266  l -2.36995221826826 -3.22231694330731  l -2.80190779933994 -2.8547001040386  l -3.27096148631309 -2.30234900809075  l -3.7381541402594 -1.42344779449809  l -3.99862082054802 0.105031107201288" stroke="currentcolor" stroke-width="0.25%" fill="transparent" class="foreground-stroke" transform-origin="50% 50%" xmlns="http://www.w3.org/2000/svg">
        </path>
        <path id="turtle-h2-path" d="m 0 0  m 210 210  l 2.82842712474619 2.82842712474619  l 2.86626239618213 2.79007882975235  l 2.90439952006015 2.75035696371841  l 2.942832302198 2.70919509100766  l 2.98155312171755 2.6665222636191  l 3.02055272563228 2.62226261683978  l 3.05981999199915 2.57633491933062  l 3.09934165618657 2.52865207140616  l 3.13910199373105 2.47912054425632  l 3.17908245193188 2.42763975165567  l 3.21926122070469 2.37410134427049  l 3.25961273119921 2.3183884149564  l 3.3001070681816 2.26037460137426  l 3.34070927905053 2.19992306976078  l 3.38137855842166 2.13688536067011  l 3.42206728224194 2.07110007382773  l 3.46271985907065 2.0023913647431  l 3.50327135806848 1.9305672202068  l 3.54364586280231 1.85541747298123  l 3.58375448642719 1.7767115075366  l 3.6234929660841 1.69419559813471  l 3.66273873097094 1.60758980733439  l 3.70134730742577 1.51658435631257  l 3.73914788255323 1.42083535724507  l 3.77593779118206 1.31995977102453  l 3.81147561308982 1.21352941901776  l 3.8454724593549 1.10106383300104  l 3.87758087475273 0.982021669695648  l 3.90738056654035 0.855790341276872  l 3.93435985663656 0.721673415394208  l 3.95789129340999 0.578875210688252  l 3.97719916941197 0.426481848182032  l 3.99131563800068 0.263437806419656  l 3.99902047790844 0.088516762643716  l 3.99875692640757 -0.099714810873284  l 3.98851168361228 -0.302943145966956  l 3.96563987606588 -0.523163811206572  l 3.92660294050629 -0.762751170177652  l 3.86656398209152 -1.02454037128487  l 3.77874044509267 -1.31191487857286  l 3.65332381096483 -1.62887234989037  l 3.47558256793266 -1.97998126594234  l 3.22231694330732 -2.36995221826825  l 2.85470010403861 -2.80190779933994  l 2.30234900809077 -3.27096148631308  l 1.42344779449813 -3.73815414025939  l -0.105031107201232 -3.99862082054802" stroke="currentcolor" stroke-width="0.25%" fill="transparent" class="foreground-stroke" transform-origin="50% 50%" xmlns="http://www.w3.org/2000/svg">
        </path>
        <path id="turtle-h3-path" d="m 0 0  m 210 210  l -2.82842712474619 2.82842712474619  l -2.79007882975236 2.86626239618213  l -2.75035696371841 2.90439952006015  l -2.70919509100766 2.942832302198  l -2.6665222636191 2.98155312171755  l -2.62226261683978 3.02055272563228  l -2.57633491933062 3.05981999199915  l -2.52865207140616 3.09934165618657  l -2.47912054425632 3.13910199373105  l -2.42763975165567 3.17908245193188  l -2.37410134427049 3.21926122070469  l -2.3183884149564 3.25961273119921  l -2.26037460137426 3.3001070681816  l -2.19992306976078 3.34070927905053  l -2.13688536067011 3.38137855842166  l -2.07110007382773 3.42206728224194  l -2.0023913647431 3.46271985907065  l -1.9305672202068 3.50327135806848  l -1.85541747298123 3.54364586280231  l -1.7767115075366 3.58375448642719  l -1.69419559813471 3.6234929660841  l -1.60758980733439 3.66273873097094  l -1.51658435631257 3.70134730742577  l -1.42083535724506 3.73914788255323  l -1.31995977102453 3.77593779118206  l -1.21352941901776 3.81147561308982  l -1.10106383300104 3.8454724593549  l -0.982021669695644 3.87758087475274  l -0.855790341276872 3.90738056654035  l -0.721673415394208 3.93435985663656  l -0.578875210688252 3.95789129340999  l -0.426481848182032 3.97719916941197  l -0.263437806419656 3.99131563800068  l -0.088516762643716 3.99902047790844  l 0.099714810873284 3.99875692640757  l 0.30294314596696 3.98851168361228  l 0.523163811206572 3.96563987606588  l 0.762751170177656 3.92660294050629  l 1.02454037128488 3.86656398209152  l 1.31191487857286 3.77874044509267  l 1.62887234989037 3.65332381096484  l 1.97998126594234 3.47558256793266  l 2.36995221826825 3.22231694330732  l 2.80190779933994 2.85470010403861  l 3.27096148631308 2.30234900809076  l 3.73815414025939 1.42344779449812  l 3.99862082054802 -0.105031107201232" stroke="currentcolor" stroke-width="0.25%" fill="transparent" class="foreground-stroke" transform-origin="50% 50%" xmlns="http://www.w3.org/2000/svg">
        </path>
        <path id="turtle-h4-path" d="m 0 0  m 210 210  l -2.82842712474619 -2.82842712474619  l -2.86626239618213 -2.79007882975235  l -2.90439952006015 -2.75035696371841  l -2.942832302198 -2.70919509100766  l -2.98155312171755 -2.6665222636191  l -3.02055272563228 -2.62226261683978  l -3.05981999199915 -2.57633491933062  l -3.09934165618657 -2.52865207140616  l -3.13910199373105 -2.47912054425632  l -3.17908245193188 -2.42763975165567  l -3.21926122070469 -2.37410134427049  l -3.25961273119921 -2.3183884149564  l -3.3001070681816 -2.26037460137426  l -3.34070927905053 -2.19992306976078  l -3.38137855842166 -2.13688536067011  l -3.42206728224195 -2.07110007382773  l -3.46271985907065 -2.0023913647431  l -3.50327135806848 -1.9305672202068  l -3.54364586280231 -1.85541747298123  l -3.58375448642719 -1.7767115075366  l -3.6234929660841 -1.69419559813471  l -3.66273873097094 -1.60758980733439  l -3.70134730742577 -1.51658435631257  l -3.73914788255323 -1.42083535724507  l -3.77593779118206 -1.31995977102453  l -3.81147561308982 -1.21352941901776  l -3.8454724593549 -1.10106383300104  l -3.87758087475274 -0.982021669695644  l -3.90738056654036 -0.855790341276864  l -3.93435985663656 -0.7216734153942  l -3.95789129341 -0.578875210688244  l -3.97719916941197 -0.426481848182024  l -3.99131563800068 -0.263437806419648  l -3.99902047790844 -0.088516762643708  l -3.99875692640757 0.099714810873292  l -3.98851168361228 0.302943145966964  l -3.96563987606588 0.523163811206584  l -3.92660294050629 0.76275117017766  l -3.86656398209152 1.02454037128488  l -3.77874044509267 1.31191487857286  l -3.65332381096483 1.62887234989038  l -3.47558256793266 1.97998126594234  l -3.22231694330731 2.36995221826826  l -2.8547001040386 2.80190779933994  l -2.30234900809076 3.27096148631308  l -1.42344779449812 3.73815414025939  l 0.105031107201228 3.99862082054802" stroke="currentcolor" stroke-width="0.25%" fill="transparent" class="foreground-stroke" transform-origin="50% 50%" xmlns="http://www.w3.org/2000/svg">
        </path>
      </g>
    </pattern>
  </defs>
  <rect width="10000%" height="10000%" x="-5000%" y="-5000%" fill="url(#turtle-pattern)" transform-origin="50% 50%" />
</svg>