<svg xmlns="http://www.w3.org/2000/svg" width="100%" height="100%">
  <defs>
    <pattern id="turtle-pattern" patternUnits="userSpaceOnUse" width="420" height="420" transform-origin="50% 50%">
      <path id="turtle-path" d="m 0 0  l 420 0  l 0 420  l -420 0  l -0 -420" stroke="transparent" stroke-width="0.25%" fill="transparent" class="foreground-stroke" transform-origin="50% 50%" xmlns="http://www.w3.org/2000/svg">
      </path>
      <g id="turtle-children" xmlns="http://www.w3.org/2000/svg">
        <path id="turtle-s1-path" d="m 0 0  l 3.46686369751903 3.39752292141992  l 3.50156770906659 3.36174500484067  l 3.53647754026687 3.32500112871215  l 3.57158976345852 3.28725606856347  l 3.60690037972271 3.24847280264207  l 3.64240475786567 3.20861239145936  l 3.67809756648959 3.16763384723241  l 3.71397269826954 3.12549399219668  l 3.75002318542603 3.08214730464271  l 3.78624110523382 3.0375457513899  l 3.82261747423358 2.99163860525184  l 3.85914212960932 2.94437224586557  l 3.89580359595593 2.89568994204938  l 3.93258893537957 2.84553161361445  l 3.96948357854257 2.79383357028115  l 4.00647113387143 2.74052822503328  l 4.04353317168043 2.68554377887776  l 4.08064897940855 2.62880387355181  l 4.11779528350305 2.57022720822675  l 4.15494593268773 2.50972711568226  l 4.19207153639504 2.44721109275345  l 4.22913905098351 2.38258027906624  l 4.26611130495608 2.31572887715186  l 4.30294645268311 2.24654350594215  l 4.33959734403737 2.17490247835916  l 4.37601079477122 2.1006749921858  l 4.41212673928198 2.02372022158746  l 4.44787724345629 1.94388629448658  l 4.483185350346 1.86100913839563  l 4.51796372522729 1.77491117419419  l 4.55211305876033 1.68539983357443  l 4.58552017700841 1.5922658713286  l 4.6180557943293 1.49528143812817  l 4.64957182872357 1.3941978727172  l 4.67989817788946 1.28874316422474  l 4.70883882630365 1.17861902523433  l 4.73616711676962 1.06349750388953  l 4.76161997073633 0.943017048114159  l 4.78489077557192 0.816777916324737  l 4.80562056707227 0.684336806025408  l 4.82338701185058 0.545200543525237  l 4.83769052215046 0.398818643802753  l 4.84793659287305 0.244574508548106  l 4.85341310326826 0.0817749825617541  l 4.85326082093832 -0.0903620644637944  l 4.84643459952896 -0.272722516924447  l 4.83165163736331 -0.466313578950345  l 4.80732143561046 -0.672284547992342  l 4.77144937458516 -0.891951099847938  l 4.72150143606994 -1.12682300648264  l 4.65421030559114 -1.37863422635531  l 4.56529057244983 -1.6493719677046  l 4.44900846116688 -1.94129585875377  l 4.29751013790094 -2.25692545587746  l 4.09973190211474 -2.59894290617006  l 3.83954884880981 -2.96987719213309  l 3.49245041900115 -3.37121579991073  l 3.01915184968219 -3.80092462531285  l 2.35225377885759 -4.24608149457817  l 1.36552853723458 -4.65807231725174  l -0.202505475779183 -4.84987602223279  l -2.86327783622625 -3.91968696853774" stroke="currentcolor" stroke-width="0.25%" fill="transparent" class="foreground-stroke" transform-origin="50% 50%" xmlns="http://www.w3.org/2000/svg">
        </path>
        <path id="turtle-s2-path" d="m 0 0  m 420 0  l -3.39752292141992 3.46686369751903  l -3.36174500484068 3.50156770906659  l -3.32500112871214 3.53647754026687  l -3.28725606856347 3.57158976345852  l -3.24847280264207 3.60690037972271  l -3.20861239145936 3.64240475786567  l -3.16763384723241 3.67809756648959  l -3.12549399219668 3.71397269826954  l -3.08214730464271 3.75002318542603  l -3.0375457513899 3.78624110523382  l -2.99163860525184 3.82261747423357  l -2.94437224586557 3.85914212960932  l -2.89568994204938 3.89580359595593  l -2.84553161361445 3.93258893537956  l -2.79383357028115 3.96948357854258  l -2.74052822503328 4.00647113387143  l -2.68554377887776 4.04353317168044  l -2.62880387355181 4.08064897940855  l -2.57022720822675 4.11779528350305  l -2.50972711568226 4.15494593268773  l -2.44721109275345 4.19207153639504  l -2.38258027906624 4.22913905098351  l -2.31572887715186 4.26611130495608  l -2.24654350594215 4.30294645268312  l -2.17490247835916 4.33959734403737  l -2.1006749921858 4.37601079477122  l -2.02372022158746 4.41212673928198  l -1.94388629448658 4.44787724345629  l -1.86100913839563 4.483185350346  l -1.77491117419419 4.51796372522729  l -1.68539983357443 4.55211305876033  l -1.59226587132861 4.58552017700841  l -1.49528143812817 4.6180557943293  l -1.3941978727172 4.64957182872357  l -1.28874316422474 4.67989817788946  l -1.17861902523433 4.70883882630365  l -1.06349750388953 4.73616711676961  l -0.943017048114164 4.76161997073633  l -0.816777916324737 4.78489077557192  l -0.684336806025413 4.80562056707227  l -0.545200543525242 4.82338701185057  l -0.398818643802758 4.83769052215046  l -0.244574508548106 4.84793659287305  l -0.081774982561759 4.85341310326826  l 0.0903620644637896 4.85326082093832  l 0.272722516924438 4.84643459952896  l 0.466313578950336 4.83165163736331  l 0.672284547992332 4.80732143561046  l 0.891951099847933 4.77144937458516  l 1.12682300648264 4.72150143606994  l 1.37863422635531 4.65421030559114  l 1.6493719677046 4.56529057244983  l 1.94129585875377 4.44900846116688  l 2.25692545587745 4.29751013790094  l 2.59894290617005 4.09973190211475  l 2.96987719213308 3.83954884880982  l 3.37121579991072 3.49245041900116  l 3.80092462531284 3.01915184968221  l 4.24608149457816 2.35225377885761  l 4.65807231725174 1.3655285372346  l 4.84987602223279 -0.202505475779154  l 3.91968696853777 -2.86327783622621" stroke="currentcolor" stroke-width="0.25%" fill="transparent" class="foreground-stroke" transform-origin="50% 50%" xmlns="http://www.w3.org/2000/svg">
        </path>
        <path id="turtle-s3-path" d="m 0 0  m 420 420  l -3.46686369751903 -3.39752292141992  l -3.50156770906659 -3.36174500484067  l -3.53647754026687 -3.32500112871215  l -3.57158976345852 -3.28725606856347  l -3.60690037972271 -3.24847280264207  l -3.64240475786567 -3.20861239145936  l -3.67809756648959 -3.16763384723241  l -3.71397269826954 -3.12549399219668  l -3.75002318542603 -3.08214730464271  l -3.78624110523382 -3.0375457513899  l -3.82261747423358 -2.99163860525184  l -3.85914212960932 -2.94437224586557  l -3.89580359595593 -2.89568994204938  l -3.93258893537956 -2.84553161361445  l -3.96948357854257 -2.79383357028115  l -4.00647113387143 -2.74052822503328  l -4.04353317168044 -2.68554377887775  l -4.08064897940855 -2.62880387355181  l -4.11779528350305 -2.57022720822675  l -4.15494593268772 -2.50972711568226  l -4.19207153639504 -2.44721109275345  l -4.22913905098351 -2.38258027906624  l -4.26611130495608 -2.31572887715186  l -4.30294645268311 -2.24654350594215  l -4.33959734403737 -2.17490247835916  l -4.37601079477122 -2.1006749921858  l -4.41212673928198 -2.02372022158746  l -4.44787724345629 -1.94388629448658  l -4.483185350346 -1.86100913839563  l -4.51796372522729 -1.77491117419419  l -4.55211305876033 -1.68539983357443  l -4.58552017700841 -1.5922658713286  l -4.6180557943293 -1.49528143812817  l -4.64957182872357 -1.3941978727172  l -4.67989817788946 -1.28874316422474  l -4.70883882630365 -1.17861902523434  l -4.73616711676961 -1.06349750388953  l -4.76161997073633 -0.943017048114159  l -4.78489077557192 -0.816777916324737  l -4.80562056707227 -0.684336806025413  l -4.82338701185057 -0.545200543525242  l -4.83769052215046 -0.398818643802758  l -4.84793659287305 -0.244574508548106  l -4.85341310326826 -0.081774982561759  l -4.85326082093832 0.0903620644637847  l -4.84643459952896 0.272722516924443  l -4.83165163736331 0.466313578950336  l -4.80732143561046 0.672284547992327  l -4.77144937458516 0.891951099847933  l -4.72150143606994 1.12682300648264  l -4.65421030559114 1.3786342263553  l -4.56529057244983 1.64937196770459  l -4.44900846116688 1.94129585875377  l -4.29751013790094 2.25692545587745  l -4.09973190211475 2.59894290617005  l -3.83954884880982 2.96987719213308  l -3.49245041900116 3.37121579991072  l -3.0191518496822 3.80092462531284  l -2.35225377885761 4.24608149457816  l -1.3655285372346 4.65807231725174  l 0.202505475779154 4.84987602223279  l 2.86327783622621 3.91968696853777" stroke="currentcolor" stroke-width="0.25%" fill="transparent" class="foreground-stroke" transform-origin="50% 50%" xmlns="http://www.w3.org/2000/svg">
        </path>
        <path id="turtle-s4-path" d="m 0 0  m 0 420  l 3.39752292141992 -3.46686369751903  l 3.36174500484067 -3.50156770906659  l 3.32500112871215 -3.53647754026687  l 3.28725606856347 -3.57158976345852  l 3.24847280264207 -3.60690037972271  l 3.20861239145936 -3.64240475786567  l 3.16763384723241 -3.67809756648959  l 3.12549399219668 -3.71397269826954  l 3.08214730464271 -3.75002318542603  l 3.0375457513899 -3.78624110523382  l 2.99163860525184 -3.82261747423358  l 2.94437224586557 -3.85914212960932  l 2.89568994204938 -3.89580359595593  l 2.84553161361445 -3.93258893537957  l 2.79383357028115 -3.96948357854257  l 2.74052822503328 -4.00647113387143  l 2.68554377887776 -4.04353317168043  l 2.62880387355181 -4.08064897940855  l 2.57022720822675 -4.11779528350305  l 2.50972711568226 -4.15494593268772  l 2.44721109275345 -4.19207153639504  l 2.38258027906624 -4.22913905098351  l 2.31572887715186 -4.26611130495608  l 2.24654350594215 -4.30294645268311  l 2.17490247835917 -4.33959734403737  l 2.1006749921858 -4.37601079477122  l 2.02372022158746 -4.41212673928198  l 1.94388629448658 -4.44787724345629  l 1.86100913839563 -4.483185350346  l 1.77491117419419 -4.51796372522729  l 1.68539983357443 -4.55211305876033  l 1.5922658713286 -4.58552017700841  l 1.49528143812817 -4.6180557943293  l 1.3941978727172 -4.64957182872357  l 1.28874316422473 -4.67989817788946  l 1.17861902523433 -4.70883882630365  l 1.06349750388953 -4.73616711676962  l 0.943017048114159 -4.76161997073633  l 0.816777916324737 -4.78489077557192  l 0.684336806025408 -4.80562056707227  l 0.545200543525232 -4.82338701185058  l 0.398818643802753 -4.83769052215046  l 0.244574508548106 -4.84793659287305  l 0.0817749825617541 -4.85341310326826  l -0.0903620644637944 -4.85326082093832  l -0.272722516924443 -4.84643459952896  l -0.466313578950345 -4.83165163736331  l -0.672284547992337 -4.80732143561046  l -0.891951099847938 -4.77144937458516  l -1.12682300648264 -4.72150143606994  l -1.37863422635531 -4.65421030559114  l -1.6493719677046 -4.56529057244983  l -1.94129585875377 -4.44900846116688  l -2.25692545587746 -4.29751013790094  l -2.59894290617006 -4.09973190211474  l -2.96987719213309 -3.83954884880981  l -3.37121579991074 -3.49245041900114  l -3.80092462531285 -3.01915184968219  l -4.24608149457818 -2.35225377885758  l -4.65807231725175 -1.36552853723457  l -4.84987602223279 0.202505475779203  l -3.9196869685377 2.86327783622631" stroke="currentcolor" stroke-width="0.25%" fill="transparent" class="foreground-stroke" transform-origin="50% 50%" xmlns="http://www.w3.org/2000/svg">
        </path>
        <path id="turtle-h1-path" d="m 0 0  m 210 210  l 2.12132034355964 -2.12132034355964  l 2.09978464299435 -2.1426395994299  l 2.07767267450172 -2.16408785811225  l 2.05496371017587 -2.18566332033555  l 2.03163598009658 -2.20736386768856  l 2.00766660356243 -2.22918702870354  l 1.98303151464597 -2.25112994114531  l 1.95770538150422 -2.27318931002884  l 1.93166151881114 -2.29536136081973  l 1.90487179260307 -2.31764178719343  l 1.8773065167418 -2.34002569263647  l 1.84893434010196 -2.36250752506563  l 1.81972212347678 -2.38508100351522  l 1.78963480506773 -2.40773903579482  l 1.75863525327607 -2.43047362584634  l 1.72668410534422 -2.45327576932387  l 1.69373959019899 -2.47613533567787  l 1.65975733362229 -2.49904093473617  l 1.6246901436124 -2.52197976543206  l 1.58848777349389 -2.54493744391889  l 1.55109665997888 -2.56789780781915  l 1.5124596329674 -2.59084269276313  l 1.47251559338815 -2.61375167665728  l 1.43119915480948 -2.63660178625302  l 1.3884402438776 -2.65936715952895  l 1.34416365384235 -2.68201865610387  l 1.29828854448775 -2.70452340630505  l 1.25072788066152 -2.72684428754851  l 1.2013878002578 -2.74893931424318  l 1.15016690090266 -2.77076092437943  l 1.096955432664 -2.79225514212956  l 1.04163438178241 -2.81336059094613  l 0.984074427607542 -2.83400732548963  l 0.92413475151003 -2.8541154428389  l 0.861661672382028 -2.87359342328517  l 0.796487078259972 -2.89233613782439  l 0.728426617382085 -2.91022244220082  l 0.657277604354403 -2.92711225456321  l 0.582816587705145 -2.94284298342533  l 0.504796513549005 -2.95722513175929  l 0.422943405876246 -2.97003684748621  l 0.33695246658351 -2.98101711421845  l 0.246483477217239 -2.98985716974221  l 0.151155359064528 -2.9961895896999  l 0.050539718652594 -2.99957425926389  l -0.055846827132237 -2.9994801436081  l -0.168551784956724 -2.99526130676238  l -0.288197641206921 -2.98612493368961  l -0.415494700770627 -2.9710880420532  l -0.551256096008877 -2.94891788909306  l -0.696414917311617 -2.91804836542266  l -0.8520428099415 -2.87646015964536  l -1.01936793613274 -2.82150474229346  l -1.19978682292925 -2.749638445237  l -1.39485664180712 -2.65600733222003  l -1.60623505083352 -2.53377366026917  l -1.83548504715135 -2.37297169002999  l -2.0835259477555 -2.15845306296652  l -2.3491006071198 -1.86593846030071  l -2.62422268265127 -1.45377278549937  l -2.87884701411656 -0.843943048618896  l -2.997388222963 0.125155266939501" stroke="currentcolor" stroke-width="0.25%" fill="transparent" class="foreground-stroke" transform-origin="50% 50%" xmlns="http://www.w3.org/2000/svg">
        </path>
        <path id="turtle-h2-path" d="m 0 0  m 210 210  l 2.12132034355964 2.12132034355964  l 2.1426395994299 2.09978464299435  l 2.16408785811225 2.07767267450172  l 2.18566332033555 2.05496371017587  l 2.20736386768856 2.03163598009658  l 2.22918702870354 2.00766660356243  l 2.25112994114531 1.98303151464597  l 2.27318931002884 1.95770538150422  l 2.29536136081973 1.93166151881115  l 2.31764178719343 1.90487179260307  l 2.34002569263647 1.8773065167418  l 2.36250752506563 1.84893434010196  l 2.38508100351521 1.81972212347678  l 2.40773903579482 1.78963480506773  l 2.43047362584634 1.75863525327607  l 2.45327576932387 1.72668410534422  l 2.47613533567787 1.69373959019899  l 2.49904093473617 1.65975733362229  l 2.52197976543206 1.6246901436124  l 2.54493744391889 1.58848777349389  l 2.56789780781915 1.55109665997887  l 2.59084269276313 1.5124596329674  l 2.61375167665728 1.47251559338814  l 2.63660178625302 1.43119915480948  l 2.65936715952896 1.3884402438776  l 2.68201865610387 1.34416365384235  l 2.70452340630505 1.29828854448775  l 2.72684428754851 1.25072788066152  l 2.74893931424318 1.2013878002578  l 2.77076092437943 1.15016690090266  l 2.79225514212956 1.096955432664  l 2.81336059094613 1.04163438178242  l 2.83400732548963 0.984074427607545  l 2.8541154428389 0.92413475151003  l 2.87359342328517 0.861661672382031  l 2.89233613782439 0.796487078259975  l 2.91022244220082 0.728426617382088  l 2.92711225456321 0.657277604354403  l 2.94284298342533 0.582816587705148  l 2.95722513175929 0.504796513549008  l 2.97003684748621 0.422943405876249  l 2.98101711421845 0.336952466583516  l 2.98985716974221 0.246483477217242  l 2.9961895896999 0.151155359064534  l 2.99957425926389 0.050539718652597  l 2.9994801436081 -0.055846827132231  l 2.99526130676238 -0.168551784956721  l 2.98612493368961 -0.288197641206915  l 2.9710880420532 -0.415494700770621  l 2.94891788909306 -0.551256096008877  l 2.91804836542266 -0.696414917311614  l 2.87646015964536 -0.8520428099415  l 2.82150474229346 -1.01936793613273  l 2.749638445237 -1.19978682292924  l 2.65600733222003 -1.39485664180712  l 2.53377366026917 -1.60623505083352  l 2.37297169003 -1.83548504715134  l 2.15845306296653 -2.08352594775549  l 1.86593846030072 -2.34910060711979  l 1.45377278549938 -2.62422268265126  l 0.843943048618914 -2.87884701411656  l -0.12515526693948 -2.997388222963" stroke="currentcolor" stroke-width="0.25%" fill="transparent" class="foreground-stroke" transform-origin="50% 50%" xmlns="http://www.w3.org/2000/svg">
        </path>
        <path id="turtle-h3-path" d="m 0 0  m 210 210  l -2.12132034355964 2.12132034355964  l -2.09978464299435 2.1426395994299  l -2.07767267450172 2.16408785811225  l -2.05496371017587 2.18566332033555  l -2.03163598009658 2.20736386768856  l -2.00766660356243 2.22918702870353  l -1.98303151464597 2.25112994114531  l -1.95770538150422 2.27318931002884  l -1.93166151881115 2.29536136081973  l -1.90487179260307 2.31764178719343  l -1.8773065167418 2.34002569263647  l -1.84893434010196 2.36250752506563  l -1.81972212347678 2.38508100351521  l -1.78963480506773 2.40773903579482  l -1.75863525327607 2.43047362584634  l -1.72668410534422 2.45327576932387  l -1.69373959019899 2.47613533567787  l -1.65975733362229 2.49904093473617  l -1.6246901436124 2.52197976543206  l -1.58848777349389 2.54493744391889  l -1.55109665997887 2.56789780781915  l -1.5124596329674 2.59084269276313  l -1.47251559338815 2.61375167665728  l -1.43119915480948 2.63660178625302  l -1.3884402438776 2.65936715952896  l -1.34416365384235 2.68201865610387  l -1.29828854448775 2.70452340630505  l -1.25072788066152 2.72684428754851  l -1.2013878002578 2.74893931424318  l -1.15016690090266 2.77076092437943  l -1.096955432664 2.79225514212956  l -1.04163438178242 2.81336059094613  l -0.984074427607542 2.83400732548963  l -0.92413475151003 2.8541154428389  l -0.861661672382031 2.87359342328517  l -0.796487078259975 2.89233613782439  l -0.728426617382088 2.91022244220082  l -0.657277604354403 2.92711225456321  l -0.582816587705148 2.94284298342533  l -0.504796513549005 2.95722513175929  l -0.422943405876249 2.97003684748621  l -0.336952466583513 2.98101711421845  l -0.246483477217242 2.98985716974221  l -0.151155359064531 2.9961895896999  l -0.050539718652597 2.99957425926389  l 0.055846827132231 2.9994801436081  l 0.168551784956721 2.99526130676238  l 0.288197641206915 2.98612493368961  l 0.415494700770621 2.9710880420532  l 0.551256096008874 2.94891788909306  l 0.696414917311614 2.91804836542266  l 0.852042809941497 2.87646015964536  l 1.01936793613273 2.82150474229346  l 1.19978682292924 2.749638445237  l 1.39485664180712 2.65600733222003  l 1.60623505083352 2.53377366026917  l 1.83548504715134 2.37297169003  l 2.08352594775549 2.15845306296653  l 2.34910060711979 1.86593846030072  l 2.62422268265126 1.45377278549938  l 2.87884701411656 0.843943048618914  l 2.997388222963 -0.12515526693948" stroke="currentcolor" stroke-width="0.25%" fill="transparent" class="foreground-stroke" transform-origin="50% 50%" xmlns="http://www.w3.org/2000/svg">
        </path>
        <path id="turtle-h4-path" d="m 0 0  m 210 210  l -2.12132034355964 -2.12132034355964  l -2.1426395994299 -2.09978464299435  l -2.16408785811225 -2.07767267450172  l -2.18566332033555 -2.05496371017587  l -2.20736386768856 -2.03163598009658  l -2.22918702870353 -2.00766660356243  l -2.25112994114531 -1.98303151464597  l -2.27318931002884 -1.95770538150422  l -2.29536136081973 -1.93166151881115  l -2.31764178719343 -1.90487179260307  l -2.34002569263647 -1.8773065167418  l -2.36250752506562 -1.84893434010196  l -2.38508100351521 -1.81972212347678  l -2.40773903579482 -1.78963480506773  l -2.43047362584633 -1.75863525327607  l -2.45327576932387 -1.72668410534422  l -2.47613533567787 -1.69373959019899  l -2.49904093473617 -1.65975733362229  l -2.52197976543206 -1.6246901436124  l -2.54493744391889 -1.58848777349389  l -2.56789780781915 -1.55109665997888  l -2.59084269276313 -1.5124596329674  l -2.61375167665728 -1.47251559338815  l -2.63660178625302 -1.43119915480948  l -2.65936715952895 -1.3884402438776  l -2.68201865610387 -1.34416365384235  l -2.70452340630505 -1.29828854448775  l -2.72684428754851 -1.25072788066152  l -2.74893931424318 -1.2013878002578  l -2.77076092437943 -1.15016690090266  l -2.79225514212956 -1.096955432664  l -2.81336059094613 -1.04163438178242  l -2.83400732548963 -0.984074427607542  l -2.8541154428389 -0.92413475151003  l -2.87359342328517 -0.861661672382031  l -2.89233613782439 -0.796487078259972  l -2.91022244220082 -0.728426617382085  l -2.92711225456322 -0.6572776043544  l -2.94284298342533 -0.582816587705145  l -2.95722513175929 -0.504796513549005  l -2.97003684748621 -0.422943405876246  l -2.98101711421845 -0.33695246658351  l -2.98985716974221 -0.246483477217239  l -2.9961895896999 -0.151155359064528  l -2.99957425926389 -0.050539718652591  l -2.9994801436081 0.055846827132234  l -2.99526130676238 0.168551784956727  l -2.98612493368961 0.288197641206921  l -2.9710880420532 0.415494700770627  l -2.94891788909306 0.551256096008877  l -2.91804836542266 0.696414917311617  l -2.87646015964536 0.852042809941503  l -2.82150474229346 1.01936793613274  l -2.749638445237 1.19978682292925  l -2.65600733222003 1.39485664180712  l -2.53377366026917 1.60623505083352  l -2.37297169002999 1.83548504715135  l -2.15845306296652 2.0835259477555  l -1.86593846030071 2.3491006071198  l -1.45377278549937 2.62422268265127  l -0.84394304861889 2.87884701411656  l 0.125155266939525 2.997388222963" stroke="currentcolor" stroke-width="0.25%" fill="transparent" class="foreground-stroke" transform-origin="50% 50%" xmlns="http://www.w3.org/2000/svg">
        </path>
      </g>
    </pattern>
  </defs>
  <rect width="10000%" height="10000%" x="-5000%" y="-5000%" fill="url(#turtle-pattern)" transform-origin="50% 50%" />
</svg>