<svg xmlns="http://www.w3.org/2000/svg" width="100%" height="100%">
  <defs>
    <pattern id="turtle-pattern" patternUnits="userSpaceOnUse" width="200" height="200" transform-origin="50% 50%">
      <path id="turtle-path" d="m 3.67394039744206E-14 0  l 200 0  l 1.22464679914735E-14 200  l -200 2.44929359829471E-14  l -3.67394039744206E-14 -200" stroke="transparent" stroke-width="0.25%" fill="transparent" class="foreground-stroke" transform-origin="50% 50%" xmlns="http://www.w3.org/2000/svg">
      </path>
      <g id="turtle-children" xmlns="http://www.w3.org/2000/svg">
        <path id="turtle-t1-path" d="m 0 0  l 1 0  l 0.999987374295327 0.00502506218238858  l 0.999949242767138 0.0100753108848592  l 0.999885218976018 0.0151508703803202  l 0.999794909954238 0.0202518648424369  l 0.999677916073023 0.025378418309616  l 0.99953383090659 0.0305306546473695  l 0.999362241092894 0.0357086975089894  l 0.999162726190973 0.0409126702944649  l 0.998934858534792 0.0461426961075668  l 0.998678203083502 0.0513988977110246  l 0.99839231726799 0.0566813974797152  l 0.998076750833635 0.0619903173517811  l 0.99773104567914 0.0673257787775901  l 0.997354735691345 0.0726879026664469  l 0.996947346575885 0.0780768093309602  l 0.996508395683586 0.0834926184289681  l 0.996037391832474 0.0889354489029166  l 0.995533835125248 0.0944054189165843  l 0.994997216762112 0.0999026457890389  l 0.994427018848804 0.105427245925709  l 0.993822714199689 0.110979334746445  l 0.993183766135767 0.116559026610445  l 0.992509628277444 0.122166434737902  l 0.991799744331904 0.127801671128237  l 0.991053547874919 0.133464846474774  l 0.990270462126933 0.139156070075693  l 0.989449899723232 0.144875449741098  l 0.98859126247804 0.150623091696045  l 0.987693941142323 0.156399100479333  l 0.98675731515514 0.16220357883789  l 0.985780752388309 0.16803662761654  l 0.984763608884203 0.173898345642966  l 0.983705228586447 0.179788829607642  l 0.982604943063296 0.185708173938512  l 0.981462071223462 0.191656470670185  l 0.980275919024153 0.197633809307394  l 0.979045779171071 0.203640276682465  l 0.97777093081011 0.209675956806522  l 0.976450639210501 0.215740930714142  l 0.975084155439101 0.221835276301167  l 0.973670716025569 0.227959068155349  l 0.972209542618109 0.234112377379511  l 0.970699841629481 0.240295271406867  l 0.969140803872961 0.246507813808146  l 0.967531604187911 0.252750064090136  l 0.965871401054628 0.259022077485241  l 0.964159336198098 0.265323904731636  l 0.9623945341803 0.271655591843577  l 0.960576101980658 0.278017179871395  l 0.95870312856427 0.284408704650686  l 0.95677468443746 0.290830196540178  l 0.954789821190264 0.297281680147742  l 0.95274757102537 0.303763174043955  l 0.950646946273071 0.310274690462636  l 0.948486938891737 0.316816234987702  l 0.946266519953306 0.323387806225683  l 0.943984639113282 0.329989395463198  l 0.941640224064692 0.336620986308631  l 0.939232179975445 0.343282554317245  l 0.936759388908505 0.349974066598889  l 0.934220709224279 0.356695481407439  l 0.931614974964585 0.363446747711045  l 0.928940995217541 0.370227804742221  l 0.926197553462708 0.377038581526737  l 0.923383406895759 0.383878996390244  l 0.920497285731955 0.390748956441477  l 0.917537892487652 0.39764835703083  l 0.914503901239044 0.404577081183017  l 0.911393956857319 0.411534999002464  l 0.908206674219359 0.418521967050012  l 0.904940637393084 0.425537827689382  l 0.901594398796525 0.432582408401835  l 0.898166478329631 0.439655521067288  l 0.894655362477816 0.446756961210105  l 0.891059503386193 0.45388650720764  l 0.887377317903392 0.461043919459505  l 0.883607186593835 0.468228939515412  l 0.879747452717277 0.475441289159305  l 0.875796421174378 0.48268066944736  l 0.871752357417029 0.489946759697268  l 0.867613486322094 0.49723921642608  l 0.863377991027176 0.504557672233688  l 0.859044011726968 0.511901734628861  l 0.854609644428673 0.519270984794546  l 0.850072939664941 0.526664976288917  l 0.845431901162688 0.534083233678463  l 0.8406844844661 0.541525251099122  l 0.835828595512075 0.548990490741244  l 0.830862089156248 0.556478381253859  l 0.825782767647721 0.563988316063436  l 0.820588379050503 0.571519651601996  l 0.815276615609613 0.579071705439089  l 0.8098451120597 0.586643754311773  l 0.804291443873982 0.594235032046332  l 0.798613125451184 0.601844727365033  l 0.792807608238106 0.609471981570747  l 0.786872278785335 0.617115886101771  l 0.780804456733545 0.624775479948624  l 0.774601392727737 0.632449746924014  l 0.768260266256664 0.640137612776534  l -0.64783794213795 0.761778183414612  l -0.640137640303492 0.768260243320372  l -0.632294594388536 0.774728046418249  l -0.624306104934546 0.781179804745012  l -0.616169411148822 0.787613646888189  l -0.607881689423708 0.794027613917412  l -0.599440051833265 0.800419655092335  l -0.590841544609209 0.806787623333306  l -0.582083146598274 0.813129270439979  l -0.573161767703529 0.819442242042089  l -0.564074247312675 0.825724072265451  l -0.554817352716795 0.831972178095114  l -0.54538777752367 0.838183853416297  l -0.535782140070366 0.844356262712381  l -0.525996981840562 0.850486434397762  l -0.516028765892928 0.856571253761777  l -0.505873875307752 0.862607455498222  l -0.495528611660149 0.868591615793156  l -0.484989193529302 0.874520143941692  l -0.474251755054604 0.880389273462386  l -0.463312344551067 0.886195052675535  l -0.452166923198105 0.891933334709248  l -0.440811363817754 0.89759976689454  l -0.429241449760626 0.903189779507826  l -0.41745287392038 0.908698573816211  l -0.405441237900347 0.914121109377655  l -0.393202051359198 0.919452090544645  l -0.380730731566141 0.924685952116236  l -0.368022603200353 0.929816844079325  l -0.355072898433992 0.934838615375768  l -0.341876757343558 0.93974479662739  l -0.328429228700385 0.944528581746085  l -0.314725271198037 0.949182808351122  l -0.300759755182204 0.953699936910316  l -0.286527464957734 0.958072028516069  l -0.272023101757629 0.962290721201321  l -0.257241287470579 0.966347204694296  l -0.242176569236945 0.970232193504536  l -0.226823425038392 0.973935898226291  l -0.211176270423868 0.977447994938792  l -0.195229466534689 0.980757592576566  l -0.178977329614462 0.983853198136834  l -0.162414142215991 0.986722679585426  l -0.145534166347673 0.989353226317824  l -0.128331658836762 0.991731307028373  l -0.110800889227139 0.9938426248388  l -0.0929361605755496 0.995672069537695  l -0.074731833563807 0.997203666786375  l -0.0561823544062653 0.998420524154711  l -0.0372822871033913 0.99930477386448  l -0.0180263506750366 0.999837512139518  l 0.00159053789704552 0.999998735093799  l 0.0215732141766138 0.999767271133682  l 0.0419262092602821 0.999120709913003  l 0.0626536841247122 0.998035327964697  l 0.0837593540391182 0.996486011246997  l 0.105246401545646 0.994446174994752  l 0.127117376274147 0.991887681468611  l 0.14937407958327 0.988780756461538  l 0.172017431700368 0.985093905773053  l 0.195047318661574 0.980793833322238  l 0.218462415922365 0.975845363174598  l 0.242259985009654 0.970211368549721  l 0.266435639009329 0.963852711914891  l 0.290983072018841 0.956728201632249  l 0.315893746933785 0.948794572417093  l 0.341156535072893 0.940006499220648  l 0.366757300173611 0.930316657256745  l 0.39267841821306 0.919675844996316  l 0.418898223340903 0.908033192389923  l 0.445390368984703 0.895336483795713  l 0.472123091968648 0.88153263469367  l 0.49905836638535 0.866568374071421  l 0.526150933165302 0.850391201465115  l 0.553347191101846 0.832950710486339  l 0.58058393598773 0.814200401174671  l 0.607786937238365 0.794100144139521  l 0.634869347033782 0.772619513212616  l 0.661729947271484 0.749742273640802  l 0.688251256918653 0.725472402886488  l 0.714297550150577 0.699842132090434  l 0.739712878743398 0.672922623353648  l 0.764319256877919 0.644838021184844  l 0.78791526077658 0.615783681040164  l 0.810275429157572 0.586049254673626  l 0.83115103614178 0.556046720267681  l 0.850273069315786 0.526341816309812  l 0.867358644468925 0.497683616231265  l 0.882122809181974 0.471019478918763  l 0.89429920713514 0.447469471715624  l 0.903676281447789 0.428216275202958  l 0.910160961465321 0.41425478177629  l 0.913884204408811 0.405974951114074  l 0.915342750837344 0.40267561198752  l 0.915501879862773 0.402313693487716  l 0.915701991496851 0.401858013194587  l 0.917280607311188 0.398241493883822  l 0.921097361426293 0.389332314062834  l 0.927300474053754 0.374317820601267  l 0.935446986565256 0.353467021553613  l 0.944798932871948 0.327650692726306  l 0.954585756278227 0.29793629169795  l 0.964151665246829 0.265351778591679  l 0.973004875228974 0.230784559233605  l 0.98081166631154 0.194957624183257  l 0.987368471472091 0.158440845563468  l 0.992570073166933 0.121674359884859  l 0.996381516637747 0.0849933721101967  l 0.998815875628645 0.0486502476065888  l 0.999917656508966 0.0128327784059777  l 0.999750849795878 -0.0223212529312163  l 0.998390541194501 -0.0567126727755969  l 0.995917141725713 -0.0902720710789657  l 0.992412499333746 -0.122952963226381  l 0.987957341226188 -0.154726506834741  l 0.982629646831553 -0.185577415564764  l 0.976503665321109 -0.215500792607452  l 0.96964937518093 -0.244499671188393  l 0.962132243370382 -0.272583099745886  l 0.954013184310886 -0.299764647950693  l 0.945348649139977 -0.326061238986207  l 0.936190796937767 -0.351492235659665  l 0.926587714593128 -0.376078724690834  l 0.916583662485766 -0.399842956251801  l 0.906219330534025 -0.422807905515571  l 0.895532094324151 -0.444996930366266  l 0.884556264647034 -0.46643350509337  l 0.87332332628187 -0.487141014257649  l 0.861862163605928 -0.507142594291298  l 0.850199271803199 -0.526461013015503  l 0.838358953253339 -0.545118579301757  l 0.826363499219731 -0.563137076702753  l 0.814233357302429 -0.580537716135666  l 0.801987285335612 -0.597341103692033  l 0.789642492530492 -0.613567220433289  l 0.777214768722481 -0.629235411654223  l 0.764718602596141 -0.64436438359317  l 0.752167289747674 -0.658972205964439  l 0.739573031412655 -0.673076319006318  l 0.726947024643492 -0.686693543993224  l 0.714299544671841 -0.69984009636602  l 0.70164002013924 -0.712531600800278  l 0.688977101826919 -0.724783107666134  l 0.676318725464692 -0.736609110441769  l 0.663672169149858 -0.748023563730396  l 0.651044105860948 -0.759039901601832  l 0.638440651507987 -0.769671056037614  l 0.62586740892109 -0.779929475305557  l 0.613329508142394 -0.789827142127826  l 0.600831643352724 -0.799375591537586  l 0.588378106733599 -0.808585928344407  l 0.575972819537241 -0.817468844149012  l 0.56361936061178 -0.826034633864445  l 0.551320992605849 -0.834293211714024  l 0.539080686055819 -0.842254126687182  l 0.526901141540073 -0.84992657744288  l 0.514784810067587 -0.857319426657112  l 0.502733911852646 -0.864441214816448  l 0.490750453613567 -0.871300173463817  l 0.47883624452065 -0.877904237906026  l 0.46699291090719 -0.884261059395035  l 0.455221909847053 -0.890378016796912  l 0.44352454169302 -0.896262227763726  l 0.431901961661627 -0.901920559424631  l 0.420355190542635 -0.907359638612973  l 0.408885124604338 -0.912585861646615  l 0.397492544759656 -0.917605403678778  l 0.386178125052313 -0.922424227636655  l 0.374942440517226 -0.927048092764872  l 0.363785974464617 -0.931482562790538  l 0.352709125233066 -0.935733013726311  l 0.341712212452949 -0.939804641327393  l 0.33079548285816 -0.943702468217942  l 0.319959115680867 -0.947431350701843  l 0.30920322766115 -0.950995985272244  l 0.298527877700763 -0.954400914833739  l 0.287933071187821 -0.957650534650479  l 0.277418764017078 -0.960749098033007  l 0.266984866328434 -0.963700721776003  l 0.256631245984512 -0.966509391358634  l 0.246357731806469 -0.969178965918665  l 0.23616411658568 -0.971713183010967  l 0.226050159887601 -0.974115663160587  l 0.216015590662742 -0.976389914220045  l 0.206060109678638 -0.978539335540083  l 0.196183391785535 -0.980567221962637  l 0.186385088027606 -0.982476767644376  l -0.984271069718768 -0.17666482761057  l 0.166744460966384 -0.986000144389964  l 0.146861662091505 -0.989157041226377  l 0.126936602406133 -0.991910832166676  l 0.10698516813266 -0.994260616639132  l 0.0870230683391815 -0.996206296696038  l 0.0670657854191188 -0.997748555712368  l 0.0471285284494448 -0.998888833557664  l 0.0272261896689534 -0.999629298588287  l -0.999972816822585 -0.00737330427319376  l -0.00254927131475569 -0.999996750602603  l -0.999941374758825 0.0108280674837166  l -0.99995719362529 0.00925261676689294  l -0.999968875929128 0.00788968776540219  l -0.999977296575127 0.0067384222411728  l -0.0167451321618021 -0.999859790445082  l -0.999670333235529 0.0256753743646692  l -0.999693480741001 0.0247577172603087  l -0.999710778769053 0.0240490917286462  l -0.999722706897556 0.023548021433288  l -0.99972961598283 0.0232528477142961  l -0.999731730886666 0.0231617412633464  l -0.999729153716575 0.023272713832723  l -0.999721867521264 0.0235836299113663  l -0.999709740383232 0.0240922183057095  l -0.9996925298509 0.0247960835679095  l -0.999669887653871 0.0256927172190293  l -0.999641364646704 0.0267795087198205  l -0.999606415928814 0.0280537561469085  l -0.999564406090777 0.0295126765372566  l -0.999514614540329 0.0311534158688376  l -0.0410622960355466 -0.999156588250455  l -0.0610886273894258 -0.998132345735612  l -0.997364035418869 0.0725601877959822  l -0.0825358627250977 -0.996588095134707  l -0.10261090016391 -0.99472157067571  l -0.122679044284681 -0.99244639759203  l -0.142738842794478 -0.98976038653691  l -0.162772815484495 -0.986663575155813  l -0.182763615570441 -0.983156885152934  l -0.202694091806648 -0.979242107523302  l -0.222547348353725 -0.974921882891509  l -0.242306801953633 -0.970199677245361  l -0.261956236009688 -0.96507975339639  l -0.281479851217054 -0.959567138536343  l -0.300862312440515 -0.953667588288994  l -0.320088791589797 -0.947387547679715  l -0.339145006297244 -0.940734109461139  l -0.35801725425719 -0.933714970242066  l -0.376692443140107 -0.926338384868692  l -0.39515811604638 -0.918613119502806  l -0.413402472513829 -0.910548403831149  l -0.907157480286266 0.420791285509422  l -0.907907189683031 0.419171247728015  l -0.428134961403955 -0.903714808345882  l -0.90013617545157 0.435608615207987  l -0.900804099447322 0.434225718283589  l -0.443141533275243 -0.896451661544819  l -0.892644221152778 0.450761904382514  l -0.893225745942792 0.449608459423243  l -0.893711276984383 0.448642567520006  l -0.894101931186181 0.447863524579912  l -0.894398792857526 0.447270387277093  l -0.894602910353283 0.446861984048135  l -0.89471529320048 0.446636926499791  l -0.894736909688239 0.446593621138434  l -0.894668684899417 0.446730281333545  l -0.894511499159776 0.44704493943107  l -0.894266186878612 0.447535458936593  l -0.893933535753221 0.448199546692927  l -0.89351428630871 0.449034764981773  l -0.893009131744123 0.450038543484452  l -0.892418718055758 0.451208191042358  l -0.891743644408893 0.452540907163481  l -0.89098446372971 0.454033793227202  l -0.462825161537965 -0.886449586748934  l -0.880978184764769 0.473156885153933  l -0.481851801004221 -0.876252727167789  l -0.499292249985727 -0.866433638026705  l -0.860585483582963 0.509306023375218  l -0.517860954772796 -0.85546480437351  l -0.534961104155227 -0.844876687476356  l -0.551887600894423 -0.833918506797276  l -0.568624419027914 -0.822597270895769  l -0.585155989191108 -0.810920753411686  l -0.601467251190282 -0.798897456339427  l -0.617543702754516 -0.786536569517427  l -0.633371444141167 -0.773847926757275  l -0.648937218325208 -0.760841959063997  l -0.664228446560588 -0.747529645418634  l -0.679233259160547 -0.733922461606225  l -0.693940521402581 -0.720032327576696  l -0.70833985452121 -0.705871553823266  l -0.722421651807061 -0.6914527872533  l -0.736177089883088 -0.676788957010432  l -0.749598135277203 -0.661893220685134  l -0.762677546454718 -0.646778911324273  l -0.640410671196917 0.768032663509251  l -0.774339543829022 -0.632770314460676  l -0.78677436373336 -0.617240715257805  l -0.610810666613862 0.791776691719786  l -0.612186747194532 0.790713213851507  l -0.796718671404751 -0.604350360829749  l -0.59771532281128 0.801708421358169  l -0.598910113430857 0.800816256097638  l -0.590954521487378 0.806704873874966  l -0.592063194860473 0.805891539409374  l -0.592999818069826 0.805202592997038  l -0.593765667181367 0.804638013318204  l -0.594362100229941 0.804197546508477  l -0.594790549205091 0.803880714146263  l -0.595052512271885 0.80368682186466" stroke="#4488ff" stroke-width="0.25%" fill="transparent" class="foreground-stroke" transform-origin="50% 50%" xmlns="http://www.w3.org/2000/svg">
        </path>
        <path id="turtle-t2-path" d="m 0 0  m 200 0  l 6.12323399573677E-17 1  l -0.00502506218238842 0.999987374295327  l -0.0100753108864773 0.999949242767122  l -0.0151508703901521 0.999885218975869  l -0.0202518648756155 0.999794909953566  l -0.0253784183935842 0.999677916070891  l -0.0305306548258705 0.999533830901137  l -0.0357086978462844 0.999362241080842  l -0.0409126708797918 0.999162726167005  l -0.046142697059842 0.998934858490805  l -0.0513988991838058 0.998678203007702  l -0.056681399666432 0.998392317143844  l -0.0619903204912413 0.998076750638644  l -0.0673257831597806 0.997731045383435  l -0.072687908638633 0.997354735256088  l -0.0780768173040998 0.996947345951461  l -0.0834926288844523 0.996508394807572  l -0.0889354623996492 0.99603739062736  l -0.0944054360984115 0.995533833495913  l -0.0999026673925488 0.994997214593013  l -0.105427272788407 0.994427016000872  l -0.110979367815329 0.993822710506914  l -0.116559066950981 0.993183761401442  l -0.122166483543438 0.992509622270047  l -0.127801729729849 0.991799736780596  l -0.133464916351574 0.991053538464632  l -0.139156152865607 0.990270450493018  l -0.144875547252144 0.989449885445641  l -0.150623205918118 0.988591245075005  l -0.156399233596521 0.987693920063509  l -0.162203733241334 0.986757289774225  l -0.168036805917873 0.985780721994967  l -0.173898550688331 0.984763572675441  l -0.179789064492322 0.983705185657256  l -0.185708442022194 0.982604892396577  l -0.191656775592879 0.981462011679179  l -0.197634155006021 0.980275849327655  l -0.203640667408152 0.979045697900544  l -0.209676397142613 0.977770836383093  l -0.215741425594961 0.976450529869411  l -0.221835831031551 0.975084029235707  l -0.227959688430977 0.973670570804341  l -0.234113069308057 0.972209375998381  l -0.240296041530003 0.970699650986345  l -0.246508669124419 0.969140586316819  l -0.25275101207875 0.967531356542602  l -0.259023126130766 0.965871119834031  l -0.26532506254968 0.964159017581129  l -0.27165686790744 0.962394173984194  l -0.278018583839742 0.960575695632439  l -0.284410246796257 0.958702671070281  l -0.290831887779581 0.956774170350854  l -0.29728353207233 0.95478924457631  l -0.303765198951848 0.952746925424451  l -0.310276901391889 0.950646224661229  l -0.316818645750665 0.948486133638608  l -0.323390431444571 0.946265622777291  l -0.329992250606897 0.943983641033781  l -0.336624087730775 0.941639115351217  l -0.343285919295579 0.93923095009342  l -0.349977713375948 0.936758026461552  l -0.356699429232561 0.93421920189277  l -0.363451016883746 0.931613309440226  l -0.370232416656936 0.928939157133752  l -0.377043558718961 0.926195527320523  l -0.38388436258407 0.92338117598499  l -0.390754736598556 0.920494832047303  l -0.397654577400744 0.917535196639473  l -0.404583769355077 0.91450094235842  l -0.411542183958934 0.911390712495092  l -0.418529679220732 0.908203120238744  l -0.425546099007804 0.904936747855473  l -0.432591272362427 0.901590145840036  l -0.439665012784284 0.89816183203997  l -0.446767117477575 0.894650290750961  l -0.453897366560814 0.891053971782382  l -0.461055522237306 0.887371289491882  l -0.468241327924126 0.883600621787836  l -0.475454507337299 0.879740309098456  l -0.482694763530752 0.875788653306259  l -0.489961777886433 0.871743916646606  l -0.497255209052857 0.867604320568887  l -0.504574691829128 0.863368044558948  l -0.511919835991345 0.859033224921245  l -0.519290225058056 0.85459795351917  l -0.526685414991239 0.850060276471914  l -0.534104932829037 0.845418192806193  l -0.541548275246262 0.840669653061057  l -0.549014907038363 0.835812557843957  l -0.556504259524323 0.830844756336155  l -0.564015728863619 0.825764044745495  l -0.571548674282034 0.820568164704462  l -0.5791024162008 0.815254801611371  l -0.586676234263117 0.809821582912464  l -0.594269365251732 0.804266076322571  l -0.601881000890779 0.798585787981926  l -0.609510285524633 0.792778160546618  l -0.617156313666001 0.786840571210072  l -0.624818127404911 0.78077032965285  l -0.632494713669688 0.774564675917963  l -0.640185001330323 0.768220778208774  l -0.768230095591904 -0.64017382032293  l -0.774777295572509 -0.632234246356008  l -0.781309687214752 -0.624143551328047  l -0.787825365381814 -0.615898687822122  l -0.794322331326139 -0.607496529995528  l -0.800798487773597 -0.59893387112395  l -0.807251633709063 -0.59020742105979  l -0.813679458842321 -0.581313803601865  l -0.820079537731426 -0.57224955377371  l -0.826449323538857 -0.563011115007658  l -0.832786141393632 -0.553594836231974  l -0.83908718133039 -0.543996968858302  l -0.8453494907739 -0.534213663666803  l -0.851569966534776 -0.524240967586435  l -0.857745346279176 -0.514074820368024  l -0.863872199431989 -0.503711051147916  l -0.869946917469366 -0.49314537490029  l -0.875965703552517 -0.48237338877652  l -0.881924561450228 -0.471390568330363  l -0.887819283692753 -0.460192263628244  l -0.893645438894306 -0.4487736952445  l -0.899398358175447 -0.437129950142186  l -0.905073120610045 -0.425255977440877  l -0.910664537614141 -0.413146584074009  l -0.916167136185918 -0.400796430339509  l -0.921575140896839 -0.38820002534901  l -0.926882454523942 -0.375351722382718  l -0.93208263720194 -0.362245714159157  l -0.93716888396112 -0.348876028031547  l -0.942134000502893 -0.335236521125629  l -0.946970377048935 -0.321320875437307  l -0.951669960082025 -0.307122592912792  l -0.956224221776601 -0.292634990538955  l -0.960624126894394 -0.277851195477693  l -0.96486009689498 -0.262764140285181  l -0.968921970982127 -0.247366558265481  l -0.972798963774112 -0.231650979018035  l -0.976479619248934 -0.215609724250686  l -0.979951760573114 -0.199234903944199  l -0.983202435374518 -0.182518412971451  l -0.986217855964631 -0.16545192829498  l -0.988983333952724 -0.148026906891126  l -0.991483208622146 -0.130234584578502  l -0.993700768355974 -0.112065975963926  l -0.995618164303736 -0.0935118757616365  l -0.997216315370558 -0.0745628617930338  l -0.99847480348253 -0.0552093000365317  l -0.999371757934043 -0.0354413521725666  l -0.999883727450883 -0.0152489861606836  l -0.999985538402327 0.00537800950245442  l -0.999650137361375 0.026450007058294  l -0.998848415937922 0.0479775153410851  l -0.997549015487669 0.0699711490514665  l -0.995718108920476 0.0924415900330121  l -0.993319156384441 0.115399538819282  l -0.990312631072615 0.138855654325039  l -0.986655710771285 0.162820479063324  l -0.982301930022002 0.187304346652847  l -0.977200786879425 0.212317267602595  l -0.971297297183691 0.237868788376402  l -0.964531487993126 0.263967817488734  l -0.956837820296781 0.290622410783656  l -0.948144529293459 0.317839505994591  l -0.938372868321517 0.34562459402949  l -0.927436239876852 0.373981310981025  l -0.915239193978712 0.402910930362031  l -0.901676270336984 0.432411729155426  l -0.886630656236781 0.462478193454713  l -0.869972626686384 0.493100019079692  l -0.851557727097553 0.524260848643545  l -0.831224651572169 0.555936667812734  l -0.808792761885309 0.588093758104891  l -0.784059183886902 0.620686068929057  l -0.75679541021782 0.653651824041853  l -0.726743332833821 0.686909112023993  l -0.693610629467602 0.720350119517972  l -0.657065441558954 0.753833539655099  l -0.616730319615575 0.78717451233311  l -0.572175497558217 0.820131209011099  l -0.52291172992367 0.852386838652636  l -0.468383255100862 0.883525396545634  l -0.407962057682277 0.91299888252486  l -0.340945708056604 0.940082987909994  l -0.266563020902469 0.96381749096359  l -0.183995184589279 0.982927144832188  l -0.0924257411477628 0.995719580189767  l 0.00885812068130478 0.999960766079347  l 0.120277613617684 0.992740296181451  l 0.241638460926918 0.970366350509368  l 0.371619445352395 0.928385150589979  l 0.507065929997025 0.861907270323352  l 0.642236660929131 0.76650640659984  l 0.768468910012154 0.63988712625332  l 0.875050085559149 0.484032382969287  l 0.951832510383261 0.306618447223092  l 0.992767985206507 0.120048854842567  l 0.998068014639654 -0.0621308148446507  l 0.973363831056188 -0.229265898885161  l 0.92679955125561 -0.375556376317059  l 0.86627539720168 -0.499566748496207  l 0.798038975478641 -0.602605836029656  l 0.726453763299121 -0.687215344552596  l 0.654327630752511 -0.756211181902123  l 0.583359317716648 -0.81221419984704  l 0.514516545024562 -0.857480451611573  l 0.448306642371093 -0.893879832195557  l 0.384955372477867 -0.922935187973905  l 0.324520337310008 -0.945878718796548  l 0.266961351708316 -0.96370723598719  l 0.21218358523831 -0.977229822588022  l 0.160063787944898 -0.987106672953197  l 0.110466092492965 -0.993879893351976  l 0.0632514115132657 -0.997997624717404  l 0.018282902610976 -0.999832853767127  l -0.0245709786349085 -0.999698087929012  l -0.065434900697189 -0.997856840318665  l -0.104425973794622 -0.994532662106703  l -0.141653603948042 -0.98991628761655  l -0.177219660178302 -0.984171322507564  l -0.211218816247874 -0.977438802003914  l -0.243738981237687 -0.969840867887724  l -0.274861766445982 -0.96148375407294  l -0.304662956985503 -0.952460226277638  l -0.333212969608421 -0.942851587941993  l -0.360577286550478 -0.932729339317625  l -0.386816860342295 -0.922156557507959  l -0.411988487714647 -0.911189050631425  l -0.436145152642527 -0.899876328073156  l -0.45933633968813 -0.888262420145033  l -0.481608319409583 -0.876386573764955  l -0.503004407889478 -0.864283845529786  l -0.523565202527008 -0.851985609445871  l -0.54332879620842 -0.8395199933359  l -0.562330971872783 -0.826912255364867  l -0.580605379356171 -0.814185110071829  l -0.598183696247219 -0.801359011644603  l -0.615095774333414 -0.788452400844324  l -0.631369773067735 -0.775481920908797  l -0.647032281343653 -0.76246260688589  l -0.662108428735341 -0.749408052130225  l -0.676621987239855 -0.736330555106597  l -0.690595464449363 -0.723241249156856  l -0.704050188983579 -0.710150217483728  l -0.717006388924872 -0.697066595269717  l -0.729483263920197 -0.68399866056911  l -0.741499051544201 -0.670953915376496  l -0.753071088455711 -0.657939158077805  l -0.764215866824613 -0.64496054832331  l -0.774949086456996 -0.632023665221064  l -0.7852857030028 -0.619133559629421  l -0.795239972591382 -0.606294801225326  l -0.804825493205883 -0.593511520937806  l -0.814055243076513 -0.580787449261465  l -0.822941616345508 -0.568125950900539  l -0.831496456232008 -0.555530056138831  l -0.83973108590335 -0.543002489283042  l -0.847656337239734 -0.530545694485705  l -0.855282577661747 -0.518161859218023  l -0.862619735174653 -0.505852935631702  l -0.869677321769267 -0.493620660021676  l -0.876464455306682 -0.481466570577815  l -0.882989880002792 -0.469392023592919  l -0.889261985618336 -0.457398208276043  l -0.895288825451036 -0.445486160304116  l -0.901078133218086 -0.433656774230738  l -0.906637338909788 -0.421910814858518  l -0.911973583688332 -0.410248927670337  l -0.917093733899611 -0.398671648405137  l -0.922004394260381 -0.387179411855213  l -0.926711920278042 -0.375772559954268  l -0.931222429955735 -0.364451349218706  l -0.935541814831269 -0.353215957598487  l -0.939675750394597 -0.342066490788489  l -0.943629705925117 -0.331002988046449  l -0.947408953786885 -0.320025427559187  l -0.951018578216967 -0.309133731394971  l -0.95446348363951 -0.298327770076356  l -0.957748402535688 -0.287607366804706  l -0.960877902897501 -0.276972301364778  l -0.963856395291314 -0.266422313735233  l -0.966688139555244 -0.25595710742861  l -0.969377251152711 -0.245576352582274  l -0.971927707202955 -0.23527968881994  l -0.974343352207839 -0.225066727901729  l -0.976627903492956 -0.214937056179137  l -0.978784956379783 -0.204890236869957  l -0.98081798910454 -0.194925812166904  l -0.185043305192555 0.982730367498336  l -0.18478367402151 0.98277921926296  l -0.184432255070237 0.982845228553157  l -0.183888074670485 0.982947188812289  l -0.183153426123673 0.983084341498307  l -0.182230689202923 0.983255803904878  l -0.181122320575694 0.983460576225237  l -0.179830844549044 0.983697548715446  l -0.178358844163069 0.983965508902022  l -0.176708952653801 0.984263148782884  l -0.985955859213656 -0.167006118697073  l -0.989088143133763 -0.14732496432107  l -0.99183561109169 -0.127523019766525  l -0.99419246874957 -0.107616611550608  l -0.0965923585548511 0.995324025766891  l -0.99624163544112 -0.0866175721987278  l -0.997782837393512 -0.0665538083279462  l -0.998921101348379 -0.0464395658995923  l -0.999654615389287 -0.0262802193844972  l -0.999981439678327 -0.00609264301104513  l -0.999900500499788 0.0141063496438011  l -0.999411579641639 0.0343000652798719  l -0.998515299065509 0.0544719885089273  l -0.997213101133761 0.07460583708523  l -0.995507224701837 0.0946856143584984  l -0.99340067741748 0.11469565862094  l -0.990897204595401 0.13462068906754  l -0.98800125505638 0.154445848137842  l -0.984717944333629 0.174156740057202  l -0.981053015656688 0.19373946544501  l 0.213180651905799 0.977012799124463  l 0.211454882104097 0.977387759711744  l -0.97773177989269 0.209858444166233  l 0.218157905945051 0.975913483908113  l 0.216895237817557 0.97619488618414  l 0.226568457697913 0.973995243302753  l 0.225419378589548 0.974261825053359  l 0.22447549151053 0.974479734889908  l 0.223735745818426 0.974649842786153  l 0.22319887216008 0.974772929182211  l 0.222863393964092 0.974849684633896  l 0.222727639179146 0.974880710007991  l 0.222789752177766 0.974866517183029  l 0.22304770574871 0.974807530213137  l 0.223499313105302 0.974704086911232  l 0.224142239841571 0.974556440807203  l 0.224974015772862 0.974364763436688  l 0.225992046602701 0.974129146916528  l 0.227193625362938 0.973849606764024  l 0.22857594357952 0.973526084918495  l 0.230136102121652 0.973158452925449  l -0.970819856236607 0.239809938778052  l -0.967922445050094 0.251249159935406  l 0.262618474888043 0.964899754714177  l -0.962262300653822 0.272123620327993  l -0.956642426704733 0.291264943699856  l 0.302299534872707 0.953212983134276  l -0.950161724809398 0.311757432481135  l -0.943721457532985 0.330741304635238  l -0.936884165774443 0.349639900356247  l -0.929653035545175 0.368436200042342  l -0.922032089410354 0.387113453780126  l -0.91402616288758 0.405655239775117  l -0.905640876397612 0.424045519959549  l -0.896882603100209 0.442268692376245  l -0.887758432985894 0.460309639984251  l -0.878276133625525 0.4781537755825  l -0.868444108003545 0.495787082600916  l -0.858271349877702 0.513196151563033  l -0.847767397117783 0.530368212079248  l -0.836942283478715 0.547291160284391  l -0.825806489259601 0.563953581686235  l -0.814370891290327 0.580344769442267  l -0.802646712671799 0.59645473812952  l 0.603098198984653 0.797666949535624  l -0.79167150093364 0.610946998199908  l 0.62652679952378 0.779399877776799  l 0.625140992901481 0.780511844236941  l -0.774262808846513 0.632864205684843  l 0.639293060711679 0.768963186716954  l 0.638119606705031 0.769937249091519  l 0.637043810298892 0.770827596651722  l 0.636129725068341 0.771582123227643  l 0.63537705503368 0.772202044763369  l 0.634785260433985 0.772688600366123  l 0.63435356718605 0.773043046536436  l 0.634080976895616 0.773266651769686  l 0.633966277330533 0.773360691532526  l 0.634008053266981 0.773326443613959  l 0.634204697622195 0.773165183847501  l 0.634554422790142 0.772878182197861  l 0.635055272100284 0.772466699203037  l 0.63570513132378 0.771931982760538  l 0.636501740156165 0.77127526524463  l 0.637442703610575 0.770497760940057  l 0.638525503260919 0.769600663776605  l -0.763198388623879 0.64616423578059  l 0.654963646559519 0.755660387796964  l 0.656228048907113 0.754562620216218  l -0.747988796373938 0.663711353299812  l -0.740134201222805 0.672459191460924  l 0.681087783488182 0.732201769448255  l -0.725442494149639 0.688282781770655  l -0.711563911080433 0.702621377733355  l 0.710765561291525 0.703428970743985  l -0.696326796739028 0.717724872178165  l -0.681797566019711 0.73154089357301  l -0.666957816594402 0.745095477696401  l -0.651818300665336 0.758375172930756  l -0.63639037402083 0.771367157619268  l -0.620685948089283 0.784059279547476  l -0.604717439498656 0.796440090883294" stroke="#4488ff" stroke-width="0.25%" fill="transparent" class="foreground-stroke" transform-origin="50% 50%" xmlns="http://www.w3.org/2000/svg">
        </path>
        <path id="turtle-t3-path" d="m 0 0  m 200 200  l -1 1.22464679914735E-16  l -0.99998737397651 -0.00502512562654706  l -0.999949240194005 -0.0100755662586355  l -0.999885210212092 -0.0151514487465978  l -0.999794888988029 -0.0202528998766848  l -0.999677874741669 -0.0253800463352496  l -0.999533758817121 -0.0305330146712938  l -0.999362125541024 -0.0357119312573119  l -0.999162552077349 -0.0409169222483558  l -0.998934608278624 -0.0461481135392534  l -0.998677856533472 -0.0514056307198941  l -0.998391851610372 -0.0566895990285081  l -0.99807614049752 -0.0620001433028494  l -0.997730262238684 -0.067337387929195  l -0.997353747764927 -0.0727014567890747  l -0.996946119722095 -0.0780924732036208  l -0.996506892293922 -0.0835105598754479  l -0.996035571020641 -0.088955838827956  l -0.995531652612965 -0.0944284313419383  l -0.994994624761284 -0.0999284578893914  l -0.994423965939961 -0.105456038064394  l -0.993819145206559 -0.111011290510942  l -0.993179621995854 -0.116594332847582  l -0.992504845908479 -0.122205281588749  l -0.991794256494033 -0.127844252062614  l -0.991047283028477 -0.133511358325328  l -0.990263344285668 -0.139206713071479  l -0.989441848302816 -0.144930427540622  l -0.988582192139707 -0.150682611419672  l -0.987683761631477 -0.156463372741021  l -0.986745931134752 -0.162272817776148  l -0.985768063266933 -0.168111050924559  l -0.984749508638423 -0.173978174597808  l -0.983689605577561 -0.179874289098423  l -0.982587679848046 -0.185799492493477  l -0.981443044358602 -0.191753880482559  l -0.980254998864634 -0.197737546259926  l -0.979022829661633 -0.203750580370535  l -0.977745809270046 -0.209793070559691  l -0.976423196111349 -0.215865101616028  l -0.975054234175032 -0.221966755207492  l -0.973638152676193 -0.228098109710034  l -0.972174165703451 -0.234259240028647  l -0.97066147185684 -0.240450217410408  l -0.969099253875367 -0.246671109249153  l -0.967486678253881 -0.252921978881376  l -0.96582289484891 -0.259202885372966  l -0.964107036473084 -0.265513883296313  l -0.962338218477764 -0.271855022497367  l -0.960515538323488 -0.27822634785214  l -0.958638075137812 -0.284627899012149  l -0.956704889260116 -0.291059710138296  l -0.954715021772939 -0.297521809622584  l -0.952667494019374 -0.304014219797111  l -0.950561307106047 -0.310536956629712  l -0.948395441391175 -0.317090029405589  l -0.946168855957196 -0.323673440394252  l -0.943880488067416 -0.330287184501028  l -0.941529252606141 -0.336931248902387  l -0.939114041501675 -0.343605612664272  l -0.936633723131624 -0.350310246342571  l -0.934087141709831 -0.357045111564852  l -0.931473116654339 -0.363810160592378  l -0.928790441935657 -0.370605335861434  l -0.926037885404657 -0.377430569502883  l -0.923214188099352 -0.384285782838832  l -0.920318063529795 -0.391170885855235  l -0.917348196940307 -0.398085776649164  l -0.914303244548209 -0.405030340849446  l -0.911181832758196 -0.412004451009228  l -0.907982557351458 -0.419007965969033  l -0.90470398264863 -0.426040730188685  l -0.901344640645583 -0.433102573046484  l -0.897903030121074 -0.440193308103831  l -0.894377615715184 -0.447312732333457  l -0.890766826977474 -0.45446062530926  l -0.887069057383708 -0.461636748355652  l -0.883282663319976 -0.468840843654187  l -0.879405963032977 -0.476072633305089  l -0.875437235545193 -0.483331818341179  l -0.871374719533615 -0.490618077691512  l -0.867216612170645 -0.497931067091891  l -0.862961067925721 -0.505270417939246  l -0.858606197326178 -0.51263573608663  l -0.854150065675778 -0.520026600575456  l -0.849590691729281 -0.527442562301301  l -0.844926046321385 -0.534883142609404  l -0.840154050948257 -0.542347831815739  l -0.835272576299846 -0.549836087649235  l -0.830279440741074 -0.557347333610461  l -0.825172408739922 -0.564880957241749  l -0.819949189240381 -0.572436308303415  l -0.814607433978115 -0.580012696850328  l -0.80914473573664 -0.587609391202764  l -0.803558626541713 -0.595225615804961  l -0.797846575791556 -0.602860548964426  l -0.79200598832044 -0.610513320464479  l -0.786034202393066 -0.618183009042061  l -0.779928487627106 -0.625868639722183  l -0.773686042841139 -0.633569180999848  l 0.641283541859564 -0.767303993825167  l 0.641283483655614 -0.767304042469815  l 0.633460722805596 -0.773774846232812  l 0.625492843266085 -0.780229903953257  l 0.617377087996141 -0.786667357411889  l 0.609110636968957 -0.793085261451297  l 0.600690605640905 -0.799481579709478  l 0.592114043396866 -0.805854180117106  l 0.583377931973711 -0.812200830143676  l 0.57447918386411 -0.818519191776727  l 0.565414640703315 -0.824806816217192  l 0.556181071641961 -0.831061138272751  l 0.546775171708527 -0.837279470429743  l 0.537193560165627 -0.843458996582868  l 0.527432778865035 -0.849596765400332  l 0.517489290607066 -0.85568968330055  l 0.507359477510825 -0.861734507014744  l 0.49703963940279 -0.867727835707916  l 0.486525992232327 -0.873666102628659  l 0.475814666523945 -0.879545566256068  l 0.464901705877539 -0.88536230090972  l 0.453783065529449 -0.891112186786094  l 0.442454610988977 -0.896790899382121  l 0.430912116767041 -0.902393898263584  l 0.419151265215962 -0.907916415132945  l 0.407167645502007 -0.913353441147704  l 0.394956752735268 -0.918699713436775  l 0.382513987284843 -0.923949700758354  l 0.369834654311089 -0.9290975882385  l 0.356913963551086 -0.934137261125074  l 0.343747029398335 -0.939062287486735  l 0.330328871323359 -0.943865899781445  l 0.316654414688226 -0.948540975213226  l 0.302718492015264 -0.953080014789947  l 0.288515844778522 -0.957475120988392  l 0.274041125795931 -0.961717973926088  l 0.259288902310886 -0.965799805932066  l 0.244253659864228 -0.969711374401131  l 0.228929807071681 -0.973442932808145  l 0.213311681437793 -0.976984199750529  l 0.197393556355893 -0.980324325878519  l 0.1811696494646 -0.983451858563943  l 0.164634132555649 -0.986354704149399  l 0.147781143255555 -0.989020087611006  l 0.130604798735629 -0.991434509459513  l 0.113099211741597 -0.993583699696925  l 0.0952585092764749 -0.995452568639221  l 0.0770768543192275 -0.997025154410987  l 0.0585484710181829 -0.998284566915383  l 0.0396676738634044 -0.999212928084033  l 0.0204289014177109 -0.999791308217303  l 0.000826755273472565 -0.9999996582378  l -0.0191439549963693 -0.999816737701013  l -0.0394881600070019 -0.999220038439613  l -0.0602104708275434 -0.99818570376595  l -0.081315110162678 -0.99668844322548  l -0.102805833084347 -0.994701442988716  l -0.124685835733116 -0.992196272099192  l -0.146957650159209 -0.989142784970746  l -0.169623023182765 -0.985509020763554  l -0.192682776815176 -0.98126110058373  l -0.216136647391092 -0.976363123870693  l -0.239983100105577 -0.970777065892946  l -0.264219115124116 -0.964462679009939  l -0.288839940825508 -0.957377401333412  l -0.313838809039541 -0.949476277713479  l -0.339206606344902 -0.940711899686602  l -0.364931494591586 -0.931034373294108  l -0.390998472805863 -0.9203913266994  l -0.417388871532198 -0.908727973554836  l -0.444079769489052 -0.895987253442007  l -0.471043321212369 -0.882110077904805  l -0.498245983220516 -0.867035720258757  l -0.525647625309864 -0.85070240037636  l -0.553200513133091 -0.833048133224776  l -0.580848148628703 -0.814011933717564  l -0.608523956802218 -0.793535502670027  l -0.636149811806539 -0.771565562307251  l -0.663634403765047 -0.748057068771768  l -0.690871462643573 -0.722977608301067  l -0.717737880141341 -0.696313388791436  l -0.744091809991527 -0.668077374488564  l -0.769770888100519 -0.638320279979367  l -0.794590805486127 -0.60714533007914  l -0.818344599086351 -0.574727863554743  l -0.84080320653046 -0.541340898037545  l -0.861718060291296 -0.507387410730506  l -0.880826751788437 -0.473438732397161  l -0.897863018954849 -0.440274913200018  l -0.912572424400543 -0.408915113713977  l -0.924735136133033 -0.380611255746621  l -0.934197728301389 -0.356755664897594  l -0.940918141347068 -0.338634096458078  l -0.945031539567589 -0.326979187751318  l -0.946938976326654 -0.321413402199456  l -0.947380370001243 -0.320110035044682  l -0.947387455687061 -0.320089063866287  l -0.94803558324461 -0.318164317455701  l -0.95009817482299 -0.311951050964766  l -0.953839830548885 -0.300315796551688  l -0.959056551837661 -0.283214636587264  l -0.965266604760476 -0.261266878371874  l -0.971906579876527 -0.235366947536632  l -0.978459463869901 -0.206439040792738  l -0.984511967640018 -0.175317385257651  l -0.989765329237218 -0.142704565588983  l -0.994023151993019 -0.109169470557766  l -0.997171349919588 -0.0751618180963349  l -0.999157853316654 -0.0410315019912203  l -0.999975166077532 -0.00704749801080552  l -0.999646539466676 0.0265856377072085  l -0.998215519491237 0.0597141243495996  l -0.995738287302333 0.0922239838665451  l -0.992278175105791 0.124032347428891  l -0.987901817652998 0.155080619930094  l -0.982676506221098 0.185329123780093  l -0.976668413259523 0.214752905780402  l -0.969941440177385 0.243338452831895  l -0.962556506648898 0.271081116103409  l -0.954571149583567 0.297983087410524  l -0.946039336737163 0.32405180657714  l -0.937011426859085 0.349298705888672  l -0.927534227799229 0.373738218892433  l -0.917651118096037 0.397386997091114  l -0.907402207715252 0.420263290608978  l -0.896824520897475 0.442386458559724  l -0.885952189297898 0.463776582287487  l -0.874816647340236 0.484454160407762  l -0.863446824375064 0.504439869039529  l -0.851869330130321 0.523754374094688  l -0.840108631284515 0.542418185205159  l -0.828187217936732 0.560451542995659  l -0.816125759403901 0.577874333084111  l -0.803943249225942 0.59470602151318  l -0.791657139561711 0.610965607363434  l -0.779283465355374 0.626671589130798  l -0.766836958774554 0.641841942114562  l -0.754331154490309 0.656494104592964  l -0.741778486400822 0.670644970989052  l -0.729190376407002 0.684310890571979  l -0.716577315837452 0.697507670514951  l -0.703948940098306 0.710250582354194  l -0.691314097094589 0.722554371074104  l -0.678680909937 0.734433266190391  l -0.666056834413475 0.745900994322371  l -0.653448711670007 0.756970792842636  l -0.640862816510962 0.767655424271618  l -0.628304901696189 0.777967191149178  l -0.615780238580979 0.787917951168237  l -0.603293654415549 0.797519132398673  l -0.590849566593443 0.806781748465061  l -0.57845201411289 0.815716413570758  l -0.566104686491876 0.8243333572845  l -0.553810950356287 0.832642439024979  l -0.541573873900887 0.840653162194723  l -0.529396249405014 0.848374687927395  l -0.517280613968581 0.85581584842318  l -0.50522926861912 0.862985159855364  l -0.493244295927133 0.869890834838112  l -0.481327576254725 0.876540794450978  l -0.469480802751393 0.882942679820104  l -0.457705495200708 0.88910386325956  l -0.446003012812458 0.895031458979075  l -0.434374566046523 0.900732333366519  l -0.422821227547149 0.906213114855177  l -0.41134394225946 0.911480203387022  l -0.399943536793799 0.916539779484157  l -0.388620728097869 0.921397812941122  l -0.377376131491439 0.926060071151195  l -0.366210268113782 0.930532127080001  l -0.355123571829713 0.934819366899781  l -0.344116395636262 0.938926997297611  l -0.333189017608489 0.94286005247072  l -0.32234164641974 0.94662340082179  l -0.311574426468748 0.950221751366843  l -0.300887442643312 0.953659659868009  l -0.290280724747856 0.956941534703066  l -0.279754251619975 0.960071642483283  l -0.269307954959042 0.963054113430693  l -0.258941722888123 0.965892946525509  l -0.24865540326872 0.968592014433977  l -0.238448806786387 0.971155068226567  l -0.228321709823782 0.97358574189598  l -0.218273857136471 0.975887556684051  l -0.208304964345608 0.978063925226248  l -0.19841472026051 0.980118155522049  l -0.188602789043174 0.982053454739168  l -0.178868812225866 0.983872932859172  l -0.158762997964015 0.987316722474343  l -0.149181647473556 0.988809807828116  l -0.129201691620897 0.99161833528949  l -0.109194810129399 0.994020368725312  l -0.0891769372839136 0.996015800003525  l -0.0691637745008497 0.997605318899612  l -0.0491707422918554 0.998790387469998  l -0.0292129354817308 0.999573211125899  l -0.00930508188583668 0.999956706788398  l 0.999944468515529 -0.0105384953952846  l 0.999961943394104 -0.00872420560772082  l 0.999975197538881 -0.0070430325198825  l 0.999984461678569 -0.00557462119093207  l 0.00431823119103484 0.999990676396226  l 0.999913078894633 -0.0131846370998413  l 0.999924845684138 -0.0122598117258183  l 0.999753160299528 -0.0222175262148206  l 0.999770935979297 -0.0214027000885444  l 0.999783735820415 -0.0207961916940078  l 0.999791970828814 -0.0203964473925319  l 0.999795924058185 -0.020201738455902  l 0.999795753603446 -0.0202101725999059  l 0.999791496076349 -0.0204197055173614  l 0.999783070505688 -0.0208281523477076  l 0.999770282604741 -0.0214331990248084  l 0.999752829349442 -0.0222324134493891  l 0.999730303812204 -0.0232232564374161  l 0.99970220019828 -0.0244030924007023  l 0.999667919033986 -0.0257691997209828  l 0.999626772458849 -0.027318780783627  l 0.0372760360272312 0.999305007061456  l 0.0490131520814401 0.998798133219642  l 0.068893376528473 0.997624028715481  l 0.0888060894315497 0.996048933777792  l 0.994979791931959 -0.100076039325283  l 0.109984103239315 0.993933346374214  l 0.12989534870505 0.991527709337865  l 0.149795076569926 0.988717065208956  l 0.169666206818484 0.985501587144246  l 0.189491798986478 0.981882303596958  l 0.209255111496951 0.977861083340777  l 0.228939658775 0.97344061587751  l 0.248529265728386 0.968624387508651  l 0.268008119222863 0.963416653390745  l 0.287360816226569 0.957822405927947  l 0.306572408346128 0.951847339882218  l 0.325628442527236 0.945497814602068  l 0.344514997743408 0.938780813784485  l 0.363218717547406 0.931703903192005  l 0.381726838409701 0.924275186747829  l 0.916503261427013 -0.40002721381632  l 0.409112180861691 0.912484094913764  l 0.427246145960002 0.904135349802409  l 0.900652669724693 -0.434539720299288  l 0.901418028658979 -0.432949809572149  l 0.441864061098336 0.897082020502967  l 0.893374509065226 -0.449312793666579  l 0.894053394932845 -0.447960407858836  l 0.89467313494265 -0.446721369101468  l 0.895197239734604 -0.445670171731906  l 0.895626827149238 -0.444806234770365  l 0.89596298271509 -0.444128735395808  l 0.896206756177912 -0.443636619522176  l 0.896359158514929 -0.443328612821695  l 0.896421159417031 -0.443203232106249  l 0.896393685218502 -0.443258796980266  l 0.896277617251173 -0.443493441681565  l 0.896073790597714 -0.443905127030365  l 0.895782993217142 -0.44449165241086  l 0.895405965414476 -0.445250667714457  l 0.894943399625794 -0.44617968517877  l 0.89439594048972 -0.447276091061784  l 0.89376418517648 -0.448537157096068  l 0.457401119848724 0.889260488024253  l 0.883910047699684 -0.467656955016755  l 0.883123931733849 -0.469139767232482  l 0.477891429748516 0.878418909958637  l 0.872749455428977 -0.488168401321126  l 0.496836624821087 0.867844092125072  l 0.514194325475353 0.857673711646187  l 0.524044113136944 0.851691122113242  l 0.540941018873349 0.841060529391472  l 0.557664169814442 0.830066668229226  l 0.574197972492358 0.818716488404664  l 0.590527283105112 0.807017675090512  l 0.606637457371403 0.794978613117334  l 0.622514396700322 0.782608347707098  l 0.638144590379653 0.769916542080494  l 0.653515153538734 0.756913432365449  l 0.668613860695836 0.743609780251315  l 0.683429174754759 0.730016823843142  l 0.697950271369747 0.716146227173541  l 0.71216705865103 0.702010028826042  l 0.726070192234298 0.68762059011409  l 0.739651085785604 0.67299054324424  l 0.658132739871548 -0.752901917057706  l 0.759424098575566 0.65059591030277  l 0.772284705684078 0.635276580212475  l 0.628863595148246 -0.77751564530704  l 0.783708881619428 0.62112831916668  l 0.795917252244963 0.605405424140574  l 0.598936132087679 -0.800796796746747  l 0.600305853351642 -0.799770518606279  l 0.80566725279759 0.592368363241643  l 0.585628572086133 -0.810579530679351  l 0.586812909543769 -0.809722550749809  l 0.587824087210765 -0.808988777731082  l 0.588663356416148 -0.808378285713363  l 0.589332057865995 -0.807890911925262  l 0.589831613294686 -0.807526264562453  l 0.590163517330105 -0.807283731294369  l 0.590329329602588 -0.807162488357183" stroke="#4488ff" stroke-width="0.25%" fill="transparent" class="foreground-stroke" transform-origin="50% 50%" xmlns="http://www.w3.org/2000/svg">
        </path>
        <path id="turtle-t4-path" d="m 0 0  m 0 200  l 0.00499993750117176 -0.99998750023437  l 0.0100248112527653 -0.999949750317158  l 0.0150747443427652 -0.999886369585565  l 0.0201498597884726 -0.999796970964858  l 0.02525028050217 -0.999681160838075  l 0.0303761292552281 -0.999538538912567  l 0.0355275286405997 -0.999368698083291  l 0.040704601033627 -0.99917122429276  l 0.0459074685510969 -0.998945696387561  l 0.0511362530084651 -0.998691685971328  l 0.0563910758751795 -0.998408757254082  l 0.0616720582280176 -0.998096466897824  l 0.0669793207023567 -0.997754363858285  l 0.0723129834412895 -0.997381989222695  l 0.077673166042495 -0.996978876043487  l 0.0830599875027696 -0.996544549167793  l 0.0884735661601133 -0.996078525062614  l 0.0939140196332793 -0.995580311635541  l 0.0993814647586665 -0.995049408050888  l 0.104876017524447 -0.994485304541104  l 0.110397793001811 -0.993887482213318  l 0.115946905273201 -0.993255412850878  l 0.121523467357408 -0.992588558709717  l 0.127127591131396 -0.991886372309414  l 0.132759387248705 -0.991148296218759  l 0.138418965054298 -0.990373762835677  l 0.144106432495674 -0.989562194161322  l 0.149821896030112 -0.988713001568171  l 0.15556546052785 -0.987825585561924  l 0.161337229171033 -0.986899335537021  l 0.167137303348244 -0.985933629525577  l 0.172965782544416 -0.984927833939522  l 0.178822764225917 -0.98388130330574  l 0.184708343720608 -0.982793379993979  l 0.190622614092621 -0.981663393937299  l 0.196565666011652 -0.980490662344826  l 0.202537587616493 -0.979274489406566  l 0.208538464372555 -0.978014165990011  l 0.214568378923107 -0.97670896932828  l 0.220627410933947 -0.97535816269952  l 0.226715636931193 -0.97396099509728  l 0.232833130131888 -0.972516700891551  l 0.238979960267075 -0.971024499480187  l 0.245156193397008 -0.969483594930357  l 0.251361891718119 -0.96789317560973  l 0.257597113361355 -0.966252413807022  l 0.263861912181488 -0.964560465341561  l 0.270156337536963 -0.962816469161498  l 0.276480434059845 -0.961019546930279  l 0.282834241415371 -0.959168802600977  l 0.28921779405064 -0.957263321978066  l 0.295631120931893 -0.955302172266217  l 0.302074245269845 -0.953284401605656  l 0.308547184232488 -0.951209038593622  l 0.315049948644739 -0.949075091791449  l 0.321582542674313 -0.946881549216756  l 0.328144963503126 -0.944627377820235  l 0.334737200983507 -0.942311522946487  l 0.341359237278484 -0.939932907778343  l 0.348011046485324 -0.937490432764084  l 0.354692594241504 -0.934982975026942  l 0.361403837312212 -0.932409387756263  l 0.368144723158451 -0.929768499579647  l 0.374915189484749 -0.927059113915404  l 0.381715163765433 -0.924280008304588  l 0.388544562748352 -0.921429933721871  l 0.395403291934892 -0.918507613864496  l 0.402291245035035 -0.915511744418476  l 0.409208303396161 -0.91244099230122  l 0.416154335404208 -0.909293994879699  l 0.423129195855704 -0.906069359163252  l 0.430132725299154 -0.902765660970067  l 0.437164749344097 -0.899381444066372  l 0.444225077936118 -0.895915219277276  l 0.451313504595942 -0.892365463568222  l 0.458429805620669 -0.888730619095908  l 0.46557373924505 -0.885009092227522  l 0.472745044760603 -0.881199252527086  l 0.479943441590216 -0.877299431707635  l 0.487168628315754 -0.87330792254791  l 0.494420281656 -0.869222977772218  l 0.501698055392136 -0.865042808891993  l 0.509001579237741 -0.860765585007606  l 0.516330457650138 -0.856389431568839  l 0.523684268579679 -0.851912429092431  l 0.531062562153359 -0.847332611834992  l 0.538464859288899 -0.84264796641954  l 0.545890650235195 -0.837856430413825  l 0.553339393034739 -0.832955890858542  l 0.560810511903354 -0.827944182743437  l 0.568303395522237 -0.822819087429245  l 0.575817395236972 -0.81757833101331  l 0.583351823157839 -0.812219582636633  l 0.5909059501553 -0.806740452730035  l 0.598479003744166 -0.80113849119699  l 0.606070165849452 -0.795411185530615  l 0.613678570446468 -0.789555958862182  l 0.621303301067134 -0.783570167938444  l 0.628943388163945 -0.777451101024918  l 0.636597806322373 -0.771195975732201  l 0.644265471311858 -0.764801936762263  l 0.764832654205661 0.64422900513771  l 0.771387295036069 0.636365964722294  l 0.777928109254255 0.628353289823567  l 0.784453239382761 0.620187967653269  l 0.790960736760393 0.611866907834911  l 0.797448556766174 0.603386939957724  l 0.803914553753844 0.594744811043155  l 0.810356475676454 0.585937182920863  l 0.816771958378951 0.576960629511072  l 0.823158519534801 0.567811634010148  l 0.829513552200717 0.558486585976198  l 0.835834317961361 0.548981778311509  l 0.842117939633486 0.539293404138649  l 0.848361393496338 0.529417553567079  l 0.854561501012256 0.5193502103472  l 0.860714919998193 0.50908724840886  l 0.866818135205394 0.498624428281491  l 0.872867448260547 0.487957393393237  l 0.878858966917498 0.47708166624668  l 0.88478859356383 0.465992644469137  l 0.890652012921409 0.454685596735858  l 0.896444678874165 0.443155658565018  l 0.902161800349958 0.431397827984012  l 0.907798326176177 0.419406961067328  l 0.913348928820802 0.407177767347252  l 0.918807986921722 0.394704805099776  l 0.924169566497235 0.381982476509476  l 0.929427400719544 0.369005022718813  l 0.934574868120683 0.355766518769273  l 0.939604969086383 0.342260868444199  l 0.94451030047778 0.328481799026024  l 0.949283028203308 0.314422855984035  l 0.953914857543298 0.300077397612932  l 0.958397001007491 0.285438589647314  l 0.962720143480378 0.270499399883107  l 0.966874404380659 0.255252592843925  l 0.970849296528606 0.23969072453875  l 0.974633681378153 0.223806137367296  l 0.978215720228391 0.20759095524143  l 0.981582820981033 0.191037079005405  l 0.984721579955314 0.174136182254895  l 0.987617718208629 0.156879707675597  l 0.99025601173853 0.139258864047144  l 0.992620214857998 0.121264624088237  l 0.994692975939182 0.102887723355385  l 0.996455744608758 0.0841186604518032  l 0.997888669348045 0.064947698856753  l 0.998970484299586 0.0453648707509492  l 0.99967838390522 0.0253599832935301  l 0.999987883793859 0.00492262790387993  l 0.999872666094452 -0.0159578067782657  l 0.99930440706392 -0.0372921174328806  l 0.99825258458259 -0.0590912630951474  l 0.996684262670353 -0.0813663354542567  l 0.994563849702568 -0.104128520899934  l 0.991852826439877 -0.127389052446535  l 0.988509439311238 -0.151159149218897  l 0.984488353580605 -0.175449940621674  l 0.979740260055425 -0.200272371600598  l 0.974211427822807 -0.225637084495096  l 0.967843194081791 -0.251554271817349  l 0.960571380421598 -0.278033492793488  l 0.952325622807073 -0.305083444560862  l 0.943028599988515 -0.33271167638618  l 0.93259514194946 -0.360924231954945  l 0.920931196215999 -0.389725200411994  l 0.907932625222997 -0.419116151031759  l 0.893483802288558 -0.449095418645059  l 0.877455966888098 -0.479657196519006  l 0.859705291633284 -0.5107903792533  l 0.840070603458767 -0.542477078966866  l 0.818370689894528 -0.574690711532347  l 0.794401108057765 -0.607393512902958  l 0.767930399694474 -0.640533294392326  l 0.738695601711716 -0.674039173944487  l 0.706396931417627 -0.707815919066363  l 0.670691525748058 -0.741736393397104  l 0.63118613703861 -0.775631394678089  l 0.587428759050214 -0.809275881909702  l 0.538899322232764 -0.842370180204088  l 0.484999942380649 -0.874514182784229  l 0.425045888993586 -0.905171802615201  l 0.358259741831574 -0.933621956352127  l 0.283773622523044 -0.958891303099652  l 0.200648750320141 -0.979663247751474  l 0.10792912624045 -0.994158590823905  l 0.00475836898640221 -0.999988678898211  l -0.109394011763921 -0.993998465889256  l -0.234333511468684 -0.972156265938124  l -0.368510224932704 -0.92962369490028  l -0.508181549451157 -0.861249971145091  l -0.646639424870687 -0.762795814227442  l -0.774183664247919 -0.632961020925985  l -0.879713120305976 -0.475504811712271  l -0.953996826690945 -0.299816701775614  l -0.992931046122589 -0.118692618329449  l -0.998449911944967 0.055657644013091  l -0.976676673818328 0.214715334382916  l -0.935099406552009 0.35438552434613  l -0.880529111902083 0.47399207070681  l -0.818269699399596 0.57483449708981  l -0.752091006315878 0.659059267607072  l -0.684523921574117 0.728990398285733  l -0.617201390786482 0.786805213004612  l -0.551141343181491 0.83441190058394  l -0.4869532140782 0.873428055021655  l -0.424979816616847 0.905202825596734  l -0.365391922229788 0.930853771098995  l -0.308250421590627 0.951305249427964  l -0.253546934425193 0.96732308565628  l -0.20123028835561 0.979543960753328  l -0.151223774781643 0.988499554851084  l -0.103436383318565 0.994636071438179  l -0.0577700940270147 0.998329913523636  l -0.0141245790254782 0.999900243157963  l 0.0275998045672188 0.999619052833554  l 0.0675001518175428 0.997719263873665  l 0.105669895555288 0.994401263662378  l 0.142198187006757 0.989838206785327  l 0.177169602470584 0.984180335081135  l 0.210664062786519 0.977558516228199  l 0.242756889473773 0.97008715722507  l 0.273518946292436 0.961866615502937  l 0.303016831747301 0.952985204333115  l 0.331313099409383 0.943520868958259  l 0.358466490652999 0.933542594142829  l 0.384532169672937 0.923111591567685  l 0.409561954243041 0.912282305888161  l 0.433604538133035 0.901103270724525  l 0.456705702772492 0.889617839892549  l 0.478908516883242 0.877864814454192  l 0.500253523561259 0.865878982401435  l 0.520778914791109 0.853691584771102  l 0.540520693700076 0.841330719563947  l 0.559512825060215 0.828821692882816  l 0.57778737466341 0.816187325115727  l 0.595374638253853 0.803448218694954  l 0.612303260722945 0.790622992903729  l 0.628600346266621 0.777728490331609  l 0.644291560183634 0.764779958861462  l 0.659401222961697 0.751791212476322  l 0.673952397261073 0.73877477368008  l 0.687966968365097 0.725741999913562  l 0.701465718626332 0.712703196002406  l 0.714468396396878 0.699667714383101  l 0.726993779892675 0.686644044609259  l 0.739059736404894 0.673639893433524  l 0.750683277237126 0.660662256585412  l 0.761880608715003 0.647717483216299  l 0.772667179585284 0.634811333855755  l 0.783057725094175 0.62194903261468  l 0.793066308009643 0.609135314277504  l 0.802706356829613 0.596374466845563  l 0.811990701397052 0.58367037002466  l 0.820931606123913 0.571026530090163  l 0.829540801008578 0.558446111511261  l 0.837829510615641 0.545931965671141  l 0.84580848117256 0.533486656980816  l 0.853488005924602 0.521112486650288  l 0.860877948877682 0.508811514350998  l 0.867987767047865 0.496585577977514  l 0.874826531326494 0.484436311693555  l 0.881402946060955 0.472365162427406  l 0.887725367442954 0.460373404964136  l 0.893801820788769 0.448462155766439  l 0.899640016789163 0.436632385642194  l 0.905247366800511 0.424884931364648  l 0.91063099724302 0.41322050634036  l 0.915797763166849 0.401639710410457  l 0.920754261042171 0.390143038862268  l 0.925506840824982 0.378730890720788  l 0.930061617346505 0.367403576382707  l 0.934424481070449 0.356161324649691  l 0.938601108259085 0.345004289212202  l 0.942596970586082 0.333932554630332  l 0.946417344231258 0.322946141853797  l 0.950067318489872 0.312045013319334  l 0.953551803926734 0.301229077660293  l 0.956875540103241 0.290498194060016  l 0.960043102903488 0.279852176277839  l 0.963058911483763 0.269290796373939  l 0.965927234868048 0.258813788156981  l 0.968652198210613 0.248420850376429  l 0.971237788745325 0.238111649679498  l 0.973687861440012 0.22788582335103  l 0.976006144372953 0.217742981853015  l 0.207682711179095 -0.978196243847471  l 0.980238914932542 0.197817263280719  l 0.187716350785048 -0.982223279935853  l 0.18731026929895 -0.98230080067928  l 0.186711269815994 -0.982414831791387  l 0.185921664497462 -0.982564570229608  l 0.184943848276531 -0.982749089536422  l 0.183780289500573 -0.982967346960765  l 0.18243352090377 -0.983218190663015  l 0.180906130932922 -0.983500366950049  l 0.98525115750609 0.171114454774893  l 0.987191568161564 0.159539361132957  l 0.990168708321192 0.1398782651506  l 0.992761537467769 0.120102163696712  l 0.994964568450426 0.100227279361748  l 0.996773155410304 0.0802700233797464  l 0.0693882842439375 -0.997589728300007  l 0.998234402979573 0.0593976153394694  l 0.999226267884654 0.0393302119153321  l 0.999815225997908 0.0192227433721923  l 0.999999587669853 -0.00090810799096568  l 0.999778513984809 -0.0210457353002166  l 0.999152005106675 -0.0411736650216018  l 0.998120884098208 -0.0612756128244462  l 0.996686776485248 -0.0813355370022519  l 0.994852085873901 -0.101337689101088  l 0.992619965959245 -0.121266661449335  l 0.989994289288466 -0.141107431328847  l 0.986979613159333 -0.160845401575092  l 0.983581143046711 -0.180466437441775  l -0.19995689961291 -0.97980469395548  l 0.977772677718409 -0.209667810374823  l -0.217755982625724 -0.976003243862798  l -0.216221147912742 -0.976344414228553  l 0.974145194246779 -0.225922864106103  l -0.23420798932668 -0.972186513862208  l -0.232918490552673 -0.972496260537111  l -0.2318353757126 -0.97275503523148  l -0.230957712999803 -0.972963789051731  l -0.230284339738279 -0.973123385224764  l -0.229813874127542 -0.973234598264206  l -0.229544727293862 -0.973298113720347  l -0.229475115560559 -0.97331452847395  l -0.229603072853649 -0.973284351531536  l -0.229926463163284 -0.97320800527802  l -0.23044299298611 -0.973085827141472  l -0.231150223678702 -0.972918071624372  l -0.232045583657587 -0.972704912655945  l -0.233126380386969 -0.972446446220906  l -0.234389812100961 -0.972142693221153  l -0.235832979212899 -0.971793602528628  l -0.237452895370095 -0.971399054189553  l -0.239246498118062 -0.970958862742518  l 0.968543819751356 -0.248843061429193  l 0.963364587129884 -0.26819521297754  l -0.279447227387004 -0.960161052691535  l 0.957325974270164 -0.289010344084225  l 0.951312160035508 -0.308229093643958  l 0.947709296407848 -0.319134907996826  l 0.941143885758114 -0.338006192694923  l 0.934185430492549 -0.356787866183047  l 0.92683730554256 -0.375463192676203  l 0.919103701596569 -0.394015717594469  l 0.910989600814469 -0.412429323894283  l 0.90250074830895 -0.430688285540465  l 0.893643619726541 -0.448777317744609  l 0.884425385295536 -0.466681623641689  l 0.874853870735919 -0.484386937126074  l 0.864937515447487 -0.501879561619645  l 0.854685328406676 -0.519146404597367  l 0.84410684221017 -0.53617500774838  l 0.833212065704351 -0.552953572702707  l 0.822011435634458 -0.569470982303908  l -0.585716817455906 -0.810515767736399  l 0.804642026604129 -0.593760228562338  l 0.792610962851196 -0.609727694604813  l -0.616233563372777 -0.787563454823096  l 0.781423824829741 -0.624000645823751  l -0.630429750735462 -0.776246307165208  l -0.629203644054035 -0.777240486792294  l 0.770955811149849 -0.636888638032018  l -0.643410283235853 -0.765521526429113  l -0.64238985439278 -0.766378023545315  l -0.641530839546344 -0.767097244103355  l -0.640832840679293 -0.767680448042613  l -0.64029521517485 -0.768128919794192  l -0.639917085853133 -0.768443962324667  l -0.639697351540957 -0.768626891561495  l -0.639634698080074 -0.76867903120354  l -0.63972760968095 -0.76860170791633  l -0.639974380531999 -0.76839624690825  l -0.640373126577876 -0.76806396788085  l -0.640921797384637 -0.767606181343823  l -0.641618188014388 -0.767024185283054  l -0.642459950837319 -0.766319262168262  l -0.64344460721454 -0.765492676285362  l -0.644569558991027 -0.764545671377526  l -0.645832099743889 -0.763479468578166  l 0.757043111822115 -0.653364926241598  l -0.662163171981659 -0.749359682443076  l -0.663512193308588 -0.748165469218426  l 0.741558552760937 -0.670888152248275  l 0.727968348951149 -0.685610737171858  l -0.694046149038279 -0.719930512622666  l 0.71296897585933 -0.701195578609919  l 0.698704845787459 -0.715410049183769  l 0.684128336114363 -0.729361652217467  l 0.669237019283646 -0.743048997052241  l 0.654041897673617 -0.756458324091614  l 0.638554596766203 -0.769576524426747  l 0.622787315007897 -0.782391181101407  l 0.606752771034738 -0.794890605581464  l 0.590464148768903 -0.807063869231311" stroke="#4488ff" stroke-width="0.25%" fill="transparent" class="foreground-stroke" transform-origin="50% 50%" xmlns="http://www.w3.org/2000/svg">
        </path>
      </g>
    </pattern>
  </defs>
  <rect width="10000%" height="10000%" x="-5000%" y="-5000%" fill="url(#turtle-pattern)" transform-origin="50% 50%" />
</svg>