<svg xmlns="http://www.w3.org/2000/svg" width="100%" height="100%" transform-origin="50% 50%">
  <symbol id="turtle-symbol" viewBox="0 0 200 200" transform-origin="50% 50%">
    <svg xmlns="http://www.w3.org/2000/svg" viewBox="0 0 200 200" transform-origin="50% 50%" width="100%" height="100%">
      <path id="turtle-path" d="m 3.67394039744206E-14 0  l 200 0  l 1.22464679914735E-14 200  l -200 2.44929359829471E-14  l -3.67394039744206E-14 -200" stroke="#4488ff" stroke-width="0.25%" fill="transparent" class="foreground-stroke" transform-origin="50% 50%">
      </path>
      <g id="turtle-children">
        <path id="turtle-s1-path" d="m 0 0  l 2.32037426521992 2.25565937683523  l 2.35277144381196 2.2218466392131  l 2.38543124876686 2.18674500397421  l 2.41834636218794 2.15028761506268  l 2.45150783124526 2.11240273346319  l 2.48490481807913 2.07301326577683  l 2.51852430855168 2.0320362354628  l 2.55235077213803 1.98938218825996  l 2.58636576359255 1.94495452181173  l 2.62054745496287 1.8986487277238  l 2.65487008394098 1.8503515321135  l 2.68930330128875 1.79993991807421  l 2.72381139595555 1.74728001026231  l 2.75835237125614 1.69222579787249  l 2.79287683874276 1.63461766741151  l 2.82732668770593 1.57428071066929  l 2.86163347691861 1.51102276580411  l 2.89571648038997 1.44463214009571  l 2.92948029925753 1.37487495113614  l 2.96281192573896 1.30149200831145  l 2.99557710975495 1.22419513743184  l 3.02761583076864 1.14266282703108  l 3.05873661123065 1.05653504348735  l 3.08870931587109 0.965407021442628  l 3.11725595106641 0.868821782957015  l 3.1440387924851 0.76626106931543  l 3.16864489897066 0.657134277927104  l 3.19056567143491 0.540764876134428  l 3.20916951502257 0.416373604890314  l 3.22366474106572 0.283057577551441  l 3.23304839863018 0.139764112397961  l 3.2360343976555 -0.0147421908130047  l 3.2309504344446 -0.181920986040244  l 3.21558665515044 -0.363508484382419  l 3.18696735907839 -0.561582591582487  l 3.14099559796876 -0.778641514781009  l 3.0718790738515 -1.01769097010478  l 2.97116103595256 -1.28231745423544  l 2.82599505710597 -1.57666987420075  l 2.61586636208146 -1.90509294543082  l 2.30583112193807 -2.27052390256113  l 1.83106787988316 -2.66820658387985  l 1.05694030764515 -3.05859659665582  l -0.33245370068745 -3.21894555590784  l -2.77279155714974 -1.66846124785645" stroke="#4488ff" stroke-width="0.25%" fill="transparent" class="foreground-stroke" transform-origin="50% 50%" xmlns="http://www.w3.org/2000/svg">
        </path>
        <path id="turtle-s2-path" d="m 0 0  m 200 0  l -2.25565937683522 2.32037426521993  l -2.2218466392131 2.35277144381196  l -2.18674500397421 2.38543124876686  l -2.15028761506268 2.41834636218794  l -2.11240273346319 2.45150783124526  l -2.07301326577683 2.48490481807913  l -2.0320362354628 2.51852430855168  l -1.98938218825996 2.55235077213803  l -1.94495452181173 2.58636576359255  l -1.8986487277238 2.62054745496287  l -1.8503515321135 2.65487008394098  l -1.79993991807421 2.68930330128876  l -1.74728001026231 2.72381139595555  l -1.69222579787249 2.75835237125615  l -1.63461766741151 2.79287683874276  l -1.57428071066929 2.82732668770593  l -1.51102276580411 2.86163347691861  l -1.44463214009571 2.89571648038997  l -1.37487495113614 2.92948029925753  l -1.30149200831145 2.96281192573896  l -1.22419513743184 2.99557710975495  l -1.14266282703108 3.02761583076864  l -1.05653504348734 3.05873661123065  l -0.965407021442627 3.08870931587109  l -0.868821782957013 3.11725595106641  l -0.766261069315428 3.1440387924851  l -0.657134277927103 3.16864489897066  l -0.540764876134426 3.19056567143491  l -0.416373604890311 3.20916951502257  l -0.283057577551438 3.22366474106572  l -0.139764112397959 3.23304839863018  l 0.0147421908130079 3.2360343976555  l 0.181920986040248 3.2309504344446  l 0.363508484382425 3.21558665515044  l 0.56158259158249 3.18696735907839  l 0.778641514781012 3.14099559796876  l 1.01769097010478 3.0718790738515  l 1.28231745423545 2.97116103595256  l 1.57666987420076 2.82599505710597  l 1.90509294543083 2.61586636208146  l 2.27052390256114 2.30583112193806  l 2.66820658387986 1.83106787988315  l 3.05859659665582 1.05694030764514  l 3.21894555590783 -0.332453700687461  l 1.66846124785643 -2.77279155714975" stroke="#4488ff" stroke-width="0.25%" fill="transparent" class="foreground-stroke" transform-origin="50% 50%" xmlns="http://www.w3.org/2000/svg">
        </path>
        <path id="turtle-s3-path" d="m 0 0  m 200 200  l -2.32037426521993 -2.25565937683522  l -2.35277144381196 -2.2218466392131  l -2.38543124876686 -2.18674500397421  l -2.41834636218794 -2.15028761506268  l -2.45150783124526 -2.11240273346319  l -2.48490481807913 -2.07301326577683  l -2.51852430855168 -2.0320362354628  l -2.55235077213803 -1.98938218825996  l -2.58636576359255 -1.94495452181173  l -2.62054745496287 -1.8986487277238  l -2.65487008394098 -1.8503515321135  l -2.68930330128875 -1.79993991807421  l -2.72381139595555 -1.74728001026231  l -2.75835237125614 -1.69222579787249  l -2.79287683874276 -1.63461766741151  l -2.82732668770593 -1.57428071066929  l -2.86163347691861 -1.51102276580411  l -2.89571648038997 -1.44463214009571  l -2.92948029925753 -1.37487495113614  l -2.96281192573896 -1.30149200831145  l -2.99557710975495 -1.22419513743184  l -3.02761583076864 -1.14266282703109  l -3.05873661123065 -1.05653504348735  l -3.08870931587109 -0.965407021442627  l -3.11725595106641 -0.868821782957013  l -3.1440387924851 -0.766261069315429  l -3.16864489897066 -0.657134277927104  l -3.19056567143491 -0.540764876134428  l -3.20916951502257 -0.416373604890313  l -3.22366474106572 -0.28305757755144  l -3.23304839863018 -0.13976411239796  l -3.2360343976555 0.0147421908130052  l -3.2309504344446 0.181920986040248  l -3.21558665515044 0.363508484382424  l -3.18696735907839 0.561582591582491  l -3.14099559796876 0.77864151478101  l -3.0718790738515 1.01769097010478  l -2.97116103595256 1.28231745423545  l -2.82599505710597 1.57666987420075  l -2.61586636208146 1.90509294543083  l -2.30583112193806 2.27052390256113  l -1.83106787988315 2.66820658387986  l -1.05694030764513 3.05859659665583  l 0.332453700687483 3.21894555590783  l 2.77279155714979 1.66846124785637" stroke="#4488ff" stroke-width="0.25%" fill="transparent" class="foreground-stroke" transform-origin="50% 50%" xmlns="http://www.w3.org/2000/svg">
        </path>
        <path id="turtle-s4-path" d="m 0 0  m 0 200  l 2.25565937683523 -2.32037426521992  l 2.2218466392131 -2.35277144381196  l 2.18674500397421 -2.38543124876686  l 2.15028761506268 -2.41834636218794  l 2.11240273346319 -2.45150783124526  l 2.07301326577683 -2.48490481807913  l 2.0320362354628 -2.51852430855168  l 1.98938218825996 -2.55235077213803  l 1.94495452181173 -2.58636576359255  l 1.8986487277238 -2.62054745496287  l 1.8503515321135 -2.65487008394098  l 1.79993991807421 -2.68930330128875  l 1.74728001026231 -2.72381139595555  l 1.69222579787249 -2.75835237125614  l 1.63461766741151 -2.79287683874276  l 1.57428071066929 -2.82732668770593  l 1.51102276580411 -2.86163347691861  l 1.44463214009571 -2.89571648038997  l 1.37487495113614 -2.92948029925753  l 1.30149200831145 -2.96281192573896  l 1.22419513743184 -2.99557710975495  l 1.14266282703108 -3.02761583076864  l 1.05653504348735 -3.05873661123065  l 0.965407021442628 -3.08870931587109  l 0.868821782957015 -3.11725595106641  l 0.76626106931543 -3.1440387924851  l 0.657134277927105 -3.16864489897066  l 0.540764876134428 -3.19056567143491  l 0.416373604890314 -3.20916951502257  l 0.283057577551441 -3.22366474106572  l 0.139764112397961 -3.23304839863018  l -0.0147421908130053 -3.2360343976555  l -0.181920986040245 -3.2309504344446  l -0.363508484382421 -3.21558665515044  l -0.561582591582489 -3.18696735907839  l -0.778641514781012 -3.14099559796876  l -1.01769097010478 -3.0718790738515  l -1.28231745423545 -2.97116103595256  l -1.57666987420076 -2.82599505710597  l -1.90509294543083 -2.61586636208145  l -2.27052390256113 -2.30583112193806  l -2.66820658387986 -1.83106787988315  l -3.05859659665583 -1.05694030764513  l -3.21894555590783 0.332453700687482  l -1.66846124785637 2.77279155714979" stroke="#4488ff" stroke-width="0.25%" fill="transparent" class="foreground-stroke" transform-origin="50% 50%" xmlns="http://www.w3.org/2000/svg">
        </path>
        <path id="turtle-h1-path" d="m 0 0  m 100 100  l 1.4142135623731 -1.41421356237309  l 1.39407416192658 -1.43407016252648  l 1.37317674082342 -1.45409272003596  l 1.35148273718508 -1.47427758956403  l 1.32895083169668 -1.49462024840181  l 1.30553668720844 -1.51511516339611  l 1.2811926573795 -1.53575563638128  l 1.2558674598874 -1.55653362417777  l 1.2295058089583 -1.57743952839334  l 1.20204800105245 -1.59846194923927  l 1.17342944643005 -1.61958739629909  l 1.14358013798159 -1.64079994759081  l 1.11242404707756 -1.66208084625375  l 1.07987843420537 -1.68340802164483  l 1.04585305972461 -1.70475551838517  l 1.01024927707139 -1.72609281273538  l 0.972958987026959 -1.74738399030192  l 0.933863427041811 -1.76858675208024  l 0.89283176381965 -1.78965120666422  l 0.849719450082986 -1.81051839431437  l 0.804366297222835 -1.83111847238021  l 0.756594203795225 -1.85136846974973  l 0.706204464786253 -1.87116948829227  l 0.652974567180527 -1.89040318837422  l 0.596654352229342 -1.90892733857677  l 0.536961392033718 -1.92657012939192  l 0.473575385092774 -1.94312283570397  l 0.406131318931569 -1.95833024584285  l 0.334211073373203 -1.9718780282854  l 0.257333039840533 -1.98337583594397  l 0.1749392037 -1.99233437831324  l 0.0863789718694002 -1.99813379762687  l -0.00911117499107467 -1.99997924651489  l -0.112433352639765 -1.996837184453  l -0.224660598547296 -1.98734184665356  l -0.347077129088229 -1.96965414894693  l -0.481226921186369 -1.94124203805849  l -0.628967609568605 -1.89852567696978  l -0.79251577108474 -1.83627850626803  l -0.974435571294087 -1.74656099733069  l -1.1774121920039 -1.61669432179388  l -1.40326094405183 -1.42508200567503  l -1.649042357844 -1.131662185476  l -1.89031665460805 -0.653225034204469  l -1.98941776148647 0.205467686710525" stroke="#4488ff" stroke-width="0.25%" fill="transparent" class="foreground-stroke" transform-origin="50% 50%" xmlns="http://www.w3.org/2000/svg">
        </path>
        <path id="turtle-h2-path" d="m 0 0  m 100 100  l 1.4142135623731 1.41421356237309  l 1.43407016252648 1.39407416192658  l 1.45409272003596 1.37317674082342  l 1.47427758956403 1.35148273718508  l 1.49462024840181 1.32895083169668  l 1.51511516339611 1.30553668720844  l 1.53575563638128 1.2811926573795  l 1.55653362417777 1.2558674598874  l 1.57743952839334 1.2295058089583  l 1.59846194923927 1.20204800105245  l 1.61958739629909 1.17342944643005  l 1.64079994759081 1.14358013798159  l 1.66208084625375 1.11242404707756  l 1.68340802164483 1.07987843420537  l 1.70475551838517 1.04585305972461  l 1.72609281273538 1.01024927707138  l 1.74738399030192 0.972958987026958  l 1.76858675208024 0.93386342704181  l 1.78965120666422 0.89283176381965  l 1.81051839431437 0.849719450082985  l 1.83111847238021 0.804366297222834  l 1.85136846974973 0.756594203795224  l 1.87116948829227 0.706204464786252  l 1.89040318837422 0.652974567180527  l 1.90892733857677 0.596654352229342  l 1.92657012939192 0.536961392033719  l 1.94312283570397 0.473575385092774  l 1.95833024584285 0.406131318931569  l 1.9718780282854 0.334211073373202  l 1.98337583594397 0.257333039840532  l 1.99233437831324 0.174939203699998  l 1.99813379762687 0.0863789718693986  l 1.99997924651489 -0.00911117499107602  l 1.996837184453 -0.112433352639769  l 1.98734184665356 -0.224660598547298  l 1.96965414894693 -0.34707712908823  l 1.94124203805849 -0.48122692118637  l 1.89852567696978 -0.628967609568609  l 1.83627850626803 -0.792515771084744  l 1.74656099733069 -0.97443557129409  l 1.61669432179388 -1.1774121920039  l 1.42508200567503 -1.40326094405184  l 1.131662185476 -1.649042357844  l 0.653225034204466 -1.89031665460805  l -0.205467686710527 -1.98941776148647" stroke="#4488ff" stroke-width="0.25%" fill="transparent" class="foreground-stroke" transform-origin="50% 50%" xmlns="http://www.w3.org/2000/svg">
        </path>
        <path id="turtle-h3-path" d="m 0 0  m 100 100  l -1.41421356237309 1.4142135623731  l -1.39407416192658 1.43407016252648  l -1.37317674082342 1.45409272003596  l -1.35148273718508 1.47427758956403  l -1.32895083169668 1.49462024840181  l -1.30553668720844 1.51511516339611  l -1.2811926573795 1.53575563638128  l -1.2558674598874 1.55653362417777  l -1.2295058089583 1.57743952839334  l -1.20204800105245 1.59846194923927  l -1.17342944643005 1.61958739629909  l -1.14358013798159 1.64079994759081  l -1.11242404707756 1.66208084625375  l -1.07987843420537 1.68340802164483  l -1.04585305972461 1.70475551838517  l -1.01024927707138 1.72609281273538  l -0.972958987026958 1.74738399030192  l -0.93386342704181 1.76858675208024  l -0.89283176381965 1.78965120666422  l -0.849719450082984 1.81051839431437  l -0.804366297222835 1.83111847238021  l -0.756594203795224 1.85136846974973  l -0.706204464786253 1.87116948829227  l -0.652974567180527 1.89040318837422  l -0.596654352229343 1.90892733857677  l -0.53696139203372 1.92657012939192  l -0.473575385092775 1.94312283570397  l -0.40613131893157 1.95833024584285  l -0.334211073373203 1.9718780282854  l -0.257333039840533 1.98337583594397  l -0.1749392037 1.99233437831324  l -0.0863789718694 1.99813379762687  l 0.00911117499107487 1.99997924651489  l 0.112433352639768 1.996837184453  l 0.224660598547297 1.98734184665356  l 0.347077129088229 1.96965414894693  l 0.481226921186368 1.94124203805849  l 0.628967609568608 1.89852567696978  l 0.792515771084742 1.83627850626803  l 0.97443557129409 1.74656099733069  l 1.1774121920039 1.61669432179388  l 1.40326094405184 1.42508200567503  l 1.649042357844 1.13166218547599  l 1.89031665460805 0.653225034204459  l 1.98941776148646 -0.20546768671055" stroke="#4488ff" stroke-width="0.25%" fill="transparent" class="foreground-stroke" transform-origin="50% 50%" xmlns="http://www.w3.org/2000/svg">
        </path>
        <path id="turtle-h4-path" d="m 0 0  m 100 100  l -1.4142135623731 -1.41421356237309  l -1.43407016252648 -1.39407416192658  l -1.45409272003596 -1.37317674082342  l -1.47427758956403 -1.35148273718508  l -1.49462024840181 -1.32895083169668  l -1.51511516339611 -1.30553668720843  l -1.53575563638128 -1.2811926573795  l -1.55653362417777 -1.2558674598874  l -1.57743952839334 -1.2295058089583  l -1.59846194923927 -1.20204800105245  l -1.61958739629909 -1.17342944643005  l -1.64079994759081 -1.14358013798159  l -1.66208084625375 -1.11242404707756  l -1.68340802164483 -1.07987843420537  l -1.70475551838517 -1.04585305972461  l -1.72609281273538 -1.01024927707139  l -1.74738399030192 -0.972958987026959  l -1.76858675208024 -0.93386342704181  l -1.78965120666422 -0.892831763819651  l -1.81051839431437 -0.849719450082985  l -1.83111847238021 -0.804366297222834  l -1.85136846974973 -0.756594203795224  l -1.87116948829227 -0.706204464786253  l -1.89040318837422 -0.652974567180528  l -1.90892733857677 -0.596654352229343  l -1.92657012939192 -0.536961392033719  l -1.94312283570397 -0.473575385092774  l -1.95833024584285 -0.40613131893157  l -1.9718780282854 -0.334211073373202  l -1.98337583594397 -0.257333039840534  l -1.99233437831324 -0.1749392037  l -1.99813379762687 -0.0863789718694003  l -1.99997924651489 0.00911117499107366  l -1.996837184453 0.112433352639766  l -1.98734184665356 0.224660598547296  l -1.96965414894693 0.34707712908823  l -1.94124203805849 0.481226921186369  l -1.89852567696978 0.628967609568608  l -1.83627850626803 0.792515771084744  l -1.74656099733069 0.97443557129409  l -1.61669432179388 1.1774121920039  l -1.42508200567503 1.40326094405183  l -1.13166218547599 1.649042357844  l -0.653225034204459 1.89031665460805  l 0.205467686710552 1.98941776148646" stroke="#4488ff" stroke-width="0.25%" fill="transparent" class="foreground-stroke" transform-origin="50% 50%" xmlns="http://www.w3.org/2000/svg">
        </path>
      </g>
    </svg>
  </symbol>
  <use href="#turtle-symbol" width="100%" height="100%" transform-origin="50% 50%" />
</svg>