<svg xmlns="http://www.w3.org/2000/svg" width="100%" height="100%">
  <defs>
    <pattern id="turtle-pattern" patternUnits="userSpaceOnUse" x="0" y="0" width="200" height="200" transform-origin="50% 50%">
      <path id="turtle-path" d="m 0 0   l 200 0 l 0 200 l -200 0 l -0 -200" stroke="transparent" stroke-width="0.25%" fill="transparent" class="foreground-stroke" transform-origin="50% 50%" xmlns="http://www.w3.org/2000/svg">
      </path>
      <g id="turtle-children" xmlns="http://www.w3.org/2000/svg">
        <path id="turtle-t1-path" d="m 0 0   l 1 0 l 0.999987 0.005025 l 0.999949 0.010075 l 0.999885 0.015151 l 0.999795 0.020252 l 0.999678 0.025378 l 0.999534 0.030531 l 0.999362 0.035709 l 0.999163 0.040913 l 0.998935 0.046143 l 0.998678 0.051399 l 0.998392 0.056681 l 0.998077 0.06199 l 0.997731 0.067326 l 0.997355 0.072688 l 0.996947 0.078077 l 0.996508 0.083493 l 0.996037 0.088935 l 0.995534 0.094405 l 0.994997 0.099903 l 0.994427 0.105427 l 0.993823 0.110979 l 0.993184 0.116559 l 0.99251 0.122166 l 0.9918 0.127802 l 0.991054 0.133465 l 0.99027 0.139156 l 0.98945 0.144875 l 0.988591 0.150623 l 0.987694 0.156399 l 0.986757 0.162204 l 0.985781 0.168037 l 0.984764 0.173898 l 0.983705 0.179789 l 0.982605 0.185708 l 0.981462 0.191656 l 0.980276 0.197634 l 0.979046 0.20364 l 0.977771 0.209676 l 0.976451 0.215741 l 0.975084 0.221835 l 0.973671 0.227959 l 0.97221 0.234112 l 0.9707 0.240295 l 0.969141 0.246508 l 0.967532 0.25275 l 0.965871 0.259022 l 0.964159 0.265324 l 0.962395 0.271656 l 0.960576 0.278017 l 0.958703 0.284409 l 0.956775 0.29083 l 0.95479 0.297282 l 0.952748 0.303763 l 0.950647 0.310275 l 0.948487 0.316816 l 0.946267 0.323388 l 0.943985 0.329989 l 0.94164 0.336621 l 0.939232 0.343282 l 0.936759 0.349974 l 0.934221 0.356695 l 0.931615 0.363447 l 0.928941 0.370228 l 0.926198 0.377039 l 0.923383 0.383879 l 0.920497 0.390749 l 0.917538 0.397648 l 0.914504 0.404577 l 0.911394 0.411535 l 0.908207 0.418522 l 0.904941 0.425538 l 0.901594 0.432582 l 0.898167 0.439655 l 0.894655 0.446757 l 0.89106 0.453886 l 0.887377 0.461044 l 0.883607 0.468229 l 0.879747 0.475441 l 0.875796 0.482681 l 0.871752 0.489947 l 0.867614 0.497239 l 0.863378 0.504558 l 0.859044 0.511902 l 0.85461 0.519271 l 0.850073 0.526665 l 0.845432 0.534083 l 0.840685 0.541525 l 0.835829 0.54899 l 0.830862 0.556478 l 0.825783 0.563988 l 0.820589 0.571519 l 0.815277 0.579072 l 0.809845 0.586644 l 0.804292 0.594235 l 0.798613 0.601845 l 0.792808 0.609472 l 0.786872 0.617116 l 0.780805 0.624775 l 0.774602 0.63245 l 0.76826 0.640137 l 0.761778 0.647838 l 0.755152 0.655549 l 0.748379 0.663271 l 0.741456 0.671001 l 0.73438 0.678739 l 0.727147 0.686482 l 0.719754 0.694229 l 0.712197 0.701979 l 0.704474 0.70973 l 0.69658 0.71748 l 0.688511 0.725226 l 0.680264 0.732967 l 0.671834 0.740701 l 0.663218 0.748426 l 0.654412 0.756138 l 0.64541 0.763836 l 0.63621 0.771516 l 0.626805 0.779176 l 0.617191 0.786813 l 0.607364 0.794424 l 0.597319 0.802004 l 0.587049 0.809551 l 0.576551 0.817061 l 0.565819 0.82453 l 0.554846 0.831953 l 0.543628 0.839326 l 0.532158 0.846645 l 0.520431 0.853904 l 0.50844 0.861098 l 0.496178 0.868221 l 0.483639 0.875268 l 0.470816 0.882231 l 0.457703 0.889105 l 0.444291 0.895883 l 0.430573 0.902556 l 0.416541 0.909117 l 0.402189 0.915557 l 0.387506 0.921867 l 0.372486 0.928038 l 0.357119 0.934059 l 0.341397 0.939919 l 0.32531 0.945607 l 0.308849 0.951111 l 0.292004 0.956417 l 0.274765 0.961512 l 0.257122 0.966379 l 0.239064 0.971004 l 0.220581 0.975369 l 0.201661 0.979455 l 0.182293 0.983244 l 0.162466 0.986714 l 0.142168 0.989843 l 0.121386 0.992605 l 0.100108 0.994977 l 0.078323 0.996928 l 0.056016 0.99843 l 0.033175 0.99945 l 0.009787 0.999952 l -0.014161 0.9999 l -0.038682 0.999252 l -0.063789 0.997963 l -0.089494 0.995987 l -0.115811 0.993271 l -0.142749 0.989759 l -0.170322 0.985388 l -0.198538 0.980093 l -0.227408 0.9738 l -0.256939 0.966428 l -0.287136 0.95789 l -0.318002 0.94809 l -0.349538 0.936922 l -0.381739 0.92427 l -0.414597 0.910005 l -0.448097 0.893985 l -0.482218 0.876051 l -0.516927 0.85603 l -0.552181 0.833724 l -0.587923 0.808917 l -0.624077 0.781363 l -0.660543 0.750788 l -0.697193 0.716883 l -0.733862 0.679299 l -0.770335 0.63764 l -0.806337 0.591456 l -0.841513 0.540237 l -0.875401 0.483397 l -0.907399 0.42027 l -0.936715 0.350092 l -0.9623 0.271992 l -0.982742 0.184983 l -0.996124 0.087961 l -0.999794 -0.020278 l -0.990014 -0.140967 l -0.961389 -0.275192 l -0.905923 -0.423443 l -0.811381 -0.584517 l -0.658406 -0.752663 l -0.415519 -0.909585 l -0.032902 -0.999459 l 0.53771 -0.84313 l 0.99859 0.053091" stroke="#4488ff" stroke-width="0.25%" fill="transparent" class="foreground-stroke" transform-origin="50% 50%" xmlns="http://www.w3.org/2000/svg">
        </path>
        <path id="turtle-t2-path" d="m 0 0   m 200 0 l 0 1 l -0.005025 0.999987 l -0.010075 0.999949 l -0.015151 0.999885 l -0.020252 0.999795 l -0.025378 0.999678 l -0.030531 0.999534 l -0.035709 0.999362 l -0.040913 0.999163 l -0.046143 0.998935 l -0.051399 0.998678 l -0.056681 0.998392 l -0.06199 0.998077 l -0.067326 0.997731 l -0.072688 0.997355 l -0.078077 0.996947 l -0.083493 0.996508 l -0.088935 0.996037 l -0.094405 0.995534 l -0.099903 0.994997 l -0.105427 0.994427 l -0.110979 0.993823 l -0.116559 0.993184 l -0.122167 0.99251 l -0.127802 0.9918 l -0.133465 0.991054 l -0.139156 0.99027 l -0.144876 0.98945 l -0.150623 0.988591 l -0.156399 0.987694 l -0.162204 0.986757 l -0.168037 0.985781 l -0.173899 0.984764 l -0.179789 0.983705 l -0.185708 0.982605 l -0.191657 0.981462 l -0.197634 0.980276 l -0.203641 0.979046 l -0.209676 0.977771 l -0.215741 0.976451 l -0.221836 0.975084 l -0.22796 0.973671 l -0.234113 0.972209 l -0.240296 0.9707 l -0.246509 0.969141 l -0.252751 0.967531 l -0.259023 0.965871 l -0.265325 0.964159 l -0.271657 0.962394 l -0.278019 0.960576 l -0.28441 0.958703 l -0.290832 0.956774 l -0.297284 0.954789 l -0.303765 0.952747 l -0.310277 0.950646 l -0.316819 0.948486 l -0.32339 0.946266 l -0.329992 0.943984 l -0.336624 0.941639 l -0.343286 0.939231 l -0.349978 0.936758 l -0.356699 0.934219 l -0.363451 0.931613 l -0.370232 0.928939 l -0.377043 0.926196 l -0.383884 0.923381 l -0.390755 0.920495 l -0.397655 0.917535 l -0.404584 0.914501 l -0.411542 0.911391 l -0.41853 0.908203 l -0.425546 0.904937 l -0.432591 0.90159 l -0.439665 0.898162 l -0.446767 0.89465 l -0.453897 0.891054 l -0.461055 0.887371 l -0.468241 0.883601 l -0.475454 0.87974 l -0.482695 0.875789 l -0.489962 0.871744 l -0.497255 0.867604 l -0.504575 0.863368 l -0.51192 0.859033 l -0.51929 0.854598 l -0.526685 0.85006 l -0.534105 0.845418 l -0.541548 0.84067 l -0.549015 0.835813 l -0.556504 0.830845 l -0.564016 0.825764 l -0.571549 0.820568 l -0.579102 0.815255 l -0.586676 0.809822 l -0.594269 0.804266 l -0.601881 0.798586 l -0.60951 0.792778 l -0.617156 0.786841 l -0.624818 0.78077 l -0.632495 0.774565 l -0.640185 0.768221 l -0.647888 0.761736 l -0.655602 0.755107 l -0.663326 0.74833 l -0.67106 0.741403 l -0.6788 0.734323 l -0.686546 0.727086 l -0.694297 0.719689 l -0.70205 0.712127 l -0.709804 0.704399 l -0.717558 0.696499 l -0.725308 0.688425 l -0.733053 0.680171 l -0.740791 0.671735 l -0.74852 0.663113 l -0.756236 0.654299 l -0.763938 0.645289 l -0.771623 0.63608 l -0.779288 0.626666 l -0.78693 0.617042 l -0.794545 0.607205 l -0.802131 0.597148 l -0.809683 0.586867 l -0.817198 0.576356 l -0.824672 0.565611 l -0.832101 0.554624 l -0.83948 0.543391 l -0.846804 0.531905 l -0.854069 0.52016 l -0.861269 0.50815 l -0.868398 0.495869 l -0.87545 0.483309 l -0.88242 0.470463 l -0.889299 0.457326 l -0.896082 0.443888 l -0.902761 0.430143 l -0.909327 0.416083 l -0.915772 0.401699 l -0.922086 0.386984 l -0.928261 0.371929 l -0.934286 0.356525 l -0.940149 0.340763 l -0.94584 0.324633 l -0.951345 0.308126 l -0.956652 0.291233 l -0.961746 0.273942 l -0.966612 0.256244 l -0.971234 0.238128 l -0.975594 0.219582 l -0.979674 0.200595 l -0.983454 0.181157 l -0.986913 0.161254 l -0.990028 0.140874 l -0.992773 0.120006 l -0.995124 0.098636 l -0.99705 0.076751 l -0.998523 0.054339 l -0.999507 0.031386 l -0.999969 0.007878 l -0.999869 -0.016197 l -0.999165 -0.040853 l -0.997813 -0.066105 l -0.995762 -0.091964 l -0.992961 -0.118444 l -0.98935 -0.145557 l -0.984866 -0.173315 l -0.979442 -0.201728 l -0.973 -0.230807 l -0.965458 -0.260559 l -0.956726 -0.29099 l -0.946704 -0.322104 l -0.935283 -0.353901 l -0.922341 -0.386376 l -0.907745 -0.419522 l -0.891347 -0.453323 l -0.872981 -0.487755 l -0.852464 -0.522785 l -0.829593 -0.558369 l -0.804137 -0.594443 l -0.775841 -0.630928 l -0.744415 -0.667718 l -0.709532 -0.704673 l -0.670824 -0.741616 l -0.627873 -0.778316 l -0.580203 -0.814472 l -0.527271 -0.849697 l -0.468458 -0.883486 l -0.403056 -0.915175 l -0.330261 -0.94389 l -0.249154 -0.968464 l -0.158704 -0.987326 l -0.057776 -0.99833 l 0.054839 -0.998495 l 0.180306 -0.983611 l 0.319494 -0.947588 l 0.472356 -0.881408 l 0.636435 -0.77133 l 0.803084 -0.595866 l 0.947061 -0.321055 l 0.994731 0.102523 l 0.719217 0.694785 l -0.39859 0.917129" stroke="#4488ff" stroke-width="0.25%" fill="transparent" class="foreground-stroke" transform-origin="50% 50%" xmlns="http://www.w3.org/2000/svg">
        </path>
        <path id="turtle-t3-path" d="m 0 0   m 200 200 l -1 0 l -0.999987 -0.005025 l -0.999949 -0.010076 l -0.999885 -0.015152 l -0.999795 -0.020253 l -0.999678 -0.02538 l -0.999534 -0.030533 l -0.999362 -0.035712 l -0.999163 -0.040917 l -0.998935 -0.046148 l -0.998678 -0.051406 l -0.998392 -0.05669 l -0.998076 -0.062 l -0.99773 -0.067338 l -0.997354 -0.072702 l -0.996946 -0.078093 l -0.996507 -0.083511 l -0.996036 -0.088956 l -0.995532 -0.094429 l -0.994995 -0.099929 l -0.994424 -0.105456 l -0.993819 -0.111012 l -0.99318 -0.116595 l -0.992505 -0.122206 l -0.991794 -0.127845 l -0.991047 -0.133512 l -0.990263 -0.139207 l -0.989442 -0.144931 l -0.988582 -0.150683 l -0.987684 -0.156464 l -0.986746 -0.162273 l -0.985768 -0.168111 l -0.984749 -0.173978 l -0.98369 -0.179875 l -0.982588 -0.1858 l -0.981443 -0.191754 l -0.980255 -0.197738 l -0.979023 -0.203751 l -0.977746 -0.209793 l -0.976423 -0.215865 l -0.975054 -0.221967 l -0.973638 -0.228098 l -0.972174 -0.234259 l -0.970661 -0.24045 l -0.969099 -0.246671 l -0.967487 -0.252922 l -0.965823 -0.259203 l -0.964107 -0.265514 l -0.962338 -0.271855 l -0.960516 -0.278226 l -0.958638 -0.284628 l -0.956705 -0.29106 l -0.954715 -0.297522 l -0.952667 -0.304014 l -0.950561 -0.310537 l -0.948395 -0.31709 l -0.946169 -0.323673 l -0.94388 -0.330287 l -0.941529 -0.336931 l -0.939114 -0.343606 l -0.936634 -0.35031 l -0.934087 -0.357045 l -0.931473 -0.36381 l -0.928791 -0.370605 l -0.926038 -0.37743 l -0.923214 -0.384286 l -0.920318 -0.391171 l -0.917348 -0.398086 l -0.914303 -0.40503 l -0.911182 -0.412004 l -0.907983 -0.419008 l -0.904704 -0.42604 l -0.901345 -0.433102 l -0.897903 -0.440193 l -0.894378 -0.447313 l -0.890767 -0.454461 l -0.887069 -0.461637 l -0.883283 -0.468841 l -0.879406 -0.476073 l -0.875437 -0.483332 l -0.871375 -0.490618 l -0.867217 -0.497931 l -0.862961 -0.50527 l -0.858606 -0.512636 l -0.85415 -0.520027 l -0.849591 -0.527443 l -0.844926 -0.534883 l -0.840154 -0.542348 l -0.835272 -0.549836 l -0.830279 -0.557347 l -0.825172 -0.564881 l -0.819949 -0.572436 l -0.814607 -0.580013 l -0.809145 -0.58761 l -0.803559 -0.595226 l -0.797847 -0.602861 l -0.792006 -0.610513 l -0.786034 -0.618183 l -0.779928 -0.625869 l -0.773686 -0.633569 l -0.767304 -0.641284 l -0.760779 -0.649011 l -0.754109 -0.656749 l -0.74729 -0.664498 l -0.74032 -0.672255 l -0.733194 -0.68002 l -0.725909 -0.68779 l -0.718463 -0.695565 l -0.710851 -0.703342 l -0.70307 -0.711121 l -0.695116 -0.718898 l -0.686985 -0.726671 l -0.678674 -0.73444 l -0.670177 -0.742201 l -0.661492 -0.749952 l -0.652614 -0.757691 l -0.643538 -0.765415 l -0.634259 -0.773121 l -0.624774 -0.780806 l -0.615077 -0.788467 l -0.605163 -0.796102 l -0.595027 -0.803705 l -0.584665 -0.811275 l -0.57407 -0.818806 l -0.563237 -0.826295 l -0.55216 -0.833738 l -0.540834 -0.841129 l -0.529252 -0.848465 l -0.517409 -0.855738 l -0.505297 -0.862946 l -0.49291 -0.87008 l -0.480241 -0.877137 l -0.467284 -0.884107 l -0.45403 -0.890986 l -0.440473 -0.897766 l -0.426605 -0.904438 l -0.412418 -0.910995 l -0.397904 -0.917427 l -0.383054 -0.923726 l -0.367861 -0.929881 l -0.352314 -0.935882 l -0.336405 -0.941717 l -0.320124 -0.947376 l -0.303462 -0.952843 l -0.286409 -0.958107 l -0.268955 -0.963153 l -0.251088 -0.967964 l -0.232799 -0.972525 l -0.214077 -0.976817 l -0.194909 -0.980821 l -0.175284 -0.984518 l -0.155191 -0.987885 l -0.134617 -0.990898 l -0.11355 -0.993532 l -0.091977 -0.995761 l -0.069886 -0.997555 l -0.047263 -0.998882 l -0.024096 -0.99971 l -0.000372 -1 l 0.023924 -0.999714 l 0.048803 -0.998808 l 0.074279 -0.997238 l 0.100364 -0.994951 l 0.127071 -0.991894 l 0.154411 -0.988007 l 0.182395 -0.983225 l 0.211033 -0.977479 l 0.240333 -0.970691 l 0.270301 -0.962776 l 0.300943 -0.953642 l 0.332259 -0.943188 l 0.364248 -0.931302 l 0.396903 -0.917861 l 0.430213 -0.902728 l 0.464158 -0.885752 l 0.498712 -0.866768 l 0.533838 -0.845587 l 0.569483 -0.822003 l 0.605581 -0.795784 l 0.642043 -0.766669 l 0.678754 -0.734366 l 0.715566 -0.698545 l 0.752289 -0.658833 l 0.788677 -0.614808 l 0.824413 -0.565989 l 0.859087 -0.511829 l 0.892168 -0.451704 l 0.922958 -0.384902 l 0.950538 -0.310608 l 0.973684 -0.227902 l 0.990744 -0.135742 l 0.999456 -0.032983 l 0.996666 0.081585 l 0.977889 0.209126 l 0.936576 0.350465 l 0.862893 0.505386 l 0.741575 0.67087 l 0.548139 0.836387 l 0.242865 0.97006 l -0.230815 0.972998 l -0.848701 0.528873" stroke="#4488ff" stroke-width="0.25%" fill="transparent" class="foreground-stroke" transform-origin="50% 50%" xmlns="http://www.w3.org/2000/svg">
        </path>
        <path id="turtle-t4-path" d="m 0 0   m 0 200 l 0.005 -0.999988 l 0.010025 -0.99995 l 0.015075 -0.999886 l 0.02015 -0.999797 l 0.02525 -0.999681 l 0.030376 -0.999539 l 0.035528 -0.999369 l 0.040705 -0.999171 l 0.045907 -0.998946 l 0.051136 -0.998692 l 0.056391 -0.998409 l 0.061672 -0.998096 l 0.066979 -0.997754 l 0.072313 -0.997382 l 0.077673 -0.996979 l 0.08306 -0.996545 l 0.088474 -0.996079 l 0.093914 -0.99558 l 0.099381 -0.995049 l 0.104876 -0.994485 l 0.110398 -0.993887 l 0.115947 -0.993255 l 0.121523 -0.992589 l 0.127128 -0.991886 l 0.132759 -0.991148 l 0.138419 -0.990374 l 0.144106 -0.989562 l 0.149822 -0.988713 l 0.155565 -0.987826 l 0.161337 -0.986899 l 0.167137 -0.985934 l 0.172966 -0.984928 l 0.178823 -0.983881 l 0.184708 -0.982793 l 0.190623 -0.981663 l 0.196566 -0.980491 l 0.202538 -0.979275 l 0.208538 -0.978014 l 0.214568 -0.976709 l 0.220627 -0.975358 l 0.226716 -0.973961 l 0.232833 -0.972517 l 0.23898 -0.971025 l 0.245156 -0.969484 l 0.251362 -0.967893 l 0.257597 -0.966252 l 0.263862 -0.96456 l 0.270156 -0.962816 l 0.27648 -0.96102 l 0.282834 -0.959169 l 0.289218 -0.957263 l 0.295631 -0.955302 l 0.302074 -0.953284 l 0.308547 -0.951209 l 0.31505 -0.949075 l 0.321582 -0.946882 l 0.328145 -0.944627 l 0.334737 -0.942312 l 0.341359 -0.939933 l 0.348011 -0.93749 l 0.354692 -0.934983 l 0.361404 -0.932409 l 0.368145 -0.929769 l 0.374915 -0.927059 l 0.381715 -0.92428 l 0.388544 -0.92143 l 0.395403 -0.918508 l 0.402291 -0.915512 l 0.409208 -0.912441 l 0.416154 -0.909294 l 0.423129 -0.906069 l 0.430132 -0.902766 l 0.437164 -0.899382 l 0.444225 -0.895915 l 0.451313 -0.892366 l 0.45843 -0.888731 l 0.465573 -0.885009 l 0.472745 -0.881199 l 0.479943 -0.8773 l 0.487168 -0.873308 l 0.49442 -0.869223 l 0.501698 -0.865043 l 0.509001 -0.860766 l 0.51633 -0.85639 l 0.523684 -0.851913 l 0.531062 -0.847333 l 0.538465 -0.842648 l 0.54589 -0.837857 l 0.553339 -0.832956 l 0.56081 -0.827944 l 0.568303 -0.822819 l 0.575817 -0.817579 l 0.583352 -0.81222 l 0.590906 -0.806741 l 0.598479 -0.801139 l 0.60607 -0.795411 l 0.613678 -0.789556 l 0.621303 -0.78357 l 0.628943 -0.777451 l 0.636598 -0.771196 l 0.644265 -0.764802 l 0.651945 -0.758266 l 0.659636 -0.751586 l 0.667336 -0.744757 l 0.675044 -0.737777 l 0.68276 -0.730643 l 0.69048 -0.723351 l 0.698205 -0.715898 l 0.705931 -0.70828 l 0.713658 -0.700494 l 0.721383 -0.692536 l 0.729105 -0.684402 l 0.73682 -0.676089 l 0.744528 -0.667591 l 0.752226 -0.658905 l 0.759911 -0.650028 l 0.76758 -0.640953 l 0.775232 -0.631677 l 0.782862 -0.622195 l 0.790468 -0.612503 l 0.798047 -0.602595 l 0.805596 -0.592466 l 0.813109 -0.582111 l 0.820585 -0.571525 l 0.828018 -0.560701 l 0.835405 -0.549636 l 0.84274 -0.538321 l 0.850019 -0.526752 l 0.857237 -0.514922 l 0.864388 -0.502825 l 0.871467 -0.490454 l 0.878467 -0.477802 l 0.885383 -0.464863 l 0.892206 -0.451628 l 0.898931 -0.43809 l 0.905549 -0.424243 l 0.912051 -0.410077 l 0.91843 -0.395584 l 0.924675 -0.380757 l 0.930778 -0.365586 l 0.936726 -0.350062 l 0.94251 -0.334177 l 0.948117 -0.31792 l 0.953535 -0.301283 l 0.958749 -0.284254 l 0.963746 -0.266823 l 0.968509 -0.24898 l 0.973022 -0.230713 l 0.977267 -0.212012 l 0.981225 -0.192865 l 0.984876 -0.17326 l 0.988198 -0.153184 l 0.991166 -0.132626 l 0.993756 -0.111573 l 0.995941 -0.090011 l 0.99769 -0.067927 l 0.998973 -0.045308 l 0.999755 -0.022141 l 0.999999 0.001588 l 0.999665 0.025894 l 0.998709 0.050789 l 0.997086 0.076288 l 0.994743 0.102404 l 0.991625 0.129149 l 0.987672 0.156537 l 0.982818 0.184579 l 0.97699 0.213286 l 0.97011 0.242667 l 0.962091 0.27273 l 0.952838 0.303481 l 0.942246 0.334921 l 0.930201 0.36705 l 0.916575 0.399863 l 0.901226 0.433349 l 0.883998 0.46749 l 0.864717 0.502259 l 0.843189 0.537618 l 0.819195 0.573515 l 0.792493 0.609881 l 0.762808 0.646625 l 0.729832 0.683626 l 0.693215 0.72073 l 0.652563 0.757734 l 0.607425 0.794377 l 0.557289 0.830319 l 0.50157 0.865117 l 0.439601 0.898193 l 0.370618 0.928785 l 0.293752 0.955882 l 0.208018 0.978125 l 0.11232 0.993672 l 0.005463 0.999985 l -0.113771 0.993507 l -0.246458 0.969153 l -0.39312 0.919487 l -0.552757 0.833342 l -0.720462 0.693495 l -0.881158 0.472823 l -0.991589 0.129427 l -0.922686 -0.385551 l -0.28969 -0.957121" stroke="#4488ff" stroke-width="0.25%" fill="transparent" class="foreground-stroke" transform-origin="50% 50%" xmlns="http://www.w3.org/2000/svg">
        </path>
      </g>
    </pattern>
  </defs>
  <rect width="10000%" height="10000%" x="-5000%" y="-5000%" fill="url(#turtle-pattern)" transform-origin="50% 50%" />
</svg>