<svg xmlns="http://www.w3.org/2000/svg" width="100%" height="100%" transform-origin="50% 50%">
  <symbol id="turtle-symbol" viewBox="0 0 420 420" transform-origin="50% 50%">
    <svg xmlns="http://www.w3.org/2000/svg" viewBox="0 0 420 420" transform-origin="50% 50%" width="100%" height="100%">
      <path id="turtle-path" d="m 0 0  l 420 0  l 0 420  l -420 0  l -0 -420" stroke="currentcolor" stroke-width="0.25%" fill="transparent" class="foreground-stroke" transform-origin="50% 50%">
      </path>
      <g id="turtle-children">
        <path id="turtle-s1-path" d="m 0 0  l 2.30360322347411 2.27278422728583  l 2.31902346110729 2.25704810357102  l 2.33450579858218 2.24103070737234  l 2.35004964622015 2.22472528985044  l 2.36565434578004 2.20812487674306  l 2.38131916566075 2.19122225852522  l 2.39704329575209 2.17400998003449  l 2.41282584190494 2.15648032952663  l 2.4286658199894 2.13862532712366  l 2.44456214950618 2.12043671261401  l 2.46051364671378 2.10190593256093  l 2.47651901723007 2.08302412667194  l 2.49257684806281 2.06378211337846  l 2.50868559901966 2.04417037457032  l 2.52484359344279 2.02417903942573  l 2.54104900820813 2.00379786727206  l 2.557299862923 1.98301622940751  l 2.57359400824928 1.96182308980779  l 2.58992911327153 1.94020698463544  l 2.60630265182118 1.91815600046229  l 2.62271188765846 1.89565775110766  l 2.63915385840312 1.87269935298634  l 2.65562535809315 1.84926739885075  l 2.67212291823749 1.8253479298012  l 2.6886427872137 1.80092640542676  l 2.70518090784455 1.77598767192595  l 2.72173289296879 1.75051592804274  l 2.73829399879953 1.72449468863723  l 2.75485909583949 1.69790674569306  l 2.77142263709467 1.67073412654401  l 2.78797862329686 1.64295804908078  l 2.80452056480929 1.61455887367459  l 2.8210414398495 1.58551605152752  l 2.83753364861668 1.55580806912926  l 2.85398896285761 1.52541238846633  l 2.87039847034445 1.49430538259214  l 2.88675251366712 1.46246226612386  l 2.90304062266257 1.42985702018437  l 2.91925143970955 1.39646231125415  l 2.93537263700989 1.36224940333743  l 2.95139082485148 1.32718806277863  l 2.96729144970296 1.29124645498809  l 2.98305868081975 1.25439103224853  l 2.99867528384265 1.21658641167439  l 3.01412247963705 1.17779524228374  l 3.02937978634696 1.13797806001348  l 3.04442484231493 1.09709312936289  l 3.05923320713649 1.05509627018248  l 3.07377813766377 1.01194066793454  l 3.08803033523274 0.967576665531953  l 3.10195765974149 0.921951534610519  l 3.1155248054322 0.875009223800645  l 3.12869293229504 0.826690081231567  l 3.14141924588254 0.776930548117625  l 3.15365651695146 0.72566281983383  l 3.16535253067499 0.672814470377266  l 3.17644945311734 0.618308035521234  l 3.18688310013618 0.562060549288046  l 3.19658209075106 0.503983027580486  l 3.20546686312345 0.443979891906232  l 3.21344852642168 0.381948325088508  l 3.22042751570795 0.317777549664376  l 3.22629200920933 0.251348018316471  l 3.23091605741342 0.18253050415667  l 3.23415736068229 0.111185076984855  l 3.23585461557375 0.037159949806563  l 3.23582432851878 -0.0397098220285675  l 3.23385696714799 -0.119603808584708  l 3.22971228188916 -0.202717861112129  l 3.22311357991876 -0.28926597785231  l 3.21374066502914 -0.379482401354273  l 3.20122106301419 -0.473623965518906  l 3.18511902175068 -0.571972702391974  l 3.16492159169759 -0.674838701769538  l 3.14002083075611 -0.782563184297149  l 3.10969079799899 -0.895521689206887  l 3.07305744131872 -1.01412717020855  l 3.02905864350132 -1.13883259930051  l 2.97639040194648 -1.27013232783064  l 2.91343309372606 -1.40856081280908  l 2.83814851950158 -1.55468612145686  l 2.74793302131025 -1.70909334601487  l 2.63940273117534 -1.87234857269252  l 2.50807061083954 -2.0449248802933  l 2.3478446035938 -2.22705223835793  l 2.15021734477342 -2.41840884162193  l 1.9028972443522 -2.61746404606375  l 1.58736795370474 -2.81999981109056  l 1.17425210159079 -3.01550459407861  l 0.613856972413381 -3.17731263372352  l -0.184190631108538 -3.23082184071041  l -1.38765751770019 -2.92344703536249  l -3.02838827688702 -1.14061404489548" stroke="currentcolor" stroke-width="0.25%" fill="transparent" class="foreground-stroke" transform-origin="50% 50%" xmlns="http://www.w3.org/2000/svg">
        </path>
        <path id="turtle-s2-path" d="m 0 0  m 420 0  l -2.27278422728583 2.30360322347411  l -2.25704810357102 2.31902346110729  l -2.24103070737234 2.33450579858218  l -2.22472528985044 2.35004964622015  l -2.20812487674306 2.36565434578004  l -2.19122225852522 2.38131916566075  l -2.17400998003449 2.39704329575209  l -2.15648032952663 2.41282584190494  l -2.13862532712366 2.4286658199894  l -2.12043671261401 2.44456214950618  l -2.10190593256093 2.46051364671378  l -2.08302412667194 2.47651901723007  l -2.06378211337846 2.49257684806281  l -2.04417037457032 2.50868559901966  l -2.02417903942573 2.52484359344279  l -2.00379786727206 2.54104900820813  l -1.98301622940751 2.557299862923  l -1.96182308980779 2.57359400824928  l -1.94020698463544 2.58992911327153  l -1.91815600046229 2.60630265182118  l -1.89565775110766 2.62271188765847  l -1.87269935298634 2.63915385840312  l -1.84926739885075 2.65562535809315  l -1.8253479298012 2.67212291823749  l -1.80092640542676 2.6886427872137  l -1.77598767192595 2.70518090784455  l -1.75051592804274 2.72173289296879  l -1.72449468863723 2.73829399879953  l -1.69790674569306 2.75485909583949  l -1.67073412654401 2.77142263709467  l -1.64295804908078 2.78797862329686  l -1.61455887367459 2.80452056480929  l -1.58551605152752 2.8210414398495  l -1.55580806912926 2.83753364861668  l -1.52541238846633 2.85398896285761  l -1.49430538259214 2.87039847034445  l -1.46246226612386 2.88675251366712  l -1.42985702018437 2.90304062266257  l -1.39646231125415 2.91925143970955  l -1.36224940333743 2.93537263700989  l -1.32718806277863 2.95139082485148  l -1.29124645498809 2.96729144970296  l -1.25439103224853 2.98305868081975  l -1.21658641167439 2.99867528384265  l -1.17779524228374 3.01412247963705  l -1.13797806001348 3.02937978634696  l -1.09709312936289 3.04442484231493  l -1.05509627018248 3.05923320713649  l -1.01194066793454 3.07377813766377  l -0.96757666553195 3.08803033523274  l -0.921951534610519 3.10195765974149  l -0.875009223800645 3.1155248054322  l -0.826690081231564 3.12869293229504  l -0.776930548117625 3.14141924588254  l -0.72566281983383 3.15365651695146  l -0.672814470377266 3.16535253067499  l -0.618308035521234 3.17644945311734  l -0.562060549288049 3.18688310013618  l -0.503983027580486 3.19658209075105  l -0.443979891906232 3.20546686312345  l -0.381948325088508 3.21344852642168  l -0.317777549664379 3.22042751570795  l -0.251348018316474 3.22629200920933  l -0.182530504156673 3.23091605741342  l -0.111185076984855 3.23415736068229  l -0.037159949806563 3.23585461557375  l 0.0397098220285675 3.23582432851878  l 0.119603808584705 3.23385696714799  l 0.202717861112129 3.22971228188916  l 0.28926597785231 3.22311357991876  l 0.379482401354273 3.21374066502914  l 0.473623965518906 3.20122106301419  l 0.57197270239197 3.18511902175068  l 0.674838701769534 3.16492159169759  l 0.782563184297146 3.14002083075611  l 0.895521689206884 3.10969079799899  l 1.01412717020855 3.07305744131872  l 1.13883259930051 3.02905864350132  l 1.27013232783064 2.97639040194648  l 1.40856081280908 2.91343309372606  l 1.55468612145686 2.83814851950158  l 1.70909334601486 2.74793302131025  l 1.87234857269252 2.63940273117535  l 2.0449248802933 2.50807061083954  l 2.22705223835792 2.3478446035938  l 2.41840884162193 2.15021734477343  l 2.61746404606374 1.9028972443522  l 2.81999981109056 1.58736795370474  l 3.01550459407861 1.17425210159079  l 3.17731263372352 0.613856972413375  l 3.23082184071041 -0.184190631108547  l 2.92344703536248 -1.38765751770021  l 1.14061404489546 -3.02838827688703" stroke="currentcolor" stroke-width="0.25%" fill="transparent" class="foreground-stroke" transform-origin="50% 50%" xmlns="http://www.w3.org/2000/svg">
        </path>
        <path id="turtle-s3-path" d="m 0 0  m 420 420  l -2.30360322347411 -2.27278422728583  l -2.31902346110729 -2.25704810357102  l -2.33450579858218 -2.24103070737234  l -2.35004964622015 -2.22472528985044  l -2.36565434578004 -2.20812487674306  l -2.38131916566075 -2.19122225852522  l -2.39704329575209 -2.17400998003449  l -2.41282584190494 -2.15648032952663  l -2.4286658199894 -2.13862532712366  l -2.44456214950618 -2.12043671261401  l -2.46051364671378 -2.10190593256093  l -2.47651901723007 -2.08302412667194  l -2.49257684806281 -2.06378211337846  l -2.50868559901966 -2.04417037457031  l -2.52484359344279 -2.02417903942573  l -2.54104900820813 -2.00379786727206  l -2.557299862923 -1.98301622940751  l -2.57359400824928 -1.96182308980779  l -2.58992911327153 -1.94020698463544  l -2.60630265182118 -1.91815600046228  l -2.62271188765847 -1.89565775110766  l -2.63915385840313 -1.87269935298634  l -2.65562535809315 -1.84926739885074  l -2.67212291823749 -1.8253479298012  l -2.6886427872137 -1.80092640542676  l -2.70518090784455 -1.77598767192595  l -2.72173289296879 -1.75051592804274  l -2.73829399879953 -1.72449468863723  l -2.75485909583949 -1.69790674569306  l -2.77142263709467 -1.67073412654401  l -2.78797862329686 -1.64295804908078  l -2.80452056480929 -1.61455887367459  l -2.8210414398495 -1.58551605152753  l -2.83753364861668 -1.55580806912926  l -2.85398896285761 -1.52541238846633  l -2.87039847034445 -1.49430538259214  l -2.88675251366712 -1.46246226612386  l -2.90304062266257 -1.42985702018437  l -2.91925143970955 -1.39646231125415  l -2.93537263700989 -1.36224940333743  l -2.95139082485148 -1.32718806277863  l -2.96729144970296 -1.29124645498809  l -2.98305868081975 -1.25439103224853  l -2.99867528384265 -1.2165864116744  l -3.01412247963705 -1.17779524228374  l -3.02937978634695 -1.13797806001349  l -3.04442484231493 -1.09709312936289  l -3.05923320713649 -1.05509627018248  l -3.07377813766377 -1.01194066793454  l -3.08803033523274 -0.967576665531953  l -3.10195765974149 -0.921951534610516  l -3.11552480543221 -0.875009223800645  l -3.12869293229504 -0.826690081231567  l -3.14141924588254 -0.776930548117625  l -3.15365651695146 -0.725662819833833  l -3.16535253067499 -0.672814470377266  l -3.17644945311734 -0.618308035521234  l -3.18688310013618 -0.562060549288049  l -3.19658209075105 -0.503983027580489  l -3.20546686312345 -0.443979891906236  l -3.21344852642168 -0.381948325088508  l -3.22042751570795 -0.317777549664379  l -3.22629200920933 -0.251348018316474  l -3.23091605741342 -0.182530504156673  l -3.23415736068229 -0.111185076984858  l -3.23585461557375 -0.037159949806563  l -3.23582432851878 0.0397098220285675  l -3.23385696714799 0.119603808584705  l -3.22971228188916 0.202717861112129  l -3.22311357991876 0.289265977852307  l -3.21374066502914 0.379482401354273  l -3.20122106301419 0.473623965518906  l -3.18511902175068 0.57197270239197  l -3.16492159169759 0.674838701769538  l -3.14002083075611 0.782563184297149  l -3.10969079799899 0.895521689206884  l -3.07305744131872 1.01412717020855  l -3.02905864350132 1.13883259930051  l -2.97639040194648 1.27013232783064  l -2.91343309372606 1.40856081280908  l -2.83814851950158 1.55468612145686  l -2.74793302131025 1.70909334601486  l -2.63940273117534 1.87234857269252  l -2.50807061083954 2.0449248802933  l -2.3478446035938 2.22705223835792  l -2.15021734477342 2.41840884162193  l -1.9028972443522 2.61746404606374  l -1.58736795370474 2.81999981109056  l -1.17425210159079 3.01550459407861  l -0.613856972413375 3.17731263372352  l 0.184190631108547 3.23082184071041  l 1.38765751770021 2.92344703536248  l 3.02838827688703 1.14061404489546" stroke="currentcolor" stroke-width="0.25%" fill="transparent" class="foreground-stroke" transform-origin="50% 50%" xmlns="http://www.w3.org/2000/svg">
        </path>
        <path id="turtle-s4-path" d="m 0 0  m 0 420  l 2.27278422728583 -2.30360322347411  l 2.25704810357102 -2.31902346110729  l 2.24103070737234 -2.33450579858218  l 2.22472528985044 -2.35004964622015  l 2.20812487674306 -2.36565434578004  l 2.19122225852522 -2.38131916566075  l 2.17400998003449 -2.39704329575209  l 2.15648032952663 -2.41282584190494  l 2.13862532712366 -2.4286658199894  l 2.12043671261401 -2.44456214950618  l 2.10190593256093 -2.46051364671378  l 2.08302412667194 -2.47651901723007  l 2.06378211337846 -2.49257684806281  l 2.04417037457032 -2.50868559901966  l 2.02417903942573 -2.52484359344279  l 2.00379786727206 -2.54104900820813  l 1.98301622940751 -2.557299862923  l 1.96182308980779 -2.57359400824928  l 1.94020698463544 -2.58992911327153  l 1.91815600046229 -2.60630265182118  l 1.89565775110766 -2.62271188765847  l 1.87269935298634 -2.63915385840312  l 1.84926739885075 -2.65562535809315  l 1.8253479298012 -2.67212291823749  l 1.80092640542676 -2.6886427872137  l 1.77598767192595 -2.70518090784455  l 1.75051592804274 -2.72173289296879  l 1.72449468863723 -2.73829399879953  l 1.69790674569306 -2.75485909583949  l 1.67073412654401 -2.77142263709467  l 1.64295804908078 -2.78797862329686  l 1.61455887367459 -2.80452056480929  l 1.58551605152752 -2.8210414398495  l 1.55580806912926 -2.83753364861668  l 1.52541238846633 -2.85398896285761  l 1.49430538259214 -2.87039847034445  l 1.46246226612386 -2.88675251366712  l 1.42985702018437 -2.90304062266257  l 1.39646231125415 -2.91925143970955  l 1.36224940333743 -2.93537263700989  l 1.32718806277863 -2.95139082485148  l 1.29124645498809 -2.96729144970296  l 1.25439103224853 -2.98305868081975  l 1.21658641167439 -2.99867528384265  l 1.17779524228374 -3.01412247963705  l 1.13797806001348 -3.02937978634696  l 1.09709312936289 -3.04442484231493  l 1.05509627018248 -3.05923320713649  l 1.01194066793454 -3.07377813766377  l 0.967576665531953 -3.08803033523274  l 0.921951534610519 -3.10195765974149  l 0.875009223800645 -3.1155248054322  l 0.826690081231567 -3.12869293229504  l 0.776930548117625 -3.14141924588254  l 0.72566281983383 -3.15365651695146  l 0.672814470377266 -3.16535253067499  l 0.618308035521234 -3.17644945311734  l 0.562060549288046 -3.18688310013618  l 0.503983027580486 -3.19658209075105  l 0.443979891906232 -3.20546686312345  l 0.381948325088508 -3.21344852642168  l 0.317777549664376 -3.22042751570795  l 0.251348018316471 -3.22629200920933  l 0.18253050415667 -3.23091605741342  l 0.111185076984855 -3.23415736068229  l 0.037159949806563 -3.23585461557375  l -0.0397098220285707 -3.23582432851878  l -0.119603808584708 -3.23385696714799  l -0.202717861112132 -3.22971228188916  l -0.289265977852313 -3.22311357991876  l -0.379482401354273 -3.21374066502914  l -0.473623965518909 -3.20122106301419  l -0.571972702391974 -3.18511902175068  l -0.674838701769538 -3.16492159169759  l -0.782563184297152 -3.14002083075611  l -0.895521689206887 -3.10969079799899  l -1.01412717020855 -3.07305744131872  l -1.13883259930051 -3.02905864350132  l -1.27013232783064 -2.97639040194648  l -1.40856081280908 -2.91343309372606  l -1.55468612145686 -2.83814851950158  l -1.70909334601487 -2.74793302131025  l -1.87234857269252 -2.63940273117534  l -2.0449248802933 -2.50807061083954  l -2.22705223835793 -2.3478446035938  l -2.41840884162193 -2.15021734477342  l -2.61746404606375 -1.9028972443522  l -2.81999981109056 -1.58736795370474  l -3.01550459407861 -1.17425210159079  l -3.17731263372352 -0.613856972413381  l -3.23082184071041 0.184190631108541  l -2.92344703536249 1.38765751770019  l -1.14061404489547 3.02838827688703" stroke="currentcolor" stroke-width="0.25%" fill="transparent" class="foreground-stroke" transform-origin="50% 50%" xmlns="http://www.w3.org/2000/svg">
        </path>
        <path id="turtle-h1-path" d="m 0 0  m 210 210  l 1.4142135623731 -1.4142135623731  l 1.40465790155731 -1.42370508870082  l 1.39493244225038 -1.43323531967273  l 1.38503314698832 -1.4428039304575  l 1.37495584475903 -1.45241055661372  l 1.36469622523138 -1.46205479132596  l 1.35424983267389 -1.47173618243989  l 1.34361205954279 -1.48145422927986  l 1.33277813971803 -1.49120837923133  l 1.32174314136378 -1.50099802406858  l 1.31050195938855 -1.51082249600632  l 1.2990493074777 -1.52068106345207  l 1.28737970966932 -1.53057292643367  l 1.27548749144198 -1.5404972116739  l 1.26336677028006 -1.55045296728154  l 1.25101144568021 -1.56043915702507  l 1.23841518855868 -1.57045465415184  l 1.2255714300165 -1.58049823471186  l 1.21247334941555 -1.59056857034113  l 1.19911386171464 -1.60066422045468  l 1.18548560401025 -1.61078362379447  l 1.17158092122172 -1.62092508927133  l 1.1573918508555 -1.63108678603356  l 1.14291010677687 -1.64126673268768  l 1.1281270619114 -1.65146278558833  l 1.11303372979091 -1.66167262610532  l 1.09762074485103 -1.67189374676523  l 1.08187834137848 -1.68212343615329  l 1.06579633099648 -1.69235876244798  l 1.04936407856604 -1.70259655544561  l 1.03257047636857 -1.71283338691537  l 1.01540391642214 -1.7230655491056  l 0.997852260768642 -1.73328903120019  l 0.979902809552538 -1.74349949349893  l 0.961542266693228 -1.75369223906661  l 0.942756702932346 -1.76386218256306  l 0.923531516013858 -1.77400381592858  l 0.90385138772874 -1.78411117055548  l 0.883700237526584 -1.79417777552712  l 0.8630611723633 -1.80419661144757  l 0.841916432416794 -1.81416005931852  l 0.82024733226032 -1.8240598438428  l 0.79803419703545 -1.83388697044338  l 0.775256293112654 -1.84363165518203  l 0.751891752666046 -1.853283246639  l 0.727917491519266 -1.86283013867081  l 0.70330911954 -1.87225967279431  l 0.678040842770252 -1.88155802874517  l 0.652085356376014 -1.8907101015227  l 0.625413727381814 -1.89969936295257  l 0.597995266020036 -1.90850770546457  l 0.569797384369426 -1.91711526538332  l 0.540785440778462 -1.9255002225505  l 0.51092256836352 -1.93363857251991  l 0.480169485634778 -1.94150386686847  l 0.448484287029398 -1.94906691631861  l 0.41582221081591 -1.95629545033264  l 0.3821353814693 -1.96315372557253  l 0.347372523195448 -1.9696020740568  l 0.311478640797814 -1.97559637991335  l 0.274394663519554 -1.9810874712218  l 0.236057046850792 -1.98602041042686  l 0.196397326554242 -1.9903336630129  l 0.155341618324508 -1.99395811932355  l 0.112810055552476 -1.9968159382793  l 0.068716156618414 -1.99881917386731  l 0.022966112000696 -1.9998681350778  l -0.024542019700864 -1.99984941664841  l -0.073919218889284 -1.99863352045311  l -0.125286528293976 -1.99607196409048  l -0.1787762061017 -1.99199374199114  l -0.234533022169368 -1.9862009620157  l -0.292715708577192 -1.97846342244484  l -0.353498570715366 -1.96851181365574  l -0.417073254617428 -1.95602911539753  l -0.483650646239986 -1.94063959878996  l -0.553462841592576 -1.92189460766616  l -0.626765060103636 -1.89925394811576  l -0.703837253864102 -1.87206119560046  l -0.78498494880936 -1.83951043219188  l -0.87053845753719 -1.80060067587146  l -0.960848864898082 -1.75407225017217  l -1.05627777778347 -1.69831600597792  l -1.15717505671133 -1.63124059786566  l -1.26383308046157 -1.55007288368354  l -1.37639397802673 -1.45104776532399  l -1.49465886281561 -1.32890740226952  l -1.61768174479822 -1.17605517410817  l -1.74285573152225 -0.9810473480419  l -1.86368433237204 -0.725727710144102  l -1.96368720052558 -0.379384473182578  l -1.99675770915453 0.113836070434364  l -1.80678963216413 0.857619510683034" stroke="currentcolor" stroke-width="0.25%" fill="transparent" class="foreground-stroke" transform-origin="50% 50%" xmlns="http://www.w3.org/2000/svg">
        </path>
        <path id="turtle-h2-path" d="m 0 0  m 210 210  l 1.4142135623731 1.4142135623731  l 1.42370508870082 1.40465790155731  l 1.43323531967273 1.39493244225038  l 1.4428039304575 1.38503314698832  l 1.45241055661372 1.37495584475903  l 1.46205479132596 1.36469622523138  l 1.47173618243989 1.35424983267389  l 1.48145422927986 1.34361205954279  l 1.49120837923133 1.33277813971803  l 1.50099802406858 1.32174314136379  l 1.51082249600632 1.31050195938855  l 1.52068106345207 1.2990493074777  l 1.53057292643367 1.28737970966932  l 1.5404972116739 1.27548749144198  l 1.55045296728154 1.26336677028006  l 1.56043915702507 1.25101144568021  l 1.57045465415184 1.23841518855868  l 1.58049823471186 1.2255714300165  l 1.59056857034113 1.21247334941555  l 1.60066422045468 1.19911386171464  l 1.61078362379447 1.18548560401025  l 1.62092508927133 1.17158092122172  l 1.63108678603356 1.1573918508555  l 1.64126673268768 1.14291010677687  l 1.65146278558833 1.1281270619114  l 1.66167262610532 1.11303372979091  l 1.67189374676523 1.09762074485103  l 1.68212343615329 1.08187834137848  l 1.69235876244798 1.06579633099648  l 1.70259655544561 1.04936407856604  l 1.71283338691537 1.03257047636857  l 1.7230655491056 1.01540391642214  l 1.73328903120019 0.997852260768644  l 1.74349949349893 0.979902809552538  l 1.75369223906661 0.96154226669323  l 1.76386218256306 0.942756702932348  l 1.77400381592858 0.923531516013858  l 1.78411117055548 0.90385138772874  l 1.79417777552712 0.883700237526586  l 1.80419661144757 0.8630611723633  l 1.81416005931852 0.841916432416796  l 1.8240598438428 0.82024733226032  l 1.83388697044338 0.79803419703545  l 1.84363165518203 0.775256293112654  l 1.853283246639 0.751891752666046  l 1.86283013867081 0.727917491519266  l 1.87225967279431 0.70330911954  l 1.88155802874517 0.678040842770252  l 1.8907101015227 0.652085356376014  l 1.89969936295257 0.625413727381814  l 1.90850770546457 0.597995266020034  l 1.91711526538332 0.569797384369426  l 1.9255002225505 0.540785440778462  l 1.93363857251991 0.51092256836352  l 1.94150386686847 0.480169485634778  l 1.94906691631861 0.448484287029398  l 1.95629545033264 0.41582221081591  l 1.96315372557253 0.3821353814693  l 1.96960207405679 0.347372523195448  l 1.97559637991335 0.311478640797816  l 1.9810874712218 0.274394663519558  l 1.98602041042686 0.236057046850794  l 1.9903336630129 0.196397326554244  l 1.99395811932355 0.15534161832451  l 1.9968159382793 0.112810055552476  l 1.99881917386731 0.068716156618416  l 1.9998681350778 0.022966112000696  l 1.99984941664841 -0.024542019700864  l 1.99863352045311 -0.073919218889284  l 1.99607196409048 -0.125286528293976  l 1.99199374199114 -0.178776206101702  l 1.9862009620157 -0.23453302216937  l 1.97846342244484 -0.292715708577192  l 1.96851181365574 -0.353498570715366  l 1.95602911539753 -0.417073254617426  l 1.94063959878996 -0.483650646239984  l 1.92189460766616 -0.553462841592574  l 1.89925394811576 -0.626765060103634  l 1.87206119560046 -0.703837253864102  l 1.83951043219188 -0.784984948809358  l 1.80060067587146 -0.870538457537188  l 1.75407225017217 -0.960848864898082  l 1.69831600597793 -1.05627777778347  l 1.63124059786566 -1.15717505671133  l 1.55007288368354 -1.26383308046157  l 1.45104776532399 -1.37639397802673  l 1.32890740226953 -1.49465886281561  l 1.17605517410818 -1.61768174479821  l 0.9810473480419 -1.74285573152225  l 0.7257277101441 -1.86368433237204  l 0.379384473182572 -1.96368720052558  l -0.113836070434378 -1.99675770915453  l -0.857619510683042 -1.80678963216413" stroke="currentcolor" stroke-width="0.25%" fill="transparent" class="foreground-stroke" transform-origin="50% 50%" xmlns="http://www.w3.org/2000/svg">
        </path>
        <path id="turtle-h3-path" d="m 0 0  m 210 210  l -1.4142135623731 1.4142135623731  l -1.40465790155731 1.42370508870082  l -1.39493244225038 1.43323531967273  l -1.38503314698832 1.4428039304575  l -1.37495584475903 1.45241055661372  l -1.36469622523139 1.46205479132596  l -1.35424983267389 1.47173618243989  l -1.34361205954279 1.48145422927986  l -1.33277813971803 1.49120837923133  l -1.32174314136378 1.50099802406858  l -1.31050195938855 1.51082249600632  l -1.2990493074777 1.52068106345207  l -1.28737970966933 1.53057292643367  l -1.27548749144198 1.5404972116739  l -1.26336677028006 1.55045296728154  l -1.25101144568021 1.56043915702507  l -1.23841518855868 1.57045465415184  l -1.2255714300165 1.58049823471186  l -1.21247334941555 1.59056857034113  l -1.19911386171464 1.60066422045468  l -1.18548560401025 1.61078362379447  l -1.17158092122172 1.62092508927133  l -1.1573918508555 1.63108678603356  l -1.14291010677687 1.64126673268768  l -1.1281270619114 1.65146278558833  l -1.11303372979091 1.66167262610532  l -1.09762074485103 1.67189374676523  l -1.08187834137848 1.68212343615329  l -1.06579633099648 1.69235876244798  l -1.04936407856604 1.70259655544561  l -1.03257047636857 1.71283338691537  l -1.01540391642214 1.7230655491056  l -0.997852260768642 1.73328903120019  l -0.979902809552538 1.74349949349893  l -0.96154226669323 1.75369223906661  l -0.942756702932348 1.76386218256306  l -0.923531516013858 1.77400381592858  l -0.90385138772874 1.78411117055548  l -0.883700237526586 1.79417777552712  l -0.8630611723633 1.80419661144757  l -0.841916432416796 1.81416005931852  l -0.82024733226032 1.8240598438428  l -0.79803419703545 1.83388697044338  l -0.775256293112654 1.84363165518203  l -0.751891752666046 1.853283246639  l -0.727917491519266 1.86283013867081  l -0.703309119540002 1.87225967279431  l -0.678040842770252 1.88155802874517  l -0.652085356376014 1.8907101015227  l -0.625413727381814 1.89969936295257  l -0.597995266020034 1.90850770546457  l -0.569797384369426 1.91711526538332  l -0.540785440778462 1.9255002225505  l -0.510922568363518 1.93363857251991  l -0.480169485634778 1.94150386686847  l -0.4484842870294 1.94906691631861  l -0.41582221081591 1.95629545033264  l -0.3821353814693 1.96315372557253  l -0.347372523195448 1.96960207405679  l -0.311478640797816 1.97559637991335  l -0.274394663519558 1.9810874712218  l -0.236057046850794 1.98602041042686  l -0.196397326554244 1.9903336630129  l -0.15534161832451 1.99395811932355  l -0.112810055552478 1.9968159382793  l -0.068716156618416 1.99881917386731  l -0.022966112000696 1.9998681350778  l 0.024542019700864 1.99984941664841  l 0.073919218889284 1.99863352045311  l 0.125286528293976 1.99607196409048  l 0.178776206101702 1.99199374199114  l 0.23453302216937 1.9862009620157  l 0.292715708577192 1.97846342244484  l 0.353498570715368 1.96851181365574  l 0.417073254617426 1.95602911539753  l 0.483650646239986 1.94063959878996  l 0.553462841592576 1.92189460766616  l 0.626765060103636 1.89925394811576  l 0.703837253864104 1.87206119560046  l 0.784984948809358 1.83951043219188  l 0.870538457537188 1.80060067587146  l 0.960848864898084 1.75407225017217  l 1.05627777778347 1.69831600597793  l 1.15717505671133 1.63124059786566  l 1.26383308046157 1.55007288368355  l 1.37639397802673 1.45104776532399  l 1.49465886281561 1.32890740226953  l 1.61768174479821 1.17605517410817  l 1.74285573152225 0.9810473480419  l 1.86368433237204 0.7257277101441  l 1.96368720052558 0.379384473182572  l 1.99675770915453 -0.113836070434376  l 1.80678963216413 -0.857619510683042" stroke="currentcolor" stroke-width="0.25%" fill="transparent" class="foreground-stroke" transform-origin="50% 50%" xmlns="http://www.w3.org/2000/svg">
        </path>
        <path id="turtle-h4-path" d="m 0 0  m 210 210  l -1.4142135623731 -1.4142135623731  l -1.42370508870082 -1.40465790155731  l -1.43323531967273 -1.39493244225038  l -1.4428039304575 -1.38503314698832  l -1.45241055661372 -1.37495584475903  l -1.46205479132596 -1.36469622523139  l -1.47173618243989 -1.35424983267389  l -1.48145422927985 -1.3436120595428  l -1.49120837923133 -1.33277813971803  l -1.50099802406858 -1.32174314136378  l -1.51082249600632 -1.31050195938855  l -1.52068106345207 -1.2990493074777  l -1.53057292643367 -1.28737970966933  l -1.5404972116739 -1.27548749144198  l -1.55045296728154 -1.26336677028006  l -1.56043915702507 -1.25101144568021  l -1.57045465415184 -1.23841518855868  l -1.58049823471186 -1.2255714300165  l -1.59056857034113 -1.21247334941555  l -1.60066422045468 -1.19911386171465  l -1.61078362379447 -1.18548560401025  l -1.62092508927133 -1.17158092122172  l -1.63108678603356 -1.1573918508555  l -1.64126673268768 -1.14291010677687  l -1.65146278558833 -1.1281270619114  l -1.66167262610532 -1.11303372979091  l -1.67189374676523 -1.09762074485103  l -1.68212343615329 -1.08187834137848  l -1.69235876244798 -1.06579633099648  l -1.70259655544561 -1.04936407856604  l -1.71283338691537 -1.03257047636857  l -1.7230655491056 -1.01540391642214  l -1.73328903120019 -0.997852260768642  l -1.74349949349894 -0.979902809552538  l -1.75369223906661 -0.961542266693228  l -1.76386218256306 -0.942756702932346  l -1.77400381592858 -0.923531516013858  l -1.78411117055548 -0.90385138772874  l -1.79417777552712 -0.883700237526586  l -1.80419661144757 -0.8630611723633  l -1.81416005931852 -0.841916432416796  l -1.8240598438428 -0.82024733226032  l -1.83388697044338 -0.798034197035452  l -1.84363165518203 -0.775256293112654  l -1.853283246639 -0.751891752666046  l -1.86283013867081 -0.727917491519266  l -1.87225967279431 -0.70330911954  l -1.88155802874517 -0.678040842770252  l -1.8907101015227 -0.652085356376014  l -1.89969936295257 -0.625413727381814  l -1.90850770546457 -0.597995266020036  l -1.91711526538332 -0.569797384369426  l -1.9255002225505 -0.540785440778462  l -1.93363857251991 -0.51092256836352  l -1.94150386686847 -0.480169485634778  l -1.94906691631861 -0.4484842870294  l -1.95629545033264 -0.41582221081591  l -1.96315372557253 -0.382135381469298  l -1.9696020740568 -0.347372523195448  l -1.97559637991335 -0.311478640797814  l -1.9810874712218 -0.274394663519554  l -1.98602041042686 -0.236057046850794  l -1.9903336630129 -0.196397326554242  l -1.99395811932355 -0.15534161832451  l -1.9968159382793 -0.112810055552474  l -1.99881917386731 -0.068716156618414  l -1.9998681350778 -0.022966112000696  l -1.99984941664841 0.024542019700866  l -1.99863352045311 0.073919218889284  l -1.99607196409048 0.125286528293976  l -1.99199374199114 0.178776206101704  l -1.9862009620157 0.23453302216937  l -1.97846342244484 0.292715708577192  l -1.96851181365574 0.353498570715368  l -1.95602911539753 0.41707325461743  l -1.94063959878996 0.483650646239988  l -1.92189460766616 0.553462841592576  l -1.89925394811576 0.626765060103636  l -1.87206119560046 0.703837253864104  l -1.83951043219188 0.78498494880936  l -1.80060067587146 0.870538457537188  l -1.75407225017217 0.960848864898084  l -1.69831600597792 1.05627777778347  l -1.63124059786566 1.15717505671133  l -1.55007288368354 1.26383308046157  l -1.45104776532399 1.37639397802673  l -1.32890740226953 1.49465886281561  l -1.17605517410817 1.61768174479822  l -0.9810473480419 1.74285573152225  l -0.725727710144102 1.86368433237204  l -0.379384473182578 1.96368720052558  l 0.113836070434364 1.99675770915453  l 0.857619510683036 1.80678963216413" stroke="currentcolor" stroke-width="0.25%" fill="transparent" class="foreground-stroke" transform-origin="50% 50%" xmlns="http://www.w3.org/2000/svg">
        </path>
      </g>
    </svg>
  </symbol>
  <use href="#turtle-symbol" width="100%" height="100%" transform-origin="50% 50%" />
</svg>