<svg xmlns="http://www.w3.org/2000/svg" width="100%" height="100%" transform-origin="50% 50%">
  <symbol id="turtle-symbol" viewBox="0 0 200 200" transform-origin="50% 50%">
    <svg xmlns="http://www.w3.org/2000/svg" viewBox="0 0 200 200" transform-origin="50% 50%" width="100%" height="100%">
      <path id="turtle-path" d="m 0 0  l 200 0  l 0 200  l -200 0  l -0 -200" stroke="#4488ff" stroke-width="0.25%" fill="transparent" class="foreground-stroke" transform-origin="50% 50%">
      </path>
      <g id="turtle-children">
        <path id="turtle-t1-path" d="m 0 0  l 1 0  l 1 0.005  l 0.9999 0.0101  l 0.9999 0.0152  l 0.9998 0.0203  l 0.9997 0.0254  l 0.9995 0.0305  l 0.9994 0.0357  l 0.9992 0.0409  l 0.9989 0.0461  l 0.9987 0.0514  l 0.9984 0.0567  l 0.9981 0.062  l 0.9977 0.0673  l 0.9974 0.0727  l 0.9969 0.0781  l 0.9965 0.0835  l 0.996 0.0889  l 0.9955 0.0944  l 0.995 0.0999  l 0.9944 0.1054  l 0.9938 0.111  l 0.9932 0.1166  l 0.9925 0.1222  l 0.9918 0.1278  l 0.9911 0.1335  l 0.9903 0.1392  l 0.9895 0.1449  l 0.9886 0.1506  l 0.9877 0.1564  l 0.9868 0.1622  l 0.9858 0.168  l 0.9848 0.1739  l 0.9837 0.1798  l 0.9826 0.1857  l 0.9815 0.1917  l 0.9803 0.1976  l 0.979 0.2036  l 0.9778 0.2097  l 0.9765 0.2157  l 0.9751 0.2218  l 0.9737 0.228  l 0.9722 0.2341  l 0.9707 0.2403  l 0.9691 0.2465  l 0.9675 0.2528  l 0.9659 0.259  l 0.9642 0.2653  l 0.9624 0.2717  l 0.9606 0.278  l 0.9587 0.2844  l 0.9568 0.2908  l 0.9548 0.2973  l 0.9527 0.3038  l 0.9506 0.3103  l 0.9485 0.3168  l 0.9463 0.3234  l 0.944 0.33  l 0.9416 0.3366  l 0.9392 0.3433  l 0.9368 0.35  l 0.9342 0.3567  l 0.9316 0.3634  l 0.9289 0.3702  l 0.9262 0.377  l 0.9234 0.3839  l 0.9205 0.3908  l 0.9175 0.3976  l 0.9145 0.4046  l 0.9114 0.4115  l 0.9082 0.4185  l 0.9049 0.4255  l 0.9016 0.4326  l 0.8982 0.4397  l 0.8947 0.4468  l 0.8911 0.4539  l 0.8874 0.461  l 0.8836 0.4682  l 0.8797 0.4754  l 0.8758 0.4827  l 0.8718 0.4899  l 0.8676 0.4972  l 0.8634 0.5046  l 0.859 0.5119  l 0.8546 0.5193  l 0.8501 0.5267  l 0.8454 0.5341  l 0.8407 0.5415  l 0.8358 0.549  l 0.8309 0.5565  l 0.8258 0.564  l 0.8206 0.5715  l 0.8153 0.5791  l 0.8098 0.5866  l 0.8043 0.5942  l 0.7986 0.6018  l 0.7928 0.6095  l 0.7869 0.6171  l 0.7808 0.6248  l 0.7746 0.6325  l 0.7683 0.6401  l 0.7618 0.6478  l 0.7551 0.6556  l 0.7484 0.6633  l 0.7415 0.671  l 0.7344 0.6787  l 0.7271 0.6865  l 0.7197 0.6942  l 0.7122 0.702  l 0.7045 0.7097  l 0.6966 0.7175  l 0.6885 0.7252  l 0.6803 0.733  l 0.6718 0.7407  l 0.6632 0.7484  l 0.6544 0.7561  l 0.6454 0.7638  l 0.6362 0.7715  l 0.6268 0.7792  l 0.6172 0.7868  l 0.6074 0.7944  l 0.5973 0.802  l 0.587 0.8096  l 0.5765 0.8171  l 0.5658 0.8245  l 0.5548 0.832  l 0.5436 0.8393  l 0.5322 0.8466  l 0.5204 0.8539  l 0.5084 0.8611  l 0.4962 0.8682  l 0.4836 0.8753  l 0.4708 0.8822  l 0.4577 0.8891  l 0.4443 0.8959  l 0.4306 0.9026  l 0.4165 0.9091  l 0.4022 0.9156  l 0.3875 0.9219  l 0.3725 0.928  l 0.3571 0.9341  l 0.3414 0.9399  l 0.3253 0.9456  l 0.3088 0.9511  l 0.292 0.9564  l 0.2748 0.9615  l 0.2571 0.9664  l 0.2391 0.971  l 0.2206 0.9754  l 0.2017 0.9795  l 0.1823 0.9832  l 0.1625 0.9867  l 0.1422 0.9898  l 0.1214 0.9926  l 0.1001 0.995  l 0.0783 0.9969  l 0.056 0.9984  l 0.0332 0.9994  l 0.0098 1  l -0.0142 0.9999  l -0.0387 0.9993  l -0.0638 0.998  l -0.0895 0.996  l -0.1158 0.9933  l -0.1428 0.9898  l -0.1703 0.9854  l -0.1985 0.9801  l -0.2274 0.9738  l -0.2569 0.9664  l -0.2871 0.9579  l -0.318 0.9481  l -0.3495 0.9369  l -0.3818 0.9243  l -0.4146 0.91  l -0.4481 0.894  l -0.4822 0.876  l -0.5169 0.856  l -0.5522 0.8337  l -0.5879 0.8089  l -0.6241 0.7814  l -0.6605 0.7508  l -0.6972 0.7169  l -0.7339 0.6793  l -0.7703 0.6376  l -0.8063 0.5915  l -0.8415 0.5402  l -0.8754 0.4834  l -0.9074 0.4203  l -0.9367 0.3501  l -0.9623 0.272  l -0.9827 0.185  l -0.9961 0.088  l -0.9998 -0.0203  l -0.99 -0.1409  l -0.9614 -0.2752  l -0.9059 -0.4234  l -0.8114 -0.5844  l -0.6585 -0.7526  l -0.4157 -0.9095  l -0.0331 -0.9995  l 0.5374 -0.8433  l 0.9986 0.0526" stroke="#4488ff" stroke-width="0.25%" fill="transparent" class="foreground-stroke" transform-origin="50% 50%" xmlns="http://www.w3.org/2000/svg">
        </path>
        <path id="turtle-t2-path" d="m 0 0  m 200 0  l 0 1  l -0.005 1  l -0.0101 0.9999  l -0.0152 0.9999  l -0.0203 0.9998  l -0.0254 0.9997  l -0.0305 0.9995  l -0.0357 0.9994  l -0.0409 0.9992  l -0.0461 0.9989  l -0.0514 0.9987  l -0.0567 0.9984  l -0.062 0.9981  l -0.0673 0.9977  l -0.0727 0.9974  l -0.0781 0.9969  l -0.0835 0.9965  l -0.0889 0.996  l -0.0944 0.9955  l -0.0999 0.995  l -0.1054 0.9944  l -0.111 0.9938  l -0.1166 0.9932  l -0.1222 0.9925  l -0.1278 0.9918  l -0.1335 0.9911  l -0.1392 0.9903  l -0.1449 0.9895  l -0.1506 0.9886  l -0.1564 0.9877  l -0.1622 0.9868  l -0.168 0.9858  l -0.1739 0.9848  l -0.1798 0.9837  l -0.1857 0.9826  l -0.1917 0.9815  l -0.1976 0.9803  l -0.2036 0.979  l -0.2097 0.9778  l -0.2157 0.9765  l -0.2218 0.9751  l -0.228 0.9737  l -0.2341 0.9722  l -0.2403 0.9707  l -0.2465 0.9691  l -0.2528 0.9675  l -0.259 0.9659  l -0.2653 0.9642  l -0.2717 0.9624  l -0.278 0.9606  l -0.2844 0.9587  l -0.2908 0.9568  l -0.2973 0.9548  l -0.3038 0.9527  l -0.3103 0.9506  l -0.3168 0.9485  l -0.3234 0.9463  l -0.33 0.944  l -0.3366 0.9416  l -0.3433 0.9392  l -0.35 0.9368  l -0.3567 0.9342  l -0.3634 0.9316  l -0.3702 0.9289  l -0.377 0.9262  l -0.3839 0.9234  l -0.3908 0.9205  l -0.3977 0.9175  l -0.4046 0.9145  l -0.4115 0.9114  l -0.4185 0.9082  l -0.4255 0.9049  l -0.4326 0.9016  l -0.4397 0.8982  l -0.4468 0.8947  l -0.4539 0.8911  l -0.4611 0.8874  l -0.4682 0.8836  l -0.4755 0.8797  l -0.4827 0.8758  l -0.49 0.8717  l -0.4973 0.8676  l -0.5046 0.8634  l -0.5119 0.859  l -0.5193 0.8546  l -0.5267 0.8501  l -0.5341 0.8454  l -0.5415 0.8407  l -0.549 0.8358  l -0.5565 0.8308  l -0.564 0.8258  l -0.5715 0.8206  l -0.5791 0.8153  l -0.5867 0.8098  l -0.5943 0.8043  l -0.6019 0.7986  l -0.6095 0.7928  l -0.6172 0.7868  l -0.6248 0.7808  l -0.6325 0.7746  l -0.6402 0.7682  l -0.6479 0.7617  l -0.6556 0.7551  l -0.6633 0.7483  l -0.6711 0.7414  l -0.6788 0.7343  l -0.6865 0.7271  l -0.6943 0.7197  l -0.702 0.7121  l -0.7098 0.7044  l -0.7176 0.6965  l -0.7253 0.6884  l -0.7331 0.6802  l -0.7408 0.6717  l -0.7485 0.6631  l -0.7562 0.6543  l -0.7639 0.6453  l -0.7716 0.6361  l -0.7793 0.6267  l -0.7869 0.617  l -0.7945 0.6072  l -0.8021 0.5971  l -0.8097 0.5869  l -0.8172 0.5764  l -0.8247 0.5656  l -0.8321 0.5546  l -0.8395 0.5434  l -0.8468 0.5319  l -0.8541 0.5202  l -0.8613 0.5082  l -0.8684 0.4959  l -0.8754 0.4833  l -0.8824 0.4705  l -0.8893 0.4573  l -0.8961 0.4439  l -0.9028 0.4301  l -0.9093 0.4161  l -0.9158 0.4017  l -0.9221 0.387  l -0.9283 0.3719  l -0.9343 0.3565  l -0.9401 0.3408  l -0.9458 0.3246  l -0.9513 0.3081  l -0.9567 0.2912  l -0.9617 0.2739  l -0.9666 0.2562  l -0.9712 0.2381  l -0.9756 0.2196  l -0.9797 0.2006  l -0.9835 0.1812  l -0.9869 0.1613  l -0.99 0.1409  l -0.9928 0.12  l -0.9951 0.0986  l -0.9971 0.0768  l -0.9985 0.0543  l -0.9995 0.0314  l -1 0.0079  l -0.9999 -0.0162  l -0.9992 -0.0409  l -0.9978 -0.0661  l -0.9958 -0.092  l -0.993 -0.1184  l -0.9893 -0.1456  l -0.9849 -0.1733  l -0.9794 -0.2017  l -0.973 -0.2308  l -0.9655 -0.2606  l -0.9567 -0.291  l -0.9467 -0.3221  l -0.9353 -0.3539  l -0.9223 -0.3864  l -0.9077 -0.4195  l -0.8913 -0.4533  l -0.873 -0.4878  l -0.8525 -0.5228  l -0.8296 -0.5584  l -0.8041 -0.5944  l -0.7758 -0.6309  l -0.7444 -0.6677  l -0.7095 -0.7047  l -0.6708 -0.7416  l -0.6279 -0.7783  l -0.5802 -0.8145  l -0.5273 -0.8497  l -0.4685 -0.8835  l -0.4031 -0.9152  l -0.3303 -0.9439  l -0.2492 -0.9685  l -0.1587 -0.9873  l -0.0578 -0.9983  l 0.0548 -0.9985  l 0.1803 -0.9836  l 0.3195 -0.9476  l 0.4723 -0.8814  l 0.6364 -0.7713  l 0.8031 -0.5959  l 0.947 -0.3212  l 0.9947 0.1024  l 0.7194 0.6945  l -0.3979 0.9174" stroke="#4488ff" stroke-width="0.25%" fill="transparent" class="foreground-stroke" transform-origin="50% 50%" xmlns="http://www.w3.org/2000/svg">
        </path>
        <path id="turtle-t3-path" d="m 0 0  m 200 200  l -1 0  l -1 -0.005  l -0.9999 -0.0101  l -0.9999 -0.0152  l -0.9998 -0.0203  l -0.9997 -0.0254  l -0.9995 -0.0305  l -0.9994 -0.0357  l -0.9992 -0.0409  l -0.9989 -0.0461  l -0.9987 -0.0514  l -0.9984 -0.0567  l -0.9981 -0.062  l -0.9977 -0.0673  l -0.9974 -0.0727  l -0.9969 -0.0781  l -0.9965 -0.0835  l -0.996 -0.089  l -0.9955 -0.0944  l -0.995 -0.0999  l -0.9944 -0.1055  l -0.9938 -0.111  l -0.9932 -0.1166  l -0.9925 -0.1222  l -0.9918 -0.1278  l -0.991 -0.1335  l -0.9903 -0.1392  l -0.9894 -0.1449  l -0.9886 -0.1507  l -0.9877 -0.1565  l -0.9867 -0.1623  l -0.9858 -0.1681  l -0.9847 -0.174  l -0.9837 -0.1799  l -0.9826 -0.1858  l -0.9814 -0.1918  l -0.9803 -0.1977  l -0.979 -0.2038  l -0.9777 -0.2098  l -0.9764 -0.2159  l -0.9751 -0.222  l -0.9736 -0.2281  l -0.9722 -0.2343  l -0.9707 -0.2404  l -0.9691 -0.2467  l -0.9675 -0.2529  l -0.9658 -0.2592  l -0.9641 -0.2655  l -0.9623 -0.2719  l -0.9605 -0.2782  l -0.9586 -0.2846  l -0.9567 -0.2911  l -0.9547 -0.2975  l -0.9527 -0.304  l -0.9506 -0.3105  l -0.9484 -0.3171  l -0.9462 -0.3237  l -0.9439 -0.3303  l -0.9415 -0.3369  l -0.9391 -0.3436  l -0.9366 -0.3503  l -0.9341 -0.357  l -0.9315 -0.3638  l -0.9288 -0.3706  l -0.926 -0.3774  l -0.9232 -0.3843  l -0.9203 -0.3912  l -0.9173 -0.3981  l -0.9143 -0.405  l -0.9112 -0.412  l -0.908 -0.419  l -0.9047 -0.426  l -0.9013 -0.4331  l -0.8979 -0.4402  l -0.8944 -0.4473  l -0.8908 -0.4545  l -0.8871 -0.4616  l -0.8833 -0.4688  l -0.8794 -0.4761  l -0.8754 -0.4833  l -0.8714 -0.4906  l -0.8672 -0.4979  l -0.863 -0.5053  l -0.8586 -0.5126  l -0.8541 -0.52  l -0.8496 -0.5274  l -0.8449 -0.5349  l -0.8402 -0.5423  l -0.8353 -0.5498  l -0.8303 -0.5573  l -0.8252 -0.5649  l -0.8199 -0.5724  l -0.8146 -0.58  l -0.8091 -0.5876  l -0.8036 -0.5952  l -0.7978 -0.6029  l -0.792 -0.6105  l -0.786 -0.6182  l -0.7799 -0.6259  l -0.7737 -0.6336  l -0.7673 -0.6413  l -0.7608 -0.649  l -0.7541 -0.6567  l -0.7473 -0.6645  l -0.7403 -0.6723  l -0.7332 -0.68  l -0.7259 -0.6878  l -0.7185 -0.6956  l -0.7109 -0.7033  l -0.7031 -0.7111  l -0.6951 -0.7189  l -0.687 -0.7267  l -0.6787 -0.7344  l -0.6702 -0.7422  l -0.6615 -0.75  l -0.6526 -0.7577  l -0.6435 -0.7654  l -0.6343 -0.7731  l -0.6248 -0.7808  l -0.6151 -0.7885  l -0.6052 -0.7961  l -0.595 -0.8037  l -0.5847 -0.8113  l -0.5741 -0.8188  l -0.5632 -0.8263  l -0.5522 -0.8337  l -0.5408 -0.8411  l -0.5293 -0.8485  l -0.5174 -0.8557  l -0.5053 -0.8629  l -0.4929 -0.8701  l -0.4802 -0.8771  l -0.4673 -0.8841  l -0.454 -0.891  l -0.4405 -0.8978  l -0.4266 -0.9044  l -0.4124 -0.911  l -0.3979 -0.9174  l -0.3831 -0.9237  l -0.3679 -0.9299  l -0.3523 -0.9359  l -0.3364 -0.9417  l -0.3201 -0.9474  l -0.3035 -0.9528  l -0.2864 -0.9581  l -0.269 -0.9632  l -0.2511 -0.968  l -0.2328 -0.9725  l -0.2141 -0.9768  l -0.1949 -0.9808  l -0.1753 -0.9845  l -0.1552 -0.9879  l -0.1346 -0.9909  l -0.1136 -0.9935  l -0.092 -0.9958  l -0.0699 -0.9976  l -0.0473 -0.9989  l -0.0241 -0.9997  l -0.0004 -1  l 0.0239 -0.9997  l 0.0488 -0.9988  l 0.0743 -0.9972  l 0.1004 -0.995  l 0.1271 -0.9919  l 0.1544 -0.988  l 0.1824 -0.9832  l 0.211 -0.9775  l 0.2403 -0.9707  l 0.2703 -0.9628  l 0.3009 -0.9536  l 0.3323 -0.9432  l 0.3642 -0.9313  l 0.3969 -0.9179  l 0.4302 -0.9027  l 0.4642 -0.8858  l 0.4987 -0.8668  l 0.5338 -0.8456  l 0.5695 -0.822  l 0.6056 -0.7958  l 0.642 -0.7667  l 0.6787 -0.7344  l 0.7156 -0.6985  l 0.7523 -0.6588  l 0.7887 -0.6148  l 0.8244 -0.566  l 0.8591 -0.5118  l 0.8922 -0.4517  l 0.9229 -0.3849  l 0.9505 -0.3106  l 0.9737 -0.2279  l 0.9907 -0.1358  l 0.9995 -0.033  l 0.9967 0.0815  l 0.9779 0.2091  l 0.9366 0.3504  l 0.8629 0.5053  l 0.7416 0.6708  l 0.5482 0.8363  l 0.243 0.97  l -0.2306 0.9731  l -0.8485 0.5292" stroke="#4488ff" stroke-width="0.25%" fill="transparent" class="foreground-stroke" transform-origin="50% 50%" xmlns="http://www.w3.org/2000/svg">
        </path>
        <path id="turtle-t4-path" d="m 0 0  m 0 200  l 0.005 -1  l 0.01 -0.9999  l 0.0151 -0.9999  l 0.0201 -0.9998  l 0.0253 -0.9997  l 0.0304 -0.9995  l 0.0355 -0.9994  l 0.0407 -0.9992  l 0.0459 -0.9989  l 0.0511 -0.9987  l 0.0564 -0.9984  l 0.0617 -0.9981  l 0.067 -0.9978  l 0.0723 -0.9974  l 0.0777 -0.997  l 0.0831 -0.9965  l 0.0885 -0.9961  l 0.0939 -0.9956  l 0.0994 -0.995  l 0.1049 -0.9945  l 0.1104 -0.9939  l 0.1159 -0.9933  l 0.1215 -0.9926  l 0.1271 -0.9919  l 0.1328 -0.9911  l 0.1384 -0.9904  l 0.1441 -0.9896  l 0.1498 -0.9887  l 0.1556 -0.9878  l 0.1613 -0.9869  l 0.1671 -0.9859  l 0.173 -0.9849  l 0.1788 -0.9839  l 0.1847 -0.9828  l 0.1906 -0.9817  l 0.1966 -0.9805  l 0.2025 -0.9793  l 0.2085 -0.978  l 0.2146 -0.9767  l 0.2206 -0.9754  l 0.2267 -0.974  l 0.2328 -0.9725  l 0.239 -0.971  l 0.2452 -0.9695  l 0.2514 -0.9679  l 0.2576 -0.9663  l 0.2639 -0.9646  l 0.2702 -0.9628  l 0.2765 -0.961  l 0.2828 -0.9592  l 0.2892 -0.9573  l 0.2956 -0.9553  l 0.3021 -0.9533  l 0.3085 -0.9512  l 0.3151 -0.9491  l 0.3216 -0.9469  l 0.3281 -0.9446  l 0.3347 -0.9423  l 0.3414 -0.9399  l 0.348 -0.9375  l 0.3547 -0.935  l 0.3614 -0.9324  l 0.3681 -0.9298  l 0.3749 -0.9271  l 0.3817 -0.9243  l 0.3885 -0.9214  l 0.3954 -0.9185  l 0.4023 -0.9155  l 0.4092 -0.9124  l 0.4162 -0.9093  l 0.4231 -0.9061  l 0.4301 -0.9028  l 0.4372 -0.8994  l 0.4442 -0.8959  l 0.4513 -0.8924  l 0.4584 -0.8887  l 0.4656 -0.885  l 0.4727 -0.8812  l 0.4799 -0.8773  l 0.4872 -0.8733  l 0.4944 -0.8692  l 0.5017 -0.865  l 0.509 -0.8608  l 0.5163 -0.8564  l 0.5237 -0.8519  l 0.5311 -0.8473  l 0.5385 -0.8426  l 0.5459 -0.8379  l 0.5533 -0.833  l 0.5608 -0.8279  l 0.5683 -0.8228  l 0.5758 -0.8176  l 0.5834 -0.8122  l 0.5909 -0.8067  l 0.5985 -0.8011  l 0.6061 -0.7954  l 0.6137 -0.7896  l 0.6213 -0.7836  l 0.6289 -0.7774  l 0.6366 -0.7712  l 0.6443 -0.7648  l 0.6519 -0.7583  l 0.6596 -0.7516  l 0.6673 -0.7448  l 0.675 -0.7378  l 0.6828 -0.7306  l 0.6905 -0.7233  l 0.6982 -0.7159  l 0.7059 -0.7083  l 0.7137 -0.7005  l 0.7214 -0.6925  l 0.7291 -0.6844  l 0.7368 -0.6761  l 0.7445 -0.6676  l 0.7522 -0.6589  l 0.7599 -0.65  l 0.7676 -0.6409  l 0.7752 -0.6317  l 0.7829 -0.6222  l 0.7905 -0.6125  l 0.7981 -0.6026  l 0.8056 -0.5925  l 0.8131 -0.5821  l 0.8206 -0.5715  l 0.828 -0.5607  l 0.8354 -0.5496  l 0.8427 -0.5383  l 0.85 -0.5267  l 0.8572 -0.5149  l 0.8644 -0.5028  l 0.8715 -0.4905  l 0.8785 -0.4778  l 0.8854 -0.4649  l 0.8922 -0.4516  l 0.8989 -0.4381  l 0.9055 -0.4242  l 0.9121 -0.4101  l 0.9184 -0.3956  l 0.9247 -0.3808  l 0.9308 -0.3656  l 0.9367 -0.3501  l 0.9425 -0.3342  l 0.9481 -0.3179  l 0.9535 -0.3013  l 0.9588 -0.2842  l 0.9637 -0.2668  l 0.9685 -0.249  l 0.973 -0.2307  l 0.9773 -0.212  l 0.9812 -0.1929  l 0.9849 -0.1733  l 0.9882 -0.1532  l 0.9912 -0.1326  l 0.9938 -0.1116  l 0.9959 -0.09  l 0.9977 -0.0679  l 0.999 -0.0453  l 0.9998 -0.0221  l 1 0.0016  l 0.9997 0.0259  l 0.9987 0.0508  l 0.9971 0.0763  l 0.9947 0.1024  l 0.9916 0.1292  l 0.9877 0.1565  l 0.9828 0.1846  l 0.977 0.2133  l 0.9701 0.2427  l 0.9621 0.2727  l 0.9528 0.3035  l 0.9422 0.3349  l 0.9302 0.367  l 0.9166 0.3999  l 0.9012 0.4333  l 0.884 0.4675  l 0.8647 0.5023  l 0.8432 0.5376  l 0.8192 0.5735  l 0.7925 0.6099  l 0.7628 0.6466  l 0.7298 0.6836  l 0.6932 0.7207  l 0.6526 0.7577  l 0.6074 0.7944  l 0.5573 0.8303  l 0.5016 0.8651  l 0.4396 0.8982  l 0.3706 0.9288  l 0.2938 0.9559  l 0.2081 0.9781  l 0.1124 0.9937  l 0.0055 1  l -0.1137 0.9935  l -0.2464 0.9692  l -0.3931 0.9195  l -0.5527 0.8334  l -0.7204 0.6936  l -0.8811 0.4729  l -0.9916 0.1295  l -0.9228 -0.3854  l -0.2901 -0.957" stroke="#4488ff" stroke-width="0.25%" fill="transparent" class="foreground-stroke" transform-origin="50% 50%" xmlns="http://www.w3.org/2000/svg">
        </path>
      </g>
    </svg>
  </symbol>
  <use href="#turtle-symbol" width="100%" height="100%" transform-origin="50% 50%" />
</svg>