<svg xmlns="http://www.w3.org/2000/svg" width="100%" height="100%" transform-origin="50% 50%">
  <symbol id="turtle-symbol" viewBox="0 0 200 200" transform-origin="50% 50%">
    <svg xmlns="http://www.w3.org/2000/svg" viewBox="0 0 200 200" transform-origin="50% 50%" width="100%" height="100%">
      <style>
      </style>
      <path id="turtle-path" d="m 0 0   l 200 0 l 0 200 l -200 0 l -0 -200" stroke="#4488ff" stroke-width="0.25%" fill="transparent" class="foreground-stroke" transform-origin="50% 50%">
      </path>
      <g id="turtle-children">
        <style xmlns="http://www.w3.org/2000/svg">
        </style>
        <path id="turtle-t1-path" d="m 0 0   l 1 0 l 0.999987 0.005025 l 0.999949 0.010075 l 0.999885 0.015151 l 0.999795 0.020252 l 0.999678 0.025378 l 0.999534 0.030531 l 0.999362 0.035709 l 0.999163 0.040913 l 0.998935 0.046143 l 0.998678 0.051399 l 0.998392 0.056681 l 0.998077 0.06199 l 0.997731 0.067326 l 0.997355 0.072688 l 0.996947 0.078077 l 0.996508 0.083493 l 0.996037 0.088935 l 0.995534 0.094405 l 0.994997 0.099903 l 0.994427 0.105427 l 0.993823 0.110979 l 0.993184 0.116559 l 0.99251 0.122166 l 0.9918 0.127802 l 0.991054 0.133465 l 0.99027 0.139156 l 0.98945 0.144875 l 0.988591 0.150623 l 0.987694 0.156399 l 0.986757 0.162204 l 0.985781 0.168037 l 0.984764 0.173898 l 0.983705 0.179789 l 0.982605 0.185708 l 0.981462 0.191656 l 0.980276 0.197634 l 0.979046 0.20364 l 0.977771 0.209676 l 0.976451 0.215741 l 0.975084 0.221835 l 0.973671 0.227959 l 0.97221 0.234112 l 0.9707 0.240295 l 0.969141 0.246508 l 0.967532 0.25275 l 0.965871 0.259022 l 0.964159 0.265324 l 0.962395 0.271656 l 0.960576 0.278017 l 0.958703 0.284409 l 0.956775 0.29083 l 0.95479 0.297282 l 0.952748 0.303763 l 0.950647 0.310275 l 0.948487 0.316816 l 0.946267 0.323388 l 0.943985 0.329989 l 0.94164 0.336621 l 0.939232 0.343283 l 0.936759 0.349974 l 0.934221 0.356695 l 0.931615 0.363447 l 0.928941 0.370228 l 0.926198 0.377039 l 0.923383 0.383879 l 0.920497 0.390749 l 0.917538 0.397648 l 0.914504 0.404577 l 0.911394 0.411535 l 0.908207 0.418522 l 0.904941 0.425538 l 0.901594 0.432582 l 0.898166 0.439656 l 0.894655 0.446757 l 0.89106 0.453887 l 0.887377 0.461044 l 0.883607 0.468229 l 0.879747 0.475441 l 0.875796 0.482681 l 0.871752 0.489947 l 0.867613 0.497239 l 0.863378 0.504558 l 0.859044 0.511902 l 0.85461 0.519271 l 0.850073 0.526665 l 0.845432 0.534083 l 0.840684 0.541525 l 0.835829 0.54899 l 0.830862 0.556478 l 0.825783 0.563988 l 0.820588 0.57152 l 0.815277 0.579072 l 0.809845 0.586644 l 0.804291 0.594235 l 0.798613 0.601845 l 0.792808 0.609472 l 0.786872 0.617116 l 0.780804 0.624775 l 0.774601 0.63245 l 0.76826 0.640138 l 0.761778 0.647838 l 0.755152 0.65555 l 0.748379 0.663271 l 0.741456 0.671001 l 0.73438 0.678739 l 0.727147 0.686482 l 0.719754 0.69423 l 0.712197 0.701979 l 0.704474 0.70973 l 0.696579 0.71748 l 0.688511 0.725226 l 0.680264 0.732968 l 0.671834 0.740702 l 0.663218 0.748426 l 0.654412 0.756138 l 0.64541 0.763836 l 0.636209 0.771516 l 0.626805 0.779177 l 0.617191 0.786813 l 0.607364 0.794424 l 0.597318 0.802004 l 0.587049 0.809551 l 0.576551 0.817061 l 0.565818 0.82453 l 0.554846 0.831953 l 0.543628 0.839327 l 0.532158 0.846645 l 0.52043 0.853904 l 0.508439 0.861098 l 0.496177 0.868221 l 0.483638 0.875268 l 0.470816 0.882232 l 0.457702 0.889106 l 0.44429 0.895883 l 0.430572 0.902556 l 0.416541 0.909117 l 0.402188 0.915557 l 0.387506 0.921867 l 0.372485 0.928038 l 0.357119 0.934059 l 0.341396 0.939919 l 0.325309 0.945608 l 0.308848 0.951111 l 0.292003 0.956417 l 0.274764 0.961512 l 0.257121 0.966379 l 0.239063 0.971004 l 0.22058 0.975369 l 0.20166 0.979456 l 0.182293 0.983244 l 0.162466 0.986714 l 0.142167 0.989843 l 0.121386 0.992605 l 0.100108 0.994977 l 0.078322 0.996928 l 0.056015 0.99843 l 0.033174 0.99945 l 0.009786 0.999952 l -0.014162 0.9999 l -0.038683 0.999252 l -0.06379 0.997963 l -0.089495 0.995987 l -0.115811 0.993271 l -0.14275 0.989759 l -0.170322 0.985388 l -0.198539 0.980093 l -0.227409 0.973799 l -0.256939 0.966428 l -0.287136 0.95789 l -0.318002 0.94809 l -0.349538 0.936922 l -0.381739 0.92427 l -0.414597 0.910005 l -0.448098 0.893985 l -0.482218 0.876051 l -0.516927 0.856029 l -0.552182 0.833724 l -0.587924 0.808916 l -0.624078 0.781362 l -0.660544 0.750787 l -0.697194 0.716883 l -0.733862 0.679298 l -0.770335 0.637639 l -0.806338 0.591455 l -0.841514 0.540236 l -0.875402 0.483396 l -0.9074 0.420269 l -0.936716 0.35009 l -0.9623 0.271991 l -0.982742 0.184982 l -0.996124 0.08796 l -0.999794 -0.020279 l -0.990014 -0.140968 l -0.961389 -0.275193 l -0.905922 -0.423444 l -0.81138 -0.584519 l -0.658404 -0.752664 l -0.415516 -0.909586 l -0.032897 -0.999459 l 0.537717 -0.843126 l 0.998589 0.053102" stroke="#4488ff" stroke-width="0.25%" fill="transparent" class="foreground-stroke" transform-origin="50% 50%" xmlns="http://www.w3.org/2000/svg">
        </path>
        <style xmlns="http://www.w3.org/2000/svg">
        </style>
        <path id="turtle-t2-path" d="m 0 0   m 200 0 l 0 1 l -0.005025 0.999987 l -0.010075 0.999949 l -0.015151 0.999885 l -0.020252 0.999795 l -0.025378 0.999678 l -0.030531 0.999534 l -0.035709 0.999362 l -0.040913 0.999163 l -0.046143 0.998935 l -0.051399 0.998678 l -0.056681 0.998392 l -0.06199 0.998077 l -0.067326 0.997731 l -0.072688 0.997355 l -0.078077 0.996947 l -0.083493 0.996508 l -0.088935 0.996037 l -0.094405 0.995534 l -0.099903 0.994997 l -0.105427 0.994427 l -0.110979 0.993823 l -0.116559 0.993184 l -0.122166 0.99251 l -0.127802 0.9918 l -0.133465 0.991054 l -0.139156 0.99027 l -0.144876 0.98945 l -0.150623 0.988591 l -0.156399 0.987694 l -0.162204 0.986757 l -0.168037 0.985781 l -0.173899 0.984764 l -0.179789 0.983705 l -0.185708 0.982605 l -0.191657 0.981462 l -0.197634 0.980276 l -0.203641 0.979046 l -0.209676 0.977771 l -0.215741 0.976451 l -0.221836 0.975084 l -0.22796 0.973671 l -0.234113 0.972209 l -0.240296 0.9707 l -0.246509 0.969141 l -0.252751 0.967531 l -0.259023 0.965871 l -0.265325 0.964159 l -0.271657 0.962394 l -0.278019 0.960576 l -0.28441 0.958703 l -0.290832 0.956774 l -0.297284 0.954789 l -0.303765 0.952747 l -0.310277 0.950646 l -0.316819 0.948486 l -0.32339 0.946266 l -0.329992 0.943984 l -0.336624 0.941639 l -0.343286 0.939231 l -0.349978 0.936758 l -0.356699 0.934219 l -0.363451 0.931613 l -0.370232 0.928939 l -0.377044 0.926196 l -0.383884 0.923381 l -0.390755 0.920495 l -0.397655 0.917535 l -0.404584 0.914501 l -0.411542 0.911391 l -0.41853 0.908203 l -0.425546 0.904937 l -0.432591 0.90159 l -0.439665 0.898162 l -0.446767 0.89465 l -0.453897 0.891054 l -0.461056 0.887371 l -0.468241 0.883601 l -0.475455 0.87974 l -0.482695 0.875789 l -0.489962 0.871744 l -0.497255 0.867604 l -0.504575 0.863368 l -0.51192 0.859033 l -0.51929 0.854598 l -0.526685 0.85006 l -0.534105 0.845418 l -0.541548 0.84067 l -0.549015 0.835813 l -0.556504 0.830845 l -0.564016 0.825764 l -0.571549 0.820568 l -0.579102 0.815255 l -0.586676 0.809822 l -0.594269 0.804266 l -0.601881 0.798586 l -0.60951 0.792778 l -0.617156 0.786841 l -0.624818 0.78077 l -0.632495 0.774565 l -0.640185 0.768221 l -0.647888 0.761736 l -0.655602 0.755107 l -0.663326 0.74833 l -0.67106 0.741403 l -0.6788 0.734323 l -0.686546 0.727086 l -0.694297 0.719689 l -0.70205 0.712127 l -0.709804 0.704399 l -0.717558 0.696499 l -0.725308 0.688425 l -0.733053 0.680171 l -0.740791 0.671735 l -0.74852 0.663113 l -0.756236 0.654299 l -0.763938 0.645289 l -0.771623 0.63608 l -0.779288 0.626666 l -0.78693 0.617042 l -0.794545 0.607205 l -0.802131 0.597148 l -0.809683 0.586867 l -0.817198 0.576357 l -0.824672 0.565611 l -0.832101 0.554624 l -0.83948 0.543391 l -0.846804 0.531905 l -0.854069 0.52016 l -0.861269 0.50815 l -0.868398 0.495869 l -0.87545 0.483309 l -0.88242 0.470463 l -0.889299 0.457326 l -0.896082 0.443888 l -0.902761 0.430143 l -0.909327 0.416083 l -0.915772 0.401699 l -0.922086 0.386984 l -0.928261 0.371929 l -0.934286 0.356525 l -0.940149 0.340762 l -0.94584 0.324633 l -0.951346 0.308126 l -0.956652 0.291233 l -0.961746 0.273942 l -0.966612 0.256244 l -0.971234 0.238127 l -0.975594 0.219581 l -0.979674 0.200595 l -0.983454 0.181156 l -0.986913 0.161253 l -0.990028 0.140873 l -0.992773 0.120005 l -0.995124 0.098635 l -0.99705 0.07675 l -0.998523 0.054338 l -0.999507 0.031385 l -0.999969 0.007878 l -0.999869 -0.016198 l -0.999165 -0.040854 l -0.997813 -0.066106 l -0.995762 -0.091965 l -0.992961 -0.118445 l -0.98935 -0.145558 l -0.984866 -0.173316 l -0.979441 -0.201729 l -0.972999 -0.230808 l -0.965458 -0.26056 l -0.956726 -0.290991 l -0.946704 -0.322105 l -0.935283 -0.353902 l -0.922341 -0.386378 l -0.907745 -0.419523 l -0.891346 -0.453324 l -0.87298 -0.487756 l -0.852464 -0.522787 l -0.829592 -0.55837 l -0.804137 -0.594445 l -0.77584 -0.63093 l -0.744414 -0.667719 l -0.709531 -0.704674 l -0.670823 -0.741617 l -0.627872 -0.778317 l -0.580201 -0.814473 l -0.527269 -0.849698 l -0.468456 -0.883487 l -0.403054 -0.915176 l -0.330258 -0.943891 l -0.24915 -0.968465 l -0.158701 -0.987327 l -0.057772 -0.99833 l 0.054842 -0.998495 l 0.180309 -0.98361 l 0.319497 -0.947587 l 0.472359 -0.881406 l 0.636438 -0.771328 l 0.803086 -0.595863 l 0.947062 -0.321051 l 0.99473 0.102527 l 0.719213 0.69479 l -0.398604 0.917123" stroke="#4488ff" stroke-width="0.25%" fill="transparent" class="foreground-stroke" transform-origin="50% 50%" xmlns="http://www.w3.org/2000/svg">
        </path>
        <style xmlns="http://www.w3.org/2000/svg">
        </style>
        <path id="turtle-t3-path" d="m 0 0   m 200 200 l -1 0 l -0.999987 -0.005025 l -0.999949 -0.010076 l -0.999885 -0.015151 l -0.999795 -0.020253 l -0.999678 -0.02538 l -0.999534 -0.030533 l -0.999362 -0.035712 l -0.999163 -0.040917 l -0.998935 -0.046148 l -0.998678 -0.051406 l -0.998392 -0.05669 l -0.998076 -0.062 l -0.99773 -0.067337 l -0.997354 -0.072701 l -0.996946 -0.078092 l -0.996507 -0.083511 l -0.996036 -0.088956 l -0.995532 -0.094428 l -0.994995 -0.099928 l -0.994424 -0.105456 l -0.993819 -0.111011 l -0.99318 -0.116594 l -0.992505 -0.122205 l -0.991794 -0.127844 l -0.991047 -0.133511 l -0.990263 -0.139207 l -0.989442 -0.14493 l -0.988582 -0.150683 l -0.987684 -0.156463 l -0.986746 -0.162273 l -0.985768 -0.168111 l -0.98475 -0.173978 l -0.98369 -0.179874 l -0.982588 -0.185799 l -0.981443 -0.191754 l -0.980255 -0.197738 l -0.979023 -0.203751 l -0.977746 -0.209793 l -0.976423 -0.215865 l -0.975054 -0.221967 l -0.973638 -0.228098 l -0.972174 -0.234259 l -0.970661 -0.24045 l -0.969099 -0.246671 l -0.967487 -0.252922 l -0.965823 -0.259203 l -0.964107 -0.265514 l -0.962338 -0.271855 l -0.960516 -0.278226 l -0.958638 -0.284628 l -0.956705 -0.29106 l -0.954715 -0.297522 l -0.952667 -0.304014 l -0.950561 -0.310537 l -0.948395 -0.31709 l -0.946169 -0.323673 l -0.94388 -0.330287 l -0.941529 -0.336931 l -0.939114 -0.343606 l -0.936634 -0.35031 l -0.934087 -0.357045 l -0.931473 -0.36381 l -0.92879 -0.370605 l -0.926038 -0.377431 l -0.923214 -0.384286 l -0.920318 -0.391171 l -0.917348 -0.398086 l -0.914303 -0.40503 l -0.911182 -0.412004 l -0.907983 -0.419008 l -0.904704 -0.426041 l -0.901345 -0.433103 l -0.897903 -0.440193 l -0.894378 -0.447313 l -0.890767 -0.454461 l -0.887069 -0.461637 l -0.883283 -0.468841 l -0.879406 -0.476073 l -0.875437 -0.483332 l -0.871375 -0.490618 l -0.867217 -0.497931 l -0.862961 -0.50527 l -0.858606 -0.512636 l -0.85415 -0.520027 l -0.849591 -0.527443 l -0.844926 -0.534883 l -0.840154 -0.542348 l -0.835273 -0.549836 l -0.830279 -0.557347 l -0.825172 -0.564881 l -0.819949 -0.572436 l -0.814607 -0.580013 l -0.809145 -0.587609 l -0.803559 -0.595226 l -0.797847 -0.602861 l -0.792006 -0.610513 l -0.786034 -0.618183 l -0.779928 -0.625869 l -0.773686 -0.633569 l -0.767304 -0.641284 l -0.760779 -0.649011 l -0.754109 -0.656749 l -0.74729 -0.664498 l -0.74032 -0.672255 l -0.733194 -0.68002 l -0.725909 -0.68779 l -0.718463 -0.695565 l -0.710851 -0.703343 l -0.70307 -0.711121 l -0.695116 -0.718898 l -0.686985 -0.726672 l -0.678674 -0.73444 l -0.670177 -0.742201 l -0.661492 -0.749952 l -0.652614 -0.757691 l -0.643537 -0.765415 l -0.634259 -0.773121 l -0.624774 -0.780806 l -0.615076 -0.788468 l -0.605163 -0.796102 l -0.595027 -0.803706 l -0.584665 -0.811275 l -0.57407 -0.818807 l -0.563237 -0.826296 l -0.55216 -0.833738 l -0.540834 -0.84113 l -0.529252 -0.848465 l -0.517408 -0.855739 l -0.505296 -0.862946 l -0.492909 -0.870081 l -0.480241 -0.877137 l -0.467283 -0.884108 l -0.45403 -0.890987 l -0.440473 -0.897766 l -0.426605 -0.904438 l -0.412418 -0.910995 l -0.397904 -0.917427 l -0.383054 -0.923726 l -0.36786 -0.929881 l -0.352313 -0.935882 l -0.336404 -0.941718 l -0.320124 -0.947376 l -0.303462 -0.952844 l -0.286409 -0.958108 l -0.268954 -0.963153 l -0.251088 -0.967964 l -0.232799 -0.972525 l -0.214076 -0.976817 l -0.194908 -0.980822 l -0.175283 -0.984518 l -0.15519 -0.987885 l -0.134616 -0.990898 l -0.113549 -0.993532 l -0.091976 -0.995761 l -0.069885 -0.997555 l -0.047262 -0.998883 l -0.024095 -0.99971 l -0.000371 -1 l 0.023925 -0.999714 l 0.048804 -0.998808 l 0.07428 -0.997237 l 0.100365 -0.994951 l 0.127072 -0.991894 l 0.154412 -0.988007 l 0.182396 -0.983225 l 0.211034 -0.977479 l 0.240334 -0.97069 l 0.270302 -0.962776 l 0.300944 -0.953642 l 0.33226 -0.943188 l 0.364249 -0.931302 l 0.396904 -0.91786 l 0.430214 -0.902727 l 0.464159 -0.885752 l 0.498714 -0.866767 l 0.533839 -0.845586 l 0.569484 -0.822002 l 0.605582 -0.795783 l 0.642044 -0.766668 l 0.678755 -0.734365 l 0.715567 -0.698544 l 0.75229 -0.658832 l 0.788678 -0.614807 l 0.824413 -0.565988 l 0.859088 -0.511828 l 0.892168 -0.451704 l 0.922958 -0.384901 l 0.950538 -0.310608 l 0.973684 -0.227902 l 0.990744 -0.135742 l 0.999456 -0.032983 l 0.996666 0.081585 l 0.977889 0.209127 l 0.936575 0.350466 l 0.862893 0.505387 l 0.741574 0.670871 l 0.548137 0.836389 l 0.242861 0.970061 l -0.230821 0.972996 l -0.848706 0.528865" stroke="#4488ff" stroke-width="0.25%" fill="transparent" class="foreground-stroke" transform-origin="50% 50%" xmlns="http://www.w3.org/2000/svg">
        </path>
        <style xmlns="http://www.w3.org/2000/svg">
        </style>
        <path id="turtle-t4-path" d="m 0 0   m 0 200 l 0.005 -0.999988 l 0.010025 -0.99995 l 0.015075 -0.999886 l 0.02015 -0.999797 l 0.02525 -0.999681 l 0.030376 -0.999539 l 0.035528 -0.999369 l 0.040705 -0.999171 l 0.045907 -0.998946 l 0.051136 -0.998692 l 0.056391 -0.998409 l 0.061672 -0.998096 l 0.066979 -0.997754 l 0.072313 -0.997382 l 0.077673 -0.996979 l 0.08306 -0.996545 l 0.088474 -0.996079 l 0.093914 -0.99558 l 0.099381 -0.995049 l 0.104876 -0.994485 l 0.110398 -0.993887 l 0.115947 -0.993255 l 0.121523 -0.992589 l 0.127128 -0.991886 l 0.132759 -0.991148 l 0.138419 -0.990374 l 0.144106 -0.989562 l 0.149822 -0.988713 l 0.155565 -0.987826 l 0.161337 -0.986899 l 0.167137 -0.985934 l 0.172966 -0.984928 l 0.178823 -0.983881 l 0.184708 -0.982793 l 0.190623 -0.981663 l 0.196566 -0.980491 l 0.202538 -0.979274 l 0.208538 -0.978014 l 0.214568 -0.976709 l 0.220627 -0.975358 l 0.226716 -0.973961 l 0.232833 -0.972517 l 0.23898 -0.971024 l 0.245156 -0.969484 l 0.251362 -0.967893 l 0.257597 -0.966252 l 0.263862 -0.96456 l 0.270156 -0.962816 l 0.27648 -0.96102 l 0.282834 -0.959169 l 0.289218 -0.957263 l 0.295631 -0.955302 l 0.302074 -0.953284 l 0.308547 -0.951209 l 0.31505 -0.949075 l 0.321583 -0.946882 l 0.328145 -0.944627 l 0.334737 -0.942312 l 0.341359 -0.939933 l 0.348011 -0.93749 l 0.354693 -0.934983 l 0.361404 -0.932409 l 0.368145 -0.929768 l 0.374915 -0.927059 l 0.381715 -0.92428 l 0.388545 -0.92143 l 0.395403 -0.918508 l 0.402291 -0.915512 l 0.409208 -0.912441 l 0.416154 -0.909294 l 0.423129 -0.906069 l 0.430133 -0.902766 l 0.437165 -0.899381 l 0.444225 -0.895915 l 0.451314 -0.892365 l 0.45843 -0.888731 l 0.465574 -0.885009 l 0.472745 -0.881199 l 0.479943 -0.877299 l 0.487169 -0.873308 l 0.49442 -0.869223 l 0.501698 -0.865043 l 0.509002 -0.860766 l 0.51633 -0.856389 l 0.523684 -0.851912 l 0.531063 -0.847333 l 0.538465 -0.842648 l 0.545891 -0.837856 l 0.553339 -0.832956 l 0.560811 -0.827944 l 0.568303 -0.822819 l 0.575817 -0.817578 l 0.583352 -0.81222 l 0.590906 -0.80674 l 0.598479 -0.801138 l 0.60607 -0.795411 l 0.613679 -0.789556 l 0.621303 -0.78357 l 0.628943 -0.777451 l 0.636598 -0.771196 l 0.644265 -0.764802 l 0.651945 -0.758266 l 0.659636 -0.751585 l 0.667336 -0.744757 l 0.675045 -0.737777 l 0.68276 -0.730643 l 0.690481 -0.723351 l 0.698205 -0.715898 l 0.705932 -0.70828 l 0.713658 -0.700494 l 0.721383 -0.692536 l 0.729105 -0.684402 l 0.736821 -0.676088 l 0.744528 -0.667591 l 0.752226 -0.658905 l 0.759911 -0.650027 l 0.76758 -0.640953 l 0.775232 -0.631677 l 0.782862 -0.622195 l 0.790469 -0.612502 l 0.798048 -0.602594 l 0.805596 -0.592465 l 0.81311 -0.58211 l 0.820585 -0.571524 l 0.828018 -0.560701 l 0.835405 -0.549635 l 0.84274 -0.538321 l 0.850019 -0.526752 l 0.857237 -0.514922 l 0.864388 -0.502825 l 0.871467 -0.490454 l 0.878468 -0.477802 l 0.885383 -0.464862 l 0.892207 -0.451627 l 0.898931 -0.43809 l 0.905549 -0.424242 l 0.912051 -0.410076 l 0.91843 -0.395584 l 0.924675 -0.380756 l 0.930778 -0.365585 l 0.936727 -0.350062 l 0.942511 -0.334177 l 0.948118 -0.31792 l 0.953535 -0.301282 l 0.958749 -0.284253 l 0.963746 -0.266822 l 0.968509 -0.248979 l 0.973022 -0.230712 l 0.977267 -0.212011 l 0.981225 -0.192864 l 0.984876 -0.173259 l 0.988198 -0.153184 l 0.991166 -0.132625 l 0.993756 -0.111572 l 0.995941 -0.09001 l 0.99769 -0.067926 l 0.998973 -0.045308 l 0.999755 -0.02214 l 0.999999 0.001589 l 0.999665 0.025895 l 0.998709 0.05079 l 0.997086 0.076289 l 0.994743 0.102405 l 0.991625 0.12915 l 0.987672 0.156538 l 0.982817 0.18458 l 0.97699 0.213287 l 0.970109 0.242668 l 0.96209 0.272731 l 0.952837 0.303481 l 0.942246 0.334922 l 0.930201 0.367051 l 0.916574 0.399864 l 0.901225 0.43335 l 0.883998 0.467491 l 0.864717 0.50226 l 0.843188 0.537619 l 0.819194 0.573516 l 0.792492 0.609882 l 0.762807 0.646626 l 0.729831 0.683628 l 0.693214 0.720732 l 0.652562 0.757736 l 0.607423 0.794378 l 0.557287 0.83032 l 0.501568 0.865118 l 0.439599 0.898194 l 0.370615 0.928786 l 0.293749 0.955882 l 0.208016 0.978125 l 0.112317 0.993672 l 0.00546 0.999985 l -0.113774 0.993507 l -0.246461 0.969153 l -0.393123 0.919486 l -0.552761 0.83334 l -0.720464 0.693492 l -0.881159 0.472821 l -0.991589 0.129426 l -0.922685 -0.385555 l -0.289683 -0.957123" stroke="#4488ff" stroke-width="0.25%" fill="transparent" class="foreground-stroke" transform-origin="50% 50%" xmlns="http://www.w3.org/2000/svg">
        </path>
      </g>
    </svg>
  </symbol>
  <use href="#turtle-symbol" width="100%" height="100%" transform-origin="50% 50%" />
</svg>