<svg xmlns="http://www.w3.org/2000/svg" width="100%" height="100%">
  <defs>
    <pattern id="turtle-pattern" patternUnits="userSpaceOnUse" width="200" height="200" transform-origin="50% 50%">
      <path id="turtle-path" d="m 0 0  l 200 0  l 0 200  l -200 0  l -0 -200" stroke="transparent" stroke-width="0.25%" fill="transparent" class="foreground-stroke" transform-origin="50% 50%" xmlns="http://www.w3.org/2000/svg">
      </path>
      <g id="turtle-children" xmlns="http://www.w3.org/2000/svg">
        <path id="turtle-t1-path" d="m 0 0  l 1 0  l 0.999987 0.005025  l 0.999949 0.010075  l 0.999885 0.015151  l 0.999795 0.020252  l 0.999678 0.025378  l 0.999534 0.030531  l 0.999362 0.035709  l 0.999163 0.040913  l 0.998935 0.046143  l 0.998678 0.051399  l 0.998392 0.056681  l 0.998077 0.06199  l 0.997731 0.067326  l 0.997355 0.072688  l 0.996947 0.078077  l 0.996508 0.083493  l 0.996037 0.088935  l 0.995534 0.094405  l 0.994997 0.099903  l 0.994427 0.105427  l 0.993823 0.110979  l 0.993184 0.116559  l 0.99251 0.122166  l 0.9918 0.127802  l 0.991054 0.133465  l 0.99027 0.139156  l 0.98945 0.144875  l 0.988591 0.150623  l 0.987694 0.156399  l 0.986757 0.162204  l 0.985781 0.168037  l 0.984764 0.173898  l 0.983705 0.179789  l 0.982605 0.185708  l 0.981462 0.191656  l 0.980276 0.197634  l 0.979046 0.20364  l 0.977771 0.209676  l 0.976451 0.215741  l 0.975084 0.221835  l 0.973671 0.227959  l 0.97221 0.234112  l 0.9707 0.240295  l 0.969141 0.246508  l 0.967532 0.25275  l 0.965871 0.259022  l 0.964159 0.265324  l 0.962395 0.271656  l 0.960576 0.278017  l 0.958703 0.284409  l 0.956775 0.29083  l 0.95479 0.297282  l 0.952748 0.303763  l 0.950647 0.310275  l 0.948487 0.316816  l 0.946267 0.323388  l 0.943985 0.329989  l 0.94164 0.336621  l 0.939232 0.343283  l 0.936759 0.349974  l 0.934221 0.356696  l 0.931615 0.363447  l 0.928941 0.370228  l 0.926198 0.377039  l 0.923383 0.383879  l 0.920497 0.390749  l 0.917538 0.397648  l 0.914504 0.404577  l 0.911394 0.411535  l 0.908207 0.418522  l 0.904941 0.425538  l 0.901594 0.432582  l 0.898166 0.439656  l 0.894655 0.446757  l 0.891059 0.453887  l 0.887377 0.461044  l 0.883607 0.468229  l 0.879747 0.475441  l 0.875796 0.482681  l 0.871752 0.489947  l 0.867613 0.497239  l 0.863378 0.504558  l 0.859044 0.511902  l 0.85461 0.519271  l 0.850073 0.526665  l 0.845432 0.534083  l 0.840684 0.541525  l 0.835829 0.54899  l 0.830862 0.556478  l 0.825783 0.563988  l 0.820588 0.57152  l 0.815277 0.579072  l 0.809845 0.586644  l 0.804291 0.594235  l 0.798613 0.601845  l 0.792808 0.609472  l 0.786872 0.617116  l 0.780804 0.624775  l 0.774601 0.63245  l 0.76826 0.640138  l -0.647838 0.761778  l -0.640138 0.76826  l -0.632295 0.774728  l -0.624306 0.78118  l -0.616169 0.787614  l -0.607882 0.794028  l -0.59944 0.80042  l -0.590842 0.806788  l -0.582083 0.813129  l -0.573162 0.819442  l -0.564074 0.825724  l -0.554817 0.831972  l -0.545388 0.838184  l -0.535782 0.844356  l -0.525997 0.850486  l -0.516029 0.856571  l -0.505874 0.862607  l -0.495529 0.868592  l -0.484989 0.87452  l -0.474252 0.880389  l -0.463312 0.886195  l -0.452167 0.891933  l -0.440811 0.8976  l -0.429241 0.90319  l -0.417453 0.908699  l -0.405441 0.914121  l -0.393202 0.919452  l -0.380731 0.924686  l -0.368023 0.929817  l -0.355073 0.934839  l -0.341877 0.939745  l -0.328429 0.944529  l -0.314725 0.949183  l -0.30076 0.9537  l -0.286527 0.958072  l -0.272023 0.962291  l -0.257241 0.966347  l -0.242176 0.970232  l -0.226823 0.973936  l -0.211176 0.977448  l -0.195229 0.980758  l -0.178977 0.983853  l -0.162414 0.986723  l -0.145534 0.989353  l -0.128332 0.991731  l -0.110801 0.993843  l -0.092936 0.995672  l -0.074732 0.997204  l -0.056182 0.998421  l -0.037282 0.999305  l -0.018026 0.999838  l 0.001591 0.999999  l 0.021573 0.999767  l 0.041926 0.999121  l 0.062654 0.998035  l 0.08376 0.996486  l 0.105247 0.994446  l 0.127118 0.991888  l 0.149374 0.988781  l 0.172018 0.985094  l 0.195048 0.980794  l 0.218463 0.975845  l 0.24226 0.970211  l 0.266436 0.963853  l 0.290983 0.956728  l 0.315894 0.948794  l 0.341157 0.940006  l 0.366758 0.930317  l 0.392679 0.919676  l 0.418899 0.908033  l 0.445391 0.895336  l 0.472123 0.881532  l 0.499059 0.866568  l 0.526151 0.850391  l 0.553348 0.83295  l 0.580584 0.8142  l 0.607787 0.7941  l 0.63487 0.772619  l 0.66173 0.749742  l 0.688252 0.725472  l 0.714298 0.699842  l 0.739713 0.672922  l 0.76432 0.644837  l 0.787916 0.615783  l 0.810276 0.586048  l 0.831152 0.556046  l 0.850274 0.526341  l 0.867359 0.497682  l 0.882124 0.471018  l 0.8943 0.447468  l 0.903677 0.428214  l 0.910162 0.414253  l 0.913885 0.405973  l 0.915344 0.402673  l 0.915503 0.402311  l 0.915703 0.401855  l 0.917282 0.398239  l 0.921098 0.38933  l 0.927301 0.374315  l 0.935448 0.353464  l 0.9448 0.327648  l 0.954587 0.297934  l 0.964152 0.265349  l 0.973006 0.230781  l 0.980812 0.194954  l 0.987369 0.158437  l 0.992571 0.121671  l 0.996382 0.08499  l 0.998816 0.048646  l 0.999918 0.012829  l 0.999751 -0.022325  l 0.99839 -0.056717  l 0.995917 -0.090276  l 0.992412 -0.122957  l 0.987957 -0.154731  l 0.982629 -0.185582  l 0.976503 -0.215505  l 0.969648 -0.244504  l 0.962131 -0.272588  l 0.954012 -0.299769  l 0.945347 -0.326066  l 0.936189 -0.351497  l 0.926586 -0.376083  l 0.916582 -0.399847  l 0.906217 -0.422812  l 0.89553 -0.445001  l 0.884554 -0.466438  l 0.873321 -0.487145  l 0.86186 -0.507147  l 0.850197 -0.526465  l 0.838356 -0.545123  l 0.826361 -0.563141  l 0.81423 -0.580542  l 0.801984 -0.597345  l 0.789639 -0.613571  l 0.777211 -0.629239  l 0.764715 -0.644368  l 0.752164 -0.658976  l 0.73957 -0.67308  l 0.726943 -0.686697  l 0.714296 -0.699844  l 0.701636 -0.712535  l 0.688973 -0.724787  l 0.676315 -0.736613  l 0.663668 -0.748027  l 0.65104 -0.759043  l 0.638437 -0.769674  l 0.625863 -0.779933  l 0.613325 -0.78983  l 0.600827 -0.799379  l 0.588374 -0.808589  l 0.575968 -0.817472  l 0.563615 -0.826038  l 0.551316 -0.834296  l 0.539076 -0.842257  l 0.526896 -0.849929  l 0.51478 -0.857322  l 0.502729 -0.864444  l 0.490746 -0.871303  l 0.478831 -0.877907  l 0.466988 -0.884264  l 0.455217 -0.890381  l 0.44352 -0.896265  l 0.431897 -0.901923  l 0.42035 -0.907362  l 0.40888 -0.912588  l 0.397487 -0.917608  l 0.386173 -0.922426  l 0.374937 -0.92705  l 0.363781 -0.931485  l 0.352704 -0.935735  l 0.341707 -0.939807  l 0.33079 -0.943704  l 0.319954 -0.947433  l 0.309198 -0.950998  l 0.298522 -0.954403  l 0.287928 -0.957652  l 0.277413 -0.960751  l 0.266979 -0.963702  l 0.256626 -0.966511  l 0.246352 -0.96918  l 0.236159 -0.971715  l 0.226045 -0.974117  l 0.21601 -0.976391  l 0.206055 -0.978541  l 0.196178 -0.980568  l 0.186379 -0.982478  l -0.984272 -0.176659  l 0.166739 -0.986001  l 0.146856 -0.989158  l 0.126931 -0.991912  l 0.106979 -0.994261  l 0.087017 -0.996207  l 0.06706 -0.997749  l 0.047123 -0.998889  l 0.02722 -0.999629  l -0.999973 -0.007368  l -0.002555 -0.999997  l -0.999941 0.010834  l -0.999957 0.009258  l -0.999969 0.007895  l -0.999977 0.006744  l -0.016751 -0.99986  l -0.99967 0.025681  l -0.999693 0.024764  l -0.999711 0.024055  l -0.999723 0.023554  l -0.999729 0.023259  l -0.999732 0.023168  l -0.999729 0.023279  l -0.999722 0.023589  l -0.99971 0.024098  l -0.999692 0.024802  l -0.99967 0.025699  l -0.999641 0.026785  l -0.999606 0.02806  l -0.999564 0.029519  l -0.999514 0.031159  l -0.041068 -0.999156  l -0.061094 -0.998132  l -0.997364 0.072566  l -0.082542 -0.996588  l -0.102617 -0.994721  l -0.122685 -0.992446  l -0.142745 -0.98976  l -0.162779 -0.986663  l -0.182769 -0.983156  l -0.2027 -0.979241  l -0.222553 -0.974921  l -0.242313 -0.970198  l -0.261962 -0.965078  l -0.281486 -0.959565  l -0.300868 -0.953666  l -0.320094 -0.947386  l -0.339151 -0.940732  l -0.358023 -0.933713  l -0.376698 -0.926336  l -0.395164 -0.918611  l -0.413408 -0.910546  l -0.907155 0.420797  l -0.907905 0.419177  l -0.42814 -0.903712  l -0.900134 0.435614  l -0.900802 0.434231  l -0.443147 -0.896449  l -0.892642 0.450767  l -0.893223 0.449614  l -0.893709 0.448648  l -0.894099 0.447869  l -0.894396 0.447276  l -0.8946 0.446867  l -0.894713 0.446642  l -0.894734 0.446599  l -0.894666 0.446736  l -0.894509 0.44705  l -0.894264 0.447541  l -0.893931 0.448205  l -0.893512 0.44904  l -0.893006 0.450044  l -0.892416 0.451214  l -0.891741 0.452546  l -0.890982 0.454039  l -0.46283 -0.886447  l -0.880975 0.473162  l -0.481857 -0.87625  l -0.499297 -0.866431  l -0.860582 0.509311  l -0.517866 -0.855462  l -0.534966 -0.844873  l -0.551893 -0.833915  l -0.568629 -0.822594  l -0.585161 -0.810917  l -0.601472 -0.798894  l -0.617548 -0.786533  l -0.633376 -0.773844  l -0.648942 -0.760838  l -0.664233 -0.747526  l -0.679238 -0.733918  l -0.693945 -0.720028  l -0.708344 -0.705867  l -0.722426 -0.691448  l -0.736181 -0.676784  l -0.749602 -0.661889  l -0.762682 -0.646774  l -0.640406 0.768037  l -0.774343 -0.632766  l -0.786778 -0.617236  l -0.610806 0.79178  l -0.612182 0.790717  l -0.796722 -0.604345  l -0.59771 0.801712  l -0.598905 0.80082  l -0.59095 0.806709  l -0.592058 0.805895  l -0.592995 0.805206  l -0.593761 0.804642  l -0.594357 0.804201  l -0.594786 0.803884  l -0.595048 0.803691" stroke="#4488ff" stroke-width="0.25%" fill="transparent" class="foreground-stroke" transform-origin="50% 50%" xmlns="http://www.w3.org/2000/svg">
        </path>
        <path id="turtle-t2-path" d="m 0 0  m 200 0  l 0 1  l -0.005025 0.999987  l -0.010075 0.999949  l -0.015151 0.999885  l -0.020252 0.999795  l -0.025378 0.999678  l -0.030531 0.999534  l -0.035709 0.999362  l -0.040913 0.999163  l -0.046143 0.998935  l -0.051399 0.998678  l -0.056681 0.998392  l -0.06199 0.998077  l -0.067326 0.997731  l -0.072688 0.997355  l -0.078077 0.996947  l -0.083493 0.996508  l -0.088935 0.996037  l -0.094405 0.995534  l -0.099903 0.994997  l -0.105427 0.994427  l -0.110979 0.993823  l -0.116559 0.993184  l -0.122166 0.99251  l -0.127802 0.9918  l -0.133465 0.991054  l -0.139156 0.99027  l -0.144876 0.98945  l -0.150623 0.988591  l -0.156399 0.987694  l -0.162204 0.986757  l -0.168037 0.985781  l -0.173899 0.984764  l -0.179789 0.983705  l -0.185708 0.982605  l -0.191657 0.981462  l -0.197634 0.980276  l -0.203641 0.979046  l -0.209676 0.977771  l -0.215741 0.976451  l -0.221836 0.975084  l -0.22796 0.973671  l -0.234113 0.972209  l -0.240296 0.9707  l -0.246509 0.969141  l -0.252751 0.967531  l -0.259023 0.965871  l -0.265325 0.964159  l -0.271657 0.962394  l -0.278019 0.960576  l -0.28441 0.958703  l -0.290832 0.956774  l -0.297284 0.954789  l -0.303765 0.952747  l -0.310277 0.950646  l -0.316819 0.948486  l -0.32339 0.946266  l -0.329992 0.943984  l -0.336624 0.941639  l -0.343286 0.939231  l -0.349978 0.936758  l -0.356699 0.934219  l -0.363451 0.931613  l -0.370232 0.928939  l -0.377044 0.926196  l -0.383884 0.923381  l -0.390755 0.920495  l -0.397655 0.917535  l -0.404584 0.914501  l -0.411542 0.911391  l -0.41853 0.908203  l -0.425546 0.904937  l -0.432591 0.90159  l -0.439665 0.898162  l -0.446767 0.89465  l -0.453897 0.891054  l -0.461056 0.887371  l -0.468241 0.883601  l -0.475455 0.87974  l -0.482695 0.875789  l -0.489962 0.871744  l -0.497255 0.867604  l -0.504575 0.863368  l -0.51192 0.859033  l -0.51929 0.854598  l -0.526685 0.85006  l -0.534105 0.845418  l -0.541548 0.84067  l -0.549015 0.835813  l -0.556504 0.830845  l -0.564016 0.825764  l -0.571549 0.820568  l -0.579102 0.815255  l -0.586676 0.809822  l -0.594269 0.804266  l -0.601881 0.798586  l -0.60951 0.792778  l -0.617156 0.786841  l -0.624818 0.78077  l -0.632495 0.774565  l -0.640185 0.768221  l -0.76823 -0.640174  l -0.774777 -0.632234  l -0.78131 -0.624144  l -0.787825 -0.615899  l -0.794322 -0.607497  l -0.800798 -0.598934  l -0.807252 -0.590207  l -0.813679 -0.581314  l -0.82008 -0.57225  l -0.826449 -0.563011  l -0.832786 -0.553595  l -0.839087 -0.543997  l -0.845349 -0.534214  l -0.85157 -0.524241  l -0.857745 -0.514075  l -0.863872 -0.503711  l -0.869947 -0.493145  l -0.875966 -0.482373  l -0.881925 -0.471391  l -0.887819 -0.460192  l -0.893645 -0.448774  l -0.899398 -0.43713  l -0.905073 -0.425256  l -0.910665 -0.413147  l -0.916167 -0.400796  l -0.921575 -0.3882  l -0.926882 -0.375352  l -0.932083 -0.362246  l -0.937169 -0.348876  l -0.942134 -0.335237  l -0.94697 -0.321321  l -0.95167 -0.307123  l -0.956224 -0.292635  l -0.960624 -0.277851  l -0.96486 -0.262764  l -0.968922 -0.247367  l -0.972799 -0.231651  l -0.97648 -0.21561  l -0.979952 -0.199235  l -0.983202 -0.182518  l -0.986218 -0.165452  l -0.988983 -0.148027  l -0.991483 -0.130235  l -0.993701 -0.112066  l -0.995618 -0.093512  l -0.997216 -0.074563  l -0.998475 -0.055209  l -0.999372 -0.035441  l -0.999884 -0.015249  l -0.999986 0.005378  l -0.99965 0.02645  l -0.998848 0.047977  l -0.997549 0.069971  l -0.995718 0.092441  l -0.993319 0.115399  l -0.990313 0.138856  l -0.986656 0.16282  l -0.982302 0.187304  l -0.977201 0.212317  l -0.971297 0.237869  l -0.964532 0.263968  l -0.956838 0.290622  l -0.948145 0.317839  l -0.938373 0.345624  l -0.927436 0.373981  l -0.915239 0.402911  l -0.901676 0.432412  l -0.886631 0.462478  l -0.869973 0.4931  l -0.851558 0.524261  l -0.831225 0.555936  l -0.808793 0.588094  l -0.784059 0.620686  l -0.756796 0.653652  l -0.726744 0.686909  l -0.693611 0.72035  l -0.657066 0.753833  l -0.616731 0.787174  l -0.572176 0.820131  l -0.522912 0.852387  l -0.468384 0.883525  l -0.407963 0.912999  l -0.340946 0.940083  l -0.266564 0.963817  l -0.183996 0.982927  l -0.092427 0.995719  l 0.008857 0.999961  l 0.120276 0.99274  l 0.241637 0.970367  l 0.371618 0.928386  l 0.507065 0.861908  l 0.642235 0.766507  l 0.768468 0.639888  l 0.87505 0.484033  l 0.951832 0.306619  l 0.992768 0.120049  l 0.998068 -0.062132  l 0.973363 -0.229268  l 0.926799 -0.375559  l 0.866274 -0.499569  l 0.798037 -0.602609  l 0.726451 -0.687218  l 0.654324 -0.756214  l 0.583356 -0.812217  l 0.514513 -0.857483  l 0.448302 -0.893882  l 0.384951 -0.922937  l 0.324516 -0.94588  l 0.266956 -0.963709  l 0.212179 -0.977231  l 0.160059 -0.987108  l 0.110461 -0.99388  l 0.063246 -0.997998  l 0.018278 -0.999833  l -0.024576 -0.999698  l -0.06544 -0.997856  l -0.104431 -0.994532  l -0.141659 -0.989916  l -0.177225 -0.98417  l -0.211224 -0.977438  l -0.243744 -0.96984  l -0.274867 -0.961482  l -0.304668 -0.952459  l -0.333218 -0.94285  l -0.360583 -0.932727  l -0.386822 -0.922154  l -0.411994 -0.911187  l -0.43615 -0.899874  l -0.459341 -0.88826  l -0.481613 -0.876384  l -0.503009 -0.864281  l -0.52357 -0.851983  l -0.543334 -0.839517  l -0.562336 -0.826909  l -0.58061 -0.814182  l -0.598188 -0.801356  l -0.6151 -0.788449  l -0.631374 -0.775478  l -0.647037 -0.762459  l -0.662113 -0.749404  l -0.676626 -0.736327  l -0.6906 -0.723237  l -0.704054 -0.710146  l -0.71701 -0.697062  l -0.729487 -0.683994  l -0.741503 -0.67095  l -0.753075 -0.657935  l -0.76422 -0.644956  l -0.774953 -0.632019  l -0.785289 -0.619129  l -0.795244 -0.60629  l -0.804829 -0.593507  l -0.814059 -0.580783  l -0.822945 -0.568121  l -0.8315 -0.555525  l -0.839734 -0.542998  l -0.847659 -0.530541  l -0.855286 -0.518157  l -0.862623 -0.505848  l -0.86968 -0.493615  l -0.876467 -0.481461  l -0.882993 -0.469387  l -0.889265 -0.457393  l -0.895291 -0.445481  l -0.901081 -0.433651  l -0.90664 -0.421905  l -0.911976 -0.410243  l -0.917096 -0.398666  l -0.922007 -0.387174  l -0.926714 -0.375767  l -0.931225 -0.364446  l -0.935544 -0.35321  l -0.939678 -0.342061  l -0.943632 -0.330997  l -0.947411 -0.32002  l -0.95102 -0.309128  l -0.954465 -0.298322  l -0.95775 -0.287602  l -0.96088 -0.276967  l -0.963858 -0.266417  l -0.96669 -0.255951  l -0.969379 -0.245571  l -0.971929 -0.235274  l -0.974345 -0.225061  l -0.976629 -0.214931  l -0.978786 -0.204884  l -0.980819 -0.19492  l -0.185037 0.982731  l -0.184778 0.98278  l -0.184426 0.982846  l -0.183882 0.982948  l -0.183148 0.983085  l -0.182225 0.983257  l -0.181116 0.983462  l -0.179825 0.983699  l -0.178353 0.983967  l -0.176703 0.984264  l -0.985957 -0.167  l -0.989089 -0.147319  l -0.991836 -0.127517  l -0.994193 -0.107611  l -0.096586 0.995325  l -0.996242 -0.086612  l -0.997783 -0.066548  l -0.998921 -0.046434  l -0.999655 -0.026274  l -0.999981 -0.006087  l -0.9999 0.014112  l -0.999411 0.034306  l -0.998515 0.054478  l -0.997213 0.074612  l -0.995507 0.094692  l -0.9934 0.114702  l -0.990896 0.134627  l -0.988 0.154452  l -0.984717 0.174163  l -0.981052 0.193745  l 0.213187 0.977011  l 0.211461 0.977386  l -0.97773 0.209864  l 0.218164 0.975912  l 0.216901 0.976194  l 0.226574 0.973994  l 0.225425 0.97426  l 0.224481 0.974478  l 0.223742 0.974648  l 0.223205 0.974772  l 0.222869 0.974848  l 0.222734 0.974879  l 0.222796 0.974865  l 0.223054 0.974806  l 0.223505 0.974703  l 0.224148 0.974555  l 0.22498 0.974363  l 0.225998 0.974128  l 0.2272 0.973848  l 0.228582 0.973525  l 0.230142 0.973157  l -0.970818 0.239816  l -0.967921 0.251255  l 0.262624 0.964898  l -0.962261 0.27213  l -0.956641 0.291271  l 0.302305 0.953211  l -0.95016 0.311763  l -0.943719 0.330747  l -0.936882 0.349646  l -0.929651 0.368442  l -0.92203 0.387119  l -0.914024 0.405661  l -0.905638 0.424051  l -0.89688 0.442274  l -0.887756 0.460315  l -0.878273 0.478159  l -0.868441 0.495792  l -0.858268 0.513201  l -0.847764 0.530373  l -0.836939 0.547296  l -0.825803 0.563959  l -0.814367 0.58035  l -0.802643 0.59646  l 0.603103 0.797663  l -0.791668 0.610952  l 0.626532 0.779396  l 0.625146 0.780508  l -0.774259 0.632869  l 0.639298 0.768959  l 0.638124 0.769933  l 0.637049 0.770824  l 0.636135 0.771578  l 0.635382 0.772198  l 0.63479 0.772685  l 0.634358 0.773039  l 0.634086 0.773263  l 0.633971 0.773357  l 0.634013 0.773323  l 0.634209 0.773161  l 0.634559 0.772874  l 0.63506 0.772463  l 0.63571 0.771928  l 0.636507 0.771271  l 0.637447 0.770494  l 0.63853 0.769597  l -0.763194 0.646169  l 0.654968 0.755656  l 0.656233 0.754559  l -0.747985 0.663716  l -0.74013 0.672464  l 0.681092 0.732198  l -0.725438 0.688287  l -0.71156 0.702626  l 0.71077 0.703425  l -0.696322 0.717729  l -0.681793 0.731545  l -0.666953 0.7451  l -0.651814 0.758379  l -0.636386 0.771371  l -0.620681 0.784063  l -0.604712 0.796444" stroke="#4488ff" stroke-width="0.25%" fill="transparent" class="foreground-stroke" transform-origin="50% 50%" xmlns="http://www.w3.org/2000/svg">
        </path>
        <path id="turtle-t3-path" d="m 0 0  m 200 200  l -1 0  l -0.999987 -0.005025  l -0.999949 -0.010076  l -0.999885 -0.015151  l -0.999795 -0.020253  l -0.999678 -0.02538  l -0.999534 -0.030533  l -0.999362 -0.035712  l -0.999163 -0.040917  l -0.998935 -0.046148  l -0.998678 -0.051406  l -0.998392 -0.05669  l -0.998076 -0.062  l -0.99773 -0.067337  l -0.997354 -0.072701  l -0.996946 -0.078092  l -0.996507 -0.083511  l -0.996036 -0.088956  l -0.995532 -0.094428  l -0.994995 -0.099928  l -0.994424 -0.105456  l -0.993819 -0.111011  l -0.99318 -0.116594  l -0.992505 -0.122205  l -0.991794 -0.127844  l -0.991047 -0.133511  l -0.990263 -0.139207  l -0.989442 -0.14493  l -0.988582 -0.150683  l -0.987684 -0.156463  l -0.986746 -0.162273  l -0.985768 -0.168111  l -0.98475 -0.173978  l -0.98369 -0.179874  l -0.982588 -0.1858  l -0.981443 -0.191754  l -0.980255 -0.197738  l -0.979023 -0.203751  l -0.977746 -0.209793  l -0.976423 -0.215865  l -0.975054 -0.221967  l -0.973638 -0.228098  l -0.972174 -0.234259  l -0.970661 -0.24045  l -0.969099 -0.246671  l -0.967487 -0.252922  l -0.965823 -0.259203  l -0.964107 -0.265514  l -0.962338 -0.271855  l -0.960516 -0.278226  l -0.958638 -0.284628  l -0.956705 -0.29106  l -0.954715 -0.297522  l -0.952667 -0.304014  l -0.950561 -0.310537  l -0.948395 -0.31709  l -0.946169 -0.323673  l -0.94388 -0.330287  l -0.941529 -0.336931  l -0.939114 -0.343606  l -0.936634 -0.35031  l -0.934087 -0.357045  l -0.931473 -0.36381  l -0.92879 -0.370605  l -0.926038 -0.377431  l -0.923214 -0.384286  l -0.920318 -0.391171  l -0.917348 -0.398086  l -0.914303 -0.40503  l -0.911182 -0.412004  l -0.907983 -0.419008  l -0.904704 -0.426041  l -0.901345 -0.433103  l -0.897903 -0.440193  l -0.894378 -0.447313  l -0.890767 -0.454461  l -0.887069 -0.461637  l -0.883283 -0.468841  l -0.879406 -0.476073  l -0.875437 -0.483332  l -0.871375 -0.490618  l -0.867217 -0.497931  l -0.862961 -0.50527  l -0.858606 -0.512636  l -0.85415 -0.520027  l -0.849591 -0.527443  l -0.844926 -0.534883  l -0.840154 -0.542348  l -0.835273 -0.549836  l -0.830279 -0.557347  l -0.825172 -0.564881  l -0.819949 -0.572436  l -0.814607 -0.580013  l -0.809145 -0.587609  l -0.803559 -0.595226  l -0.797847 -0.602861  l -0.792006 -0.610513  l -0.786034 -0.618183  l -0.779929 -0.625869  l -0.773686 -0.633569  l 0.641284 -0.767304  l 0.641283 -0.767304  l 0.633461 -0.773775  l 0.625493 -0.78023  l 0.617377 -0.786667  l 0.609111 -0.793085  l 0.600691 -0.799482  l 0.592114 -0.805854  l 0.583378 -0.812201  l 0.574479 -0.818519  l 0.565415 -0.824807  l 0.556181 -0.831061  l 0.546775 -0.83728  l 0.537193 -0.843459  l 0.527433 -0.849597  l 0.517489 -0.85569  l 0.507359 -0.861735  l 0.49704 -0.867728  l 0.486526 -0.873666  l 0.475815 -0.879546  l 0.464902 -0.885362  l 0.453783 -0.891112  l 0.442455 -0.896791  l 0.430912 -0.902394  l 0.419151 -0.907916  l 0.407168 -0.913353  l 0.394957 -0.9187  l 0.382514 -0.92395  l 0.369835 -0.929098  l 0.356914 -0.934137  l 0.343747 -0.939062  l 0.330329 -0.943866  l 0.316654 -0.948541  l 0.302718 -0.95308  l 0.288516 -0.957475  l 0.274041 -0.961718  l 0.259289 -0.9658  l 0.244254 -0.969711  l 0.22893 -0.973443  l 0.213312 -0.976984  l 0.197393 -0.980324  l 0.18117 -0.983452  l 0.164634 -0.986355  l 0.147781 -0.98902  l 0.130605 -0.991435  l 0.113099 -0.993584  l 0.095258 -0.995453  l 0.077077 -0.997025  l 0.058548 -0.998285  l 0.039667 -0.999213  l 0.020429 -0.999791  l 0.000827 -1  l -0.019144 -0.999817  l -0.039488 -0.99922  l -0.060211 -0.998186  l -0.081315 -0.996688  l -0.102806 -0.994701  l -0.124686 -0.992196  l -0.146958 -0.989143  l -0.169623 -0.985509  l -0.192683 -0.981261  l -0.216137 -0.976363  l -0.239983 -0.970777  l -0.264219 -0.964463  l -0.28884 -0.957377  l -0.313839 -0.949476  l -0.339207 -0.940712  l -0.364932 -0.931034  l -0.390999 -0.920391  l -0.417389 -0.908728  l -0.44408 -0.895987  l -0.471044 -0.88211  l -0.498246 -0.867035  l -0.525648 -0.850702  l -0.553201 -0.833048  l -0.580849 -0.814012  l -0.608524 -0.793535  l -0.63615 -0.771565  l -0.663635 -0.748057  l -0.690872 -0.722977  l -0.717739 -0.696313  l -0.744092 -0.668077  l -0.769772 -0.638319  l -0.794592 -0.607144  l -0.818345 -0.574727  l -0.840804 -0.54134  l -0.861719 -0.507386  l -0.880828 -0.473437  l -0.897864 -0.440273  l -0.912573 -0.408913  l -0.924736 -0.380609  l -0.934199 -0.356753  l -0.940919 -0.338631  l -0.945033 -0.326976  l -0.94694 -0.32141  l -0.947382 -0.320106  l -0.947389 -0.320085  l -0.948037 -0.31816  l -0.950099 -0.311947  l -0.953841 -0.300312  l -0.959058 -0.283211  l -0.965268 -0.261263  l -0.971907 -0.235363  l -0.97846 -0.206435  l -0.984513 -0.175314  l -0.989766 -0.142701  l -0.994024 -0.109165  l -0.997172 -0.075158  l -0.999158 -0.041027  l -0.999975 -0.007043  l -0.999646 0.02659  l -0.998215 0.059719  l -0.995738 0.092228  l -0.992278 0.124037  l -0.987901 0.155085  l -0.982676 0.185334  l -0.976667 0.214758  l -0.96994 0.243343  l -0.962555 0.271086  l -0.95457 0.297988  l -0.946038 0.324056  l -0.93701 0.349303  l -0.927532 0.373743  l -0.917649 0.397392  l -0.9074 0.420268  l -0.896822 0.442391  l -0.88595 0.463781  l -0.874814 0.484459  l -0.863444 0.504444  l -0.851867 0.523759  l -0.840106 0.542423  l -0.828184 0.560456  l -0.816123 0.577879  l -0.80394 0.59471  l -0.791654 0.61097  l -0.77928 0.626676  l -0.766833 0.641846  l -0.754328 0.656498  l -0.741775 0.670649  l -0.729187 0.684315  l -0.716573 0.697512  l -0.703945 0.710254  l -0.69131 0.722558  l -0.678677 0.734437  l -0.666053 0.745905  l -0.653444 0.756974  l -0.640859 0.767659  l -0.628301 0.777971  l -0.615776 0.787921  l -0.603289 0.797523  l -0.590845 0.806785  l -0.578447 0.81572  l -0.5661 0.824337  l -0.553806 0.832646  l -0.541569 0.840656  l -0.529391 0.848378  l -0.517276 0.855819  l -0.505224 0.862988  l -0.493239 0.869894  l -0.481323 0.876544  l -0.469476 0.882945  l -0.4577 0.889106  l -0.445998 0.895034  l -0.434369 0.900735  l -0.422816 0.906216  l -0.411339 0.911483  l -0.399938 0.916542  l -0.388615 0.9214  l -0.377371 0.926062  l -0.366205 0.930534  l -0.355118 0.934821  l -0.344111 0.938929  l -0.333184 0.942862  l -0.322336 0.946625  l -0.311569 0.950224  l -0.300882 0.953661  l -0.290275 0.956943  l -0.279749 0.960073  l -0.269302 0.963056  l -0.258936 0.965894  l -0.24865 0.968593  l -0.238443 0.971156  l -0.228316 0.973587  l -0.218268 0.975889  l -0.208299 0.978065  l -0.198409 0.980119  l -0.188597 0.982055  l -0.178863 0.983874  l -0.158757 0.987318  l -0.149176 0.988811  l -0.129196 0.991619  l -0.109189 0.994021  l -0.089171 0.996016  l -0.069158 0.997606  l -0.049165 0.998791  l -0.029207 0.999573  l -0.009299 0.999957  l 0.999944 -0.010544  l 0.999962 -0.00873  l 0.999975 -0.007049  l 0.999984 -0.005581  l 0.004324 0.999991  l 0.999913 -0.013191  l 0.999925 -0.012266  l 0.999753 -0.022223  l 0.999771 -0.021409  l 0.999784 -0.020802  l 0.999792 -0.020402  l 0.999796 -0.020208  l 0.999796 -0.020216  l 0.999791 -0.020426  l 0.999783 -0.020834  l 0.99977 -0.021439  l 0.999753 -0.022238  l 0.99973 -0.023229  l 0.999702 -0.024409  l 0.999668 -0.025775  l 0.999627 -0.027325  l 0.037282 0.999305  l 0.049019 0.998798  l 0.068899 0.997624  l 0.088812 0.996048  l 0.994979 -0.100082  l 0.10999 0.993933  l 0.129901 0.991527  l 0.149801 0.988716  l 0.169672 0.985501  l 0.189498 0.981881  l 0.209261 0.97786  l 0.228946 0.973439  l 0.248535 0.968623  l 0.268014 0.963415  l 0.287367 0.957821  l 0.306578 0.951845  l 0.325634 0.945496  l 0.344521 0.938779  l 0.363224 0.931702  l 0.381733 0.924273  l 0.916501 -0.400033  l 0.409118 0.912482  l 0.427252 0.904133  l 0.90065 -0.434545  l 0.901415 -0.432955  l 0.44187 0.897079  l 0.893372 -0.449318  l 0.894051 -0.447966  l 0.89467 -0.446727  l 0.895194 -0.445676  l 0.895624 -0.444812  l 0.89596 -0.444134  l 0.896204 -0.443642  l 0.896356 -0.443334  l 0.896418 -0.443209  l 0.896391 -0.443264  l 0.896275 -0.443499  l 0.896071 -0.443911  l 0.89578 -0.444497  l 0.895403 -0.445256  l 0.894941 -0.446185  l 0.894393 -0.447282  l 0.893761 -0.448543  l 0.457407 0.889258  l 0.883907 -0.467662  l 0.883121 -0.469145  l 0.477897 0.878416  l 0.872746 -0.488174  l 0.496842 0.867841  l 0.5142 0.857671  l 0.524049 0.851688  l 0.540946 0.841057  l 0.557669 0.830063  l 0.574203 0.818713  l 0.590532 0.807014  l 0.606642 0.794975  l 0.622519 0.782604  l 0.638149 0.769913  l 0.65352 0.756909  l 0.668619 0.743606  l 0.683434 0.730012  l 0.697955 0.716142  l 0.712172 0.702005  l 0.726075 0.687616  l 0.739655 0.672986  l 0.658128 -0.752906  l 0.759428 0.650591  l 0.772289 0.635272  l 0.628859 -0.77752  l 0.783713 0.621123  l 0.795921 0.6054  l 0.598931 -0.800801  l 0.600301 -0.799774  l 0.805671 0.592363  l 0.585623 -0.810583  l 0.586808 -0.809726  l 0.587819 -0.808993  l 0.588658 -0.808382  l 0.589327 -0.807895  l 0.589826 -0.80753  l 0.590158 -0.807288  l 0.590324 -0.807166" stroke="#4488ff" stroke-width="0.25%" fill="transparent" class="foreground-stroke" transform-origin="50% 50%" xmlns="http://www.w3.org/2000/svg">
        </path>
        <path id="turtle-t4-path" d="m 0 0  m 0 200  l 0.005 -0.999988  l 0.010025 -0.99995  l 0.015075 -0.999886  l 0.02015 -0.999797  l 0.02525 -0.999681  l 0.030376 -0.999539  l 0.035528 -0.999369  l 0.040705 -0.999171  l 0.045907 -0.998946  l 0.051136 -0.998692  l 0.056391 -0.998409  l 0.061672 -0.998096  l 0.066979 -0.997754  l 0.072313 -0.997382  l 0.077673 -0.996979  l 0.08306 -0.996545  l 0.088474 -0.996079  l 0.093914 -0.99558  l 0.099381 -0.995049  l 0.104876 -0.994485  l 0.110398 -0.993887  l 0.115947 -0.993255  l 0.121523 -0.992589  l 0.127128 -0.991886  l 0.132759 -0.991148  l 0.138419 -0.990374  l 0.144106 -0.989562  l 0.149822 -0.988713  l 0.155565 -0.987826  l 0.161337 -0.986899  l 0.167137 -0.985934  l 0.172966 -0.984928  l 0.178823 -0.983881  l 0.184708 -0.982793  l 0.190623 -0.981663  l 0.196566 -0.980491  l 0.202538 -0.979274  l 0.208538 -0.978014  l 0.214568 -0.976709  l 0.220627 -0.975358  l 0.226716 -0.973961  l 0.232833 -0.972517  l 0.23898 -0.971024  l 0.245156 -0.969484  l 0.251362 -0.967893  l 0.257597 -0.966252  l 0.263862 -0.96456  l 0.270156 -0.962816  l 0.27648 -0.96102  l 0.282834 -0.959169  l 0.289218 -0.957263  l 0.295631 -0.955302  l 0.302074 -0.953284  l 0.308547 -0.951209  l 0.31505 -0.949075  l 0.321583 -0.946882  l 0.328145 -0.944627  l 0.334737 -0.942312  l 0.341359 -0.939933  l 0.348011 -0.93749  l 0.354693 -0.934983  l 0.361404 -0.932409  l 0.368145 -0.929768  l 0.374915 -0.927059  l 0.381715 -0.92428  l 0.388545 -0.92143  l 0.395403 -0.918508  l 0.402291 -0.915512  l 0.409208 -0.912441  l 0.416154 -0.909294  l 0.423129 -0.906069  l 0.430133 -0.902766  l 0.437165 -0.899381  l 0.444225 -0.895915  l 0.451314 -0.892365  l 0.45843 -0.888731  l 0.465574 -0.885009  l 0.472745 -0.881199  l 0.479943 -0.877299  l 0.487169 -0.873308  l 0.49442 -0.869223  l 0.501698 -0.865043  l 0.509002 -0.860766  l 0.51633 -0.856389  l 0.523684 -0.851912  l 0.531063 -0.847333  l 0.538465 -0.842648  l 0.545891 -0.837856  l 0.553339 -0.832956  l 0.560811 -0.827944  l 0.568303 -0.822819  l 0.575817 -0.817578  l 0.583352 -0.81222  l 0.590906 -0.80674  l 0.598479 -0.801138  l 0.60607 -0.795411  l 0.613679 -0.789556  l 0.621303 -0.78357  l 0.628943 -0.777451  l 0.636598 -0.771196  l 0.644265 -0.764802  l 0.764833 0.644229  l 0.771387 0.636366  l 0.777928 0.628353  l 0.784453 0.620188  l 0.790961 0.611867  l 0.797449 0.603387  l 0.803915 0.594745  l 0.810356 0.585937  l 0.816772 0.576961  l 0.823159 0.567812  l 0.829514 0.558487  l 0.835834 0.548982  l 0.842118 0.539293  l 0.848361 0.529418  l 0.854562 0.51935  l 0.860715 0.509087  l 0.866818 0.498624  l 0.872867 0.487957  l 0.878859 0.477082  l 0.884789 0.465993  l 0.890652 0.454686  l 0.896445 0.443156  l 0.902162 0.431398  l 0.907798 0.419407  l 0.913349 0.407178  l 0.918808 0.394705  l 0.92417 0.381982  l 0.929427 0.369005  l 0.934575 0.355766  l 0.939605 0.342261  l 0.94451 0.328482  l 0.949283 0.314423  l 0.953915 0.300077  l 0.958397 0.285439  l 0.96272 0.270499  l 0.966874 0.255253  l 0.970849 0.239691  l 0.974634 0.223806  l 0.978216 0.207591  l 0.981583 0.191037  l 0.984722 0.174136  l 0.987618 0.15688  l 0.990256 0.139259  l 0.99262 0.121265  l 0.994693 0.102888  l 0.996456 0.084119  l 0.997889 0.064948  l 0.99897 0.045365  l 0.999678 0.02536  l 0.999988 0.004923  l 0.999873 -0.015958  l 0.999304 -0.037292  l 0.998253 -0.059091  l 0.996684 -0.081366  l 0.994564 -0.104128  l 0.991853 -0.127389  l 0.988509 -0.151159  l 0.984488 -0.17545  l 0.97974 -0.200272  l 0.974211 -0.225637  l 0.967843 -0.251554  l 0.960571 -0.278033  l 0.952326 -0.305083  l 0.943029 -0.332711  l 0.932595 -0.360924  l 0.920931 -0.389725  l 0.907933 -0.419116  l 0.893484 -0.449095  l 0.877456 -0.479657  l 0.859706 -0.51079  l 0.840071 -0.542477  l 0.818371 -0.57469  l 0.794401 -0.607393  l 0.767931 -0.640533  l 0.738696 -0.674039  l 0.706397 -0.707815  l 0.670692 -0.741736  l 0.631187 -0.775631  l 0.58743 -0.809275  l 0.5389 -0.84237  l 0.485001 -0.874514  l 0.425047 -0.905171  l 0.358261 -0.933621  l 0.283775 -0.958891  l 0.20065 -0.979663  l 0.107931 -0.994158  l 0.00476 -0.999989  l -0.109392 -0.993999  l -0.234331 -0.972157  l -0.368508 -0.929625  l -0.508179 -0.861251  l -0.646638 -0.762797  l -0.774182 -0.632963  l -0.879712 -0.475506  l -0.953996 -0.299818  l -0.992931 -0.118693  l -0.99845 0.055658  l -0.976677 0.214716  l -0.935099 0.354387  l -0.880528 0.473994  l -0.818268 0.574836  l -0.752089 0.659061  l -0.684522 0.728992  l -0.617199 0.786807  l -0.551139 0.834414  l -0.48695 0.87343  l -0.424976 0.905204  l -0.365388 0.930855  l -0.308247 0.951306  l -0.253543 0.967324  l -0.201226 0.979545  l -0.15122 0.9885  l -0.103432 0.994637  l -0.057766 0.99833  l -0.01412 0.9999  l 0.027604 0.999619  l 0.067505 0.997719  l 0.105674 0.994401  l 0.142203 0.989838  l 0.177174 0.984179  l 0.210669 0.977558  l 0.242762 0.970086  l 0.273524 0.961865  l 0.303021 0.952984  l 0.331318 0.943519  l 0.358471 0.933541  l 0.384537 0.92311  l 0.409567 0.91228  l 0.433609 0.901101  l 0.45671 0.889616  l 0.478913 0.877862  l 0.500258 0.865876  l 0.520783 0.853689  l 0.540525 0.841328  l 0.559517 0.828819  l 0.577792 0.816184  l 0.595379 0.803445  l 0.612307 0.79062  l 0.628604 0.777725  l 0.644296 0.764777  l 0.659405 0.751788  l 0.673956 0.738771  l 0.687971 0.725738  l 0.701469 0.712699  l 0.714472 0.699664  l 0.726997 0.68664  l 0.739063 0.673636  l 0.750687 0.660658  l 0.761884 0.647713  l 0.772671 0.634807  l 0.783061 0.621945  l 0.79307 0.609131  l 0.80271 0.59637  l 0.811994 0.583666  l 0.820935 0.571022  l 0.829544 0.558442  l 0.837832 0.545927  l 0.845811 0.533482  l 0.853491 0.521108  l 0.860881 0.508807  l 0.86799 0.496581  l 0.874829 0.484432  l 0.881406 0.47236  l 0.887728 0.460369  l 0.893804 0.448457  l 0.899642 0.436627  l 0.90525 0.42488  l 0.910633 0.413215  l 0.9158 0.401635  l 0.920756 0.390138  l 0.925509 0.378726  l 0.930064 0.367398  l 0.934426 0.356156  l 0.938603 0.344999  l 0.942599 0.333927  l 0.946419 0.322941  l 0.950069 0.31204  l 0.953553 0.301224  l 0.956877 0.290493  l 0.960045 0.279847  l 0.96306 0.269285  l 0.965929 0.258808  l 0.968654 0.248415  l 0.971239 0.238106  l 0.973689 0.22788  l 0.976007 0.217737  l 0.207677 -0.978197  l 0.98024 0.197812  l 0.187711 -0.982224  l 0.187305 -0.982302  l 0.186706 -0.982416  l 0.185916 -0.982566  l 0.184938 -0.98275  l 0.183775 -0.982968  l 0.182428 -0.983219  l 0.180901 -0.983501  l 0.985252 0.171109  l 0.987192 0.159534  l 0.99017 0.139873  l 0.992762 0.120096  l 0.994965 0.100222  l 0.996774 0.080264  l 0.069383 -0.99759  l 0.998235 0.059392  l 0.999226 0.039324  l 0.999815 0.019217  l 1 -0.000914  l 0.999778 -0.021052  l 0.999152 -0.041179  l 0.998121 -0.061281  l 0.996686 -0.081341  l 0.994851 -0.101343  l 0.992619 -0.121272  l 0.989993 -0.141113  l 0.986979 -0.160851  l 0.98358 -0.180472  l -0.199963 -0.979804  l 0.977771 -0.209674  l -0.217762 -0.976002  l -0.216227 -0.976343  l 0.974144 -0.225929  l -0.234214 -0.972185  l -0.232924 -0.972495  l -0.231841 -0.972754  l -0.230963 -0.972962  l -0.23029 -0.973122  l -0.22982 -0.973233  l -0.22955 -0.973297  l -0.229481 -0.973313  l -0.229609 -0.973283  l -0.229932 -0.973207  l -0.230449 -0.973084  l -0.231156 -0.972917  l -0.232051 -0.972704  l -0.233132 -0.972445  l -0.234396 -0.972141  l -0.235839 -0.971792  l -0.237459 -0.971398  l -0.239252 -0.970957  l 0.968542 -0.248849  l 0.963363 -0.268201  l -0.279453 -0.960159  l 0.957324 -0.289016  l 0.95131 -0.308235  l 0.947707 -0.319141  l 0.941142 -0.338012  l 0.934183 -0.356793  l 0.926835 -0.375469  l 0.919101 -0.394021  l 0.910987 -0.412435  l 0.902498 -0.430694  l 0.893641 -0.448783  l 0.884423 -0.466687  l 0.874851 -0.484392  l 0.864935 -0.501885  l 0.854682 -0.519152  l 0.844104 -0.53618  l 0.833209 -0.552959  l 0.822008 -0.569476  l -0.585722 -0.810512  l 0.804638 -0.593765  l 0.792607 -0.609733  l -0.616238 -0.78756  l 0.78142 -0.624005  l -0.630434 -0.776242  l -0.629208 -0.777237  l 0.770952 -0.636893  l -0.643415 -0.765518  l -0.642395 -0.766374  l -0.641536 -0.767093  l -0.640838 -0.767677  l -0.6403 -0.768125  l -0.639922 -0.76844  l -0.639702 -0.768623  l -0.639639 -0.768675  l -0.639732 -0.768598  l -0.639979 -0.768392  l -0.640378 -0.76806  l -0.640926 -0.767602  l -0.641623 -0.76702  l -0.642465 -0.766315  l -0.643449 -0.765489  l -0.644574 -0.764542  l -0.645837 -0.763476  l 0.757039 -0.65337  l -0.662168 -0.749356  l -0.663517 -0.748161  l 0.741554 -0.670893  l 0.727964 -0.685615  l -0.694051 -0.719926  l 0.712965 -0.7012  l 0.6987 -0.715414  l 0.684124 -0.729366  l 0.669232 -0.743053  l 0.654037 -0.756462  l 0.63855 -0.76958  l 0.622783 -0.782395  l 0.606748 -0.794894  l 0.590459 -0.807068" stroke="#4488ff" stroke-width="0.25%" fill="transparent" class="foreground-stroke" transform-origin="50% 50%" xmlns="http://www.w3.org/2000/svg">
        </path>
      </g>
    </pattern>
  </defs>
  <rect width="10000%" height="10000%" x="-5000%" y="-5000%" fill="url(#turtle-pattern)" transform-origin="50% 50%" />
</svg>