<svg xmlns="http://www.w3.org/2000/svg" width="100%" height="100%" transform-origin="50% 50%">
  <symbol id="turtle-symbol" viewBox="0 0 200 200" transform-origin="50% 50%">
    <svg xmlns="http://www.w3.org/2000/svg" viewBox="0 0 200 200" transform-origin="50% 50%" width="100%" height="100%">
      <path id="turtle-path" d="m 0 0   l 200 0 l 0 200 l -200 0 l -0 -200" stroke="#4488ff" stroke-width="0.25%" fill="transparent" class="foreground-stroke" transform-origin="50% 50%">
      </path>
      <g id="turtle-children">
        <path id="turtle-t1-path" d="m 0 0   l 1 0 l 0.999987 0.005025 l 0.999949 0.010075 l 0.999885 0.015151 l 0.999795 0.020252 l 0.999678 0.025378 l 0.999534 0.030531 l 0.999362 0.035709 l 0.999163 0.040913 l 0.998935 0.046143 l 0.998678 0.051399 l 0.998392 0.056681 l 0.998077 0.06199 l 0.997731 0.067326 l 0.997355 0.072688 l 0.996947 0.078077 l 0.996508 0.083493 l 0.996037 0.088935 l 0.995534 0.094405 l 0.994997 0.099903 l 0.994427 0.105427 l 0.993823 0.110979 l 0.993184 0.116559 l 0.99251 0.122166 l 0.9918 0.127802 l 0.991054 0.133465 l 0.99027 0.139156 l 0.98945 0.144875 l 0.988591 0.150623 l 0.987694 0.156399 l 0.986757 0.162204 l 0.985781 0.168037 l 0.984764 0.173898 l 0.983705 0.179789 l 0.982605 0.185708 l 0.981462 0.191656 l 0.980276 0.197634 l 0.979046 0.20364 l 0.977771 0.209676 l 0.976451 0.215741 l 0.975084 0.221835 l 0.973671 0.227959 l 0.97221 0.234112 l 0.9707 0.240295 l 0.969141 0.246508 l 0.967532 0.25275 l 0.965871 0.259022 l 0.964159 0.265324 l 0.962395 0.271656 l 0.960576 0.278017 l 0.958703 0.284409 l 0.956775 0.29083 l 0.95479 0.297282 l 0.952748 0.303763 l 0.950647 0.310275 l 0.948487 0.316816 l 0.946267 0.323388 l 0.943985 0.329989 l 0.94164 0.336621 l 0.939232 0.343283 l 0.936759 0.349974 l 0.934221 0.356695 l 0.931615 0.363447 l 0.928941 0.370228 l 0.926198 0.377039 l 0.923383 0.383879 l 0.920497 0.390749 l 0.917538 0.397648 l 0.914504 0.404577 l 0.911394 0.411535 l 0.908207 0.418522 l 0.904941 0.425538 l 0.901594 0.432582 l 0.898166 0.439656 l 0.894655 0.446757 l 0.89106 0.453887 l 0.887377 0.461044 l 0.883607 0.468229 l 0.879747 0.475441 l 0.875796 0.482681 l 0.871752 0.489947 l 0.867613 0.497239 l 0.863378 0.504558 l 0.859044 0.511902 l 0.85461 0.519271 l 0.850073 0.526665 l 0.845432 0.534083 l 0.840684 0.541525 l 0.835829 0.54899 l 0.830862 0.556478 l 0.825783 0.563988 l 0.820588 0.57152 l 0.815277 0.579072 l 0.809845 0.586644 l 0.804291 0.594235 l 0.798613 0.601845 l 0.792808 0.609472 l 0.786872 0.617116 l 0.780804 0.624775 l 0.774601 0.63245 l 0.76826 0.640138 l -0.647838 0.761778 l -0.640138 0.76826 l -0.632295 0.774728 l -0.624306 0.78118 l -0.616169 0.787614 l -0.607882 0.794028 l -0.59944 0.80042 l -0.590842 0.806788 l -0.582083 0.813129 l -0.573162 0.819442 l -0.564074 0.825724 l -0.554817 0.831972 l -0.545388 0.838184 l -0.535782 0.844356 l -0.525997 0.850486 l -0.516029 0.856571 l -0.505874 0.862607 l -0.495529 0.868592 l -0.484989 0.87452 l -0.474252 0.880389 l -0.463312 0.886195 l -0.452167 0.891933 l -0.440811 0.8976 l -0.429241 0.90319 l -0.417453 0.908699 l -0.405441 0.914121 l -0.393202 0.919452 l -0.380731 0.924686 l -0.368023 0.929817 l -0.355073 0.934839 l -0.341877 0.939745 l -0.328429 0.944529 l -0.314725 0.949183 l -0.30076 0.9537 l -0.286527 0.958072 l -0.272023 0.962291 l -0.257241 0.966347 l -0.242177 0.970232 l -0.226823 0.973936 l -0.211176 0.977448 l -0.195229 0.980758 l -0.178977 0.983853 l -0.162414 0.986723 l -0.145534 0.989353 l -0.128332 0.991731 l -0.110801 0.993843 l -0.092936 0.995672 l -0.074732 0.997204 l -0.056182 0.998421 l -0.037282 0.999305 l -0.018026 0.999838 l 0.001591 0.999999 l 0.021573 0.999767 l 0.041926 0.999121 l 0.062654 0.998035 l 0.083759 0.996486 l 0.105246 0.994446 l 0.127117 0.991888 l 0.149374 0.988781 l 0.172017 0.985094 l 0.195047 0.980794 l 0.218462 0.975845 l 0.24226 0.970211 l 0.266436 0.963853 l 0.290983 0.956728 l 0.315894 0.948795 l 0.341157 0.940006 l 0.366757 0.930317 l 0.392678 0.919676 l 0.418898 0.908033 l 0.44539 0.895336 l 0.472123 0.881533 l 0.499058 0.866568 l 0.526151 0.850391 l 0.553347 0.832951 l 0.580584 0.8142 l 0.607787 0.7941 l 0.634869 0.77262 l 0.66173 0.749742 l 0.688251 0.725472 l 0.714298 0.699842 l 0.739713 0.672923 l 0.764319 0.644838 l 0.787915 0.615784 l 0.810275 0.586049 l 0.831151 0.556047 l 0.850273 0.526342 l 0.867359 0.497684 l 0.882123 0.471019 l 0.894299 0.447469 l 0.903676 0.428216 l 0.910161 0.414255 l 0.913884 0.405975 l 0.915343 0.402676 l 0.915502 0.402314 l 0.915702 0.401858 l 0.917281 0.398241 l 0.921097 0.389332 l 0.9273 0.374318 l 0.935447 0.353467 l 0.944799 0.327651 l 0.954586 0.297936 l 0.964152 0.265352 l 0.973005 0.230785 l 0.980812 0.194958 l 0.987368 0.158441 l 0.99257 0.121674 l 0.996382 0.084993 l 0.998816 0.04865 l 0.999918 0.012833 l 0.999751 -0.022321 l 0.998391 -0.056713 l 0.995917 -0.090272 l 0.992412 -0.122953 l 0.987957 -0.154727 l 0.98263 -0.185577 l 0.976504 -0.215501 l 0.969649 -0.2445 l 0.962132 -0.272583 l 0.954013 -0.299765 l 0.945349 -0.326061 l 0.936191 -0.351492 l 0.926588 -0.376079 l 0.916584 -0.399843 l 0.906219 -0.422808 l 0.895532 -0.444997 l 0.884556 -0.466434 l 0.873323 -0.487141 l 0.861862 -0.507143 l 0.850199 -0.526461 l 0.838359 -0.545119 l 0.826363 -0.563137 l 0.814233 -0.580538 l 0.801987 -0.597341 l 0.789642 -0.613567 l 0.777215 -0.629235 l 0.764719 -0.644364 l 0.752167 -0.658972 l 0.739573 -0.673076 l 0.726947 -0.686694 l 0.7143 -0.69984 l 0.70164 -0.712532 l 0.688977 -0.724783 l 0.676319 -0.736609 l 0.663672 -0.748024 l 0.651044 -0.75904 l 0.638441 -0.769671 l 0.625867 -0.779929 l 0.61333 -0.789827 l 0.600832 -0.799376 l 0.588378 -0.808586 l 0.575973 -0.817469 l 0.563619 -0.826035 l 0.551321 -0.834293 l 0.539081 -0.842254 l 0.526901 -0.849927 l 0.514785 -0.857319 l 0.502734 -0.864441 l 0.49075 -0.8713 l 0.478836 -0.877904 l 0.466993 -0.884261 l 0.455222 -0.890378 l 0.443525 -0.896262 l 0.431902 -0.901921 l 0.420355 -0.90736 l 0.408885 -0.912586 l 0.397493 -0.917605 l 0.386178 -0.922424 l 0.374942 -0.927048 l 0.363786 -0.931483 l 0.352709 -0.935733 l 0.341712 -0.939805 l 0.330795 -0.943702 l 0.319959 -0.947431 l 0.309203 -0.950996 l 0.298528 -0.954401 l 0.287933 -0.957651 l 0.277419 -0.960749 l 0.266985 -0.963701 l 0.256631 -0.966509 l 0.246358 -0.969179 l 0.236164 -0.971713 l 0.22605 -0.974116 l 0.216016 -0.97639 l 0.20606 -0.978539 l 0.196183 -0.980567 l 0.186385 -0.982477 l -0.984271 -0.176665 l 0.166744 -0.986 l 0.146862 -0.989157 l 0.126937 -0.991911 l 0.106985 -0.994261 l 0.087023 -0.996206 l 0.067066 -0.997749 l 0.047129 -0.998889 l 0.027226 -0.999629 l -0.999973 -0.007373 l -0.002549 -0.999997 l -0.999941 0.010828 l -0.999957 0.009253 l -0.999969 0.00789 l -0.999977 0.006738 l -0.016745 -0.99986 l -0.99967 0.025675 l -0.999693 0.024758 l -0.999711 0.024049 l -0.999723 0.023548 l -0.99973 0.023253 l -0.999732 0.023162 l -0.999729 0.023273 l -0.999722 0.023584 l -0.99971 0.024092 l -0.999693 0.024796 l -0.99967 0.025693 l -0.999641 0.02678 l -0.999606 0.028054 l -0.999564 0.029513 l -0.999515 0.031153 l -0.041062 -0.999157 l -0.061089 -0.998132 l -0.997364 0.07256 l -0.082536 -0.996588 l -0.102611 -0.994722 l -0.122679 -0.992446 l -0.142739 -0.98976 l -0.162773 -0.986664 l -0.182764 -0.983157 l -0.202694 -0.979242 l -0.222547 -0.974922 l -0.242307 -0.9702 l -0.261956 -0.96508 l -0.28148 -0.959567 l -0.300862 -0.953668 l -0.320089 -0.947388 l -0.339145 -0.940734 l -0.358017 -0.933715 l -0.376692 -0.926338 l -0.395158 -0.918613 l -0.413402 -0.910548 l -0.907157 0.420791 l -0.907907 0.419171 l -0.428135 -0.903715 l -0.900136 0.435609 l -0.900804 0.434226 l -0.443142 -0.896452 l -0.892644 0.450762 l -0.893226 0.449608 l -0.893711 0.448643 l -0.894102 0.447864 l -0.894399 0.44727 l -0.894603 0.446862 l -0.894715 0.446637 l -0.894737 0.446594 l -0.894669 0.44673 l -0.894511 0.447045 l -0.894266 0.447535 l -0.893934 0.4482 l -0.893514 0.449035 l -0.893009 0.450039 l -0.892419 0.451208 l -0.891744 0.452541 l -0.890984 0.454034 l -0.462825 -0.88645 l -0.880978 0.473157 l -0.481852 -0.876253 l -0.499292 -0.866434 l -0.860585 0.509306 l -0.517861 -0.855465 l -0.534961 -0.844877 l -0.551888 -0.833919 l -0.568624 -0.822597 l -0.585156 -0.810921 l -0.601467 -0.798897 l -0.617544 -0.786537 l -0.633371 -0.773848 l -0.648937 -0.760842 l -0.664228 -0.74753 l -0.679233 -0.733922 l -0.693941 -0.720032 l -0.70834 -0.705872 l -0.722422 -0.691453 l -0.736177 -0.676789 l -0.749598 -0.661893 l -0.762678 -0.646779 l -0.640411 0.768033 l -0.77434 -0.63277 l -0.786774 -0.617241 l -0.610811 0.791777 l -0.612187 0.790713 l -0.796719 -0.60435 l -0.597715 0.801708 l -0.59891 0.800816 l -0.590955 0.806705 l -0.592063 0.805892 l -0.593 0.805203 l -0.593766 0.804638 l -0.594362 0.804198 l -0.594791 0.803881 l -0.595053 0.803687" stroke="#4488ff" stroke-width="0.25%" fill="transparent" class="foreground-stroke" transform-origin="50% 50%" xmlns="http://www.w3.org/2000/svg">
        </path>
        <path id="turtle-t2-path" d="m 0 0   m 200 0 l 0 1 l -0.005025 0.999987 l -0.010075 0.999949 l -0.015151 0.999885 l -0.020252 0.999795 l -0.025378 0.999678 l -0.030531 0.999534 l -0.035709 0.999362 l -0.040913 0.999163 l -0.046143 0.998935 l -0.051399 0.998678 l -0.056681 0.998392 l -0.06199 0.998077 l -0.067326 0.997731 l -0.072688 0.997355 l -0.078077 0.996947 l -0.083493 0.996508 l -0.088935 0.996037 l -0.094405 0.995534 l -0.099903 0.994997 l -0.105427 0.994427 l -0.110979 0.993823 l -0.116559 0.993184 l -0.122166 0.99251 l -0.127802 0.9918 l -0.133465 0.991054 l -0.139156 0.99027 l -0.144876 0.98945 l -0.150623 0.988591 l -0.156399 0.987694 l -0.162204 0.986757 l -0.168037 0.985781 l -0.173899 0.984764 l -0.179789 0.983705 l -0.185708 0.982605 l -0.191657 0.981462 l -0.197634 0.980276 l -0.203641 0.979046 l -0.209676 0.977771 l -0.215741 0.976451 l -0.221836 0.975084 l -0.22796 0.973671 l -0.234113 0.972209 l -0.240296 0.9707 l -0.246509 0.969141 l -0.252751 0.967531 l -0.259023 0.965871 l -0.265325 0.964159 l -0.271657 0.962394 l -0.278019 0.960576 l -0.28441 0.958703 l -0.290832 0.956774 l -0.297284 0.954789 l -0.303765 0.952747 l -0.310277 0.950646 l -0.316819 0.948486 l -0.32339 0.946266 l -0.329992 0.943984 l -0.336624 0.941639 l -0.343286 0.939231 l -0.349978 0.936758 l -0.356699 0.934219 l -0.363451 0.931613 l -0.370232 0.928939 l -0.377044 0.926196 l -0.383884 0.923381 l -0.390755 0.920495 l -0.397655 0.917535 l -0.404584 0.914501 l -0.411542 0.911391 l -0.41853 0.908203 l -0.425546 0.904937 l -0.432591 0.90159 l -0.439665 0.898162 l -0.446767 0.89465 l -0.453897 0.891054 l -0.461056 0.887371 l -0.468241 0.883601 l -0.475455 0.87974 l -0.482695 0.875789 l -0.489962 0.871744 l -0.497255 0.867604 l -0.504575 0.863368 l -0.51192 0.859033 l -0.51929 0.854598 l -0.526685 0.85006 l -0.534105 0.845418 l -0.541548 0.84067 l -0.549015 0.835813 l -0.556504 0.830845 l -0.564016 0.825764 l -0.571549 0.820568 l -0.579102 0.815255 l -0.586676 0.809822 l -0.594269 0.804266 l -0.601881 0.798586 l -0.60951 0.792778 l -0.617156 0.786841 l -0.624818 0.78077 l -0.632495 0.774565 l -0.640185 0.768221 l -0.76823 -0.640174 l -0.774777 -0.632234 l -0.78131 -0.624144 l -0.787825 -0.615899 l -0.794322 -0.607497 l -0.800798 -0.598934 l -0.807252 -0.590207 l -0.813679 -0.581314 l -0.82008 -0.57225 l -0.826449 -0.563011 l -0.832786 -0.553595 l -0.839087 -0.543997 l -0.845349 -0.534214 l -0.85157 -0.524241 l -0.857745 -0.514075 l -0.863872 -0.503711 l -0.869947 -0.493145 l -0.875966 -0.482373 l -0.881925 -0.471391 l -0.887819 -0.460192 l -0.893645 -0.448774 l -0.899398 -0.43713 l -0.905073 -0.425256 l -0.910665 -0.413147 l -0.916167 -0.400796 l -0.921575 -0.3882 l -0.926882 -0.375352 l -0.932083 -0.362246 l -0.937169 -0.348876 l -0.942134 -0.335237 l -0.94697 -0.321321 l -0.95167 -0.307123 l -0.956224 -0.292635 l -0.960624 -0.277851 l -0.96486 -0.262764 l -0.968922 -0.247367 l -0.972799 -0.231651 l -0.97648 -0.21561 l -0.979952 -0.199235 l -0.983202 -0.182518 l -0.986218 -0.165452 l -0.988983 -0.148027 l -0.991483 -0.130235 l -0.993701 -0.112066 l -0.995618 -0.093512 l -0.997216 -0.074563 l -0.998475 -0.055209 l -0.999372 -0.035441 l -0.999884 -0.015249 l -0.999986 0.005378 l -0.99965 0.02645 l -0.998848 0.047978 l -0.997549 0.069971 l -0.995718 0.092442 l -0.993319 0.1154 l -0.990313 0.138856 l -0.986656 0.16282 l -0.982302 0.187304 l -0.977201 0.212317 l -0.971297 0.237869 l -0.964531 0.263968 l -0.956838 0.290622 l -0.948145 0.31784 l -0.938373 0.345625 l -0.927436 0.373981 l -0.915239 0.402911 l -0.901676 0.432412 l -0.886631 0.462478 l -0.869973 0.4931 l -0.851558 0.524261 l -0.831225 0.555937 l -0.808793 0.588094 l -0.784059 0.620686 l -0.756795 0.653652 l -0.726743 0.686909 l -0.693611 0.72035 l -0.657065 0.753834 l -0.61673 0.787175 l -0.572175 0.820131 l -0.522912 0.852387 l -0.468383 0.883525 l -0.407962 0.912999 l -0.340946 0.940083 l -0.266563 0.963817 l -0.183995 0.982927 l -0.092426 0.99572 l 0.008858 0.999961 l 0.120278 0.99274 l 0.241638 0.970366 l 0.371619 0.928385 l 0.507066 0.861907 l 0.642237 0.766506 l 0.768469 0.639887 l 0.87505 0.484032 l 0.951833 0.306618 l 0.992768 0.120049 l 0.998068 -0.062131 l 0.973364 -0.229266 l 0.9268 -0.375556 l 0.866275 -0.499567 l 0.798039 -0.602606 l 0.726454 -0.687215 l 0.654328 -0.756211 l 0.583359 -0.812214 l 0.514517 -0.85748 l 0.448307 -0.89388 l 0.384955 -0.922935 l 0.32452 -0.945879 l 0.266961 -0.963707 l 0.212184 -0.97723 l 0.160064 -0.987107 l 0.110466 -0.99388 l 0.063251 -0.997998 l 0.018283 -0.999833 l -0.024571 -0.999698 l -0.065435 -0.997857 l -0.104426 -0.994533 l -0.141654 -0.989916 l -0.17722 -0.984171 l -0.211219 -0.977439 l -0.243739 -0.969841 l -0.274862 -0.961484 l -0.304663 -0.95246 l -0.333213 -0.942852 l -0.360577 -0.932729 l -0.386817 -0.922157 l -0.411988 -0.911189 l -0.436145 -0.899876 l -0.459336 -0.888262 l -0.481608 -0.876387 l -0.503004 -0.864284 l -0.523565 -0.851986 l -0.543329 -0.83952 l -0.562331 -0.826912 l -0.580605 -0.814185 l -0.598184 -0.801359 l -0.615096 -0.788452 l -0.63137 -0.775482 l -0.647032 -0.762463 l -0.662108 -0.749408 l -0.676622 -0.736331 l -0.690595 -0.723241 l -0.70405 -0.71015 l -0.717006 -0.697067 l -0.729483 -0.683999 l -0.741499 -0.670954 l -0.753071 -0.657939 l -0.764216 -0.644961 l -0.774949 -0.632024 l -0.785286 -0.619134 l -0.79524 -0.606295 l -0.804825 -0.593512 l -0.814055 -0.580787 l -0.822942 -0.568126 l -0.831496 -0.55553 l -0.839731 -0.543002 l -0.847656 -0.530546 l -0.855283 -0.518162 l -0.86262 -0.505853 l -0.869677 -0.493621 l -0.876464 -0.481467 l -0.88299 -0.469392 l -0.889262 -0.457398 l -0.895289 -0.445486 l -0.901078 -0.433657 l -0.906637 -0.421911 l -0.911974 -0.410249 l -0.917094 -0.398672 l -0.922004 -0.387179 l -0.926712 -0.375773 l -0.931222 -0.364451 l -0.935542 -0.353216 l -0.939676 -0.342066 l -0.94363 -0.331003 l -0.947409 -0.320025 l -0.951019 -0.309134 l -0.954463 -0.298328 l -0.957748 -0.287607 l -0.960878 -0.276972 l -0.963856 -0.266422 l -0.966688 -0.255957 l -0.969377 -0.245576 l -0.971928 -0.23528 l -0.974343 -0.225067 l -0.976628 -0.214937 l -0.978785 -0.20489 l -0.980818 -0.194926 l -0.185043 0.98273 l -0.184784 0.982779 l -0.184432 0.982845 l -0.183888 0.982947 l -0.183153 0.983084 l -0.182231 0.983256 l -0.181122 0.983461 l -0.179831 0.983698 l -0.178359 0.983966 l -0.176709 0.984263 l -0.985956 -0.167006 l -0.989088 -0.147325 l -0.991836 -0.127523 l -0.994192 -0.107617 l -0.096592 0.995324 l -0.996242 -0.086618 l -0.997783 -0.066554 l -0.998921 -0.04644 l -0.999655 -0.02628 l -0.999981 -0.006093 l -0.999901 0.014106 l -0.999412 0.0343 l -0.998515 0.054472 l -0.997213 0.074606 l -0.995507 0.094686 l -0.993401 0.114696 l -0.990897 0.134621 l -0.988001 0.154446 l -0.984718 0.174157 l -0.981053 0.193739 l 0.213181 0.977013 l 0.211455 0.977388 l -0.977732 0.209858 l 0.218158 0.975913 l 0.216895 0.976195 l 0.226568 0.973995 l 0.225419 0.974262 l 0.224475 0.97448 l 0.223736 0.97465 l 0.223199 0.974773 l 0.222863 0.97485 l 0.222728 0.974881 l 0.22279 0.974867 l 0.223048 0.974808 l 0.223499 0.974704 l 0.224142 0.974556 l 0.224974 0.974365 l 0.225992 0.974129 l 0.227194 0.97385 l 0.228576 0.973526 l 0.230136 0.973158 l -0.97082 0.23981 l -0.967922 0.251249 l 0.262618 0.9649 l -0.962262 0.272124 l -0.956642 0.291265 l 0.3023 0.953213 l -0.950162 0.311757 l -0.943721 0.330741 l -0.936884 0.34964 l -0.929653 0.368436 l -0.922032 0.387113 l -0.914026 0.405655 l -0.905641 0.424046 l -0.896883 0.442269 l -0.887758 0.46031 l -0.878276 0.478154 l -0.868444 0.495787 l -0.858271 0.513196 l -0.847767 0.530368 l -0.836942 0.547291 l -0.825806 0.563954 l -0.814371 0.580345 l -0.802647 0.596455 l 0.603098 0.797667 l -0.791672 0.610947 l 0.626527 0.7794 l 0.625141 0.780512 l -0.774263 0.632864 l 0.639293 0.768963 l 0.63812 0.769937 l 0.637044 0.770828 l 0.63613 0.771582 l 0.635377 0.772202 l 0.634785 0.772689 l 0.634354 0.773043 l 0.634081 0.773267 l 0.633966 0.773361 l 0.634008 0.773326 l 0.634205 0.773165 l 0.634554 0.772878 l 0.635055 0.772467 l 0.635705 0.771932 l 0.636502 0.771275 l 0.637443 0.770498 l 0.638526 0.769601 l -0.763198 0.646164 l 0.654964 0.75566 l 0.656228 0.754563 l -0.747989 0.663711 l -0.740134 0.672459 l 0.681088 0.732202 l -0.725442 0.688283 l -0.711564 0.702621 l 0.710766 0.703429 l -0.696327 0.717725 l -0.681798 0.731541 l -0.666958 0.745095 l -0.651818 0.758375 l -0.63639 0.771367 l -0.620686 0.784059 l -0.604717 0.79644" stroke="#4488ff" stroke-width="0.25%" fill="transparent" class="foreground-stroke" transform-origin="50% 50%" xmlns="http://www.w3.org/2000/svg">
        </path>
        <path id="turtle-t3-path" d="m 0 0   m 200 200 l -1 0 l -0.999987 -0.005025 l -0.999949 -0.010076 l -0.999885 -0.015151 l -0.999795 -0.020253 l -0.999678 -0.02538 l -0.999534 -0.030533 l -0.999362 -0.035712 l -0.999163 -0.040917 l -0.998935 -0.046148 l -0.998678 -0.051406 l -0.998392 -0.05669 l -0.998076 -0.062 l -0.99773 -0.067337 l -0.997354 -0.072701 l -0.996946 -0.078092 l -0.996507 -0.083511 l -0.996036 -0.088956 l -0.995532 -0.094428 l -0.994995 -0.099928 l -0.994424 -0.105456 l -0.993819 -0.111011 l -0.99318 -0.116594 l -0.992505 -0.122205 l -0.991794 -0.127844 l -0.991047 -0.133511 l -0.990263 -0.139207 l -0.989442 -0.14493 l -0.988582 -0.150683 l -0.987684 -0.156463 l -0.986746 -0.162273 l -0.985768 -0.168111 l -0.98475 -0.173978 l -0.98369 -0.179874 l -0.982588 -0.185799 l -0.981443 -0.191754 l -0.980255 -0.197738 l -0.979023 -0.203751 l -0.977746 -0.209793 l -0.976423 -0.215865 l -0.975054 -0.221967 l -0.973638 -0.228098 l -0.972174 -0.234259 l -0.970661 -0.24045 l -0.969099 -0.246671 l -0.967487 -0.252922 l -0.965823 -0.259203 l -0.964107 -0.265514 l -0.962338 -0.271855 l -0.960516 -0.278226 l -0.958638 -0.284628 l -0.956705 -0.29106 l -0.954715 -0.297522 l -0.952667 -0.304014 l -0.950561 -0.310537 l -0.948395 -0.31709 l -0.946169 -0.323673 l -0.94388 -0.330287 l -0.941529 -0.336931 l -0.939114 -0.343606 l -0.936634 -0.35031 l -0.934087 -0.357045 l -0.931473 -0.36381 l -0.92879 -0.370605 l -0.926038 -0.377431 l -0.923214 -0.384286 l -0.920318 -0.391171 l -0.917348 -0.398086 l -0.914303 -0.40503 l -0.911182 -0.412004 l -0.907983 -0.419008 l -0.904704 -0.426041 l -0.901345 -0.433103 l -0.897903 -0.440193 l -0.894378 -0.447313 l -0.890767 -0.454461 l -0.887069 -0.461637 l -0.883283 -0.468841 l -0.879406 -0.476073 l -0.875437 -0.483332 l -0.871375 -0.490618 l -0.867217 -0.497931 l -0.862961 -0.50527 l -0.858606 -0.512636 l -0.85415 -0.520027 l -0.849591 -0.527443 l -0.844926 -0.534883 l -0.840154 -0.542348 l -0.835273 -0.549836 l -0.830279 -0.557347 l -0.825172 -0.564881 l -0.819949 -0.572436 l -0.814607 -0.580013 l -0.809145 -0.587609 l -0.803559 -0.595226 l -0.797847 -0.602861 l -0.792006 -0.610513 l -0.786034 -0.618183 l -0.779928 -0.625869 l -0.773686 -0.633569 l 0.641284 -0.767304 l 0.641283 -0.767304 l 0.633461 -0.773775 l 0.625493 -0.78023 l 0.617377 -0.786667 l 0.609111 -0.793085 l 0.600691 -0.799482 l 0.592114 -0.805854 l 0.583378 -0.812201 l 0.574479 -0.818519 l 0.565415 -0.824807 l 0.556181 -0.831061 l 0.546775 -0.837279 l 0.537194 -0.843459 l 0.527433 -0.849597 l 0.517489 -0.85569 l 0.507359 -0.861735 l 0.49704 -0.867728 l 0.486526 -0.873666 l 0.475815 -0.879546 l 0.464902 -0.885362 l 0.453783 -0.891112 l 0.442455 -0.896791 l 0.430912 -0.902394 l 0.419151 -0.907916 l 0.407168 -0.913353 l 0.394957 -0.9187 l 0.382514 -0.92395 l 0.369835 -0.929098 l 0.356914 -0.934137 l 0.343747 -0.939062 l 0.330329 -0.943866 l 0.316654 -0.948541 l 0.302718 -0.95308 l 0.288516 -0.957475 l 0.274041 -0.961718 l 0.259289 -0.9658 l 0.244254 -0.969711 l 0.22893 -0.973443 l 0.213312 -0.976984 l 0.197394 -0.980324 l 0.18117 -0.983452 l 0.164634 -0.986355 l 0.147781 -0.98902 l 0.130605 -0.991435 l 0.113099 -0.993584 l 0.095259 -0.995453 l 0.077077 -0.997025 l 0.058548 -0.998285 l 0.039668 -0.999213 l 0.020429 -0.999791 l 0.000827 -1 l -0.019144 -0.999817 l -0.039488 -0.99922 l -0.06021 -0.998186 l -0.081315 -0.996688 l -0.102806 -0.994701 l -0.124686 -0.992196 l -0.146958 -0.989143 l -0.169623 -0.985509 l -0.192683 -0.981261 l -0.216137 -0.976363 l -0.239983 -0.970777 l -0.264219 -0.964463 l -0.28884 -0.957377 l -0.313839 -0.949476 l -0.339207 -0.940712 l -0.364931 -0.931034 l -0.390998 -0.920391 l -0.417389 -0.908728 l -0.44408 -0.895987 l -0.471043 -0.88211 l -0.498246 -0.867036 l -0.525648 -0.850702 l -0.553201 -0.833048 l -0.580848 -0.814012 l -0.608524 -0.793536 l -0.63615 -0.771566 l -0.663634 -0.748057 l -0.690871 -0.722978 l -0.717738 -0.696313 l -0.744092 -0.668077 l -0.769771 -0.63832 l -0.794591 -0.607145 l -0.818345 -0.574728 l -0.840803 -0.541341 l -0.861718 -0.507387 l -0.880827 -0.473439 l -0.897863 -0.440275 l -0.912572 -0.408915 l -0.924735 -0.380611 l -0.934198 -0.356756 l -0.940918 -0.338634 l -0.945032 -0.326979 l -0.946939 -0.321413 l -0.94738 -0.32011 l -0.947387 -0.320089 l -0.948036 -0.318164 l -0.950098 -0.311951 l -0.95384 -0.300316 l -0.959057 -0.283215 l -0.965267 -0.261267 l -0.971907 -0.235367 l -0.978459 -0.206439 l -0.984512 -0.175317 l -0.989765 -0.142705 l -0.994023 -0.109169 l -0.997171 -0.075162 l -0.999158 -0.041032 l -0.999975 -0.007047 l -0.999647 0.026586 l -0.998216 0.059714 l -0.995738 0.092224 l -0.992278 0.124032 l -0.987902 0.155081 l -0.982677 0.185329 l -0.976668 0.214753 l -0.969941 0.243338 l -0.962557 0.271081 l -0.954571 0.297983 l -0.946039 0.324052 l -0.937011 0.349299 l -0.927534 0.373738 l -0.917651 0.397387 l -0.907402 0.420263 l -0.896825 0.442386 l -0.885952 0.463777 l -0.874817 0.484454 l -0.863447 0.50444 l -0.851869 0.523754 l -0.840109 0.542418 l -0.828187 0.560452 l -0.816126 0.577874 l -0.803943 0.594706 l -0.791657 0.610966 l -0.779283 0.626672 l -0.766837 0.641842 l -0.754331 0.656494 l -0.741778 0.670645 l -0.72919 0.684311 l -0.716577 0.697508 l -0.703949 0.710251 l -0.691314 0.722554 l -0.678681 0.734433 l -0.666057 0.745901 l -0.653449 0.756971 l -0.640863 0.767655 l -0.628305 0.777967 l -0.61578 0.787918 l -0.603294 0.797519 l -0.59085 0.806782 l -0.578452 0.815716 l -0.566105 0.824333 l -0.553811 0.832642 l -0.541574 0.840653 l -0.529396 0.848375 l -0.517281 0.855816 l -0.505229 0.862985 l -0.493244 0.869891 l -0.481328 0.876541 l -0.469481 0.882943 l -0.457705 0.889104 l -0.446003 0.895031 l -0.434375 0.900732 l -0.422821 0.906213 l -0.411344 0.91148 l -0.399944 0.91654 l -0.388621 0.921398 l -0.377376 0.92606 l -0.36621 0.930532 l -0.355124 0.934819 l -0.344116 0.938927 l -0.333189 0.94286 l -0.322342 0.946623 l -0.311574 0.950222 l -0.300887 0.95366 l -0.290281 0.956942 l -0.279754 0.960072 l -0.269308 0.963054 l -0.258942 0.965893 l -0.248655 0.968592 l -0.238449 0.971155 l -0.228322 0.973586 l -0.218274 0.975888 l -0.208305 0.978064 l -0.198415 0.980118 l -0.188603 0.982053 l -0.178869 0.983873 l -0.158763 0.987317 l -0.149182 0.98881 l -0.129202 0.991618 l -0.109195 0.99402 l -0.089177 0.996016 l -0.069164 0.997605 l -0.049171 0.99879 l -0.029213 0.999573 l -0.009305 0.999957 l 0.999944 -0.010538 l 0.999962 -0.008724 l 0.999975 -0.007043 l 0.999984 -0.005575 l 0.004318 0.999991 l 0.999913 -0.013185 l 0.999925 -0.01226 l 0.999753 -0.022218 l 0.999771 -0.021403 l 0.999784 -0.020796 l 0.999792 -0.020396 l 0.999796 -0.020202 l 0.999796 -0.02021 l 0.999791 -0.02042 l 0.999783 -0.020828 l 0.99977 -0.021433 l 0.999753 -0.022232 l 0.99973 -0.023223 l 0.999702 -0.024403 l 0.999668 -0.025769 l 0.999627 -0.027319 l 0.037276 0.999305 l 0.049013 0.998798 l 0.068893 0.997624 l 0.088806 0.996049 l 0.99498 -0.100076 l 0.109984 0.993933 l 0.129895 0.991528 l 0.149795 0.988717 l 0.169666 0.985502 l 0.189492 0.981882 l 0.209255 0.977861 l 0.22894 0.973441 l 0.248529 0.968624 l 0.268008 0.963417 l 0.287361 0.957822 l 0.306572 0.951847 l 0.325628 0.945498 l 0.344515 0.938781 l 0.363219 0.931704 l 0.381727 0.924275 l 0.916503 -0.400027 l 0.409112 0.912484 l 0.427246 0.904135 l 0.900653 -0.43454 l 0.901418 -0.43295 l 0.441864 0.897082 l 0.893375 -0.449313 l 0.894053 -0.44796 l 0.894673 -0.446721 l 0.895197 -0.44567 l 0.895627 -0.444806 l 0.895963 -0.444129 l 0.896207 -0.443637 l 0.896359 -0.443329 l 0.896421 -0.443203 l 0.896394 -0.443259 l 0.896278 -0.443493 l 0.896074 -0.443905 l 0.895783 -0.444492 l 0.895406 -0.445251 l 0.894943 -0.44618 l 0.894396 -0.447276 l 0.893764 -0.448537 l 0.457401 0.88926 l 0.88391 -0.467657 l 0.883124 -0.46914 l 0.477891 0.878419 l 0.872749 -0.488168 l 0.496837 0.867844 l 0.514194 0.857674 l 0.524044 0.851691 l 0.540941 0.841061 l 0.557664 0.830067 l 0.574198 0.818716 l 0.590527 0.807018 l 0.606637 0.794979 l 0.622514 0.782608 l 0.638145 0.769917 l 0.653515 0.756913 l 0.668614 0.74361 l 0.683429 0.730017 l 0.69795 0.716146 l 0.712167 0.70201 l 0.72607 0.687621 l 0.739651 0.672991 l 0.658133 -0.752902 l 0.759424 0.650596 l 0.772285 0.635277 l 0.628864 -0.777516 l 0.783709 0.621128 l 0.795917 0.605405 l 0.598936 -0.800797 l 0.600306 -0.799771 l 0.805667 0.592368 l 0.585629 -0.81058 l 0.586813 -0.809723 l 0.587824 -0.808989 l 0.588663 -0.808378 l 0.589332 -0.807891 l 0.589832 -0.807526 l 0.590164 -0.807284 l 0.590329 -0.807162" stroke="#4488ff" stroke-width="0.25%" fill="transparent" class="foreground-stroke" transform-origin="50% 50%" xmlns="http://www.w3.org/2000/svg">
        </path>
        <path id="turtle-t4-path" d="m 0 0   m 0 200 l 0.005 -0.999988 l 0.010025 -0.99995 l 0.015075 -0.999886 l 0.02015 -0.999797 l 0.02525 -0.999681 l 0.030376 -0.999539 l 0.035528 -0.999369 l 0.040705 -0.999171 l 0.045907 -0.998946 l 0.051136 -0.998692 l 0.056391 -0.998409 l 0.061672 -0.998096 l 0.066979 -0.997754 l 0.072313 -0.997382 l 0.077673 -0.996979 l 0.08306 -0.996545 l 0.088474 -0.996079 l 0.093914 -0.99558 l 0.099381 -0.995049 l 0.104876 -0.994485 l 0.110398 -0.993887 l 0.115947 -0.993255 l 0.121523 -0.992589 l 0.127128 -0.991886 l 0.132759 -0.991148 l 0.138419 -0.990374 l 0.144106 -0.989562 l 0.149822 -0.988713 l 0.155565 -0.987826 l 0.161337 -0.986899 l 0.167137 -0.985934 l 0.172966 -0.984928 l 0.178823 -0.983881 l 0.184708 -0.982793 l 0.190623 -0.981663 l 0.196566 -0.980491 l 0.202538 -0.979274 l 0.208538 -0.978014 l 0.214568 -0.976709 l 0.220627 -0.975358 l 0.226716 -0.973961 l 0.232833 -0.972517 l 0.23898 -0.971024 l 0.245156 -0.969484 l 0.251362 -0.967893 l 0.257597 -0.966252 l 0.263862 -0.96456 l 0.270156 -0.962816 l 0.27648 -0.96102 l 0.282834 -0.959169 l 0.289218 -0.957263 l 0.295631 -0.955302 l 0.302074 -0.953284 l 0.308547 -0.951209 l 0.31505 -0.949075 l 0.321583 -0.946882 l 0.328145 -0.944627 l 0.334737 -0.942312 l 0.341359 -0.939933 l 0.348011 -0.93749 l 0.354693 -0.934983 l 0.361404 -0.932409 l 0.368145 -0.929768 l 0.374915 -0.927059 l 0.381715 -0.92428 l 0.388545 -0.92143 l 0.395403 -0.918508 l 0.402291 -0.915512 l 0.409208 -0.912441 l 0.416154 -0.909294 l 0.423129 -0.906069 l 0.430133 -0.902766 l 0.437165 -0.899381 l 0.444225 -0.895915 l 0.451314 -0.892365 l 0.45843 -0.888731 l 0.465574 -0.885009 l 0.472745 -0.881199 l 0.479943 -0.877299 l 0.487169 -0.873308 l 0.49442 -0.869223 l 0.501698 -0.865043 l 0.509002 -0.860766 l 0.51633 -0.856389 l 0.523684 -0.851912 l 0.531063 -0.847333 l 0.538465 -0.842648 l 0.545891 -0.837856 l 0.553339 -0.832956 l 0.560811 -0.827944 l 0.568303 -0.822819 l 0.575817 -0.817578 l 0.583352 -0.81222 l 0.590906 -0.80674 l 0.598479 -0.801138 l 0.60607 -0.795411 l 0.613679 -0.789556 l 0.621303 -0.78357 l 0.628943 -0.777451 l 0.636598 -0.771196 l 0.644265 -0.764802 l 0.764833 0.644229 l 0.771387 0.636366 l 0.777928 0.628353 l 0.784453 0.620188 l 0.790961 0.611867 l 0.797449 0.603387 l 0.803915 0.594745 l 0.810356 0.585937 l 0.816772 0.576961 l 0.823159 0.567812 l 0.829514 0.558487 l 0.835834 0.548982 l 0.842118 0.539293 l 0.848361 0.529418 l 0.854562 0.51935 l 0.860715 0.509087 l 0.866818 0.498624 l 0.872867 0.487957 l 0.878859 0.477082 l 0.884789 0.465993 l 0.890652 0.454686 l 0.896445 0.443156 l 0.902162 0.431398 l 0.907798 0.419407 l 0.913349 0.407178 l 0.918808 0.394705 l 0.92417 0.381982 l 0.929427 0.369005 l 0.934575 0.355767 l 0.939605 0.342261 l 0.94451 0.328482 l 0.949283 0.314423 l 0.953915 0.300077 l 0.958397 0.285439 l 0.96272 0.270499 l 0.966874 0.255253 l 0.970849 0.239691 l 0.974634 0.223806 l 0.978216 0.207591 l 0.981583 0.191037 l 0.984722 0.174136 l 0.987618 0.15688 l 0.990256 0.139259 l 0.99262 0.121265 l 0.994693 0.102888 l 0.996456 0.084119 l 0.997889 0.064948 l 0.99897 0.045365 l 0.999678 0.02536 l 0.999988 0.004923 l 0.999873 -0.015958 l 0.999304 -0.037292 l 0.998253 -0.059091 l 0.996684 -0.081366 l 0.994564 -0.104129 l 0.991853 -0.127389 l 0.988509 -0.151159 l 0.984488 -0.17545 l 0.97974 -0.200272 l 0.974211 -0.225637 l 0.967843 -0.251554 l 0.960571 -0.278033 l 0.952326 -0.305083 l 0.943029 -0.332712 l 0.932595 -0.360924 l 0.920931 -0.389725 l 0.907933 -0.419116 l 0.893484 -0.449095 l 0.877456 -0.479657 l 0.859705 -0.51079 l 0.840071 -0.542477 l 0.818371 -0.574691 l 0.794401 -0.607394 l 0.76793 -0.640533 l 0.738696 -0.674039 l 0.706397 -0.707816 l 0.670692 -0.741736 l 0.631186 -0.775631 l 0.587429 -0.809276 l 0.538899 -0.84237 l 0.485 -0.874514 l 0.425046 -0.905172 l 0.35826 -0.933622 l 0.283774 -0.958891 l 0.200649 -0.979663 l 0.107929 -0.994159 l 0.004758 -0.999989 l -0.109394 -0.993998 l -0.234334 -0.972156 l -0.36851 -0.929624 l -0.508182 -0.86125 l -0.646639 -0.762796 l -0.774184 -0.632961 l -0.879713 -0.475505 l -0.953997 -0.299817 l -0.992931 -0.118693 l -0.99845 0.055658 l -0.976677 0.214715 l -0.935099 0.354386 l -0.880529 0.473992 l -0.81827 0.574834 l -0.752091 0.659059 l -0.684524 0.72899 l -0.617201 0.786805 l -0.551141 0.834412 l -0.486953 0.873428 l -0.42498 0.905203 l -0.365392 0.930854 l -0.30825 0.951305 l -0.253547 0.967323 l -0.20123 0.979544 l -0.151224 0.9885 l -0.103436 0.994636 l -0.05777 0.99833 l -0.014125 0.9999 l 0.0276 0.999619 l 0.0675 0.997719 l 0.10567 0.994401 l 0.142198 0.989838 l 0.17717 0.98418 l 0.210664 0.977559 l 0.242757 0.970087 l 0.273519 0.961867 l 0.303017 0.952985 l 0.331313 0.943521 l 0.358466 0.933543 l 0.384532 0.923112 l 0.409562 0.912282 l 0.433605 0.901103 l 0.456706 0.889618 l 0.478909 0.877865 l 0.500254 0.865879 l 0.520779 0.853692 l 0.540521 0.841331 l 0.559513 0.828822 l 0.577787 0.816187 l 0.595375 0.803448 l 0.612303 0.790623 l 0.6286 0.777728 l 0.644292 0.76478 l 0.659401 0.751791 l 0.673952 0.738775 l 0.687967 0.725742 l 0.701466 0.712703 l 0.714468 0.699668 l 0.726994 0.686644 l 0.73906 0.67364 l 0.750683 0.660662 l 0.761881 0.647717 l 0.772667 0.634811 l 0.783058 0.621949 l 0.793066 0.609135 l 0.802706 0.596374 l 0.811991 0.58367 l 0.820932 0.571027 l 0.829541 0.558446 l 0.83783 0.545932 l 0.845808 0.533487 l 0.853488 0.521112 l 0.860878 0.508812 l 0.867988 0.496586 l 0.874827 0.484436 l 0.881403 0.472365 l 0.887725 0.460373 l 0.893802 0.448462 l 0.89964 0.436632 l 0.905247 0.424885 l 0.910631 0.413221 l 0.915798 0.40164 l 0.920754 0.390143 l 0.925507 0.378731 l 0.930062 0.367404 l 0.934424 0.356161 l 0.938601 0.345004 l 0.942597 0.333933 l 0.946417 0.322946 l 0.950067 0.312045 l 0.953552 0.301229 l 0.956876 0.290498 l 0.960043 0.279852 l 0.963059 0.269291 l 0.965927 0.258814 l 0.968652 0.248421 l 0.971238 0.238112 l 0.973688 0.227886 l 0.976006 0.217743 l 0.207683 -0.978196 l 0.980239 0.197817 l 0.187716 -0.982223 l 0.18731 -0.982301 l 0.186711 -0.982415 l 0.185922 -0.982565 l 0.184944 -0.982749 l 0.18378 -0.982967 l 0.182434 -0.983218 l 0.180906 -0.9835 l 0.985251 0.171114 l 0.987192 0.159539 l 0.990169 0.139878 l 0.992762 0.120102 l 0.994965 0.100227 l 0.996773 0.08027 l 0.069388 -0.99759 l 0.998234 0.059398 l 0.999226 0.03933 l 0.999815 0.019223 l 1 -0.000908 l 0.999779 -0.021046 l 0.999152 -0.041174 l 0.998121 -0.061276 l 0.996687 -0.081336 l 0.994852 -0.101338 l 0.99262 -0.121267 l 0.989994 -0.141107 l 0.98698 -0.160845 l 0.983581 -0.180466 l -0.199957 -0.979805 l 0.977773 -0.209668 l -0.217756 -0.976003 l -0.216221 -0.976344 l 0.974145 -0.225923 l -0.234208 -0.972187 l -0.232918 -0.972496 l -0.231835 -0.972755 l -0.230958 -0.972964 l -0.230284 -0.973123 l -0.229814 -0.973235 l -0.229545 -0.973298 l -0.229475 -0.973315 l -0.229603 -0.973284 l -0.229926 -0.973208 l -0.230443 -0.973086 l -0.23115 -0.972918 l -0.232046 -0.972705 l -0.233126 -0.972446 l -0.23439 -0.972143 l -0.235833 -0.971794 l -0.237453 -0.971399 l -0.239246 -0.970959 l 0.968544 -0.248843 l 0.963365 -0.268195 l -0.279447 -0.960161 l 0.957326 -0.28901 l 0.951312 -0.308229 l 0.947709 -0.319135 l 0.941144 -0.338006 l 0.934185 -0.356788 l 0.926837 -0.375463 l 0.919104 -0.394016 l 0.91099 -0.412429 l 0.902501 -0.430688 l 0.893644 -0.448777 l 0.884425 -0.466682 l 0.874854 -0.484387 l 0.864938 -0.50188 l 0.854685 -0.519146 l 0.844107 -0.536175 l 0.833212 -0.552954 l 0.822011 -0.569471 l -0.585717 -0.810516 l 0.804642 -0.59376 l 0.792611 -0.609728 l -0.616234 -0.787563 l 0.781424 -0.624001 l -0.63043 -0.776246 l -0.629204 -0.77724 l 0.770956 -0.636889 l -0.64341 -0.765522 l -0.64239 -0.766378 l -0.641531 -0.767097 l -0.640833 -0.76768 l -0.640295 -0.768129 l -0.639917 -0.768444 l -0.639697 -0.768627 l -0.639635 -0.768679 l -0.639728 -0.768602 l -0.639974 -0.768396 l -0.640373 -0.768064 l -0.640922 -0.767606 l -0.641618 -0.767024 l -0.64246 -0.766319 l -0.643445 -0.765493 l -0.64457 -0.764546 l -0.645832 -0.763479 l 0.757043 -0.653365 l -0.662163 -0.74936 l -0.663512 -0.748165 l 0.741559 -0.670888 l 0.727968 -0.685611 l -0.694046 -0.719931 l 0.712969 -0.701196 l 0.698705 -0.71541 l 0.684128 -0.729362 l 0.669237 -0.743049 l 0.654042 -0.756458 l 0.638555 -0.769577 l 0.622787 -0.782391 l 0.606753 -0.794891 l 0.590464 -0.807064" stroke="#4488ff" stroke-width="0.25%" fill="transparent" class="foreground-stroke" transform-origin="50% 50%" xmlns="http://www.w3.org/2000/svg">
        </path>
      </g>
    </svg>
  </symbol>
  <use href="#turtle-symbol" width="100%" height="100%" transform-origin="50% 50%" />
</svg>