<svg xmlns="http://www.w3.org/2000/svg" width="100%" height="100%" transform-origin="50% 50%">
  <symbol id="turtle-symbol" viewBox="0 0 200 200" transform-origin="50% 50%">
    <svg xmlns="http://www.w3.org/2000/svg" viewBox="0 0 200 200" transform-origin="50% 50%" width="100%" height="100%">
      <path id="turtle-path" d="m 0 0  l 200 0  l 0 200  l -200 0  l -0 -200" stroke="currentcolor" stroke-width="0.25%" fill="transparent" class="foreground-stroke" transform-origin="50% 50%">
      </path>
      <g id="turtle-children">
        <path id="turtle-t1-path" d="m 0 0  l 1 0  l 0.999987374295327 0.005025062182389  l 0.999949242767138 0.010075310884859  l 0.999885218976018 0.01515087038032  l 0.999794909954238 0.020251864842437  l 0.999677916073023 0.025378418309616  l 0.99953383090659 0.030530654647369  l 0.999362241092894 0.035708697508989  l 0.999162726190973 0.040912670294465  l 0.998934858534792 0.046142696107567  l 0.998678203083502 0.051398897711025  l 0.99839231726799 0.056681397479715  l 0.998076750833635 0.061990317351781  l 0.99773104567914 0.06732577877759  l 0.997354735691345 0.072687902666447  l 0.996947346575885 0.07807680933096  l 0.996508395683586 0.083492618428968  l 0.996037391832474 0.088935448902917  l 0.995533835125248 0.094405418916584  l 0.994997216762112 0.099902645789039  l 0.994427018848804 0.105427245925709  l 0.993822714199689 0.110979334746445  l 0.993183766135767 0.116559026610445  l 0.992509628277444 0.122166434737902  l 0.991799744331904 0.127801671128237  l 0.991053547874919 0.133464846474774  l 0.990270462126933 0.139156070075693  l 0.989449899723232 0.144875449741098  l 0.98859126247804 0.150623091696045  l 0.987693941142324 0.156399100479333  l 0.98675731515514 0.16220357883789  l 0.985780752388309 0.16803662761654  l 0.984763608884203 0.173898345642966  l 0.983705228586447 0.179788829607642  l 0.982604943063296 0.185708173938512  l 0.981462071223462 0.191656470670185  l 0.980275919024154 0.197633809307394  l 0.979045779171071 0.203640276682465  l 0.97777093081011 0.209675956806522  l 0.976450639210501 0.215740930714142  l 0.975084155439101 0.221835276301167  l 0.973670716025569 0.22795906815535  l 0.972209542618109 0.234112377379511  l 0.970699841629481 0.240295271406867  l 0.969140803872961 0.246507813808146  l 0.967531604187911 0.252750064090137  l 0.965871401054628 0.259022077485241  l 0.964159336198098 0.265323904731636  l 0.9623945341803 0.271655591843577  l 0.960576101980658 0.278017179871395  l 0.95870312856427 0.284408704650686  l 0.95677468443746 0.290830196540178  l 0.954789821190264 0.297281680147742  l 0.95274757102537 0.303763174043956  l 0.950646946273071 0.310274690462636  l 0.948486938891737 0.316816234987702  l 0.946266519953306 0.323387806225683  l 0.943984639113282 0.329989395463198  l 0.941640224064692 0.336620986308631  l 0.939232179975445 0.343282554317245  l 0.936759388908505 0.349974066598889  l 0.93422070922428 0.356695481407439  l 0.931614974964585 0.363446747711045  l 0.928940995217541 0.370227804742221  l 0.926197553462708 0.377038581526737  l 0.923383406895759 0.383878996390244  l 0.920497285731955 0.390748956441477  l 0.917537892487652 0.39764835703083  l 0.914503901239044 0.404577081183017  l 0.91139395685732 0.411534999002465  l 0.908206674219359 0.418521967050012  l 0.904940637393084 0.425537827689382  l 0.901594398796526 0.432582408401835  l 0.898166478329631 0.439655521067288  l 0.894655362477816 0.446756961210105  l 0.891059503386193 0.45388650720764  l 0.887377317903392 0.461043919459505  l 0.883607186593835 0.468228939515412  l 0.879747452717277 0.475441289159305  l 0.875796421174378 0.48268066944736  l 0.871752357417029 0.489946759697268  l 0.867613486322094 0.49723921642608  l 0.863377991027176 0.504557672233688  l 0.859044011726968 0.511901734628861  l 0.854609644428673 0.519270984794546  l 0.850072939664941 0.526664976288917  l 0.845431901162688 0.534083233678463  l 0.8406844844661 0.541525251099122  l 0.835828595512075 0.548990490741244  l 0.830862089156248 0.556478381253859  l 0.825782767647721 0.563988316063436  l 0.820588379050503 0.571519651601996  l 0.815276615609613 0.57907170543909  l 0.8098451120597 0.586643754311773  l 0.804291443873982 0.594235032046332  l 0.798613125451184 0.601844727365033  l 0.792807608238106 0.609471981570748  l 0.786872278785335 0.617115886101771  l 0.780804456733545 0.624775479948624  l 0.774601392727737 0.632449746924015  l 0.768260266256664 0.640137612776534  l -0.64783794213795 0.761778183414612  l -0.640137640303492 0.768260243320372  l -0.632294594388536 0.774728046418249  l -0.624306104934546 0.781179804745012  l -0.616169411148822 0.78761364688819  l -0.607881689423708 0.794027613917412  l -0.599440051833264 0.800419655092335  l -0.590841544609209 0.806787623333306  l -0.582083146598274 0.813129270439979  l -0.57316176770353 0.819442242042089  l -0.564074247312675 0.825724072265451  l -0.554817352716795 0.831972178095114  l -0.54538777752367 0.838183853416297  l -0.535782140070366 0.844356262712381  l -0.525996981840563 0.850486434397762  l -0.516028765892928 0.856571253761777  l -0.505873875307752 0.862607455498222  l -0.495528611660149 0.868591615793156  l -0.484989193529302 0.874520143941692  l -0.474251755054604 0.880389273462386  l -0.463312344551067 0.886195052675534  l -0.452166923198105 0.891933334709248  l -0.440811363817754 0.89759976689454  l -0.429241449760627 0.903189779507826  l -0.41745287392038 0.908698573816211  l -0.405441237900347 0.914121109377655  l -0.393202051359198 0.919452090544645  l -0.380730731566142 0.924685952116236  l -0.368022603200353 0.929816844079325  l -0.355072898433992 0.934838615375768  l -0.341876757343558 0.93974479662739  l -0.328429228700385 0.944528581746085  l -0.314725271198037 0.949182808351122  l -0.300759755182204 0.953699936910316  l -0.286527464957734 0.958072028516068  l -0.272023101757629 0.962290721201321  l -0.257241287470579 0.966347204694296  l -0.242176569236945 0.970232193504536  l -0.226823425038392 0.973935898226291  l -0.211176270423868 0.977447994938792  l -0.19522946653469 0.980757592576566  l -0.178977329614462 0.983853198136834  l -0.162414142215991 0.986722679585426  l -0.145534166347673 0.989353226317824  l -0.128331658836762 0.991731307028373  l -0.110800889227139 0.9938426248388  l -0.09293616057555 0.995672069537694  l -0.074731833563808 0.997203666786375  l -0.056182354406266 0.998420524154711  l -0.037282287103392 0.99930477386448  l -0.018026350675037 0.999837512139518  l 0.001590537897045 0.999998735093799  l 0.021573214176613 0.999767271133682  l 0.041926209260281 0.999120709913003  l 0.062653684124711 0.998035327964697  l 0.083759354039117 0.996486011246997  l 0.105246401545644 0.994446174994752  l 0.127117376274146 0.991887681468611  l 0.149374079583268 0.988780756461538  l 0.172017431700367 0.985093905773054  l 0.195047318661573 0.980793833322238  l 0.218462415922363 0.975845363174599  l 0.242259985009652 0.970211368549721  l 0.266435639009327 0.963852711914892  l 0.290983072018839 0.95672820163225  l 0.315893746933783 0.948794572417093  l 0.341156535072891 0.940006499220649  l 0.366757300173609 0.930316657256746  l 0.392678418213058 0.919675844996317  l 0.418898223340901 0.908033192389924  l 0.4453903689847 0.895336483795714  l 0.472123091968645 0.881532634693672  l 0.499058366385347 0.866568374071422  l 0.526150933165299 0.850391201465117  l 0.553347191101842 0.832950710486342  l 0.580583935987726 0.814200401174674  l 0.607786937238361 0.794100144139524  l 0.634869347033778 0.772619513212619  l 0.66172994727148 0.749742273640805  l 0.688251256918648 0.725472402886493  l 0.714297550150572 0.699842132090438  l 0.739712878743393 0.672922623353653  l 0.764319256877914 0.64483802118485  l 0.787915260776573 0.615783681040172  l 0.810275429157566 0.586049254673635  l 0.831151036141774 0.556046720267691  l 0.850273069315779 0.526341816309824  l 0.867358644468918 0.497683616231278  l 0.882122809181966 0.471019478918777  l 0.894299207135132 0.447469471715641  l 0.90367628144778 0.428216275202977  l 0.910160961465312 0.41425478177631  l 0.913884204408801 0.405974951114097  l 0.915342750837334 0.402675611987544  l 0.915501879862764 0.402313693487738  l 0.915701991496841 0.40185801319461  l 0.917280607311178 0.398241493883844  l 0.921097361426284 0.389332314062855  l 0.927300474053746 0.374317820601287  l 0.935446986565248 0.353467021553633  l 0.944798932871941 0.327650692726326  l 0.95458575627822 0.29793629169797  l 0.964151665246823 0.2653517785917  l 0.973004875228968 0.230784559233628  l 0.980811666311535 0.194957624183282  l 0.987368471472087 0.158440845563493  l 0.992570073166929 0.121674359884885  l 0.996381516637745 0.084993372110224  l 0.998815875628644 0.048650247606618  l 0.999917656508966 0.012832778406007  l 0.999750849795879 -0.022321252931187  l 0.998390541194502 -0.056712672775567  l 0.995917141725716 -0.090272071078935  l 0.99241249933375 -0.12295296322635  l 0.987957341226193 -0.15472650683471  l 0.982629646831559 -0.185577415564732  l 0.976503665321116 -0.215500792607419  l 0.969649375180938 -0.244499671188361  l 0.962132243370391 -0.272583099745854  l 0.954013184310896 -0.299764647950661  l 0.945348649139988 -0.326061238986175  l 0.936190796937779 -0.351492235659633  l 0.926587714593141 -0.376078724690803  l 0.91658366248578 -0.399842956251769  l 0.906219330534039 -0.42280790551554  l 0.895532094324167 -0.444996930366234  l 0.88455626464705 -0.466433505093339  l 0.873323326281887 -0.487141014257618  l 0.861862163605946 -0.507142594291267  l 0.850199271803218 -0.526461013015472  l 0.838358953253359 -0.545118579301726  l 0.826363499219751 -0.563137076702722  l 0.814233357302451 -0.580537716135636  l 0.801987285335634 -0.597341103692003  l 0.789642492530515 -0.613567220433259  l 0.777214768722505 -0.629235411654194  l 0.764718602596165 -0.644364383593141  l 0.752167289747699 -0.65897220596441  l 0.739573031412681 -0.673076319006291  l 0.726947024643518 -0.686693543993196  l 0.714299544671868 -0.699840096365993  l 0.701640020139267 -0.712531600800252  l 0.688977101826947 -0.724783107666108  l 0.67631872546472 -0.736609110441743  l 0.663672169149887 -0.748023563730371  l 0.651044105860977 -0.759039901601807  l 0.638440651508017 -0.76967105603759  l 0.62586740892112 -0.779929475305532  l 0.613329508142425 -0.789827142127802  l 0.600831643352754 -0.799375591537563  l 0.58837810673363 -0.808585928344384  l 0.575972819537272 -0.81746884414899  l 0.563619360611812 -0.826034633864424  l 0.551320992605881 -0.834293211714003  l 0.539080686055852 -0.842254126687161  l 0.526901141540106 -0.84992657744286  l 0.51478481006762 -0.857319426657092  l 0.502733911852679 -0.864441214816428  l 0.490750453613601 -0.871300173463798  l 0.478836244520685 -0.877904237906007  l 0.466992910907224 -0.884261059395017  l 0.455221909847088 -0.890378016796894  l 0.443524541693055 -0.896262227763708  l 0.431901961661663 -0.901920559424613  l 0.420355190542671 -0.907359638612956  l 0.408885124604374 -0.912585861646599  l 0.397492544759692 -0.917605403678762  l 0.386178125052349 -0.92242422763664  l 0.374942440517263 -0.927048092764857  l 0.363785974464654 -0.931482562790524  l 0.352709125233104 -0.935733013726297  l 0.341712212452987 -0.93980464132738  l 0.330795482858198 -0.943702468217929  l 0.319959115680904 -0.94743135070183  l 0.309203227661188 -0.950995985272232  l 0.298527877700802 -0.954400914833727  l 0.28793307118786 -0.957650534650468  l 0.277418764017116 -0.960749098032996  l 0.266984866328473 -0.963700721775992  l 0.256631245984552 -0.966509391358623  l 0.246357731806508 -0.969178965918655  l 0.236164116585719 -0.971713183010958  l 0.226050159887639 -0.974115663160578  l 0.216015590662781 -0.976389914220036  l 0.206060109678677 -0.978539335540075  l 0.196183391785575 -0.980567221962629  l 0.186385088027646 -0.982476767644368  l -0.984271069718761 -0.17666482761061  l 0.166744460966424 -0.986000144389957  l 0.146861662091545 -0.989157041226371  l 0.126936602406173 -0.991910832166671  l 0.1069851681327 -0.994260616639127  l 0.087023068339222 -0.996206296696034  l 0.06706578541916 -0.997748555712365  l 0.047128528449486 -0.998888833557662  l 0.027226189668994 -0.999629298588286  l -0.999972816822584 -0.007373304273235  l -0.002549271314717 -0.999996750602603  l -0.999941374758825 0.010828067483676  l -0.99995719362529 0.009252616766852  l -0.999968875929129 0.007889687765361  l -0.999977296575127 0.006738422241131  l -0.016745132161761 -0.999859790445083  l -0.99967033323553 0.025675374364628  l -0.999693480741002 0.024757717260268  l -0.999710778769054 0.024049091728605  l -0.999722706897557 0.023548021433247  l -0.99972961598283 0.023252847714255  l -0.999731730886667 0.023161741263305  l -0.999729153716576 0.023272713832682  l -0.999721867521265 0.023583629911325  l -0.999709740383234 0.024092218305668  l -0.999692529850901 0.024796083567868  l -0.999669887653872 0.025692717218988  l -0.999641364646705 0.026779508719779  l -0.999606415928816 0.028053756146867  l -0.999564406090778 0.029512676537215  l -0.999514614540331 0.031153415868797  l -0.041062296035507 -0.999156588250457  l -0.061088627389384 -0.998132345735615  l -0.997364035418872 0.072560187795941  l -0.082535862725056 -0.99658809513471  l -0.102610900163868 -0.994721570675714  l -0.12267904428464 -0.992446397592035  l -0.142738842794436 -0.989760386536916  l -0.162772815484451 -0.98666357515582  l -0.182763615570399 -0.983156885152942  l -0.202694091806606 -0.979242107523311  l -0.222547348353683 -0.974921882891519  l -0.242306801953591 -0.970199677245372  l -0.261956236009647 -0.965079753396401  l -0.281479851217014 -0.959567138536355  l -0.300862312440473 -0.953667588289007  l -0.320088791589757 -0.947387547679728  l -0.339145006297204 -0.940734109461154  l -0.358017254257151 -0.933714970242081  l -0.376692443140067 -0.926338384868708  l -0.395158116046341 -0.918613119502822  l -0.41340247251379 -0.910548403831166  l -0.907157480286284 0.420791285509383  l -0.907907189683049 0.419171247727977  l -0.428134961403916 -0.9037148083459  l -0.900136175451589 0.435608615207948  l -0.900804099447341 0.43422571828355  l -0.443141533275204 -0.896451661544838  l -0.892644221152797 0.450761904382475  l -0.893225745942812 0.449608459423204  l -0.893711276984403 0.448642567519967  l -0.8941019311862 0.447863524579873  l -0.894398792857545 0.447270387277054  l -0.894602910353303 0.446861984048096  l -0.894715293200499 0.446636926499753  l -0.894736909688259 0.446593621138395  l -0.894668684899436 0.446730281333506  l -0.894511499159796 0.447044939431031  l -0.894266186878632 0.447535458936554  l -0.89393353575324 0.448199546692888  l -0.89351428630873 0.449034764981733  l -0.893009131744143 0.450038543484413  l -0.892418718055778 0.45120819104232  l -0.891743644408912 0.452540907163443  l -0.89098446372973 0.454033793227163  l -0.462825161537926 -0.886449586748955  l -0.88097818476479 0.473156885153894  l -0.481851801004183 -0.87625272716781  l -0.499292249985689 -0.866433638026726  l -0.860585483582985 0.50930602337518  l -0.517860954772759 -0.855464804373533  l -0.53496110415519 -0.844876687476379  l -0.551887600894386 -0.833918506797301  l -0.568624419027879 -0.822597270895794  l -0.585155989191072 -0.810920753411711  l -0.601467251190246 -0.798897456339454  l -0.61754370275448 -0.786536569517455  l -0.633371444141132 -0.773847926757304  l -0.648937218325174 -0.760841959064026  l -0.664228446560554 -0.747529645418664  l -0.679233259160514 -0.733922461606256  l -0.693940521402549 -0.720032327576727  l -0.708339854521177 -0.705871553823298  l -0.72242165180703 -0.691452787253332  l -0.736177089883058 -0.676788957010464  l -0.749598135277173 -0.661893220685168  l -0.762677546454689 -0.646778911324307  l -0.640410671196952 0.768032663509222  l -0.774339543828993 -0.632770314460711  l -0.786774363733332 -0.617240715257841  l -0.610810666613898 0.791776691719758  l -0.612186747194568 0.790713213851479  l -0.796718671404723 -0.604350360829786  l -0.597715322811317 0.801708421358142  l -0.598910113430893 0.800816256097611  l -0.590954521487415 0.806704873874939  l -0.592063194860509 0.805891539409347  l -0.592999818069862 0.805202592997011  l -0.593765667181404 0.804638013318177  l -0.594362100229978 0.804197546508449  l -0.594790549205127 0.803880714146237  l -0.595052512271922 0.803686821864633" stroke="currentcolor" stroke-width="0.25%" fill="transparent" class="foreground-stroke" transform-origin="50% 50%" xmlns="http://www.w3.org/2000/svg">
        </path>
        <path id="turtle-t2-path" d="m 0 0  m 200 0  l 0 1  l -0.005025062182388 0.999987374295327  l -0.010075310886477 0.999949242767122  l -0.015150870390152 0.999885218975869  l -0.020251864875616 0.999794909953566  l -0.025378418393584 0.999677916070891  l -0.03053065482587 0.999533830901138  l -0.035708697846284 0.999362241080842  l -0.040912670879792 0.999162726167005  l -0.046142697059842 0.998934858490804  l -0.051398899183806 0.998678203007702  l -0.056681399666432 0.998392317143844  l -0.061990320491241 0.998076750638644  l -0.067325783159781 0.997731045383435  l -0.072687908638633 0.997354735256088  l -0.0780768173041 0.996947345951461  l -0.083492628884452 0.996508394807572  l -0.088935462399649 0.99603739062736  l -0.094405436098411 0.995533833495913  l -0.099902667392549 0.994997214593013  l -0.105427272788407 0.994427016000872  l -0.110979367815329 0.993822710506914  l -0.116559066950981 0.993183761401442  l -0.122166483543438 0.992509622270047  l -0.127801729729849 0.991799736780596  l -0.133464916351574 0.991053538464632  l -0.139156152865607 0.990270450493018  l -0.144875547252144 0.989449885445641  l -0.150623205918118 0.988591245075005  l -0.156399233596521 0.987693920063509  l -0.162203733241334 0.986757289774225  l -0.168036805917873 0.985780721994967  l -0.173898550688331 0.984763572675441  l -0.179789064492322 0.983705185657256  l -0.185708442022194 0.982604892396577  l -0.191656775592879 0.981462011679179  l -0.197634155006021 0.980275849327655  l -0.203640667408152 0.979045697900544  l -0.209676397142612 0.977770836383093  l -0.215741425594961 0.976450529869411  l -0.221835831031551 0.975084029235707  l -0.227959688430977 0.973670570804341  l -0.234113069308057 0.972209375998381  l -0.240296041530002 0.970699650986345  l -0.246508669124419 0.969140586316819  l -0.25275101207875 0.967531356542602  l -0.259023126130766 0.965871119834031  l -0.26532506254968 0.964159017581129  l -0.27165686790744 0.962394173984194  l -0.278018583839741 0.960575695632439  l -0.284410246796257 0.958702671070281  l -0.29083188777958 0.956774170350854  l -0.29728353207233 0.95478924457631  l -0.303765198951847 0.952746925424451  l -0.310276901391889 0.950646224661229  l -0.316818645750665 0.948486133638608  l -0.32339043144457 0.946265622777291  l -0.329992250606896 0.943983641033782  l -0.336624087730775 0.941639115351218  l -0.343285919295579 0.93923095009342  l -0.349977713375948 0.936758026461553  l -0.356699429232561 0.93421920189277  l -0.363451016883746 0.931613309440226  l -0.370232416656936 0.928939157133752  l -0.37704355871896 0.926195527320523  l -0.38388436258407 0.92338117598499  l -0.390754736598556 0.920494832047303  l -0.397654577400744 0.917535196639473  l -0.404583769355077 0.91450094235842  l -0.411542183958933 0.911390712495092  l -0.418529679220731 0.908203120238745  l -0.425546099007804 0.904936747855473  l -0.432591272362426 0.901590145840036  l -0.439665012784284 0.89816183203997  l -0.446767117477575 0.894650290750961  l -0.453897366560814 0.891053971782382  l -0.461055522237306 0.887371289491882  l -0.468241327924126 0.883600621787837  l -0.475454507337299 0.879740309098456  l -0.482694763530752 0.87578865330626  l -0.489961777886433 0.871743916646606  l -0.497255209052857 0.867604320568887  l -0.504574691829128 0.863368044558948  l -0.511919835991344 0.859033224921246  l -0.519290225058056 0.85459795351917  l -0.526685414991239 0.850060276471914  l -0.534104932829037 0.845418192806193  l -0.541548275246262 0.840669653061057  l -0.549014907038363 0.835812557843957  l -0.556504259524323 0.830844756336155  l -0.564015728863619 0.825764044745496  l -0.571548674282034 0.820568164704462  l -0.5791024162008 0.815254801611371  l -0.586676234263117 0.809821582912464  l -0.594269365251732 0.804266076322571  l -0.601881000890779 0.798585787981926  l -0.609510285524633 0.792778160546618  l -0.617156313666 0.786840571210073  l -0.62481812740491 0.780770329652851  l -0.632494713669688 0.774564675917963  l -0.640185001330322 0.768220778208775  l -0.768230095591904 -0.640173820322929  l -0.774777295572509 -0.632234246356008  l -0.781309687214752 -0.624143551328047  l -0.787825365381814 -0.615898687822122  l -0.794322331326139 -0.607496529995528  l -0.800798487773597 -0.59893387112395  l -0.807251633709064 -0.590207421059789  l -0.813679458842321 -0.581313803601865  l -0.820079537731426 -0.57224955377371  l -0.826449323538858 -0.563011115007657  l -0.832786141393632 -0.553594836231973  l -0.83908718133039 -0.543996968858302  l -0.8453494907739 -0.534213663666803  l -0.851569966534776 -0.524240967586435  l -0.857745346279176 -0.514074820368024  l -0.863872199431989 -0.503711051147916  l -0.869946917469367 -0.493145374900289  l -0.875965703552517 -0.48237338877652  l -0.881924561450228 -0.471390568330363  l -0.887819283692754 -0.460192263628243  l -0.893645438894306 -0.448773695244499  l -0.899398358175448 -0.437129950142185  l -0.905073120610045 -0.425255977440877  l -0.910664537614142 -0.413146584074009  l -0.916167136185919 -0.400796430339508  l -0.921575140896839 -0.388200025349009  l -0.926882454523942 -0.375351722382718  l -0.93208263720194 -0.362245714159156  l -0.93716888396112 -0.348876028031546  l -0.942134000502894 -0.335236521125628  l -0.946970377048936 -0.321320875437306  l -0.951669960082026 -0.30712259291279  l -0.956224221776601 -0.292634990538954  l -0.960624126894394 -0.277851195477692  l -0.96486009689498 -0.262764140285181  l -0.968921970982128 -0.24736655826548  l -0.972798963774112 -0.231650979018034  l -0.976479619248934 -0.215609724250685  l -0.979951760573114 -0.199234903944198  l -0.983202435374518 -0.18251841297145  l -0.986217855964631 -0.165451928294979  l -0.988983333952724 -0.148026906891126  l -0.991483208622146 -0.130234584578501  l -0.993700768355974 -0.112065975963926  l -0.995618164303736 -0.093511875761636  l -0.997216315370558 -0.074562861793033  l -0.99847480348253 -0.05520930003653  l -0.999371757934043 -0.035441352172566  l -0.999883727450883 -0.015248986160682  l -0.999985538402327 0.005378009502456  l -0.999650137361375 0.026450007058295  l -0.998848415937922 0.047977515341086  l -0.997549015487669 0.069971149051467  l -0.995718108920476 0.092441590033013  l -0.993319156384441 0.115399538819283  l -0.990312631072615 0.13885565432504  l -0.986655710771285 0.162820479063325  l -0.982301930022002 0.187304346652849  l -0.977200786879425 0.212317267602597  l -0.97129729718369 0.237868788376404  l -0.964531487993126 0.263967817488736  l -0.956837820296781 0.290622410783658  l -0.948144529293458 0.317839505994593  l -0.938372868321516 0.345624594029492  l -0.927436239876851 0.373981310981027  l -0.915239193978711 0.402910930362033  l -0.901676270336983 0.432411729155428  l -0.88663065623678 0.462478193454716  l -0.869972626686383 0.493100019079695  l -0.851557727097551 0.524260848643548  l -0.831224651572168 0.555936667812736  l -0.808792761885307 0.588093758104894  l -0.784059183886899 0.620686068929059  l -0.756795410217817 0.653651824041856  l -0.726743332833819 0.686909112023995  l -0.693610629467599 0.720350119517975  l -0.657065441558952 0.753833539655102  l -0.616730319615572 0.787174512333113  l -0.572175497558212 0.820131209011102  l -0.522911729923665 0.852386838652639  l -0.468383255100857 0.883525396545637  l -0.407962057682271 0.912998882524862  l -0.340945708056597 0.940082987909996  l -0.26656302090246 0.963817490963592  l -0.183995184589269 0.98292714483219  l -0.092425741147752 0.995719580189768  l 0.008858120681317 0.999960766079347  l 0.120277613617697 0.99274029618145  l 0.241638460926932 0.970366350509365  l 0.37161944535241 0.928385150589973  l 0.50706592999704 0.861907270323343  l 0.642236660929145 0.766506406599829  l 0.768468910012165 0.639887126253307  l 0.875050085559155 0.484032382969275  l 0.951832510383264 0.306618447223081  l 0.992767985206508 0.120048854842559  l 0.998068014639654 -0.062130814844653  l 0.973363831056189 -0.229265898885158  l 0.926799551255612 -0.375556376317052  l 0.866275397201686 -0.499566748496196  l 0.798038975478651 -0.602605836029644  l 0.726453763299135 -0.687215344552582  l 0.654327630752528 -0.756211181902108  l 0.583359317716666 -0.812214199847027  l 0.514516545024581 -0.857480451611562  l 0.448306642371114 -0.893879832195546  l 0.384955372477891 -0.922935187973895  l 0.324520337310033 -0.945878718796539  l 0.266961351708343 -0.963707235987182  l 0.212183585238338 -0.977229822588016  l 0.160063787944927 -0.987106672953193  l 0.110466092492995 -0.993879893351973  l 0.063251411513296 -0.997997624717402  l 0.018282902611008 -0.999832853767127  l -0.024570978634877 -0.999698087929013  l -0.065434900697157 -0.997856840318667  l -0.104425973794591 -0.994532662106706  l -0.141653603948009 -0.989916287616554  l -0.17721966017827 -0.98417132250757  l -0.211218816247842 -0.977438802003921  l -0.243738981237654 -0.969840867887733  l -0.27486176644595 -0.96148375407295  l -0.30466295698547 -0.952460226277649  l -0.333212969608388 -0.942851587942005  l -0.360577286550445 -0.932729339317638  l -0.386816860342263 -0.922156557507972  l -0.411988487714615 -0.91118905063144  l -0.436145152642495 -0.899876328073172  l -0.459336339688098 -0.88826242014505  l -0.481608319409553 -0.876386573764972  l -0.503004407889447 -0.864283845529805  l -0.523565202526977 -0.85198560944589  l -0.543328796208389 -0.83951999333592  l -0.562330971872753 -0.826912255364888  l -0.580605379356141 -0.814185110071851  l -0.598183696247189 -0.801359011644626  l -0.615095774333385 -0.788452400844346  l -0.631369773067706 -0.77548192090882  l -0.647032281343624 -0.762462606885915  l -0.662108428735312 -0.74940805213025  l -0.676621987239826 -0.736330555106623  l -0.690595464449336 -0.723241249156881  l -0.704050188983552 -0.710150217483754  l -0.717006388924845 -0.697066595269744  l -0.729483263920171 -0.683998660569138  l -0.741499051544176 -0.670953915376524  l -0.753071088455686 -0.657939158077834  l -0.764215866824588 -0.64496054832334  l -0.774949086456972 -0.632023665221094  l -0.785285703002776 -0.619133559629451  l -0.795239972591359 -0.606294801225357  l -0.804825493205859 -0.593511520937838  l -0.814055243076491 -0.580787449261497  l -0.822941616345486 -0.568125950900572  l -0.831496456231986 -0.555530056138863  l -0.839731085903329 -0.543002489283074  l -0.847656337239713 -0.530545694485738  l -0.855282577661727 -0.518161859218056  l -0.862619735174634 -0.505852935631735  l -0.869677321769248 -0.49362066002171  l -0.876464455306662 -0.48146657057785  l -0.882989880002773 -0.469392023592955  l -0.889261985618318 -0.457398208276079  l -0.895288825451018 -0.445486160304152  l -0.901078133218069 -0.433656774230774  l -0.906637338909771 -0.421910814858554  l -0.911973583688315 -0.410248927670373  l -0.917093733899595 -0.398671648405174  l -0.922004394260365 -0.38717941185525  l -0.926711920278027 -0.375772559954306  l -0.931222429955721 -0.364451349218744  l -0.935541814831254 -0.353215957598524  l -0.939675750394583 -0.342066490788528  l -0.943629705925103 -0.331002988046487  l -0.947408953786872 -0.320025427559225  l -0.951018578216955 -0.309133731395009  l -0.954463483639498 -0.298327770076395  l -0.957748402535677 -0.287607366804746  l -0.960877902897489 -0.276972301364817  l -0.963856395291303 -0.266422313735272  l -0.966688139555234 -0.255957107428649  l -0.969377251152701 -0.245576352582314  l -0.971927707202945 -0.23527968881998  l -0.97434335220783 -0.225066727901769  l -0.976627903492948 -0.214937056179176  l -0.978784956379774 -0.204890236869997  l -0.980817989104532 -0.194925812166944  l -0.185043305192595 0.982730367498329  l -0.18478367402155 0.982779219262952  l -0.184432255070277 0.982845228553149  l -0.183888074670525 0.982947188812282  l -0.183153426123713 0.9830843414983  l -0.182230689202963 0.98325580390487  l -0.181122320575734 0.98346057622523  l -0.179830844549085 0.983697548715439  l -0.178358844163109 0.983965508902014  l -0.176708952653841 0.984263148782876  l -0.985955859213649 -0.167006118697114  l -0.989088143133757 -0.147324964321111  l -0.991835611091685 -0.127523019766566  l -0.994192468749566 -0.107616611550649  l -0.096592358554892 0.995324025766887  l -0.996241635441117 -0.086617572198769  l -0.997782837393509 -0.066553808327988  l -0.998921101348376 -0.046439565899634  l -0.999654615389286 -0.026280219384538  l -0.999981439678327 -0.006092643011087  l -0.999900500499789 0.014106349643758  l -0.999411579641641 0.03430006527983  l -0.998515299065512 0.054471988508885  l -0.997213101133764 0.074605837085188  l -0.995507224701841 0.094685614358457  l -0.993400677417485 0.114695658620898  l -0.990897204595407 0.134620689067498  l -0.988001255056387 0.1544458481378  l -0.984717944333636 0.17415674005716  l -0.981053015656696 0.193739465444968  l 0.213180651905758 0.977012799124472  l 0.211454882104056 0.977387759711753  l -0.977731779892699 0.209858444166192  l 0.21815790594501 0.975913483908122  l 0.216895237817515 0.976194886184149  l 0.226568457697872 0.973995243302762  l 0.225419378589507 0.974261825053368  l 0.224475491510489 0.974479734889918  l 0.223735745818384 0.974649842786162  l 0.223198872160039 0.974772929182221  l 0.222863393964051 0.974849684633905  l 0.222727639179105 0.974880710008  l 0.222789752177725 0.974866517183039  l 0.223047705748669 0.974807530213147  l 0.223499313105261 0.974704086911241  l 0.22414223984153 0.974556440807213  l 0.22497401577282 0.974364763436697  l 0.22599204660266 0.974129146916538  l 0.227193625362896 0.973849606764034  l 0.228575943579479 0.973526084918504  l 0.23013610212161 0.973158452925458  l -0.970819856236618 0.239809938778011  l -0.967922445050105 0.251249159935365  l 0.262618474888002 0.964899754714188  l -0.962262300653834 0.272123620327952  l -0.956642426704745 0.291264943699815  l 0.302299534872666 0.953212983134289  l -0.950161724809412 0.311757432481095  l -0.943721457532999 0.330741304635198  l -0.936884165774458 0.349639900356207  l -0.929653035545191 0.368436200042303  l -0.92203208941037 0.387113453780087  l -0.914026162887597 0.405655239775077  l -0.905640876397631 0.42404551995951  l -0.896882603100228 0.442268692376206  l -0.887758432985913 0.460309639984213  l -0.878276133625545 0.478153775582462  l -0.868444108003566 0.495787082600879  l -0.858271349877724 0.513196151562996  l -0.847767397117806 0.530368212079212  l -0.836942283478738 0.547291160284355  l -0.825806489259625 0.5639535816862  l -0.814370891290352 0.580344769442233  l -0.802646712671825 0.596454738129486  l 0.603098198984619 0.79766694953565  l -0.791671500933666 0.610946998199874  l 0.626526799523747 0.779399877776826  l 0.625140992901447 0.780511844236968  l -0.774262808846541 0.63286420568481  l 0.639293060711646 0.768963186716982  l 0.638119606704998 0.769937249091547  l 0.637043810298858 0.770827596651749  l 0.636129725068308 0.77158212322767  l 0.635377055033647 0.772202044763396  l 0.634785260433952 0.77268860036615  l 0.634353567186016 0.773043046536463  l 0.634080976895583 0.773266651769714  l 0.633966277330499 0.773360691532553  l 0.634008053266947 0.773326443613986  l 0.634204697622161 0.773165183847529  l 0.634554422790108 0.772878182197888  l 0.63505527210025 0.772466699203064  l 0.635705131323746 0.771931982760566  l 0.636501740156131 0.771275265244658  l 0.637442703610541 0.770497760940085  l 0.638525503260884 0.769600663776633  l -0.763198388623908 0.646164235780556  l 0.654963646559486 0.755660387796992  l 0.656228048907079 0.754562620216247  l -0.747988796373968 0.663711353299778  l -0.740134201222835 0.672459191460892  l 0.681087783488149 0.732201769448286  l -0.725442494149669 0.688282781770623  l -0.711563911080464 0.702621377733323  l 0.710765561291494 0.703428970744017  l -0.696326796739061 0.717724872178134  l -0.681797566019743 0.73154089357298  l -0.666957816594436 0.745095477696371  l -0.65181830066537 0.758375172930726  l -0.636390374020864 0.77136715761924  l -0.620685948089318 0.784059279547448  l -0.604717439498692 0.796440090883266" stroke="currentcolor" stroke-width="0.25%" fill="transparent" class="foreground-stroke" transform-origin="50% 50%" xmlns="http://www.w3.org/2000/svg">
        </path>
        <path id="turtle-t3-path" d="m 0 0  m 200 200  l -1 0  l -0.99998737397651 -0.005025125626547  l -0.999949240194005 -0.010075566258636  l -0.999885210212092 -0.015151448746598  l -0.999794888988029 -0.020252899876685  l -0.999677874741669 -0.02538004633525  l -0.999533758817121 -0.030533014671294  l -0.999362125541024 -0.035711931257312  l -0.999162552077349 -0.040916922248356  l -0.998934608278624 -0.046148113539253  l -0.998677856533472 -0.051405630719894  l -0.998391851610372 -0.056689599028508  l -0.99807614049752 -0.062000143302849  l -0.997730262238684 -0.067337387929195  l -0.997353747764927 -0.072701456789075  l -0.996946119722095 -0.078092473203621  l -0.996506892293922 -0.083510559875448  l -0.996035571020641 -0.088955838827956  l -0.995531652612965 -0.094428431341938  l -0.994994624761284 -0.099928457889391  l -0.994423965939961 -0.105456038064394  l -0.993819145206559 -0.111011290510942  l -0.993179621995854 -0.116594332847582  l -0.992504845908479 -0.122205281588749  l -0.991794256494032 -0.127844252062614  l -0.991047283028477 -0.133511358325328  l -0.990263344285668 -0.13920671307148  l -0.989441848302816 -0.144930427540622  l -0.988582192139707 -0.150682611419672  l -0.987683761631477 -0.156463372741021  l -0.986745931134752 -0.162272817776148  l -0.985768063266933 -0.168111050924559  l -0.984749508638423 -0.173978174597808  l -0.983689605577561 -0.179874289098423  l -0.982587679848046 -0.185799492493477  l -0.981443044358602 -0.191753880482559  l -0.980254998864634 -0.197737546259926  l -0.979022829661633 -0.203750580370535  l -0.977745809270046 -0.209793070559691  l -0.976423196111349 -0.215865101616028  l -0.975054234175032 -0.221966755207492  l -0.973638152676193 -0.228098109710034  l -0.972174165703451 -0.234259240028647  l -0.97066147185684 -0.240450217410408  l -0.969099253875367 -0.246671109249153  l -0.967486678253881 -0.252921978881376  l -0.96582289484891 -0.259202885372966  l -0.964107036473084 -0.265513883296313  l -0.962338218477764 -0.271855022497367  l -0.960515538323488 -0.27822634785214  l -0.958638075137812 -0.284627899012149  l -0.956704889260116 -0.291059710138296  l -0.954715021772939 -0.297521809622584  l -0.952667494019374 -0.304014219797111  l -0.950561307106047 -0.310536956629712  l -0.948395441391175 -0.317090029405589  l -0.946168855957196 -0.323673440394252  l -0.943880488067416 -0.330287184501028  l -0.941529252606141 -0.336931248902387  l -0.939114041501675 -0.343605612664272  l -0.936633723131624 -0.350310246342571  l -0.934087141709831 -0.357045111564852  l -0.931473116654339 -0.363810160592378  l -0.928790441935657 -0.370605335861434  l -0.926037885404657 -0.377430569502883  l -0.923214188099352 -0.384285782838832  l -0.920318063529795 -0.391170885855234  l -0.917348196940307 -0.398085776649164  l -0.914303244548209 -0.405030340849446  l -0.911181832758196 -0.412004451009228  l -0.907982557351458 -0.419007965969033  l -0.90470398264863 -0.426040730188685  l -0.901344640645583 -0.433102573046484  l -0.897903030121074 -0.440193308103831  l -0.894377615715184 -0.447312732333457  l -0.890766826977474 -0.45446062530926  l -0.887069057383708 -0.461636748355652  l -0.883282663319976 -0.468840843654187  l -0.879405963032977 -0.476072633305089  l -0.875437235545193 -0.48333181834118  l -0.871374719533615 -0.490618077691512  l -0.867216612170645 -0.497931067091891  l -0.862961067925721 -0.505270417939246  l -0.858606197326178 -0.51263573608663  l -0.854150065675778 -0.520026600575456  l -0.849590691729281 -0.527442562301301  l -0.844926046321386 -0.534883142609404  l -0.840154050948257 -0.542347831815739  l -0.835272576299846 -0.549836087649235  l -0.830279440741074 -0.55734733361046  l -0.825172408739922 -0.56488095724175  l -0.81994918924038 -0.572436308303415  l -0.814607433978115 -0.580012696850328  l -0.80914473573664 -0.587609391202764  l -0.803558626541713 -0.595225615804962  l -0.797846575791556 -0.602860548964426  l -0.79200598832044 -0.610513320464479  l -0.786034202393066 -0.618183009042061  l -0.779928487627106 -0.625868639722183  l -0.773686042841139 -0.633569180999848  l 0.641283541859564 -0.767303993825168  l 0.641283483655614 -0.767304042469815  l 0.633460722805596 -0.773774846232812  l 0.625492843266086 -0.780229903953257  l 0.617377087996141 -0.786667357411889  l 0.609110636968957 -0.793085261451297  l 0.600690605640905 -0.799481579709478  l 0.592114043396866 -0.805854180117106  l 0.583377931973711 -0.812200830143676  l 0.57447918386411 -0.818519191776727  l 0.565414640703315 -0.824806816217192  l 0.556181071641961 -0.831061138272751  l 0.546775171708527 -0.837279470429743  l 0.537193560165627 -0.843458996582868  l 0.527432778865035 -0.849596765400332  l 0.517489290607067 -0.85568968330055  l 0.507359477510825 -0.861734507014744  l 0.49703963940279 -0.867727835707916  l 0.486525992232327 -0.873666102628659  l 0.475814666523945 -0.879545566256068  l 0.464901705877539 -0.88536230090972  l 0.45378306552945 -0.891112186786094  l 0.442454610988977 -0.89679089938212  l 0.430912116767041 -0.902393898263584  l 0.419151265215962 -0.907916415132945  l 0.407167645502007 -0.913353441147704  l 0.394956752735268 -0.918699713436775  l 0.382513987284843 -0.923949700758354  l 0.369834654311089 -0.9290975882385  l 0.356913963551086 -0.934137261125074  l 0.343747029398335 -0.939062287486736  l 0.330328871323359 -0.943865899781444  l 0.316654414688226 -0.948540975213226  l 0.302718492015264 -0.953080014789946  l 0.288515844778522 -0.957475120988392  l 0.274041125795931 -0.961717973926088  l 0.259288902310886 -0.965799805932066  l 0.244253659864228 -0.969711374401131  l 0.228929807071681 -0.973442932808145  l 0.213311681437793 -0.976984199750529  l 0.197393556355893 -0.980324325878519  l 0.1811696494646 -0.983451858563943  l 0.164634132555649 -0.986354704149399  l 0.147781143255555 -0.989020087611006  l 0.130604798735629 -0.991434509459513  l 0.113099211741597 -0.993583699696925  l 0.095258509276475 -0.995452568639221  l 0.077076854319228 -0.997025154410987  l 0.058548471018183 -0.998284566915383  l 0.039667673863404 -0.999212928084033  l 0.020428901417711 -0.999791308217303  l 0.000826755273473 -0.9999996582378  l -0.019143954996369 -0.999816737701013  l -0.039488160007002 -0.999220038439613  l -0.060210470827542 -0.99818570376595  l -0.081315110162678 -0.99668844322548  l -0.102805833084347 -0.994701442988716  l -0.124685835733115 -0.992196272099192  l -0.146957650159209 -0.989142784970746  l -0.169623023182765 -0.985509020763554  l -0.192682776815175 -0.98126110058373  l -0.216136647391091 -0.976363123870694  l -0.239983100105575 -0.970777065892946  l -0.264219115124116 -0.964462679009939  l -0.288839940825506 -0.957377401333413  l -0.31383880903954 -0.949476277713479  l -0.3392066063449 -0.940711899686602  l -0.364931494591585 -0.931034373294108  l -0.390998472805862 -0.920391326699401  l -0.417388871532196 -0.908727973554837  l -0.44407976948905 -0.895987253442008  l -0.471043321212366 -0.882110077904806  l -0.498245983220514 -0.867035720258758  l -0.525647625309861 -0.850702400376362  l -0.553200513133089 -0.833048133224778  l -0.580848148628701 -0.814011933717565  l -0.608523956802216 -0.793535502670029  l -0.636149811806536 -0.771565562307254  l -0.663634403765046 -0.74805706877177  l -0.69087146264357 -0.72297760830107  l -0.717737880141339 -0.696313388791439  l -0.744091809991525 -0.668077374488567  l -0.769770888100516 -0.638320279979371  l -0.794590805486124 -0.607145330079145  l -0.818344599086348 -0.574727863554747  l -0.840803206530457 -0.541340898037551  l -0.861718060291291 -0.507387410730513  l -0.880826751788432 -0.473438732397171  l -0.897863018954844 -0.440274913200029  l -0.912572424400538 -0.40891511371399  l -0.924735136133028 -0.380611255746634  l -0.934197728301383 -0.356755664897609  l -0.940918141347062 -0.338634096458094  l -0.945031539567583 -0.326979187751336  l -0.946938976326647 -0.321413402199477  l -0.947380370001236 -0.320110035044702  l -0.947387455687055 -0.320089063866306  l -0.948035583244604 -0.31816431745572  l -0.950098174822985 -0.311951050964784  l -0.953839830548879 -0.300315796551707  l -0.959056551837655 -0.283214636587283  l -0.96526660476047 -0.261266878371894  l -0.971906579876522 -0.235366947536654  l -0.978459463869896 -0.206439040792761  l -0.984511967640014 -0.175317385257674  l -0.989765329237215 -0.142704565589008  l -0.994023151993016 -0.109169470557792  l -0.997171349919586 -0.075161818096362  l -0.999157853316653 -0.041031501991247  l -0.999975166077532 -0.007047498010834  l -0.999646539466677 0.026585637707179  l -0.998215519491239 0.05971412434957  l -0.995738287302336 0.092223983866514  l -0.992278175105795 0.124032347428861  l -0.987901817653003 0.155080619930063  l -0.982676506221104 0.185329123780061  l -0.976668413259529 0.214752905780372  l -0.969941440177393 0.243338452831863  l -0.962556506648907 0.271081116103378  l -0.954571149583576 0.297983087410494  l -0.946039336737174 0.324051806577108  l -0.937011426859097 0.34929870588864  l -0.927534227799242 0.373738218892402  l -0.91765111809605 0.397386997091084  l -0.907402207715266 0.420263290608947  l -0.89682452089749 0.442386458559693  l -0.885952189297914 0.463776582287456  l -0.874816647340253 0.484454160407731  l -0.863446824375082 0.504439869039499  l -0.85186933013034 0.523754374094658  l -0.840108631284535 0.542418185205129  l -0.828187217936753 0.560451542995629  l -0.816125759403922 0.577874333084081  l -0.803943249225964 0.59470602151315  l -0.791657139561734 0.610965607363404  l -0.779283465355398 0.626671589130768  l -0.766836958774578 0.641841942114534  l -0.754331154490334 0.656494104592936  l -0.741778486400847 0.670644970989024  l -0.729190376407028 0.684310890571952  l -0.716577315837478 0.697507670514924  l -0.703948940098333 0.710250582354168  l -0.691314097094616 0.722554371074077  l -0.678680909937028 0.734433266190365  l -0.666056834413503 0.745900994322345  l -0.653448711670036 0.756970792842611  l -0.640862816510992 0.767655424271593  l -0.628304901696219 0.777967191149154  l -0.615780238581009 0.787917951168214  l -0.60329365441558 0.79751913239865  l -0.590849566593475 0.806781748465038  l -0.578452014112922 0.815716413570736  l -0.566104686491908 0.824333357284478  l -0.553810950356319 0.832642439024958  l -0.541573873900919 0.840653162194701  l -0.529396249405047 0.848374687927374  l -0.517280613968614 0.85581584842316  l -0.505229268619154 0.862985159855345  l -0.493244295927167 0.869890834838092  l -0.481327576254759 0.876540794450959  l -0.469480802751428 0.882942679820086  l -0.457705495200743 0.889103863259542  l -0.446003012812493 0.895031458979057  l -0.434374566046558 0.900732333366502  l -0.422821227547185 0.90621311485516  l -0.411343942259495 0.911480203387006  l -0.399943536793835 0.916539779484141  l -0.388620728097906 0.921397812941106  l -0.377376131491476 0.92606007115118  l -0.366210268113819 0.930532127079987  l -0.35512357182975 0.934819366899767  l -0.3441163956363 0.938926997297597  l -0.333189017608527 0.942860052470707  l -0.322341646419778 0.946623400821777  l -0.311574426468786 0.950221751366831  l -0.30088744264335 0.953659659867998  l -0.290280724747894 0.956941534703054  l -0.279754251620013 0.960071642483271  l -0.269307954959081 0.963054113430682  l -0.258941722888162 0.965892946525499  l -0.24865540326876 0.968592014433967  l -0.238448806786426 0.971155068226558  l -0.228321709823822 0.97358574189597  l -0.218273857136511 0.975887556684042  l -0.20830496434565 0.978063925226239  l -0.198414720260551 0.980118155522041  l -0.188602789043215 0.98205345473916  l -0.178868812225908 0.983872932859164  l -0.158762997964057 0.987316722474336  l -0.149181647473598 0.98880980782811  l -0.129201691620938 0.991618335289484  l -0.109194810129441 0.994020368725307  l -0.089176937283956 0.996015800003521  l -0.069163774500892 0.997605318899609  l -0.049170742291898 0.998790387469996  l -0.029212935481773 0.999573211125897  l -0.00930508188588 0.999956706788397  l 0.999944468515529 -0.010538495395242  l 0.999961943394105 -0.008724205607678  l 0.999975197538881 -0.007043032519839  l 0.999984461678569 -0.005574621190889  l 0.004318231190992 0.999990676396226  l 0.999913078894634 -0.013184637099798  l 0.999924845684139 -0.012259811725775  l 0.999753160299529 -0.022217526214777  l 0.999770935979298 -0.021402700088501  l 0.999783735820416 -0.020796191693965  l 0.999791970828815 -0.020396447392489  l 0.999795924058186 -0.020201738455859  l 0.999795753603447 -0.020210172599863  l 0.99979149607635 -0.020419705517318  l 0.999783070505688 -0.020828152347664  l 0.999770282604742 -0.021433199024765  l 0.999752829349443 -0.022232413449346  l 0.999730303812205 -0.023223256437373  l 0.999702200198282 -0.024403092400659  l 0.999667919033987 -0.025769199720939  l 0.999626772458851 -0.027318780783583  l 0.037276036027188 0.999305007061458  l 0.049013152081396 0.998798133219644  l 0.068893376528429 0.997624028715484  l 0.088806089431506 0.996048933777796  l 0.994979791931963 -0.100076039325239  l 0.109984103239271 0.993933346374219  l 0.129895348705006 0.991527709337871  l 0.149795076569882 0.988717065208962  l 0.16966620681844 0.985501587144253  l 0.189491798986434 0.981882303596966  l 0.209255111496907 0.977861083340787  l 0.228939658774956 0.973440615877521  l 0.248529265728342 0.968624387508662  l 0.26800811922282 0.963416653390757  l 0.287360816226526 0.957822405927959  l 0.306572408346085 0.951847339882232  l 0.325628442527194 0.945497814602083  l 0.344514997743366 0.9387808137845  l 0.363218717547364 0.931703903192022  l 0.381726838409659 0.924275186747846  l 0.916503261427031 -0.400027213816278  l 0.409112180861649 0.912484094913783  l 0.42724614595996 0.904135349802429  l 0.900652669724713 -0.434539720299247  l 0.901418028658999 -0.432949809572108  l 0.441864061098294 0.897082020502988  l 0.893374509065247 -0.449312793666538  l 0.894053394932865 -0.447960407858795  l 0.894673134942671 -0.446721369101427  l 0.895197239734624 -0.445670171731865  l 0.895626827149258 -0.444806234770324  l 0.89596298271511 -0.444128735395766  l 0.896206756177932 -0.443636619522135  l 0.896359158514949 -0.443328612821654  l 0.896421159417052 -0.443203232106208  l 0.896393685218522 -0.443258796980225  l 0.896277617251193 -0.443493441681524  l 0.896073790597734 -0.443905127030324  l 0.895782993217163 -0.44449165241082  l 0.895405965414496 -0.445250667714417  l 0.894943399625814 -0.446179685178729  l 0.89439594048974 -0.447276091061743  l 0.8937641851765 -0.448537157096027  l 0.457401119848684 0.889260488024274  l 0.883910047699705 -0.467656955016714  l 0.883123931733871 -0.469139767232442  l 0.477891429748475 0.878418909958659  l 0.872749455429 -0.488168401321086  l 0.496836624821047 0.867844092125095  l 0.514194325475314 0.85767371164621  l 0.524044113136905 0.851691122113266  l 0.540941018873311 0.841060529391496  l 0.557664169814405 0.830066668229252  l 0.574197972492321 0.818716488404691  l 0.590527283105075 0.807017675090539  l 0.606637457371367 0.794978613117361  l 0.622514396700286 0.782608347707127  l 0.638144590379618 0.769916542080523  l 0.653515153538699 0.756913432365479  l 0.668613860695802 0.743609780251346  l 0.683429174754725 0.730016823843174  l 0.697950271369714 0.716146227173573  l 0.712167058650997 0.702010028826075  l 0.726070192234266 0.687620590114124  l 0.739651085785572 0.672990543244275  l 0.658132739871584 -0.752901917057675  l 0.759424098575535 0.650595910302805  l 0.772284705684048 0.635276580212511  l 0.628863595148282 -0.777515645307011  l 0.783708881619399 0.621128319166716  l 0.795917252244935 0.605405424140611  l 0.598936132087716 -0.800796796746719  l 0.600305853351679 -0.799770518606251  l 0.805667252797563 0.592368363241681  l 0.585628572086171 -0.810579530679324  l 0.586812909543807 -0.809722550749781  l 0.587824087210803 -0.808988777731055  l 0.588663356416186 -0.808378285713335  l 0.589332057866032 -0.807890911925235  l 0.589831613294723 -0.807526264562425  l 0.590163517330142 -0.807283731294342  l 0.590329329602626 -0.807162488357155" stroke="currentcolor" stroke-width="0.25%" fill="transparent" class="foreground-stroke" transform-origin="50% 50%" xmlns="http://www.w3.org/2000/svg">
        </path>
        <path id="turtle-t4-path" d="m 0 0  m 0 200  l 0.004999937501172 -0.99998750023437  l 0.010024811252765 -0.999949750317158  l 0.015074744342765 -0.999886369585564  l 0.020149859788473 -0.999796970964858  l 0.02525028050217 -0.999681160838075  l 0.030376129255228 -0.999538538912567  l 0.0355275286406 -0.999368698083291  l 0.040704601033627 -0.99917122429276  l 0.045907468551097 -0.998945696387562  l 0.051136253008465 -0.998691685971328  l 0.05639107587518 -0.998408757254082  l 0.061672058228018 -0.998096466897824  l 0.066979320702357 -0.997754363858285  l 0.07231298344129 -0.997381989222695  l 0.077673166042495 -0.996978876043487  l 0.083059987502769 -0.996544549167793  l 0.088473566160113 -0.996078525062614  l 0.093914019633279 -0.99558031163554  l 0.099381464758666 -0.995049408050888  l 0.104876017524447 -0.994485304541104  l 0.110397793001811 -0.993887482213318  l 0.115946905273201 -0.993255412850878  l 0.121523467357408 -0.992588558709717  l 0.127127591131396 -0.991886372309414  l 0.132759387248705 -0.991148296218759  l 0.138418965054298 -0.990373762835677  l 0.144106432495674 -0.989562194161322  l 0.149821896030112 -0.988713001568171  l 0.15556546052785 -0.987825585561924  l 0.161337229171033 -0.986899335537021  l 0.167137303348244 -0.985933629525577  l 0.172965782544416 -0.984927833939522  l 0.178822764225917 -0.98388130330574  l 0.184708343720608 -0.982793379993979  l 0.190622614092621 -0.981663393937298  l 0.196565666011652 -0.980490662344826  l 0.202537587616493 -0.979274489406566  l 0.208538464372555 -0.978014165990011  l 0.214568378923107 -0.97670896932828  l 0.220627410933947 -0.97535816269952  l 0.226715636931193 -0.97396099509728  l 0.232833130131888 -0.972516700891551  l 0.238979960267075 -0.971024499480187  l 0.245156193397008 -0.969483594930357  l 0.251361891718119 -0.96789317560973  l 0.257597113361355 -0.966252413807022  l 0.263861912181488 -0.964560465341561  l 0.270156337536963 -0.962816469161498  l 0.276480434059845 -0.961019546930279  l 0.282834241415371 -0.959168802600977  l 0.28921779405064 -0.957263321978066  l 0.295631120931893 -0.955302172266217  l 0.302074245269845 -0.953284401605656  l 0.308547184232488 -0.951209038593622  l 0.315049948644739 -0.949075091791449  l 0.321582542674313 -0.946881549216756  l 0.328144963503126 -0.944627377820235  l 0.334737200983507 -0.942311522946487  l 0.341359237278484 -0.939932907778343  l 0.348011046485324 -0.937490432764084  l 0.354692594241504 -0.934982975026942  l 0.361403837312212 -0.932409387756263  l 0.368144723158451 -0.929768499579647  l 0.374915189484749 -0.927059113915404  l 0.381715163765433 -0.924280008304588  l 0.388544562748352 -0.921429933721871  l 0.395403291934892 -0.918507613864496  l 0.402291245035034 -0.915511744418477  l 0.409208303396161 -0.91244099230122  l 0.416154335404208 -0.909293994879699  l 0.423129195855704 -0.906069359163252  l 0.430132725299154 -0.902765660970067  l 0.437164749344097 -0.899381444066372  l 0.444225077936118 -0.895915219277276  l 0.451313504595942 -0.892365463568222  l 0.458429805620669 -0.888730619095908  l 0.46557373924505 -0.885009092227522  l 0.472745044760603 -0.881199252527086  l 0.479943441590216 -0.877299431707635  l 0.487168628315754 -0.87330792254791  l 0.494420281656 -0.869222977772218  l 0.501698055392136 -0.865042808891993  l 0.509001579237741 -0.860765585007606  l 0.516330457650138 -0.856389431568839  l 0.523684268579679 -0.851912429092432  l 0.531062562153359 -0.847332611834992  l 0.538464859288899 -0.84264796641954  l 0.545890650235195 -0.837856430413825  l 0.553339393034739 -0.832955890858542  l 0.560810511903354 -0.827944182743437  l 0.568303395522237 -0.822819087429246  l 0.575817395236972 -0.81757833101331  l 0.583351823157838 -0.812219582636633  l 0.5909059501553 -0.806740452730035  l 0.598479003744166 -0.80113849119699  l 0.606070165849452 -0.795411185530615  l 0.613678570446468 -0.789555958862182  l 0.621303301067134 -0.783570167938444  l 0.628943388163945 -0.777451101024918  l 0.636597806322374 -0.771195975732201  l 0.644265471311858 -0.764801936762263  l 0.764832654205661 0.64422900513771  l 0.771387295036069 0.636365964722294  l 0.777928109254255 0.628353289823567  l 0.784453239382761 0.620187967653269  l 0.790960736760393 0.611866907834911  l 0.797448556766174 0.603386939957724  l 0.803914553753844 0.594744811043155  l 0.810356475676454 0.585937182920863  l 0.816771958378951 0.576960629511072  l 0.823158519534801 0.567811634010148  l 0.829513552200717 0.558486585976198  l 0.835834317961361 0.548981778311509  l 0.842117939633486 0.539293404138649  l 0.848361393496338 0.529417553567079  l 0.854561501012256 0.5193502103472  l 0.860714919998193 0.50908724840886  l 0.866818135205394 0.498624428281491  l 0.872867448260546 0.487957393393237  l 0.878858966917498 0.47708166624668  l 0.88478859356383 0.465992644469137  l 0.890652012921408 0.454685596735858  l 0.896444678874165 0.443155658565018  l 0.902161800349958 0.431397827984012  l 0.907798326176177 0.419406961067328  l 0.913348928820802 0.407177767347252  l 0.918807986921722 0.394704805099776  l 0.924169566497235 0.381982476509476  l 0.929427400719544 0.369005022718814  l 0.934574868120683 0.355766518769273  l 0.939604969086383 0.3422608684442  l 0.94451030047778 0.328481799026024  l 0.949283028203308 0.314422855984035  l 0.953914857543298 0.300077397612932  l 0.958397001007491 0.285438589647315  l 0.962720143480378 0.270499399883107  l 0.966874404380659 0.255252592843925  l 0.970849296528606 0.23969072453875  l 0.974633681378153 0.223806137367296  l 0.978215720228391 0.20759095524143  l 0.981582820981033 0.191037079005405  l 0.984721579955314 0.174136182254896  l 0.987617718208629 0.156879707675597  l 0.99025601173853 0.139258864047144  l 0.992620214857998 0.121264624088237  l 0.994692975939182 0.102887723355385  l 0.996455744608758 0.084118660451803  l 0.997888669348045 0.064947698856753  l 0.998970484299586 0.045364870750949  l 0.99967838390522 0.02535998329353  l 0.999987883793859 0.00492262790388  l 0.999872666094452 -0.015957806778266  l 0.99930440706392 -0.037292117432881  l 0.99825258458259 -0.059091263095148  l 0.996684262670353 -0.081366335454257  l 0.994563849702568 -0.104128520899934  l 0.991852826439878 -0.127389052446535  l 0.988509439311238 -0.151159149218897  l 0.984488353580605 -0.175449940621674  l 0.979740260055425 -0.200272371600599  l 0.974211427822807 -0.225637084495096  l 0.967843194081791 -0.251554271817349  l 0.960571380421598 -0.278033492793488  l 0.952325622807073 -0.305083444560862  l 0.943028599988514 -0.33271167638618  l 0.93259514194946 -0.360924231954945  l 0.920931196215999 -0.389725200411994  l 0.907932625222997 -0.41911615103176  l 0.893483802288558 -0.44909541864506  l 0.877455966888097 -0.479657196519008  l 0.859705291633283 -0.510790379253302  l 0.840070603458765 -0.542477078966868  l 0.818370689894526 -0.574690711532349  l 0.794401108057762 -0.607393512902961  l 0.767930399694471 -0.640533294392329  l 0.738695601711714 -0.674039173944489  l 0.706396931417625 -0.707815919066366  l 0.670691525748054 -0.741736393397106  l 0.631186137038606 -0.775631394678092  l 0.58742875905021 -0.809275881909704  l 0.538899322232759 -0.842370180204091  l 0.484999942380644 -0.874514182784232  l 0.42504588899358 -0.905171802615204  l 0.358259741831566 -0.933621956352131  l 0.283773622523036 -0.958891303099655  l 0.20064875032013 -0.979663247751476  l 0.107929126240439 -0.994158590823906  l 0.00475836898639 -0.999988678898211  l -0.109394011763937 -0.993998465889254  l -0.234333511468695 -0.972156265938121  l -0.368510224932718 -0.929623694900274  l -0.508181549451169 -0.861249971145085  l -0.646639424870697 -0.762795814227434  l -0.774183664247927 -0.632961020925975  l -0.879713120305981 -0.475504811712262  l -0.953996826690946 -0.29981670177561  l -0.99293104612259 -0.118692618329448  l -0.998449911944967 0.055657644013087  l -0.97667667381833 0.214715334382906  l -0.935099406552014 0.354385524346117  l -0.880529111902091 0.473992070706794  l -0.818269699399608 0.574834497089794  l -0.752091006315892 0.659059267607056  l -0.684523921574134 0.728990398285718  l -0.617201390786501 0.786805213004597  l -0.551141343181512 0.834411900583926  l -0.486953214078224 0.873428055021642  l -0.424979816616871 0.905202825596723  l -0.365391922229814 0.930853771098985  l -0.308250421590656 0.951305249427955  l -0.253546934425222 0.967323085656272  l -0.20123028835564 0.979543960753322  l -0.151223774781674 0.988499554851079  l -0.103436383318598 0.994636071438176  l -0.057770094027048 0.998329913523634  l -0.014124579025512 0.999900243157962  l 0.027599804567185 0.999619052833555  l 0.067500151817508 0.997719263873668  l 0.105669895555253 0.994401263662382  l 0.142198187006722 0.989838206785332  l 0.177169602470549 0.984180335081141  l 0.210664062786484 0.977558516228206  l 0.242756889473738 0.970087157225079  l 0.273518946292401 0.961866615502947  l 0.303016831747266 0.952985204333126  l 0.331313099409348 0.943520868958271  l 0.358466490652964 0.933542594142843  l 0.384532169672902 0.923111591567699  l 0.409561954243007 0.912282305888177  l 0.433604538133002 0.901103270724542  l 0.456705702772459 0.889617839892566  l 0.478908516883209 0.87786481445421  l 0.500253523561226 0.865878982401454  l 0.520778914791077 0.853691584771121  l 0.540520693700045 0.841330719563967  l 0.559512825060184 0.828821692882837  l 0.577787374663378 0.816187325115749  l 0.595374638253822 0.803448218694976  l 0.612303260722914 0.790622992903753  l 0.628600346266591 0.777728490331634  l 0.644291560183604 0.764779958861487  l 0.659401222961667 0.751791212476348  l 0.673952397261044 0.738774773680107  l 0.687966968365069 0.72574199991359  l 0.701465718626304 0.712703196002434  l 0.71446839639685 0.69966771438313  l 0.726993779892647 0.686644044609287  l 0.739059736404867 0.673639893433553  l 0.7506832772371 0.660662256585442  l 0.761880608714977 0.647717483216329  l 0.772667179585259 0.634811333855786  l 0.78305772509415 0.621949032614711  l 0.793066308009618 0.609135314277536  l 0.802706356829589 0.596374466845596  l 0.811990701397028 0.583670370024693  l 0.82093160612389 0.571026530090197  l 0.829540801008555 0.558446111511295  l 0.837829510615619 0.545931965671175  l 0.845808481172538 0.533486656980851  l 0.85348800592458 0.521112486650323  l 0.860877948877661 0.508811514351033  l 0.867987767047844 0.49658557797755  l 0.874826531326474 0.484436311693591  l 0.881402946060935 0.472365162427443  l 0.887725367442935 0.460373404964173  l 0.89380182078875 0.448462155766476  l 0.899640016789145 0.436632385642232  l 0.905247366800493 0.424884931364686  l 0.910630997243002 0.413220506340398  l 0.915797763166832 0.401639710410495  l 0.920754261042155 0.390143038862306  l 0.925506840824966 0.378730890720826  l 0.930061617346489 0.367403576382746  l 0.934424481070434 0.356161324649731  l 0.938601108259071 0.345004289212242  l 0.942596970586068 0.333932554630372  l 0.946417344231244 0.322946141853836  l 0.950067318489859 0.312045013319375  l 0.953551803926722 0.301229077660333  l 0.956875540103229 0.290498194060056  l 0.960043102903476 0.27985217627788  l 0.963058911483751 0.269290796373979  l 0.965927234868037 0.258813788157022  l 0.968652198210602 0.24842085037647  l 0.971237788745315 0.238111649679539  l 0.973687861440002 0.22788582335107  l 0.976006144372944 0.217742981853055  l 0.207682711179136 -0.978196243847462  l 0.980238914932534 0.19781726328076  l 0.187716350785088 -0.982223279935845  l 0.18731026929899 -0.982300800679272  l 0.186711269816035 -0.982414831791379  l 0.185921664497502 -0.9825645702296  l 0.184943848276572 -0.982749089536415  l 0.183780289500614 -0.982967346960758  l 0.18243352090381 -0.983218190663008  l 0.180906130932963 -0.983500366950041  l 0.985251157506083 0.171114454774934  l 0.987191568161558 0.159539361132998  l 0.990168708321186 0.139878265150641  l 0.992761537467764 0.120102163696753  l 0.994964568450422 0.100227279361789  l 0.996773155410301 0.080270023379788  l 0.069388284243979 -0.997589728300004  l 0.99823440297957 0.059397615339511  l 0.999226267884653 0.039330211915374  l 0.999815225997907 0.019222743372234  l 0.999999587669853 -0.000908107990924  l 0.99977851398481 -0.021045735300175  l 0.999152005106677 -0.04117366502156  l 0.998120884098211 -0.061275612824404  l 0.996686776485252 -0.08133553700221  l 0.994852085873905 -0.101337689101046  l 0.99261996595925 -0.121266661449293  l 0.989994289288472 -0.141107431328805  l 0.98697961315934 -0.160845401575049  l 0.983581143046718 -0.180466437441733  l -0.199956899612868 -0.979804693955489  l 0.977772677718418 -0.209667810374781  l -0.217755982625682 -0.976003243862808  l -0.2162211479127 -0.976344414228562  l 0.974145194246789 -0.225922864106062  l -0.234207989326638 -0.972186513862218  l -0.232918490552631 -0.972496260537121  l -0.231835375712557 -0.97275503523149  l -0.230957712999761 -0.972963789051741  l -0.230284339738237 -0.973123385224774  l -0.229813874127501 -0.973234598264216  l -0.22954472729382 -0.973298113720358  l -0.229475115560517 -0.97331452847396  l -0.229603072853607 -0.973284351531546  l -0.229926463163241 -0.97320800527803  l -0.230442992986067 -0.973085827141483  l -0.231150223678659 -0.972918071624382  l -0.232045583657544 -0.972704912655955  l -0.233126380386927 -0.972446446220917  l -0.234389812100919 -0.972142693221163  l -0.235832979212856 -0.971793602528638  l -0.237452895370053 -0.971399054189564  l -0.23924649811802 -0.970958862742528  l 0.968543819751367 -0.248843061429151  l 0.963364587129896 -0.268195212977498  l -0.279447227386961 -0.960161052691547  l 0.957325974270176 -0.289010344084183  l 0.951312160035522 -0.308229093643916  l 0.947709296407862 -0.319134907996784  l 0.94114388575813 -0.338006192694881  l 0.934185430492564 -0.356787866183005  l 0.926837305542577 -0.375463192676162  l 0.919103701596587 -0.394015717594428  l 0.910989600814487 -0.412429323894242  l 0.90250074830897 -0.430688285540423  l 0.893643619726561 -0.448777317744568  l 0.884425385295557 -0.466681623641649  l 0.874853870735942 -0.484386937126034  l 0.86493751544751 -0.501879561619606  l 0.8546853284067 -0.519146404597328  l 0.844106842210194 -0.536175007748342  l 0.833212065704377 -0.552953572702669  l 0.822011435634484 -0.56947098230387  l -0.585716817455869 -0.810515767736426  l 0.804642026604157 -0.593760228562301  l 0.792610962851225 -0.609727694604776  l -0.61623356337274 -0.787563454823124  l 0.78142382482977 -0.624000645823714  l -0.630429750735426 -0.776246307165238  l -0.629203644053999 -0.777240486792324  l 0.770955811149879 -0.636888638031981  l -0.643410283235816 -0.765521526429144  l -0.642389854392744 -0.766378023545345  l -0.641530839546309 -0.767097244103385  l -0.640832840679258 -0.767680448042643  l -0.640295215174814 -0.768128919794222  l -0.639917085853097 -0.768443962324697  l -0.63969735154092 -0.768626891561525  l -0.639634698080038 -0.768679031203569  l -0.639727609680914 -0.768601707916359  l -0.639974380531962 -0.76839624690828  l -0.64037312657784 -0.76806396788088  l -0.640921797384601 -0.767606181343853  l -0.641618188014353 -0.767024185283084  l -0.642459950837284 -0.766319262168292  l -0.643444607214505 -0.765492676285392  l -0.644569558990992 -0.764545671377556  l -0.645832099743854 -0.763479468578196  l 0.757043111822146 -0.653364926241562  l -0.662163171981624 -0.749359682443107  l -0.663512193308554 -0.748165469218456  l 0.741558552760968 -0.670888152248241  l 0.727968348951181 -0.685610737171824  l -0.694046149038246 -0.719930512622698  l 0.712968975859362 -0.701195578609885  l 0.698704845787493 -0.715410049183736  l 0.684128336114398 -0.729361652217434  l 0.669237019283681 -0.743048997052209  l 0.654041897673653 -0.756458324091583  l 0.638554596766239 -0.769576524426717  l 0.622787315007934 -0.782391181101377  l 0.606752771034775 -0.794890605581436  l 0.590464148768941 -0.807063869231283" stroke="currentcolor" stroke-width="0.25%" fill="transparent" class="foreground-stroke" transform-origin="50% 50%" xmlns="http://www.w3.org/2000/svg">
        </path>
      </g>
    </svg>
  </symbol>
  <use href="#turtle-symbol" width="100%" height="100%" transform-origin="50% 50%" />
</svg>