<svg xmlns="http://www.w3.org/2000/svg" width="100%" height="100%">
  <defs>
    <pattern id="turtle-pattern" patternUnits="userSpaceOnUse" width="420" height="420" transform-origin="50% 50%">
      <path id="turtle-path" d="m 7.71527483462832E-14 0  l 420 0  l 2.57175827820944E-14 420  l -420 5.14351655641888E-14  l -7.71527483462832E-14 -420" stroke="transparent" stroke-width="0.25%" fill="transparent" class="foreground-stroke" transform-origin="50% 50%" xmlns="http://www.w3.org/2000/svg">
      </path>
      <g id="turtle-children" xmlns="http://www.w3.org/2000/svg">
        <path id="turtle-s1-path" d="m 0 0  l 2.30360322347411 2.27278422728583  l 2.31902346110729 2.25704810357102  l 2.33450579858218 2.24103070737234  l 2.35004964622015 2.22472528985044  l 2.36565434578005 2.20812487674306  l 2.38131916566075 2.19122225852522  l 2.39704329575209 2.17400998003449  l 2.41282584190494 2.15648032952663  l 2.4286658199894 2.13862532712366  l 2.44456214950618 2.12043671261401  l 2.46051364671379 2.10190593256092  l 2.47651901723007 2.08302412667194  l 2.49257684806281 2.06378211337846  l 2.50868559901966 2.04417037457032  l 2.52484359344279 2.02417903942573  l 2.54104900820813 2.00379786727206  l 2.557299862923 1.98301622940751  l 2.57359400824928 1.96182308980779  l 2.58992911327153 1.94020698463544  l 2.60630265182118 1.91815600046229  l 2.62271188765846 1.89565775110766  l 2.63915385840312 1.87269935298635  l 2.65562535809315 1.84926739885075  l 2.67212291823749 1.8253479298012  l 2.6886427872137 1.80092640542676  l 2.70518090784454 1.77598767192595  l 2.72173289296879 1.75051592804274  l 2.73829399879954 1.72449468863723  l 2.75485909583949 1.69790674569306  l 2.77142263709467 1.67073412654401  l 2.78797862329686 1.64295804908078  l 2.80452056480929 1.61455887367459  l 2.8210414398495 1.58551605152752  l 2.83753364861668 1.55580806912926  l 2.85398896285761 1.52541238846633  l 2.87039847034445 1.49430538259214  l 2.88675251366712 1.46246226612386  l 2.90304062266257 1.42985702018437  l 2.91925143970955 1.39646231125415  l 2.93537263700989 1.36224940333743  l 2.95139082485148 1.32718806277862  l 2.96729144970296 1.29124645498809  l 2.98305868081975 1.25439103224852  l 2.99867528384265 1.21658641167439  l 3.01412247963705 1.17779524228373  l 3.02937978634696 1.13797806001348  l 3.04442484231494 1.09709312936289  l 3.05923320713649 1.05509627018248  l 3.07377813766377 1.01194066793454  l 3.08803033523274 0.967576665531952  l 3.10195765974149 0.921951534610519  l 3.1155248054322 0.875009223800645  l 3.12869293229504 0.826690081231566  l 3.14141924588254 0.776930548117625  l 3.15365651695146 0.72566281983383  l 3.16535253067499 0.672814470377265  l 3.17644945311734 0.618308035521232  l 3.18688310013618 0.562060549288045  l 3.19658209075106 0.503983027580484  l 3.20546686312345 0.443979891906231  l 3.21344852642168 0.381948325088507  l 3.22042751570795 0.317777549664375  l 3.22629200920933 0.251348018316469  l 3.23091605741342 0.182530504156669  l 3.23415736068229 0.111185076984855  l 3.23585461557375 0.0371599498065626  l 3.23582432851878 -0.0397098220285683  l 3.23385696714799 -0.119603808584706  l 3.22971228188916 -0.20271786111213  l 3.22311357991876 -0.289265977852311  l 3.21374066502915 -0.379482401354273  l 3.20122106301419 -0.473623965518907  l 3.18511902175068 -0.571972702391973  l 3.16492159169759 -0.674838701769538  l 3.14002083075611 -0.782563184297148  l 3.109690797999 -0.895521689206885  l 3.07305744131872 -1.01412717020855  l 3.02905864350132 -1.13883259930051  l 2.97639040194648 -1.27013232783064  l 2.91343309372606 -1.40856081280908  l 2.83814851950158 -1.55468612145686  l 2.74793302131025 -1.70909334601487  l 2.63940273117534 -1.87234857269252  l 2.50807061083954 -2.0449248802933  l 2.3478446035938 -2.22705223835792  l 2.15021734477342 -2.41840884162193  l 1.9028972443522 -2.61746404606375  l 1.58736795370474 -2.81999981109056  l 1.17425210159079 -3.01550459407861  l 0.613856972413379 -3.17731263372352  l -0.184190631108537 -3.23082184071041  l -1.38765751770019 -2.92344703536249  l -3.02838827688702 -1.14061404489548" stroke="#4488ff" stroke-width="0.25%" fill="transparent" class="foreground-stroke" transform-origin="50% 50%" xmlns="http://www.w3.org/2000/svg">
        </path>
        <path id="turtle-s2-path" d="m 0 0  m 420 0  l -2.27278422728583 2.30360322347411  l -2.25704810357102 2.31902346110729  l -2.24103070737234 2.33450579858218  l -2.22472528985044 2.35004964622015  l -2.20812487674306 2.36565434578004  l -2.19122225852522 2.38131916566076  l -2.17400998003449 2.39704329575209  l -2.15648032952663 2.41282584190494  l -2.13862532712366 2.4286658199894  l -2.12043671261401 2.44456214950618  l -2.10190593256092 2.46051364671379  l -2.08302412667194 2.47651901723007  l -2.06378211337846 2.49257684806281  l -2.04417037457032 2.50868559901966  l -2.02417903942573 2.52484359344279  l -2.00379786727206 2.54104900820813  l -1.98301622940751 2.557299862923  l -1.96182308980779 2.57359400824928  l -1.94020698463544 2.58992911327153  l -1.91815600046229 2.60630265182118  l -1.89565775110766 2.62271188765847  l -1.87269935298635 2.63915385840313  l -1.84926739885075 2.65562535809315  l -1.8253479298012 2.67212291823749  l -1.80092640542676 2.6886427872137  l -1.77598767192595 2.70518090784454  l -1.75051592804274 2.72173289296879  l -1.72449468863723 2.73829399879954  l -1.69790674569306 2.75485909583949  l -1.67073412654401 2.77142263709467  l -1.64295804908078 2.78797862329686  l -1.61455887367459 2.80452056480929  l -1.58551605152752 2.8210414398495  l -1.55580806912926 2.83753364861667  l -1.52541238846633 2.85398896285761  l -1.49430538259214 2.87039847034445  l -1.46246226612386 2.88675251366712  l -1.42985702018437 2.90304062266256  l -1.39646231125415 2.91925143970955  l -1.36224940333743 2.93537263700989  l -1.32718806277862 2.95139082485148  l -1.29124645498809 2.96729144970296  l -1.25439103224852 2.98305868081975  l -1.21658641167439 2.99867528384265  l -1.17779524228374 3.01412247963705  l -1.13797806001348 3.02937978634696  l -1.09709312936289 3.04442484231494  l -1.05509627018248 3.05923320713649  l -1.01194066793453 3.07377813766378  l -0.967576665531951 3.08803033523274  l -0.921951534610517 3.10195765974149  l -0.875009223800643 3.1155248054322  l -0.826690081231564 3.12869293229504  l -0.776930548117622 3.14141924588254  l -0.725662819833829 3.15365651695146  l -0.672814470377265 3.16535253067499  l -0.618308035521233 3.17644945311734  l -0.562060549288045 3.18688310013618  l -0.503983027580486 3.19658209075106  l -0.443979891906233 3.20546686312345  l -0.381948325088508 3.21344852642168  l -0.317777549664376 3.22042751570795  l -0.251348018316471 3.22629200920933  l -0.182530504156668 3.23091605741342  l -0.111185076984854 3.23415736068229  l -0.0371599498065612 3.23585461557375  l 0.0397098220285695 3.23582432851878  l 0.119603808584708 3.23385696714799  l 0.202717861112131 3.22971228188916  l 0.289265977852313 3.22311357991876  l 0.379482401354274 3.21374066502915  l 0.473623965518908 3.20122106301419  l 0.571972702391974 3.18511902175068  l 0.674838701769538 3.16492159169759  l 0.78256318429715 3.14002083075611  l 0.895521689206886 3.10969079799899  l 1.01412717020855 3.07305744131872  l 1.13883259930051 3.02905864350132  l 1.27013232783064 2.97639040194647  l 1.40856081280908 2.91343309372606  l 1.55468612145686 2.83814851950158  l 1.70909334601487 2.74793302131025  l 1.87234857269252 2.63940273117534  l 2.0449248802933 2.50807061083954  l 2.22705223835792 2.3478446035938  l 2.41840884162192 2.15021734477343  l 2.61746404606375 1.9028972443522  l 2.81999981109056 1.58736795370474  l 3.01550459407861 1.17425210159078  l 3.17731263372352 0.613856972413373  l 3.23082184071041 -0.184190631108548  l 2.92344703536249 -1.3876575177002  l 1.14061404489551 -3.02838827688701" stroke="#4488ff 0" stroke-width="0.25%" fill="transparent" class="foreground-stroke" transform-origin="50% 50%" xmlns="http://www.w3.org/2000/svg">
        </path>
        <path id="turtle-s3-path" d="m 0 0  m 420 420  l -2.30360322347411 -2.27278422728583  l -2.31902346110729 -2.25704810357102  l -2.33450579858218 -2.24103070737234  l -2.35004964622015 -2.22472528985044  l -2.36565434578004 -2.20812487674306  l -2.38131916566075 -2.19122225852522  l -2.39704329575209 -2.17400998003449  l -2.41282584190494 -2.15648032952663  l -2.4286658199894 -2.13862532712366  l -2.44456214950618 -2.12043671261401  l -2.46051364671378 -2.10190593256093  l -2.47651901723007 -2.08302412667194  l -2.49257684806281 -2.06378211337846  l -2.50868559901966 -2.04417037457032  l -2.52484359344279 -2.02417903942573  l -2.54104900820813 -2.00379786727206  l -2.557299862923 -1.98301622940751  l -2.57359400824928 -1.96182308980779  l -2.58992911327153 -1.94020698463544  l -2.60630265182118 -1.91815600046228  l -2.62271188765847 -1.89565775110766  l -2.63915385840313 -1.87269935298634  l -2.65562535809315 -1.84926739885075  l -2.67212291823749 -1.8253479298012  l -2.6886427872137 -1.80092640542676  l -2.70518090784455 -1.77598767192595  l -2.72173289296879 -1.75051592804274  l -2.73829399879954 -1.72449468863723  l -2.75485909583949 -1.69790674569306  l -2.77142263709467 -1.67073412654401  l -2.78797862329686 -1.64295804908078  l -2.80452056480929 -1.61455887367459  l -2.8210414398495 -1.58551605152752  l -2.83753364861667 -1.55580806912926  l -2.85398896285761 -1.52541238846633  l -2.87039847034445 -1.49430538259214  l -2.88675251366712 -1.46246226612386  l -2.90304062266256 -1.42985702018437  l -2.91925143970955 -1.39646231125415  l -2.93537263700989 -1.36224940333743  l -2.95139082485148 -1.32718806277863  l -2.96729144970296 -1.29124645498809  l -2.98305868081975 -1.25439103224852  l -2.99867528384265 -1.21658641167439  l -3.01412247963705 -1.17779524228374  l -3.02937978634696 -1.13797806001349  l -3.04442484231494 -1.09709312936289  l -3.05923320713649 -1.05509627018248  l -3.07377813766377 -1.01194066793454  l -3.08803033523274 -0.967576665531952  l -3.10195765974149 -0.921951534610517  l -3.1155248054322 -0.875009223800643  l -3.12869293229504 -0.826690081231566  l -3.14141924588254 -0.776930548117625  l -3.15365651695146 -0.725662819833832  l -3.16535253067499 -0.672814470377267  l -3.17644945311734 -0.618308035521234  l -3.18688310013618 -0.562060549288049  l -3.19658209075105 -0.503983027580489  l -3.20546686312345 -0.443979891906235  l -3.21344852642168 -0.381948325088509  l -3.22042751570795 -0.31777754966438  l -3.22629200920933 -0.251348018316472  l -3.23091605741342 -0.182530504156672  l -3.23415736068229 -0.111185076984858  l -3.23585461557375 -0.0371599498065654  l -3.23582432851878 0.0397098220285697  l -3.23385696714799 0.119603808584706  l -3.22971228188916 0.202717861112129  l -3.22311357991876 0.289265977852311  l -3.21374066502915 0.379482401354274  l -3.20122106301419 0.473623965518907  l -3.18511902175068 0.571972702391973  l -3.16492159169759 0.674838701769537  l -3.14002083075611 0.782563184297148  l -3.109690797999 0.895521689206885  l -3.07305744131872 1.01412717020855  l -3.02905864350132 1.13883259930051  l -2.97639040194648 1.27013232783064  l -2.91343309372606 1.40856081280908  l -2.83814851950158 1.55468612145686  l -2.74793302131025 1.70909334601486  l -2.63940273117534 1.87234857269252  l -2.50807061083954 2.0449248802933  l -2.3478446035938 2.22705223835792  l -2.15021734477342 2.41840884162193  l -1.9028972443522 2.61746404606374  l -1.58736795370474 2.81999981109056  l -1.17425210159078 3.01550459407861  l -0.613856972413363 3.17731263372352  l 0.184190631108575 3.23082184071041  l 1.38765751770027 2.92344703536245  l 3.02838827688711 1.14061404489525" stroke="#4488ff" stroke-width="0.25%" fill="transparent" class="foreground-stroke" transform-origin="50% 50%" xmlns="http://www.w3.org/2000/svg">
        </path>
        <path id="turtle-s4-path" d="m 0 0  m 0 420  l 2.27278422728583 -2.30360322347411  l 2.25704810357102 -2.31902346110729  l 2.24103070737234 -2.33450579858218  l 2.22472528985044 -2.35004964622015  l 2.20812487674306 -2.36565434578004  l 2.19122225852522 -2.38131916566076  l 2.17400998003449 -2.39704329575209  l 2.15648032952663 -2.41282584190494  l 2.13862532712366 -2.4286658199894  l 2.12043671261401 -2.44456214950618  l 2.10190593256092 -2.46051364671379  l 2.08302412667194 -2.47651901723007  l 2.06378211337846 -2.49257684806281  l 2.04417037457032 -2.50868559901966  l 2.02417903942573 -2.52484359344279  l 2.00379786727206 -2.54104900820813  l 1.98301622940751 -2.557299862923  l 1.96182308980779 -2.57359400824928  l 1.94020698463544 -2.58992911327153  l 1.91815600046229 -2.60630265182118  l 1.89565775110766 -2.62271188765847  l 1.87269935298635 -2.63915385840312  l 1.84926739885075 -2.65562535809315  l 1.8253479298012 -2.67212291823749  l 1.80092640542676 -2.6886427872137  l 1.77598767192595 -2.70518090784455  l 1.75051592804274 -2.72173289296879  l 1.72449468863723 -2.73829399879954  l 1.69790674569306 -2.75485909583949  l 1.67073412654401 -2.77142263709468  l 1.64295804908078 -2.78797862329686  l 1.61455887367459 -2.80452056480929  l 1.58551605152752 -2.8210414398495  l 1.55580806912926 -2.83753364861668  l 1.52541238846633 -2.85398896285761  l 1.49430538259214 -2.87039847034445  l 1.46246226612386 -2.88675251366712  l 1.42985702018437 -2.90304062266257  l 1.39646231125415 -2.91925143970955  l 1.36224940333743 -2.93537263700989  l 1.32718806277863 -2.95139082485148  l 1.29124645498809 -2.96729144970296  l 1.25439103224853 -2.98305868081975  l 1.21658641167439 -2.99867528384265  l 1.17779524228374 -3.01412247963705  l 1.13797806001348 -3.02937978634696  l 1.09709312936289 -3.04442484231494  l 1.05509627018248 -3.05923320713649  l 1.01194066793454 -3.07377813766377  l 0.967576665531953 -3.08803033523274  l 0.921951534610519 -3.10195765974149  l 0.875009223800646 -3.1155248054322  l 0.826690081231566 -3.12869293229504  l 0.776930548117626 -3.14141924588254  l 0.725662819833831 -3.15365651695146  l 0.672814470377266 -3.16535253067499  l 0.618308035521233 -3.17644945311734  l 0.562060549288045 -3.18688310013618  l 0.503983027580485 -3.19658209075106  l 0.443979891906232 -3.20546686312345  l 0.381948325088507 -3.21344852642168  l 0.317777549664376 -3.22042751570795  l 0.251348018316469 -3.22629200920933  l 0.182530504156669 -3.23091605741342  l 0.111185076984855 -3.23415736068229  l 0.0371599498065623 -3.23585461557375  l -0.0397098220285691 -3.23582432851878  l -0.119603808584707 -3.23385696714799  l -0.20271786111213 -3.22971228188916  l -0.289265977852312 -3.22311357991876  l -0.379482401354274 -3.21374066502915  l -0.473623965518909 -3.20122106301419  l -0.571972702391973 -3.18511902175068  l -0.674838701769539 -3.16492159169759  l -0.782563184297149 -3.14002083075611  l -0.895521689206886 -3.10969079799899  l -1.01412717020855 -3.07305744131872  l -1.13883259930051 -3.02905864350132  l -1.27013232783064 -2.97639040194648  l -1.40856081280908 -2.91343309372606  l -1.55468612145686 -2.83814851950158  l -1.70909334601487 -2.74793302131025  l -1.87234857269252 -2.63940273117534  l -2.0449248802933 -2.50807061083953  l -2.22705223835793 -2.3478446035938  l -2.41840884162193 -2.15021734477342  l -2.61746404606375 -1.90289724435219  l -2.81999981109057 -1.58736795370473  l -3.01550459407861 -1.17425210159078  l -3.17731263372352 -0.613856972413366  l -3.23082184071041 0.18419063110856  l -2.92344703536247 1.38765751770024  l -1.14061404489541 3.02838827688705" stroke="#4488ff" stroke-width="0.25%" fill="transparent" class="foreground-stroke" transform-origin="50% 50%" xmlns="http://www.w3.org/2000/svg">
        </path>
        <path id="turtle-h1-path" d="m 0 0  m 210 210  l 1.4142135623731 -1.41421356237309  l 1.40465790155731 -1.42370508870082  l 1.39493244225038 -1.43323531967273  l 1.38503314698832 -1.4428039304575  l 1.37495584475903 -1.45241055661372  l 1.36469622523138 -1.46205479132596  l 1.35424983267389 -1.47173618243989  l 1.34361205954279 -1.48145422927986  l 1.33277813971803 -1.49120837923133  l 1.32174314136378 -1.50099802406858  l 1.31050195938855 -1.51082249600632  l 1.2990493074777 -1.52068106345207  l 1.28737970966932 -1.53057292643367  l 1.27548749144198 -1.5404972116739  l 1.26336677028006 -1.55045296728154  l 1.25101144568021 -1.56043915702507  l 1.23841518855868 -1.57045465415184  l 1.2255714300165 -1.58049823471186  l 1.21247334941555 -1.59056857034113  l 1.19911386171464 -1.60066422045468  l 1.18548560401025 -1.61078362379447  l 1.17158092122172 -1.62092508927133  l 1.1573918508555 -1.63108678603356  l 1.14291010677687 -1.64126673268768  l 1.1281270619114 -1.65146278558833  l 1.11303372979091 -1.66167262610532  l 1.09762074485103 -1.67189374676523  l 1.08187834137848 -1.68212343615329  l 1.06579633099648 -1.69235876244798  l 1.04936407856604 -1.70259655544561  l 1.03257047636857 -1.71283338691537  l 1.01540391642214 -1.7230655491056  l 0.997852260768642 -1.73328903120019  l 0.979902809552538 -1.74349949349894  l 0.961542266693229 -1.75369223906661  l 0.942756702932347 -1.76386218256306  l 0.923531516013857 -1.77400381592858  l 0.903851387728738 -1.78411117055548  l 0.883700237526584 -1.79417777552712  l 0.8630611723633 -1.80419661144757  l 0.841916432416795 -1.81416005931852  l 0.820247332260319 -1.8240598438428  l 0.798034197035451 -1.83388697044338  l 0.775256293112653 -1.84363165518203  l 0.751891752666047 -1.853283246639  l 0.727917491519265 -1.86283013867081  l 0.703309119540001 -1.87225967279431  l 0.678040842770251 -1.88155802874517  l 0.652085356376014 -1.8907101015227  l 0.625413727381813 -1.89969936295257  l 0.597995266020035 -1.90850770546457  l 0.569797384369425 -1.91711526538332  l 0.540785440778461 -1.92550022255051  l 0.51092256836352 -1.93363857251991  l 0.480169485634777 -1.94150386686847  l 0.448484287029399 -1.94906691631861  l 0.41582221081591 -1.95629545033264  l 0.382135381469298 -1.96315372557253  l 0.347372523195447 -1.96960207405679  l 0.311478640797814 -1.97559637991335  l 0.274394663519555 -1.9810874712218  l 0.236057046850792 -1.98602041042686  l 0.196397326554241 -1.9903336630129  l 0.155341618324509 -1.99395811932355  l 0.112810055552475 -1.9968159382793  l 0.0687161566184141 -1.99881917386731  l 0.0229661120006956 -1.9998681350778  l -0.0245420197008646 -1.99984941664841  l -0.0739192188892842 -1.99863352045311  l -0.125286528293976 -1.99607196409048  l -0.178776206101701 -1.99199374199114  l -0.234533022169369 -1.9862009620157  l -0.292715708577192 -1.97846342244484  l -0.353498570715367 -1.96851181365574  l -0.417073254617428 -1.95602911539753  l -0.483650646239984 -1.94063959878996  l -0.553462841592573 -1.92189460766616  l -0.626765060103635 -1.89925394811576  l -0.703837253864102 -1.87206119560046  l -0.784984948809358 -1.83951043219188  l -0.870538457537188 -1.80060067587146  l -0.960848864898083 -1.75407225017217  l -1.05627777778347 -1.69831600597792  l -1.15717505671133 -1.63124059786566  l -1.26383308046157 -1.55007288368354  l -1.37639397802673 -1.45104776532399  l -1.49465886281561 -1.32890740226953  l -1.61768174479822 -1.17605517410817  l -1.74285573152225 -0.9810473480419  l -1.86368433237204 -0.725727710144102  l -1.96368720052558 -0.379384473182577  l -1.99675770915453 0.113836070434364  l -1.80678963216413 0.857619510683034" stroke="#4488ff" stroke-width="0.25%" fill="transparent" class="foreground-stroke" transform-origin="50% 50%" xmlns="http://www.w3.org/2000/svg">
        </path>
        <path id="turtle-h2-path" d="m 0 0  m 210 210  l 1.4142135623731 1.41421356237309  l 1.42370508870082 1.40465790155731  l 1.43323531967273 1.39493244225038  l 1.4428039304575 1.38503314698832  l 1.45241055661372 1.37495584475903  l 1.46205479132596 1.36469622523139  l 1.47173618243989 1.35424983267389  l 1.48145422927986 1.34361205954279  l 1.49120837923133 1.33277813971803  l 1.50099802406858 1.32174314136379  l 1.51082249600632 1.31050195938855  l 1.52068106345207 1.2990493074777  l 1.53057292643367 1.28737970966932  l 1.5404972116739 1.27548749144198  l 1.55045296728154 1.26336677028006  l 1.56043915702507 1.25101144568021  l 1.57045465415184 1.23841518855868  l 1.58049823471186 1.2255714300165  l 1.59056857034113 1.21247334941555  l 1.60066422045468 1.19911386171464  l 1.61078362379447 1.18548560401025  l 1.62092508927133 1.17158092122172  l 1.63108678603356 1.1573918508555  l 1.64126673268768 1.14291010677687  l 1.65146278558833 1.1281270619114  l 1.66167262610532 1.11303372979091  l 1.67189374676523 1.09762074485103  l 1.68212343615329 1.08187834137848  l 1.69235876244798 1.06579633099648  l 1.70259655544561 1.04936407856604  l 1.71283338691537 1.03257047636857  l 1.7230655491056 1.01540391642214  l 1.73328903120019 0.997852260768643  l 1.74349949349893 0.979902809552539  l 1.75369223906661 0.961542266693229  l 1.76386218256306 0.942756702932347  l 1.77400381592858 0.923531516013858  l 1.78411117055548 0.90385138772874  l 1.79417777552712 0.883700237526585  l 1.80419661144757 0.8630611723633  l 1.81416005931852 0.841916432416795  l 1.8240598438428 0.820247332260319  l 1.83388697044338 0.79803419703545  l 1.84363165518203 0.775256293112654  l 1.853283246639 0.751891752666047  l 1.86283013867081 0.727917491519266  l 1.87225967279431 0.70330911954  l 1.88155802874517 0.678040842770251  l 1.8907101015227 0.652085356376013  l 1.89969936295257 0.625413727381813  l 1.90850770546457 0.597995266020034  l 1.91711526538332 0.569797384369425  l 1.92550022255051 0.540785440778461  l 1.93363857251991 0.510922568363518  l 1.94150386686847 0.480169485634777  l 1.94906691631861 0.448484287029398  l 1.95629545033264 0.415822210815909  l 1.96315372557253 0.382135381469298  l 1.96960207405679 0.347372523195447  l 1.97559637991335 0.311478640797815  l 1.9810874712218 0.274394663519556  l 1.98602041042686 0.236057046850792  l 1.9903336630129 0.196397326554242  l 1.99395811932355 0.155341618324508  l 1.9968159382793 0.112810055552476  l 1.99881917386731 0.0687161566184139  l 1.9998681350778 0.0229661120006952  l 1.99984941664841 -0.0245420197008657  l 1.99863352045311 -0.0739192188892862  l 1.99607196409048 -0.125286528293977  l 1.99199374199114 -0.178776206101703  l 1.9862009620157 -0.234533022169371  l 1.97846342244484 -0.292715708577194  l 1.96851181365574 -0.353498570715368  l 1.95602911539753 -0.417073254617428  l 1.94063959878996 -0.483650646239986  l 1.92189460766616 -0.553462841592576  l 1.89925394811576 -0.626765060103637  l 1.87206119560046 -0.703837253864105  l 1.83951043219188 -0.78498494880936  l 1.80060067587146 -0.87053845753719  l 1.75407225017217 -0.960848864898084  l 1.69831600597792 -1.05627777778347  l 1.63124059786566 -1.15717505671133  l 1.55007288368355 -1.26383308046157  l 1.45104776532399 -1.37639397802673  l 1.32890740226953 -1.49465886281561  l 1.17605517410817 -1.61768174479822  l 0.981047348041897 -1.74285573152225  l 0.725727710144098 -1.86368433237204  l 0.379384473182569 -1.96368720052558  l -0.113836070434373 -1.99675770915453  l -0.857619510683021 -1.80678963216414" stroke="#4488ff" stroke-width="0.25%" fill="transparent" class="foreground-stroke" transform-origin="50% 50%" xmlns="http://www.w3.org/2000/svg">
        </path>
        <path id="turtle-h3-path" d="m 0 0  m 210 210  l -1.41421356237309 1.4142135623731  l -1.40465790155731 1.42370508870082  l -1.39493244225038 1.43323531967273  l -1.38503314698832 1.4428039304575  l -1.37495584475903 1.45241055661372  l -1.36469622523139 1.46205479132596  l -1.35424983267389 1.47173618243989  l -1.34361205954279 1.48145422927986  l -1.33277813971803 1.49120837923133  l -1.32174314136379 1.50099802406858  l -1.31050195938855 1.51082249600632  l -1.2990493074777 1.52068106345207  l -1.28737970966933 1.53057292643367  l -1.27548749144198 1.5404972116739  l -1.26336677028006 1.55045296728154  l -1.25101144568021 1.56043915702507  l -1.23841518855868 1.57045465415184  l -1.2255714300165 1.58049823471186  l -1.21247334941555 1.59056857034113  l -1.19911386171464 1.60066422045468  l -1.18548560401025 1.61078362379447  l -1.17158092122172 1.62092508927133  l -1.1573918508555 1.63108678603356  l -1.14291010677687 1.64126673268768  l -1.1281270619114 1.65146278558833  l -1.11303372979091 1.66167262610532  l -1.09762074485103 1.67189374676523  l -1.08187834137848 1.68212343615329  l -1.06579633099648 1.69235876244798  l -1.04936407856604 1.70259655544561  l -1.03257047636857 1.71283338691537  l -1.01540391642214 1.7230655491056  l -0.997852260768643 1.73328903120019  l -0.979902809552539 1.74349949349893  l -0.96154226669323 1.75369223906661  l -0.942756702932348 1.76386218256306  l -0.923531516013858 1.77400381592857  l -0.903851387728741 1.78411117055548  l -0.883700237526585 1.79417777552712  l -0.863061172363301 1.80419661144757  l -0.841916432416795 1.81416005931852  l -0.820247332260319 1.8240598438428  l -0.79803419703545 1.83388697044338  l -0.775256293112653 1.84363165518203  l -0.751891752666047 1.853283246639  l -0.727917491519266 1.86283013867081  l -0.703309119540001 1.87225967279431  l -0.678040842770252 1.88155802874517  l -0.652085356376014 1.8907101015227  l -0.625413727381814 1.89969936295257  l -0.597995266020035 1.90850770546457  l -0.569797384369425 1.91711526538332  l -0.540785440778462 1.92550022255051  l -0.510922568363519 1.93363857251991  l -0.480169485634778 1.94150386686847  l -0.4484842870294 1.94906691631861  l -0.415822210815911 1.95629545033264  l -0.382135381469301 1.96315372557253  l -0.347372523195449 1.96960207405679  l -0.311478640797817 1.97559637991335  l -0.274394663519557 1.9810874712218  l -0.236057046850794 1.98602041042686  l -0.196397326554244 1.9903336630129  l -0.155341618324511 1.99395811932355  l -0.112810055552477 1.9968159382793  l -0.0687161566184156 1.99881917386731  l -0.0229661120006962 1.9998681350778  l 0.0245420197008644 1.99984941664841  l 0.0739192188892849 1.99863352045311  l 0.125286528293976 1.99607196409048  l 0.178776206101702 1.99199374199114  l 0.234533022169371 1.9862009620157  l 0.292715708577192 1.97846342244484  l 0.353498570715367 1.96851181365574  l 0.417073254617427 1.95602911539753  l 0.483650646239985 1.94063959878996  l 0.553462841592576 1.92189460766616  l 0.626765060103636 1.89925394811576  l 0.703837253864104 1.87206119560046  l 0.784984948809359 1.83951043219188  l 0.870538457537188 1.80060067587146  l 0.960848864898084 1.75407225017217  l 1.05627777778347 1.69831600597793  l 1.15717505671133 1.63124059786567  l 1.26383308046157 1.55007288368355  l 1.37639397802673 1.45104776532399  l 1.49465886281561 1.32890740226953  l 1.61768174479822 1.17605517410817  l 1.74285573152225 0.981047348041898  l 1.86368433237204 0.725727710144096  l 1.96368720052558 0.379384473182564  l 1.99675770915453 -0.113836070434392  l 1.80678963216411 -0.857619510683084" stroke="#4488ff" stroke-width="0.25%" fill="transparent" class="foreground-stroke" transform-origin="50% 50%" xmlns="http://www.w3.org/2000/svg">
        </path>
        <path id="turtle-h4-path" d="m 0 0  m 210 210  l -1.4142135623731 -1.41421356237309  l -1.42370508870082 -1.40465790155731  l -1.43323531967273 -1.39493244225038  l -1.4428039304575 -1.38503314698832  l -1.45241055661372 -1.37495584475903  l -1.46205479132596 -1.36469622523139  l -1.47173618243989 -1.35424983267389  l -1.48145422927985 -1.3436120595428  l -1.49120837923133 -1.33277813971803  l -1.50099802406858 -1.32174314136378  l -1.51082249600632 -1.31050195938855  l -1.52068106345207 -1.2990493074777  l -1.53057292643367 -1.28737970966933  l -1.5404972116739 -1.27548749144198  l -1.55045296728154 -1.26336677028006  l -1.56043915702507 -1.25101144568021  l -1.57045465415184 -1.23841518855868  l -1.58049823471186 -1.2255714300165  l -1.59056857034113 -1.21247334941555  l -1.60066422045468 -1.19911386171465  l -1.61078362379447 -1.18548560401025  l -1.62092508927133 -1.17158092122172  l -1.63108678603356 -1.1573918508555  l -1.64126673268768 -1.14291010677687  l -1.65146278558833 -1.1281270619114  l -1.66167262610532 -1.11303372979091  l -1.67189374676523 -1.09762074485103  l -1.68212343615329 -1.08187834137848  l -1.69235876244798 -1.06579633099648  l -1.70259655544561 -1.04936407856604  l -1.71283338691537 -1.03257047636857  l -1.7230655491056 -1.01540391642214  l -1.73328903120019 -0.997852260768643  l -1.74349949349893 -0.979902809552538  l -1.75369223906661 -0.961542266693228  l -1.76386218256306 -0.942756702932347  l -1.77400381592858 -0.923531516013857  l -1.78411117055548 -0.903851387728739  l -1.79417777552712 -0.883700237526584  l -1.80419661144757 -0.863061172363301  l -1.81416005931852 -0.841916432416796  l -1.8240598438428 -0.820247332260319  l -1.83388697044338 -0.79803419703545  l -1.84363165518203 -0.775256293112653  l -1.853283246639 -0.751891752666046  l -1.86283013867081 -0.727917491519265  l -1.87225967279431 -0.70330911954  l -1.88155802874517 -0.678040842770251  l -1.8907101015227 -0.652085356376014  l -1.89969936295257 -0.625413727381813  l -1.90850770546457 -0.597995266020036  l -1.91711526538332 -0.569797384369426  l -1.9255002225505 -0.540785440778462  l -1.93363857251991 -0.510922568363521  l -1.94150386686847 -0.480169485634777  l -1.94906691631861 -0.4484842870294  l -1.95629545033264 -0.41582221081591  l -1.96315372557253 -0.382135381469299  l -1.96960207405679 -0.347372523195447  l -1.97559637991335 -0.311478640797815  l -1.9810874712218 -0.274394663519554  l -1.98602041042686 -0.236057046850793  l -1.9903336630129 -0.196397326554242  l -1.99395811932355 -0.15534161832451  l -1.9968159382793 -0.112810055552474  l -1.99881917386731 -0.0687161566184137  l -1.9998681350778 -0.0229661120006952  l -1.99984941664841 0.0245420197008663  l -1.99863352045311 0.073919218889285  l -1.99607196409048 0.125286528293978  l -1.99199374199114 0.178776206101703  l -1.9862009620157 0.23453302216937  l -1.97846342244484 0.292715708577193  l -1.96851181365574 0.353498570715368  l -1.95602911539753 0.417073254617429  l -1.94063959878996 0.483650646239986  l -1.92189460766616 0.553462841592576  l -1.89925394811576 0.626765060103636  l -1.87206119560046 0.703837253864104  l -1.83951043219188 0.784984948809359  l -1.80060067587146 0.870538457537189  l -1.75407225017217 0.960848864898084  l -1.69831600597792 1.05627777778347  l -1.63124059786566 1.15717505671133  l -1.55007288368354 1.26383308046157  l -1.45104776532399 1.37639397802673  l -1.32890740226952 1.49465886281561  l -1.17605517410817 1.61768174479822  l -0.981047348041896 1.74285573152225  l -0.725727710144095 1.86368433237204  l -0.379384473182565 1.96368720052558  l 0.113836070434389 1.99675770915453  l 0.857619510683056 1.80678963216412" stroke="#4488ff" stroke-width="0.25%" fill="transparent" class="foreground-stroke" transform-origin="50% 50%" xmlns="http://www.w3.org/2000/svg">
        </path>
      </g>
    </pattern>
  </defs>
  <rect width="10000%" height="10000%" x="-5000%" y="-5000%" fill="url(#turtle-pattern)" transform-origin="50% 50%" />
</svg>