<svg xmlns="http://www.w3.org/2000/svg" width="100%" height="100%" transform-origin="50% 50%">
  <symbol id="turtle-symbol" viewBox="0 0 200 200" transform-origin="50% 50%">
    <svg xmlns="http://www.w3.org/2000/svg" viewBox="0 0 200 200" transform-origin="50% 50%" width="100%" height="100%">
      <path id="turtle-path" d="m 0 0   l 200 0 l 1.224647 E -14 200 l -200 2.449294 E -14 l -3.67394 E -14 -200" stroke="#4488ff" stroke-width="0.25%" fill="transparent" class="foreground-stroke" transform-origin="50% 50%">
      </path>
      <g id="turtle-children">
        <path id="turtle-s1-path" d="m 0 0   l 2.320374 2.255659 l 2.352771 2.221847 l 2.385431 2.186745 l 2.418346 2.150288 l 2.451508 2.112403 l 2.484905 2.073013 l 2.518524 2.032036 l 2.552351 1.989382 l 2.586366 1.944955 l 2.620547 1.898649 l 2.65487 1.850352 l 2.689303 1.79994 l 2.723811 1.74728 l 2.758352 1.692226 l 2.792877 1.634618 l 2.827327 1.574281 l 2.861633 1.511023 l 2.895716 1.444632 l 2.92948 1.374875 l 2.962812 1.301492 l 2.995577 1.224195 l 3.027616 1.142663 l 3.058737 1.056535 l 3.088709 0.965407 l 3.117256 0.868822 l 3.144039 0.766261 l 3.168645 0.657134 l 3.190566 0.540765 l 3.20917 0.416374 l 3.223665 0.283058 l 3.233048 0.139764 l 3.236034 -0.014742 l 3.23095 -0.181921 l 3.215587 -0.363508 l 3.186967 -0.561583 l 3.140996 -0.778642 l 3.071879 -1.017691 l 2.971161 -1.282317 l 2.825995 -1.57667 l 2.615866 -1.905093 l 2.305831 -2.270524 l 1.831068 -2.668207 l 1.05694 -3.058597 l -0.332454 -3.218946 l -2.772792 -1.668461" stroke="#4488ff" stroke-width="0.25%" fill="transparent" class="foreground-stroke" transform-origin="50% 50%" xmlns="http://www.w3.org/2000/svg">
        </path>
        <path id="turtle-s2-path" d="m 0 0   m 200 0 l -2.255659 2.320374 l -2.221847 2.352771 l -2.186745 2.385431 l -2.150288 2.418346 l -2.112403 2.451508 l -2.073013 2.484905 l -2.032036 2.518524 l -1.989382 2.552351 l -1.944955 2.586366 l -1.898649 2.620547 l -1.850352 2.65487 l -1.79994 2.689303 l -1.74728 2.723811 l -1.692226 2.758352 l -1.634618 2.792877 l -1.574281 2.827327 l -1.511023 2.861633 l -1.444632 2.895716 l -1.374875 2.92948 l -1.301492 2.962812 l -1.224195 2.995577 l -1.142663 3.027616 l -1.056535 3.058737 l -0.965407 3.088709 l -0.868822 3.117256 l -0.766261 3.144039 l -0.657134 3.168645 l -0.540765 3.190566 l -0.416374 3.20917 l -0.283058 3.223665 l -0.139764 3.233048 l 0.014742 3.236034 l 0.181921 3.23095 l 0.363508 3.215587 l 0.561583 3.186967 l 0.778642 3.140996 l 1.017691 3.071879 l 1.282317 2.971161 l 1.57667 2.825995 l 1.905093 2.615866 l 2.270524 2.305831 l 2.668207 1.831068 l 3.058597 1.05694 l 3.218946 -0.332454 l 1.668461 -2.772792" stroke="#4488ff" stroke-width="0.25%" fill="transparent" class="foreground-stroke" transform-origin="50% 50%" xmlns="http://www.w3.org/2000/svg">
        </path>
        <path id="turtle-s3-path" d="m 0 0   m 200 200 l -2.320374 -2.255659 l -2.352771 -2.221847 l -2.385431 -2.186745 l -2.418346 -2.150288 l -2.451508 -2.112403 l -2.484905 -2.073013 l -2.518524 -2.032036 l -2.552351 -1.989382 l -2.586366 -1.944955 l -2.620547 -1.898649 l -2.65487 -1.850352 l -2.689303 -1.79994 l -2.723811 -1.74728 l -2.758352 -1.692226 l -2.792877 -1.634618 l -2.827327 -1.574281 l -2.861633 -1.511023 l -2.895716 -1.444632 l -2.92948 -1.374875 l -2.962812 -1.301492 l -2.995577 -1.224195 l -3.027616 -1.142663 l -3.058737 -1.056535 l -3.088709 -0.965407 l -3.117256 -0.868822 l -3.144039 -0.766261 l -3.168645 -0.657134 l -3.190566 -0.540765 l -3.20917 -0.416374 l -3.223665 -0.283058 l -3.233048 -0.139764 l -3.236034 0.014742 l -3.23095 0.181921 l -3.215587 0.363508 l -3.186967 0.561583 l -3.140996 0.778642 l -3.071879 1.017691 l -2.971161 1.282317 l -2.825995 1.57667 l -2.615866 1.905093 l -2.305831 2.270524 l -1.831068 2.668207 l -1.05694 3.058597 l 0.332454 3.218946 l 2.772792 1.668461" stroke="#4488ff" stroke-width="0.25%" fill="transparent" class="foreground-stroke" transform-origin="50% 50%" xmlns="http://www.w3.org/2000/svg">
        </path>
        <path id="turtle-s4-path" d="m 0 0   m 0 200 l 2.255659 -2.320374 l 2.221847 -2.352771 l 2.186745 -2.385431 l 2.150288 -2.418346 l 2.112403 -2.451508 l 2.073013 -2.484905 l 2.032036 -2.518524 l 1.989382 -2.552351 l 1.944955 -2.586366 l 1.898649 -2.620547 l 1.850352 -2.65487 l 1.79994 -2.689303 l 1.74728 -2.723811 l 1.692226 -2.758352 l 1.634618 -2.792877 l 1.574281 -2.827327 l 1.511023 -2.861633 l 1.444632 -2.895716 l 1.374875 -2.92948 l 1.301492 -2.962812 l 1.224195 -2.995577 l 1.142663 -3.027616 l 1.056535 -3.058737 l 0.965407 -3.088709 l 0.868822 -3.117256 l 0.766261 -3.144039 l 0.657134 -3.168645 l 0.540765 -3.190566 l 0.416374 -3.20917 l 0.283058 -3.223665 l 0.139764 -3.233048 l -0.014742 -3.236034 l -0.181921 -3.23095 l -0.363508 -3.215587 l -0.561583 -3.186967 l -0.778642 -3.140996 l -1.017691 -3.071879 l -1.282317 -2.971161 l -1.57667 -2.825995 l -1.905093 -2.615866 l -2.270524 -2.305831 l -2.668207 -1.831068 l -3.058597 -1.05694 l -3.218946 0.332454 l -1.668461 2.772792" stroke="#4488ff" stroke-width="0.25%" fill="transparent" class="foreground-stroke" transform-origin="50% 50%" xmlns="http://www.w3.org/2000/svg">
        </path>
        <path id="turtle-h1-path" d="m 0 0   m 100 100 l 1.414214 -1.414214 l 1.394074 -1.43407 l 1.373177 -1.454093 l 1.351483 -1.474278 l 1.328951 -1.49462 l 1.305537 -1.515115 l 1.281193 -1.535756 l 1.255867 -1.556534 l 1.229506 -1.57744 l 1.202048 -1.598462 l 1.173429 -1.619587 l 1.14358 -1.6408 l 1.112424 -1.662081 l 1.079878 -1.683408 l 1.045853 -1.704756 l 1.010249 -1.726093 l 0.972959 -1.747384 l 0.933863 -1.768587 l 0.892832 -1.789651 l 0.849719 -1.810518 l 0.804366 -1.831118 l 0.756594 -1.851368 l 0.706204 -1.871169 l 0.652975 -1.890403 l 0.596654 -1.908927 l 0.536961 -1.92657 l 0.473575 -1.943123 l 0.406131 -1.95833 l 0.334211 -1.971878 l 0.257333 -1.983376 l 0.174939 -1.992334 l 0.086379 -1.998134 l -0.009111 -1.999979 l -0.112433 -1.996837 l -0.224661 -1.987342 l -0.347077 -1.969654 l -0.481227 -1.941242 l -0.628968 -1.898526 l -0.792516 -1.836279 l -0.974436 -1.746561 l -1.177412 -1.616694 l -1.403261 -1.425082 l -1.649042 -1.131662 l -1.890317 -0.653225 l -1.989418 0.205468" stroke="#4488ff" stroke-width="0.25%" fill="transparent" class="foreground-stroke" transform-origin="50% 50%" xmlns="http://www.w3.org/2000/svg">
        </path>
        <path id="turtle-h2-path" d="m 0 0   m 100 100 l 1.414214 1.414214 l 1.43407 1.394074 l 1.454093 1.373177 l 1.474278 1.351483 l 1.49462 1.328951 l 1.515115 1.305537 l 1.535756 1.281193 l 1.556534 1.255867 l 1.57744 1.229506 l 1.598462 1.202048 l 1.619587 1.173429 l 1.6408 1.14358 l 1.662081 1.112424 l 1.683408 1.079878 l 1.704756 1.045853 l 1.726093 1.010249 l 1.747384 0.972959 l 1.768587 0.933863 l 1.789651 0.892832 l 1.810518 0.849719 l 1.831118 0.804366 l 1.851368 0.756594 l 1.871169 0.706204 l 1.890403 0.652975 l 1.908927 0.596654 l 1.92657 0.536961 l 1.943123 0.473575 l 1.95833 0.406131 l 1.971878 0.334211 l 1.983376 0.257333 l 1.992334 0.174939 l 1.998134 0.086379 l 1.999979 -0.009111 l 1.996837 -0.112433 l 1.987342 -0.224661 l 1.969654 -0.347077 l 1.941242 -0.481227 l 1.898526 -0.628968 l 1.836279 -0.792516 l 1.746561 -0.974436 l 1.616694 -1.177412 l 1.425082 -1.403261 l 1.131662 -1.649042 l 0.653225 -1.890317 l -0.205468 -1.989418" stroke="#4488ff" stroke-width="0.25%" fill="transparent" class="foreground-stroke" transform-origin="50% 50%" xmlns="http://www.w3.org/2000/svg">
        </path>
        <path id="turtle-h3-path" d="m 0 0   m 100 100 l -1.414214 1.414214 l -1.394074 1.43407 l -1.373177 1.454093 l -1.351483 1.474278 l -1.328951 1.49462 l -1.305537 1.515115 l -1.281193 1.535756 l -1.255867 1.556534 l -1.229506 1.57744 l -1.202048 1.598462 l -1.173429 1.619587 l -1.14358 1.6408 l -1.112424 1.662081 l -1.079878 1.683408 l -1.045853 1.704756 l -1.010249 1.726093 l -0.972959 1.747384 l -0.933863 1.768587 l -0.892832 1.789651 l -0.849719 1.810518 l -0.804366 1.831118 l -0.756594 1.851368 l -0.706204 1.871169 l -0.652975 1.890403 l -0.596654 1.908927 l -0.536961 1.92657 l -0.473575 1.943123 l -0.406131 1.95833 l -0.334211 1.971878 l -0.257333 1.983376 l -0.174939 1.992334 l -0.086379 1.998134 l 0.009111 1.999979 l 0.112433 1.996837 l 0.224661 1.987342 l 0.347077 1.969654 l 0.481227 1.941242 l 0.628968 1.898526 l 0.792516 1.836279 l 0.974436 1.746561 l 1.177412 1.616694 l 1.403261 1.425082 l 1.649042 1.131662 l 1.890317 0.653225 l 1.989418 -0.205468" stroke="#4488ff" stroke-width="0.25%" fill="transparent" class="foreground-stroke" transform-origin="50% 50%" xmlns="http://www.w3.org/2000/svg">
        </path>
        <path id="turtle-h4-path" d="m 0 0   m 100 100 l -1.414214 -1.414214 l -1.43407 -1.394074 l -1.454093 -1.373177 l -1.474278 -1.351483 l -1.49462 -1.328951 l -1.515115 -1.305537 l -1.535756 -1.281193 l -1.556534 -1.255867 l -1.57744 -1.229506 l -1.598462 -1.202048 l -1.619587 -1.173429 l -1.6408 -1.14358 l -1.662081 -1.112424 l -1.683408 -1.079878 l -1.704756 -1.045853 l -1.726093 -1.010249 l -1.747384 -0.972959 l -1.768587 -0.933863 l -1.789651 -0.892832 l -1.810518 -0.849719 l -1.831118 -0.804366 l -1.851368 -0.756594 l -1.871169 -0.706204 l -1.890403 -0.652975 l -1.908927 -0.596654 l -1.92657 -0.536961 l -1.943123 -0.473575 l -1.95833 -0.406131 l -1.971878 -0.334211 l -1.983376 -0.257333 l -1.992334 -0.174939 l -1.998134 -0.086379 l -1.999979 0.009111 l -1.996837 0.112433 l -1.987342 0.224661 l -1.969654 0.347077 l -1.941242 0.481227 l -1.898526 0.628968 l -1.836279 0.792516 l -1.746561 0.974436 l -1.616694 1.177412 l -1.425082 1.403261 l -1.131662 1.649042 l -0.653225 1.890317 l 0.205468 1.989418" stroke="#4488ff" stroke-width="0.25%" fill="transparent" class="foreground-stroke" transform-origin="50% 50%" xmlns="http://www.w3.org/2000/svg">
        </path>
      </g>
    </svg>
  </symbol>
  <use href="#turtle-symbol" width="100%" height="100%" transform-origin="50% 50%" />
</svg>