<svg xmlns="http://www.w3.org/2000/svg" width="100%" height="100%">
  <defs>
    <pattern id="turtle-pattern" patternUnits="userSpaceOnUse" width="42" height="42" transform-origin="50% 50%">
      <path id="turtle-path" d="m 0 0" stroke="currentcolor" stroke-width="0.25%" fill="transparent" class="foreground-stroke" transform-origin="50% 50%" xmlns="http://www.w3.org/2000/svg">
      </path>
      <g id="turtle-children" xmlns="http://www.w3.org/2000/svg">
        <path id="turtle-square-path" d="m 7.71527483462833E-15 0  l 42 0  l 2.57175827820944E-15 42  l -42 5.14351655641888E-15  l -7.71527483462833E-15 -42" stroke="#224488" stroke-width="0.25%" fill="#4488ff" class="foreground-stroke" transform-origin="50% 50%" xmlns="http://www.w3.org/2000/svg">
        </path>
        <path id="turtle-circle-path" d="m 20.6313484918386 0  l 0.733038285837618 0  l 0.732591738719918 0.0255826672393969  l 0.731252641415693 0.0511341659394704  l 0.729022625408738 0.0766233655349612  l 0.72590440763005 0.102019211362472  l 0.721901787147666 0.127290762495793  l 0.717019640538088 0.152407229442651  l 0.711263915944923 0.177338011656968  l 0.704641625831987 0.202052734820907  l 0.697160838439696 0.226521287851304  l 0.688830667955162 0.250713859585385  l 0.679661263407954 0.27460097510107  l 0.669663796305075 0.298153531627632  l 0.658850447020198 0.321342834002936  l 0.647234389953759 0.344140629634077  l 0.634829777481976 0.366519142918809  l 0.621651722714362 0.388451109085841  l 0.607716281080728 0.409909807412757  l 0.593040430770114 0.430869093781107  l 0.577642052045481 0.45130343252898  l 0.561539905459369 0.471187927562281  l 0.544753608997045 0.490498352686784  l 0.52730361417502 0.509211181124017  l 0.509211181124017 0.527303614175019  l 0.490498352686784 0.544753608997045  l 0.471187927562281 0.561539905459369  l 0.45130343252898 0.577642052045481  l 0.430869093781107 0.593040430770114  l 0.409909807412757 0.607716281080728  l 0.388451109085841 0.621651722714362  l 0.366519142918809 0.634829777481976  l 0.344140629634077 0.647234389953759  l 0.321342834002936 0.658850447020198  l 0.298153531627632 0.669663796305075  l 0.27460097510107 0.679661263407954  l 0.250713859585385 0.688830667955161  l 0.226521287851304 0.697160838439696  l 0.202052734820907 0.704641625831987  l 0.177338011656968 0.711263915944923  l 0.152407229442651 0.717019640538088  l 0.127290762495793 0.721901787147666  l 0.102019211362472 0.72590440763005  l 0.0766233655349612 0.729022625408738  l 0.0511341659394706 0.731252641415693  l 0.025582667239397 0.732591738719918  l 4.48856495201751E-17 0.733038285837618  l -0.0255826672393968 0.732591738719918  l -0.0511341659394705 0.731252641415693  l -0.0766233655349611 0.729022625408738  l -0.102019211362472 0.72590440763005  l -0.127290762495793 0.721901787147666  l -0.152407229442651 0.717019640538088  l -0.177338011656968 0.711263915944923  l -0.202052734820907 0.704641625831987  l -0.226521287851304 0.697160838439696  l -0.250713859585385 0.688830667955162  l -0.27460097510107 0.679661263407954  l -0.298153531627632 0.669663796305075  l -0.321342834002936 0.658850447020198  l -0.344140629634077 0.647234389953759  l -0.366519142918809 0.634829777481976  l -0.38845110908584 0.621651722714362  l -0.409909807412757 0.607716281080728  l -0.430869093781106 0.593040430770114  l -0.45130343252898 0.577642052045481  l -0.471187927562281 0.561539905459369  l -0.490498352686784 0.544753608997045  l -0.509211181124017 0.52730361417502  l -0.52730361417502 0.509211181124017  l -0.544753608997045 0.490498352686784  l -0.561539905459369 0.471187927562281  l -0.577642052045481 0.45130343252898  l -0.593040430770114 0.430869093781107  l -0.607716281080728 0.409909807412757  l -0.621651722714362 0.388451109085841  l -0.634829777481976 0.366519142918809  l -0.647234389953759 0.344140629634077  l -0.658850447020198 0.321342834002936  l -0.669663796305075 0.298153531627632  l -0.679661263407954 0.27460097510107  l -0.688830667955161 0.250713859585385  l -0.697160838439696 0.226521287851304  l -0.704641625831987 0.202052734820907  l -0.711263915944923 0.177338011656968  l -0.717019640538088 0.152407229442651  l -0.721901787147666 0.127290762495793  l -0.72590440763005 0.102019211362472  l -0.729022625408738 0.0766233655349614  l -0.731252641415693 0.0511341659394706  l -0.732591738719918 0.0255826672393967  l -0.733038285837618 8.97712990403502E-17  l -0.732591738719918 -0.0255826672393969  l -0.731252641415693 -0.0511341659394701  l -0.729022625408738 -0.0766233655349609  l -0.72590440763005 -0.102019211362472  l -0.721901787147666 -0.127290762495793  l -0.717019640538088 -0.152407229442651  l -0.711263915944923 -0.177338011656968  l -0.704641625831987 -0.202052734820907  l -0.697160838439696 -0.226521287851305  l -0.688830667955162 -0.250713859585385  l -0.679661263407954 -0.27460097510107  l -0.669663796305075 -0.298153531627632  l -0.658850447020199 -0.321342834002936  l -0.647234389953759 -0.344140629634077  l -0.634829777481976 -0.366519142918809  l -0.621651722714362 -0.38845110908584  l -0.607716281080728 -0.409909807412757  l -0.593040430770114 -0.430869093781106  l -0.577642052045482 -0.451303432528979  l -0.561539905459369 -0.471187927562281  l -0.544753608997045 -0.490498352686784  l -0.527303614175019 -0.509211181124017  l -0.509211181124017 -0.527303614175019  l -0.490498352686784 -0.544753608997045  l -0.471187927562281 -0.561539905459369  l -0.45130343252898 -0.577642052045481  l -0.430869093781107 -0.593040430770114  l -0.409909807412757 -0.607716281080728  l -0.388451109085841 -0.621651722714362  l -0.36651914291881 -0.634829777481976  l -0.344140629634077 -0.647234389953759  l -0.321342834002937 -0.658850447020198  l -0.298153531627632 -0.669663796305075  l -0.27460097510107 -0.679661263407954  l -0.250713859585385 -0.688830667955161  l -0.226521287851305 -0.697160838439696  l -0.202052734820907 -0.704641625831987  l -0.177338011656968 -0.711263915944923  l -0.152407229442652 -0.717019640538088  l -0.127290762495793 -0.721901787147666  l -0.102019211362472 -0.72590440763005  l -0.0766233655349611 -0.729022625408738  l -0.0511341659394706 -0.731252641415693  l -0.0255826672393974 -0.732591738719918  l -1.34656948560525E-16 -0.733038285837618  l 0.0255826672393972 -0.732591738719918  l 0.0511341659394704 -0.731252641415693  l 0.0766233655349608 -0.729022625408738  l 0.102019211362472 -0.72590440763005  l 0.127290762495793 -0.721901787147666  l 0.152407229442651 -0.717019640538088  l 0.177338011656968 -0.711263915944924  l 0.202052734820907 -0.704641625831987  l 0.226521287851304 -0.697160838439696  l 0.250713859585384 -0.688830667955162  l 0.27460097510107 -0.679661263407954  l 0.298153531627632 -0.669663796305075  l 0.321342834002936 -0.658850447020198  l 0.344140629634077 -0.647234389953759  l 0.366519142918809 -0.634829777481976  l 0.38845110908584 -0.621651722714362  l 0.409909807412757 -0.607716281080728  l 0.430869093781106 -0.593040430770114  l 0.45130343252898 -0.577642052045481  l 0.471187927562281 -0.561539905459369  l 0.490498352686783 -0.544753608997045  l 0.509211181124016 -0.52730361417502  l 0.527303614175019 -0.509211181124017  l 0.544753608997045 -0.490498352686784  l 0.561539905459368 -0.471187927562281  l 0.577642052045481 -0.45130343252898  l 0.593040430770114 -0.430869093781107  l 0.607716281080728 -0.409909807412757  l 0.621651722714362 -0.388451109085841  l 0.634829777481976 -0.36651914291881  l 0.647234389953759 -0.344140629634077  l 0.658850447020199 -0.321342834002936  l 0.669663796305075 -0.298153531627632  l 0.679661263407954 -0.27460097510107  l 0.688830667955162 -0.250713859585385  l 0.697160838439696 -0.226521287851305  l 0.704641625831987 -0.202052734820907  l 0.711263915944923 -0.177338011656968  l 0.717019640538088 -0.152407229442652  l 0.721901787147666 -0.127290762495794  l 0.72590440763005 -0.102019211362473  l 0.729022625408738 -0.0766233655349611  l 0.731252641415693 -0.0511341659394701  l 0.732591738719918 -0.0255826672393968" stroke="#4488ff" stroke-width="0.25%" fill="#224488" class="foreground-stroke" transform-origin="50% 50%" xmlns="http://www.w3.org/2000/svg">
        </path>
      </g>
    </pattern>
  </defs>
  <rect width="10000%" height="10000%" x="-5000%" y="-5000%" fill="url(#turtle-pattern)" transform-origin="50% 50%" />
</svg>