<svg xmlns="http://www.w3.org/2000/svg" width="100%" height="100%" transform-origin="50% 50%">
  <symbol id="turtle-symbol" viewBox="0 0 42 42" transform-origin="50% 50%">
    <svg xmlns="http://www.w3.org/2000/svg" viewBox="0 0 42 42" transform-origin="50% 50%" width="100%" height="100%">
      <path id="turtle-path" d="m 0 0" stroke="currentcolor" stroke-width="0.25%" fill="transparent" class="foreground-stroke" transform-origin="50% 50%">
      </path>
      <g id="turtle-children">
        <path id="turtle-square-path" d="m 0 0   l 42 0 l 0 42 l -42 0 l -0 -42" stroke="#224488" stroke-width="0.25%" fill="#4488ff" class="foreground-stroke" transform-origin="50% 50%" xmlns="http://www.w3.org/2000/svg">
        </path>
        <path id="turtle-circle-path" d="m 20.631348 0   l 0.733038 0 l 0.732592 0.025583 l 0.731253 0.051134 l 0.729023 0.076623 l 0.725904 0.102019 l 0.721902 0.127291 l 0.71702 0.152407 l 0.711264 0.177338 l 0.704642 0.202053 l 0.697161 0.226521 l 0.688831 0.250714 l 0.679661 0.274601 l 0.669664 0.298154 l 0.65885 0.321343 l 0.647234 0.344141 l 0.63483 0.366519 l 0.621652 0.388451 l 0.607716 0.40991 l 0.59304 0.430869 l 0.577642 0.451303 l 0.56154 0.471188 l 0.544754 0.490498 l 0.527304 0.509211 l 0.509211 0.527304 l 0.490498 0.544754 l 0.471188 0.56154 l 0.451303 0.577642 l 0.430869 0.59304 l 0.40991 0.607716 l 0.388451 0.621652 l 0.366519 0.63483 l 0.344141 0.647234 l 0.321343 0.65885 l 0.298154 0.669664 l 0.274601 0.679661 l 0.250714 0.688831 l 0.226521 0.697161 l 0.202053 0.704642 l 0.177338 0.711264 l 0.152407 0.71702 l 0.127291 0.721902 l 0.102019 0.725904 l 0.076623 0.729023 l 0.051134 0.731253 l 0.025583 0.732592 l 0 0.733038 l -0.025583 0.732592 l -0.051134 0.731253 l -0.076623 0.729023 l -0.102019 0.725904 l -0.127291 0.721902 l -0.152407 0.71702 l -0.177338 0.711264 l -0.202053 0.704642 l -0.226521 0.697161 l -0.250714 0.688831 l -0.274601 0.679661 l -0.298154 0.669664 l -0.321343 0.65885 l -0.344141 0.647234 l -0.366519 0.63483 l -0.388451 0.621652 l -0.40991 0.607716 l -0.430869 0.59304 l -0.451303 0.577642 l -0.471188 0.56154 l -0.490498 0.544754 l -0.509211 0.527304 l -0.527304 0.509211 l -0.544754 0.490498 l -0.56154 0.471188 l -0.577642 0.451303 l -0.59304 0.430869 l -0.607716 0.40991 l -0.621652 0.388451 l -0.63483 0.366519 l -0.647234 0.344141 l -0.65885 0.321343 l -0.669664 0.298154 l -0.679661 0.274601 l -0.688831 0.250714 l -0.697161 0.226521 l -0.704642 0.202053 l -0.711264 0.177338 l -0.71702 0.152407 l -0.721902 0.127291 l -0.725904 0.102019 l -0.729023 0.076623 l -0.731253 0.051134 l -0.732592 0.025583 l -0.733038 0 l -0.732592 -0.025583 l -0.731253 -0.051134 l -0.729023 -0.076623 l -0.725904 -0.102019 l -0.721902 -0.127291 l -0.71702 -0.152407 l -0.711264 -0.177338 l -0.704642 -0.202053 l -0.697161 -0.226521 l -0.688831 -0.250714 l -0.679661 -0.274601 l -0.669664 -0.298154 l -0.65885 -0.321343 l -0.647234 -0.344141 l -0.63483 -0.366519 l -0.621652 -0.388451 l -0.607716 -0.40991 l -0.59304 -0.430869 l -0.577642 -0.451303 l -0.56154 -0.471188 l -0.544754 -0.490498 l -0.527304 -0.509211 l -0.509211 -0.527304 l -0.490498 -0.544754 l -0.471188 -0.56154 l -0.451303 -0.577642 l -0.430869 -0.59304 l -0.40991 -0.607716 l -0.388451 -0.621652 l -0.366519 -0.63483 l -0.344141 -0.647234 l -0.321343 -0.65885 l -0.298154 -0.669664 l -0.274601 -0.679661 l -0.250714 -0.688831 l -0.226521 -0.697161 l -0.202053 -0.704642 l -0.177338 -0.711264 l -0.152407 -0.71702 l -0.127291 -0.721902 l -0.102019 -0.725904 l -0.076623 -0.729023 l -0.051134 -0.731253 l -0.025583 -0.732592 l -0 -0.733038 l 0.025583 -0.732592 l 0.051134 -0.731253 l 0.076623 -0.729023 l 0.102019 -0.725904 l 0.127291 -0.721902 l 0.152407 -0.71702 l 0.177338 -0.711264 l 0.202053 -0.704642 l 0.226521 -0.697161 l 0.250714 -0.688831 l 0.274601 -0.679661 l 0.298154 -0.669664 l 0.321343 -0.65885 l 0.344141 -0.647234 l 0.366519 -0.63483 l 0.388451 -0.621652 l 0.40991 -0.607716 l 0.430869 -0.59304 l 0.451303 -0.577642 l 0.471188 -0.56154 l 0.490498 -0.544754 l 0.509211 -0.527304 l 0.527304 -0.509211 l 0.544754 -0.490498 l 0.56154 -0.471188 l 0.577642 -0.451303 l 0.59304 -0.430869 l 0.607716 -0.40991 l 0.621652 -0.388451 l 0.63483 -0.366519 l 0.647234 -0.344141 l 0.65885 -0.321343 l 0.669664 -0.298154 l 0.679661 -0.274601 l 0.688831 -0.250714 l 0.697161 -0.226521 l 0.704642 -0.202053 l 0.711264 -0.177338 l 0.71702 -0.152407 l 0.721902 -0.127291 l 0.725904 -0.102019 l 0.729023 -0.076623 l 0.731253 -0.051134 l 0.732592 -0.025583" stroke="#4488ff" stroke-width="0.25%" fill="#224488" class="foreground-stroke" transform-origin="50% 50%" xmlns="http://www.w3.org/2000/svg">
        </path>
      </g>
    </svg>
  </symbol>
  <use href="#turtle-symbol" width="100%" height="100%" transform-origin="50% 50%" />
</svg>