<svg xmlns="http://www.w3.org/2000/svg" width="100%" height="100%" transform-origin="50% 50%">
  <symbol id="turtle-symbol" viewBox="0 0 42 42" transform-origin="50% 50%">
    <svg xmlns="http://www.w3.org/2000/svg" viewBox="0 0 42 42" transform-origin="50% 50%" width="100%" height="100%">
      <path id="turtle-path" d="m 0 0" stroke="currentcolor" stroke-width="0.25%" fill="transparent" class="foreground-stroke" transform-origin="50% 50%">
      </path>
      <g id="turtle-children">
        <path id="turtle-square-path" d="m 0 0  l 42 0  l 0 42  l -42 0  l -0 -42" stroke="#224488" stroke-width="0.25%" fill="#4488ff" class="foreground-stroke" transform-origin="50% 50%" xmlns="http://www.w3.org/2000/svg">
        </path>
        <path id="turtle-circle-path" d="m 20.631142643414 0  l 0.733038285837618 0  l 0.732598462866116 0.0255830361757329  l 0.731278993951608 0.0511660723514658  l 0.729006575265512 0.0766025008700311  l 0.725927814464994 0.102038929388596  l 0.721896103892887 0.127255446421411  l 0.716984747377775 0.152398659625641  l 0.711267048748241 0.17732196134412  l 0.704669704175703 0.202025351576848  l 0.697192713660159 0.226508830323824  l 0.68883607720161 0.250699093756466  l 0.67967309862864 0.274596141874772  l 0.669630474112664 0.298126670850159  l 0.658854811310851 0.321363984511212  l 0.647199502566033 0.344161475200762  l 0.634811155535378 0.366519142918809  l 0.6216164663903 0.388436987665354  l 0.607688738959386 0.409915009440396  l 0.593027973242633 0.430879904415352  l 0.577634169240043 0.451331672590222  l 0.561507326951616 0.471197010136421  l 0.544720750205934 0.49047591705395  l 0.527274439002999 0.509241697171394  l 0.509241697171394 0.527274439002999  l 0.49047591705395 0.544720750205934  l 0.471197010136421 0.561507326951616  l 0.451331672590222 0.577634169240043  l 0.430879904415352 0.593027973242633  l 0.409915009440396 0.607688738959386  l 0.388436987665354 0.6216164663903  l 0.366519142918809 0.634811155535378  l 0.344161475200762 0.647199502566033  l 0.321363984511212 0.658854811310851  l 0.298126670850159 0.669630474112664  l 0.274596141874772 0.67967309862864  l 0.250699093756466 0.68883607720161  l 0.226508830323824 0.697192713660159  l 0.202025351576848 0.704669704175703  l 0.17732196134412 0.711267048748241  l 0.152398659625641 0.716984747377775  l 0.127255446421411 0.721896103892887  l 0.102038929388596 0.725927814464994  l 0.0766025008700311 0.729006575265512  l 0.0511660723514658 0.731278993951608  l 0.0255830361757329 0.732598462866116  l 0 0.733038285837618  l -0.0255830361757329 0.732598462866116  l -0.0511660723514658 0.731278993951608  l -0.0766025008700311 0.729006575265512  l -0.102038929388596 0.725927814464994  l -0.127255446421411 0.721896103892887  l -0.152398659625641 0.716984747377775  l -0.17732196134412 0.711267048748241  l -0.202025351576848 0.704669704175703  l -0.226508830323824 0.697192713660159  l -0.250699093756466 0.68883607720161  l -0.274596141874772 0.67967309862864  l -0.298126670850159 0.669630474112664  l -0.321363984511212 0.658854811310851  l -0.344161475200762 0.647199502566033  l -0.366519142918809 0.634811155535378  l -0.388436987665354 0.6216164663903  l -0.409915009440396 0.607688738959386  l -0.430879904415352 0.593027973242633  l -0.451331672590222 0.577634169240043  l -0.471197010136421 0.561507326951616  l -0.49047591705395 0.544720750205934  l -0.509241697171394 0.527274439002999  l -0.527274439002999 0.509241697171394  l -0.544720750205934 0.49047591705395  l -0.561507326951616 0.471197010136421  l -0.577634169240043 0.451331672590222  l -0.593027973242633 0.430879904415352  l -0.607688738959386 0.409915009440396  l -0.6216164663903 0.388436987665354  l -0.634811155535378 0.366519142918809  l -0.647199502566033 0.344161475200762  l -0.658854811310851 0.321363984511212  l -0.669630474112664 0.298126670850159  l -0.67967309862864 0.274596141874772  l -0.68883607720161 0.250699093756466  l -0.697192713660159 0.226508830323824  l -0.704669704175703 0.202025351576848  l -0.711267048748241 0.17732196134412  l -0.716984747377775 0.152398659625641  l -0.721896103892887 0.127255446421411  l -0.725927814464994 0.102038929388596  l -0.729006575265512 0.0766025008700311  l -0.731278993951608 0.0511660723514658  l -0.732598462866116 0.0255830361757329  l -0.733038285837618 0  l -0.732598462866116 -0.0255830361757329  l -0.731278993951608 -0.0511660723514658  l -0.729006575265512 -0.0766025008700311  l -0.725927814464994 -0.102038929388596  l -0.721896103892887 -0.127255446421411  l -0.716984747377775 -0.152398659625641  l -0.711267048748241 -0.17732196134412  l -0.704669704175703 -0.202025351576848  l -0.697192713660159 -0.226508830323824  l -0.68883607720161 -0.250699093756466  l -0.67967309862864 -0.274596141874772  l -0.669630474112664 -0.298126670850159  l -0.658854811310851 -0.321363984511212  l -0.647199502566033 -0.344161475200762  l -0.634811155535378 -0.366519142918809  l -0.6216164663903 -0.388436987665354  l -0.607688738959386 -0.409915009440396  l -0.593027973242633 -0.430879904415352  l -0.577634169240043 -0.451331672590222  l -0.561507326951616 -0.471197010136421  l -0.544720750205934 -0.49047591705395  l -0.527274439002999 -0.509241697171394  l -0.509241697171394 -0.527274439002999  l -0.49047591705395 -0.544720750205934  l -0.471197010136421 -0.561507326951616  l -0.451331672590222 -0.577634169240043  l -0.430879904415352 -0.593027973242633  l -0.409915009440396 -0.607688738959386  l -0.388436987665354 -0.6216164663903  l -0.366519142918809 -0.634811155535378  l -0.344161475200762 -0.647199502566033  l -0.321363984511212 -0.658854811310851  l -0.298126670850159 -0.669630474112664  l -0.274596141874772 -0.67967309862864  l -0.250699093756466 -0.68883607720161  l -0.226508830323824 -0.697192713660159  l -0.202025351576848 -0.704669704175703  l -0.17732196134412 -0.711267048748241  l -0.152398659625641 -0.716984747377775  l -0.127255446421411 -0.721896103892887  l -0.102038929388596 -0.725927814464994  l -0.0766025008700311 -0.729006575265512  l -0.0511660723514658 -0.731278993951608  l -0.0255830361757329 -0.732598462866116  l -0 -0.733038285837618  l 0.0255830361757329 -0.732598462866116  l 0.0511660723514658 -0.731278993951608  l 0.0766025008700311 -0.729006575265512  l 0.102038929388596 -0.725927814464994  l 0.127255446421411 -0.721896103892887  l 0.152398659625641 -0.716984747377775  l 0.17732196134412 -0.711267048748241  l 0.202025351576848 -0.704669704175703  l 0.226508830323824 -0.697192713660159  l 0.250699093756466 -0.68883607720161  l 0.274596141874772 -0.67967309862864  l 0.298126670850159 -0.669630474112664  l 0.321363984511212 -0.658854811310851  l 0.344161475200762 -0.647199502566033  l 0.366519142918809 -0.634811155535378  l 0.388436987665354 -0.6216164663903  l 0.409915009440396 -0.607688738959386  l 0.430879904415352 -0.593027973242633  l 0.451331672590222 -0.577634169240043  l 0.471197010136421 -0.561507326951616  l 0.49047591705395 -0.544720750205934  l 0.509241697171394 -0.527274439002999  l 0.527274439002999 -0.509241697171394  l 0.544720750205934 -0.49047591705395  l 0.561507326951616 -0.471197010136421  l 0.577634169240043 -0.451331672590222  l 0.593027973242633 -0.430879904415352  l 0.607688738959386 -0.409915009440396  l 0.6216164663903 -0.388436987665354  l 0.634811155535378 -0.366519142918809  l 0.647199502566033 -0.344161475200762  l 0.658854811310851 -0.321363984511212  l 0.669630474112664 -0.298126670850159  l 0.67967309862864 -0.274596141874772  l 0.68883607720161 -0.250699093756466  l 0.697192713660159 -0.226508830323824  l 0.704669704175703 -0.202025351576848  l 0.711267048748241 -0.17732196134412  l 0.716984747377775 -0.152398659625641  l 0.721896103892887 -0.127255446421411  l 0.725927814464994 -0.102038929388596  l 0.729006575265512 -0.0766025008700311  l 0.731278993951608 -0.0511660723514658  l 0.732598462866116 -0.0255830361757329" stroke="#4488ff" stroke-width="0.25%" fill="#224488" class="foreground-stroke" transform-origin="50% 50%" xmlns="http://www.w3.org/2000/svg">
        </path>
      </g>
    </svg>
  </symbol>
  <use href="#turtle-symbol" width="100%" height="100%" transform-origin="50% 50%" />
</svg>