<svg xmlns="http://www.w3.org/2000/svg" width="100%" height="100%">
  <defs>
    <pattern id="turtle-pattern" patternUnits="userSpaceOnUse" width="202.5" height="233.826859021799" transform-origin="50% 50%" patternTransform="scale(0.5)">
      <path id="turtle-path" d="m 0 175.370144266349  l 2.5 0 l 1.25 2.1650635094611 l 1.25 -2.1650635094611 l 2.5 0 l 1.25 2.1650635094611 l -1.25 2.1650635094611 l 2.5 0 l 1.25 2.1650635094611 l 1.25 -2.1650635094611 l 2.5 0 l -1.25 -2.1650635094611 l 1.25 -2.1650635094611 l 2.5 0 l 1.25 2.1650635094611 l 1.25 -2.1650635094611 l 2.5 0 l 1.25 2.1650635094611 l -1.25 2.1650635094611 l 2.5 0 l 1.25 2.1650635094611 l -1.25 2.1650635094611 l -2.5 0 l 1.25 2.1650635094611 l -1.25 2.1650635094611 l 2.5 0 l 1.25 2.1650635094611 l 1.25 -2.1650635094611 l 2.5 0 l 1.25 2.1650635094611 l -1.25 2.1650635094611 l 2.5 0 l 1.25 2.1650635094611 l 1.25 -2.1650635094611 l 2.5 0 l -1.25 -2.1650635094611 l 1.25 -2.1650635094611 l 2.5 0 l 1.25 2.1650635094611 l 1.25 -2.1650635094611 l 2.5 0 l -1.25 -2.1650635094611 l 1.25 -2.1650635094611 l -2.5 -0 l -1.25 -2.1650635094611 l 1.25 -2.1650635094611 l 2.5 0 l -1.25 -2.1650635094611 l 1.25 -2.1650635094611 l 2.5 0 l 1.25 2.1650635094611 l 1.25 -2.1650635094611 l 2.5 0 l 1.25 2.1650635094611 l -1.25 2.1650635094611 l 2.5 0 l 1.25 2.1650635094611 l 1.25 -2.1650635094611 l 2.5 0 l -1.25 -2.1650635094611 l 1.25 -2.1650635094611 l 2.5 0 l 1.25 2.1650635094611 l 1.25 -2.1650635094611 l 2.5 0 l 1.25 2.1650635094611 l -1.25 2.1650635094611 l 2.5 0 l 1.25 2.1650635094611 l -1.25 2.1650635094611 l -2.5 0 l 1.25 2.1650635094611 l -1.25 2.1650635094611 l 2.5 0 l 1.25 2.1650635094611 l 1.25 -2.1650635094611 l 2.5 0 l 1.25 2.1650635094611 l -1.25 2.1650635094611 l 2.5 0 l 1.25 2.1650635094611 l -1.25 2.1650635094611 l -2.5 0 l 1.25 2.1650635094611 l -1.25 2.1650635094611 l -2.5 0 l -1.25 -2.1650635094611 l -1.25 2.1650635094611 l -2.5 0 l 1.25 2.1650635094611 l -1.25 2.1650635094611 l 2.5 0 l 1.25 2.1650635094611 l -1.25 2.1650635094611 l -2.5 0 l 1.25 2.1650635094611 l -1.25 2.1650635094611 l 2.5 0 l 1.25 2.1650635094611 l 1.25 -2.1650635094611 l 2.5 0 l 1.25 2.1650635094611 l -1.25 2.1650635094611 l 2.5 0 l 1.25 2.1650635094611 l 1.25 -2.1650635094611 l 2.5 0 l -1.25 -2.1650635094611 l 1.25 -2.1650635094611 l 2.5 0 l 1.25 2.1650635094611 l 1.25 -2.1650635094611 l 2.5 0 l 1.25 2.1650635094611 l -1.25 2.1650635094611 l 2.5 0 l 1.25 2.1650635094611 l -1.25 2.1650635094611 l -2.5 0 l 1.25 2.1650635094611 l -1.25 2.1650635094611 l 2.5 0 l 1.25 2.1650635094611 l 1.25 -2.1650635094611 l 2.5 0 l 1.25 2.1650635094611 l -1.25 2.1650635094611 l 2.5 0 l 1.25 2.1650635094611 l 1.25 -2.1650635094611 l 2.5 0 l -1.25 -2.1650635094611 l 1.25 -2.1650635094611 l 2.5 0 l 1.25 2.1650635094611 l 1.25 -2.1650635094611 l 2.5 0 l -1.25 -2.1650635094611 l 1.25 -2.1650635094611 l -2.5 -0 l -1.25 -2.1650635094611 l 1.25 -2.1650635094611 l 2.5 0 l -1.25 -2.1650635094611 l 1.25 -2.1650635094611 l 2.5 0 l 1.25 2.1650635094611 l 1.25 -2.1650635094611 l 2.5 0 l 1.25 2.1650635094611 l -1.25 2.1650635094611 l 2.5 0 l 1.25 2.1650635094611 l 1.25 -2.1650635094611 l 2.5 0 l -1.25 -2.1650635094611 l 1.25 -2.1650635094611 l 2.5 0 l 1.25 2.1650635094611 l 1.25 -2.1650635094611 l 2.5 0 l -1.25 -2.1650635094611 l 1.25 -2.1650635094611 l -2.5 -0 l -1.25 -2.1650635094611 l 1.25 -2.1650635094611 l 2.5 0 l -1.25 -2.1650635094611 l 1.25 -2.1650635094611 l -2.5 -0 l -1.25 -2.1650635094611 l -1.25 2.1650635094611 l -2.5 -0 l -1.25 -2.1650635094611 l 1.25 -2.1650635094611 l -2.5 -0 l -1.25 -2.1650635094611 l 1.25 -2.1650635094611 l 2.5 0 l -1.25 -2.1650635094611 l 1.25 -2.1650635094611 l 2.5 0 l 1.25 2.1650635094611 l 1.25 -2.1650635094611 l 2.5 0 l -1.25 -2.1650635094611 l 1.25 -2.1650635094611 l -2.5 -0 l -1.25 -2.1650635094611 l 1.25 -2.1650635094611 l 2.5 0 l -1.25 -2.1650635094611 l 1.25 -2.1650635094611 l 2.5 0 l 1.25 2.1650635094611 l 1.25 -2.1650635094611 l 2.5 0 l 1.25 2.1650635094611 l -1.25 2.1650635094611 l 2.5 0 l 1.25 2.1650635094611 l 1.25 -2.1650635094611 l 2.5 0 l -1.25 -2.1650635094611 l 1.25 -2.1650635094611 l 2.5 0 l 1.25 2.1650635094611 l 1.25 -2.1650635094611 l 2.5 0 l 1.25 2.1650635094611 l -1.25 2.1650635094611 l 2.5 0 l 1.25 2.1650635094611 l -1.25 2.1650635094611 l -2.5 0 l 1.25 2.1650635094611 l -1.25 2.1650635094611 l 2.5 0 l 1.25 2.1650635094611 l 1.25 -2.1650635094611 l 2.5 0 l 1.25 2.1650635094611 l -1.25 2.1650635094611 l 2.5 0 l 1.25 2.1650635094611 l 1.25 -2.1650635094611 l 2.5 0 l -1.25 -2.1650635094611 l 1.25 -2.1650635094611 l 2.5 0 l 1.25 2.1650635094611 l 1.25 -2.1650635094611 l 2.5 0 l -1.25 -2.1650635094611 l 1.25 -2.1650635094611 l -2.5 -0 l -1.25 -2.1650635094611 l 1.25 -2.1650635094611 l 2.5 0 l -1.25 -2.1650635094611 l 1.25 -2.1650635094611 l 2.5 0 l 1.25 2.1650635094611 l 1.25 -2.1650635094611 l 2.5 0 l 1.25 2.1650635094611 l -1.25 2.1650635094611 l 2.5 0 l 1.25 2.1650635094611 l 1.25 -2.1650635094611 l 2.5 0 l -1.25 -2.1650635094611 l 1.25 -2.1650635094611 l 2.5 0 l 1.25 2.1650635094611 l 1.25 -2.1650635094611 l 2.5 0 l -1.25 -2.1650635094611 l 1.25 -2.1650635094611 l -2.5 -0 l -1.25 -2.1650635094611 l 1.25 -2.1650635094611 l 2.5 0 l -1.25 -2.1650635094611 l 1.25 -2.1650635094611 l -2.5 -0 l -1.25 -2.1650635094611 l -1.25 2.1650635094611 l -2.5 -0 l -1.25 -2.1650635094611 l 1.25 -2.1650635094611 l -2.5 -0 l -1.25 -2.1650635094611 l 1.25 -2.1650635094611 l 2.5 0 l -1.25 -2.1650635094611 l 1.25 -2.1650635094611 l 2.5 0 l 1.25 2.1650635094611 l 1.25 -2.1650635094611 l 2.5 0 l -1.25 -2.1650635094611 l 1.25 -2.1650635094611 l -2.5 -0 l -1.25 -2.1650635094611 l 1.25 -2.1650635094611 l 2.5 0 l -1.25 -2.1650635094611 l 1.25 -2.1650635094611 l -2.5 -0 l -1.25 -2.1650635094611 l -1.25 2.1650635094611 l -2.5 -0 l -1.25 -2.1650635094611 l 1.25 -2.1650635094611 l -2.5 -0 l -1.25 -2.1650635094611 l -1.25 2.1650635094611 l -2.5 -0 l 1.25 2.1650635094611 l -1.25 2.1650635094611 l -2.5 -0 l -1.25 -2.1650635094611 l -1.25 2.1650635094611 l -2.5 -0 l -1.25 -2.1650635094611 l 1.25 -2.1650635094611 l -2.5 -0 l -1.25 -2.1650635094611 l 1.25 -2.1650635094611 l 2.5 0 l -1.25 -2.1650635094611 l 1.25 -2.1650635094611 l -2.5 -0 l -1.25 -2.1650635094611 l -1.25 2.1650635094611 l -2.5 -0 l -1.25 -2.1650635094611 l 1.25 -2.1650635094611 l -2.5 -0 l -1.25 -2.1650635094611 l 1.25 -2.1650635094611 l 2.5 0 l -1.25 -2.1650635094611 l 1.25 -2.1650635094611 l 2.5 0 l 1.25 2.1650635094611 l 1.25 -2.1650635094611 l 2.5 0 l -1.25 -2.1650635094611 l 1.25 -2.1650635094611 l -2.5 -0 l -1.25 -2.1650635094611 l 1.25 -2.1650635094611 l 2.5 0 l -1.25 -2.1650635094611 l 1.25 -2.1650635094611 l 2.5 0 l 1.25 2.1650635094611 l 1.25 -2.1650635094611 l 2.5 0 l 1.25 2.1650635094611 l -1.25 2.1650635094611 l 2.5 0 l 1.25 2.1650635094611 l 1.25 -2.1650635094611 l 2.5 0 l -1.25 -2.1650635094611 l 1.25 -2.1650635094611 l 2.5 0 l 1.25 2.1650635094611 l 1.25 -2.1650635094611 l 2.5 0 l -1.25 -2.1650635094611 l 1.25 -2.1650635094611 l -2.5 -0 l -1.25 -2.1650635094611 l 1.25 -2.1650635094611 l 2.5 0 l -1.25 -2.1650635094611 l 1.25 -2.1650635094611 l -2.5 -0 l -1.25 -2.1650635094611 l -1.25 2.1650635094611 l -2.5 -0 l -1.25 -2.1650635094611 l 1.25 -2.1650635094611 l -2.5 -0 l -1.25 -2.1650635094611 l 1.25 -2.1650635094611 l 2.5 0 l -1.25 -2.1650635094611 l 1.25 -2.1650635094611 l 2.5 0 l 1.25 2.1650635094611 l 1.25 -2.1650635094611 l 2.5 0 l -1.25 -2.1650635094611 l 1.25 -2.1650635094611 l -2.5 -0 l -1.25 -2.1650635094611 l 1.25 -2.1650635094611 l 2.5 0 l -1.25 -2.1650635094611 l 1.25 -2.1650635094611 l -2.5 -0 l -1.25 -2.1650635094611 l -1.25 2.1650635094611 l -2.5 -0 l -1.25 -2.1650635094611 l 1.25 -2.1650635094611 l -2.5 -0 l -1.25 -2.1650635094611 l -1.25 2.1650635094611 l -2.5 -0 l 1.25 2.1650635094611 l -1.25 2.1650635094611 l -2.5 -0 l -1.25 -2.1650635094611 l -1.25 2.1650635094611 l -2.5 -0 l -1.25 -2.1650635094611 l 1.25 -2.1650635094611 l -2.5 -0 l -1.25 -2.1650635094611 l 1.25 -2.1650635094611 l 2.5 0 l -1.25 -2.1650635094611 l 1.25 -2.1650635094611 l -2.5 -0 l -1.25 -2.1650635094611 l -1.25 2.1650635094611 l -2.5 -0 l -1.25 -2.1650635094611 l 1.25 -2.1650635094611 l -2.5 -0 l -1.25 -2.1650635094611 l -1.25 2.1650635094611 l -2.5 -0 l 1.25 2.1650635094611 l -1.25 2.1650635094611 l -2.5 -0 l -1.25 -2.1650635094611 l -1.25 2.1650635094611 l -2.5 -0 l 1.25 2.1650635094611 l -1.25 2.1650635094611 l 2.5 0 l 1.25 2.1650635094611 l -1.25 2.1650635094611 l -2.5 -0 l 1.25 2.1650635094611 l -1.25 2.1650635094611 l -2.5 -0 l -1.25 -2.1650635094611 l -1.25 2.1650635094611 l -2.5 -0 l -1.25 -2.1650635094611 l 1.25 -2.1650635094611 l -2.5 -0 l -1.25 -2.1650635094611 l -1.25 2.1650635094611 l -2.5 -0 l 1.25 2.1650635094611 l -1.25 2.1650635094611 l -2.5 -0 l -1.25 -2.1650635094611 l -1.25 2.1650635094611 l -2.5 -0 l -1.25 -2.1650635094611 l 1.25 -2.1650635094611 l -2.5 -0 l -1.25 -2.1650635094611 l 1.25 -2.1650635094611 l 2.5 0 l -1.25 -2.1650635094611 l 1.25 -2.1650635094611 l -2.5 -0 l -1.25 -2.1650635094611 l -1.25 2.1650635094611 l -2.5 -0 l -1.25 -2.1650635094611 l 1.25 -2.1650635094611 l -2.5 -0 l -1.25 -2.1650635094611 l 1.25 -2.1650635094611 l 2.5 0 l -1.25 -2.1650635094611 l 1.25 -2.1650635094611 l 2.5 0 l 1.25 2.1650635094611 l 1.25 -2.1650635094611 l 2.5 0 l -1.25 -2.1650635094611 l 1.25 -2.1650635094611 l -2.5 -0 l -1.25 -2.1650635094611 l 1.25 -2.1650635094611 l 2.5 0 l -1.25 -2.1650635094611 l 1.25 -2.1650635094611 l -2.5 -0 l -1.25 -2.1650635094611 l -1.25 2.1650635094611 l -2.5 -0 l -1.25 -2.1650635094611 l 1.25 -2.1650635094611 l -2.5 -0 l -1.25 -2.1650635094611 l -1.25 2.1650635094611 l -2.5 -0 l 1.25 2.1650635094611 l -1.25 2.1650635094611 l -2.5 -0 l -1.25 -2.1650635094611 l -1.25 2.1650635094611 l -2.5 -0 l -1.25 -2.1650635094611 l 1.25 -2.1650635094611 l -2.5 -0 l -1.25 -2.1650635094611 l 1.25 -2.1650635094611 l 2.5 0 l -1.25 -2.1650635094611 l 1.25 -2.1650635094611 l -2.5 -0 l -1.25 -2.1650635094611 l -1.25 2.1650635094611 l -2.5 -0 l -1.25 -2.1650635094611 l 1.25 -2.1650635094611 l -2.5 -0 l -1.25 -2.1650635094611 l -1.25 2.1650635094611 l -2.5 -0 l 1.25 2.1650635094611 l -1.25 2.1650635094611 l -2.5 -0 l -1.25 -2.1650635094611 l -1.25 2.1650635094611 l -2.5 -0 l 1.25 2.1650635094611 l -1.25 2.1650635094611 l 2.5 0 l 1.25 2.1650635094611 l -1.25 2.1650635094611 l -2.5 -0 l 1.25 2.1650635094611 l -1.25 2.1650635094611 l -2.5 -0 l -1.25 -2.1650635094611 l -1.25 2.1650635094611 l -2.5 -0 l -1.25 -2.1650635094611 l 1.25 -2.1650635094611 l -2.5 -0 l -1.25 -2.1650635094611 l -1.25 2.1650635094611 l -2.5 -0 l 1.25 2.1650635094611 l -1.25 2.1650635094611 l -2.5 -0 l -1.25 -2.1650635094611 l -1.25 2.1650635094611 l -2.5 -0 l 1.25 2.1650635094611 l -1.25 2.1650635094611 l 2.5 0 l 1.25 2.1650635094611 l -1.25 2.1650635094611 l -2.5 -0 l 1.25 2.1650635094611 l -1.25 2.1650635094611 l 2.5 0 l 1.25 2.1650635094611 l 1.25 -2.1650635094611 l 2.5 0 l 1.25 2.1650635094611 l -1.25 2.1650635094611 l 2.5 0 l 1.25 2.1650635094611 l -1.25 2.1650635094611 l -2.5 -0 l 1.25 2.1650635094611 l -1.25 2.1650635094611 l -2.5 -0 l -1.25 -2.1650635094611 l -1.25 2.1650635094611 l -2.5 -0 l 1.25 2.1650635094611 l -1.25 2.1650635094611 l 2.5 0 l 1.25 2.1650635094611 l -1.25 2.1650635094611 l -2.5 -0 l 1.25 2.1650635094611 l -1.25 2.1650635094611 l -2.5 -0 l -1.25 -2.1650635094611 l -1.25 2.1650635094611 l -2.5 -0 l -1.25 -2.1650635094611 l 1.25 -2.1650635094611 l -2.5 -0 l -1.25 -2.1650635094611 l -1.25 2.1650635094611 l -2.5 -0 l 1.25 2.1650635094611 l -1.25 2.1650635094611 l -2.5 -0 l -1.25 -2.1650635094611 l -1.25 2.1650635094611 l -2.5 -0 l -1.25 -2.1650635094611 l 1.25 -2.1650635094611 l -2.5 -0 l -1.25 -2.1650635094611 l 1.25 -2.1650635094611 l 2.5 0 l -1.25 -2.1650635094611 l 1.25 -2.1650635094611 l -2.5 -0 l -1.25 -2.1650635094611 l -1.25 2.1650635094611 l -2.5 -0 l -1.25 -2.1650635094611 l 1.25 -2.1650635094611 l -2.5 -0 l -1.25 -2.1650635094611 l -1.25 2.1650635094611 l -2.5 -0 l 1.25 2.1650635094611 l -1.25 2.1650635094611 l -2.5 -0 l -1.25 -2.1650635094611 l -1.25 2.1650635094611 l -2.5 -0 l 1.25 2.1650635094611 l -1.25 2.1650635094611 l 2.5 0 l 1.25 2.1650635094611 l -1.25 2.1650635094611 l -2.5 -0 l 1.25 2.1650635094611 l -1.25 2.1650635094611 l -2.5 -0 l -1.25 -2.1650635094611 l -1.25 2.1650635094611 l -2.5 -0 l -1.25 -2.1650635094611 l 1.25 -2.1650635094611 l -2.5 -0 l -1.25 -2.1650635094611 l -1.25 2.1650635094611 l -2.5 -0 l 1.25 2.1650635094611 l -1.25 2.1650635094611 l -2.5 -0 l -1.25 -2.1650635094611 l -1.25 2.1650635094611 l -2.5 -0 l 1.25 2.1650635094611 l -1.25 2.1650635094611 l 2.5 0 l 1.25 2.1650635094611 l -1.25 2.1650635094611 l -2.5 -0 l 1.25 2.1650635094611 l -1.25 2.1650635094611 l 2.5 0 l 1.25 2.1650635094611 l 1.25 -2.1650635094611 l 2.5 0 l 1.25 2.1650635094611 l -1.25 2.1650635094611 l 2.5 0 l 1.25 2.1650635094611 l -1.25 2.1650635094611 l -2.5 -0 l 1.25 2.1650635094611 l -1.25 2.1650635094611 l -2.5 -0 l -1.25 -2.1650635094611 l -1.25 2.1650635094611 l -2.5 -0 l 1.25 2.1650635094611 l -1.25 2.1650635094611 l 2.5 0 l 1.25 2.1650635094611 l -1.25 2.1650635094611 l -2.5 -0 l 1.25 2.1650635094611 l -1.25 2.1650635094611 l 2.5 0 l 1.25 2.1650635094611 l 1.25 -2.1650635094611 l 2.5 0 l 1.25 2.1650635094611 l -1.25 2.1650635094611 l 2.5 0 l 1.25 2.1650635094611 l 1.25 -2.1650635094611 l 2.5 0 l -1.25 -2.1650635094611 l 1.25 -2.1650635094611 l 2.5 0 l 1.25 2.1650635094611 l 1.25 -2.1650635094611 l 2.5 0 l 1.25 2.1650635094611 l -1.25 2.1650635094611 l 2.5 0 l 1.25 2.1650635094611 l -1.25 2.1650635094611 l -2.5 -0 l 1.25 2.1650635094611 l -1.25 2.1650635094611 l 2.5 0 l 1.25 2.1650635094611 l 1.25 -2.1650635094611 l 2.5 0 l 1.25 2.1650635094611 l -1.25 2.1650635094611 l 2.5 0 l 1.25 2.1650635094611 l -1.25 2.1650635094611 l -2.5 -0 l 1.25 2.1650635094611 l -1.25 2.1650635094611 l -2.5 -0 l -1.25 -2.1650635094611 l -1.25 2.1650635094611 l -2.5 -0 l 1.25 2.1650635094611 l -1.25 2.1650635094611 l 2.5 0 l 1.25 2.1650635094611 l -1.25 2.1650635094611 l -2.5 -0 l 1.25 2.1650635094611 l -1.25 2.1650635094611 l -2.5 -0 l -1.25 -2.1650635094611 l -1.25 2.1650635094611 l -2.5 -0 l -1.25 -2.1650635094611 l 1.25 -2.1650635094611 l -2.5 -0 l -1.25 -2.1650635094611 l -1.25 2.1650635094611 l -2.5 -0 l 1.25 2.1650635094611 l -1.25 2.1650635094611 l -2.5 -0 l -1.25 -2.1650635094611 l -1.25 2.1650635094611 l -2.5 -0 l 1.25 2.1650635094611 l -1.25 2.1650635094611 l 2.5 0 l 1.25 2.1650635094611 l -1.25 2.1650635094611 l -2.5 -0 l 1.25 2.1650635094611 l -1.25 2.1650635094611 l 2.5 0 l 1.25 2.1650635094611 l 1.25 -2.1650635094611 l 2.5 0 l 1.25 2.1650635094611 l -1.25 2.1650635094611 l 2.5 0 l 1.25 2.1650635094611 l -1.25 2.1650635094611 l -2.5 -0 l 1.25 2.1650635094611 l -1.25 2.1650635094611 l -2.5 -0 l -1.25 -2.1650635094611 l -1.25 2.1650635094611 l -2.5 -0 l 1.25 2.1650635094611 l -1.25 2.1650635094611 l 2.5 0 l 1.25 2.1650635094611 l -1.25 2.1650635094611 l -2.5 -0 l 1.25 2.1650635094611 l -1.25 2.1650635094611" stroke="#4488ff" stroke-width="0.1%" fill="transparent" class="foreground-stroke" />
    </pattern>
  </defs>
  <rect width="10000%" height="10000%" x="-5000%" y="-5000%" fill="url(#turtle-pattern)" transform-origin="50% 50%" />
</svg>