<svg xmlns="http://www.w3.org/2000/svg" width="100%" height="100%" transform-origin="50% 50%">
  <symbol id="turtle-symbol" viewBox="0 0 480 415.692193816531" transform-origin="50% 50%">
    <path id="turtle-path" d="m 0 415.692193816531  l 15 0 l -7.5 -12.9903810567666 l 15 0 l -7.5 12.9903810567666 l 15 0 l -7.5 -12.9903810567666 l -7.5 -12.9903810567666 l 15 0 l -7.5 -12.9903810567666 l 15 0 l -7.5 12.9903810567666 l 15 0 l -7.5 12.9903810567666 l -7.5 12.9903810567666 l 15 0 l -7.5 -12.9903810567666 l 15 0 l -7.5 12.9903810567666 l 15 0 l -7.5 -12.9903810567666 l -7.5 -12.9903810567666 l -7.5 -12.9903810567666 l -7.5 -12.9903810567666 l 15 0 l -7.5 -12.9903810567666 l 15 0 l -7.5 12.9903810567666 l 15 0 l -7.5 -12.9903810567666 l -7.5 -12.9903810567666 l 15 0 l -7.5 -12.9903810567666 l 15 0 l -7.5 12.9903810567666 l 15 0 l -7.5 12.9903810567666 l -7.5 12.9903810567666 l 15 0 l -7.5 -12.9903810567666 l 15 0 l -7.5 12.9903810567666 l 15 0 l -7.5 12.9903810567666 l -7.5 12.9903810567666 l -7.5 12.9903810567666 l -7.5 12.9903810567666 l 15 0 l -7.5 -12.9903810567666 l 15 0 l -7.5 12.9903810567666 l 15 0 l -7.5 -12.9903810567666 l -7.5 -12.9903810567666 l 15 0 l -7.5 -12.9903810567666 l 15 0 l -7.5 12.9903810567666 l 15 0 l -7.5 12.9903810567666 l -7.5 12.9903810567666 l 15 0 l -7.5 -12.9903810567666 l 15 0 l -7.5 12.9903810567666 l 15 0 l -7.5 -12.9903810567666 l -7.5 -12.9903810567666 l -7.5 -12.9903810567666 l -7.5 -12.9903810567666 l -7.5 -12.9903810567666 l -7.5 -12.9903810567666 l -7.5 -12.9903810567666 l -7.5 -12.9903810567666 l 15 0 l -7.5 -12.9903810567666 l 15 0 l -7.5 12.9903810567666 l 15 0 l -7.5 -12.9903810567666 l -7.5 -12.9903810567666 l 15 0 l -7.5 -12.9903810567666 l 15 0 l -7.5 12.9903810567666 l 15 0 l -7.5 12.9903810567666 l -7.5 12.9903810567666 l 15 0 l -7.5 -12.9903810567666 l 15 0 l -7.5 12.9903810567666 l 15 0 l -7.5 -12.9903810567666 l -7.5 -12.9903810567666 l -7.5 -12.9903810567666 l -7.5 -12.9903810567666 l 15 0 l -7.5 -12.9903810567666 l 15 0 l -7.5 12.9903810567666 l 15 0 l -7.5 -12.9903810567666 l -7.5 -12.9903810567666 l 15 0 l -7.5 -12.9903810567666 l 15 0 l -7.5 12.9903810567666 l 15 0 l -7.5 12.9903810567666 l -7.5 12.9903810567666 l 15 0 l -7.5 -12.9903810567666 l 15 0 l -7.5 12.9903810567666 l 15 0 l -7.5 12.9903810567666 l -7.5 12.9903810567666 l -7.5 12.9903810567666 l -7.5 12.9903810567666 l 15 0 l -7.5 -12.9903810567666 l 15 0 l -7.5 12.9903810567666 l 15 0 l -7.5 -12.9903810567666 l -7.5 -12.9903810567666 l 15 0 l -7.5 -12.9903810567666 l 15 0 l -7.5 12.9903810567666 l 15 0 l -7.5 12.9903810567666 l -7.5 12.9903810567666 l 15 0 l -7.5 -12.9903810567666 l 15 0 l -7.5 12.9903810567666 l 15 0 l -7.5 12.9903810567666 l -7.5 12.9903810567666 l -7.5 12.9903810567666 l -7.5 12.9903810567666 l -7.5 12.9903810567666 l -7.5 12.9903810567666 l -7.5 12.9903810567666 l -7.5 12.9903810567666 l 15 0 l -7.5 -12.9903810567666 l 15 0 l -7.5 12.9903810567666 l 15 0 l -7.5 -12.9903810567666 l -7.5 -12.9903810567666 l 15 0 l -7.5 -12.9903810567666 l 15 0 l -7.5 12.9903810567666 l 15 0 l -7.5 12.9903810567666 l -7.5 12.9903810567666 l 15 0 l -7.5 -12.9903810567666 l 15 0 l -7.5 12.9903810567666 l 15 0 l -7.5 -12.9903810567666 l -7.5 -12.9903810567666 l -7.5 -12.9903810567666 l -7.5 -12.9903810567666 l 15 0 l -7.5 -12.9903810567666 l 15 0 l -7.5 12.9903810567666 l 15 0 l -7.5 -12.9903810567666 l -7.5 -12.9903810567666 l 15 0 l -7.5 -12.9903810567666 l 15 0 l -7.5 12.9903810567666 l 15 0 l -7.5 12.9903810567666 l -7.5 12.9903810567666 l 15 0 l -7.5 -12.9903810567666 l 15 0 l -7.5 12.9903810567666 l 15 0 l -7.5 12.9903810567666 l -7.5 12.9903810567666 l -7.5 12.9903810567666 l -7.5 12.9903810567666 l 15 0 l -7.5 -12.9903810567666 l 15 0 l -7.5 12.9903810567666 l 15 0 l -7.5 -12.9903810567666 l -7.5 -12.9903810567666 l 15 0 l -7.5 -12.9903810567666 l 15 0 l -7.5 12.9903810567666 l 15 0 l -7.5 12.9903810567666 l -7.5 12.9903810567666 l 15 0 l -7.5 -12.9903810567666 l 15 0 l -7.5 12.9903810567666 l 15 0 l -7.5 -12.9903810567666 l -7.5 -12.9903810567666 l -7.5 -12.9903810567666 l -7.5 -12.9903810567666 l -7.5 -12.9903810567666 l -7.5 -12.9903810567666 l -7.5 -12.9903810567666 l -7.5 -12.9903810567666 l -7.5 -12.9903810567666 l -7.5 -12.9903810567666 l -7.5 -12.9903810567666 l -7.5 -12.9903810567666 l -7.5 -12.9903810567666 l -7.5 -12.9903810567666 l -7.5 -12.9903810567666 l -7.5 -12.9903810567666 l 15 0 l -7.5 -12.9903810567666 l 15 0 l -7.5 12.9903810567666 l 15 0 l -7.5 -12.9903810567666 l -7.5 -12.9903810567666 l 15 0 l -7.5 -12.9903810567666 l 15 0 l -7.5 12.9903810567666 l 15 0 l -7.5 12.9903810567666 l -7.5 12.9903810567666 l 15 0 l -7.5 -12.9903810567666 l 15 0 l -7.5 12.9903810567666 l 15 0 l -7.5 -12.9903810567666 l -7.5 -12.9903810567666 l -7.5 -12.9903810567666 l -7.5 -12.9903810567666 l 15 0 l -7.5 -12.9903810567666 l 15 0 l -7.5 12.9903810567666 l 15 0 l -7.5 -12.9903810567666 l -7.5 -12.9903810567666 l 15 0 l -7.5 -12.9903810567666 l 15 0 l -7.5 12.9903810567666 l 15 0 l -7.5 12.9903810567666 l -7.5 12.9903810567666 l 15 0 l -7.5 -12.9903810567666 l 15 0 l -7.5 12.9903810567666 l 15 0 l -7.5 12.9903810567666 l -7.5 12.9903810567666 l -7.5 12.9903810567666 l -7.5 12.9903810567666 l 15 0 l -7.5 -12.9903810567666 l 15 0 l -7.5 12.9903810567666 l 15 0 l -7.5 -12.9903810567666 l -7.5 -12.9903810567666 l 15 0 l -7.5 -12.9903810567666 l 15 0 l -7.5 12.9903810567666 l 15 0 l -7.5 12.9903810567666 l -7.5 12.9903810567666 l 15 0 l -7.5 -12.9903810567666 l 15 0 l -7.5 12.9903810567666 l 15 0 l -7.5 -12.9903810567666 l -7.5 -12.9903810567666 l -7.5 -12.9903810567666 l -7.5 -12.9903810567666 l -7.5 -12.9903810567666 l -7.5 -12.9903810567666 l -7.5 -12.9903810567666 l -7.5 -12.9903810567666 l 15 0 l -7.5 -12.9903810567666 l 15 0 l -7.5 12.9903810567666 l 15 0 l -7.5 -12.9903810567666 l -7.5 -12.9903810567666 l 15 0 l -7.5 -12.9903810567666 l 15 0 l -7.5 12.9903810567666 l 15 0 l -7.5 12.9903810567666 l -7.5 12.9903810567666 l 15 0 l -7.5 -12.9903810567666 l 15 0 l -7.5 12.9903810567666 l 15 0 l -7.5 -12.9903810567666 l -7.5 -12.9903810567666 l -7.5 -12.9903810567666 l -7.5 -12.9903810567666 l 15 0 l -7.5 -12.9903810567666 l 15 0 l -7.5 12.9903810567666 l 15 0 l -7.5 -12.9903810567666 l -7.5 -12.9903810567666 l 15 0 l -7.5 -12.9903810567666 l 15 0 l -7.5 12.9903810567666 l 15 0 l -7.5 12.9903810567666 l -7.5 12.9903810567666 l 15 0 l -7.5 -12.9903810567666 l 15 0 l -7.5 12.9903810567666 l 15 0 l -7.5 12.9903810567666 l -7.5 12.9903810567666 l -7.5 12.9903810567666 l -7.5 12.9903810567666 l 15 0 l -7.5 -12.9903810567666 l 15 0 l -7.5 12.9903810567666 l 15 0 l -7.5 -12.9903810567666 l -7.5 -12.9903810567666 l 15 0 l -7.5 -12.9903810567666 l 15 0 l -7.5 12.9903810567666 l 15 0 l -7.5 12.9903810567666 l -7.5 12.9903810567666 l 15 0 l -7.5 -12.9903810567666 l 15 0 l -7.5 12.9903810567666 l 15 0 l -7.5 12.9903810567666 l -7.5 12.9903810567666 l -7.5 12.9903810567666 l -7.5 12.9903810567666 l -7.5 12.9903810567666 l -7.5 12.9903810567666 l -7.5 12.9903810567666 l -7.5 12.9903810567666 l 15 0 l -7.5 -12.9903810567666 l 15 0 l -7.5 12.9903810567666 l 15 0 l -7.5 -12.9903810567666 l -7.5 -12.9903810567666 l 15 0 l -7.5 -12.9903810567666 l 15 0 l -7.5 12.9903810567666 l 15 0 l -7.5 12.9903810567666 l -7.5 12.9903810567666 l 15 0 l -7.5 -12.9903810567666 l 15 0 l -7.5 12.9903810567666 l 15 0 l -7.5 -12.9903810567666 l -7.5 -12.9903810567666 l -7.5 -12.9903810567666 l -7.5 -12.9903810567666 l 15 0 l -7.5 -12.9903810567666 l 15 0 l -7.5 12.9903810567666 l 15 0 l -7.5 -12.9903810567666 l -7.5 -12.9903810567666 l 15 0 l -7.5 -12.9903810567666 l 15 0 l -7.5 12.9903810567666 l 15 0 l -7.5 12.9903810567666 l -7.5 12.9903810567666 l 15 0 l -7.5 -12.9903810567666 l 15 0 l -7.5 12.9903810567666 l 15 0 l -7.5 12.9903810567666 l -7.5 12.9903810567666 l -7.5 12.9903810567666 l -7.5 12.9903810567666 l 15 0 l -7.5 -12.9903810567666 l 15 0 l -7.5 12.9903810567666 l 15 0 l -7.5 -12.9903810567666 l -7.5 -12.9903810567666 l 15 0 l -7.5 -12.9903810567666 l 15 0 l -7.5 12.9903810567666 l 15 0 l -7.5 12.9903810567666 l -7.5 12.9903810567666 l 15 0 l -7.5 -12.9903810567666 l 15 0 l -7.5 12.9903810567666 l 15 0 l -7.5 12.9903810567666 l -7.5 12.9903810567666 l -7.5 12.9903810567666 l -7.5 12.9903810567666 l -7.5 12.9903810567666 l -7.5 12.9903810567666 l -7.5 12.9903810567666 l -7.5 12.9903810567666 l -7.5 12.9903810567666 l -7.5 12.9903810567666 l -7.5 12.9903810567666 l -7.5 12.9903810567666 l -7.5 12.9903810567666 l -7.5 12.9903810567666 l -7.5 12.9903810567666 l -7.5 12.9903810567666 l 15 0 l -7.5 -12.9903810567666 l 15 0 l -7.5 12.9903810567666 l 15 0 l -7.5 -12.9903810567666 l -7.5 -12.9903810567666 l 15 0 l -7.5 -12.9903810567666 l 15 0 l -7.5 12.9903810567666 l 15 0 l -7.5 12.9903810567666 l -7.5 12.9903810567666 l 15 0 l -7.5 -12.9903810567666 l 15 0 l -7.5 12.9903810567666 l 15 0 l -7.5 -12.9903810567666 l -7.5 -12.9903810567666 l -7.5 -12.9903810567666 l -7.5 -12.9903810567666 l 15 0 l -7.5 -12.9903810567666 l 15 0 l -7.5 12.9903810567666 l 15 0 l -7.5 -12.9903810567666 l -7.5 -12.9903810567666 l 15 0 l -7.5 -12.9903810567666 l 15 0 l -7.5 12.9903810567666 l 15 0 l -7.5 12.9903810567666 l -7.5 12.9903810567666 l 15 0 l -7.5 -12.9903810567666 l 15 0 l -7.5 12.9903810567666 l 15 0 l -7.5 12.9903810567666 l -7.5 12.9903810567666 l -7.5 12.9903810567666 l -7.5 12.9903810567666 l 15 0 l -7.5 -12.9903810567666 l 15 0 l -7.5 12.9903810567666 l 15 0 l -7.5 -12.9903810567666 l -7.5 -12.9903810567666 l 15 0 l -7.5 -12.9903810567666 l 15 0 l -7.5 12.9903810567666 l 15 0 l -7.5 12.9903810567666 l -7.5 12.9903810567666 l 15 0 l -7.5 -12.9903810567666 l 15 0 l -7.5 12.9903810567666 l 15 0 l -7.5 -12.9903810567666 l -7.5 -12.9903810567666 l -7.5 -12.9903810567666 l -7.5 -12.9903810567666 l -7.5 -12.9903810567666 l -7.5 -12.9903810567666 l -7.5 -12.9903810567666 l -7.5 -12.9903810567666 l 15 0 l -7.5 -12.9903810567666 l 15 0 l -7.5 12.9903810567666 l 15 0 l -7.5 -12.9903810567666 l -7.5 -12.9903810567666 l 15 0 l -7.5 -12.9903810567666 l 15 0 l -7.5 12.9903810567666 l 15 0 l -7.5 12.9903810567666 l -7.5 12.9903810567666 l 15 0 l -7.5 -12.9903810567666 l 15 0 l -7.5 12.9903810567666 l 15 0 l -7.5 -12.9903810567666 l -7.5 -12.9903810567666 l -7.5 -12.9903810567666 l -7.5 -12.9903810567666 l 15 0 l -7.5 -12.9903810567666 l 15 0 l -7.5 12.9903810567666 l 15 0 l -7.5 -12.9903810567666 l -7.5 -12.9903810567666 l 15 0 l -7.5 -12.9903810567666 l 15 0 l -7.5 12.9903810567666 l 15 0 l -7.5 12.9903810567666 l -7.5 12.9903810567666 l 15 0 l -7.5 -12.9903810567666 l 15 0 l -7.5 12.9903810567666 l 15 0 l -7.5 12.9903810567666 l -7.5 12.9903810567666 l -7.5 12.9903810567666 l -7.5 12.9903810567666 l 15 0 l -7.5 -12.9903810567666 l 15 0 l -7.5 12.9903810567666 l 15 0 l -7.5 -12.9903810567666 l -7.5 -12.9903810567666 l 15 0 l -7.5 -12.9903810567666 l 15 0 l -7.5 12.9903810567666 l 15 0 l -7.5 12.9903810567666 l -7.5 12.9903810567666 l 15 0 l -7.5 -12.9903810567666 l 15 0 l -7.5 12.9903810567666 l 15 0 l -7.5 12.9903810567666 l -7.5 12.9903810567666 l -7.5 12.9903810567666 l -7.5 12.9903810567666 l -7.5 12.9903810567666 l -7.5 12.9903810567666 l -7.5 12.9903810567666 l -7.5 12.9903810567666 l 15 0 l -7.5 -12.9903810567666 l 15 0 l -7.5 12.9903810567666 l 15 0 l -7.5 -12.9903810567666 l -7.5 -12.9903810567666 l 15 0 l -7.5 -12.9903810567666 l 15 0 l -7.5 12.9903810567666 l 15 0 l -7.5 12.9903810567666 l -7.5 12.9903810567666 l 15 0 l -7.5 -12.9903810567666 l 15 0 l -7.5 12.9903810567666 l 15 0 l -7.5 -12.9903810567666 l -7.5 -12.9903810567666 l -7.5 -12.9903810567666 l -7.5 -12.9903810567666 l 15 0 l -7.5 -12.9903810567666 l 15 0 l -7.5 12.9903810567666 l 15 0 l -7.5 -12.9903810567666 l -7.5 -12.9903810567666 l 15 0 l -7.5 -12.9903810567666 l 15 0 l -7.5 12.9903810567666 l 15 0 l -7.5 12.9903810567666 l -7.5 12.9903810567666 l 15 0 l -7.5 -12.9903810567666 l 15 0 l -7.5 12.9903810567666 l 15 0 l -7.5 12.9903810567666 l -7.5 12.9903810567666 l -7.5 12.9903810567666 l -7.5 12.9903810567666 l 15 0 l -7.5 -12.9903810567666 l 15 0 l -7.5 12.9903810567666 l 15 0 l -7.5 -12.9903810567666 l -7.5 -12.9903810567666 l 15 0 l -7.5 -12.9903810567666 l 15 0 l -7.5 12.9903810567666 l 15 0 l -7.5 12.9903810567666 l -7.5 12.9903810567666 l 15 0 l -7.5 -12.9903810567666 l 15 0 l -7.5 12.9903810567666 l 15 0 l -7.5 -12.9903810567666 l -7.5 -12.9903810567666 l -7.5 -12.9903810567666 l -7.5 -12.9903810567666 l -7.5 -12.9903810567666 l -7.5 -12.9903810567666 l -7.5 -12.9903810567666 l -7.5 -12.9903810567666 l -7.5 -12.9903810567666 l -7.5 -12.9903810567666 l -7.5 -12.9903810567666 l -7.5 -12.9903810567666 l -7.5 -12.9903810567666 l -7.5 -12.9903810567666 l -7.5 -12.9903810567666 l -7.5 -12.9903810567666 l -7.5 -12.9903810567666 l -7.5 -12.9903810567666 l -7.5 -12.9903810567666 l -7.5 -12.9903810567666 l -7.5 -12.9903810567666 l -7.5 -12.9903810567666 l -7.5 -12.9903810567666 l -7.5 -12.9903810567666 l -7.5 -12.9903810567666 l -7.5 -12.9903810567666 l -7.5 -12.9903810567666 l -7.5 -12.9903810567666 l -7.5 -12.9903810567666 l -7.5 -12.9903810567666 l -7.5 -12.9903810567666 l -7.5 -12.9903810567666 l -7.5 12.9903810567666 l -7.5 12.9903810567666 l -7.5 12.9903810567666 l -7.5 12.9903810567666 l -7.5 12.9903810567666 l -7.5 12.9903810567666 l -7.5 12.9903810567666 l -7.5 12.9903810567666 l -7.5 12.9903810567666 l -7.5 12.9903810567666 l -7.5 12.9903810567666 l -7.5 12.9903810567666 l -7.5 12.9903810567666 l -7.5 12.9903810567666 l -7.5 12.9903810567666 l -7.5 12.9903810567666 l -7.5 12.9903810567666 l -7.5 12.9903810567666 l -7.5 12.9903810567666 l -7.5 12.9903810567666 l -7.5 12.9903810567666 l -7.5 12.9903810567666 l -7.5 12.9903810567666 l -7.5 12.9903810567666 l -7.5 12.9903810567666 l -7.5 12.9903810567666 l -7.5 12.9903810567666 l -7.5 12.9903810567666 l -7.5 12.9903810567666 l -7.5 12.9903810567666 l -7.5 12.9903810567666 l -7.5 12.9903810567666" stroke="#4488ff" stroke-width="0.5%" fill="transparent" class="foreground-stroke" />
  </symbol>
  <use href="#turtle-symbol" width="100%" height="100%" transform-origin="50% 50%" />
</svg>