<svg xmlns="http://www.w3.org/2000/svg" viewBox="0 0 258.492034912109 202.263412475586" transform-origin="50% 50%" width="100%" height="100%">
  <path id="turtle-path" d="m 0 0   m 0 50 l 5.23519 0.091381 l 5.232798 0.182733 l 5.228812 0.27403 l 5.223233 0.365244 l 5.216063 0.456346 l 5.207304 0.54731 l 5.196959 0.638106 l 5.185031 0.728709 l 5.171524 0.819089 l 5.156441 0.90922 l 5.139788 0.999074 l 5.121569 1.088623 l 5.10179 1.177841 l 5.080457 1.2667 l 5.057576 1.355173 l 5.033154 1.443234 l 5.0072 1.530855 l 4.97972 1.618009 l 4.950724 1.704671 l 4.920219 1.790813 l 4.888216 1.87641 l 4.854723 1.961436 l 4.819752 2.045863 l 4.783313 2.129668 l 4.745416 2.212824 l 4.706075 2.295306 l 4.665299 2.377089 l 4.623103 2.458147 l 4.579498 2.538457 l 4.534498 2.617994 l 4.488117 2.696733 l 4.440369 2.774651 l 4.391269 2.851723 l 4.340831 2.927927 l 4.28907 3.003239 l 4.236003 3.077636 l 4.181646 3.151096 l 4.126015 3.223596 l 4.069127 3.295114 l 4.010999 3.365628 l 3.95165 3.435117 l 3.891097 3.50356 l 3.829359 3.570935 l 3.766454 3.637223 l 3.702402 3.702402 l 3.637223 3.766454 l 3.570935 3.829359 l 3.50356 3.891097 l 3.435117 3.95165 l 3.365628 4.010999 l 3.295114 4.069127 l 3.223596 4.126015 l 3.151096 4.181646 l 3.077636 4.236003 l 3.003239 4.28907 l 2.927927 4.340831 l 2.851723 4.391269 l 2.774651 4.440369 l 2.696733 4.488117 l 2.617994 4.534498" stroke="currentcolor" stroke-width="0.25%" fill="transparent" class="foreground-stroke" transform-origin="50% 50%">
  </path>
  <text id="turtle-text" font-size="36">
    <textPath href="#turtle-path">turtles on a text path</textPath>
  </text>
</svg>