<svg xmlns="http://www.w3.org/2000/svg" width="100%" height="100%" transform-origin="50% 50%">
  <symbol id="turtle-symbol" viewBox="0 0 258.492029002253 202.263441468214" transform-origin="50% 50%">
    <svg xmlns="http://www.w3.org/2000/svg" viewBox="0 0 258.492029002253 202.263441468214" transform-origin="50% 50%" width="100%" height="100%">
      <path id="turtle-path" d="m 0 0  m 3.06161699786838E-15 50  l 5.23519028968668 0.0913805864180552  l 5.2327981337137 0.182733337424264  l 5.22881201673794 0.274030426085715  l 5.22323315296924 0.365244042424789  l 5.21606324178355 0.456346401890341  l 5.20730446720527 0.547309753821151  l 5.196959497242 0.638106389899038  l 5.18503148307178 0.728708652589087  l 5.1715240580833 0.819088943564398  l 5.15644133676904 0.909219732112806  l 5.13978791347204 0.999073563523003  l 5.12156886098634 1.08862306744751  l 5.10178972901184 1.17784096623994  l 5.08045654246374 1.26670008326406  l 5.05757579963731 1.35517335117201  l 5.03315447022848 1.44323382014933  l 5.00719999321075 1.53085466612412  l 4.97972027456926 1.61800919893789  l 4.9507236848925 1.70467087047565  l 4.92021905682258 1.79081328275275  l 4.88821568236473 1.87641019595592  l 4.85472331005681 1.96143553643621  l 4.81975214199989 2.04586340465125  l 4.78331283075053 2.12966808305451  l 4.74541647607594 2.21282404392912  l 4.70607462157285 2.29530595716383  l 4.66529925115126 2.37708869796887  l 4.62310278538399 2.45814735452912  l 4.5794980777233 2.53845723559258  l 4.53449841058555 2.61799387799149  l 4.48811749130525 2.69673305409409  l 4.44036944795973 2.77465077918457  l 4.39126882506554 2.85172331876907  l 4.34083057914806 2.92792719580541  l 4.2890700741856 3.00323919785443  l 4.23600307692938 3.07763638415076  l 4.18164575210085 3.15109609259074  l 4.12601465746772 3.22359594663557  l 4.06912673880033 3.29511386212738  l 4.01099932470978 3.36562805401629  l 3.9516501213695 3.43511704299638  l 3.89109720712175 3.50355966204845  l 3.82935902697081 3.57093506288772  l 3.76645438696443 3.6372227223144  l 3.70240244846531 3.70240244846531  l 3.63722272231441 3.76645438696442  l 3.57093506288772 3.82935902697081  l 3.50355966204845 3.89109720712175  l 3.43511704299638 3.9516501213695  l 3.36562805401629 4.01099932470978  l 3.29511386212738 4.06912673880033  l 3.22359594663557 4.12601465746772  l 3.15109609259074 4.18164575210085  l 3.07763638415076 4.23600307692938  l 3.00323919785443 4.2890700741856  l 2.92792719580541 4.34083057914806  l 2.85172331876907 4.39126882506554  l 2.77465077918457 4.44036944795973  l 2.69673305409409 4.48811749130525  l 2.61799387799149 4.53449841058554" stroke="currentcolor" stroke-width="0.25%" fill="transparent" class="foreground-stroke" transform-origin="50% 50%">
      </path>
      <text id="turtle-text" font-size="36">
        <textPath href="#turtle-path">turtles on a text path</textPath>
      </text>
    </svg>
  </symbol>
  <use href="#turtle-symbol" width="100%" height="100%" transform-origin="50% 50%" />
</svg>