<svg xmlns="http://www.w3.org/2000/svg" viewBox="0 0 83.991455 83.991463" transform-origin="50% 50%" width="100%" height="100%">
  <path id="turtle-path" d="m 0 83.991463   l 0 -1.466077 l 0.051165 -1.465183 l 0.102268 -1.462505 l 0.153247 -1.458045 l 0.204038 -1.451809 l 0.254582 -1.443804 l 0.304814 -1.434039 l 0.354676 -1.422528 l 0.404105 -1.409283 l 0.453043 -1.394322 l 0.501428 -1.377661 l 0.549202 -1.359323 l 0.596307 -1.339328 l 0.642686 -1.317701 l 0.688281 -1.294469 l 0.733038 -1.26966 l 0.776902 -1.243303 l 0.81982 -1.215433 l 0.861738 -1.186081 l 0.902607 -1.155284 l 0.942376 -1.12308 l 0.980997 -1.089507 l 1.018422 -1.054607 l 1.054607 -1.018422 l 1.089507 -0.980997 l 1.12308 -0.942376 l 1.155284 -0.902607 l 1.186081 -0.861738 l 1.215433 -0.81982 l 1.243303 -0.776902 l 1.26966 -0.733038 l 1.294469 -0.688281 l 1.317701 -0.642686 l 1.339328 -0.596307 l 1.359323 -0.549202 l 1.377661 -0.501428 l 1.394322 -0.453043 l 1.409283 -0.404105 l 1.422528 -0.354676 l 1.434039 -0.304814 l 1.443804 -0.254582 l 1.451809 -0.204038 l 1.458045 -0.153247 l 1.462505 -0.102268 l 1.465183 -0.051165 l 1.466077 0 l 1.465183 0.051165 l 1.462505 0.102268 l 1.458045 0.153247 l 1.451809 0.204038 l 1.443804 0.254582 l 1.434039 0.304814 l 1.422528 0.354676 l 1.409283 0.404105 l 1.394322 0.453043 l 1.377661 0.501428 l 1.359323 0.549202 l 1.339328 0.596307 l 1.317701 0.642686 l 1.294469 0.688281 l 1.26966 0.733038 l 1.243303 0.776902 l 1.215433 0.81982 l 1.186081 0.861738 l 1.155284 0.902607 l 1.12308 0.942376 l 1.089507 0.980997 l 1.054607 1.018422 l 1.018422 1.054607 l 0.980997 1.089507 l 0.942376 1.12308 l 0.902607 1.155284 l 0.861738 1.186081 l 0.81982 1.215433 l 0.776902 1.243303 l 0.733038 1.26966 l 0.688281 1.294469 l 0.642686 1.317701 l 0.596307 1.339328 l 0.549202 1.359323 l 0.501428 1.377661 l 0.453043 1.394322 l 0.404105 1.409283 l 0.354676 1.422528 l 0.304814 1.434039 l 0.254582 1.443804 l 0.204038 1.451809 l 0.153247 1.458045 l 0.102268 1.462505 l 0.051165 1.465183 l 0 1.466077 l -0.051165 1.465183 l -0.102268 1.462505 l -0.153247 1.458045 l -0.204038 1.451809 l -0.254582 1.443804 l -0.304814 1.434039 l -0.354676 1.422528 l -0.404105 1.409283 l -0.453043 1.394322 l -0.501428 1.377661 l -0.549202 1.359323 l -0.596307 1.339328 l -0.642686 1.317701 l -0.688281 1.294469 l -0.733038 1.26966 l -0.776902 1.243303 l -0.81982 1.215433 l -0.861738 1.186081 l -0.902607 1.155284 l -0.942376 1.12308 l -0.980997 1.089507 l -1.018422 1.054607 l -1.054607 1.018422 l -1.089507 0.980997 l -1.12308 0.942376 l -1.155284 0.902607 l -1.186081 0.861738 l -1.215433 0.81982 l -1.243303 0.776902 l -1.26966 0.733038 l -1.294469 0.688281 l -1.317701 0.642686 l -1.339328 0.596307 l -1.359323 0.549202 l -1.377661 0.501428 l -1.394322 0.453043 l -1.409283 0.404105 l -1.422528 0.354676 l -1.434039 0.304814 l -1.443804 0.254582 l -1.451809 0.204038 l -1.458045 0.153247 l -1.462505 0.102268 l -1.465183 0.051165 l -1.466077 0 l -1.465183 -0.051165 l -1.462505 -0.102268 l -1.458045 -0.153247 l -1.451809 -0.204038 l -1.443804 -0.254582 l -1.434039 -0.304814 l -1.422528 -0.354676 l -1.409283 -0.404105 l -1.394322 -0.453043 l -1.377661 -0.501428 l -1.359323 -0.549202 l -1.339328 -0.596307 l -1.317701 -0.642686 l -1.294469 -0.688281 l -1.26966 -0.733038 l -1.243303 -0.776902 l -1.215433 -0.81982 l -1.186081 -0.861738 l -1.155284 -0.902607 l -1.12308 -0.942376 l -1.089507 -0.980997 l -1.054607 -1.018422 l -1.018422 -1.054607 l -0.980997 -1.089507 l -0.942376 -1.12308 l -0.902607 -1.155284 l -0.861738 -1.186081 l -0.81982 -1.215433 l -0.776902 -1.243303 l -0.733038 -1.26966 l -0.688281 -1.294469 l -0.642686 -1.317701 l -0.596307 -1.339328 l -0.549202 -1.359323 l -0.501428 -1.377661 l -0.453043 -1.394322 l -0.404105 -1.409283 l -0.354676 -1.422528 l -0.304814 -1.434039 l -0.254582 -1.443804 l -0.204038 -1.451809 l -0.153247 -1.458045 l -0.102268 -1.462505 l -0.051165 -1.465183" stroke="currentcolor" stroke-width="0.25%" fill="transparent" class="foreground-stroke" transform-origin="50% 50%">
  </path>
  <text id="turtle-text" x="5%" dominant-baseline="text-before-edge" letter-spacing=".16em">
    <textPath href="#turtle-path">a turtle circle</textPath>
  </text>
</svg>