<svg xmlns="http://www.w3.org/2000/svg" width="100%" height="100%" transform-origin="50% 50%">
  <symbol id="turtle-symbol" viewBox="0 0 83.9914705390297 83.9914705390296" transform-origin="50% 50%">
    <svg xmlns="http://www.w3.org/2000/svg" viewBox="0 0 83.9914705390297 83.9914705390296" transform-origin="50% 50%" width="100%" height="100%">
      <path id="turtle-path" d="m 1.70002900645727E-15 42.7287735553524  l 8.97712990403502E-17 -1.46607657167524  l 0.051165334478794 -1.46518347743984  l 0.102268331878941 -1.46250528283139  l 0.153246731069922 -1.45804525081748  l 0.204038422724945 -1.4518088152601  l 0.254581524991586 -1.44380357429533  l 0.304814458885303 -1.43403928107618  l 0.354676023313936 -1.42252783188985  l 0.404105469641814 -1.40928325166397  l 0.453042575702609 -1.39432167687939  l 0.50142771917077 -1.37766133591032  l 0.54920195020214 -1.35932252681591  l 0.596307063255264 -1.33932759261015  l 0.642685668005873 -1.3177008940404  l 0.688281259268155 -1.29446877990752  l 0.733038285837619 -1.26965955496395  l 0.776902218171681 -1.24330344542872  l 0.819819614825514 -1.21543256216146  l 0.861738187562213 -1.18608086154023  l 0.90260686505796 -1.15528410409096  l 0.942375855124562 -1.12307981091874  l 0.980996705373567 -1.08950721799409  l 1.01842236224803 -1.05460722835004  l 1.05460722835004 -1.01842236224803  l 1.08950721799409 -0.980996705373567  l 1.12307981091874 -0.942375855124562  l 1.15528410409096 -0.902606865057959  l 1.18608086154023 -0.861738187562213  l 1.21543256216146 -0.819819614825514  l 1.24330344542872 -0.776902218171681  l 1.26965955496395 -0.733038285837618  l 1.29446877990752 -0.688281259268155  l 1.3177008940404 -0.642685668005873  l 1.33932759261015 -0.596307063255264  l 1.35932252681591 -0.54920195020214  l 1.37766133591032 -0.50142771917077  l 1.39432167687939 -0.453042575702609  l 1.40928325166397 -0.404105469641814  l 1.42252783188985 -0.354676023313935  l 1.43403928107618 -0.304814458885302  l 1.44380357429533 -0.254581524991586  l 1.4518088152601 -0.204038422724944  l 1.45804525081748 -0.153246731069922  l 1.46250528283139 -0.102268331878941  l 1.46518347743984 -0.0511653344787939  l 1.46607657167524 0  l 1.46518347743984 0.0511653344787939  l 1.46250528283139 0.102268331878941  l 1.45804525081748 0.153246731069922  l 1.4518088152601 0.204038422724944  l 1.44380357429533 0.254581524991586  l 1.43403928107618 0.304814458885302  l 1.42252783188985 0.354676023313935  l 1.40928325166397 0.404105469641814  l 1.39432167687939 0.453042575702609  l 1.37766133591032 0.50142771917077  l 1.35932252681591 0.54920195020214  l 1.33932759261015 0.596307063255264  l 1.3177008940404 0.642685668005873  l 1.29446877990752 0.688281259268155  l 1.26965955496395 0.733038285837618  l 1.24330344542872 0.776902218171681  l 1.21543256216146 0.819819614825514  l 1.18608086154023 0.861738187562213  l 1.15528410409096 0.902606865057959  l 1.12307981091874 0.942375855124562  l 1.08950721799409 0.980996705373567  l 1.05460722835004 1.01842236224803  l 1.01842236224803 1.05460722835004  l 0.980996705373567 1.08950721799409  l 0.942375855124562 1.12307981091874  l 0.90260686505796 1.15528410409096  l 0.861738187562213 1.18608086154023  l 0.819819614825514 1.21543256216146  l 0.776902218171681 1.24330344542872  l 0.733038285837619 1.26965955496395  l 0.688281259268155 1.29446877990752  l 0.642685668005873 1.3177008940404  l 0.596307063255264 1.33932759261015  l 0.54920195020214 1.35932252681591  l 0.50142771917077 1.37766133591032  l 0.453042575702609 1.39432167687939  l 0.404105469641814 1.40928325166397  l 0.354676023313936 1.42252783188985  l 0.304814458885303 1.43403928107618  l 0.254581524991586 1.44380357429533  l 0.204038422724945 1.4518088152601  l 0.153246731069922 1.45804525081748  l 0.102268331878941 1.46250528283139  l 0.051165334478794 1.46518347743984  l 8.97712990403502E-17 1.46607657167524  l -0.0511653344787935 1.46518347743984  l -0.102268331878941 1.46250528283139  l -0.153246731069922 1.45804525081748  l -0.204038422724944 1.4518088152601  l -0.254581524991586 1.44380357429533  l -0.304814458885302 1.43403928107618  l -0.354676023313935 1.42252783188985  l -0.404105469641813 1.40928325166397  l -0.453042575702609 1.39432167687939  l -0.50142771917077 1.37766133591032  l -0.54920195020214 1.35932252681591  l -0.596307063255263 1.33932759261015  l -0.642685668005873 1.3177008940404  l -0.688281259268154 1.29446877990752  l -0.733038285837618 1.26965955496395  l -0.776902218171681 1.24330344542872  l -0.819819614825514 1.21543256216146  l -0.861738187562213 1.18608086154023  l -0.90260686505796 1.15528410409096  l -0.942375855124562 1.12307981091874  l -0.980996705373567 1.08950721799409  l -1.01842236224803 1.05460722835004  l -1.05460722835004 1.01842236224803  l -1.08950721799409 0.980996705373568  l -1.12307981091874 0.942375855124562  l -1.15528410409096 0.90260686505796  l -1.18608086154023 0.861738187562213  l -1.21543256216146 0.819819614825514  l -1.24330344542872 0.776902218171681  l -1.26965955496395 0.733038285837618  l -1.29446877990752 0.688281259268155  l -1.3177008940404 0.642685668005872  l -1.33932759261015 0.596307063255264  l -1.35932252681591 0.54920195020214  l -1.37766133591032 0.50142771917077  l -1.39432167687939 0.453042575702609  l -1.40928325166397 0.404105469641814  l -1.42252783188985 0.354676023313935  l -1.43403928107618 0.304814458885302  l -1.44380357429533 0.254581524991586  l -1.4518088152601 0.204038422724945  l -1.45804525081748 0.153246731069923  l -1.46250528283139 0.102268331878941  l -1.46518347743984 0.0511653344787935  l -1.46607657167524 1.795425980807E-16  l -1.46518347743984 -0.0511653344787938  l -1.46250528283139 -0.10226833187894  l -1.45804525081748 -0.153246731069922  l -1.4518088152601 -0.204038422724944  l -1.44380357429533 -0.254581524991586  l -1.43403928107618 -0.304814458885302  l -1.42252783188985 -0.354676023313935  l -1.40928325166397 -0.404105469641813  l -1.39432167687939 -0.453042575702609  l -1.37766133591032 -0.501427719170769  l -1.35932252681591 -0.54920195020214  l -1.33932759261015 -0.596307063255263  l -1.3177008940404 -0.642685668005872  l -1.29446877990752 -0.688281259268155  l -1.26965955496395 -0.733038285837619  l -1.24330344542872 -0.776902218171681  l -1.21543256216146 -0.819819614825514  l -1.18608086154023 -0.861738187562213  l -1.15528410409096 -0.902606865057959  l -1.12307981091874 -0.942375855124562  l -1.08950721799409 -0.980996705373567  l -1.05460722835004 -1.01842236224803  l -1.01842236224803 -1.05460722835004  l -0.980996705373568 -1.08950721799409  l -0.942375855124562 -1.12307981091874  l -0.902606865057959 -1.15528410409096  l -0.861738187562213 -1.18608086154023  l -0.819819614825515 -1.21543256216146  l -0.776902218171681 -1.24330344542872  l -0.733038285837619 -1.26965955496395  l -0.688281259268154 -1.29446877990752  l -0.642685668005873 -1.3177008940404  l -0.596307063255264 -1.33932759261015  l -0.54920195020214 -1.35932252681591  l -0.501427719170771 -1.37766133591032  l -0.453042575702609 -1.39432167687939  l -0.404105469641813 -1.40928325166397  l -0.354676023313935 -1.42252783188985  l -0.304814458885303 -1.43403928107618  l -0.254581524991586 -1.44380357429533  l -0.204038422724944 -1.4518088152601  l -0.153246731069922 -1.45804525081748  l -0.102268331878941 -1.46250528283139  l -0.0511653344787949 -1.46518347743984" stroke="currentcolor" stroke-width="0.25%" fill="transparent" class="foreground-stroke" transform-origin="50% 50%">
      </path>
      <text id="turtle-text" x="5%" dominant-baseline="text-before-edge" letter-spacing=".16em">
        <textPath href="#turtle-path">a turtle circle</textPath>
      </text>
    </svg>
  </symbol>
  <use href="#turtle-symbol" width="100%" height="100%" transform-origin="50% 50%" />
</svg>