<svg xmlns="http://www.w3.org/2000/svg" width="100%" height="100%" transform-origin="50% 50%">
  <symbol id="turtle-symbol" viewBox="0 0 83.9906471453313 83.9906471453313" transform-origin="50% 50%">
    <svg xmlns="http://www.w3.org/2000/svg" viewBox="0 0 83.9906471453313 83.9906471453313" transform-origin="50% 50%" width="100%" height="100%">
      <path id="turtle-path" d="m 0 42.7283618585033  l 0 -1.46607657167524  l 0.0511660723514658 -1.46519692573223  l 0.102332144702932 -1.46255798790322  l 0.153205001740062 -1.45801315053102  l 0.204077858777193 -1.45185562892999  l 0.254510892842821 -1.44379220778577  l 0.304797319251282 -1.43396949475555  l 0.35464392268824 -1.42253409749648  l 0.404050703153695 -1.40933940835141  l 0.453017660647648 -1.39438542732032  l 0.501398187512931 -1.37767215440322  l 0.549192283749544 -1.35934619725728  l 0.596253341700319 -1.33926094822533  l 0.642727969022424 -1.3177096226217  l 0.688322950401524 -1.29439900513207  l 0.733038285837618 -1.26962231107076  l 0.776873975330708 -1.2432329327806  l 0.819830018880793 -1.21537747791877  l 0.861759808830704 -1.18605594648527  l 0.902663345180443 -1.15526833848009  l 0.942394020272842 -1.12301465390323  l 0.980951834107901 -1.08944150041187  l 1.01848339434279 -1.054548878006  l 1.054548878006 -1.01848339434279  l 1.08944150041187 -0.980951834107901  l 1.12301465390323 -0.942394020272842  l 1.15526833848009 -0.902663345180443  l 1.18605594648527 -0.861759808830704  l 1.21537747791877 -0.819830018880793  l 1.2432329327806 -0.776873975330708  l 1.26962231107076 -0.733038285837618  l 1.29439900513207 -0.688322950401524  l 1.3177096226217 -0.642727969022424  l 1.33926094822533 -0.596253341700319  l 1.35934619725728 -0.549192283749544  l 1.37767215440322 -0.501398187512931  l 1.39438542732032 -0.453017660647648  l 1.40933940835141 -0.404050703153695  l 1.42253409749648 -0.35464392268824  l 1.43396949475555 -0.304797319251282  l 1.44379220778577 -0.254510892842821  l 1.45185562892999 -0.204077858777193  l 1.45801315053102 -0.153205001740062  l 1.46255798790322 -0.102332144702932  l 1.46519692573223 -0.0511660723514658  l 1.46607657167524 0  l 1.46519692573223 0.0511660723514658  l 1.46255798790322 0.102332144702932  l 1.45801315053102 0.153205001740062  l 1.45185562892999 0.204077858777193  l 1.44379220778577 0.254510892842821  l 1.43396949475555 0.304797319251282  l 1.42253409749648 0.35464392268824  l 1.40933940835141 0.404050703153695  l 1.39438542732032 0.453017660647648  l 1.37767215440322 0.501398187512931  l 1.35934619725728 0.549192283749544  l 1.33926094822533 0.596253341700319  l 1.3177096226217 0.642727969022424  l 1.29439900513207 0.688322950401524  l 1.26962231107076 0.733038285837618  l 1.2432329327806 0.776873975330708  l 1.21537747791877 0.819830018880793  l 1.18605594648527 0.861759808830704  l 1.15526833848009 0.902663345180443  l 1.12301465390323 0.942394020272842  l 1.08944150041187 0.980951834107901  l 1.054548878006 1.01848339434279  l 1.01848339434279 1.054548878006  l 0.980951834107901 1.08944150041187  l 0.942394020272842 1.12301465390323  l 0.902663345180443 1.15526833848009  l 0.861759808830704 1.18605594648527  l 0.819830018880793 1.21537747791877  l 0.776873975330708 1.2432329327806  l 0.733038285837618 1.26962231107076  l 0.688322950401524 1.29439900513207  l 0.642727969022424 1.3177096226217  l 0.596253341700319 1.33926094822533  l 0.549192283749544 1.35934619725728  l 0.501398187512931 1.37767215440322  l 0.453017660647648 1.39438542732032  l 0.404050703153695 1.40933940835141  l 0.35464392268824 1.42253409749648  l 0.304797319251282 1.43396949475555  l 0.254510892842821 1.44379220778577  l 0.204077858777193 1.45185562892999  l 0.153205001740062 1.45801315053102  l 0.102332144702932 1.46255798790322  l 0.0511660723514658 1.46519692573223  l 0 1.46607657167524  l -0.0511660723514658 1.46519692573223  l -0.102332144702932 1.46255798790322  l -0.153205001740062 1.45801315053102  l -0.204077858777193 1.45185562892999  l -0.254510892842821 1.44379220778577  l -0.304797319251282 1.43396949475555  l -0.35464392268824 1.42253409749648  l -0.404050703153695 1.40933940835141  l -0.453017660647648 1.39438542732032  l -0.501398187512931 1.37767215440322  l -0.549192283749544 1.35934619725728  l -0.596253341700319 1.33926094822533  l -0.642727969022424 1.3177096226217  l -0.688322950401524 1.29439900513207  l -0.733038285837618 1.26962231107076  l -0.776873975330708 1.2432329327806  l -0.819830018880793 1.21537747791877  l -0.861759808830704 1.18605594648527  l -0.902663345180443 1.15526833848009  l -0.942394020272842 1.12301465390323  l -0.980951834107901 1.08944150041187  l -1.01848339434279 1.054548878006  l -1.054548878006 1.01848339434279  l -1.08944150041187 0.980951834107901  l -1.12301465390323 0.942394020272842  l -1.15526833848009 0.902663345180443  l -1.18605594648527 0.861759808830704  l -1.21537747791877 0.819830018880793  l -1.2432329327806 0.776873975330708  l -1.26962231107076 0.733038285837618  l -1.29439900513207 0.688322950401524  l -1.3177096226217 0.642727969022424  l -1.33926094822533 0.596253341700319  l -1.35934619725728 0.549192283749544  l -1.37767215440322 0.501398187512931  l -1.39438542732032 0.453017660647648  l -1.40933940835141 0.404050703153695  l -1.42253409749648 0.35464392268824  l -1.43396949475555 0.304797319251282  l -1.44379220778577 0.254510892842821  l -1.45185562892999 0.204077858777193  l -1.45801315053102 0.153205001740062  l -1.46255798790322 0.102332144702932  l -1.46519692573223 0.0511660723514658  l -1.46607657167524 0  l -1.46519692573223 -0.0511660723514658  l -1.46255798790322 -0.102332144702932  l -1.45801315053102 -0.153205001740062  l -1.45185562892999 -0.204077858777193  l -1.44379220778577 -0.254510892842821  l -1.43396949475555 -0.304797319251282  l -1.42253409749648 -0.35464392268824  l -1.40933940835141 -0.404050703153695  l -1.39438542732032 -0.453017660647648  l -1.37767215440322 -0.501398187512931  l -1.35934619725728 -0.549192283749544  l -1.33926094822533 -0.596253341700319  l -1.3177096226217 -0.642727969022424  l -1.29439900513207 -0.688322950401524  l -1.26962231107076 -0.733038285837618  l -1.2432329327806 -0.776873975330708  l -1.21537747791877 -0.819830018880793  l -1.18605594648527 -0.861759808830704  l -1.15526833848009 -0.902663345180443  l -1.12301465390323 -0.942394020272842  l -1.08944150041187 -0.980951834107901  l -1.054548878006 -1.01848339434279  l -1.01848339434279 -1.054548878006  l -0.980951834107901 -1.08944150041187  l -0.942394020272842 -1.12301465390323  l -0.902663345180443 -1.15526833848009  l -0.861759808830704 -1.18605594648527  l -0.819830018880793 -1.21537747791877  l -0.776873975330708 -1.2432329327806  l -0.733038285837618 -1.26962231107076  l -0.688322950401524 -1.29439900513207  l -0.642727969022424 -1.3177096226217  l -0.596253341700319 -1.33926094822533  l -0.549192283749544 -1.35934619725728  l -0.501398187512931 -1.37767215440322  l -0.453017660647648 -1.39438542732032  l -0.404050703153695 -1.40933940835141  l -0.35464392268824 -1.42253409749648  l -0.304797319251282 -1.43396949475555  l -0.254510892842821 -1.44379220778577  l -0.204077858777193 -1.45185562892999  l -0.153205001740062 -1.45801315053102  l -0.102332144702932 -1.46255798790322  l -0.0511660723514658 -1.46519692573223" stroke="currentcolor" stroke-width="0.25%" fill="transparent" class="foreground-stroke" transform-origin="50% 50%">
      </path>
      <text id="turtle-text" x="5%" dominant-baseline="text-before-edge" letter-spacing=".16em">
        <textPath href="#turtle-path">a turtle circle</textPath>
      </text>
    </svg>
  </symbol>
  <use href="#turtle-symbol" width="100%" height="100%" transform-origin="50% 50%" />
</svg>