<svg xmlns="http://www.w3.org/2000/svg" viewBox="0 0 43.7332038879395 74.2417221069336" transform-origin="50% 50%" width="100%" height="100%">
  <path id="turtle-path" d="m 0 0   m 0 50 l 1.745329 0 l 1.744266 0.060911 l 1.741078 0.121748 l 1.735768 0.182437 l 1.728344 0.242903 l 1.718814 0.303073 l 1.70719 0.362874 l 1.693486 0.422233 l 1.677718 0.481078 l 1.659907 0.539336 l 1.640073 0.596938 l 1.618241 0.653812 l 1.594438 0.709889 l 1.568692 0.765102 l 1.541034 0.819382 l 1.511499 0.872665 l 1.480123 0.924884 l 1.446944 0.975976 l 1.412001 1.025879 l 1.375338 1.074532 l 1.337 1.121876 l 1.297032 1.167853 l 1.255485 1.212408 l 1.212408 1.255485 l 1.167853 1.297032 l 1.121876 1.337 l 1.074532 1.375338 l 1.025879 1.412001 l 0.975976 1.446944 l 0.924884 1.480123" stroke="currentcolor" stroke-width="0.25%" fill="transparent" class="foreground-stroke" transform-origin="50% 50%">
  </path>
  <text id="turtle-text" font-size="36">
    <textPath href="#turtle-path">turtles on a text path</textPath>
  </text>
</svg>