<svg xmlns="http://www.w3.org/2000/svg" width="100%" height="100%" transform-origin="50% 50%">
  <symbol id="turtle-symbol" viewBox="0 0 258.490243537368 202.262523943985" transform-origin="50% 50%">
    <svg xmlns="http://www.w3.org/2000/svg" viewBox="0 0 258.490243537368 202.262523943985" transform-origin="50% 50%" width="100%" height="100%">
      <path id="turtle-path" d="m 0 0  m 0 50  l 5.23494055843179 0.0916297857297023  l 5.2328461633294 0.182735972683806  l 5.22865737312461 0.27384215963791  l 5.22342138536863 0.365471945367613  l 5.21609100251025 0.456578132321717  l 5.20718982332508 0.547160720500222  l 5.19671784781312 0.638266907454326  l 5.18519867474995 0.728849495632832  l 5.1715851065844 0.81890848503574  l 5.15640074209205 0.908967474438647  l 5.1396455812729 0.999026463841554  l 5.12131962412696 1.08856185446886  l 5.10194646942982 1.17809724509617  l 5.08047891963029 1.26658543817228  l 5.05744057350397 1.3550736312484  l 5.03335502982645 1.44303822554891  l 5.00717509104653 1.53100281984943  l 4.97994795471542 1.61792021659874  l 4.95062642328192 1.70483761334806  l 4.92025769429721 1.79070781254618  l 4.88831816898572 1.8765780117443  l 4.85480784734743 1.96140101339123  l 4.81972672938234 2.04570041626255  l 4.78307481509046 2.12947622035828  l 4.74537570324738 2.21272842567841  l 4.70610579507751 2.29545703222294  l 4.66526509058084 2.37713844121628  l 4.62285358975738 2.45829625143401  l 4.57939489138272 2.53840686410055  l 4.53436539668127 2.61799387799149  l 4.48828870442862 2.69653369433124  l 4.44011761707357 2.77454991189539  l 4.39142293094293 2.85151893190834  l 4.3406338497099 2.92796435314569  l 4.28932116970126 3.00336257683184  l 4.23591409459024 3.0777136029668  l 4.18145982192801 3.15101743155056  l 4.1259583517146 3.22379766135873  l 4.06888608517438 3.29500709484009  l 4.01076662108297 3.36569292954587  l 3.95159995944036 3.43533156670044  l 3.89086250147096 3.50339940752822  l 3.82960144472596 3.5709436495804  l 3.76624599287856 3.63744069408138  l 3.70236694225557 3.70236694225557  l 3.63744069408138 3.76624599287856  l 3.5709436495804 3.82960144472596  l 3.50339940752822 3.89086250147096  l 3.43533156670044 3.95159995944036  l 3.36569292954587 4.01076662108297  l 3.29500709484009 4.06888608517438  l 3.22379766135873 4.1259583517146  l 3.15101743155056 4.18145982192801  l 3.0777136029668 4.23591409459024  l 3.00336257683184 4.28932116970126  l 2.92796435314569 4.3406338497099  l 2.85151893190834 4.39142293094293  l 2.77454991189539 4.44011761707357  l 2.69653369433124 4.48828870442862  l 2.61799387799149 4.53436539668127" stroke="currentcolor" stroke-width="0.25%" fill="transparent" class="foreground-stroke" transform-origin="50% 50%">
      </path>
      <text id="turtle-text" font-size="36">
        <textPath href="#turtle-path">turtles on a text path</textPath>
      </text>
    </svg>
  </symbol>
  <use href="#turtle-symbol" width="100%" height="100%" transform-origin="50% 50%" />
</svg>